<?xml version="1.0" encoding="utf-8" standalone="no"?>
<!DOCTYPE svg PUBLIC "-//W3C//DTD SVG 1.1//EN"
  "http://www.w3.org/Graphics/SVG/1.1/DTD/svg11.dtd">
<svg xmlns:xlink="http://www.w3.org/1999/xlink" width="460.8pt" height="345.6pt" viewBox="0 0 460.8 345.6" xmlns="http://www.w3.org/2000/svg" version="1.1">
 <metadata>
  <rdf:RDF xmlns:dc="http://purl.org/dc/elements/1.1/" xmlns:cc="http://creativecommons.org/ns#" xmlns:rdf="http://www.w3.org/1999/02/22-rdf-syntax-ns#">
   <cc:Work>
    <dc:type rdf:resource="http://purl.org/dc/dcmitype/StillImage"/>
    <dc:date>2024-05-02T16:42:48.235377</dc:date>
    <dc:format>image/svg+xml</dc:format>
    <dc:creator>
     <cc:Agent>
      <dc:title>Matplotlib v3.8.4, https://matplotlib.org/</dc:title>
     </cc:Agent>
    </dc:creator>
   </cc:Work>
  </rdf:RDF>
 </metadata>
 <defs>
  <style type="text/css">*{stroke-linejoin: round; stroke-linecap: butt}</style>
 </defs>
 <g id="figure_1">
  <g id="patch_1">
   <path d="M 0 345.6 
L 460.8 345.6 
L 460.8 0 
L 0 0 
z
" style="fill: #ffffff"/>
  </g>
  <g id="axes_1">
   <g id="patch_2">
    <path d="M 57.6 307.584 
L 414.72 307.584 
L 414.72 41.472 
L 57.6 41.472 
z
" style="fill: #ffffff"/>
   </g>
   <g id="matplotlib.axis_1">
    <g id="xtick_1">
     <g id="line2d_1">
      <path d="M 83.108571 307.584 
L 83.108571 41.472 
" clip-path="url(#pfaf3debf64)" style="fill: none; stroke: #b0b0b0; stroke-width: 0.8; stroke-linecap: square"/>
     </g>
     <g id="line2d_2">
      <defs>
       <path id="m80ca67156e" d="M 0 0 
L 0 3.5 
" style="stroke: #000000; stroke-width: 0.8"/>
      </defs>
      <g>
       <use xlink:href="#m80ca67156e" x="83.108571" y="307.584" style="stroke: #000000; stroke-width: 0.8"/>
      </g>
     </g>
     <g id="text_1">
      <!-- −6 -->
      <g transform="translate(75.737478 322.182437) scale(0.1 -0.1)">
       <defs>
        <path id="DejaVuSans-2212" d="M 678 2272 
L 4684 2272 
L 4684 1741 
L 678 1741 
L 678 2272 
z
" transform="scale(0.015625)"/>
        <path id="DejaVuSans-36" d="M 2113 2584 
Q 1688 2584 1439 2293 
Q 1191 2003 1191 1497 
Q 1191 994 1439 701 
Q 1688 409 2113 409 
Q 2538 409 2786 701 
Q 3034 994 3034 1497 
Q 3034 2003 2786 2293 
Q 2538 2584 2113 2584 
z
M 3366 4563 
L 3366 3988 
Q 3128 4100 2886 4159 
Q 2644 4219 2406 4219 
Q 1781 4219 1451 3797 
Q 1122 3375 1075 2522 
Q 1259 2794 1537 2939 
Q 1816 3084 2150 3084 
Q 2853 3084 3261 2657 
Q 3669 2231 3669 1497 
Q 3669 778 3244 343 
Q 2819 -91 2113 -91 
Q 1303 -91 875 529 
Q 447 1150 447 2328 
Q 447 3434 972 4092 
Q 1497 4750 2381 4750 
Q 2619 4750 2861 4703 
Q 3103 4656 3366 4563 
z
" transform="scale(0.015625)"/>
       </defs>
       <use xlink:href="#DejaVuSans-2212"/>
       <use xlink:href="#DejaVuSans-36" x="83.789062"/>
      </g>
     </g>
    </g>
    <g id="xtick_2">
     <g id="line2d_3">
      <path d="M 134.125714 307.584 
L 134.125714 41.472 
" clip-path="url(#pfaf3debf64)" style="fill: none; stroke: #b0b0b0; stroke-width: 0.8; stroke-linecap: square"/>
     </g>
     <g id="line2d_4">
      <g>
       <use xlink:href="#m80ca67156e" x="134.125714" y="307.584" style="stroke: #000000; stroke-width: 0.8"/>
      </g>
     </g>
     <g id="text_2">
      <!-- −4 -->
      <g transform="translate(126.754621 322.182437) scale(0.1 -0.1)">
       <defs>
        <path id="DejaVuSans-34" d="M 2419 4116 
L 825 1625 
L 2419 1625 
L 2419 4116 
z
M 2253 4666 
L 3047 4666 
L 3047 1625 
L 3713 1625 
L 3713 1100 
L 3047 1100 
L 3047 0 
L 2419 0 
L 2419 1100 
L 313 1100 
L 313 1709 
L 2253 4666 
z
" transform="scale(0.015625)"/>
       </defs>
       <use xlink:href="#DejaVuSans-2212"/>
       <use xlink:href="#DejaVuSans-34" x="83.789062"/>
      </g>
     </g>
    </g>
    <g id="xtick_3">
     <g id="line2d_5">
      <path d="M 185.142857 307.584 
L 185.142857 41.472 
" clip-path="url(#pfaf3debf64)" style="fill: none; stroke: #b0b0b0; stroke-width: 0.8; stroke-linecap: square"/>
     </g>
     <g id="line2d_6">
      <g>
       <use xlink:href="#m80ca67156e" x="185.142857" y="307.584" style="stroke: #000000; stroke-width: 0.8"/>
      </g>
     </g>
     <g id="text_3">
      <!-- −2 -->
      <g transform="translate(177.771763 322.182437) scale(0.1 -0.1)">
       <defs>
        <path id="DejaVuSans-32" d="M 1228 531 
L 3431 531 
L 3431 0 
L 469 0 
L 469 531 
Q 828 903 1448 1529 
Q 2069 2156 2228 2338 
Q 2531 2678 2651 2914 
Q 2772 3150 2772 3378 
Q 2772 3750 2511 3984 
Q 2250 4219 1831 4219 
Q 1534 4219 1204 4116 
Q 875 4013 500 3803 
L 500 4441 
Q 881 4594 1212 4672 
Q 1544 4750 1819 4750 
Q 2544 4750 2975 4387 
Q 3406 4025 3406 3419 
Q 3406 3131 3298 2873 
Q 3191 2616 2906 2266 
Q 2828 2175 2409 1742 
Q 1991 1309 1228 531 
z
" transform="scale(0.015625)"/>
       </defs>
       <use xlink:href="#DejaVuSans-2212"/>
       <use xlink:href="#DejaVuSans-32" x="83.789062"/>
      </g>
     </g>
    </g>
    <g id="xtick_4">
     <g id="line2d_7">
      <path d="M 236.16 307.584 
L 236.16 41.472 
" clip-path="url(#pfaf3debf64)" style="fill: none; stroke: #b0b0b0; stroke-width: 0.8; stroke-linecap: square"/>
     </g>
     <g id="line2d_8">
      <g>
       <use xlink:href="#m80ca67156e" x="236.16" y="307.584" style="stroke: #000000; stroke-width: 0.8"/>
      </g>
     </g>
     <g id="text_4">
      <!-- 0 -->
      <g transform="translate(232.97875 322.182437) scale(0.1 -0.1)">
       <defs>
        <path id="DejaVuSans-30" d="M 2034 4250 
Q 1547 4250 1301 3770 
Q 1056 3291 1056 2328 
Q 1056 1369 1301 889 
Q 1547 409 2034 409 
Q 2525 409 2770 889 
Q 3016 1369 3016 2328 
Q 3016 3291 2770 3770 
Q 2525 4250 2034 4250 
z
M 2034 4750 
Q 2819 4750 3233 4129 
Q 3647 3509 3647 2328 
Q 3647 1150 3233 529 
Q 2819 -91 2034 -91 
Q 1250 -91 836 529 
Q 422 1150 422 2328 
Q 422 3509 836 4129 
Q 1250 4750 2034 4750 
z
" transform="scale(0.015625)"/>
       </defs>
       <use xlink:href="#DejaVuSans-30"/>
      </g>
     </g>
    </g>
    <g id="xtick_5">
     <g id="line2d_9">
      <path d="M 287.177143 307.584 
L 287.177143 41.472 
" clip-path="url(#pfaf3debf64)" style="fill: none; stroke: #b0b0b0; stroke-width: 0.8; stroke-linecap: square"/>
     </g>
     <g id="line2d_10">
      <g>
       <use xlink:href="#m80ca67156e" x="287.177143" y="307.584" style="stroke: #000000; stroke-width: 0.8"/>
      </g>
     </g>
     <g id="text_5">
      <!-- 2 -->
      <g transform="translate(283.995893 322.182437) scale(0.1 -0.1)">
       <use xlink:href="#DejaVuSans-32"/>
      </g>
     </g>
    </g>
    <g id="xtick_6">
     <g id="line2d_11">
      <path d="M 338.194286 307.584 
L 338.194286 41.472 
" clip-path="url(#pfaf3debf64)" style="fill: none; stroke: #b0b0b0; stroke-width: 0.8; stroke-linecap: square"/>
     </g>
     <g id="line2d_12">
      <g>
       <use xlink:href="#m80ca67156e" x="338.194286" y="307.584" style="stroke: #000000; stroke-width: 0.8"/>
      </g>
     </g>
     <g id="text_6">
      <!-- 4 -->
      <g transform="translate(335.013036 322.182437) scale(0.1 -0.1)">
       <use xlink:href="#DejaVuSans-34"/>
      </g>
     </g>
    </g>
    <g id="xtick_7">
     <g id="line2d_13">
      <path d="M 389.211429 307.584 
L 389.211429 41.472 
" clip-path="url(#pfaf3debf64)" style="fill: none; stroke: #b0b0b0; stroke-width: 0.8; stroke-linecap: square"/>
     </g>
     <g id="line2d_14">
      <g>
       <use xlink:href="#m80ca67156e" x="389.211429" y="307.584" style="stroke: #000000; stroke-width: 0.8"/>
      </g>
     </g>
     <g id="text_7">
      <!-- 6 -->
      <g transform="translate(386.030179 322.182437) scale(0.1 -0.1)">
       <use xlink:href="#DejaVuSans-36"/>
      </g>
     </g>
    </g>
    <g id="text_8">
     <!-- x -->
     <g transform="translate(233.200625 335.860562) scale(0.1 -0.1)">
      <defs>
       <path id="DejaVuSans-78" d="M 3513 3500 
L 2247 1797 
L 3578 0 
L 2900 0 
L 1881 1375 
L 863 0 
L 184 0 
L 1544 1831 
L 300 3500 
L 978 3500 
L 1906 2253 
L 2834 3500 
L 3513 3500 
z
" transform="scale(0.015625)"/>
      </defs>
      <use xlink:href="#DejaVuSans-78"/>
     </g>
    </g>
   </g>
   <g id="matplotlib.axis_2">
    <g id="ytick_1">
     <g id="line2d_15">
      <path d="M 57.6 266.919644 
L 414.72 266.919644 
" clip-path="url(#pfaf3debf64)" style="fill: none; stroke: #b0b0b0; stroke-width: 0.8; stroke-linecap: square"/>
     </g>
     <g id="line2d_16">
      <defs>
       <path id="mbdf49841b0" d="M 0 0 
L -3.5 0 
" style="stroke: #000000; stroke-width: 0.8"/>
      </defs>
      <g>
       <use xlink:href="#mbdf49841b0" x="57.6" y="266.919644" style="stroke: #000000; stroke-width: 0.8"/>
      </g>
     </g>
     <g id="text_9">
      <!-- 0.1 -->
      <g transform="translate(34.696875 270.718863) scale(0.1 -0.1)">
       <defs>
        <path id="DejaVuSans-2e" d="M 684 794 
L 1344 794 
L 1344 0 
L 684 0 
L 684 794 
z
" transform="scale(0.015625)"/>
        <path id="DejaVuSans-31" d="M 794 531 
L 1825 531 
L 1825 4091 
L 703 3866 
L 703 4441 
L 1819 4666 
L 2450 4666 
L 2450 531 
L 3481 531 
L 3481 0 
L 794 0 
L 794 531 
z
" transform="scale(0.015625)"/>
       </defs>
       <use xlink:href="#DejaVuSans-30"/>
       <use xlink:href="#DejaVuSans-2e" x="63.623047"/>
       <use xlink:href="#DejaVuSans-31" x="95.410156"/>
      </g>
     </g>
    </g>
    <g id="ytick_2">
     <g id="line2d_17">
      <path d="M 57.6 224.897307 
L 414.72 224.897307 
" clip-path="url(#pfaf3debf64)" style="fill: none; stroke: #b0b0b0; stroke-width: 0.8; stroke-linecap: square"/>
     </g>
     <g id="line2d_18">
      <g>
       <use xlink:href="#mbdf49841b0" x="57.6" y="224.897307" style="stroke: #000000; stroke-width: 0.8"/>
      </g>
     </g>
     <g id="text_10">
      <!-- 0.2 -->
      <g transform="translate(34.696875 228.696525) scale(0.1 -0.1)">
       <use xlink:href="#DejaVuSans-30"/>
       <use xlink:href="#DejaVuSans-2e" x="63.623047"/>
       <use xlink:href="#DejaVuSans-32" x="95.410156"/>
      </g>
     </g>
    </g>
    <g id="ytick_3">
     <g id="line2d_19">
      <path d="M 57.6 182.874969 
L 414.72 182.874969 
" clip-path="url(#pfaf3debf64)" style="fill: none; stroke: #b0b0b0; stroke-width: 0.8; stroke-linecap: square"/>
     </g>
     <g id="line2d_20">
      <g>
       <use xlink:href="#mbdf49841b0" x="57.6" y="182.874969" style="stroke: #000000; stroke-width: 0.8"/>
      </g>
     </g>
     <g id="text_11">
      <!-- 0.3 -->
      <g transform="translate(34.696875 186.674188) scale(0.1 -0.1)">
       <defs>
        <path id="DejaVuSans-33" d="M 2597 2516 
Q 3050 2419 3304 2112 
Q 3559 1806 3559 1356 
Q 3559 666 3084 287 
Q 2609 -91 1734 -91 
Q 1441 -91 1130 -33 
Q 819 25 488 141 
L 488 750 
Q 750 597 1062 519 
Q 1375 441 1716 441 
Q 2309 441 2620 675 
Q 2931 909 2931 1356 
Q 2931 1769 2642 2001 
Q 2353 2234 1838 2234 
L 1294 2234 
L 1294 2753 
L 1863 2753 
Q 2328 2753 2575 2939 
Q 2822 3125 2822 3475 
Q 2822 3834 2567 4026 
Q 2313 4219 1838 4219 
Q 1578 4219 1281 4162 
Q 984 4106 628 3988 
L 628 4550 
Q 988 4650 1302 4700 
Q 1616 4750 1894 4750 
Q 2613 4750 3031 4423 
Q 3450 4097 3450 3541 
Q 3450 3153 3228 2886 
Q 3006 2619 2597 2516 
z
" transform="scale(0.015625)"/>
       </defs>
       <use xlink:href="#DejaVuSans-30"/>
       <use xlink:href="#DejaVuSans-2e" x="63.623047"/>
       <use xlink:href="#DejaVuSans-33" x="95.410156"/>
      </g>
     </g>
    </g>
    <g id="ytick_4">
     <g id="line2d_21">
      <path d="M 57.6 140.852631 
L 414.72 140.852631 
" clip-path="url(#pfaf3debf64)" style="fill: none; stroke: #b0b0b0; stroke-width: 0.8; stroke-linecap: square"/>
     </g>
     <g id="line2d_22">
      <g>
       <use xlink:href="#mbdf49841b0" x="57.6" y="140.852631" style="stroke: #000000; stroke-width: 0.8"/>
      </g>
     </g>
     <g id="text_12">
      <!-- 0.4 -->
      <g transform="translate(34.696875 144.65185) scale(0.1 -0.1)">
       <use xlink:href="#DejaVuSans-30"/>
       <use xlink:href="#DejaVuSans-2e" x="63.623047"/>
       <use xlink:href="#DejaVuSans-34" x="95.410156"/>
      </g>
     </g>
    </g>
    <g id="ytick_5">
     <g id="line2d_23">
      <path d="M 57.6 98.830293 
L 414.72 98.830293 
" clip-path="url(#pfaf3debf64)" style="fill: none; stroke: #b0b0b0; stroke-width: 0.8; stroke-linecap: square"/>
     </g>
     <g id="line2d_24">
      <g>
       <use xlink:href="#mbdf49841b0" x="57.6" y="98.830293" style="stroke: #000000; stroke-width: 0.8"/>
      </g>
     </g>
     <g id="text_13">
      <!-- 0.5 -->
      <g transform="translate(34.696875 102.629512) scale(0.1 -0.1)">
       <defs>
        <path id="DejaVuSans-35" d="M 691 4666 
L 3169 4666 
L 3169 4134 
L 1269 4134 
L 1269 2991 
Q 1406 3038 1543 3061 
Q 1681 3084 1819 3084 
Q 2600 3084 3056 2656 
Q 3513 2228 3513 1497 
Q 3513 744 3044 326 
Q 2575 -91 1722 -91 
Q 1428 -91 1123 -41 
Q 819 9 494 109 
L 494 744 
Q 775 591 1075 516 
Q 1375 441 1709 441 
Q 2250 441 2565 725 
Q 2881 1009 2881 1497 
Q 2881 1984 2565 2268 
Q 2250 2553 1709 2553 
Q 1456 2553 1204 2497 
Q 953 2441 691 2322 
L 691 4666 
z
" transform="scale(0.015625)"/>
       </defs>
       <use xlink:href="#DejaVuSans-30"/>
       <use xlink:href="#DejaVuSans-2e" x="63.623047"/>
       <use xlink:href="#DejaVuSans-35" x="95.410156"/>
      </g>
     </g>
    </g>
    <g id="ytick_6">
     <g id="line2d_25">
      <path d="M 57.6 56.807955 
L 414.72 56.807955 
" clip-path="url(#pfaf3debf64)" style="fill: none; stroke: #b0b0b0; stroke-width: 0.8; stroke-linecap: square"/>
     </g>
     <g id="line2d_26">
      <g>
       <use xlink:href="#mbdf49841b0" x="57.6" y="56.807955" style="stroke: #000000; stroke-width: 0.8"/>
      </g>
     </g>
     <g id="text_14">
      <!-- 0.6 -->
      <g transform="translate(34.696875 60.607174) scale(0.1 -0.1)">
       <use xlink:href="#DejaVuSans-30"/>
       <use xlink:href="#DejaVuSans-2e" x="63.623047"/>
       <use xlink:href="#DejaVuSans-36" x="95.410156"/>
      </g>
     </g>
    </g>
    <g id="text_15">
     <!-- Probability density -->
     <g transform="translate(28.617187 220.878781) rotate(-90) scale(0.1 -0.1)">
      <defs>
       <path id="DejaVuSans-50" d="M 1259 4147 
L 1259 2394 
L 2053 2394 
Q 2494 2394 2734 2622 
Q 2975 2850 2975 3272 
Q 2975 3691 2734 3919 
Q 2494 4147 2053 4147 
L 1259 4147 
z
M 628 4666 
L 2053 4666 
Q 2838 4666 3239 4311 
Q 3641 3956 3641 3272 
Q 3641 2581 3239 2228 
Q 2838 1875 2053 1875 
L 1259 1875 
L 1259 0 
L 628 0 
L 628 4666 
z
" transform="scale(0.015625)"/>
       <path id="DejaVuSans-72" d="M 2631 2963 
Q 2534 3019 2420 3045 
Q 2306 3072 2169 3072 
Q 1681 3072 1420 2755 
Q 1159 2438 1159 1844 
L 1159 0 
L 581 0 
L 581 3500 
L 1159 3500 
L 1159 2956 
Q 1341 3275 1631 3429 
Q 1922 3584 2338 3584 
Q 2397 3584 2469 3576 
Q 2541 3569 2628 3553 
L 2631 2963 
z
" transform="scale(0.015625)"/>
       <path id="DejaVuSans-6f" d="M 1959 3097 
Q 1497 3097 1228 2736 
Q 959 2375 959 1747 
Q 959 1119 1226 758 
Q 1494 397 1959 397 
Q 2419 397 2687 759 
Q 2956 1122 2956 1747 
Q 2956 2369 2687 2733 
Q 2419 3097 1959 3097 
z
M 1959 3584 
Q 2709 3584 3137 3096 
Q 3566 2609 3566 1747 
Q 3566 888 3137 398 
Q 2709 -91 1959 -91 
Q 1206 -91 779 398 
Q 353 888 353 1747 
Q 353 2609 779 3096 
Q 1206 3584 1959 3584 
z
" transform="scale(0.015625)"/>
       <path id="DejaVuSans-62" d="M 3116 1747 
Q 3116 2381 2855 2742 
Q 2594 3103 2138 3103 
Q 1681 3103 1420 2742 
Q 1159 2381 1159 1747 
Q 1159 1113 1420 752 
Q 1681 391 2138 391 
Q 2594 391 2855 752 
Q 3116 1113 3116 1747 
z
M 1159 2969 
Q 1341 3281 1617 3432 
Q 1894 3584 2278 3584 
Q 2916 3584 3314 3078 
Q 3713 2572 3713 1747 
Q 3713 922 3314 415 
Q 2916 -91 2278 -91 
Q 1894 -91 1617 61 
Q 1341 213 1159 525 
L 1159 0 
L 581 0 
L 581 4863 
L 1159 4863 
L 1159 2969 
z
" transform="scale(0.015625)"/>
       <path id="DejaVuSans-61" d="M 2194 1759 
Q 1497 1759 1228 1600 
Q 959 1441 959 1056 
Q 959 750 1161 570 
Q 1363 391 1709 391 
Q 2188 391 2477 730 
Q 2766 1069 2766 1631 
L 2766 1759 
L 2194 1759 
z
M 3341 1997 
L 3341 0 
L 2766 0 
L 2766 531 
Q 2569 213 2275 61 
Q 1981 -91 1556 -91 
Q 1019 -91 701 211 
Q 384 513 384 1019 
Q 384 1609 779 1909 
Q 1175 2209 1959 2209 
L 2766 2209 
L 2766 2266 
Q 2766 2663 2505 2880 
Q 2244 3097 1772 3097 
Q 1472 3097 1187 3025 
Q 903 2953 641 2809 
L 641 3341 
Q 956 3463 1253 3523 
Q 1550 3584 1831 3584 
Q 2591 3584 2966 3190 
Q 3341 2797 3341 1997 
z
" transform="scale(0.015625)"/>
       <path id="DejaVuSans-69" d="M 603 3500 
L 1178 3500 
L 1178 0 
L 603 0 
L 603 3500 
z
M 603 4863 
L 1178 4863 
L 1178 4134 
L 603 4134 
L 603 4863 
z
" transform="scale(0.015625)"/>
       <path id="DejaVuSans-6c" d="M 603 4863 
L 1178 4863 
L 1178 0 
L 603 0 
L 603 4863 
z
" transform="scale(0.015625)"/>
       <path id="DejaVuSans-74" d="M 1172 4494 
L 1172 3500 
L 2356 3500 
L 2356 3053 
L 1172 3053 
L 1172 1153 
Q 1172 725 1289 603 
Q 1406 481 1766 481 
L 2356 481 
L 2356 0 
L 1766 0 
Q 1100 0 847 248 
Q 594 497 594 1153 
L 594 3053 
L 172 3053 
L 172 3500 
L 594 3500 
L 594 4494 
L 1172 4494 
z
" transform="scale(0.015625)"/>
       <path id="DejaVuSans-79" d="M 2059 -325 
Q 1816 -950 1584 -1140 
Q 1353 -1331 966 -1331 
L 506 -1331 
L 506 -850 
L 844 -850 
Q 1081 -850 1212 -737 
Q 1344 -625 1503 -206 
L 1606 56 
L 191 3500 
L 800 3500 
L 1894 763 
L 2988 3500 
L 3597 3500 
L 2059 -325 
z
" transform="scale(0.015625)"/>
       <path id="DejaVuSans-20" transform="scale(0.015625)"/>
       <path id="DejaVuSans-64" d="M 2906 2969 
L 2906 4863 
L 3481 4863 
L 3481 0 
L 2906 0 
L 2906 525 
Q 2725 213 2448 61 
Q 2172 -91 1784 -91 
Q 1150 -91 751 415 
Q 353 922 353 1747 
Q 353 2572 751 3078 
Q 1150 3584 1784 3584 
Q 2172 3584 2448 3432 
Q 2725 3281 2906 2969 
z
M 947 1747 
Q 947 1113 1208 752 
Q 1469 391 1925 391 
Q 2381 391 2643 752 
Q 2906 1113 2906 1747 
Q 2906 2381 2643 2742 
Q 2381 3103 1925 3103 
Q 1469 3103 1208 2742 
Q 947 2381 947 1747 
z
" transform="scale(0.015625)"/>
       <path id="DejaVuSans-65" d="M 3597 1894 
L 3597 1613 
L 953 1613 
Q 991 1019 1311 708 
Q 1631 397 2203 397 
Q 2534 397 2845 478 
Q 3156 559 3463 722 
L 3463 178 
Q 3153 47 2828 -22 
Q 2503 -91 2169 -91 
Q 1331 -91 842 396 
Q 353 884 353 1716 
Q 353 2575 817 3079 
Q 1281 3584 2069 3584 
Q 2775 3584 3186 3129 
Q 3597 2675 3597 1894 
z
M 3022 2063 
Q 3016 2534 2758 2815 
Q 2500 3097 2075 3097 
Q 1594 3097 1305 2825 
Q 1016 2553 972 2059 
L 3022 2063 
z
" transform="scale(0.015625)"/>
       <path id="DejaVuSans-6e" d="M 3513 2113 
L 3513 0 
L 2938 0 
L 2938 2094 
Q 2938 2591 2744 2837 
Q 2550 3084 2163 3084 
Q 1697 3084 1428 2787 
Q 1159 2491 1159 1978 
L 1159 0 
L 581 0 
L 581 3500 
L 1159 3500 
L 1159 2956 
Q 1366 3272 1645 3428 
Q 1925 3584 2291 3584 
Q 2894 3584 3203 3211 
Q 3513 2838 3513 2113 
z
" transform="scale(0.015625)"/>
       <path id="DejaVuSans-73" d="M 2834 3397 
L 2834 2853 
Q 2591 2978 2328 3040 
Q 2066 3103 1784 3103 
Q 1356 3103 1142 2972 
Q 928 2841 928 2578 
Q 928 2378 1081 2264 
Q 1234 2150 1697 2047 
L 1894 2003 
Q 2506 1872 2764 1633 
Q 3022 1394 3022 966 
Q 3022 478 2636 193 
Q 2250 -91 1575 -91 
Q 1294 -91 989 -36 
Q 684 19 347 128 
L 347 722 
Q 666 556 975 473 
Q 1284 391 1588 391 
Q 1994 391 2212 530 
Q 2431 669 2431 922 
Q 2431 1156 2273 1281 
Q 2116 1406 1581 1522 
L 1381 1569 
Q 847 1681 609 1914 
Q 372 2147 372 2553 
Q 372 3047 722 3315 
Q 1072 3584 1716 3584 
Q 2034 3584 2315 3537 
Q 2597 3491 2834 3397 
z
" transform="scale(0.015625)"/>
      </defs>
      <use xlink:href="#DejaVuSans-50"/>
      <use xlink:href="#DejaVuSans-72" x="58.552734"/>
      <use xlink:href="#DejaVuSans-6f" x="97.416016"/>
      <use xlink:href="#DejaVuSans-62" x="158.597656"/>
      <use xlink:href="#DejaVuSans-61" x="222.074219"/>
      <use xlink:href="#DejaVuSans-62" x="283.353516"/>
      <use xlink:href="#DejaVuSans-69" x="346.830078"/>
      <use xlink:href="#DejaVuSans-6c" x="374.613281"/>
      <use xlink:href="#DejaVuSans-69" x="402.396484"/>
      <use xlink:href="#DejaVuSans-74" x="430.179688"/>
      <use xlink:href="#DejaVuSans-79" x="469.388672"/>
      <use xlink:href="#DejaVuSans-20" x="528.568359"/>
      <use xlink:href="#DejaVuSans-64" x="560.355469"/>
      <use xlink:href="#DejaVuSans-65" x="623.832031"/>
      <use xlink:href="#DejaVuSans-6e" x="685.355469"/>
      <use xlink:href="#DejaVuSans-73" x="748.734375"/>
      <use xlink:href="#DejaVuSans-69" x="800.833984"/>
      <use xlink:href="#DejaVuSans-74" x="828.617188"/>
      <use xlink:href="#DejaVuSans-79" x="867.826172"/>
     </g>
    </g>
   </g>
   <g id="line2d_27">
    <path d="M 57.6 306.266757 
L 77.618739 305.566636 
L 93.705225 304.786304 
L 106.931892 303.925626 
L 118.013694 302.984331 
L 127.308108 301.978721 
L 135.53009 300.865875 
L 142.67964 299.672168 
L 148.756757 298.442997 
L 154.476396 297.056423 
L 159.481081 295.613934 
L 164.128288 294.036529 
L 168.418018 292.33085 
L 172.35027 290.511245 
L 175.925045 288.601244 
L 179.142342 286.634596 
L 182.35964 284.39116 
L 185.219459 282.125355 
L 188.079279 279.561926 
L 190.581622 277.037906 
L 193.083964 274.213858 
L 195.586306 271.049044 
L 198.088649 267.498186 
L 200.590991 263.511954 
L 203.093333 259.038218 
L 205.238198 254.775752 
L 207.740541 249.260447 
L 210.242883 243.123939 
L 212.745225 236.347174 
L 215.247568 228.946233 
L 218.107387 219.818327 
L 223.46955 201.718854 
L 226.329369 192.478155 
L 228.474234 186.313265 
L 229.904144 182.769405 
L 231.334054 179.802942 
L 232.406486 178.015582 
L 233.478919 176.642253 
L 234.551351 175.710581 
L 235.266306 175.344711 
L 235.981261 175.187294 
L 236.696216 175.239807 
L 237.411171 175.501758 
L 238.126126 175.970693 
L 238.841081 176.642253 
L 239.913514 178.015582 
L 240.985946 179.802942 
L 242.415856 182.769405 
L 243.845766 186.313265 
L 245.633153 191.392731 
L 248.135495 199.337687 
L 258.144865 232.191463 
L 260.647207 239.329884 
L 263.14955 245.831775 
L 265.651892 251.698252 
L 268.154234 256.958592 
L 270.656577 261.657421 
L 273.158919 265.846108 
L 275.661261 269.577311 
L 278.163604 272.901774 
L 280.665946 275.866607 
L 283.168288 278.514518 
L 286.028108 281.201325 
L 288.887928 283.573656 
L 291.747748 285.674388 
L 294.965045 287.758566 
L 298.182342 289.589553 
L 301.757117 291.371826 
L 305.689369 293.073903 
L 309.979099 294.67354 
L 314.626306 296.156842 
L 319.630991 297.51698 
L 325.350631 298.828083 
L 331.427748 299.99369 
L 338.577297 301.128983 
L 346.441802 302.14901 
L 355.736216 303.119799 
L 366.460541 304.004825 
L 378.972252 304.80644 
L 393.986306 305.536766 
L 412.217658 306.191744 
L 414.72 306.266757 
L 414.72 306.266757 
" clip-path="url(#pfaf3debf64)" style="fill: none; stroke: #1f77b4; stroke-width: 1.5; stroke-linecap: square"/>
   </g>
   <g id="line2d_28">
    <path d="M 57.6 307.584 
L 84.053333 307.07417 
L 103.714595 306.483936 
L 118.728649 305.823011 
L 130.882883 305.072287 
L 140.534775 304.266035 
L 148.756757 303.364133 
L 155.548829 302.408509 
L 161.625946 301.331211 
L 166.630631 300.233092 
L 171.277838 298.988936 
L 175.21009 297.718859 
L 178.784865 296.344678 
L 182.002162 294.884495 
L 184.861982 293.367214 
L 187.721802 291.596598 
L 190.224144 289.794299 
L 192.726486 287.70462 
L 194.871351 285.638029 
L 197.016216 283.266028 
L 199.161081 280.528165 
L 200.948468 277.913367 
L 202.735856 274.939144 
L 204.523243 271.540806 
L 206.310631 267.639752 
L 208.098018 263.140242 
L 209.885405 257.925527 
L 211.672793 251.853371 
L 213.102703 246.263464 
L 214.532613 239.910754 
L 215.962523 232.675571 
L 217.392432 224.422799 
L 218.822342 215.003828 
L 220.252252 204.262133 
L 221.682162 192.044977 
L 223.46955 174.509575 
L 225.256937 154.374098 
L 227.401802 127.144162 
L 231.691532 70.666663 
L 232.763964 59.130534 
L 233.836396 50.0134 
L 234.551351 45.608527 
L 235.266306 42.726539 
L 235.623784 41.891492 
L 235.981261 41.472 
L 236.338739 41.472 
L 236.696216 41.891492 
L 237.053694 42.726539 
L 237.768649 45.608527 
L 238.483604 50.0134 
L 239.198559 55.787856 
L 240.270991 66.597089 
L 241.700901 83.893591 
L 248.135495 166.764255 
L 249.922883 185.341414 
L 251.71027 201.351797 
L 253.497658 215.003828 
L 254.927568 224.422799 
L 256.714955 234.574232 
L 258.502342 243.18957 
L 260.28973 250.52145 
L 262.077117 256.784745 
L 263.864505 262.15867 
L 265.651892 266.791133 
L 267.439279 270.803607 
L 269.226667 274.295702 
L 271.014054 277.349169 
L 273.158919 280.528165 
L 275.303784 283.266028 
L 277.448649 285.638029 
L 279.593514 287.70462 
L 282.095856 289.794299 
L 284.598198 291.596598 
L 287.458018 293.367214 
L 290.317838 294.884495 
L 293.535135 296.344678 
L 297.10991 297.718859 
L 301.042162 298.988936 
L 305.331892 300.145812 
L 310.336577 301.259789 
L 316.056216 302.293975 
L 322.490811 303.227671 
L 329.997838 304.089469 
L 338.934775 304.884449 
L 349.659099 305.605891 
L 362.885766 306.259321 
L 379.32973 306.8356 
L 400.420901 307.33876 
L 414.72 307.584 
L 414.72 307.584 
" clip-path="url(#pfaf3debf64)" style="fill: none; stroke: #ff7f0e; stroke-width: 1.5; stroke-linecap: square"/>
   </g>
   <g id="line2d_29">
    <path d="M 57.6 303.894388 
L 73.329009 302.963503 
L 86.913153 301.94472 
L 98.70991 300.843762 
L 109.076757 299.659499 
L 118.371171 298.377321 
L 126.593153 297.025379 
L 134.10018 295.571211 
L 140.892252 294.036763 
L 147.326847 292.3542 
L 153.046486 290.63889 
L 158.408649 288.813277 
L 163.770811 286.747066 
L 168.775495 284.573617 
L 173.422703 282.320021 
L 178.06991 279.819105 
L 182.717117 277.053914 
L 187.364324 274.013888 
L 192.011532 270.699508 
L 197.016216 266.84425 
L 202.735856 262.147059 
L 216.32 250.847281 
L 219.894775 248.232224 
L 222.754595 246.380843 
L 225.614414 244.80191 
L 228.116757 243.683417 
L 230.261622 242.943553 
L 232.406486 242.421435 
L 234.551351 242.127784 
L 236.696216 242.068742 
L 238.841081 242.245555 
L 240.985946 242.654504 
L 243.130811 243.287103 
L 245.275676 244.130529 
L 247.778018 245.358774 
L 250.637838 247.046035 
L 253.855135 249.243273 
L 257.42991 251.965066 
L 262.434595 256.081969 
L 276.018739 267.411549 
L 281.023423 271.226806 
L 285.670631 274.499618 
L 290.317838 277.497053 
L 294.965045 280.220693 
L 299.612252 282.682346 
L 304.259459 284.899631 
L 309.264144 287.037584 
L 314.626306 289.069923 
L 319.988468 290.865743 
L 325.708108 292.553371 
L 332.142703 294.209255 
L 338.934775 295.719943 
L 346.441802 297.15224 
L 354.663784 298.484541 
L 363.600721 299.704319 
L 373.61009 300.843762 
L 385.049369 301.914614 
L 397.918559 302.891163 
L 412.932613 303.799685 
L 414.72 303.894388 
L 414.72 303.894388 
" clip-path="url(#pfaf3debf64)" style="fill: none; stroke: #2ca02c; stroke-width: 1.5; stroke-linecap: square"/>
   </g>
   <g id="line2d_30">
    <path d="M 57.6 303.797319 
L 68.324324 302.854329 
L 77.618739 301.814906 
L 85.483243 300.717566 
L 92.275315 299.558036 
L 98.352432 298.306039 
L 103.714595 296.988437 
L 108.719279 295.533666 
L 113.366486 293.942203 
L 117.298739 292.374637 
L 121.230991 290.562018 
L 124.805766 288.659616 
L 128.023063 286.701048 
L 131.24036 284.467104 
L 134.10018 282.211143 
L 136.96 279.659113 
L 139.462342 277.146539 
L 141.964685 274.335504 
L 144.467027 271.185455 
L 146.969369 267.651295 
L 149.471712 263.683841 
L 151.974054 259.231039 
L 154.118919 254.988194 
L 156.621261 249.497506 
L 159.123604 243.386906 
L 161.625946 236.636257 
L 164.128288 229.25985 
L 166.988108 220.154544 
L 171.992793 203.265035 
L 175.21009 192.791881 
L 177.354955 186.585717 
L 178.784865 183.00461 
L 180.214775 179.993548 
L 181.287207 178.168466 
L 182.35964 176.754393 
L 183.432072 175.779689 
L 184.147027 175.384275 
L 184.861982 175.196942 
L 185.576937 175.21945 
L 186.291892 175.451586 
L 187.006847 175.891175 
L 187.721802 176.534125 
L 188.794234 177.866459 
L 189.866667 179.615781 
L 190.939099 181.748032 
L 192.369009 185.117564 
L 194.156396 190.028141 
L 196.301261 196.665081 
L 199.876036 208.640789 
L 204.523243 224.134541 
L 207.383063 232.948202 
L 209.885405 240.022785 
L 212.387748 246.459187 
L 214.89009 252.262128 
L 217.392432 257.462956 
L 219.894775 262.10732 
L 222.397117 266.246925 
L 224.899459 269.934351 
L 227.401802 273.220029 
L 229.904144 276.150644 
L 232.406486 278.768435 
L 235.266306 281.425246 
L 238.126126 283.771681 
L 240.985946 285.850033 
L 244.203243 287.912603 
L 247.420541 289.725168 
L 250.995315 291.490074 
L 254.927568 293.176151 
L 259.217297 294.761329 
L 263.864505 296.231779 
L 268.869189 297.580649 
L 274.588829 298.881408 
L 281.023423 300.100173 
L 288.172973 301.216297 
L 296.394955 302.261092 
L 305.689369 303.209148 
L 316.413694 304.074896 
L 329.282883 304.879976 
L 344.654414 305.606554 
L 363.243243 306.25321 
L 386.479279 306.828775 
L 414.72 307.310747 
L 414.72 307.310747 
" clip-path="url(#pfaf3debf64)" style="fill: none; stroke: #d62728; stroke-width: 1.5; stroke-linecap: square"/>
   </g>
   <g id="patch_3">
    <path d="M 57.6 307.584 
L 57.6 41.472 
" style="fill: none; stroke: #000000; stroke-width: 0.8; stroke-linejoin: miter; stroke-linecap: square"/>
   </g>
   <g id="patch_4">
    <path d="M 414.72 307.584 
L 414.72 41.472 
" style="fill: none; stroke: #000000; stroke-width: 0.8; stroke-linejoin: miter; stroke-linecap: square"/>
   </g>
   <g id="patch_5">
    <path d="M 57.6 307.584 
L 414.72 307.584 
" style="fill: none; stroke: #000000; stroke-width: 0.8; stroke-linejoin: miter; stroke-linecap: square"/>
   </g>
   <g id="patch_6">
    <path d="M 57.6 41.472 
L 414.72 41.472 
" style="fill: none; stroke: #000000; stroke-width: 0.8; stroke-linejoin: miter; stroke-linecap: square"/>
   </g>
   <g id="text_16">
    <!-- Cauchy distribution -->
    <g transform="translate(177.739688 35.472) scale(0.12 -0.12)">
     <defs>
      <path id="DejaVuSans-43" d="M 4122 4306 
L 4122 3641 
Q 3803 3938 3442 4084 
Q 3081 4231 2675 4231 
Q 1875 4231 1450 3742 
Q 1025 3253 1025 2328 
Q 1025 1406 1450 917 
Q 1875 428 2675 428 
Q 3081 428 3442 575 
Q 3803 722 4122 1019 
L 4122 359 
Q 3791 134 3420 21 
Q 3050 -91 2638 -91 
Q 1578 -91 968 557 
Q 359 1206 359 2328 
Q 359 3453 968 4101 
Q 1578 4750 2638 4750 
Q 3056 4750 3426 4639 
Q 3797 4528 4122 4306 
z
" transform="scale(0.015625)"/>
      <path id="DejaVuSans-75" d="M 544 1381 
L 544 3500 
L 1119 3500 
L 1119 1403 
Q 1119 906 1312 657 
Q 1506 409 1894 409 
Q 2359 409 2629 706 
Q 2900 1003 2900 1516 
L 2900 3500 
L 3475 3500 
L 3475 0 
L 2900 0 
L 2900 538 
Q 2691 219 2414 64 
Q 2138 -91 1772 -91 
Q 1169 -91 856 284 
Q 544 659 544 1381 
z
M 1991 3584 
L 1991 3584 
z
" transform="scale(0.015625)"/>
      <path id="DejaVuSans-63" d="M 3122 3366 
L 3122 2828 
Q 2878 2963 2633 3030 
Q 2388 3097 2138 3097 
Q 1578 3097 1268 2742 
Q 959 2388 959 1747 
Q 959 1106 1268 751 
Q 1578 397 2138 397 
Q 2388 397 2633 464 
Q 2878 531 3122 666 
L 3122 134 
Q 2881 22 2623 -34 
Q 2366 -91 2075 -91 
Q 1284 -91 818 406 
Q 353 903 353 1747 
Q 353 2603 823 3093 
Q 1294 3584 2113 3584 
Q 2378 3584 2631 3529 
Q 2884 3475 3122 3366 
z
" transform="scale(0.015625)"/>
      <path id="DejaVuSans-68" d="M 3513 2113 
L 3513 0 
L 2938 0 
L 2938 2094 
Q 2938 2591 2744 2837 
Q 2550 3084 2163 3084 
Q 1697 3084 1428 2787 
Q 1159 2491 1159 1978 
L 1159 0 
L 581 0 
L 581 4863 
L 1159 4863 
L 1159 2956 
Q 1366 3272 1645 3428 
Q 1925 3584 2291 3584 
Q 2894 3584 3203 3211 
Q 3513 2838 3513 2113 
z
" transform="scale(0.015625)"/>
     </defs>
     <use xlink:href="#DejaVuSans-43"/>
     <use xlink:href="#DejaVuSans-61" x="69.824219"/>
     <use xlink:href="#DejaVuSans-75" x="131.103516"/>
     <use xlink:href="#DejaVuSans-63" x="194.482422"/>
     <use xlink:href="#DejaVuSans-68" x="249.462891"/>
     <use xlink:href="#DejaVuSans-79" x="312.841797"/>
     <use xlink:href="#DejaVuSans-20" x="372.021484"/>
     <use xlink:href="#DejaVuSans-64" x="403.808594"/>
     <use xlink:href="#DejaVuSans-69" x="467.285156"/>
     <use xlink:href="#DejaVuSans-73" x="495.068359"/>
     <use xlink:href="#DejaVuSans-74" x="547.167969"/>
     <use xlink:href="#DejaVuSans-72" x="586.376953"/>
     <use xlink:href="#DejaVuSans-69" x="627.490234"/>
     <use xlink:href="#DejaVuSans-62" x="655.273438"/>
     <use xlink:href="#DejaVuSans-75" x="718.75"/>
     <use xlink:href="#DejaVuSans-74" x="782.128906"/>
     <use xlink:href="#DejaVuSans-69" x="821.337891"/>
     <use xlink:href="#DejaVuSans-6f" x="849.121094"/>
     <use xlink:href="#DejaVuSans-6e" x="910.302734"/>
    </g>
   </g>
   <g id="legend_1">
    <g id="patch_7">
     <path d="M 301.779375 108.1845 
L 407.72 108.1845 
Q 409.72 108.1845 409.72 106.1845 
L 409.72 48.472 
Q 409.72 46.472 407.72 46.472 
L 301.779375 46.472 
Q 299.779375 46.472 299.779375 48.472 
L 299.779375 106.1845 
Q 299.779375 108.1845 301.779375 108.1845 
z
" style="fill: #ffffff; opacity: 0.8; stroke: #cccccc; stroke-linejoin: miter"/>
    </g>
    <g id="line2d_31">
     <path d="M 303.779375 54.570438 
L 313.779375 54.570438 
L 323.779375 54.570438 
" style="fill: none; stroke: #1f77b4; stroke-width: 1.5; stroke-linecap: square"/>
    </g>
    <g id="text_17">
     <!-- x₀ = 0, γ = 1 -->
     <g transform="translate(331.779375 58.070438) scale(0.1 -0.1)">
      <defs>
       <path id="DejaVuSans-2080" d="M 1781 2091 
Q 1625 2360 1309 2360 
Q 994 2360 838 2091 
Q 678 1822 678 1285 
Q 678 744 838 476 
Q 994 207 1309 207 
Q 1625 207 1781 476 
Q 1941 744 1941 1285 
Q 1941 1822 1781 2091 
z
M 1309 2638 
Q 1813 2638 2078 2291 
Q 2344 1944 2344 1285 
Q 2344 622 2078 275 
Q 1813 -71 1309 -71 
Q 803 -71 537 275 
Q 272 622 272 1285 
Q 272 1944 537 2291 
Q 803 2638 1309 2638 
z
" transform="scale(0.015625)"/>
       <path id="DejaVuSans-3d" d="M 678 2906 
L 4684 2906 
L 4684 2381 
L 678 2381 
L 678 2906 
z
M 678 1631 
L 4684 1631 
L 4684 1100 
L 678 1100 
L 678 1631 
z
" transform="scale(0.015625)"/>
       <path id="DejaVuSans-2c" d="M 750 794 
L 1409 794 
L 1409 256 
L 897 -744 
L 494 -744 
L 750 256 
L 750 794 
z
" transform="scale(0.015625)"/>
       <path id="DejaVuSans-3b3" d="M 1128 2950 
L 1894 788 
L 2988 3500 
L 3597 3500 
L 2181 0 
L 2181 -1331 
L 1606 -1331 
L 1606 0 
L 688 2613 
Q 550 3006 253 3006 
L 100 3006 
L 100 3500 
L 319 3500 
Q 934 3500 1128 2950 
z
" transform="scale(0.015625)"/>
      </defs>
      <use xlink:href="#DejaVuSans-78"/>
      <use xlink:href="#DejaVuSans-2080" x="59.179688"/>
      <use xlink:href="#DejaVuSans-20" x="99.267578"/>
      <use xlink:href="#DejaVuSans-3d" x="131.054688"/>
      <use xlink:href="#DejaVuSans-20" x="214.84375"/>
      <use xlink:href="#DejaVuSans-30" x="246.630859"/>
      <use xlink:href="#DejaVuSans-2c" x="310.253906"/>
      <use xlink:href="#DejaVuSans-20" x="342.041016"/>
      <use xlink:href="#DejaVuSans-3b3" x="373.828125"/>
      <use xlink:href="#DejaVuSans-20" x="433.007812"/>
      <use xlink:href="#DejaVuSans-3d" x="464.794922"/>
      <use xlink:href="#DejaVuSans-20" x="548.583984"/>
      <use xlink:href="#DejaVuSans-31" x="580.371094"/>
     </g>
    </g>
    <g id="line2d_32">
     <path d="M 303.779375 69.248563 
L 313.779375 69.248563 
L 323.779375 69.248563 
" style="fill: none; stroke: #ff7f0e; stroke-width: 1.5; stroke-linecap: square"/>
    </g>
    <g id="text_18">
     <!-- x₀ = 0, γ = 0.5 -->
     <g transform="translate(331.779375 72.748563) scale(0.1 -0.1)">
      <use xlink:href="#DejaVuSans-78"/>
      <use xlink:href="#DejaVuSans-2080" x="59.179688"/>
      <use xlink:href="#DejaVuSans-20" x="99.267578"/>
      <use xlink:href="#DejaVuSans-3d" x="131.054688"/>
      <use xlink:href="#DejaVuSans-20" x="214.84375"/>
      <use xlink:href="#DejaVuSans-30" x="246.630859"/>
      <use xlink:href="#DejaVuSans-2c" x="310.253906"/>
      <use xlink:href="#DejaVuSans-20" x="342.041016"/>
      <use xlink:href="#DejaVuSans-3b3" x="373.828125"/>
      <use xlink:href="#DejaVuSans-20" x="433.007812"/>
      <use xlink:href="#DejaVuSans-3d" x="464.794922"/>
      <use xlink:href="#DejaVuSans-20" x="548.583984"/>
      <use xlink:href="#DejaVuSans-30" x="580.371094"/>
      <use xlink:href="#DejaVuSans-2e" x="643.994141"/>
      <use xlink:href="#DejaVuSans-35" x="675.78125"/>
     </g>
    </g>
    <g id="line2d_33">
     <path d="M 303.779375 83.926688 
L 313.779375 83.926688 
L 323.779375 83.926688 
" style="fill: none; stroke: #2ca02c; stroke-width: 1.5; stroke-linecap: square"/>
    </g>
    <g id="text_19">
     <!-- x₀ = 0, γ = 2 -->
     <g transform="translate(331.779375 87.426688) scale(0.1 -0.1)">
      <use xlink:href="#DejaVuSans-78"/>
      <use xlink:href="#DejaVuSans-2080" x="59.179688"/>
      <use xlink:href="#DejaVuSans-20" x="99.267578"/>
      <use xlink:href="#DejaVuSans-3d" x="131.054688"/>
      <use xlink:href="#DejaVuSans-20" x="214.84375"/>
      <use xlink:href="#DejaVuSans-30" x="246.630859"/>
      <use xlink:href="#DejaVuSans-2c" x="310.253906"/>
      <use xlink:href="#DejaVuSans-20" x="342.041016"/>
      <use xlink:href="#DejaVuSans-3b3" x="373.828125"/>
      <use xlink:href="#DejaVuSans-20" x="433.007812"/>
      <use xlink:href="#DejaVuSans-3d" x="464.794922"/>
      <use xlink:href="#DejaVuSans-20" x="548.583984"/>
      <use xlink:href="#DejaVuSans-32" x="580.371094"/>
     </g>
    </g>
    <g id="line2d_34">
     <path d="M 303.779375 98.604813 
L 313.779375 98.604813 
L 323.779375 98.604813 
" style="fill: none; stroke: #d62728; stroke-width: 1.5; stroke-linecap: square"/>
    </g>
    <g id="text_20">
     <!-- x₀ = -2, γ = 1 -->
     <g transform="translate(331.779375 102.104813) scale(0.1 -0.1)">
      <defs>
       <path id="DejaVuSans-2d" d="M 313 2009 
L 1997 2009 
L 1997 1497 
L 313 1497 
L 313 2009 
z
" transform="scale(0.015625)"/>
      </defs>
      <use xlink:href="#DejaVuSans-78"/>
      <use xlink:href="#DejaVuSans-2080" x="59.179688"/>
      <use xlink:href="#DejaVuSans-20" x="99.267578"/>
      <use xlink:href="#DejaVuSans-3d" x="131.054688"/>
      <use xlink:href="#DejaVuSans-20" x="214.84375"/>
      <use xlink:href="#DejaVuSans-2d" x="246.630859"/>
      <use xlink:href="#DejaVuSans-32" x="282.714844"/>
      <use xlink:href="#DejaVuSans-2c" x="346.337891"/>
      <use xlink:href="#DejaVuSans-20" x="378.125"/>
      <use xlink:href="#DejaVuSans-3b3" x="409.912109"/>
      <use xlink:href="#DejaVuSans-20" x="469.091797"/>
      <use xlink:href="#DejaVuSans-3d" x="500.878906"/>
      <use xlink:href="#DejaVuSans-20" x="584.667969"/>
      <use xlink:href="#DejaVuSans-31" x="616.455078"/>
     </g>
    </g>
   </g>
  </g>
 </g>
 <defs>
  <clipPath id="pfaf3debf64">
   <rect x="57.6" y="41.472" width="357.12" height="266.112"/>
  </clipPath>
 </defs>
</svg>
