<?xml version="1.0" encoding="utf-8" standalone="no"?>
<!DOCTYPE svg PUBLIC "-//W3C//DTD SVG 1.1//EN"
  "http://www.w3.org/Graphics/SVG/1.1/DTD/svg11.dtd">
<svg xmlns:xlink="http://www.w3.org/1999/xlink" width="460.8pt" height="345.6pt" viewBox="0 0 460.8 345.6" xmlns="http://www.w3.org/2000/svg" version="1.1">
 <metadata>
  <rdf:RDF xmlns:dc="http://purl.org/dc/elements/1.1/" xmlns:cc="http://creativecommons.org/ns#" xmlns:rdf="http://www.w3.org/1999/02/22-rdf-syntax-ns#">
   <cc:Work>
    <dc:type rdf:resource="http://purl.org/dc/dcmitype/StillImage"/>
    <dc:date>2024-05-03T20:15:42.754339</dc:date>
    <dc:format>image/svg+xml</dc:format>
    <dc:creator>
     <cc:Agent>
      <dc:title>Matplotlib v3.8.4, https://matplotlib.org/</dc:title>
     </cc:Agent>
    </dc:creator>
   </cc:Work>
  </rdf:RDF>
 </metadata>
 <defs>
  <style type="text/css">*{stroke-linejoin: round; stroke-linecap: butt}</style>
 </defs>
 <g id="figure_1">
  <g id="patch_1">
   <path d="M 0 345.6 
L 460.8 345.6 
L 460.8 0 
L 0 0 
z
" style="fill: #ffffff"/>
  </g>
  <g id="axes_1">
   <g id="patch_2">
    <path d="M 57.6 307.584 
L 414.72 307.584 
L 414.72 41.472 
L 57.6 41.472 
z
" style="fill: #ffffff"/>
   </g>
   <g id="matplotlib.axis_1">
    <g id="xtick_1">
     <g id="line2d_1">
      <path d="M 83.108571 307.584 
L 83.108571 41.472 
" clip-path="url(#p16dadb12a8)" style="fill: none; stroke: #b0b0b0; stroke-width: 0.8; stroke-linecap: square"/>
     </g>
     <g id="line2d_2">
      <defs>
       <path id="m14bb6ed0de" d="M 0 0 
L 0 3.5 
" style="stroke: #000000; stroke-width: 0.8"/>
      </defs>
      <g>
       <use xlink:href="#m14bb6ed0de" x="83.108571" y="307.584" style="stroke: #000000; stroke-width: 0.8"/>
      </g>
     </g>
     <g id="text_1">
      <!-- −6 -->
      <g transform="translate(75.737478 322.182437) scale(0.1 -0.1)">
       <defs>
        <path id="DejaVuSans-2212" d="M 678 2272 
L 4684 2272 
L 4684 1741 
L 678 1741 
L 678 2272 
z
" transform="scale(0.015625)"/>
        <path id="DejaVuSans-36" d="M 2113 2584 
Q 1688 2584 1439 2293 
Q 1191 2003 1191 1497 
Q 1191 994 1439 701 
Q 1688 409 2113 409 
Q 2538 409 2786 701 
Q 3034 994 3034 1497 
Q 3034 2003 2786 2293 
Q 2538 2584 2113 2584 
z
M 3366 4563 
L 3366 3988 
Q 3128 4100 2886 4159 
Q 2644 4219 2406 4219 
Q 1781 4219 1451 3797 
Q 1122 3375 1075 2522 
Q 1259 2794 1537 2939 
Q 1816 3084 2150 3084 
Q 2853 3084 3261 2657 
Q 3669 2231 3669 1497 
Q 3669 778 3244 343 
Q 2819 -91 2113 -91 
Q 1303 -91 875 529 
Q 447 1150 447 2328 
Q 447 3434 972 4092 
Q 1497 4750 2381 4750 
Q 2619 4750 2861 4703 
Q 3103 4656 3366 4563 
z
" transform="scale(0.015625)"/>
       </defs>
       <use xlink:href="#DejaVuSans-2212"/>
       <use xlink:href="#DejaVuSans-36" x="83.789062"/>
      </g>
     </g>
    </g>
    <g id="xtick_2">
     <g id="line2d_3">
      <path d="M 134.125714 307.584 
L 134.125714 41.472 
" clip-path="url(#p16dadb12a8)" style="fill: none; stroke: #b0b0b0; stroke-width: 0.8; stroke-linecap: square"/>
     </g>
     <g id="line2d_4">
      <g>
       <use xlink:href="#m14bb6ed0de" x="134.125714" y="307.584" style="stroke: #000000; stroke-width: 0.8"/>
      </g>
     </g>
     <g id="text_2">
      <!-- −4 -->
      <g transform="translate(126.754621 322.182437) scale(0.1 -0.1)">
       <defs>
        <path id="DejaVuSans-34" d="M 2419 4116 
L 825 1625 
L 2419 1625 
L 2419 4116 
z
M 2253 4666 
L 3047 4666 
L 3047 1625 
L 3713 1625 
L 3713 1100 
L 3047 1100 
L 3047 0 
L 2419 0 
L 2419 1100 
L 313 1100 
L 313 1709 
L 2253 4666 
z
" transform="scale(0.015625)"/>
       </defs>
       <use xlink:href="#DejaVuSans-2212"/>
       <use xlink:href="#DejaVuSans-34" x="83.789062"/>
      </g>
     </g>
    </g>
    <g id="xtick_3">
     <g id="line2d_5">
      <path d="M 185.142857 307.584 
L 185.142857 41.472 
" clip-path="url(#p16dadb12a8)" style="fill: none; stroke: #b0b0b0; stroke-width: 0.8; stroke-linecap: square"/>
     </g>
     <g id="line2d_6">
      <g>
       <use xlink:href="#m14bb6ed0de" x="185.142857" y="307.584" style="stroke: #000000; stroke-width: 0.8"/>
      </g>
     </g>
     <g id="text_3">
      <!-- −2 -->
      <g transform="translate(177.771763 322.182437) scale(0.1 -0.1)">
       <defs>
        <path id="DejaVuSans-32" d="M 1228 531 
L 3431 531 
L 3431 0 
L 469 0 
L 469 531 
Q 828 903 1448 1529 
Q 2069 2156 2228 2338 
Q 2531 2678 2651 2914 
Q 2772 3150 2772 3378 
Q 2772 3750 2511 3984 
Q 2250 4219 1831 4219 
Q 1534 4219 1204 4116 
Q 875 4013 500 3803 
L 500 4441 
Q 881 4594 1212 4672 
Q 1544 4750 1819 4750 
Q 2544 4750 2975 4387 
Q 3406 4025 3406 3419 
Q 3406 3131 3298 2873 
Q 3191 2616 2906 2266 
Q 2828 2175 2409 1742 
Q 1991 1309 1228 531 
z
" transform="scale(0.015625)"/>
       </defs>
       <use xlink:href="#DejaVuSans-2212"/>
       <use xlink:href="#DejaVuSans-32" x="83.789062"/>
      </g>
     </g>
    </g>
    <g id="xtick_4">
     <g id="line2d_7">
      <path d="M 236.16 307.584 
L 236.16 41.472 
" clip-path="url(#p16dadb12a8)" style="fill: none; stroke: #b0b0b0; stroke-width: 0.8; stroke-linecap: square"/>
     </g>
     <g id="line2d_8">
      <g>
       <use xlink:href="#m14bb6ed0de" x="236.16" y="307.584" style="stroke: #000000; stroke-width: 0.8"/>
      </g>
     </g>
     <g id="text_4">
      <!-- 0 -->
      <g transform="translate(232.97875 322.182437) scale(0.1 -0.1)">
       <defs>
        <path id="DejaVuSans-30" d="M 2034 4250 
Q 1547 4250 1301 3770 
Q 1056 3291 1056 2328 
Q 1056 1369 1301 889 
Q 1547 409 2034 409 
Q 2525 409 2770 889 
Q 3016 1369 3016 2328 
Q 3016 3291 2770 3770 
Q 2525 4250 2034 4250 
z
M 2034 4750 
Q 2819 4750 3233 4129 
Q 3647 3509 3647 2328 
Q 3647 1150 3233 529 
Q 2819 -91 2034 -91 
Q 1250 -91 836 529 
Q 422 1150 422 2328 
Q 422 3509 836 4129 
Q 1250 4750 2034 4750 
z
" transform="scale(0.015625)"/>
       </defs>
       <use xlink:href="#DejaVuSans-30"/>
      </g>
     </g>
    </g>
    <g id="xtick_5">
     <g id="line2d_9">
      <path d="M 287.177143 307.584 
L 287.177143 41.472 
" clip-path="url(#p16dadb12a8)" style="fill: none; stroke: #b0b0b0; stroke-width: 0.8; stroke-linecap: square"/>
     </g>
     <g id="line2d_10">
      <g>
       <use xlink:href="#m14bb6ed0de" x="287.177143" y="307.584" style="stroke: #000000; stroke-width: 0.8"/>
      </g>
     </g>
     <g id="text_5">
      <!-- 2 -->
      <g transform="translate(283.995893 322.182437) scale(0.1 -0.1)">
       <use xlink:href="#DejaVuSans-32"/>
      </g>
     </g>
    </g>
    <g id="xtick_6">
     <g id="line2d_11">
      <path d="M 338.194286 307.584 
L 338.194286 41.472 
" clip-path="url(#p16dadb12a8)" style="fill: none; stroke: #b0b0b0; stroke-width: 0.8; stroke-linecap: square"/>
     </g>
     <g id="line2d_12">
      <g>
       <use xlink:href="#m14bb6ed0de" x="338.194286" y="307.584" style="stroke: #000000; stroke-width: 0.8"/>
      </g>
     </g>
     <g id="text_6">
      <!-- 4 -->
      <g transform="translate(335.013036 322.182437) scale(0.1 -0.1)">
       <use xlink:href="#DejaVuSans-34"/>
      </g>
     </g>
    </g>
    <g id="xtick_7">
     <g id="line2d_13">
      <path d="M 389.211429 307.584 
L 389.211429 41.472 
" clip-path="url(#p16dadb12a8)" style="fill: none; stroke: #b0b0b0; stroke-width: 0.8; stroke-linecap: square"/>
     </g>
     <g id="line2d_14">
      <g>
       <use xlink:href="#m14bb6ed0de" x="389.211429" y="307.584" style="stroke: #000000; stroke-width: 0.8"/>
      </g>
     </g>
     <g id="text_7">
      <!-- 6 -->
      <g transform="translate(386.030179 322.182437) scale(0.1 -0.1)">
       <use xlink:href="#DejaVuSans-36"/>
      </g>
     </g>
    </g>
    <g id="text_8">
     <!-- x -->
     <g transform="translate(233.200625 335.860562) scale(0.1 -0.1)">
      <defs>
       <path id="DejaVuSans-78" d="M 3513 3500 
L 2247 1797 
L 3578 0 
L 2900 0 
L 1881 1375 
L 863 0 
L 184 0 
L 1544 1831 
L 300 3500 
L 978 3500 
L 1906 2253 
L 2834 3500 
L 3513 3500 
z
" transform="scale(0.015625)"/>
      </defs>
      <use xlink:href="#DejaVuSans-78"/>
     </g>
    </g>
   </g>
   <g id="matplotlib.axis_2">
    <g id="ytick_1">
     <g id="line2d_15">
      <path d="M 57.6 268.865451 
L 414.72 268.865451 
" clip-path="url(#p16dadb12a8)" style="fill: none; stroke: #b0b0b0; stroke-width: 0.8; stroke-linecap: square"/>
     </g>
     <g id="line2d_16">
      <defs>
       <path id="md570612a4c" d="M 0 0 
L -3.5 0 
" style="stroke: #000000; stroke-width: 0.8"/>
      </defs>
      <g>
       <use xlink:href="#md570612a4c" x="57.6" y="268.865451" style="stroke: #000000; stroke-width: 0.8"/>
      </g>
     </g>
     <g id="text_9">
      <!-- 0.1 -->
      <g transform="translate(34.696875 272.66467) scale(0.1 -0.1)">
       <defs>
        <path id="DejaVuSans-2e" d="M 684 794 
L 1344 794 
L 1344 0 
L 684 0 
L 684 794 
z
" transform="scale(0.015625)"/>
        <path id="DejaVuSans-31" d="M 794 531 
L 1825 531 
L 1825 4091 
L 703 3866 
L 703 4441 
L 1819 4666 
L 2450 4666 
L 2450 531 
L 3481 531 
L 3481 0 
L 794 0 
L 794 531 
z
" transform="scale(0.015625)"/>
       </defs>
       <use xlink:href="#DejaVuSans-30"/>
       <use xlink:href="#DejaVuSans-2e" x="63.623047"/>
       <use xlink:href="#DejaVuSans-31" x="95.410156"/>
      </g>
     </g>
    </g>
    <g id="ytick_2">
     <g id="line2d_17">
      <path d="M 57.6 228.8539 
L 414.72 228.8539 
" clip-path="url(#p16dadb12a8)" style="fill: none; stroke: #b0b0b0; stroke-width: 0.8; stroke-linecap: square"/>
     </g>
     <g id="line2d_18">
      <g>
       <use xlink:href="#md570612a4c" x="57.6" y="228.8539" style="stroke: #000000; stroke-width: 0.8"/>
      </g>
     </g>
     <g id="text_10">
      <!-- 0.2 -->
      <g transform="translate(34.696875 232.653119) scale(0.1 -0.1)">
       <use xlink:href="#DejaVuSans-30"/>
       <use xlink:href="#DejaVuSans-2e" x="63.623047"/>
       <use xlink:href="#DejaVuSans-32" x="95.410156"/>
      </g>
     </g>
    </g>
    <g id="ytick_3">
     <g id="line2d_19">
      <path d="M 57.6 188.842349 
L 414.72 188.842349 
" clip-path="url(#p16dadb12a8)" style="fill: none; stroke: #b0b0b0; stroke-width: 0.8; stroke-linecap: square"/>
     </g>
     <g id="line2d_20">
      <g>
       <use xlink:href="#md570612a4c" x="57.6" y="188.842349" style="stroke: #000000; stroke-width: 0.8"/>
      </g>
     </g>
     <g id="text_11">
      <!-- 0.3 -->
      <g transform="translate(34.696875 192.641567) scale(0.1 -0.1)">
       <defs>
        <path id="DejaVuSans-33" d="M 2597 2516 
Q 3050 2419 3304 2112 
Q 3559 1806 3559 1356 
Q 3559 666 3084 287 
Q 2609 -91 1734 -91 
Q 1441 -91 1130 -33 
Q 819 25 488 141 
L 488 750 
Q 750 597 1062 519 
Q 1375 441 1716 441 
Q 2309 441 2620 675 
Q 2931 909 2931 1356 
Q 2931 1769 2642 2001 
Q 2353 2234 1838 2234 
L 1294 2234 
L 1294 2753 
L 1863 2753 
Q 2328 2753 2575 2939 
Q 2822 3125 2822 3475 
Q 2822 3834 2567 4026 
Q 2313 4219 1838 4219 
Q 1578 4219 1281 4162 
Q 984 4106 628 3988 
L 628 4550 
Q 988 4650 1302 4700 
Q 1616 4750 1894 4750 
Q 2613 4750 3031 4423 
Q 3450 4097 3450 3541 
Q 3450 3153 3228 2886 
Q 3006 2619 2597 2516 
z
" transform="scale(0.015625)"/>
       </defs>
       <use xlink:href="#DejaVuSans-30"/>
       <use xlink:href="#DejaVuSans-2e" x="63.623047"/>
       <use xlink:href="#DejaVuSans-33" x="95.410156"/>
      </g>
     </g>
    </g>
    <g id="ytick_4">
     <g id="line2d_21">
      <path d="M 57.6 148.830797 
L 414.72 148.830797 
" clip-path="url(#p16dadb12a8)" style="fill: none; stroke: #b0b0b0; stroke-width: 0.8; stroke-linecap: square"/>
     </g>
     <g id="line2d_22">
      <g>
       <use xlink:href="#md570612a4c" x="57.6" y="148.830797" style="stroke: #000000; stroke-width: 0.8"/>
      </g>
     </g>
     <g id="text_12">
      <!-- 0.4 -->
      <g transform="translate(34.696875 152.630016) scale(0.1 -0.1)">
       <use xlink:href="#DejaVuSans-30"/>
       <use xlink:href="#DejaVuSans-2e" x="63.623047"/>
       <use xlink:href="#DejaVuSans-34" x="95.410156"/>
      </g>
     </g>
    </g>
    <g id="ytick_5">
     <g id="line2d_23">
      <path d="M 57.6 108.819246 
L 414.72 108.819246 
" clip-path="url(#p16dadb12a8)" style="fill: none; stroke: #b0b0b0; stroke-width: 0.8; stroke-linecap: square"/>
     </g>
     <g id="line2d_24">
      <g>
       <use xlink:href="#md570612a4c" x="57.6" y="108.819246" style="stroke: #000000; stroke-width: 0.8"/>
      </g>
     </g>
     <g id="text_13">
      <!-- 0.5 -->
      <g transform="translate(34.696875 112.618465) scale(0.1 -0.1)">
       <defs>
        <path id="DejaVuSans-35" d="M 691 4666 
L 3169 4666 
L 3169 4134 
L 1269 4134 
L 1269 2991 
Q 1406 3038 1543 3061 
Q 1681 3084 1819 3084 
Q 2600 3084 3056 2656 
Q 3513 2228 3513 1497 
Q 3513 744 3044 326 
Q 2575 -91 1722 -91 
Q 1428 -91 1123 -41 
Q 819 9 494 109 
L 494 744 
Q 775 591 1075 516 
Q 1375 441 1709 441 
Q 2250 441 2565 725 
Q 2881 1009 2881 1497 
Q 2881 1984 2565 2268 
Q 2250 2553 1709 2553 
Q 1456 2553 1204 2497 
Q 953 2441 691 2322 
L 691 4666 
z
" transform="scale(0.015625)"/>
       </defs>
       <use xlink:href="#DejaVuSans-30"/>
       <use xlink:href="#DejaVuSans-2e" x="63.623047"/>
       <use xlink:href="#DejaVuSans-35" x="95.410156"/>
      </g>
     </g>
    </g>
    <g id="ytick_6">
     <g id="line2d_25">
      <path d="M 57.6 68.807695 
L 414.72 68.807695 
" clip-path="url(#p16dadb12a8)" style="fill: none; stroke: #b0b0b0; stroke-width: 0.8; stroke-linecap: square"/>
     </g>
     <g id="line2d_26">
      <g>
       <use xlink:href="#md570612a4c" x="57.6" y="68.807695" style="stroke: #000000; stroke-width: 0.8"/>
      </g>
     </g>
     <g id="text_14">
      <!-- 0.6 -->
      <g transform="translate(34.696875 72.606914) scale(0.1 -0.1)">
       <use xlink:href="#DejaVuSans-30"/>
       <use xlink:href="#DejaVuSans-2e" x="63.623047"/>
       <use xlink:href="#DejaVuSans-36" x="95.410156"/>
      </g>
     </g>
    </g>
    <g id="text_15">
     <!-- Probability density -->
     <g transform="translate(28.617187 220.878781) rotate(-90) scale(0.1 -0.1)">
      <defs>
       <path id="DejaVuSans-50" d="M 1259 4147 
L 1259 2394 
L 2053 2394 
Q 2494 2394 2734 2622 
Q 2975 2850 2975 3272 
Q 2975 3691 2734 3919 
Q 2494 4147 2053 4147 
L 1259 4147 
z
M 628 4666 
L 2053 4666 
Q 2838 4666 3239 4311 
Q 3641 3956 3641 3272 
Q 3641 2581 3239 2228 
Q 2838 1875 2053 1875 
L 1259 1875 
L 1259 0 
L 628 0 
L 628 4666 
z
" transform="scale(0.015625)"/>
       <path id="DejaVuSans-72" d="M 2631 2963 
Q 2534 3019 2420 3045 
Q 2306 3072 2169 3072 
Q 1681 3072 1420 2755 
Q 1159 2438 1159 1844 
L 1159 0 
L 581 0 
L 581 3500 
L 1159 3500 
L 1159 2956 
Q 1341 3275 1631 3429 
Q 1922 3584 2338 3584 
Q 2397 3584 2469 3576 
Q 2541 3569 2628 3553 
L 2631 2963 
z
" transform="scale(0.015625)"/>
       <path id="DejaVuSans-6f" d="M 1959 3097 
Q 1497 3097 1228 2736 
Q 959 2375 959 1747 
Q 959 1119 1226 758 
Q 1494 397 1959 397 
Q 2419 397 2687 759 
Q 2956 1122 2956 1747 
Q 2956 2369 2687 2733 
Q 2419 3097 1959 3097 
z
M 1959 3584 
Q 2709 3584 3137 3096 
Q 3566 2609 3566 1747 
Q 3566 888 3137 398 
Q 2709 -91 1959 -91 
Q 1206 -91 779 398 
Q 353 888 353 1747 
Q 353 2609 779 3096 
Q 1206 3584 1959 3584 
z
" transform="scale(0.015625)"/>
       <path id="DejaVuSans-62" d="M 3116 1747 
Q 3116 2381 2855 2742 
Q 2594 3103 2138 3103 
Q 1681 3103 1420 2742 
Q 1159 2381 1159 1747 
Q 1159 1113 1420 752 
Q 1681 391 2138 391 
Q 2594 391 2855 752 
Q 3116 1113 3116 1747 
z
M 1159 2969 
Q 1341 3281 1617 3432 
Q 1894 3584 2278 3584 
Q 2916 3584 3314 3078 
Q 3713 2572 3713 1747 
Q 3713 922 3314 415 
Q 2916 -91 2278 -91 
Q 1894 -91 1617 61 
Q 1341 213 1159 525 
L 1159 0 
L 581 0 
L 581 4863 
L 1159 4863 
L 1159 2969 
z
" transform="scale(0.015625)"/>
       <path id="DejaVuSans-61" d="M 2194 1759 
Q 1497 1759 1228 1600 
Q 959 1441 959 1056 
Q 959 750 1161 570 
Q 1363 391 1709 391 
Q 2188 391 2477 730 
Q 2766 1069 2766 1631 
L 2766 1759 
L 2194 1759 
z
M 3341 1997 
L 3341 0 
L 2766 0 
L 2766 531 
Q 2569 213 2275 61 
Q 1981 -91 1556 -91 
Q 1019 -91 701 211 
Q 384 513 384 1019 
Q 384 1609 779 1909 
Q 1175 2209 1959 2209 
L 2766 2209 
L 2766 2266 
Q 2766 2663 2505 2880 
Q 2244 3097 1772 3097 
Q 1472 3097 1187 3025 
Q 903 2953 641 2809 
L 641 3341 
Q 956 3463 1253 3523 
Q 1550 3584 1831 3584 
Q 2591 3584 2966 3190 
Q 3341 2797 3341 1997 
z
" transform="scale(0.015625)"/>
       <path id="DejaVuSans-69" d="M 603 3500 
L 1178 3500 
L 1178 0 
L 603 0 
L 603 3500 
z
M 603 4863 
L 1178 4863 
L 1178 4134 
L 603 4134 
L 603 4863 
z
" transform="scale(0.015625)"/>
       <path id="DejaVuSans-6c" d="M 603 4863 
L 1178 4863 
L 1178 0 
L 603 0 
L 603 4863 
z
" transform="scale(0.015625)"/>
       <path id="DejaVuSans-74" d="M 1172 4494 
L 1172 3500 
L 2356 3500 
L 2356 3053 
L 1172 3053 
L 1172 1153 
Q 1172 725 1289 603 
Q 1406 481 1766 481 
L 2356 481 
L 2356 0 
L 1766 0 
Q 1100 0 847 248 
Q 594 497 594 1153 
L 594 3053 
L 172 3053 
L 172 3500 
L 594 3500 
L 594 4494 
L 1172 4494 
z
" transform="scale(0.015625)"/>
       <path id="DejaVuSans-79" d="M 2059 -325 
Q 1816 -950 1584 -1140 
Q 1353 -1331 966 -1331 
L 506 -1331 
L 506 -850 
L 844 -850 
Q 1081 -850 1212 -737 
Q 1344 -625 1503 -206 
L 1606 56 
L 191 3500 
L 800 3500 
L 1894 763 
L 2988 3500 
L 3597 3500 
L 2059 -325 
z
" transform="scale(0.015625)"/>
       <path id="DejaVuSans-20" transform="scale(0.015625)"/>
       <path id="DejaVuSans-64" d="M 2906 2969 
L 2906 4863 
L 3481 4863 
L 3481 0 
L 2906 0 
L 2906 525 
Q 2725 213 2448 61 
Q 2172 -91 1784 -91 
Q 1150 -91 751 415 
Q 353 922 353 1747 
Q 353 2572 751 3078 
Q 1150 3584 1784 3584 
Q 2172 3584 2448 3432 
Q 2725 3281 2906 2969 
z
M 947 1747 
Q 947 1113 1208 752 
Q 1469 391 1925 391 
Q 2381 391 2643 752 
Q 2906 1113 2906 1747 
Q 2906 2381 2643 2742 
Q 2381 3103 1925 3103 
Q 1469 3103 1208 2742 
Q 947 2381 947 1747 
z
" transform="scale(0.015625)"/>
       <path id="DejaVuSans-65" d="M 3597 1894 
L 3597 1613 
L 953 1613 
Q 991 1019 1311 708 
Q 1631 397 2203 397 
Q 2534 397 2845 478 
Q 3156 559 3463 722 
L 3463 178 
Q 3153 47 2828 -22 
Q 2503 -91 2169 -91 
Q 1331 -91 842 396 
Q 353 884 353 1716 
Q 353 2575 817 3079 
Q 1281 3584 2069 3584 
Q 2775 3584 3186 3129 
Q 3597 2675 3597 1894 
z
M 3022 2063 
Q 3016 2534 2758 2815 
Q 2500 3097 2075 3097 
Q 1594 3097 1305 2825 
Q 1016 2553 972 2059 
L 3022 2063 
z
" transform="scale(0.015625)"/>
       <path id="DejaVuSans-6e" d="M 3513 2113 
L 3513 0 
L 2938 0 
L 2938 2094 
Q 2938 2591 2744 2837 
Q 2550 3084 2163 3084 
Q 1697 3084 1428 2787 
Q 1159 2491 1159 1978 
L 1159 0 
L 581 0 
L 581 3500 
L 1159 3500 
L 1159 2956 
Q 1366 3272 1645 3428 
Q 1925 3584 2291 3584 
Q 2894 3584 3203 3211 
Q 3513 2838 3513 2113 
z
" transform="scale(0.015625)"/>
       <path id="DejaVuSans-73" d="M 2834 3397 
L 2834 2853 
Q 2591 2978 2328 3040 
Q 2066 3103 1784 3103 
Q 1356 3103 1142 2972 
Q 928 2841 928 2578 
Q 928 2378 1081 2264 
Q 1234 2150 1697 2047 
L 1894 2003 
Q 2506 1872 2764 1633 
Q 3022 1394 3022 966 
Q 3022 478 2636 193 
Q 2250 -91 1575 -91 
Q 1294 -91 989 -36 
Q 684 19 347 128 
L 347 722 
Q 666 556 975 473 
Q 1284 391 1588 391 
Q 1994 391 2212 530 
Q 2431 669 2431 922 
Q 2431 1156 2273 1281 
Q 2116 1406 1581 1522 
L 1381 1569 
Q 847 1681 609 1914 
Q 372 2147 372 2553 
Q 372 3047 722 3315 
Q 1072 3584 1716 3584 
Q 2034 3584 2315 3537 
Q 2597 3491 2834 3397 
z
" transform="scale(0.015625)"/>
      </defs>
      <use xlink:href="#DejaVuSans-50"/>
      <use xlink:href="#DejaVuSans-72" x="58.552734"/>
      <use xlink:href="#DejaVuSans-6f" x="97.416016"/>
      <use xlink:href="#DejaVuSans-62" x="158.597656"/>
      <use xlink:href="#DejaVuSans-61" x="222.074219"/>
      <use xlink:href="#DejaVuSans-62" x="283.353516"/>
      <use xlink:href="#DejaVuSans-69" x="346.830078"/>
      <use xlink:href="#DejaVuSans-6c" x="374.613281"/>
      <use xlink:href="#DejaVuSans-69" x="402.396484"/>
      <use xlink:href="#DejaVuSans-74" x="430.179688"/>
      <use xlink:href="#DejaVuSans-79" x="469.388672"/>
      <use xlink:href="#DejaVuSans-20" x="528.568359"/>
      <use xlink:href="#DejaVuSans-64" x="560.355469"/>
      <use xlink:href="#DejaVuSans-65" x="623.832031"/>
      <use xlink:href="#DejaVuSans-6e" x="685.355469"/>
      <use xlink:href="#DejaVuSans-73" x="748.734375"/>
      <use xlink:href="#DejaVuSans-69" x="800.833984"/>
      <use xlink:href="#DejaVuSans-74" x="828.617188"/>
      <use xlink:href="#DejaVuSans-79" x="867.826172"/>
     </g>
    </g>
   </g>
   <g id="line2d_27">
    <path d="M 57.6 306.329788 
L 77.976216 305.648994 
L 94.062703 304.900863 
L 107.289369 304.075147 
L 118.371171 303.171488 
L 128.023063 302.163612 
L 136.245045 301.083656 
L 143.394595 299.923779 
L 149.829189 298.650558 
L 155.548829 297.284646 
L 160.553514 295.861197 
L 165.200721 294.302019 
L 169.49045 292.613292 
L 173.422703 290.808937 
L 176.997477 288.912135 
L 180.214775 286.956415 
L 183.432072 284.722561 
L 186.291892 282.463747 
L 189.151712 279.905505 
L 191.654054 277.384298 
L 194.156396 274.561334 
L 196.658739 271.395947 
L 199.161081 267.843284 
L 201.663423 263.855028 
L 204.165766 259.381039 
L 206.668108 254.372409 
L 209.17045 248.786645 
L 211.672793 242.595873 
L 214.175135 235.799028 
L 217.034955 227.346556 
L 220.60973 216.023032 
L 225.614414 200.106343 
L 227.759279 193.977976 
L 229.546667 189.537713 
L 230.976577 186.566662 
L 232.049009 184.740467 
L 233.121441 183.298163 
L 234.193874 182.268445 
L 234.908829 181.821949 
L 235.623784 181.572533 
L 236.338739 181.522532 
L 237.053694 181.672417 
L 237.768649 182.02078 
L 238.483604 182.564369 
L 239.556036 183.734361 
L 240.628468 185.308155 
L 241.700901 187.254818 
L 243.130811 190.366444 
L 244.918198 194.946891 
L 247.063063 201.19006 
L 250.28036 211.388772 
L 255.642523 228.43874 
L 258.502342 236.806093 
L 261.004685 243.517734 
L 263.507027 249.621226 
L 266.009369 255.122383 
L 268.511712 260.051812 
L 271.014054 264.453343 
L 273.516396 268.376319 
L 276.018739 271.870767 
L 278.521081 274.984583 
L 281.023423 277.762052 
L 283.883243 280.575612 
L 286.743063 283.05482 
L 289.602883 285.245398 
L 292.82018 287.413486 
L 296.037477 289.313262 
L 299.612252 291.157481 
L 303.544505 292.913552 
L 307.476757 294.431236 
L 311.766486 295.861197 
L 316.771171 297.284646 
L 322.133333 298.572233 
L 328.21045 299.794117 
L 335.002523 300.924241 
L 342.50955 301.948435 
L 351.446486 302.932804 
L 361.813333 303.835957 
L 373.967568 304.657797 
L 388.266667 305.393101 
L 405.783063 306.060399 
L 414.72 306.329788 
L 414.72 306.329788 
" clip-path="url(#p16dadb12a8)" style="fill: none; stroke: #1f77b4; stroke-width: 1.5; stroke-linecap: square"/>
   </g>
   <g id="line2d_28">
    <path d="M 57.6 307.584 
L 84.768288 307.081847 
L 104.787027 306.498566 
L 120.158559 305.83449 
L 132.312793 305.091826 
L 141.964685 304.291056 
L 150.186667 303.391759 
L 156.978739 302.435183 
L 163.055856 301.352607 
L 168.060541 300.244877 
L 172.707748 298.985052 
L 176.64 297.69411 
L 180.214775 296.29219 
L 183.432072 294.797044 
L 186.291892 293.237826 
L 189.151712 291.411521 
L 191.654054 289.545561 
L 194.156396 287.373865 
L 196.301261 285.218093 
L 198.446126 282.734551 
L 200.590991 279.856666 
L 202.378378 277.097757 
L 204.165766 273.948318 
L 205.953153 270.336384 
L 207.740541 266.174336 
L 209.527928 261.355336 
L 211.315315 255.749172 
L 212.745225 250.592253 
L 214.175135 244.735196 
L 215.605045 238.06778 
L 217.034955 230.464952 
L 218.464865 221.788095 
L 219.894775 211.889291 
L 221.324685 200.620727 
L 222.754595 187.852419 
L 224.541982 169.666598 
L 226.329369 149.085627 
L 228.831712 117.376691 
L 231.334054 86.056772 
L 232.763964 71.019137 
L 233.836396 62.338262 
L 234.551351 58.144164 
L 235.266306 55.400081 
L 235.623784 54.60499 
L 235.981261 54.205572 
L 236.338739 54.205572 
L 236.696216 54.60499 
L 237.053694 55.400081 
L 237.768649 58.144164 
L 238.483604 62.338262 
L 239.198559 67.836407 
L 240.270991 78.128414 
L 241.700901 94.597272 
L 248.135495 173.502539 
L 249.922883 191.190773 
L 251.71027 206.435053 
L 253.497658 219.433828 
L 254.927568 228.402097 
L 256.714955 238.06778 
L 258.502342 246.270871 
L 260.28973 253.251917 
L 262.077117 259.215511 
L 263.864505 264.332291 
L 265.651892 268.743089 
L 267.439279 272.563564 
L 269.226667 275.888561 
L 271.014054 278.795919 
L 273.158919 281.822798 
L 275.303784 284.429654 
L 277.448649 286.688153 
L 279.593514 288.655856 
L 282.095856 290.645544 
L 284.598198 292.361602 
L 287.458018 294.047494 
L 290.675315 295.658055 
L 293.892613 297.023673 
L 297.467387 298.310012 
L 301.39964 299.499971 
L 306.046847 300.666722 
L 311.409009 301.76363 
L 317.486126 302.762442 
L 324.278198 303.650127 
L 332.50018 304.489502 
L 342.152072 305.241306 
L 353.948829 305.925064 
L 368.247928 306.524007 
L 386.479279 307.056325 
L 410.43027 307.519904 
L 414.72 307.584 
L 414.72 307.584 
" clip-path="url(#p16dadb12a8)" style="fill: none; stroke: #ff7f0e; stroke-width: 1.5; stroke-linecap: square"/>
   </g>
   <g id="line2d_29">
    <path d="M 57.6 304.070937 
L 73.686486 303.161769 
L 87.628108 302.157053 
L 99.782342 301.059485 
L 110.149189 299.908887 
L 119.443604 298.66195 
L 127.665586 297.346012 
L 135.172613 295.929468 
L 141.964685 294.433719 
L 148.399279 292.792681 
L 154.476396 291.006953 
L 159.838559 289.210454 
L 165.200721 287.176992 
L 170.205405 285.038404 
L 174.852613 282.822135 
L 179.49982 280.364973 
L 184.147027 277.652262 
L 188.794234 274.676644 
L 193.441441 271.442933 
L 198.803604 267.422861 
L 205.595676 262.015985 
L 214.89009 254.626455 
L 218.822342 251.789715 
L 222.03964 249.727789 
L 224.899459 248.154879 
L 227.401802 247.019649 
L 229.904144 246.139974 
L 232.049009 245.607464 
L 234.193874 245.29108 
L 236.338739 245.197422 
L 238.483604 245.328466 
L 240.628468 245.681451 
L 242.773333 246.249031 
L 245.275676 247.166805 
L 247.778018 248.336278 
L 250.637838 249.942803 
L 253.855135 252.034901 
L 257.787387 254.897396 
L 263.14955 259.121733 
L 275.303784 268.793664 
L 280.665946 272.716214 
L 285.313153 275.852254 
L 289.96036 278.726534 
L 294.607568 281.339596 
L 299.254775 283.7021 
L 304.259459 285.985088 
L 309.264144 288.020739 
L 314.626306 289.955829 
L 320.345946 291.772399 
L 326.423063 293.4592 
L 332.857658 295.010909 
L 340.007207 296.496028 
L 347.514234 297.829255 
L 356.093694 299.119802 
L 365.388108 300.290411 
L 376.112432 301.407501 
L 388.266667 302.437638 
L 402.208288 303.384204 
L 414.72 304.070937 
L 414.72 304.070937 
" clip-path="url(#p16dadb12a8)" style="fill: none; stroke: #2ca02c; stroke-width: 1.5; stroke-linecap: square"/>
   </g>
   <g id="line2d_30">
    <path d="M 57.6 303.978513 
L 68.681802 303.046639 
L 77.976216 302.048043 
L 85.840721 300.993142 
L 92.99027 299.812808 
L 99.067387 298.594701 
L 104.42955 297.311303 
L 109.434234 295.892714 
L 114.081441 294.339107 
L 118.371171 292.656678 
L 122.303423 290.859321 
L 125.878198 288.970144 
L 129.095495 287.022539 
L 132.312793 284.798226 
L 135.172613 282.549314 
L 138.032432 280.002541 
L 140.534775 277.49285 
L 143.037117 274.682969 
L 145.539459 271.53241 
L 148.041802 267.99648 
L 150.544144 264.02698 
L 153.046486 259.573797 
L 155.548829 254.587887 
L 158.051171 249.026358 
L 160.553514 242.860533 
L 163.055856 236.087954 
L 165.915676 227.659547 
L 169.49045 216.353415 
L 174.852613 199.341468 
L 176.997477 193.300969 
L 178.784865 188.965786 
L 180.214775 186.098805 
L 181.287207 184.361054 
L 182.35964 183.014645 
L 183.432072 182.086581 
L 184.147027 181.710087 
L 184.861982 181.531719 
L 185.576937 181.553149 
L 186.291892 181.774178 
L 187.006847 182.192732 
L 187.721802 182.804916 
L 188.794234 184.073498 
L 189.866667 185.739115 
L 190.939099 187.769336 
L 192.369009 190.977635 
L 194.156396 195.653239 
L 196.301261 201.972598 
L 199.876036 213.375264 
L 204.523243 228.127633 
L 207.383063 236.519556 
L 209.885405 243.255617 
L 212.387748 249.384035 
L 214.89009 254.909303 
L 217.392432 259.861269 
L 219.894775 264.283399 
L 222.397117 268.224922 
L 224.899459 271.735902 
L 227.401802 274.86436 
L 229.904144 277.654743 
L 232.406486 280.147272 
L 235.266306 282.676954 
L 238.126126 284.91111 
L 241.343423 287.121202 
L 244.560721 289.056713 
L 248.135495 290.934524 
L 251.71027 292.569741 
L 255.642523 294.133431 
L 259.932252 295.605041 
L 264.579459 296.971579 
L 269.941622 298.308641 
L 275.661261 299.506867 
L 282.095856 300.631501 
L 289.602883 301.709747 
L 298.182342 302.705702 
L 307.834234 303.599829 
L 319.273514 304.43149 
L 332.857658 305.188942 
L 349.301622 305.874262 
L 369.677838 306.489025 
L 395.416216 307.029885 
L 414.72 307.323823 
L 414.72 307.323823 
" clip-path="url(#p16dadb12a8)" style="fill: none; stroke: #d62728; stroke-width: 1.5; stroke-linecap: square"/>
   </g>
   <g id="patch_3">
    <path d="M 57.6 307.584 
L 57.6 41.472 
" style="fill: none; stroke: #000000; stroke-width: 0.8; stroke-linejoin: miter; stroke-linecap: square"/>
   </g>
   <g id="patch_4">
    <path d="M 414.72 307.584 
L 414.72 41.472 
" style="fill: none; stroke: #000000; stroke-width: 0.8; stroke-linejoin: miter; stroke-linecap: square"/>
   </g>
   <g id="patch_5">
    <path d="M 57.6 307.584 
L 414.72 307.584 
" style="fill: none; stroke: #000000; stroke-width: 0.8; stroke-linejoin: miter; stroke-linecap: square"/>
   </g>
   <g id="patch_6">
    <path d="M 57.6 41.472 
L 414.72 41.472 
" style="fill: none; stroke: #000000; stroke-width: 0.8; stroke-linejoin: miter; stroke-linecap: square"/>
   </g>
   <g id="text_16">
    <!-- Cauchy distribution -->
    <g transform="translate(177.739688 35.472) scale(0.12 -0.12)">
     <defs>
      <path id="DejaVuSans-43" d="M 4122 4306 
L 4122 3641 
Q 3803 3938 3442 4084 
Q 3081 4231 2675 4231 
Q 1875 4231 1450 3742 
Q 1025 3253 1025 2328 
Q 1025 1406 1450 917 
Q 1875 428 2675 428 
Q 3081 428 3442 575 
Q 3803 722 4122 1019 
L 4122 359 
Q 3791 134 3420 21 
Q 3050 -91 2638 -91 
Q 1578 -91 968 557 
Q 359 1206 359 2328 
Q 359 3453 968 4101 
Q 1578 4750 2638 4750 
Q 3056 4750 3426 4639 
Q 3797 4528 4122 4306 
z
" transform="scale(0.015625)"/>
      <path id="DejaVuSans-75" d="M 544 1381 
L 544 3500 
L 1119 3500 
L 1119 1403 
Q 1119 906 1312 657 
Q 1506 409 1894 409 
Q 2359 409 2629 706 
Q 2900 1003 2900 1516 
L 2900 3500 
L 3475 3500 
L 3475 0 
L 2900 0 
L 2900 538 
Q 2691 219 2414 64 
Q 2138 -91 1772 -91 
Q 1169 -91 856 284 
Q 544 659 544 1381 
z
M 1991 3584 
L 1991 3584 
z
" transform="scale(0.015625)"/>
      <path id="DejaVuSans-63" d="M 3122 3366 
L 3122 2828 
Q 2878 2963 2633 3030 
Q 2388 3097 2138 3097 
Q 1578 3097 1268 2742 
Q 959 2388 959 1747 
Q 959 1106 1268 751 
Q 1578 397 2138 397 
Q 2388 397 2633 464 
Q 2878 531 3122 666 
L 3122 134 
Q 2881 22 2623 -34 
Q 2366 -91 2075 -91 
Q 1284 -91 818 406 
Q 353 903 353 1747 
Q 353 2603 823 3093 
Q 1294 3584 2113 3584 
Q 2378 3584 2631 3529 
Q 2884 3475 3122 3366 
z
" transform="scale(0.015625)"/>
      <path id="DejaVuSans-68" d="M 3513 2113 
L 3513 0 
L 2938 0 
L 2938 2094 
Q 2938 2591 2744 2837 
Q 2550 3084 2163 3084 
Q 1697 3084 1428 2787 
Q 1159 2491 1159 1978 
L 1159 0 
L 581 0 
L 581 4863 
L 1159 4863 
L 1159 2956 
Q 1366 3272 1645 3428 
Q 1925 3584 2291 3584 
Q 2894 3584 3203 3211 
Q 3513 2838 3513 2113 
z
" transform="scale(0.015625)"/>
     </defs>
     <use xlink:href="#DejaVuSans-43"/>
     <use xlink:href="#DejaVuSans-61" x="69.824219"/>
     <use xlink:href="#DejaVuSans-75" x="131.103516"/>
     <use xlink:href="#DejaVuSans-63" x="194.482422"/>
     <use xlink:href="#DejaVuSans-68" x="249.462891"/>
     <use xlink:href="#DejaVuSans-79" x="312.841797"/>
     <use xlink:href="#DejaVuSans-20" x="372.021484"/>
     <use xlink:href="#DejaVuSans-64" x="403.808594"/>
     <use xlink:href="#DejaVuSans-69" x="467.285156"/>
     <use xlink:href="#DejaVuSans-73" x="495.068359"/>
     <use xlink:href="#DejaVuSans-74" x="547.167969"/>
     <use xlink:href="#DejaVuSans-72" x="586.376953"/>
     <use xlink:href="#DejaVuSans-69" x="627.490234"/>
     <use xlink:href="#DejaVuSans-62" x="655.273438"/>
     <use xlink:href="#DejaVuSans-75" x="718.75"/>
     <use xlink:href="#DejaVuSans-74" x="782.128906"/>
     <use xlink:href="#DejaVuSans-69" x="821.337891"/>
     <use xlink:href="#DejaVuSans-6f" x="849.121094"/>
     <use xlink:href="#DejaVuSans-6e" x="910.302734"/>
    </g>
   </g>
   <g id="legend_1">
    <g id="patch_7">
     <path d="M 301.779375 108.1845 
L 407.72 108.1845 
Q 409.72 108.1845 409.72 106.1845 
L 409.72 48.472 
Q 409.72 46.472 407.72 46.472 
L 301.779375 46.472 
Q 299.779375 46.472 299.779375 48.472 
L 299.779375 106.1845 
Q 299.779375 108.1845 301.779375 108.1845 
z
" style="fill: #ffffff; opacity: 0.8; stroke: #cccccc; stroke-linejoin: miter"/>
    </g>
    <g id="line2d_31">
     <path d="M 303.779375 54.570438 
L 313.779375 54.570438 
L 323.779375 54.570438 
" style="fill: none; stroke: #1f77b4; stroke-width: 1.5; stroke-linecap: square"/>
    </g>
    <g id="text_17">
     <!-- x₀ = 0, γ = 1 -->
     <g transform="translate(331.779375 58.070438) scale(0.1 -0.1)">
      <defs>
       <path id="DejaVuSans-2080" d="M 1781 2091 
Q 1625 2360 1309 2360 
Q 994 2360 838 2091 
Q 678 1822 678 1285 
Q 678 744 838 476 
Q 994 207 1309 207 
Q 1625 207 1781 476 
Q 1941 744 1941 1285 
Q 1941 1822 1781 2091 
z
M 1309 2638 
Q 1813 2638 2078 2291 
Q 2344 1944 2344 1285 
Q 2344 622 2078 275 
Q 1813 -71 1309 -71 
Q 803 -71 537 275 
Q 272 622 272 1285 
Q 272 1944 537 2291 
Q 803 2638 1309 2638 
z
" transform="scale(0.015625)"/>
       <path id="DejaVuSans-3d" d="M 678 2906 
L 4684 2906 
L 4684 2381 
L 678 2381 
L 678 2906 
z
M 678 1631 
L 4684 1631 
L 4684 1100 
L 678 1100 
L 678 1631 
z
" transform="scale(0.015625)"/>
       <path id="DejaVuSans-2c" d="M 750 794 
L 1409 794 
L 1409 256 
L 897 -744 
L 494 -744 
L 750 256 
L 750 794 
z
" transform="scale(0.015625)"/>
       <path id="DejaVuSans-3b3" d="M 1128 2950 
L 1894 788 
L 2988 3500 
L 3597 3500 
L 2181 0 
L 2181 -1331 
L 1606 -1331 
L 1606 0 
L 688 2613 
Q 550 3006 253 3006 
L 100 3006 
L 100 3500 
L 319 3500 
Q 934 3500 1128 2950 
z
" transform="scale(0.015625)"/>
      </defs>
      <use xlink:href="#DejaVuSans-78"/>
      <use xlink:href="#DejaVuSans-2080" x="59.179688"/>
      <use xlink:href="#DejaVuSans-20" x="99.267578"/>
      <use xlink:href="#DejaVuSans-3d" x="131.054688"/>
      <use xlink:href="#DejaVuSans-20" x="214.84375"/>
      <use xlink:href="#DejaVuSans-30" x="246.630859"/>
      <use xlink:href="#DejaVuSans-2c" x="310.253906"/>
      <use xlink:href="#DejaVuSans-20" x="342.041016"/>
      <use xlink:href="#DejaVuSans-3b3" x="373.828125"/>
      <use xlink:href="#DejaVuSans-20" x="433.007812"/>
      <use xlink:href="#DejaVuSans-3d" x="464.794922"/>
      <use xlink:href="#DejaVuSans-20" x="548.583984"/>
      <use xlink:href="#DejaVuSans-31" x="580.371094"/>
     </g>
    </g>
    <g id="line2d_32">
     <path d="M 303.779375 69.248563 
L 313.779375 69.248563 
L 323.779375 69.248563 
" style="fill: none; stroke: #ff7f0e; stroke-width: 1.5; stroke-linecap: square"/>
    </g>
    <g id="text_18">
     <!-- x₀ = 0, γ = 0.5 -->
     <g transform="translate(331.779375 72.748563) scale(0.1 -0.1)">
      <use xlink:href="#DejaVuSans-78"/>
      <use xlink:href="#DejaVuSans-2080" x="59.179688"/>
      <use xlink:href="#DejaVuSans-20" x="99.267578"/>
      <use xlink:href="#DejaVuSans-3d" x="131.054688"/>
      <use xlink:href="#DejaVuSans-20" x="214.84375"/>
      <use xlink:href="#DejaVuSans-30" x="246.630859"/>
      <use xlink:href="#DejaVuSans-2c" x="310.253906"/>
      <use xlink:href="#DejaVuSans-20" x="342.041016"/>
      <use xlink:href="#DejaVuSans-3b3" x="373.828125"/>
      <use xlink:href="#DejaVuSans-20" x="433.007812"/>
      <use xlink:href="#DejaVuSans-3d" x="464.794922"/>
      <use xlink:href="#DejaVuSans-20" x="548.583984"/>
      <use xlink:href="#DejaVuSans-30" x="580.371094"/>
      <use xlink:href="#DejaVuSans-2e" x="643.994141"/>
      <use xlink:href="#DejaVuSans-35" x="675.78125"/>
     </g>
    </g>
    <g id="line2d_33">
     <path d="M 303.779375 83.926688 
L 313.779375 83.926688 
L 323.779375 83.926688 
" style="fill: none; stroke: #2ca02c; stroke-width: 1.5; stroke-linecap: square"/>
    </g>
    <g id="text_19">
     <!-- x₀ = 0, γ = 2 -->
     <g transform="translate(331.779375 87.426688) scale(0.1 -0.1)">
      <use xlink:href="#DejaVuSans-78"/>
      <use xlink:href="#DejaVuSans-2080" x="59.179688"/>
      <use xlink:href="#DejaVuSans-20" x="99.267578"/>
      <use xlink:href="#DejaVuSans-3d" x="131.054688"/>
      <use xlink:href="#DejaVuSans-20" x="214.84375"/>
      <use xlink:href="#DejaVuSans-30" x="246.630859"/>
      <use xlink:href="#DejaVuSans-2c" x="310.253906"/>
      <use xlink:href="#DejaVuSans-20" x="342.041016"/>
      <use xlink:href="#DejaVuSans-3b3" x="373.828125"/>
      <use xlink:href="#DejaVuSans-20" x="433.007812"/>
      <use xlink:href="#DejaVuSans-3d" x="464.794922"/>
      <use xlink:href="#DejaVuSans-20" x="548.583984"/>
      <use xlink:href="#DejaVuSans-32" x="580.371094"/>
     </g>
    </g>
    <g id="line2d_34">
     <path d="M 303.779375 98.604813 
L 313.779375 98.604813 
L 323.779375 98.604813 
" style="fill: none; stroke: #d62728; stroke-width: 1.5; stroke-linecap: square"/>
    </g>
    <g id="text_20">
     <!-- x₀ = -2, γ = 1 -->
     <g transform="translate(331.779375 102.104813) scale(0.1 -0.1)">
      <defs>
       <path id="DejaVuSans-2d" d="M 313 2009 
L 1997 2009 
L 1997 1497 
L 313 1497 
L 313 2009 
z
" transform="scale(0.015625)"/>
      </defs>
      <use xlink:href="#DejaVuSans-78"/>
      <use xlink:href="#DejaVuSans-2080" x="59.179688"/>
      <use xlink:href="#DejaVuSans-20" x="99.267578"/>
      <use xlink:href="#DejaVuSans-3d" x="131.054688"/>
      <use xlink:href="#DejaVuSans-20" x="214.84375"/>
      <use xlink:href="#DejaVuSans-2d" x="246.630859"/>
      <use xlink:href="#DejaVuSans-32" x="282.714844"/>
      <use xlink:href="#DejaVuSans-2c" x="346.337891"/>
      <use xlink:href="#DejaVuSans-20" x="378.125"/>
      <use xlink:href="#DejaVuSans-3b3" x="409.912109"/>
      <use xlink:href="#DejaVuSans-20" x="469.091797"/>
      <use xlink:href="#DejaVuSans-3d" x="500.878906"/>
      <use xlink:href="#DejaVuSans-20" x="584.667969"/>
      <use xlink:href="#DejaVuSans-31" x="616.455078"/>
     </g>
    </g>
   </g>
  </g>
 </g>
 <defs>
  <clipPath id="p16dadb12a8">
   <rect x="57.6" y="41.472" width="357.12" height="266.112"/>
  </clipPath>
 </defs>
</svg>
