<?xml version="1.0" encoding="utf-8" standalone="no"?>
<!DOCTYPE svg PUBLIC "-//W3C//DTD SVG 1.1//EN"
  "http://www.w3.org/Graphics/SVG/1.1/DTD/svg11.dtd">
<svg xmlns:xlink="http://www.w3.org/1999/xlink" width="460.8pt" height="345.6pt" viewBox="0 0 460.8 345.6" xmlns="http://www.w3.org/2000/svg" version="1.1">
 <metadata>
  <rdf:RDF xmlns:dc="http://purl.org/dc/elements/1.1/" xmlns:cc="http://creativecommons.org/ns#" xmlns:rdf="http://www.w3.org/1999/02/22-rdf-syntax-ns#">
   <cc:Work>
    <dc:type rdf:resource="http://purl.org/dc/dcmitype/StillImage"/>
    <dc:date>2024-04-11T12:32:51.689764</dc:date>
    <dc:format>image/svg+xml</dc:format>
    <dc:creator>
     <cc:Agent>
      <dc:title>Matplotlib v3.8.4, https://matplotlib.org/</dc:title>
     </cc:Agent>
    </dc:creator>
   </cc:Work>
  </rdf:RDF>
 </metadata>
 <defs>
  <style type="text/css">*{stroke-linejoin: round; stroke-linecap: butt}</style>
 </defs>
 <g id="figure_1">
  <g id="patch_1">
   <path d="M 0 345.6 
L 460.8 345.6 
L 460.8 0 
L 0 0 
z
" style="fill: #ffffff"/>
  </g>
  <g id="axes_1">
   <g id="patch_2">
    <path d="M 57.6 307.584 
L 414.72 307.584 
L 414.72 41.472 
L 57.6 41.472 
z
" style="fill: #ffffff"/>
   </g>
   <g id="matplotlib.axis_1">
    <g id="xtick_1">
     <g id="line2d_1">
      <defs>
       <path id="m1b0942eaf3" d="M 0 0 
L 0 3.5 
" style="stroke: #000000; stroke-width: 0.8"/>
      </defs>
      <g>
       <use xlink:href="#m1b0942eaf3" x="73.832727" y="307.584" style="stroke: #000000; stroke-width: 0.8"/>
      </g>
     </g>
     <g id="text_1">
      <!-- 0 -->
      <g transform="translate(70.651477 322.182437) scale(0.1 -0.1)">
       <defs>
        <path id="DejaVuSans-30" d="M 2034 4250 
Q 1547 4250 1301 3770 
Q 1056 3291 1056 2328 
Q 1056 1369 1301 889 
Q 1547 409 2034 409 
Q 2525 409 2770 889 
Q 3016 1369 3016 2328 
Q 3016 3291 2770 3770 
Q 2525 4250 2034 4250 
z
M 2034 4750 
Q 2819 4750 3233 4129 
Q 3647 3509 3647 2328 
Q 3647 1150 3233 529 
Q 2819 -91 2034 -91 
Q 1250 -91 836 529 
Q 422 1150 422 2328 
Q 422 3509 836 4129 
Q 1250 4750 2034 4750 
z
" transform="scale(0.015625)"/>
       </defs>
       <use xlink:href="#DejaVuSans-30"/>
      </g>
     </g>
    </g>
    <g id="xtick_2">
     <g id="line2d_2">
      <g>
       <use xlink:href="#m1b0942eaf3" x="138.763636" y="307.584" style="stroke: #000000; stroke-width: 0.8"/>
      </g>
     </g>
     <g id="text_2">
      <!-- 1 -->
      <g transform="translate(135.582386 322.182437) scale(0.1 -0.1)">
       <defs>
        <path id="DejaVuSans-31" d="M 794 531 
L 1825 531 
L 1825 4091 
L 703 3866 
L 703 4441 
L 1819 4666 
L 2450 4666 
L 2450 531 
L 3481 531 
L 3481 0 
L 794 0 
L 794 531 
z
" transform="scale(0.015625)"/>
       </defs>
       <use xlink:href="#DejaVuSans-31"/>
      </g>
     </g>
    </g>
    <g id="xtick_3">
     <g id="line2d_3">
      <g>
       <use xlink:href="#m1b0942eaf3" x="203.694545" y="307.584" style="stroke: #000000; stroke-width: 0.8"/>
      </g>
     </g>
     <g id="text_3">
      <!-- 2 -->
      <g transform="translate(200.513295 322.182437) scale(0.1 -0.1)">
       <defs>
        <path id="DejaVuSans-32" d="M 1228 531 
L 3431 531 
L 3431 0 
L 469 0 
L 469 531 
Q 828 903 1448 1529 
Q 2069 2156 2228 2338 
Q 2531 2678 2651 2914 
Q 2772 3150 2772 3378 
Q 2772 3750 2511 3984 
Q 2250 4219 1831 4219 
Q 1534 4219 1204 4116 
Q 875 4013 500 3803 
L 500 4441 
Q 881 4594 1212 4672 
Q 1544 4750 1819 4750 
Q 2544 4750 2975 4387 
Q 3406 4025 3406 3419 
Q 3406 3131 3298 2873 
Q 3191 2616 2906 2266 
Q 2828 2175 2409 1742 
Q 1991 1309 1228 531 
z
" transform="scale(0.015625)"/>
       </defs>
       <use xlink:href="#DejaVuSans-32"/>
      </g>
     </g>
    </g>
    <g id="xtick_4">
     <g id="line2d_4">
      <g>
       <use xlink:href="#m1b0942eaf3" x="268.625455" y="307.584" style="stroke: #000000; stroke-width: 0.8"/>
      </g>
     </g>
     <g id="text_4">
      <!-- 3 -->
      <g transform="translate(265.444205 322.182437) scale(0.1 -0.1)">
       <defs>
        <path id="DejaVuSans-33" d="M 2597 2516 
Q 3050 2419 3304 2112 
Q 3559 1806 3559 1356 
Q 3559 666 3084 287 
Q 2609 -91 1734 -91 
Q 1441 -91 1130 -33 
Q 819 25 488 141 
L 488 750 
Q 750 597 1062 519 
Q 1375 441 1716 441 
Q 2309 441 2620 675 
Q 2931 909 2931 1356 
Q 2931 1769 2642 2001 
Q 2353 2234 1838 2234 
L 1294 2234 
L 1294 2753 
L 1863 2753 
Q 2328 2753 2575 2939 
Q 2822 3125 2822 3475 
Q 2822 3834 2567 4026 
Q 2313 4219 1838 4219 
Q 1578 4219 1281 4162 
Q 984 4106 628 3988 
L 628 4550 
Q 988 4650 1302 4700 
Q 1616 4750 1894 4750 
Q 2613 4750 3031 4423 
Q 3450 4097 3450 3541 
Q 3450 3153 3228 2886 
Q 3006 2619 2597 2516 
z
" transform="scale(0.015625)"/>
       </defs>
       <use xlink:href="#DejaVuSans-33"/>
      </g>
     </g>
    </g>
    <g id="xtick_5">
     <g id="line2d_5">
      <g>
       <use xlink:href="#m1b0942eaf3" x="333.556364" y="307.584" style="stroke: #000000; stroke-width: 0.8"/>
      </g>
     </g>
     <g id="text_5">
      <!-- 4 -->
      <g transform="translate(330.375114 322.182437) scale(0.1 -0.1)">
       <defs>
        <path id="DejaVuSans-34" d="M 2419 4116 
L 825 1625 
L 2419 1625 
L 2419 4116 
z
M 2253 4666 
L 3047 4666 
L 3047 1625 
L 3713 1625 
L 3713 1100 
L 3047 1100 
L 3047 0 
L 2419 0 
L 2419 1100 
L 313 1100 
L 313 1709 
L 2253 4666 
z
" transform="scale(0.015625)"/>
       </defs>
       <use xlink:href="#DejaVuSans-34"/>
      </g>
     </g>
    </g>
    <g id="xtick_6">
     <g id="line2d_6">
      <g>
       <use xlink:href="#m1b0942eaf3" x="398.487273" y="307.584" style="stroke: #000000; stroke-width: 0.8"/>
      </g>
     </g>
     <g id="text_6">
      <!-- 5 -->
      <g transform="translate(395.306023 322.182437) scale(0.1 -0.1)">
       <defs>
        <path id="DejaVuSans-35" d="M 691 4666 
L 3169 4666 
L 3169 4134 
L 1269 4134 
L 1269 2991 
Q 1406 3038 1543 3061 
Q 1681 3084 1819 3084 
Q 2600 3084 3056 2656 
Q 3513 2228 3513 1497 
Q 3513 744 3044 326 
Q 2575 -91 1722 -91 
Q 1428 -91 1123 -41 
Q 819 9 494 109 
L 494 744 
Q 775 591 1075 516 
Q 1375 441 1709 441 
Q 2250 441 2565 725 
Q 2881 1009 2881 1497 
Q 2881 1984 2565 2268 
Q 2250 2553 1709 2553 
Q 1456 2553 1204 2497 
Q 953 2441 691 2322 
L 691 4666 
z
" transform="scale(0.015625)"/>
       </defs>
       <use xlink:href="#DejaVuSans-35"/>
      </g>
     </g>
    </g>
    <g id="text_7">
     <!-- F-statistic -->
     <g transform="translate(211.799062 335.860562) scale(0.1 -0.1)">
      <defs>
       <path id="DejaVuSans-46" d="M 628 4666 
L 3309 4666 
L 3309 4134 
L 1259 4134 
L 1259 2759 
L 3109 2759 
L 3109 2228 
L 1259 2228 
L 1259 0 
L 628 0 
L 628 4666 
z
" transform="scale(0.015625)"/>
       <path id="DejaVuSans-2d" d="M 313 2009 
L 1997 2009 
L 1997 1497 
L 313 1497 
L 313 2009 
z
" transform="scale(0.015625)"/>
       <path id="DejaVuSans-73" d="M 2834 3397 
L 2834 2853 
Q 2591 2978 2328 3040 
Q 2066 3103 1784 3103 
Q 1356 3103 1142 2972 
Q 928 2841 928 2578 
Q 928 2378 1081 2264 
Q 1234 2150 1697 2047 
L 1894 2003 
Q 2506 1872 2764 1633 
Q 3022 1394 3022 966 
Q 3022 478 2636 193 
Q 2250 -91 1575 -91 
Q 1294 -91 989 -36 
Q 684 19 347 128 
L 347 722 
Q 666 556 975 473 
Q 1284 391 1588 391 
Q 1994 391 2212 530 
Q 2431 669 2431 922 
Q 2431 1156 2273 1281 
Q 2116 1406 1581 1522 
L 1381 1569 
Q 847 1681 609 1914 
Q 372 2147 372 2553 
Q 372 3047 722 3315 
Q 1072 3584 1716 3584 
Q 2034 3584 2315 3537 
Q 2597 3491 2834 3397 
z
" transform="scale(0.015625)"/>
       <path id="DejaVuSans-74" d="M 1172 4494 
L 1172 3500 
L 2356 3500 
L 2356 3053 
L 1172 3053 
L 1172 1153 
Q 1172 725 1289 603 
Q 1406 481 1766 481 
L 2356 481 
L 2356 0 
L 1766 0 
Q 1100 0 847 248 
Q 594 497 594 1153 
L 594 3053 
L 172 3053 
L 172 3500 
L 594 3500 
L 594 4494 
L 1172 4494 
z
" transform="scale(0.015625)"/>
       <path id="DejaVuSans-61" d="M 2194 1759 
Q 1497 1759 1228 1600 
Q 959 1441 959 1056 
Q 959 750 1161 570 
Q 1363 391 1709 391 
Q 2188 391 2477 730 
Q 2766 1069 2766 1631 
L 2766 1759 
L 2194 1759 
z
M 3341 1997 
L 3341 0 
L 2766 0 
L 2766 531 
Q 2569 213 2275 61 
Q 1981 -91 1556 -91 
Q 1019 -91 701 211 
Q 384 513 384 1019 
Q 384 1609 779 1909 
Q 1175 2209 1959 2209 
L 2766 2209 
L 2766 2266 
Q 2766 2663 2505 2880 
Q 2244 3097 1772 3097 
Q 1472 3097 1187 3025 
Q 903 2953 641 2809 
L 641 3341 
Q 956 3463 1253 3523 
Q 1550 3584 1831 3584 
Q 2591 3584 2966 3190 
Q 3341 2797 3341 1997 
z
" transform="scale(0.015625)"/>
       <path id="DejaVuSans-69" d="M 603 3500 
L 1178 3500 
L 1178 0 
L 603 0 
L 603 3500 
z
M 603 4863 
L 1178 4863 
L 1178 4134 
L 603 4134 
L 603 4863 
z
" transform="scale(0.015625)"/>
       <path id="DejaVuSans-63" d="M 3122 3366 
L 3122 2828 
Q 2878 2963 2633 3030 
Q 2388 3097 2138 3097 
Q 1578 3097 1268 2742 
Q 959 2388 959 1747 
Q 959 1106 1268 751 
Q 1578 397 2138 397 
Q 2388 397 2633 464 
Q 2878 531 3122 666 
L 3122 134 
Q 2881 22 2623 -34 
Q 2366 -91 2075 -91 
Q 1284 -91 818 406 
Q 353 903 353 1747 
Q 353 2603 823 3093 
Q 1294 3584 2113 3584 
Q 2378 3584 2631 3529 
Q 2884 3475 3122 3366 
z
" transform="scale(0.015625)"/>
      </defs>
      <use xlink:href="#DejaVuSans-46"/>
      <use xlink:href="#DejaVuSans-2d" x="57.519531"/>
      <use xlink:href="#DejaVuSans-73" x="93.603516"/>
      <use xlink:href="#DejaVuSans-74" x="145.703125"/>
      <use xlink:href="#DejaVuSans-61" x="184.912109"/>
      <use xlink:href="#DejaVuSans-74" x="246.191406"/>
      <use xlink:href="#DejaVuSans-69" x="285.400391"/>
      <use xlink:href="#DejaVuSans-73" x="313.183594"/>
      <use xlink:href="#DejaVuSans-74" x="365.283203"/>
      <use xlink:href="#DejaVuSans-69" x="404.492188"/>
      <use xlink:href="#DejaVuSans-63" x="432.275391"/>
     </g>
    </g>
   </g>
   <g id="matplotlib.axis_2">
    <g id="ytick_1">
     <g id="line2d_7">
      <defs>
       <path id="mfe6539dba9" d="M 0 0 
L -3.5 0 
" style="stroke: #000000; stroke-width: 0.8"/>
      </defs>
      <g>
       <use xlink:href="#mfe6539dba9" x="57.6" y="295.488" style="stroke: #000000; stroke-width: 0.8"/>
      </g>
     </g>
     <g id="text_8">
      <!-- 0.00 -->
      <g transform="translate(28.334375 299.287219) scale(0.1 -0.1)">
       <defs>
        <path id="DejaVuSans-2e" d="M 684 794 
L 1344 794 
L 1344 0 
L 684 0 
L 684 794 
z
" transform="scale(0.015625)"/>
       </defs>
       <use xlink:href="#DejaVuSans-30"/>
       <use xlink:href="#DejaVuSans-2e" x="63.623047"/>
       <use xlink:href="#DejaVuSans-30" x="95.410156"/>
       <use xlink:href="#DejaVuSans-30" x="159.033203"/>
      </g>
     </g>
    </g>
    <g id="ytick_2">
     <g id="line2d_8">
      <g>
       <use xlink:href="#mfe6539dba9" x="57.6" y="265.69384" style="stroke: #000000; stroke-width: 0.8"/>
      </g>
     </g>
     <g id="text_9">
      <!-- 0.25 -->
      <g transform="translate(28.334375 269.493059) scale(0.1 -0.1)">
       <use xlink:href="#DejaVuSans-30"/>
       <use xlink:href="#DejaVuSans-2e" x="63.623047"/>
       <use xlink:href="#DejaVuSans-32" x="95.410156"/>
       <use xlink:href="#DejaVuSans-35" x="159.033203"/>
      </g>
     </g>
    </g>
    <g id="ytick_3">
     <g id="line2d_9">
      <g>
       <use xlink:href="#mfe6539dba9" x="57.6" y="235.89968" style="stroke: #000000; stroke-width: 0.8"/>
      </g>
     </g>
     <g id="text_10">
      <!-- 0.50 -->
      <g transform="translate(28.334375 239.698899) scale(0.1 -0.1)">
       <use xlink:href="#DejaVuSans-30"/>
       <use xlink:href="#DejaVuSans-2e" x="63.623047"/>
       <use xlink:href="#DejaVuSans-35" x="95.410156"/>
       <use xlink:href="#DejaVuSans-30" x="159.033203"/>
      </g>
     </g>
    </g>
    <g id="ytick_4">
     <g id="line2d_10">
      <g>
       <use xlink:href="#mfe6539dba9" x="57.6" y="206.10552" style="stroke: #000000; stroke-width: 0.8"/>
      </g>
     </g>
     <g id="text_11">
      <!-- 0.75 -->
      <g transform="translate(28.334375 209.904739) scale(0.1 -0.1)">
       <defs>
        <path id="DejaVuSans-37" d="M 525 4666 
L 3525 4666 
L 3525 4397 
L 1831 0 
L 1172 0 
L 2766 4134 
L 525 4134 
L 525 4666 
z
" transform="scale(0.015625)"/>
       </defs>
       <use xlink:href="#DejaVuSans-30"/>
       <use xlink:href="#DejaVuSans-2e" x="63.623047"/>
       <use xlink:href="#DejaVuSans-37" x="95.410156"/>
       <use xlink:href="#DejaVuSans-35" x="159.033203"/>
      </g>
     </g>
    </g>
    <g id="ytick_5">
     <g id="line2d_11">
      <g>
       <use xlink:href="#mfe6539dba9" x="57.6" y="176.31136" style="stroke: #000000; stroke-width: 0.8"/>
      </g>
     </g>
     <g id="text_12">
      <!-- 1.00 -->
      <g transform="translate(28.334375 180.110579) scale(0.1 -0.1)">
       <use xlink:href="#DejaVuSans-31"/>
       <use xlink:href="#DejaVuSans-2e" x="63.623047"/>
       <use xlink:href="#DejaVuSans-30" x="95.410156"/>
       <use xlink:href="#DejaVuSans-30" x="159.033203"/>
      </g>
     </g>
    </g>
    <g id="ytick_6">
     <g id="line2d_12">
      <g>
       <use xlink:href="#mfe6539dba9" x="57.6" y="146.5172" style="stroke: #000000; stroke-width: 0.8"/>
      </g>
     </g>
     <g id="text_13">
      <!-- 1.25 -->
      <g transform="translate(28.334375 150.316419) scale(0.1 -0.1)">
       <use xlink:href="#DejaVuSans-31"/>
       <use xlink:href="#DejaVuSans-2e" x="63.623047"/>
       <use xlink:href="#DejaVuSans-32" x="95.410156"/>
       <use xlink:href="#DejaVuSans-35" x="159.033203"/>
      </g>
     </g>
    </g>
    <g id="ytick_7">
     <g id="line2d_13">
      <g>
       <use xlink:href="#mfe6539dba9" x="57.6" y="116.72304" style="stroke: #000000; stroke-width: 0.8"/>
      </g>
     </g>
     <g id="text_14">
      <!-- 1.50 -->
      <g transform="translate(28.334375 120.522259) scale(0.1 -0.1)">
       <use xlink:href="#DejaVuSans-31"/>
       <use xlink:href="#DejaVuSans-2e" x="63.623047"/>
       <use xlink:href="#DejaVuSans-35" x="95.410156"/>
       <use xlink:href="#DejaVuSans-30" x="159.033203"/>
      </g>
     </g>
    </g>
    <g id="ytick_8">
     <g id="line2d_14">
      <g>
       <use xlink:href="#mfe6539dba9" x="57.6" y="86.92888" style="stroke: #000000; stroke-width: 0.8"/>
      </g>
     </g>
     <g id="text_15">
      <!-- 1.75 -->
      <g transform="translate(28.334375 90.728099) scale(0.1 -0.1)">
       <use xlink:href="#DejaVuSans-31"/>
       <use xlink:href="#DejaVuSans-2e" x="63.623047"/>
       <use xlink:href="#DejaVuSans-37" x="95.410156"/>
       <use xlink:href="#DejaVuSans-35" x="159.033203"/>
      </g>
     </g>
    </g>
    <g id="ytick_9">
     <g id="line2d_15">
      <g>
       <use xlink:href="#mfe6539dba9" x="57.6" y="57.13472" style="stroke: #000000; stroke-width: 0.8"/>
      </g>
     </g>
     <g id="text_16">
      <!-- 2.00 -->
      <g transform="translate(28.334375 60.933939) scale(0.1 -0.1)">
       <use xlink:href="#DejaVuSans-32"/>
       <use xlink:href="#DejaVuSans-2e" x="63.623047"/>
       <use xlink:href="#DejaVuSans-30" x="95.410156"/>
       <use xlink:href="#DejaVuSans-30" x="159.033203"/>
      </g>
     </g>
    </g>
    <g id="text_17">
     <!-- Probability density -->
     <g transform="translate(22.254687 220.878781) rotate(-90) scale(0.1 -0.1)">
      <defs>
       <path id="DejaVuSans-50" d="M 1259 4147 
L 1259 2394 
L 2053 2394 
Q 2494 2394 2734 2622 
Q 2975 2850 2975 3272 
Q 2975 3691 2734 3919 
Q 2494 4147 2053 4147 
L 1259 4147 
z
M 628 4666 
L 2053 4666 
Q 2838 4666 3239 4311 
Q 3641 3956 3641 3272 
Q 3641 2581 3239 2228 
Q 2838 1875 2053 1875 
L 1259 1875 
L 1259 0 
L 628 0 
L 628 4666 
z
" transform="scale(0.015625)"/>
       <path id="DejaVuSans-72" d="M 2631 2963 
Q 2534 3019 2420 3045 
Q 2306 3072 2169 3072 
Q 1681 3072 1420 2755 
Q 1159 2438 1159 1844 
L 1159 0 
L 581 0 
L 581 3500 
L 1159 3500 
L 1159 2956 
Q 1341 3275 1631 3429 
Q 1922 3584 2338 3584 
Q 2397 3584 2469 3576 
Q 2541 3569 2628 3553 
L 2631 2963 
z
" transform="scale(0.015625)"/>
       <path id="DejaVuSans-6f" d="M 1959 3097 
Q 1497 3097 1228 2736 
Q 959 2375 959 1747 
Q 959 1119 1226 758 
Q 1494 397 1959 397 
Q 2419 397 2687 759 
Q 2956 1122 2956 1747 
Q 2956 2369 2687 2733 
Q 2419 3097 1959 3097 
z
M 1959 3584 
Q 2709 3584 3137 3096 
Q 3566 2609 3566 1747 
Q 3566 888 3137 398 
Q 2709 -91 1959 -91 
Q 1206 -91 779 398 
Q 353 888 353 1747 
Q 353 2609 779 3096 
Q 1206 3584 1959 3584 
z
" transform="scale(0.015625)"/>
       <path id="DejaVuSans-62" d="M 3116 1747 
Q 3116 2381 2855 2742 
Q 2594 3103 2138 3103 
Q 1681 3103 1420 2742 
Q 1159 2381 1159 1747 
Q 1159 1113 1420 752 
Q 1681 391 2138 391 
Q 2594 391 2855 752 
Q 3116 1113 3116 1747 
z
M 1159 2969 
Q 1341 3281 1617 3432 
Q 1894 3584 2278 3584 
Q 2916 3584 3314 3078 
Q 3713 2572 3713 1747 
Q 3713 922 3314 415 
Q 2916 -91 2278 -91 
Q 1894 -91 1617 61 
Q 1341 213 1159 525 
L 1159 0 
L 581 0 
L 581 4863 
L 1159 4863 
L 1159 2969 
z
" transform="scale(0.015625)"/>
       <path id="DejaVuSans-6c" d="M 603 4863 
L 1178 4863 
L 1178 0 
L 603 0 
L 603 4863 
z
" transform="scale(0.015625)"/>
       <path id="DejaVuSans-79" d="M 2059 -325 
Q 1816 -950 1584 -1140 
Q 1353 -1331 966 -1331 
L 506 -1331 
L 506 -850 
L 844 -850 
Q 1081 -850 1212 -737 
Q 1344 -625 1503 -206 
L 1606 56 
L 191 3500 
L 800 3500 
L 1894 763 
L 2988 3500 
L 3597 3500 
L 2059 -325 
z
" transform="scale(0.015625)"/>
       <path id="DejaVuSans-20" transform="scale(0.015625)"/>
       <path id="DejaVuSans-64" d="M 2906 2969 
L 2906 4863 
L 3481 4863 
L 3481 0 
L 2906 0 
L 2906 525 
Q 2725 213 2448 61 
Q 2172 -91 1784 -91 
Q 1150 -91 751 415 
Q 353 922 353 1747 
Q 353 2572 751 3078 
Q 1150 3584 1784 3584 
Q 2172 3584 2448 3432 
Q 2725 3281 2906 2969 
z
M 947 1747 
Q 947 1113 1208 752 
Q 1469 391 1925 391 
Q 2381 391 2643 752 
Q 2906 1113 2906 1747 
Q 2906 2381 2643 2742 
Q 2381 3103 1925 3103 
Q 1469 3103 1208 2742 
Q 947 2381 947 1747 
z
" transform="scale(0.015625)"/>
       <path id="DejaVuSans-65" d="M 3597 1894 
L 3597 1613 
L 953 1613 
Q 991 1019 1311 708 
Q 1631 397 2203 397 
Q 2534 397 2845 478 
Q 3156 559 3463 722 
L 3463 178 
Q 3153 47 2828 -22 
Q 2503 -91 2169 -91 
Q 1331 -91 842 396 
Q 353 884 353 1716 
Q 353 2575 817 3079 
Q 1281 3584 2069 3584 
Q 2775 3584 3186 3129 
Q 3597 2675 3597 1894 
z
M 3022 2063 
Q 3016 2534 2758 2815 
Q 2500 3097 2075 3097 
Q 1594 3097 1305 2825 
Q 1016 2553 972 2059 
L 3022 2063 
z
" transform="scale(0.015625)"/>
       <path id="DejaVuSans-6e" d="M 3513 2113 
L 3513 0 
L 2938 0 
L 2938 2094 
Q 2938 2591 2744 2837 
Q 2550 3084 2163 3084 
Q 1697 3084 1428 2787 
Q 1159 2491 1159 1978 
L 1159 0 
L 581 0 
L 581 3500 
L 1159 3500 
L 1159 2956 
Q 1366 3272 1645 3428 
Q 1925 3584 2291 3584 
Q 2894 3584 3203 3211 
Q 3513 2838 3513 2113 
z
" transform="scale(0.015625)"/>
      </defs>
      <use xlink:href="#DejaVuSans-50"/>
      <use xlink:href="#DejaVuSans-72" x="58.552734"/>
      <use xlink:href="#DejaVuSans-6f" x="97.416016"/>
      <use xlink:href="#DejaVuSans-62" x="158.597656"/>
      <use xlink:href="#DejaVuSans-61" x="222.074219"/>
      <use xlink:href="#DejaVuSans-62" x="283.353516"/>
      <use xlink:href="#DejaVuSans-69" x="346.830078"/>
      <use xlink:href="#DejaVuSans-6c" x="374.613281"/>
      <use xlink:href="#DejaVuSans-69" x="402.396484"/>
      <use xlink:href="#DejaVuSans-74" x="430.179688"/>
      <use xlink:href="#DejaVuSans-79" x="469.388672"/>
      <use xlink:href="#DejaVuSans-20" x="528.568359"/>
      <use xlink:href="#DejaVuSans-64" x="560.355469"/>
      <use xlink:href="#DejaVuSans-65" x="623.832031"/>
      <use xlink:href="#DejaVuSans-6e" x="685.355469"/>
      <use xlink:href="#DejaVuSans-73" x="748.734375"/>
      <use xlink:href="#DejaVuSans-69" x="800.833984"/>
      <use xlink:href="#DejaVuSans-74" x="828.617188"/>
      <use xlink:href="#DejaVuSans-79" x="867.826172"/>
     </g>
    </g>
   </g>
   <g id="line2d_16">
    <path d="M 75.457625 61.539893 
L 76.107584 99.677969 
L 76.757543 124.453887 
L 77.407502 142.249624 
L 78.382441 161.562656 
L 79.357379 175.634492 
L 80.332318 186.496707 
L 81.307256 195.221609 
L 82.607174 204.57844 
L 83.907093 212.116457 
L 85.207011 218.361722 
L 86.506929 223.647745 
L 88.131826 229.239744 
L 89.756724 233.972285 
L 91.381622 238.043826 
L 93.006519 241.593529 
L 94.956396 245.304629 
L 96.906274 248.535723 
L 98.856151 251.379424 
L 101.131007 254.298886 
L 103.405864 256.867367 
L 106.0057 259.452023 
L 108.605536 261.729181 
L 111.530352 263.989246 
L 114.780147 266.192687 
L 118.029943 268.13 
L 121.604717 270.008158 
L 125.504472 271.807902 
L 129.729206 273.516441 
L 134.603898 275.233234 
L 139.803571 276.820034 
L 145.653202 278.361737 
L 152.152793 279.831871 
L 159.302342 281.213422 
L 167.42683 282.546147 
L 176.526257 283.803514 
L 186.925602 285.004101 
L 198.624865 286.123065 
L 211.949025 287.170381 
L 227.548043 288.166199 
L 245.746896 289.096566 
L 267.195545 289.961908 
L 292.868927 290.765277 
L 323.741982 291.500165 
L 361.764586 292.17312 
L 398.487273 292.660484 
L 398.487273 292.660484 
" clip-path="url(#p7efa6d8a5d)" style="fill: none; stroke: #1f77b4; stroke-width: 1.5; stroke-linecap: square"/>
   </g>
   <g id="line2d_17">
    <path d="M 73.832727 176.31136 
L 75.457625 184.729737 
L 77.407502 193.59554 
L 79.357379 201.33859 
L 81.307256 208.14833 
L 83.257133 214.174998 
L 85.207011 219.539108 
L 87.156888 224.338332 
L 89.431744 229.329278 
L 91.706601 233.762837 
L 93.981458 237.722426 
L 96.256314 241.276067 
L 98.856151 244.911634 
L 101.455987 248.158273 
L 104.055823 251.071838 
L 106.980639 254.008368 
L 109.905455 256.635005 
L 113.15525 259.243193 
L 116.405045 261.57209 
L 119.97982 263.858992 
L 123.879574 266.074594 
L 128.104308 268.197185 
L 132.654021 270.211801 
L 137.528714 272.109216 
L 142.728387 273.884889 
L 148.253038 275.53797 
L 154.427649 277.149757 
L 161.252219 278.69314 
L 168.726749 280.149727 
L 177.176216 281.558651 
L 186.600622 282.892256 
L 196.999967 284.133393 
L 208.69923 285.303141 
L 222.023391 286.408867 
L 237.297428 287.449566 
L 255.171302 288.436207 
L 275.969992 289.352869 
L 300.343456 290.198268 
L 329.591613 290.982662 
L 365.014382 291.701693 
L 398.487273 292.221354 
L 398.487273 292.221354 
" clip-path="url(#p7efa6d8a5d)" style="fill: none; stroke: #ff7f0e; stroke-width: 1.5; stroke-linecap: square"/>
   </g>
   <g id="line2d_18">
    <path d="M 73.832727 295.488 
L 74.157707 294.489871 
L 74.807666 290.726361 
L 76.107584 281.096364 
L 78.382441 264.448061 
L 79.682359 256.382221 
L 80.982277 249.55676 
L 82.282195 243.915377 
L 83.582113 239.345019 
L 84.882031 235.715618 
L 86.181949 232.898519 
L 87.156888 231.246688 
L 88.131826 229.93898 
L 89.106765 228.934076 
L 90.081704 228.194817 
L 91.056642 227.687992 
L 92.031581 227.38404 
L 93.331499 227.249465 
L 94.631417 227.375309 
L 95.931335 227.71584 
L 97.556233 228.385086 
L 99.50611 229.464614 
L 101.780966 230.999215 
L 104.705782 233.253763 
L 109.580475 237.348181 
L 118.354922 244.740533 
L 123.554595 248.801049 
L 128.429287 252.310693 
L 132.979001 255.318274 
L 137.528714 258.074781 
L 142.403407 260.766517 
L 147.2781 263.209212 
L 152.477772 265.566229 
L 158.002424 267.819121 
L 163.852056 269.954893 
L 170.026667 271.965382 
L 176.526257 273.846534 
L 183.675807 275.675873 
L 191.150336 277.358592 
L 199.274824 278.961788 
L 208.374251 280.522733 
L 218.123636 281.966367 
L 228.847961 283.329365 
L 240.872203 284.629272 
L 254.196364 285.842937 
L 269.145422 286.979412 
L 286.369337 288.058182 
L 305.868108 289.050595 
L 328.291695 289.9656 
L 354.615037 290.811946 
L 385.813071 291.585983 
L 398.487273 291.846603 
L 398.487273 291.846603 
" clip-path="url(#p7efa6d8a5d)" style="fill: none; stroke: #2ca02c; stroke-width: 1.5; stroke-linecap: square"/>
   </g>
   <g id="line2d_19">
    <path d="M 73.832727 295.488 
L 74.482686 295.400879 
L 74.807666 295.142685 
L 75.132645 294.624575 
L 75.457625 293.804254 
L 76.107584 291.253361 
L 76.757543 287.679207 
L 78.057461 278.794409 
L 80.332318 263.043612 
L 81.632236 255.668465 
L 82.932154 249.78384 
L 83.907093 246.295074 
L 84.882031 243.513565 
L 85.85697 241.351721 
L 86.831908 239.723299 
L 87.806847 238.548433 
L 88.781785 237.755739 
L 89.756724 237.282808 
L 90.731663 237.07585 
L 91.706601 237.088946 
L 93.006519 237.382294 
L 94.306437 237.922368 
L 95.931335 238.853792 
L 97.881212 240.23105 
L 100.806028 242.603739 
L 113.805209 253.535168 
L 118.029943 256.634375 
L 122.254676 259.446252 
L 126.47941 261.984909 
L 130.704144 264.273112 
L 135.253857 266.486118 
L 140.12855 268.602086 
L 145.328223 270.606136 
L 150.852875 272.489366 
L 156.702506 274.247752 
L 163.202097 275.961402 
L 170.026667 277.532644 
L 177.501196 279.030636 
L 185.950663 280.492828 
L 195.37507 281.888173 
L 205.774414 283.196117 
L 217.473677 284.436619 
L 230.472858 285.589536 
L 245.421916 286.687958 
L 262.645831 287.723216 
L 282.469582 288.685817 
L 305.543129 289.579103 
L 332.841409 290.408448 
L 365.664341 291.176012 
L 398.487273 291.768318 
L 398.487273 291.768318 
" clip-path="url(#p7efa6d8a5d)" style="fill: none; stroke: #d62728; stroke-width: 1.5; stroke-linecap: square"/>
   </g>
   <g id="line2d_20">
    <path d="M 73.832727 295.488 
L 101.780966 295.389699 
L 103.730844 295.152703 
L 105.030762 294.796443 
L 106.0057 294.349272 
L 106.980639 293.677329 
L 107.955577 292.701018 
L 108.930516 291.32643 
L 109.905455 289.447406 
L 110.880393 286.949167 
L 111.855332 283.713441 
L 112.83027 279.624835 
L 113.805209 274.57807 
L 114.780147 268.485533 
L 116.080066 258.631519 
L 117.379984 246.751244 
L 118.679902 232.903694 
L 120.304799 213.123656 
L 122.579656 182.027181 
L 127.454349 113.691702 
L 129.079247 94.272608 
L 130.379165 81.032003 
L 131.679083 70.199259 
L 132.654021 63.796058 
L 133.62896 58.933605 
L 134.278919 56.560208 
L 134.928878 54.880659 
L 135.578837 53.887571 
L 135.903817 53.644609 
L 136.228796 53.568 
L 136.553776 53.655334 
L 136.878755 53.903916 
L 137.528714 54.872698 
L 138.178673 56.447671 
L 138.828632 58.598647 
L 139.803571 62.831922 
L 140.778509 68.164538 
L 142.078428 76.759805 
L 143.703325 89.441853 
L 145.653202 106.687548 
L 149.227977 140.961776 
L 152.802752 174.622899 
L 155.077609 194.220509 
L 157.352465 211.837556 
L 159.302342 225.204824 
L 161.252219 236.947537 
L 162.877117 245.527512 
L 164.502015 253.070358 
L 166.126912 259.648083 
L 167.75181 265.342027 
L 169.376708 270.237769 
L 171.001605 274.421204 
L 172.626503 277.975667 
L 174.2514 280.979919 
L 175.876298 283.506878 
L 177.501196 285.622901 
L 179.126093 287.387519 
L 180.750991 288.853486 
L 182.700868 290.283124 
L 184.650745 291.41747 
L 186.600622 292.313697 
L 188.875479 293.120885 
L 191.475315 293.801831 
L 194.400131 294.341749 
L 197.974906 294.776643 
L 202.524619 295.103081 
L 209.02421 295.329525 
L 220.073514 295.453502 
L 250.946568 295.487513 
L 398.487273 295.488 
L 398.487273 295.488 
" clip-path="url(#p7efa6d8a5d)" style="fill: none; stroke: #9467bd; stroke-width: 1.5; stroke-linecap: square"/>
   </g>
   <g id="patch_3">
    <path d="M 57.6 307.584 
L 57.6 41.472 
" style="fill: none; stroke: #000000; stroke-width: 0.8; stroke-linejoin: miter; stroke-linecap: square"/>
   </g>
   <g id="patch_4">
    <path d="M 414.72 307.584 
L 414.72 41.472 
" style="fill: none; stroke: #000000; stroke-width: 0.8; stroke-linejoin: miter; stroke-linecap: square"/>
   </g>
   <g id="patch_5">
    <path d="M 57.6 307.584 
L 414.72 307.584 
" style="fill: none; stroke: #000000; stroke-width: 0.8; stroke-linejoin: miter; stroke-linecap: square"/>
   </g>
   <g id="patch_6">
    <path d="M 57.6 41.472 
L 414.72 41.472 
" style="fill: none; stroke: #000000; stroke-width: 0.8; stroke-linejoin: miter; stroke-linecap: square"/>
   </g>
   <g id="text_18">
    <!-- F-distribution -->
    <g transform="translate(196.352812 35.472) scale(0.12 -0.12)">
     <defs>
      <path id="DejaVuSans-75" d="M 544 1381 
L 544 3500 
L 1119 3500 
L 1119 1403 
Q 1119 906 1312 657 
Q 1506 409 1894 409 
Q 2359 409 2629 706 
Q 2900 1003 2900 1516 
L 2900 3500 
L 3475 3500 
L 3475 0 
L 2900 0 
L 2900 538 
Q 2691 219 2414 64 
Q 2138 -91 1772 -91 
Q 1169 -91 856 284 
Q 544 659 544 1381 
z
M 1991 3584 
L 1991 3584 
z
" transform="scale(0.015625)"/>
     </defs>
     <use xlink:href="#DejaVuSans-46"/>
     <use xlink:href="#DejaVuSans-2d" x="57.519531"/>
     <use xlink:href="#DejaVuSans-64" x="93.603516"/>
     <use xlink:href="#DejaVuSans-69" x="157.080078"/>
     <use xlink:href="#DejaVuSans-73" x="184.863281"/>
     <use xlink:href="#DejaVuSans-74" x="236.962891"/>
     <use xlink:href="#DejaVuSans-72" x="276.171875"/>
     <use xlink:href="#DejaVuSans-69" x="317.285156"/>
     <use xlink:href="#DejaVuSans-62" x="345.068359"/>
     <use xlink:href="#DejaVuSans-75" x="408.544922"/>
     <use xlink:href="#DejaVuSans-74" x="471.923828"/>
     <use xlink:href="#DejaVuSans-69" x="511.132812"/>
     <use xlink:href="#DejaVuSans-6f" x="538.916016"/>
     <use xlink:href="#DejaVuSans-6e" x="600.097656"/>
    </g>
   </g>
   <g id="legend_1">
    <g id="patch_7">
     <path d="M 285.63875 122.862625 
L 407.72 122.862625 
Q 409.72 122.862625 409.72 120.862625 
L 409.72 48.472 
Q 409.72 46.472 407.72 46.472 
L 285.63875 46.472 
Q 283.63875 46.472 283.63875 48.472 
L 283.63875 120.862625 
Q 283.63875 122.862625 285.63875 122.862625 
z
" style="fill: #ffffff; opacity: 0.8; stroke: #cccccc; stroke-linejoin: miter"/>
    </g>
    <g id="line2d_21">
     <path d="M 287.63875 54.570438 
L 297.63875 54.570438 
L 307.63875 54.570438 
" style="fill: none; stroke: #1f77b4; stroke-width: 1.5; stroke-linecap: square"/>
    </g>
    <g id="text_19">
     <!-- m = 1, n = 1 -->
     <g transform="translate(315.63875 58.070438) scale(0.1 -0.1)">
      <defs>
       <path id="DejaVuSans-6d" d="M 3328 2828 
Q 3544 3216 3844 3400 
Q 4144 3584 4550 3584 
Q 5097 3584 5394 3201 
Q 5691 2819 5691 2113 
L 5691 0 
L 5113 0 
L 5113 2094 
Q 5113 2597 4934 2840 
Q 4756 3084 4391 3084 
Q 3944 3084 3684 2787 
Q 3425 2491 3425 1978 
L 3425 0 
L 2847 0 
L 2847 2094 
Q 2847 2600 2669 2842 
Q 2491 3084 2119 3084 
Q 1678 3084 1418 2786 
Q 1159 2488 1159 1978 
L 1159 0 
L 581 0 
L 581 3500 
L 1159 3500 
L 1159 2956 
Q 1356 3278 1631 3431 
Q 1906 3584 2284 3584 
Q 2666 3584 2933 3390 
Q 3200 3197 3328 2828 
z
" transform="scale(0.015625)"/>
       <path id="DejaVuSans-3d" d="M 678 2906 
L 4684 2906 
L 4684 2381 
L 678 2381 
L 678 2906 
z
M 678 1631 
L 4684 1631 
L 4684 1100 
L 678 1100 
L 678 1631 
z
" transform="scale(0.015625)"/>
       <path id="DejaVuSans-2c" d="M 750 794 
L 1409 794 
L 1409 256 
L 897 -744 
L 494 -744 
L 750 256 
L 750 794 
z
" transform="scale(0.015625)"/>
      </defs>
      <use xlink:href="#DejaVuSans-6d"/>
      <use xlink:href="#DejaVuSans-20" x="97.412109"/>
      <use xlink:href="#DejaVuSans-3d" x="129.199219"/>
      <use xlink:href="#DejaVuSans-20" x="212.988281"/>
      <use xlink:href="#DejaVuSans-31" x="244.775391"/>
      <use xlink:href="#DejaVuSans-2c" x="308.398438"/>
      <use xlink:href="#DejaVuSans-20" x="340.185547"/>
      <use xlink:href="#DejaVuSans-6e" x="371.972656"/>
      <use xlink:href="#DejaVuSans-20" x="435.351562"/>
      <use xlink:href="#DejaVuSans-3d" x="467.138672"/>
      <use xlink:href="#DejaVuSans-20" x="550.927734"/>
      <use xlink:href="#DejaVuSans-31" x="582.714844"/>
     </g>
    </g>
    <g id="line2d_22">
     <path d="M 287.63875 69.248563 
L 297.63875 69.248563 
L 307.63875 69.248563 
" style="fill: none; stroke: #ff7f0e; stroke-width: 1.5; stroke-linecap: square"/>
    </g>
    <g id="text_20">
     <!-- m = 2, n = 1 -->
     <g transform="translate(315.63875 72.748563) scale(0.1 -0.1)">
      <use xlink:href="#DejaVuSans-6d"/>
      <use xlink:href="#DejaVuSans-20" x="97.412109"/>
      <use xlink:href="#DejaVuSans-3d" x="129.199219"/>
      <use xlink:href="#DejaVuSans-20" x="212.988281"/>
      <use xlink:href="#DejaVuSans-32" x="244.775391"/>
      <use xlink:href="#DejaVuSans-2c" x="308.398438"/>
      <use xlink:href="#DejaVuSans-20" x="340.185547"/>
      <use xlink:href="#DejaVuSans-6e" x="371.972656"/>
      <use xlink:href="#DejaVuSans-20" x="435.351562"/>
      <use xlink:href="#DejaVuSans-3d" x="467.138672"/>
      <use xlink:href="#DejaVuSans-20" x="550.927734"/>
      <use xlink:href="#DejaVuSans-31" x="582.714844"/>
     </g>
    </g>
    <g id="line2d_23">
     <path d="M 287.63875 83.926688 
L 297.63875 83.926688 
L 307.63875 83.926688 
" style="fill: none; stroke: #2ca02c; stroke-width: 1.5; stroke-linecap: square"/>
    </g>
    <g id="text_21">
     <!-- m = 5, n = 2 -->
     <g transform="translate(315.63875 87.426688) scale(0.1 -0.1)">
      <use xlink:href="#DejaVuSans-6d"/>
      <use xlink:href="#DejaVuSans-20" x="97.412109"/>
      <use xlink:href="#DejaVuSans-3d" x="129.199219"/>
      <use xlink:href="#DejaVuSans-20" x="212.988281"/>
      <use xlink:href="#DejaVuSans-35" x="244.775391"/>
      <use xlink:href="#DejaVuSans-2c" x="308.398438"/>
      <use xlink:href="#DejaVuSans-20" x="340.185547"/>
      <use xlink:href="#DejaVuSans-6e" x="371.972656"/>
      <use xlink:href="#DejaVuSans-20" x="435.351562"/>
      <use xlink:href="#DejaVuSans-3d" x="467.138672"/>
      <use xlink:href="#DejaVuSans-20" x="550.927734"/>
      <use xlink:href="#DejaVuSans-32" x="582.714844"/>
     </g>
    </g>
    <g id="line2d_24">
     <path d="M 287.63875 98.604813 
L 297.63875 98.604813 
L 307.63875 98.604813 
" style="fill: none; stroke: #d62728; stroke-width: 1.5; stroke-linecap: square"/>
    </g>
    <g id="text_22">
     <!-- m = 10, n = 1 -->
     <g transform="translate(315.63875 102.104813) scale(0.1 -0.1)">
      <use xlink:href="#DejaVuSans-6d"/>
      <use xlink:href="#DejaVuSans-20" x="97.412109"/>
      <use xlink:href="#DejaVuSans-3d" x="129.199219"/>
      <use xlink:href="#DejaVuSans-20" x="212.988281"/>
      <use xlink:href="#DejaVuSans-31" x="244.775391"/>
      <use xlink:href="#DejaVuSans-30" x="308.398438"/>
      <use xlink:href="#DejaVuSans-2c" x="372.021484"/>
      <use xlink:href="#DejaVuSans-20" x="403.808594"/>
      <use xlink:href="#DejaVuSans-6e" x="435.595703"/>
      <use xlink:href="#DejaVuSans-20" x="498.974609"/>
      <use xlink:href="#DejaVuSans-3d" x="530.761719"/>
      <use xlink:href="#DejaVuSans-20" x="614.550781"/>
      <use xlink:href="#DejaVuSans-31" x="646.337891"/>
     </g>
    </g>
    <g id="line2d_25">
     <path d="M 287.63875 113.282938 
L 297.63875 113.282938 
L 307.63875 113.282938 
" style="fill: none; stroke: #9467bd; stroke-width: 1.5; stroke-linecap: square"/>
    </g>
    <g id="text_23">
     <!-- m = 100, n = 100 -->
     <g transform="translate(315.63875 116.782938) scale(0.1 -0.1)">
      <use xlink:href="#DejaVuSans-6d"/>
      <use xlink:href="#DejaVuSans-20" x="97.412109"/>
      <use xlink:href="#DejaVuSans-3d" x="129.199219"/>
      <use xlink:href="#DejaVuSans-20" x="212.988281"/>
      <use xlink:href="#DejaVuSans-31" x="244.775391"/>
      <use xlink:href="#DejaVuSans-30" x="308.398438"/>
      <use xlink:href="#DejaVuSans-30" x="372.021484"/>
      <use xlink:href="#DejaVuSans-2c" x="435.644531"/>
      <use xlink:href="#DejaVuSans-20" x="467.431641"/>
      <use xlink:href="#DejaVuSans-6e" x="499.21875"/>
      <use xlink:href="#DejaVuSans-20" x="562.597656"/>
      <use xlink:href="#DejaVuSans-3d" x="594.384766"/>
      <use xlink:href="#DejaVuSans-20" x="678.173828"/>
      <use xlink:href="#DejaVuSans-31" x="709.960938"/>
      <use xlink:href="#DejaVuSans-30" x="773.583984"/>
      <use xlink:href="#DejaVuSans-30" x="837.207031"/>
     </g>
    </g>
   </g>
  </g>
 </g>
 <defs>
  <clipPath id="p7efa6d8a5d">
   <rect x="57.6" y="41.472" width="357.12" height="266.112"/>
  </clipPath>
 </defs>
</svg>
