<?xml version="1.0" encoding="utf-8" standalone="no"?>
<!DOCTYPE svg PUBLIC "-//W3C//DTD SVG 1.1//EN"
  "http://www.w3.org/Graphics/SVG/1.1/DTD/svg11.dtd">
<svg xmlns:xlink="http://www.w3.org/1999/xlink" width="460.8pt" height="345.6pt" viewBox="0 0 460.8 345.6" xmlns="http://www.w3.org/2000/svg" version="1.1">
 <metadata>
  <rdf:RDF xmlns:dc="http://purl.org/dc/elements/1.1/" xmlns:cc="http://creativecommons.org/ns#" xmlns:rdf="http://www.w3.org/1999/02/22-rdf-syntax-ns#">
   <cc:Work>
    <dc:type rdf:resource="http://purl.org/dc/dcmitype/StillImage"/>
    <dc:date>2024-05-02T16:44:18.692195</dc:date>
    <dc:format>image/svg+xml</dc:format>
    <dc:creator>
     <cc:Agent>
      <dc:title>Matplotlib v3.8.4, https://matplotlib.org/</dc:title>
     </cc:Agent>
    </dc:creator>
   </cc:Work>
  </rdf:RDF>
 </metadata>
 <defs>
  <style type="text/css">*{stroke-linejoin: round; stroke-linecap: butt}</style>
 </defs>
 <g id="figure_1">
  <g id="patch_1">
   <path d="M 0 345.6 
L 460.8 345.6 
L 460.8 0 
L 0 0 
z
" style="fill: #ffffff"/>
  </g>
  <g id="axes_1">
   <g id="patch_2">
    <path d="M 57.6 307.584 
L 414.72 307.584 
L 414.72 41.472 
L 57.6 41.472 
z
" style="fill: #ffffff"/>
   </g>
   <g id="matplotlib.axis_1">
    <g id="xtick_1">
     <g id="line2d_1">
      <path d="M 57.6 307.584 
L 57.6 41.472 
" clip-path="url(#p238b61e427)" style="fill: none; stroke: #b0b0b0; stroke-width: 0.8; stroke-linecap: square"/>
     </g>
     <g id="line2d_2">
      <defs>
       <path id="mfb24c2081a" d="M 0 0 
L 0 3.5 
" style="stroke: #000000; stroke-width: 0.8"/>
      </defs>
      <g>
       <use xlink:href="#mfb24c2081a" x="57.6" y="307.584" style="stroke: #000000; stroke-width: 0.8"/>
      </g>
     </g>
     <g id="text_1">
      <!-- 0 -->
      <g transform="translate(54.41875 322.182437) scale(0.1 -0.1)">
       <defs>
        <path id="DejaVuSans-30" d="M 2034 4250 
Q 1547 4250 1301 3770 
Q 1056 3291 1056 2328 
Q 1056 1369 1301 889 
Q 1547 409 2034 409 
Q 2525 409 2770 889 
Q 3016 1369 3016 2328 
Q 3016 3291 2770 3770 
Q 2525 4250 2034 4250 
z
M 2034 4750 
Q 2819 4750 3233 4129 
Q 3647 3509 3647 2328 
Q 3647 1150 3233 529 
Q 2819 -91 2034 -91 
Q 1250 -91 836 529 
Q 422 1150 422 2328 
Q 422 3509 836 4129 
Q 1250 4750 2034 4750 
z
" transform="scale(0.015625)"/>
       </defs>
       <use xlink:href="#DejaVuSans-30"/>
      </g>
     </g>
    </g>
    <g id="xtick_2">
     <g id="line2d_3">
      <path d="M 129.024 307.584 
L 129.024 41.472 
" clip-path="url(#p238b61e427)" style="fill: none; stroke: #b0b0b0; stroke-width: 0.8; stroke-linecap: square"/>
     </g>
     <g id="line2d_4">
      <g>
       <use xlink:href="#mfb24c2081a" x="129.024" y="307.584" style="stroke: #000000; stroke-width: 0.8"/>
      </g>
     </g>
     <g id="text_2">
      <!-- 1 -->
      <g transform="translate(125.84275 322.182437) scale(0.1 -0.1)">
       <defs>
        <path id="DejaVuSans-31" d="M 794 531 
L 1825 531 
L 1825 4091 
L 703 3866 
L 703 4441 
L 1819 4666 
L 2450 4666 
L 2450 531 
L 3481 531 
L 3481 0 
L 794 0 
L 794 531 
z
" transform="scale(0.015625)"/>
       </defs>
       <use xlink:href="#DejaVuSans-31"/>
      </g>
     </g>
    </g>
    <g id="xtick_3">
     <g id="line2d_5">
      <path d="M 200.448 307.584 
L 200.448 41.472 
" clip-path="url(#p238b61e427)" style="fill: none; stroke: #b0b0b0; stroke-width: 0.8; stroke-linecap: square"/>
     </g>
     <g id="line2d_6">
      <g>
       <use xlink:href="#mfb24c2081a" x="200.448" y="307.584" style="stroke: #000000; stroke-width: 0.8"/>
      </g>
     </g>
     <g id="text_3">
      <!-- 2 -->
      <g transform="translate(197.26675 322.182437) scale(0.1 -0.1)">
       <defs>
        <path id="DejaVuSans-32" d="M 1228 531 
L 3431 531 
L 3431 0 
L 469 0 
L 469 531 
Q 828 903 1448 1529 
Q 2069 2156 2228 2338 
Q 2531 2678 2651 2914 
Q 2772 3150 2772 3378 
Q 2772 3750 2511 3984 
Q 2250 4219 1831 4219 
Q 1534 4219 1204 4116 
Q 875 4013 500 3803 
L 500 4441 
Q 881 4594 1212 4672 
Q 1544 4750 1819 4750 
Q 2544 4750 2975 4387 
Q 3406 4025 3406 3419 
Q 3406 3131 3298 2873 
Q 3191 2616 2906 2266 
Q 2828 2175 2409 1742 
Q 1991 1309 1228 531 
z
" transform="scale(0.015625)"/>
       </defs>
       <use xlink:href="#DejaVuSans-32"/>
      </g>
     </g>
    </g>
    <g id="xtick_4">
     <g id="line2d_7">
      <path d="M 271.872 307.584 
L 271.872 41.472 
" clip-path="url(#p238b61e427)" style="fill: none; stroke: #b0b0b0; stroke-width: 0.8; stroke-linecap: square"/>
     </g>
     <g id="line2d_8">
      <g>
       <use xlink:href="#mfb24c2081a" x="271.872" y="307.584" style="stroke: #000000; stroke-width: 0.8"/>
      </g>
     </g>
     <g id="text_4">
      <!-- 3 -->
      <g transform="translate(268.69075 322.182437) scale(0.1 -0.1)">
       <defs>
        <path id="DejaVuSans-33" d="M 2597 2516 
Q 3050 2419 3304 2112 
Q 3559 1806 3559 1356 
Q 3559 666 3084 287 
Q 2609 -91 1734 -91 
Q 1441 -91 1130 -33 
Q 819 25 488 141 
L 488 750 
Q 750 597 1062 519 
Q 1375 441 1716 441 
Q 2309 441 2620 675 
Q 2931 909 2931 1356 
Q 2931 1769 2642 2001 
Q 2353 2234 1838 2234 
L 1294 2234 
L 1294 2753 
L 1863 2753 
Q 2328 2753 2575 2939 
Q 2822 3125 2822 3475 
Q 2822 3834 2567 4026 
Q 2313 4219 1838 4219 
Q 1578 4219 1281 4162 
Q 984 4106 628 3988 
L 628 4550 
Q 988 4650 1302 4700 
Q 1616 4750 1894 4750 
Q 2613 4750 3031 4423 
Q 3450 4097 3450 3541 
Q 3450 3153 3228 2886 
Q 3006 2619 2597 2516 
z
" transform="scale(0.015625)"/>
       </defs>
       <use xlink:href="#DejaVuSans-33"/>
      </g>
     </g>
    </g>
    <g id="xtick_5">
     <g id="line2d_9">
      <path d="M 343.296 307.584 
L 343.296 41.472 
" clip-path="url(#p238b61e427)" style="fill: none; stroke: #b0b0b0; stroke-width: 0.8; stroke-linecap: square"/>
     </g>
     <g id="line2d_10">
      <g>
       <use xlink:href="#mfb24c2081a" x="343.296" y="307.584" style="stroke: #000000; stroke-width: 0.8"/>
      </g>
     </g>
     <g id="text_5">
      <!-- 4 -->
      <g transform="translate(340.11475 322.182437) scale(0.1 -0.1)">
       <defs>
        <path id="DejaVuSans-34" d="M 2419 4116 
L 825 1625 
L 2419 1625 
L 2419 4116 
z
M 2253 4666 
L 3047 4666 
L 3047 1625 
L 3713 1625 
L 3713 1100 
L 3047 1100 
L 3047 0 
L 2419 0 
L 2419 1100 
L 313 1100 
L 313 1709 
L 2253 4666 
z
" transform="scale(0.015625)"/>
       </defs>
       <use xlink:href="#DejaVuSans-34"/>
      </g>
     </g>
    </g>
    <g id="xtick_6">
     <g id="line2d_11">
      <path d="M 414.72 307.584 
L 414.72 41.472 
" clip-path="url(#p238b61e427)" style="fill: none; stroke: #b0b0b0; stroke-width: 0.8; stroke-linecap: square"/>
     </g>
     <g id="line2d_12">
      <g>
       <use xlink:href="#mfb24c2081a" x="414.72" y="307.584" style="stroke: #000000; stroke-width: 0.8"/>
      </g>
     </g>
     <g id="text_6">
      <!-- 5 -->
      <g transform="translate(411.53875 322.182437) scale(0.1 -0.1)">
       <defs>
        <path id="DejaVuSans-35" d="M 691 4666 
L 3169 4666 
L 3169 4134 
L 1269 4134 
L 1269 2991 
Q 1406 3038 1543 3061 
Q 1681 3084 1819 3084 
Q 2600 3084 3056 2656 
Q 3513 2228 3513 1497 
Q 3513 744 3044 326 
Q 2575 -91 1722 -91 
Q 1428 -91 1123 -41 
Q 819 9 494 109 
L 494 744 
Q 775 591 1075 516 
Q 1375 441 1709 441 
Q 2250 441 2565 725 
Q 2881 1009 2881 1497 
Q 2881 1984 2565 2268 
Q 2250 2553 1709 2553 
Q 1456 2553 1204 2497 
Q 953 2441 691 2322 
L 691 4666 
z
" transform="scale(0.015625)"/>
       </defs>
       <use xlink:href="#DejaVuSans-35"/>
      </g>
     </g>
    </g>
    <g id="text_7">
     <!-- F-statistic -->
     <g transform="translate(211.799062 335.860562) scale(0.1 -0.1)">
      <defs>
       <path id="DejaVuSans-46" d="M 628 4666 
L 3309 4666 
L 3309 4134 
L 1259 4134 
L 1259 2759 
L 3109 2759 
L 3109 2228 
L 1259 2228 
L 1259 0 
L 628 0 
L 628 4666 
z
" transform="scale(0.015625)"/>
       <path id="DejaVuSans-2d" d="M 313 2009 
L 1997 2009 
L 1997 1497 
L 313 1497 
L 313 2009 
z
" transform="scale(0.015625)"/>
       <path id="DejaVuSans-73" d="M 2834 3397 
L 2834 2853 
Q 2591 2978 2328 3040 
Q 2066 3103 1784 3103 
Q 1356 3103 1142 2972 
Q 928 2841 928 2578 
Q 928 2378 1081 2264 
Q 1234 2150 1697 2047 
L 1894 2003 
Q 2506 1872 2764 1633 
Q 3022 1394 3022 966 
Q 3022 478 2636 193 
Q 2250 -91 1575 -91 
Q 1294 -91 989 -36 
Q 684 19 347 128 
L 347 722 
Q 666 556 975 473 
Q 1284 391 1588 391 
Q 1994 391 2212 530 
Q 2431 669 2431 922 
Q 2431 1156 2273 1281 
Q 2116 1406 1581 1522 
L 1381 1569 
Q 847 1681 609 1914 
Q 372 2147 372 2553 
Q 372 3047 722 3315 
Q 1072 3584 1716 3584 
Q 2034 3584 2315 3537 
Q 2597 3491 2834 3397 
z
" transform="scale(0.015625)"/>
       <path id="DejaVuSans-74" d="M 1172 4494 
L 1172 3500 
L 2356 3500 
L 2356 3053 
L 1172 3053 
L 1172 1153 
Q 1172 725 1289 603 
Q 1406 481 1766 481 
L 2356 481 
L 2356 0 
L 1766 0 
Q 1100 0 847 248 
Q 594 497 594 1153 
L 594 3053 
L 172 3053 
L 172 3500 
L 594 3500 
L 594 4494 
L 1172 4494 
z
" transform="scale(0.015625)"/>
       <path id="DejaVuSans-61" d="M 2194 1759 
Q 1497 1759 1228 1600 
Q 959 1441 959 1056 
Q 959 750 1161 570 
Q 1363 391 1709 391 
Q 2188 391 2477 730 
Q 2766 1069 2766 1631 
L 2766 1759 
L 2194 1759 
z
M 3341 1997 
L 3341 0 
L 2766 0 
L 2766 531 
Q 2569 213 2275 61 
Q 1981 -91 1556 -91 
Q 1019 -91 701 211 
Q 384 513 384 1019 
Q 384 1609 779 1909 
Q 1175 2209 1959 2209 
L 2766 2209 
L 2766 2266 
Q 2766 2663 2505 2880 
Q 2244 3097 1772 3097 
Q 1472 3097 1187 3025 
Q 903 2953 641 2809 
L 641 3341 
Q 956 3463 1253 3523 
Q 1550 3584 1831 3584 
Q 2591 3584 2966 3190 
Q 3341 2797 3341 1997 
z
" transform="scale(0.015625)"/>
       <path id="DejaVuSans-69" d="M 603 3500 
L 1178 3500 
L 1178 0 
L 603 0 
L 603 3500 
z
M 603 4863 
L 1178 4863 
L 1178 4134 
L 603 4134 
L 603 4863 
z
" transform="scale(0.015625)"/>
       <path id="DejaVuSans-63" d="M 3122 3366 
L 3122 2828 
Q 2878 2963 2633 3030 
Q 2388 3097 2138 3097 
Q 1578 3097 1268 2742 
Q 959 2388 959 1747 
Q 959 1106 1268 751 
Q 1578 397 2138 397 
Q 2388 397 2633 464 
Q 2878 531 3122 666 
L 3122 134 
Q 2881 22 2623 -34 
Q 2366 -91 2075 -91 
Q 1284 -91 818 406 
Q 353 903 353 1747 
Q 353 2603 823 3093 
Q 1294 3584 2113 3584 
Q 2378 3584 2631 3529 
Q 2884 3475 3122 3366 
z
" transform="scale(0.015625)"/>
      </defs>
      <use xlink:href="#DejaVuSans-46"/>
      <use xlink:href="#DejaVuSans-2d" x="57.519531"/>
      <use xlink:href="#DejaVuSans-73" x="93.603516"/>
      <use xlink:href="#DejaVuSans-74" x="145.703125"/>
      <use xlink:href="#DejaVuSans-61" x="184.912109"/>
      <use xlink:href="#DejaVuSans-74" x="246.191406"/>
      <use xlink:href="#DejaVuSans-69" x="285.400391"/>
      <use xlink:href="#DejaVuSans-73" x="313.183594"/>
      <use xlink:href="#DejaVuSans-74" x="365.283203"/>
      <use xlink:href="#DejaVuSans-69" x="404.492188"/>
      <use xlink:href="#DejaVuSans-63" x="432.275391"/>
     </g>
    </g>
   </g>
   <g id="matplotlib.axis_2">
    <g id="ytick_1">
     <g id="line2d_13">
      <path d="M 57.6 307.584 
L 414.72 307.584 
" clip-path="url(#p238b61e427)" style="fill: none; stroke: #b0b0b0; stroke-width: 0.8; stroke-linecap: square"/>
     </g>
     <g id="line2d_14">
      <defs>
       <path id="macd395e50d" d="M 0 0 
L -3.5 0 
" style="stroke: #000000; stroke-width: 0.8"/>
      </defs>
      <g>
       <use xlink:href="#macd395e50d" x="57.6" y="307.584" style="stroke: #000000; stroke-width: 0.8"/>
      </g>
     </g>
     <g id="text_8">
      <!-- 0.00 -->
      <g transform="translate(28.334375 311.383219) scale(0.1 -0.1)">
       <defs>
        <path id="DejaVuSans-2e" d="M 684 794 
L 1344 794 
L 1344 0 
L 684 0 
L 684 794 
z
" transform="scale(0.015625)"/>
       </defs>
       <use xlink:href="#DejaVuSans-30"/>
       <use xlink:href="#DejaVuSans-2e" x="63.623047"/>
       <use xlink:href="#DejaVuSans-30" x="95.410156"/>
       <use xlink:href="#DejaVuSans-30" x="159.033203"/>
      </g>
     </g>
    </g>
    <g id="ytick_2">
     <g id="line2d_15">
      <path d="M 57.6 274.810424 
L 414.72 274.810424 
" clip-path="url(#p238b61e427)" style="fill: none; stroke: #b0b0b0; stroke-width: 0.8; stroke-linecap: square"/>
     </g>
     <g id="line2d_16">
      <g>
       <use xlink:href="#macd395e50d" x="57.6" y="274.810424" style="stroke: #000000; stroke-width: 0.8"/>
      </g>
     </g>
     <g id="text_9">
      <!-- 0.25 -->
      <g transform="translate(28.334375 278.609643) scale(0.1 -0.1)">
       <use xlink:href="#DejaVuSans-30"/>
       <use xlink:href="#DejaVuSans-2e" x="63.623047"/>
       <use xlink:href="#DejaVuSans-32" x="95.410156"/>
       <use xlink:href="#DejaVuSans-35" x="159.033203"/>
      </g>
     </g>
    </g>
    <g id="ytick_3">
     <g id="line2d_17">
      <path d="M 57.6 242.036848 
L 414.72 242.036848 
" clip-path="url(#p238b61e427)" style="fill: none; stroke: #b0b0b0; stroke-width: 0.8; stroke-linecap: square"/>
     </g>
     <g id="line2d_18">
      <g>
       <use xlink:href="#macd395e50d" x="57.6" y="242.036848" style="stroke: #000000; stroke-width: 0.8"/>
      </g>
     </g>
     <g id="text_10">
      <!-- 0.50 -->
      <g transform="translate(28.334375 245.836067) scale(0.1 -0.1)">
       <use xlink:href="#DejaVuSans-30"/>
       <use xlink:href="#DejaVuSans-2e" x="63.623047"/>
       <use xlink:href="#DejaVuSans-35" x="95.410156"/>
       <use xlink:href="#DejaVuSans-30" x="159.033203"/>
      </g>
     </g>
    </g>
    <g id="ytick_4">
     <g id="line2d_19">
      <path d="M 57.6 209.263272 
L 414.72 209.263272 
" clip-path="url(#p238b61e427)" style="fill: none; stroke: #b0b0b0; stroke-width: 0.8; stroke-linecap: square"/>
     </g>
     <g id="line2d_20">
      <g>
       <use xlink:href="#macd395e50d" x="57.6" y="209.263272" style="stroke: #000000; stroke-width: 0.8"/>
      </g>
     </g>
     <g id="text_11">
      <!-- 0.75 -->
      <g transform="translate(28.334375 213.062491) scale(0.1 -0.1)">
       <defs>
        <path id="DejaVuSans-37" d="M 525 4666 
L 3525 4666 
L 3525 4397 
L 1831 0 
L 1172 0 
L 2766 4134 
L 525 4134 
L 525 4666 
z
" transform="scale(0.015625)"/>
       </defs>
       <use xlink:href="#DejaVuSans-30"/>
       <use xlink:href="#DejaVuSans-2e" x="63.623047"/>
       <use xlink:href="#DejaVuSans-37" x="95.410156"/>
       <use xlink:href="#DejaVuSans-35" x="159.033203"/>
      </g>
     </g>
    </g>
    <g id="ytick_5">
     <g id="line2d_21">
      <path d="M 57.6 176.489696 
L 414.72 176.489696 
" clip-path="url(#p238b61e427)" style="fill: none; stroke: #b0b0b0; stroke-width: 0.8; stroke-linecap: square"/>
     </g>
     <g id="line2d_22">
      <g>
       <use xlink:href="#macd395e50d" x="57.6" y="176.489696" style="stroke: #000000; stroke-width: 0.8"/>
      </g>
     </g>
     <g id="text_12">
      <!-- 1.00 -->
      <g transform="translate(28.334375 180.288915) scale(0.1 -0.1)">
       <use xlink:href="#DejaVuSans-31"/>
       <use xlink:href="#DejaVuSans-2e" x="63.623047"/>
       <use xlink:href="#DejaVuSans-30" x="95.410156"/>
       <use xlink:href="#DejaVuSans-30" x="159.033203"/>
      </g>
     </g>
    </g>
    <g id="ytick_6">
     <g id="line2d_23">
      <path d="M 57.6 143.71612 
L 414.72 143.71612 
" clip-path="url(#p238b61e427)" style="fill: none; stroke: #b0b0b0; stroke-width: 0.8; stroke-linecap: square"/>
     </g>
     <g id="line2d_24">
      <g>
       <use xlink:href="#macd395e50d" x="57.6" y="143.71612" style="stroke: #000000; stroke-width: 0.8"/>
      </g>
     </g>
     <g id="text_13">
      <!-- 1.25 -->
      <g transform="translate(28.334375 147.515339) scale(0.1 -0.1)">
       <use xlink:href="#DejaVuSans-31"/>
       <use xlink:href="#DejaVuSans-2e" x="63.623047"/>
       <use xlink:href="#DejaVuSans-32" x="95.410156"/>
       <use xlink:href="#DejaVuSans-35" x="159.033203"/>
      </g>
     </g>
    </g>
    <g id="ytick_7">
     <g id="line2d_25">
      <path d="M 57.6 110.942544 
L 414.72 110.942544 
" clip-path="url(#p238b61e427)" style="fill: none; stroke: #b0b0b0; stroke-width: 0.8; stroke-linecap: square"/>
     </g>
     <g id="line2d_26">
      <g>
       <use xlink:href="#macd395e50d" x="57.6" y="110.942544" style="stroke: #000000; stroke-width: 0.8"/>
      </g>
     </g>
     <g id="text_14">
      <!-- 1.50 -->
      <g transform="translate(28.334375 114.741763) scale(0.1 -0.1)">
       <use xlink:href="#DejaVuSans-31"/>
       <use xlink:href="#DejaVuSans-2e" x="63.623047"/>
       <use xlink:href="#DejaVuSans-35" x="95.410156"/>
       <use xlink:href="#DejaVuSans-30" x="159.033203"/>
      </g>
     </g>
    </g>
    <g id="ytick_8">
     <g id="line2d_27">
      <path d="M 57.6 78.168968 
L 414.72 78.168968 
" clip-path="url(#p238b61e427)" style="fill: none; stroke: #b0b0b0; stroke-width: 0.8; stroke-linecap: square"/>
     </g>
     <g id="line2d_28">
      <g>
       <use xlink:href="#macd395e50d" x="57.6" y="78.168968" style="stroke: #000000; stroke-width: 0.8"/>
      </g>
     </g>
     <g id="text_15">
      <!-- 1.75 -->
      <g transform="translate(28.334375 81.968187) scale(0.1 -0.1)">
       <use xlink:href="#DejaVuSans-31"/>
       <use xlink:href="#DejaVuSans-2e" x="63.623047"/>
       <use xlink:href="#DejaVuSans-37" x="95.410156"/>
       <use xlink:href="#DejaVuSans-35" x="159.033203"/>
      </g>
     </g>
    </g>
    <g id="ytick_9">
     <g id="line2d_29">
      <path d="M 57.6 45.395392 
L 414.72 45.395392 
" clip-path="url(#p238b61e427)" style="fill: none; stroke: #b0b0b0; stroke-width: 0.8; stroke-linecap: square"/>
     </g>
     <g id="line2d_30">
      <g>
       <use xlink:href="#macd395e50d" x="57.6" y="45.395392" style="stroke: #000000; stroke-width: 0.8"/>
      </g>
     </g>
     <g id="text_16">
      <!-- 2.00 -->
      <g transform="translate(28.334375 49.194611) scale(0.1 -0.1)">
       <use xlink:href="#DejaVuSans-32"/>
       <use xlink:href="#DejaVuSans-2e" x="63.623047"/>
       <use xlink:href="#DejaVuSans-30" x="95.410156"/>
       <use xlink:href="#DejaVuSans-30" x="159.033203"/>
      </g>
     </g>
    </g>
    <g id="text_17">
     <!-- Probability density -->
     <g transform="translate(22.254687 220.878781) rotate(-90) scale(0.1 -0.1)">
      <defs>
       <path id="DejaVuSans-50" d="M 1259 4147 
L 1259 2394 
L 2053 2394 
Q 2494 2394 2734 2622 
Q 2975 2850 2975 3272 
Q 2975 3691 2734 3919 
Q 2494 4147 2053 4147 
L 1259 4147 
z
M 628 4666 
L 2053 4666 
Q 2838 4666 3239 4311 
Q 3641 3956 3641 3272 
Q 3641 2581 3239 2228 
Q 2838 1875 2053 1875 
L 1259 1875 
L 1259 0 
L 628 0 
L 628 4666 
z
" transform="scale(0.015625)"/>
       <path id="DejaVuSans-72" d="M 2631 2963 
Q 2534 3019 2420 3045 
Q 2306 3072 2169 3072 
Q 1681 3072 1420 2755 
Q 1159 2438 1159 1844 
L 1159 0 
L 581 0 
L 581 3500 
L 1159 3500 
L 1159 2956 
Q 1341 3275 1631 3429 
Q 1922 3584 2338 3584 
Q 2397 3584 2469 3576 
Q 2541 3569 2628 3553 
L 2631 2963 
z
" transform="scale(0.015625)"/>
       <path id="DejaVuSans-6f" d="M 1959 3097 
Q 1497 3097 1228 2736 
Q 959 2375 959 1747 
Q 959 1119 1226 758 
Q 1494 397 1959 397 
Q 2419 397 2687 759 
Q 2956 1122 2956 1747 
Q 2956 2369 2687 2733 
Q 2419 3097 1959 3097 
z
M 1959 3584 
Q 2709 3584 3137 3096 
Q 3566 2609 3566 1747 
Q 3566 888 3137 398 
Q 2709 -91 1959 -91 
Q 1206 -91 779 398 
Q 353 888 353 1747 
Q 353 2609 779 3096 
Q 1206 3584 1959 3584 
z
" transform="scale(0.015625)"/>
       <path id="DejaVuSans-62" d="M 3116 1747 
Q 3116 2381 2855 2742 
Q 2594 3103 2138 3103 
Q 1681 3103 1420 2742 
Q 1159 2381 1159 1747 
Q 1159 1113 1420 752 
Q 1681 391 2138 391 
Q 2594 391 2855 752 
Q 3116 1113 3116 1747 
z
M 1159 2969 
Q 1341 3281 1617 3432 
Q 1894 3584 2278 3584 
Q 2916 3584 3314 3078 
Q 3713 2572 3713 1747 
Q 3713 922 3314 415 
Q 2916 -91 2278 -91 
Q 1894 -91 1617 61 
Q 1341 213 1159 525 
L 1159 0 
L 581 0 
L 581 4863 
L 1159 4863 
L 1159 2969 
z
" transform="scale(0.015625)"/>
       <path id="DejaVuSans-6c" d="M 603 4863 
L 1178 4863 
L 1178 0 
L 603 0 
L 603 4863 
z
" transform="scale(0.015625)"/>
       <path id="DejaVuSans-79" d="M 2059 -325 
Q 1816 -950 1584 -1140 
Q 1353 -1331 966 -1331 
L 506 -1331 
L 506 -850 
L 844 -850 
Q 1081 -850 1212 -737 
Q 1344 -625 1503 -206 
L 1606 56 
L 191 3500 
L 800 3500 
L 1894 763 
L 2988 3500 
L 3597 3500 
L 2059 -325 
z
" transform="scale(0.015625)"/>
       <path id="DejaVuSans-20" transform="scale(0.015625)"/>
       <path id="DejaVuSans-64" d="M 2906 2969 
L 2906 4863 
L 3481 4863 
L 3481 0 
L 2906 0 
L 2906 525 
Q 2725 213 2448 61 
Q 2172 -91 1784 -91 
Q 1150 -91 751 415 
Q 353 922 353 1747 
Q 353 2572 751 3078 
Q 1150 3584 1784 3584 
Q 2172 3584 2448 3432 
Q 2725 3281 2906 2969 
z
M 947 1747 
Q 947 1113 1208 752 
Q 1469 391 1925 391 
Q 2381 391 2643 752 
Q 2906 1113 2906 1747 
Q 2906 2381 2643 2742 
Q 2381 3103 1925 3103 
Q 1469 3103 1208 2742 
Q 947 2381 947 1747 
z
" transform="scale(0.015625)"/>
       <path id="DejaVuSans-65" d="M 3597 1894 
L 3597 1613 
L 953 1613 
Q 991 1019 1311 708 
Q 1631 397 2203 397 
Q 2534 397 2845 478 
Q 3156 559 3463 722 
L 3463 178 
Q 3153 47 2828 -22 
Q 2503 -91 2169 -91 
Q 1331 -91 842 396 
Q 353 884 353 1716 
Q 353 2575 817 3079 
Q 1281 3584 2069 3584 
Q 2775 3584 3186 3129 
Q 3597 2675 3597 1894 
z
M 3022 2063 
Q 3016 2534 2758 2815 
Q 2500 3097 2075 3097 
Q 1594 3097 1305 2825 
Q 1016 2553 972 2059 
L 3022 2063 
z
" transform="scale(0.015625)"/>
       <path id="DejaVuSans-6e" d="M 3513 2113 
L 3513 0 
L 2938 0 
L 2938 2094 
Q 2938 2591 2744 2837 
Q 2550 3084 2163 3084 
Q 1697 3084 1428 2787 
Q 1159 2491 1159 1978 
L 1159 0 
L 581 0 
L 581 3500 
L 1159 3500 
L 1159 2956 
Q 1366 3272 1645 3428 
Q 1925 3584 2291 3584 
Q 2894 3584 3203 3211 
Q 3513 2838 3513 2113 
z
" transform="scale(0.015625)"/>
      </defs>
      <use xlink:href="#DejaVuSans-50"/>
      <use xlink:href="#DejaVuSans-72" x="58.552734"/>
      <use xlink:href="#DejaVuSans-6f" x="97.416016"/>
      <use xlink:href="#DejaVuSans-62" x="158.597656"/>
      <use xlink:href="#DejaVuSans-61" x="222.074219"/>
      <use xlink:href="#DejaVuSans-62" x="283.353516"/>
      <use xlink:href="#DejaVuSans-69" x="346.830078"/>
      <use xlink:href="#DejaVuSans-6c" x="374.613281"/>
      <use xlink:href="#DejaVuSans-69" x="402.396484"/>
      <use xlink:href="#DejaVuSans-74" x="430.179688"/>
      <use xlink:href="#DejaVuSans-79" x="469.388672"/>
      <use xlink:href="#DejaVuSans-20" x="528.568359"/>
      <use xlink:href="#DejaVuSans-64" x="560.355469"/>
      <use xlink:href="#DejaVuSans-65" x="623.832031"/>
      <use xlink:href="#DejaVuSans-6e" x="685.355469"/>
      <use xlink:href="#DejaVuSans-73" x="748.734375"/>
      <use xlink:href="#DejaVuSans-69" x="800.833984"/>
      <use xlink:href="#DejaVuSans-74" x="828.617188"/>
      <use xlink:href="#DejaVuSans-79" x="867.826172"/>
     </g>
    </g>
   </g>
   <g id="line2d_31">
    <path d="M 59.387387 50.241083 
L 60.102342 92.192966 
L 60.817297 119.446475 
L 61.532252 139.021787 
L 62.247207 153.986596 
L 63.31964 171.057882 
L 64.392072 184.016842 
L 65.464505 194.303726 
L 66.536937 202.735828 
L 67.966847 211.936823 
L 69.396757 219.461415 
L 70.826667 225.7668 
L 72.256577 231.151377 
L 74.043964 236.892633 
L 75.831351 241.785718 
L 77.618739 246.019179 
L 79.406126 249.727165 
L 81.550991 253.620023 
L 83.695856 257.022334 
L 85.840721 260.026298 
L 88.343063 263.119263 
L 90.845405 265.847634 
L 93.347748 268.274679 
L 96.207568 270.741705 
L 99.424865 273.192662 
L 102.642162 275.359156 
L 106.216937 277.4902 
L 110.149189 279.556174 
L 114.438919 281.535892 
L 119.086126 283.415285 
L 124.090811 285.186039 
L 129.452973 286.84435 
L 135.53009 288.479728 
L 141.964685 289.981111 
L 149.114234 291.424316 
L 157.336216 292.848295 
L 166.273153 294.167717 
L 176.282523 295.421866 
L 187.721802 296.628015 
L 200.590991 297.759947 
L 215.605045 298.849937 
L 232.763964 299.865979 
L 252.782703 300.821481 
L 276.376216 301.715834 
L 304.259459 302.541914 
L 337.862342 303.305788 
L 378.614775 304.001668 
L 414.72 304.473733 
L 414.72 304.473733 
" clip-path="url(#p238b61e427)" style="fill: none; stroke: #1f77b4; stroke-width: 1.5; stroke-linecap: square"/>
   </g>
   <g id="line2d_32">
    <path d="M 57.6 176.489696 
L 59.387387 185.749911 
L 61.174775 193.969041 
L 62.962162 201.303886 
L 65.107027 209.11657 
L 67.251892 216.016866 
L 69.396757 222.147277 
L 71.541622 227.622914 
L 73.686486 232.537667 
L 75.831351 236.9688 
L 78.333694 241.61212 
L 80.836036 245.767976 
L 83.338378 249.505119 
L 85.840721 252.88032 
L 88.700541 256.354738 
L 91.56036 259.476333 
L 94.42018 262.293305 
L 97.637477 265.147885 
L 100.854775 267.714712 
L 104.42955 270.276499 
L 108.004324 272.57523 
L 111.936577 274.843161 
L 116.226306 277.050755 
L 120.873514 279.175545 
L 125.878198 281.201468 
L 131.24036 283.118007 
L 136.96 284.919268 
L 143.037117 286.603072 
L 149.829189 288.251434 
L 157.336216 289.836175 
L 165.558198 291.337678 
L 174.495135 292.743695 
L 184.504505 294.092565 
L 195.943784 295.400491 
L 208.812973 296.636774 
L 223.112072 297.782666 
L 239.556036 298.872096 
L 258.502342 299.897237 
L 280.308468 300.849355 
L 306.046847 301.743321 
L 336.432432 302.568871 
L 372.895135 303.32967 
L 414.72 303.990689 
L 414.72 303.990689 
" clip-path="url(#p238b61e427)" style="fill: none; stroke: #ff7f0e; stroke-width: 1.5; stroke-linecap: square"/>
   </g>
   <g id="line2d_33">
    <path d="M 57.6 307.584 
L 57.957477 277.805477 
L 58.672432 258.927744 
L 59.387387 248.229247 
L 60.102342 241.119471 
L 60.817297 236.15506 
L 61.532252 232.634379 
L 62.247207 230.148148 
L 62.962162 228.432007 
L 63.677117 227.303799 
L 64.392072 226.63233 
L 65.107027 226.320041 
L 65.821982 226.29263 
L 66.536937 226.49245 
L 67.609369 227.121544 
L 68.681802 228.045434 
L 70.111712 229.593241 
L 72.256577 232.324049 
L 76.188829 237.820407 
L 81.193514 244.708498 
L 84.768288 249.244287 
L 87.985586 252.99469 
L 91.202883 256.431203 
L 94.42018 259.57049 
L 97.994955 262.738063 
L 101.56973 265.6011 
L 105.144505 268.192611 
L 109.076757 270.765927 
L 113.009009 273.083699 
L 117.298739 275.3578 
L 121.945946 277.561514 
L 126.950631 279.674723 
L 132.312793 281.683314 
L 138.032432 283.578389 
L 144.10955 285.355386 
L 150.901622 287.099328 
L 158.051171 288.704514 
L 165.915676 290.243807 
L 174.495135 291.699987 
L 184.147027 293.110964 
L 194.871351 294.450521 
L 207.025586 295.736742 
L 220.60973 296.944036 
L 235.981261 298.081716 
L 253.497658 299.150619 
L 273.873874 300.163164 
L 297.467387 301.104881 
L 324.993153 301.975348 
L 357.881081 302.785508 
L 397.561081 303.531411 
L 414.72 303.796167 
L 414.72 303.796167 
" clip-path="url(#p238b61e427)" style="fill: none; stroke: #2ca02c; stroke-width: 1.5; stroke-linecap: square"/>
   </g>
   <g id="line2d_34">
    <path d="M 57.6 307.584 
L 58.314955 307.488167 
L 58.672432 307.204154 
L 59.02991 306.634233 
L 59.387387 305.731879 
L 60.102342 302.925897 
L 60.817297 298.994328 
L 62.247207 289.22105 
L 64.392072 274.169732 
L 65.821982 265.657007 
L 66.894414 260.343802 
L 67.966847 255.938043 
L 69.039279 252.370149 
L 70.111712 249.548495 
L 71.184144 247.376324 
L 72.256577 245.76069 
L 73.329009 244.616704 
L 74.401441 243.869133 
L 75.473874 243.45256 
L 76.546306 243.310805 
L 77.618739 243.396028 
L 79.048649 243.793657 
L 80.478559 244.44463 
L 82.265946 245.520568 
L 84.410811 247.075584 
L 87.628108 249.715689 
L 100.497297 260.604361 
L 104.787027 263.829982 
L 109.076757 266.785166 
L 113.366486 269.47761 
L 118.013694 272.1184 
L 122.660901 274.498541 
L 127.665586 276.801955 
L 133.027748 279.006885 
L 138.38991 280.974758 
L 144.467027 282.957779 
L 150.901622 284.812328 
L 157.693694 286.537877 
L 165.200721 288.21154 
L 173.422703 289.809593 
L 182.35964 291.316014 
L 192.369009 292.769548 
L 203.450811 294.145241 
L 215.605045 295.42748 
L 229.546667 296.666686 
L 245.275676 297.832044 
L 263.14955 298.925234 
L 283.525766 299.9434 
L 307.119279 300.895151 
L 335.002523 301.789277 
L 367.89045 302.613398 
L 407.212973 303.369627 
L 414.72 303.49235 
L 414.72 303.49235 
" clip-path="url(#p238b61e427)" style="fill: none; stroke: #d62728; stroke-width: 1.5; stroke-linecap: square"/>
   </g>
   <g id="line2d_35">
    <path d="M 57.6 307.584 
L 60.102342 307.495817 
L 61.174775 307.265989 
L 62.247207 306.795949 
L 63.31964 306.011963 
L 64.392072 304.861057 
L 65.464505 303.312577 
L 66.536937 301.35678 
L 67.609369 299.001927 
L 69.039279 295.282364 
L 70.826667 289.822191 
L 72.971532 282.355916 
L 76.188829 270.090724 
L 81.193514 250.943999 
L 83.695856 242.219032 
L 85.840721 235.460309 
L 87.985586 229.462041 
L 89.772973 225.078386 
L 91.56036 221.262912 
L 93.347748 218.010202 
L 94.777658 215.802968 
L 96.207568 213.934354 
L 97.637477 212.390289 
L 99.067387 211.154931 
L 100.497297 210.211199 
L 101.927207 209.54123 
L 103.357117 209.126759 
L 104.787027 208.949424 
L 106.216937 208.991021 
L 107.646847 209.233704 
L 109.434234 209.79349 
L 111.221622 210.608002 
L 113.009009 211.646598 
L 115.153874 213.148455 
L 117.656216 215.195662 
L 120.516036 217.845214 
L 124.090811 221.499132 
L 128.738018 226.607671 
L 147.326847 247.41773 
L 152.331532 252.526108 
L 156.978739 256.976486 
L 161.625946 261.129939 
L 166.273153 264.983963 
L 170.92036 268.544048 
L 175.567568 271.821037 
L 180.214775 274.829169 
L 184.861982 277.58465 
L 189.866667 280.289212 
L 194.871351 282.742303 
L 200.233514 285.115662 
L 205.595676 287.249673 
L 211.315315 289.288489 
L 217.392432 291.214808 
L 223.827027 293.016032 
L 230.619099 294.684058 
L 237.768649 296.214881 
L 245.633153 297.669505 
L 254.212613 299.023608 
L 263.507027 300.260993 
L 273.873874 301.40897 
L 285.313153 302.445477 
L 298.182342 303.382444 
L 312.838919 304.2206 
L 329.997838 304.969014 
L 350.016577 305.612095 
L 374.325045 306.162543 
L 404.710631 306.618956 
L 414.72 306.730326 
L 414.72 306.730326 
" clip-path="url(#p238b61e427)" style="fill: none; stroke: #9467bd; stroke-width: 1.5; stroke-linecap: square"/>
   </g>
   <g id="line2d_36">
    <path d="M 57.6 307.584 
L 88.343063 307.475869 
L 90.487928 307.215173 
L 91.917838 306.823287 
L 92.99027 306.331399 
L 94.062703 305.592262 
L 95.135135 304.51832 
L 96.207568 303.006273 
L 97.28 300.939346 
L 98.352432 298.191284 
L 99.424865 294.631985 
L 100.497297 290.134518 
L 101.56973 284.583076 
L 102.642162 277.881286 
L 103.714595 269.960228 
L 105.144505 257.448418 
L 106.574414 242.743415 
L 108.361802 221.549933 
L 110.506667 192.870718 
L 117.298739 98.692002 
L 118.728649 82.375758 
L 120.158559 68.443252 
L 121.230991 59.766385 
L 122.303423 52.722863 
L 123.375856 47.374166 
L 124.090811 44.763429 
L 124.805766 42.915925 
L 125.520721 41.823528 
L 125.878198 41.55627 
L 126.235676 41.472 
L 126.593153 41.568068 
L 126.950631 41.841507 
L 127.665586 42.907168 
L 128.380541 44.639639 
L 129.095495 47.005711 
L 130.167928 51.662314 
L 131.24036 57.528192 
L 132.67027 66.982986 
L 134.10018 77.983051 
L 135.887568 93.373012 
L 138.747387 120.26866 
L 144.467027 174.632389 
L 146.969369 196.18976 
L 149.114234 212.944239 
L 151.259099 227.94646 
L 153.046486 239.080228 
L 154.833874 248.993115 
L 156.621261 257.737872 
L 158.408649 265.387721 
L 160.196036 272.028777 
L 161.983423 277.753901 
L 163.770811 282.657878 
L 165.558198 286.833817 
L 167.345586 290.370579 
L 169.132973 293.351068 
L 170.92036 295.851224 
L 172.707748 297.939546 
L 174.495135 299.677019 
L 176.282523 301.117337 
L 178.06991 302.307307 
L 180.214775 303.46136 
L 182.35964 304.371944 
L 184.861982 305.190998 
L 187.721802 305.881026 
L 190.939099 306.42741 
L 194.871351 306.866919 
L 199.876036 307.196362 
L 207.025586 307.424561 
L 218.822342 307.547722 
L 251.352793 307.583388 
L 414.72 307.584 
L 414.72 307.584 
" clip-path="url(#p238b61e427)" style="fill: none; stroke: #8c564b; stroke-width: 1.5; stroke-linecap: square"/>
   </g>
   <g id="patch_3">
    <path d="M 57.6 307.584 
L 57.6 41.472 
" style="fill: none; stroke: #000000; stroke-width: 0.8; stroke-linejoin: miter; stroke-linecap: square"/>
   </g>
   <g id="patch_4">
    <path d="M 414.72 307.584 
L 414.72 41.472 
" style="fill: none; stroke: #000000; stroke-width: 0.8; stroke-linejoin: miter; stroke-linecap: square"/>
   </g>
   <g id="patch_5">
    <path d="M 57.6 307.584 
L 414.72 307.584 
" style="fill: none; stroke: #000000; stroke-width: 0.8; stroke-linejoin: miter; stroke-linecap: square"/>
   </g>
   <g id="patch_6">
    <path d="M 57.6 41.472 
L 414.72 41.472 
" style="fill: none; stroke: #000000; stroke-width: 0.8; stroke-linejoin: miter; stroke-linecap: square"/>
   </g>
   <g id="text_18">
    <!-- F-distribution -->
    <g transform="translate(196.352812 35.472) scale(0.12 -0.12)">
     <defs>
      <path id="DejaVuSans-75" d="M 544 1381 
L 544 3500 
L 1119 3500 
L 1119 1403 
Q 1119 906 1312 657 
Q 1506 409 1894 409 
Q 2359 409 2629 706 
Q 2900 1003 2900 1516 
L 2900 3500 
L 3475 3500 
L 3475 0 
L 2900 0 
L 2900 538 
Q 2691 219 2414 64 
Q 2138 -91 1772 -91 
Q 1169 -91 856 284 
Q 544 659 544 1381 
z
M 1991 3584 
L 1991 3584 
z
" transform="scale(0.015625)"/>
     </defs>
     <use xlink:href="#DejaVuSans-46"/>
     <use xlink:href="#DejaVuSans-2d" x="57.519531"/>
     <use xlink:href="#DejaVuSans-64" x="93.603516"/>
     <use xlink:href="#DejaVuSans-69" x="157.080078"/>
     <use xlink:href="#DejaVuSans-73" x="184.863281"/>
     <use xlink:href="#DejaVuSans-74" x="236.962891"/>
     <use xlink:href="#DejaVuSans-72" x="276.171875"/>
     <use xlink:href="#DejaVuSans-69" x="317.285156"/>
     <use xlink:href="#DejaVuSans-62" x="345.068359"/>
     <use xlink:href="#DejaVuSans-75" x="408.544922"/>
     <use xlink:href="#DejaVuSans-74" x="471.923828"/>
     <use xlink:href="#DejaVuSans-69" x="511.132812"/>
     <use xlink:href="#DejaVuSans-6f" x="538.916016"/>
     <use xlink:href="#DejaVuSans-6e" x="600.097656"/>
    </g>
   </g>
   <g id="legend_1">
    <g id="patch_7">
     <path d="M 285.63875 137.54075 
L 407.72 137.54075 
Q 409.72 137.54075 409.72 135.54075 
L 409.72 48.472 
Q 409.72 46.472 407.72 46.472 
L 285.63875 46.472 
Q 283.63875 46.472 283.63875 48.472 
L 283.63875 135.54075 
Q 283.63875 137.54075 285.63875 137.54075 
z
" style="fill: #ffffff; opacity: 0.8; stroke: #cccccc; stroke-linejoin: miter"/>
    </g>
    <g id="line2d_37">
     <path d="M 287.63875 54.570438 
L 297.63875 54.570438 
L 307.63875 54.570438 
" style="fill: none; stroke: #1f77b4; stroke-width: 1.5; stroke-linecap: square"/>
    </g>
    <g id="text_19">
     <!-- m = 1, n = 1 -->
     <g transform="translate(315.63875 58.070438) scale(0.1 -0.1)">
      <defs>
       <path id="DejaVuSans-6d" d="M 3328 2828 
Q 3544 3216 3844 3400 
Q 4144 3584 4550 3584 
Q 5097 3584 5394 3201 
Q 5691 2819 5691 2113 
L 5691 0 
L 5113 0 
L 5113 2094 
Q 5113 2597 4934 2840 
Q 4756 3084 4391 3084 
Q 3944 3084 3684 2787 
Q 3425 2491 3425 1978 
L 3425 0 
L 2847 0 
L 2847 2094 
Q 2847 2600 2669 2842 
Q 2491 3084 2119 3084 
Q 1678 3084 1418 2786 
Q 1159 2488 1159 1978 
L 1159 0 
L 581 0 
L 581 3500 
L 1159 3500 
L 1159 2956 
Q 1356 3278 1631 3431 
Q 1906 3584 2284 3584 
Q 2666 3584 2933 3390 
Q 3200 3197 3328 2828 
z
" transform="scale(0.015625)"/>
       <path id="DejaVuSans-3d" d="M 678 2906 
L 4684 2906 
L 4684 2381 
L 678 2381 
L 678 2906 
z
M 678 1631 
L 4684 1631 
L 4684 1100 
L 678 1100 
L 678 1631 
z
" transform="scale(0.015625)"/>
       <path id="DejaVuSans-2c" d="M 750 794 
L 1409 794 
L 1409 256 
L 897 -744 
L 494 -744 
L 750 256 
L 750 794 
z
" transform="scale(0.015625)"/>
      </defs>
      <use xlink:href="#DejaVuSans-6d"/>
      <use xlink:href="#DejaVuSans-20" x="97.412109"/>
      <use xlink:href="#DejaVuSans-3d" x="129.199219"/>
      <use xlink:href="#DejaVuSans-20" x="212.988281"/>
      <use xlink:href="#DejaVuSans-31" x="244.775391"/>
      <use xlink:href="#DejaVuSans-2c" x="308.398438"/>
      <use xlink:href="#DejaVuSans-20" x="340.185547"/>
      <use xlink:href="#DejaVuSans-6e" x="371.972656"/>
      <use xlink:href="#DejaVuSans-20" x="435.351562"/>
      <use xlink:href="#DejaVuSans-3d" x="467.138672"/>
      <use xlink:href="#DejaVuSans-20" x="550.927734"/>
      <use xlink:href="#DejaVuSans-31" x="582.714844"/>
     </g>
    </g>
    <g id="line2d_38">
     <path d="M 287.63875 69.248563 
L 297.63875 69.248563 
L 307.63875 69.248563 
" style="fill: none; stroke: #ff7f0e; stroke-width: 1.5; stroke-linecap: square"/>
    </g>
    <g id="text_20">
     <!-- m = 2, n = 1 -->
     <g transform="translate(315.63875 72.748563) scale(0.1 -0.1)">
      <use xlink:href="#DejaVuSans-6d"/>
      <use xlink:href="#DejaVuSans-20" x="97.412109"/>
      <use xlink:href="#DejaVuSans-3d" x="129.199219"/>
      <use xlink:href="#DejaVuSans-20" x="212.988281"/>
      <use xlink:href="#DejaVuSans-32" x="244.775391"/>
      <use xlink:href="#DejaVuSans-2c" x="308.398438"/>
      <use xlink:href="#DejaVuSans-20" x="340.185547"/>
      <use xlink:href="#DejaVuSans-6e" x="371.972656"/>
      <use xlink:href="#DejaVuSans-20" x="435.351562"/>
      <use xlink:href="#DejaVuSans-3d" x="467.138672"/>
      <use xlink:href="#DejaVuSans-20" x="550.927734"/>
      <use xlink:href="#DejaVuSans-31" x="582.714844"/>
     </g>
    </g>
    <g id="line2d_39">
     <path d="M 287.63875 83.926688 
L 297.63875 83.926688 
L 307.63875 83.926688 
" style="fill: none; stroke: #2ca02c; stroke-width: 1.5; stroke-linecap: square"/>
    </g>
    <g id="text_21">
     <!-- m = 3, n = 1 -->
     <g transform="translate(315.63875 87.426688) scale(0.1 -0.1)">
      <use xlink:href="#DejaVuSans-6d"/>
      <use xlink:href="#DejaVuSans-20" x="97.412109"/>
      <use xlink:href="#DejaVuSans-3d" x="129.199219"/>
      <use xlink:href="#DejaVuSans-20" x="212.988281"/>
      <use xlink:href="#DejaVuSans-33" x="244.775391"/>
      <use xlink:href="#DejaVuSans-2c" x="308.398438"/>
      <use xlink:href="#DejaVuSans-20" x="340.185547"/>
      <use xlink:href="#DejaVuSans-6e" x="371.972656"/>
      <use xlink:href="#DejaVuSans-20" x="435.351562"/>
      <use xlink:href="#DejaVuSans-3d" x="467.138672"/>
      <use xlink:href="#DejaVuSans-20" x="550.927734"/>
      <use xlink:href="#DejaVuSans-31" x="582.714844"/>
     </g>
    </g>
    <g id="line2d_40">
     <path d="M 287.63875 98.604813 
L 297.63875 98.604813 
L 307.63875 98.604813 
" style="fill: none; stroke: #d62728; stroke-width: 1.5; stroke-linecap: square"/>
    </g>
    <g id="text_22">
     <!-- m = 10, n = 1 -->
     <g transform="translate(315.63875 102.104813) scale(0.1 -0.1)">
      <use xlink:href="#DejaVuSans-6d"/>
      <use xlink:href="#DejaVuSans-20" x="97.412109"/>
      <use xlink:href="#DejaVuSans-3d" x="129.199219"/>
      <use xlink:href="#DejaVuSans-20" x="212.988281"/>
      <use xlink:href="#DejaVuSans-31" x="244.775391"/>
      <use xlink:href="#DejaVuSans-30" x="308.398438"/>
      <use xlink:href="#DejaVuSans-2c" x="372.021484"/>
      <use xlink:href="#DejaVuSans-20" x="403.808594"/>
      <use xlink:href="#DejaVuSans-6e" x="435.595703"/>
      <use xlink:href="#DejaVuSans-20" x="498.974609"/>
      <use xlink:href="#DejaVuSans-3d" x="530.761719"/>
      <use xlink:href="#DejaVuSans-20" x="614.550781"/>
      <use xlink:href="#DejaVuSans-31" x="646.337891"/>
     </g>
    </g>
    <g id="line2d_41">
     <path d="M 287.63875 113.282938 
L 297.63875 113.282938 
L 307.63875 113.282938 
" style="fill: none; stroke: #9467bd; stroke-width: 1.5; stroke-linecap: square"/>
    </g>
    <g id="text_23">
     <!-- m = 10, n = 10 -->
     <g transform="translate(315.63875 116.782938) scale(0.1 -0.1)">
      <use xlink:href="#DejaVuSans-6d"/>
      <use xlink:href="#DejaVuSans-20" x="97.412109"/>
      <use xlink:href="#DejaVuSans-3d" x="129.199219"/>
      <use xlink:href="#DejaVuSans-20" x="212.988281"/>
      <use xlink:href="#DejaVuSans-31" x="244.775391"/>
      <use xlink:href="#DejaVuSans-30" x="308.398438"/>
      <use xlink:href="#DejaVuSans-2c" x="372.021484"/>
      <use xlink:href="#DejaVuSans-20" x="403.808594"/>
      <use xlink:href="#DejaVuSans-6e" x="435.595703"/>
      <use xlink:href="#DejaVuSans-20" x="498.974609"/>
      <use xlink:href="#DejaVuSans-3d" x="530.761719"/>
      <use xlink:href="#DejaVuSans-20" x="614.550781"/>
      <use xlink:href="#DejaVuSans-31" x="646.337891"/>
      <use xlink:href="#DejaVuSans-30" x="709.960938"/>
     </g>
    </g>
    <g id="line2d_42">
     <path d="M 287.63875 127.961063 
L 297.63875 127.961063 
L 307.63875 127.961063 
" style="fill: none; stroke: #8c564b; stroke-width: 1.5; stroke-linecap: square"/>
    </g>
    <g id="text_24">
     <!-- m = 100, n = 100 -->
     <g transform="translate(315.63875 131.461063) scale(0.1 -0.1)">
      <use xlink:href="#DejaVuSans-6d"/>
      <use xlink:href="#DejaVuSans-20" x="97.412109"/>
      <use xlink:href="#DejaVuSans-3d" x="129.199219"/>
      <use xlink:href="#DejaVuSans-20" x="212.988281"/>
      <use xlink:href="#DejaVuSans-31" x="244.775391"/>
      <use xlink:href="#DejaVuSans-30" x="308.398438"/>
      <use xlink:href="#DejaVuSans-30" x="372.021484"/>
      <use xlink:href="#DejaVuSans-2c" x="435.644531"/>
      <use xlink:href="#DejaVuSans-20" x="467.431641"/>
      <use xlink:href="#DejaVuSans-6e" x="499.21875"/>
      <use xlink:href="#DejaVuSans-20" x="562.597656"/>
      <use xlink:href="#DejaVuSans-3d" x="594.384766"/>
      <use xlink:href="#DejaVuSans-20" x="678.173828"/>
      <use xlink:href="#DejaVuSans-31" x="709.960938"/>
      <use xlink:href="#DejaVuSans-30" x="773.583984"/>
      <use xlink:href="#DejaVuSans-30" x="837.207031"/>
     </g>
    </g>
   </g>
  </g>
 </g>
 <defs>
  <clipPath id="p238b61e427">
   <rect x="57.6" y="41.472" width="357.12" height="266.112"/>
  </clipPath>
 </defs>
</svg>
