<?xml version="1.0" encoding="utf-8" standalone="no"?>
<!DOCTYPE svg PUBLIC "-//W3C//DTD SVG 1.1//EN"
  "http://www.w3.org/Graphics/SVG/1.1/DTD/svg11.dtd">
<svg xmlns:xlink="http://www.w3.org/1999/xlink" width="460.8pt" height="345.6pt" viewBox="0 0 460.8 345.6" xmlns="http://www.w3.org/2000/svg" version="1.1">
 <metadata>
  <rdf:RDF xmlns:dc="http://purl.org/dc/elements/1.1/" xmlns:cc="http://creativecommons.org/ns#" xmlns:rdf="http://www.w3.org/1999/02/22-rdf-syntax-ns#">
   <cc:Work>
    <dc:type rdf:resource="http://purl.org/dc/dcmitype/StillImage"/>
    <dc:date>2024-05-03T20:15:43.602805</dc:date>
    <dc:format>image/svg+xml</dc:format>
    <dc:creator>
     <cc:Agent>
      <dc:title>Matplotlib v3.8.4, https://matplotlib.org/</dc:title>
     </cc:Agent>
    </dc:creator>
   </cc:Work>
  </rdf:RDF>
 </metadata>
 <defs>
  <style type="text/css">*{stroke-linejoin: round; stroke-linecap: butt}</style>
 </defs>
 <g id="figure_1">
  <g id="patch_1">
   <path d="M 0 345.6 
L 460.8 345.6 
L 460.8 0 
L 0 0 
z
" style="fill: #ffffff"/>
  </g>
  <g id="axes_1">
   <g id="patch_2">
    <path d="M 57.6 307.584 
L 414.72 307.584 
L 414.72 41.472 
L 57.6 41.472 
z
" style="fill: #ffffff"/>
   </g>
   <g id="matplotlib.axis_1">
    <g id="xtick_1">
     <g id="line2d_1">
      <path d="M 57.6 307.584 
L 57.6 41.472 
" clip-path="url(#pa404952ee5)" style="fill: none; stroke: #b0b0b0; stroke-width: 0.8; stroke-linecap: square"/>
     </g>
     <g id="line2d_2">
      <defs>
       <path id="m853bdfbcc3" d="M 0 0 
L 0 3.5 
" style="stroke: #000000; stroke-width: 0.8"/>
      </defs>
      <g>
       <use xlink:href="#m853bdfbcc3" x="57.6" y="307.584" style="stroke: #000000; stroke-width: 0.8"/>
      </g>
     </g>
     <g id="text_1">
      <!-- 0 -->
      <g transform="translate(54.41875 322.182437) scale(0.1 -0.1)">
       <defs>
        <path id="DejaVuSans-30" d="M 2034 4250 
Q 1547 4250 1301 3770 
Q 1056 3291 1056 2328 
Q 1056 1369 1301 889 
Q 1547 409 2034 409 
Q 2525 409 2770 889 
Q 3016 1369 3016 2328 
Q 3016 3291 2770 3770 
Q 2525 4250 2034 4250 
z
M 2034 4750 
Q 2819 4750 3233 4129 
Q 3647 3509 3647 2328 
Q 3647 1150 3233 529 
Q 2819 -91 2034 -91 
Q 1250 -91 836 529 
Q 422 1150 422 2328 
Q 422 3509 836 4129 
Q 1250 4750 2034 4750 
z
" transform="scale(0.015625)"/>
       </defs>
       <use xlink:href="#DejaVuSans-30"/>
      </g>
     </g>
    </g>
    <g id="xtick_2">
     <g id="line2d_3">
      <path d="M 129.024 307.584 
L 129.024 41.472 
" clip-path="url(#pa404952ee5)" style="fill: none; stroke: #b0b0b0; stroke-width: 0.8; stroke-linecap: square"/>
     </g>
     <g id="line2d_4">
      <g>
       <use xlink:href="#m853bdfbcc3" x="129.024" y="307.584" style="stroke: #000000; stroke-width: 0.8"/>
      </g>
     </g>
     <g id="text_2">
      <!-- 1 -->
      <g transform="translate(125.84275 322.182437) scale(0.1 -0.1)">
       <defs>
        <path id="DejaVuSans-31" d="M 794 531 
L 1825 531 
L 1825 4091 
L 703 3866 
L 703 4441 
L 1819 4666 
L 2450 4666 
L 2450 531 
L 3481 531 
L 3481 0 
L 794 0 
L 794 531 
z
" transform="scale(0.015625)"/>
       </defs>
       <use xlink:href="#DejaVuSans-31"/>
      </g>
     </g>
    </g>
    <g id="xtick_3">
     <g id="line2d_5">
      <path d="M 200.448 307.584 
L 200.448 41.472 
" clip-path="url(#pa404952ee5)" style="fill: none; stroke: #b0b0b0; stroke-width: 0.8; stroke-linecap: square"/>
     </g>
     <g id="line2d_6">
      <g>
       <use xlink:href="#m853bdfbcc3" x="200.448" y="307.584" style="stroke: #000000; stroke-width: 0.8"/>
      </g>
     </g>
     <g id="text_3">
      <!-- 2 -->
      <g transform="translate(197.26675 322.182437) scale(0.1 -0.1)">
       <defs>
        <path id="DejaVuSans-32" d="M 1228 531 
L 3431 531 
L 3431 0 
L 469 0 
L 469 531 
Q 828 903 1448 1529 
Q 2069 2156 2228 2338 
Q 2531 2678 2651 2914 
Q 2772 3150 2772 3378 
Q 2772 3750 2511 3984 
Q 2250 4219 1831 4219 
Q 1534 4219 1204 4116 
Q 875 4013 500 3803 
L 500 4441 
Q 881 4594 1212 4672 
Q 1544 4750 1819 4750 
Q 2544 4750 2975 4387 
Q 3406 4025 3406 3419 
Q 3406 3131 3298 2873 
Q 3191 2616 2906 2266 
Q 2828 2175 2409 1742 
Q 1991 1309 1228 531 
z
" transform="scale(0.015625)"/>
       </defs>
       <use xlink:href="#DejaVuSans-32"/>
      </g>
     </g>
    </g>
    <g id="xtick_4">
     <g id="line2d_7">
      <path d="M 271.872 307.584 
L 271.872 41.472 
" clip-path="url(#pa404952ee5)" style="fill: none; stroke: #b0b0b0; stroke-width: 0.8; stroke-linecap: square"/>
     </g>
     <g id="line2d_8">
      <g>
       <use xlink:href="#m853bdfbcc3" x="271.872" y="307.584" style="stroke: #000000; stroke-width: 0.8"/>
      </g>
     </g>
     <g id="text_4">
      <!-- 3 -->
      <g transform="translate(268.69075 322.182437) scale(0.1 -0.1)">
       <defs>
        <path id="DejaVuSans-33" d="M 2597 2516 
Q 3050 2419 3304 2112 
Q 3559 1806 3559 1356 
Q 3559 666 3084 287 
Q 2609 -91 1734 -91 
Q 1441 -91 1130 -33 
Q 819 25 488 141 
L 488 750 
Q 750 597 1062 519 
Q 1375 441 1716 441 
Q 2309 441 2620 675 
Q 2931 909 2931 1356 
Q 2931 1769 2642 2001 
Q 2353 2234 1838 2234 
L 1294 2234 
L 1294 2753 
L 1863 2753 
Q 2328 2753 2575 2939 
Q 2822 3125 2822 3475 
Q 2822 3834 2567 4026 
Q 2313 4219 1838 4219 
Q 1578 4219 1281 4162 
Q 984 4106 628 3988 
L 628 4550 
Q 988 4650 1302 4700 
Q 1616 4750 1894 4750 
Q 2613 4750 3031 4423 
Q 3450 4097 3450 3541 
Q 3450 3153 3228 2886 
Q 3006 2619 2597 2516 
z
" transform="scale(0.015625)"/>
       </defs>
       <use xlink:href="#DejaVuSans-33"/>
      </g>
     </g>
    </g>
    <g id="xtick_5">
     <g id="line2d_9">
      <path d="M 343.296 307.584 
L 343.296 41.472 
" clip-path="url(#pa404952ee5)" style="fill: none; stroke: #b0b0b0; stroke-width: 0.8; stroke-linecap: square"/>
     </g>
     <g id="line2d_10">
      <g>
       <use xlink:href="#m853bdfbcc3" x="343.296" y="307.584" style="stroke: #000000; stroke-width: 0.8"/>
      </g>
     </g>
     <g id="text_5">
      <!-- 4 -->
      <g transform="translate(340.11475 322.182437) scale(0.1 -0.1)">
       <defs>
        <path id="DejaVuSans-34" d="M 2419 4116 
L 825 1625 
L 2419 1625 
L 2419 4116 
z
M 2253 4666 
L 3047 4666 
L 3047 1625 
L 3713 1625 
L 3713 1100 
L 3047 1100 
L 3047 0 
L 2419 0 
L 2419 1100 
L 313 1100 
L 313 1709 
L 2253 4666 
z
" transform="scale(0.015625)"/>
       </defs>
       <use xlink:href="#DejaVuSans-34"/>
      </g>
     </g>
    </g>
    <g id="xtick_6">
     <g id="line2d_11">
      <path d="M 414.72 307.584 
L 414.72 41.472 
" clip-path="url(#pa404952ee5)" style="fill: none; stroke: #b0b0b0; stroke-width: 0.8; stroke-linecap: square"/>
     </g>
     <g id="line2d_12">
      <g>
       <use xlink:href="#m853bdfbcc3" x="414.72" y="307.584" style="stroke: #000000; stroke-width: 0.8"/>
      </g>
     </g>
     <g id="text_6">
      <!-- 5 -->
      <g transform="translate(411.53875 322.182437) scale(0.1 -0.1)">
       <defs>
        <path id="DejaVuSans-35" d="M 691 4666 
L 3169 4666 
L 3169 4134 
L 1269 4134 
L 1269 2991 
Q 1406 3038 1543 3061 
Q 1681 3084 1819 3084 
Q 2600 3084 3056 2656 
Q 3513 2228 3513 1497 
Q 3513 744 3044 326 
Q 2575 -91 1722 -91 
Q 1428 -91 1123 -41 
Q 819 9 494 109 
L 494 744 
Q 775 591 1075 516 
Q 1375 441 1709 441 
Q 2250 441 2565 725 
Q 2881 1009 2881 1497 
Q 2881 1984 2565 2268 
Q 2250 2553 1709 2553 
Q 1456 2553 1204 2497 
Q 953 2441 691 2322 
L 691 4666 
z
" transform="scale(0.015625)"/>
       </defs>
       <use xlink:href="#DejaVuSans-35"/>
      </g>
     </g>
    </g>
    <g id="text_7">
     <!-- x -->
     <g transform="translate(233.200625 335.860562) scale(0.1 -0.1)">
      <defs>
       <path id="DejaVuSans-78" d="M 3513 3500 
L 2247 1797 
L 3578 0 
L 2900 0 
L 1881 1375 
L 863 0 
L 184 0 
L 1544 1831 
L 300 3500 
L 978 3500 
L 1906 2253 
L 2834 3500 
L 3513 3500 
z
" transform="scale(0.015625)"/>
      </defs>
      <use xlink:href="#DejaVuSans-78"/>
     </g>
    </g>
   </g>
   <g id="matplotlib.axis_2">
    <g id="ytick_1">
     <g id="line2d_13">
      <path d="M 57.6 307.584 
L 414.72 307.584 
" clip-path="url(#pa404952ee5)" style="fill: none; stroke: #b0b0b0; stroke-width: 0.8; stroke-linecap: square"/>
     </g>
     <g id="line2d_14">
      <defs>
       <path id="m26c0b29c8b" d="M 0 0 
L -3.5 0 
" style="stroke: #000000; stroke-width: 0.8"/>
      </defs>
      <g>
       <use xlink:href="#m26c0b29c8b" x="57.6" y="307.584" style="stroke: #000000; stroke-width: 0.8"/>
      </g>
     </g>
     <g id="text_8">
      <!-- 0.0 -->
      <g transform="translate(34.696875 311.383219) scale(0.1 -0.1)">
       <defs>
        <path id="DejaVuSans-2e" d="M 684 794 
L 1344 794 
L 1344 0 
L 684 0 
L 684 794 
z
" transform="scale(0.015625)"/>
       </defs>
       <use xlink:href="#DejaVuSans-30"/>
       <use xlink:href="#DejaVuSans-2e" x="63.623047"/>
       <use xlink:href="#DejaVuSans-30" x="95.410156"/>
      </g>
     </g>
    </g>
    <g id="ytick_2">
     <g id="line2d_15">
      <path d="M 57.6 270.00334 
L 414.72 270.00334 
" clip-path="url(#pa404952ee5)" style="fill: none; stroke: #b0b0b0; stroke-width: 0.8; stroke-linecap: square"/>
     </g>
     <g id="line2d_16">
      <g>
       <use xlink:href="#m26c0b29c8b" x="57.6" y="270.00334" style="stroke: #000000; stroke-width: 0.8"/>
      </g>
     </g>
     <g id="text_9">
      <!-- 0.2 -->
      <g transform="translate(34.696875 273.802559) scale(0.1 -0.1)">
       <use xlink:href="#DejaVuSans-30"/>
       <use xlink:href="#DejaVuSans-2e" x="63.623047"/>
       <use xlink:href="#DejaVuSans-32" x="95.410156"/>
      </g>
     </g>
    </g>
    <g id="ytick_3">
     <g id="line2d_17">
      <path d="M 57.6 232.422681 
L 414.72 232.422681 
" clip-path="url(#pa404952ee5)" style="fill: none; stroke: #b0b0b0; stroke-width: 0.8; stroke-linecap: square"/>
     </g>
     <g id="line2d_18">
      <g>
       <use xlink:href="#m26c0b29c8b" x="57.6" y="232.422681" style="stroke: #000000; stroke-width: 0.8"/>
      </g>
     </g>
     <g id="text_10">
      <!-- 0.4 -->
      <g transform="translate(34.696875 236.2219) scale(0.1 -0.1)">
       <use xlink:href="#DejaVuSans-30"/>
       <use xlink:href="#DejaVuSans-2e" x="63.623047"/>
       <use xlink:href="#DejaVuSans-34" x="95.410156"/>
      </g>
     </g>
    </g>
    <g id="ytick_4">
     <g id="line2d_19">
      <path d="M 57.6 194.842021 
L 414.72 194.842021 
" clip-path="url(#pa404952ee5)" style="fill: none; stroke: #b0b0b0; stroke-width: 0.8; stroke-linecap: square"/>
     </g>
     <g id="line2d_20">
      <g>
       <use xlink:href="#m26c0b29c8b" x="57.6" y="194.842021" style="stroke: #000000; stroke-width: 0.8"/>
      </g>
     </g>
     <g id="text_11">
      <!-- 0.6 -->
      <g transform="translate(34.696875 198.64124) scale(0.1 -0.1)">
       <defs>
        <path id="DejaVuSans-36" d="M 2113 2584 
Q 1688 2584 1439 2293 
Q 1191 2003 1191 1497 
Q 1191 994 1439 701 
Q 1688 409 2113 409 
Q 2538 409 2786 701 
Q 3034 994 3034 1497 
Q 3034 2003 2786 2293 
Q 2538 2584 2113 2584 
z
M 3366 4563 
L 3366 3988 
Q 3128 4100 2886 4159 
Q 2644 4219 2406 4219 
Q 1781 4219 1451 3797 
Q 1122 3375 1075 2522 
Q 1259 2794 1537 2939 
Q 1816 3084 2150 3084 
Q 2853 3084 3261 2657 
Q 3669 2231 3669 1497 
Q 3669 778 3244 343 
Q 2819 -91 2113 -91 
Q 1303 -91 875 529 
Q 447 1150 447 2328 
Q 447 3434 972 4092 
Q 1497 4750 2381 4750 
Q 2619 4750 2861 4703 
Q 3103 4656 3366 4563 
z
" transform="scale(0.015625)"/>
       </defs>
       <use xlink:href="#DejaVuSans-30"/>
       <use xlink:href="#DejaVuSans-2e" x="63.623047"/>
       <use xlink:href="#DejaVuSans-36" x="95.410156"/>
      </g>
     </g>
    </g>
    <g id="ytick_5">
     <g id="line2d_21">
      <path d="M 57.6 157.261362 
L 414.72 157.261362 
" clip-path="url(#pa404952ee5)" style="fill: none; stroke: #b0b0b0; stroke-width: 0.8; stroke-linecap: square"/>
     </g>
     <g id="line2d_22">
      <g>
       <use xlink:href="#m26c0b29c8b" x="57.6" y="157.261362" style="stroke: #000000; stroke-width: 0.8"/>
      </g>
     </g>
     <g id="text_12">
      <!-- 0.8 -->
      <g transform="translate(34.696875 161.060581) scale(0.1 -0.1)">
       <defs>
        <path id="DejaVuSans-38" d="M 2034 2216 
Q 1584 2216 1326 1975 
Q 1069 1734 1069 1313 
Q 1069 891 1326 650 
Q 1584 409 2034 409 
Q 2484 409 2743 651 
Q 3003 894 3003 1313 
Q 3003 1734 2745 1975 
Q 2488 2216 2034 2216 
z
M 1403 2484 
Q 997 2584 770 2862 
Q 544 3141 544 3541 
Q 544 4100 942 4425 
Q 1341 4750 2034 4750 
Q 2731 4750 3128 4425 
Q 3525 4100 3525 3541 
Q 3525 3141 3298 2862 
Q 3072 2584 2669 2484 
Q 3125 2378 3379 2068 
Q 3634 1759 3634 1313 
Q 3634 634 3220 271 
Q 2806 -91 2034 -91 
Q 1263 -91 848 271 
Q 434 634 434 1313 
Q 434 1759 690 2068 
Q 947 2378 1403 2484 
z
M 1172 3481 
Q 1172 3119 1398 2916 
Q 1625 2713 2034 2713 
Q 2441 2713 2670 2916 
Q 2900 3119 2900 3481 
Q 2900 3844 2670 4047 
Q 2441 4250 2034 4250 
Q 1625 4250 1398 4047 
Q 1172 3844 1172 3481 
z
" transform="scale(0.015625)"/>
       </defs>
       <use xlink:href="#DejaVuSans-30"/>
       <use xlink:href="#DejaVuSans-2e" x="63.623047"/>
       <use xlink:href="#DejaVuSans-38" x="95.410156"/>
      </g>
     </g>
    </g>
    <g id="ytick_6">
     <g id="line2d_23">
      <path d="M 57.6 119.680702 
L 414.72 119.680702 
" clip-path="url(#pa404952ee5)" style="fill: none; stroke: #b0b0b0; stroke-width: 0.8; stroke-linecap: square"/>
     </g>
     <g id="line2d_24">
      <g>
       <use xlink:href="#m26c0b29c8b" x="57.6" y="119.680702" style="stroke: #000000; stroke-width: 0.8"/>
      </g>
     </g>
     <g id="text_13">
      <!-- 1.0 -->
      <g transform="translate(34.696875 123.479921) scale(0.1 -0.1)">
       <use xlink:href="#DejaVuSans-31"/>
       <use xlink:href="#DejaVuSans-2e" x="63.623047"/>
       <use xlink:href="#DejaVuSans-30" x="95.410156"/>
      </g>
     </g>
    </g>
    <g id="ytick_7">
     <g id="line2d_25">
      <path d="M 57.6 82.100043 
L 414.72 82.100043 
" clip-path="url(#pa404952ee5)" style="fill: none; stroke: #b0b0b0; stroke-width: 0.8; stroke-linecap: square"/>
     </g>
     <g id="line2d_26">
      <g>
       <use xlink:href="#m26c0b29c8b" x="57.6" y="82.100043" style="stroke: #000000; stroke-width: 0.8"/>
      </g>
     </g>
     <g id="text_14">
      <!-- 1.2 -->
      <g transform="translate(34.696875 85.899261) scale(0.1 -0.1)">
       <use xlink:href="#DejaVuSans-31"/>
       <use xlink:href="#DejaVuSans-2e" x="63.623047"/>
       <use xlink:href="#DejaVuSans-32" x="95.410156"/>
      </g>
     </g>
    </g>
    <g id="ytick_8">
     <g id="line2d_27">
      <path d="M 57.6 44.519383 
L 414.72 44.519383 
" clip-path="url(#pa404952ee5)" style="fill: none; stroke: #b0b0b0; stroke-width: 0.8; stroke-linecap: square"/>
     </g>
     <g id="line2d_28">
      <g>
       <use xlink:href="#m26c0b29c8b" x="57.6" y="44.519383" style="stroke: #000000; stroke-width: 0.8"/>
      </g>
     </g>
     <g id="text_15">
      <!-- 1.4 -->
      <g transform="translate(34.696875 48.318602) scale(0.1 -0.1)">
       <use xlink:href="#DejaVuSans-31"/>
       <use xlink:href="#DejaVuSans-2e" x="63.623047"/>
       <use xlink:href="#DejaVuSans-34" x="95.410156"/>
      </g>
     </g>
    </g>
    <g id="text_16">
     <!-- Probability density -->
     <g transform="translate(28.617187 220.878781) rotate(-90) scale(0.1 -0.1)">
      <defs>
       <path id="DejaVuSans-50" d="M 1259 4147 
L 1259 2394 
L 2053 2394 
Q 2494 2394 2734 2622 
Q 2975 2850 2975 3272 
Q 2975 3691 2734 3919 
Q 2494 4147 2053 4147 
L 1259 4147 
z
M 628 4666 
L 2053 4666 
Q 2838 4666 3239 4311 
Q 3641 3956 3641 3272 
Q 3641 2581 3239 2228 
Q 2838 1875 2053 1875 
L 1259 1875 
L 1259 0 
L 628 0 
L 628 4666 
z
" transform="scale(0.015625)"/>
       <path id="DejaVuSans-72" d="M 2631 2963 
Q 2534 3019 2420 3045 
Q 2306 3072 2169 3072 
Q 1681 3072 1420 2755 
Q 1159 2438 1159 1844 
L 1159 0 
L 581 0 
L 581 3500 
L 1159 3500 
L 1159 2956 
Q 1341 3275 1631 3429 
Q 1922 3584 2338 3584 
Q 2397 3584 2469 3576 
Q 2541 3569 2628 3553 
L 2631 2963 
z
" transform="scale(0.015625)"/>
       <path id="DejaVuSans-6f" d="M 1959 3097 
Q 1497 3097 1228 2736 
Q 959 2375 959 1747 
Q 959 1119 1226 758 
Q 1494 397 1959 397 
Q 2419 397 2687 759 
Q 2956 1122 2956 1747 
Q 2956 2369 2687 2733 
Q 2419 3097 1959 3097 
z
M 1959 3584 
Q 2709 3584 3137 3096 
Q 3566 2609 3566 1747 
Q 3566 888 3137 398 
Q 2709 -91 1959 -91 
Q 1206 -91 779 398 
Q 353 888 353 1747 
Q 353 2609 779 3096 
Q 1206 3584 1959 3584 
z
" transform="scale(0.015625)"/>
       <path id="DejaVuSans-62" d="M 3116 1747 
Q 3116 2381 2855 2742 
Q 2594 3103 2138 3103 
Q 1681 3103 1420 2742 
Q 1159 2381 1159 1747 
Q 1159 1113 1420 752 
Q 1681 391 2138 391 
Q 2594 391 2855 752 
Q 3116 1113 3116 1747 
z
M 1159 2969 
Q 1341 3281 1617 3432 
Q 1894 3584 2278 3584 
Q 2916 3584 3314 3078 
Q 3713 2572 3713 1747 
Q 3713 922 3314 415 
Q 2916 -91 2278 -91 
Q 1894 -91 1617 61 
Q 1341 213 1159 525 
L 1159 0 
L 581 0 
L 581 4863 
L 1159 4863 
L 1159 2969 
z
" transform="scale(0.015625)"/>
       <path id="DejaVuSans-61" d="M 2194 1759 
Q 1497 1759 1228 1600 
Q 959 1441 959 1056 
Q 959 750 1161 570 
Q 1363 391 1709 391 
Q 2188 391 2477 730 
Q 2766 1069 2766 1631 
L 2766 1759 
L 2194 1759 
z
M 3341 1997 
L 3341 0 
L 2766 0 
L 2766 531 
Q 2569 213 2275 61 
Q 1981 -91 1556 -91 
Q 1019 -91 701 211 
Q 384 513 384 1019 
Q 384 1609 779 1909 
Q 1175 2209 1959 2209 
L 2766 2209 
L 2766 2266 
Q 2766 2663 2505 2880 
Q 2244 3097 1772 3097 
Q 1472 3097 1187 3025 
Q 903 2953 641 2809 
L 641 3341 
Q 956 3463 1253 3523 
Q 1550 3584 1831 3584 
Q 2591 3584 2966 3190 
Q 3341 2797 3341 1997 
z
" transform="scale(0.015625)"/>
       <path id="DejaVuSans-69" d="M 603 3500 
L 1178 3500 
L 1178 0 
L 603 0 
L 603 3500 
z
M 603 4863 
L 1178 4863 
L 1178 4134 
L 603 4134 
L 603 4863 
z
" transform="scale(0.015625)"/>
       <path id="DejaVuSans-6c" d="M 603 4863 
L 1178 4863 
L 1178 0 
L 603 0 
L 603 4863 
z
" transform="scale(0.015625)"/>
       <path id="DejaVuSans-74" d="M 1172 4494 
L 1172 3500 
L 2356 3500 
L 2356 3053 
L 1172 3053 
L 1172 1153 
Q 1172 725 1289 603 
Q 1406 481 1766 481 
L 2356 481 
L 2356 0 
L 1766 0 
Q 1100 0 847 248 
Q 594 497 594 1153 
L 594 3053 
L 172 3053 
L 172 3500 
L 594 3500 
L 594 4494 
L 1172 4494 
z
" transform="scale(0.015625)"/>
       <path id="DejaVuSans-79" d="M 2059 -325 
Q 1816 -950 1584 -1140 
Q 1353 -1331 966 -1331 
L 506 -1331 
L 506 -850 
L 844 -850 
Q 1081 -850 1212 -737 
Q 1344 -625 1503 -206 
L 1606 56 
L 191 3500 
L 800 3500 
L 1894 763 
L 2988 3500 
L 3597 3500 
L 2059 -325 
z
" transform="scale(0.015625)"/>
       <path id="DejaVuSans-20" transform="scale(0.015625)"/>
       <path id="DejaVuSans-64" d="M 2906 2969 
L 2906 4863 
L 3481 4863 
L 3481 0 
L 2906 0 
L 2906 525 
Q 2725 213 2448 61 
Q 2172 -91 1784 -91 
Q 1150 -91 751 415 
Q 353 922 353 1747 
Q 353 2572 751 3078 
Q 1150 3584 1784 3584 
Q 2172 3584 2448 3432 
Q 2725 3281 2906 2969 
z
M 947 1747 
Q 947 1113 1208 752 
Q 1469 391 1925 391 
Q 2381 391 2643 752 
Q 2906 1113 2906 1747 
Q 2906 2381 2643 2742 
Q 2381 3103 1925 3103 
Q 1469 3103 1208 2742 
Q 947 2381 947 1747 
z
" transform="scale(0.015625)"/>
       <path id="DejaVuSans-65" d="M 3597 1894 
L 3597 1613 
L 953 1613 
Q 991 1019 1311 708 
Q 1631 397 2203 397 
Q 2534 397 2845 478 
Q 3156 559 3463 722 
L 3463 178 
Q 3153 47 2828 -22 
Q 2503 -91 2169 -91 
Q 1331 -91 842 396 
Q 353 884 353 1716 
Q 353 2575 817 3079 
Q 1281 3584 2069 3584 
Q 2775 3584 3186 3129 
Q 3597 2675 3597 1894 
z
M 3022 2063 
Q 3016 2534 2758 2815 
Q 2500 3097 2075 3097 
Q 1594 3097 1305 2825 
Q 1016 2553 972 2059 
L 3022 2063 
z
" transform="scale(0.015625)"/>
       <path id="DejaVuSans-6e" d="M 3513 2113 
L 3513 0 
L 2938 0 
L 2938 2094 
Q 2938 2591 2744 2837 
Q 2550 3084 2163 3084 
Q 1697 3084 1428 2787 
Q 1159 2491 1159 1978 
L 1159 0 
L 581 0 
L 581 3500 
L 1159 3500 
L 1159 2956 
Q 1366 3272 1645 3428 
Q 1925 3584 2291 3584 
Q 2894 3584 3203 3211 
Q 3513 2838 3513 2113 
z
" transform="scale(0.015625)"/>
       <path id="DejaVuSans-73" d="M 2834 3397 
L 2834 2853 
Q 2591 2978 2328 3040 
Q 2066 3103 1784 3103 
Q 1356 3103 1142 2972 
Q 928 2841 928 2578 
Q 928 2378 1081 2264 
Q 1234 2150 1697 2047 
L 1894 2003 
Q 2506 1872 2764 1633 
Q 3022 1394 3022 966 
Q 3022 478 2636 193 
Q 2250 -91 1575 -91 
Q 1294 -91 989 -36 
Q 684 19 347 128 
L 347 722 
Q 666 556 975 473 
Q 1284 391 1588 391 
Q 1994 391 2212 530 
Q 2431 669 2431 922 
Q 2431 1156 2273 1281 
Q 2116 1406 1581 1522 
L 1381 1569 
Q 847 1681 609 1914 
Q 372 2147 372 2553 
Q 372 3047 722 3315 
Q 1072 3584 1716 3584 
Q 2034 3584 2315 3537 
Q 2597 3491 2834 3397 
z
" transform="scale(0.015625)"/>
      </defs>
      <use xlink:href="#DejaVuSans-50"/>
      <use xlink:href="#DejaVuSans-72" x="58.552734"/>
      <use xlink:href="#DejaVuSans-6f" x="97.416016"/>
      <use xlink:href="#DejaVuSans-62" x="158.597656"/>
      <use xlink:href="#DejaVuSans-61" x="222.074219"/>
      <use xlink:href="#DejaVuSans-62" x="283.353516"/>
      <use xlink:href="#DejaVuSans-69" x="346.830078"/>
      <use xlink:href="#DejaVuSans-6c" x="374.613281"/>
      <use xlink:href="#DejaVuSans-69" x="402.396484"/>
      <use xlink:href="#DejaVuSans-74" x="430.179688"/>
      <use xlink:href="#DejaVuSans-79" x="469.388672"/>
      <use xlink:href="#DejaVuSans-20" x="528.568359"/>
      <use xlink:href="#DejaVuSans-64" x="560.355469"/>
      <use xlink:href="#DejaVuSans-65" x="623.832031"/>
      <use xlink:href="#DejaVuSans-6e" x="685.355469"/>
      <use xlink:href="#DejaVuSans-73" x="748.734375"/>
      <use xlink:href="#DejaVuSans-69" x="800.833984"/>
      <use xlink:href="#DejaVuSans-74" x="828.617188"/>
      <use xlink:href="#DejaVuSans-79" x="867.826172"/>
     </g>
    </g>
   </g>
   <g id="line2d_29">
    <path d="M 57.6 307.584 
L 63.31964 307.473431 
L 64.034595 307.234126 
L 64.74955 306.724069 
L 65.464505 305.821632 
L 66.179459 304.427532 
L 66.894414 302.481387 
L 67.609369 299.966579 
L 68.681802 295.18736 
L 69.754234 289.384947 
L 71.541622 278.202625 
L 76.188829 248.096509 
L 77.976216 238.231965 
L 79.406126 231.380787 
L 80.836036 225.483796 
L 82.265946 220.515427 
L 83.695856 216.420372 
L 85.125766 213.126958 
L 86.198198 211.135622 
L 87.270631 209.516986 
L 88.343063 208.237794 
L 89.415495 207.266051 
L 90.487928 206.571436 
L 91.56036 206.125534 
L 92.632793 205.901957 
L 93.705225 205.876369 
L 95.135135 206.111955 
L 96.565045 206.61254 
L 97.994955 207.336316 
L 99.782342 208.499641 
L 101.927207 210.195539 
L 104.42955 212.479556 
L 107.646847 215.736142 
L 112.651532 221.161039 
L 122.303423 231.662514 
L 127.665586 237.13112 
L 132.312793 241.56703 
L 136.96 245.703418 
L 141.607207 249.54139 
L 146.254414 253.091747 
L 150.901622 256.370502 
L 155.906306 259.618906 
L 160.910991 262.597685 
L 166.273153 265.516775 
L 171.635315 268.180813 
L 177.354955 270.769852 
L 183.432072 273.265478 
L 189.866667 275.653707 
L 196.658739 277.924638 
L 203.808288 280.071999 
L 211.315315 282.092639 
L 219.537297 284.067146 
L 228.116757 285.898143 
L 237.411171 287.655235 
L 247.420541 289.323031 
L 258.502342 290.940138 
L 270.656577 292.481732 
L 283.883243 293.93071 
L 298.53982 295.307808 
L 314.626306 296.594365 
L 332.857658 297.823929 
L 353.233874 298.970285 
L 376.46991 300.048404 
L 402.923243 301.047504 
L 414.72 301.430312 
L 414.72 301.430312 
" clip-path="url(#pa404952ee5)" style="fill: none; stroke: #1f77b4; stroke-width: 1.5; stroke-linecap: square"/>
   </g>
   <g id="line2d_30">
    <path d="M 57.6 307.584 
L 134.457658 307.520503 
L 135.172613 307.355344 
L 135.887568 306.968616 
L 136.602523 306.236797 
L 137.317477 305.049015 
L 138.032432 303.328119 
L 138.747387 301.040063 
L 139.81982 296.572025 
L 140.892252 291.017391 
L 142.322162 282.380675 
L 148.399279 243.585957 
L 150.186667 234.345729 
L 151.616577 228.020123 
L 153.046486 222.639304 
L 154.476396 218.159403 
L 155.906306 214.514751 
L 156.978739 212.283536 
L 158.051171 210.445328 
L 159.123604 208.966401 
L 160.196036 207.813941 
L 161.268468 206.956586 
L 162.340901 206.364753 
L 163.413333 206.010833 
L 164.485766 205.869257 
L 165.558198 205.916507 
L 166.988108 206.236314 
L 168.418018 206.807999 
L 170.205405 207.81608 
L 171.992793 209.087843 
L 174.137658 210.882973 
L 176.997477 213.604555 
L 180.92973 217.719415 
L 198.088649 236.137576 
L 203.093333 240.970554 
L 207.740541 245.148639 
L 212.387748 249.027448 
L 217.034955 252.616757 
L 221.682162 255.932051 
L 226.686847 259.216864 
L 231.691532 262.228971 
L 236.696216 264.992037 
L 242.058378 267.701693 
L 247.778018 270.334375 
L 253.855135 272.871266 
L 259.932252 275.169741 
L 266.366847 277.373394 
L 273.516396 279.577634 
L 281.023423 281.650246 
L 288.887928 283.590826 
L 297.467387 285.475279 
L 306.761802 287.281864 
L 316.771171 288.994881 
L 327.495495 290.604036 
L 339.292252 292.147316 
L 352.161441 293.605369 
L 366.460541 294.998044 
L 382.18955 296.304528 
L 399.705946 297.535338 
L 414.72 298.437798 
L 414.72 298.437798 
" clip-path="url(#pa404952ee5)" style="fill: none; stroke: #ff7f0e; stroke-width: 1.5; stroke-linecap: square"/>
   </g>
   <g id="line2d_31">
    <path d="M 57.6 307.584 
L 60.102342 307.535483 
L 60.45982 307.362862 
L 60.817297 306.884252 
L 61.174775 305.864138 
L 61.532252 304.059265 
L 61.88973 301.271065 
L 62.604685 292.349158 
L 63.31964 279.124371 
L 64.392072 253.494433 
L 67.251892 180.386592 
L 68.324324 158.424046 
L 69.396757 140.728835 
L 70.469189 127.148002 
L 71.184144 120.174826 
L 71.899099 114.687244 
L 72.614054 110.524967 
L 73.329009 107.531427 
L 74.043964 105.558872 
L 74.758919 104.471099 
L 75.116396 104.219913 
L 75.473874 104.144635 
L 75.831351 104.231848 
L 76.188829 104.468918 
L 76.903784 105.34586 
L 77.618739 106.689066 
L 78.691171 109.415281 
L 79.763604 112.807078 
L 81.193514 118.069003 
L 83.338378 126.93033 
L 92.632793 166.67824 
L 95.492613 177.51267 
L 98.352432 187.438763 
L 100.854775 195.391844 
L 103.357117 202.696879 
L 105.859459 209.39792 
L 108.361802 215.542573 
L 111.221622 221.944774 
L 114.081441 227.750321 
L 116.941261 233.021984 
L 119.801081 237.816696 
L 122.660901 242.185486 
L 125.520721 246.173773 
L 128.738018 250.255705 
L 131.955315 253.957176 
L 135.172613 257.321934 
L 138.38991 260.388025 
L 141.964685 263.484638 
L 145.539459 266.292636 
L 149.471712 269.088325 
L 153.403964 271.61423 
L 157.693694 274.100624 
L 162.340901 276.518025 
L 166.988108 278.685976 
L 171.992793 280.779105 
L 177.354955 282.781512 
L 183.074595 284.681956 
L 189.151712 286.473285 
L 195.943784 288.239172 
L 203.093333 289.870393 
L 210.957838 291.438635 
L 219.537297 292.924333 
L 229.189189 294.364186 
L 239.913514 295.729468 
L 251.71027 297.001333 
L 264.936937 298.198965 
L 279.950991 299.328143 
L 297.10991 300.386353 
L 316.771171 301.367061 
L 339.292252 302.263107 
L 365.745586 303.0888 
L 397.203604 303.843078 
L 414.72 304.183561 
L 414.72 304.183561 
" clip-path="url(#pa404952ee5)" style="fill: none; stroke: #2ca02c; stroke-width: 1.5; stroke-linecap: square"/>
   </g>
   <g id="line2d_32">
    <path d="M 57.6 307.584 
L 69.754234 307.481915 
L 71.541622 307.233911 
L 72.971532 306.837019 
L 74.401441 306.205101 
L 75.831351 305.30266 
L 77.261261 304.115967 
L 78.691171 302.651963 
L 80.478559 300.469093 
L 82.623423 297.427169 
L 85.483243 292.893312 
L 94.062703 278.906419 
L 96.922523 274.797385 
L 99.424865 271.567546 
L 101.927207 268.70071 
L 104.42955 266.198439 
L 106.931892 264.049713 
L 109.434234 262.235422 
L 111.936577 260.731707 
L 114.438919 259.512359 
L 116.941261 258.550493 
L 119.443604 257.819664 
L 122.303423 257.234963 
L 125.163243 256.883862 
L 128.380541 256.728286 
L 131.955315 256.805229 
L 135.887568 257.137802 
L 140.177297 257.734782 
L 145.181982 258.664723 
L 151.259099 260.031778 
L 159.481081 262.133458 
L 175.925045 266.639362 
L 190.939099 270.64611 
L 203.093333 273.655213 
L 214.532613 276.257669 
L 225.971892 278.633585 
L 237.768649 280.856348 
L 249.922883 282.922574 
L 262.792072 284.885875 
L 276.376216 286.73507 
L 291.032793 288.5046 
L 306.761802 290.177854 
L 323.920721 291.775242 
L 342.50955 293.278861 
L 362.885766 294.700721 
L 385.406847 296.045092 
L 410.43027 297.311144 
L 414.72 297.507572 
L 414.72 297.507572 
" clip-path="url(#pa404952ee5)" style="fill: none; stroke: #d62728; stroke-width: 1.5; stroke-linecap: square"/>
   </g>
   <g id="line2d_33">
    <path d="M 57.6 307.584 
L 57.957477 166.15689 
L 58.314955 88.02592 
L 58.672432 61.150333 
L 59.02991 54.144 
L 59.387387 55.64122 
L 59.744865 60.972583 
L 61.174775 91.296959 
L 62.604685 119.054262 
L 63.677117 136.231958 
L 64.74955 150.731292 
L 66.179459 166.758648 
L 67.609369 179.882684 
L 69.039279 190.807708 
L 70.469189 200.037341 
L 71.899099 207.935819 
L 73.329009 214.771297 
L 75.116396 222.122481 
L 76.903784 228.415566 
L 78.691171 233.864068 
L 80.478559 238.627625 
L 82.265946 242.827959 
L 84.410811 247.256392 
L 86.555676 251.134783 
L 88.700541 254.559618 
L 90.845405 257.606009 
L 93.347748 260.760324 
L 95.85009 263.554184 
L 98.70991 266.379974 
L 101.56973 268.878926 
L 104.787027 271.365567 
L 108.004324 273.565351 
L 111.579099 275.729513 
L 115.511351 277.826989 
L 119.443604 279.678091 
L 123.733333 281.464026 
L 128.738018 283.292746 
L 134.10018 285.001851 
L 139.81982 286.591841 
L 146.254414 288.146512 
L 153.403964 289.638681 
L 161.268468 291.050356 
L 170.205405 292.421834 
L 180.214775 293.725756 
L 191.654054 294.981369 
L 204.523243 296.162647 
L 219.17982 297.279867 
L 235.981261 298.334488 
L 255.642523 299.339874 
L 278.521081 300.281731 
L 305.689369 301.170522 
L 338.21982 302.003026 
L 377.184865 302.77066 
L 414.72 303.346223 
L 414.72 303.346223 
" clip-path="url(#pa404952ee5)" style="fill: none; stroke: #9467bd; stroke-width: 1.5; stroke-linecap: square"/>
   </g>
   <g id="line2d_34">
    <path d="M 57.6 307.584 
L 78.333694 307.476164 
L 79.763604 307.195477 
L 80.836036 306.723866 
L 81.550991 306.214988 
L 82.265946 305.500802 
L 82.980901 304.537742 
L 83.695856 303.284267 
L 84.410811 301.703364 
L 85.483243 298.653973 
L 86.555676 294.73542 
L 87.628108 289.929816 
L 89.058018 282.201729 
L 90.487928 273.144345 
L 92.275315 260.3959 
L 95.85009 232.71291 
L 98.70991 211.261657 
L 100.854775 196.857726 
L 102.642162 186.353982 
L 104.072072 179.037676 
L 105.501982 172.716703 
L 106.931892 167.384865 
L 108.361802 163.012216 
L 109.434234 160.334258 
L 110.506667 158.14498 
L 111.579099 156.417245 
L 112.651532 155.122222 
L 113.723964 154.230168 
L 114.796396 153.711055 
L 115.868829 153.53508 
L 116.941261 153.673062 
L 118.013694 154.096746 
L 119.086126 154.779029 
L 120.158559 155.694117 
L 121.588468 157.234455 
L 123.018378 159.091808 
L 124.805766 161.785159 
L 126.950631 165.451017 
L 129.452973 170.167678 
L 133.027748 177.4201 
L 147.326847 206.996796 
L 151.259099 214.41268 
L 155.191351 221.357385 
L 158.766126 227.246335 
L 162.340901 232.732628 
L 165.915676 237.827499 
L 169.49045 242.5481 
L 173.065225 246.915041 
L 176.64 250.950665 
L 180.214775 254.677873 
L 184.147027 258.448613 
L 188.079279 261.902682 
L 192.011532 265.067598 
L 196.301261 268.220566 
L 200.590991 271.090603 
L 204.880721 273.705613 
L 209.527928 276.279961 
L 214.532613 278.783638 
L 219.537297 281.039693 
L 224.899459 283.213898 
L 230.619099 285.289088 
L 236.696216 287.252659 
L 243.130811 289.096204 
L 249.922883 290.815036 
L 257.42991 292.482034 
L 265.651892 294.069547 
L 274.588829 295.557739 
L 284.240721 296.933957 
L 294.965045 298.231574 
L 306.761802 299.430097 
L 319.988468 300.545455 
L 335.002523 301.580908 
L 352.161441 302.532329 
L 371.822703 303.392731 
L 394.701261 304.166414 
L 414.72 304.695432 
L 414.72 304.695432 
" clip-path="url(#pa404952ee5)" style="fill: none; stroke: #8c564b; stroke-width: 1.5; stroke-linecap: square"/>
   </g>
   <g id="patch_3">
    <path d="M 57.6 307.584 
L 57.6 41.472 
" style="fill: none; stroke: #000000; stroke-width: 0.8; stroke-linejoin: miter; stroke-linecap: square"/>
   </g>
   <g id="patch_4">
    <path d="M 414.72 307.584 
L 414.72 41.472 
" style="fill: none; stroke: #000000; stroke-width: 0.8; stroke-linejoin: miter; stroke-linecap: square"/>
   </g>
   <g id="patch_5">
    <path d="M 57.6 307.584 
L 414.72 307.584 
" style="fill: none; stroke: #000000; stroke-width: 0.8; stroke-linejoin: miter; stroke-linecap: square"/>
   </g>
   <g id="patch_6">
    <path d="M 57.6 41.472 
L 414.72 41.472 
" style="fill: none; stroke: #000000; stroke-width: 0.8; stroke-linejoin: miter; stroke-linecap: square"/>
   </g>
   <g id="text_17">
    <!-- Fréchet distribution -->
    <g transform="translate(177.876563 35.472) scale(0.12 -0.12)">
     <defs>
      <path id="DejaVuSans-46" d="M 628 4666 
L 3309 4666 
L 3309 4134 
L 1259 4134 
L 1259 2759 
L 3109 2759 
L 3109 2228 
L 1259 2228 
L 1259 0 
L 628 0 
L 628 4666 
z
" transform="scale(0.015625)"/>
      <path id="DejaVuSans-e9" d="M 3597 1894 
L 3597 1613 
L 953 1613 
Q 991 1019 1311 708 
Q 1631 397 2203 397 
Q 2534 397 2845 478 
Q 3156 559 3463 722 
L 3463 178 
Q 3153 47 2828 -22 
Q 2503 -91 2169 -91 
Q 1331 -91 842 396 
Q 353 884 353 1716 
Q 353 2575 817 3079 
Q 1281 3584 2069 3584 
Q 2775 3584 3186 3129 
Q 3597 2675 3597 1894 
z
M 3022 2063 
Q 3016 2534 2758 2815 
Q 2500 3097 2075 3097 
Q 1594 3097 1305 2825 
Q 1016 2553 972 2059 
L 3022 2063 
z
M 2466 5119 
L 3088 5119 
L 2070 3944 
L 1591 3944 
L 2466 5119 
z
" transform="scale(0.015625)"/>
      <path id="DejaVuSans-63" d="M 3122 3366 
L 3122 2828 
Q 2878 2963 2633 3030 
Q 2388 3097 2138 3097 
Q 1578 3097 1268 2742 
Q 959 2388 959 1747 
Q 959 1106 1268 751 
Q 1578 397 2138 397 
Q 2388 397 2633 464 
Q 2878 531 3122 666 
L 3122 134 
Q 2881 22 2623 -34 
Q 2366 -91 2075 -91 
Q 1284 -91 818 406 
Q 353 903 353 1747 
Q 353 2603 823 3093 
Q 1294 3584 2113 3584 
Q 2378 3584 2631 3529 
Q 2884 3475 3122 3366 
z
" transform="scale(0.015625)"/>
      <path id="DejaVuSans-68" d="M 3513 2113 
L 3513 0 
L 2938 0 
L 2938 2094 
Q 2938 2591 2744 2837 
Q 2550 3084 2163 3084 
Q 1697 3084 1428 2787 
Q 1159 2491 1159 1978 
L 1159 0 
L 581 0 
L 581 4863 
L 1159 4863 
L 1159 2956 
Q 1366 3272 1645 3428 
Q 1925 3584 2291 3584 
Q 2894 3584 3203 3211 
Q 3513 2838 3513 2113 
z
" transform="scale(0.015625)"/>
      <path id="DejaVuSans-75" d="M 544 1381 
L 544 3500 
L 1119 3500 
L 1119 1403 
Q 1119 906 1312 657 
Q 1506 409 1894 409 
Q 2359 409 2629 706 
Q 2900 1003 2900 1516 
L 2900 3500 
L 3475 3500 
L 3475 0 
L 2900 0 
L 2900 538 
Q 2691 219 2414 64 
Q 2138 -91 1772 -91 
Q 1169 -91 856 284 
Q 544 659 544 1381 
z
M 1991 3584 
L 1991 3584 
z
" transform="scale(0.015625)"/>
     </defs>
     <use xlink:href="#DejaVuSans-46"/>
     <use xlink:href="#DejaVuSans-72" x="50.269531"/>
     <use xlink:href="#DejaVuSans-e9" x="89.132812"/>
     <use xlink:href="#DejaVuSans-63" x="150.65625"/>
     <use xlink:href="#DejaVuSans-68" x="205.636719"/>
     <use xlink:href="#DejaVuSans-65" x="269.015625"/>
     <use xlink:href="#DejaVuSans-74" x="330.539062"/>
     <use xlink:href="#DejaVuSans-20" x="369.748047"/>
     <use xlink:href="#DejaVuSans-64" x="401.535156"/>
     <use xlink:href="#DejaVuSans-69" x="465.011719"/>
     <use xlink:href="#DejaVuSans-73" x="492.794922"/>
     <use xlink:href="#DejaVuSans-74" x="544.894531"/>
     <use xlink:href="#DejaVuSans-72" x="584.103516"/>
     <use xlink:href="#DejaVuSans-69" x="625.216797"/>
     <use xlink:href="#DejaVuSans-62" x="653"/>
     <use xlink:href="#DejaVuSans-75" x="716.476562"/>
     <use xlink:href="#DejaVuSans-74" x="779.855469"/>
     <use xlink:href="#DejaVuSans-69" x="819.064453"/>
     <use xlink:href="#DejaVuSans-6f" x="846.847656"/>
     <use xlink:href="#DejaVuSans-6e" x="908.029297"/>
    </g>
   </g>
   <g id="legend_1">
    <g id="patch_7">
     <path d="M 264.516875 137.54075 
L 407.72 137.54075 
Q 409.72 137.54075 409.72 135.54075 
L 409.72 48.472 
Q 409.72 46.472 407.72 46.472 
L 264.516875 46.472 
Q 262.516875 46.472 262.516875 48.472 
L 262.516875 135.54075 
Q 262.516875 137.54075 264.516875 137.54075 
z
" style="fill: #ffffff; opacity: 0.8; stroke: #cccccc; stroke-linejoin: miter"/>
    </g>
    <g id="line2d_35">
     <path d="M 266.516875 54.570438 
L 276.516875 54.570438 
L 286.516875 54.570438 
" style="fill: none; stroke: #1f77b4; stroke-width: 1.5; stroke-linecap: square"/>
    </g>
    <g id="text_18">
     <!-- μ = 0, σ = 1, α = 1 -->
     <g transform="translate(294.516875 58.070438) scale(0.1 -0.1)">
      <defs>
       <path id="DejaVuSans-3bc" d="M 544 -1331 
L 544 3500 
L 1119 3500 
L 1119 1325 
Q 1119 872 1334 640 
Q 1550 409 1972 409 
Q 2434 409 2667 671 
Q 2900 934 2900 1459 
L 2900 3500 
L 3475 3500 
L 3475 806 
Q 3475 619 3529 530 
Q 3584 441 3700 441 
Q 3728 441 3778 458 
Q 3828 475 3916 513 
L 3916 50 
Q 3788 -22 3673 -56 
Q 3559 -91 3450 -91 
Q 3234 -91 3106 31 
Q 2978 153 2931 403 
Q 2775 156 2548 32 
Q 2322 -91 2016 -91 
Q 1697 -91 1473 31 
Q 1250 153 1119 397 
L 1119 -1331 
L 544 -1331 
z
" transform="scale(0.015625)"/>
       <path id="DejaVuSans-3d" d="M 678 2906 
L 4684 2906 
L 4684 2381 
L 678 2381 
L 678 2906 
z
M 678 1631 
L 4684 1631 
L 4684 1100 
L 678 1100 
L 678 1631 
z
" transform="scale(0.015625)"/>
       <path id="DejaVuSans-2c" d="M 750 794 
L 1409 794 
L 1409 256 
L 897 -744 
L 494 -744 
L 750 256 
L 750 794 
z
" transform="scale(0.015625)"/>
       <path id="DejaVuSans-3c3" d="M 1959 3044 
Q 1484 3044 1228 2700 
Q 959 2341 959 1747 
Q 959 1119 1226 758 
Q 1494 397 1959 397 
Q 2419 397 2687 759 
Q 2956 1122 2956 1747 
Q 2956 2319 2688 2700 
Q 2441 3044 1959 3044 
z
M 1959 3500 
L 3869 3500 
L 3869 2925 
L 3225 2925 
Q 3566 2438 3566 1747 
Q 3566 888 3138 400 
Q 2709 -91 1959 -91 
Q 1206 -91 781 400 
Q 353 888 353 1747 
Q 353 2613 781 3097 
Q 1134 3500 1959 3500 
z
" transform="scale(0.015625)"/>
       <path id="DejaVuSans-3b1" d="M 2644 1628 
L 2506 2350 
Q 2366 3091 1809 3091 
Q 1391 3091 1200 2747 
Q 959 2316 959 1747 
Q 959 1059 1194 731 
Q 1431 397 1809 397 
Q 2228 397 2453 1063 
L 2644 1628 
z
M 2966 2584 
L 3275 3500 
L 3788 3500 
L 3147 1603 
L 3272 919 
Q 3300 766 3409 638 
Q 3538 488 3638 488 
L 3913 488 
L 3913 0 
L 3569 0 
Q 3275 0 3013 263 
Q 2884 394 2831 669 
Q 2688 322 2394 50 
Q 2256 -78 1809 -78 
Q 1075 -78 719 397 
Q 353 888 353 1747 
Q 353 2666 750 3097 
Q 1191 3578 1809 3578 
Q 2781 3578 2966 2584 
z
" transform="scale(0.015625)"/>
      </defs>
      <use xlink:href="#DejaVuSans-3bc"/>
      <use xlink:href="#DejaVuSans-20" x="63.623047"/>
      <use xlink:href="#DejaVuSans-3d" x="95.410156"/>
      <use xlink:href="#DejaVuSans-20" x="179.199219"/>
      <use xlink:href="#DejaVuSans-30" x="210.986328"/>
      <use xlink:href="#DejaVuSans-2c" x="274.609375"/>
      <use xlink:href="#DejaVuSans-20" x="306.396484"/>
      <use xlink:href="#DejaVuSans-3c3" x="338.183594"/>
      <use xlink:href="#DejaVuSans-20" x="401.5625"/>
      <use xlink:href="#DejaVuSans-3d" x="433.349609"/>
      <use xlink:href="#DejaVuSans-20" x="517.138672"/>
      <use xlink:href="#DejaVuSans-31" x="548.925781"/>
      <use xlink:href="#DejaVuSans-2c" x="612.548828"/>
      <use xlink:href="#DejaVuSans-20" x="644.335938"/>
      <use xlink:href="#DejaVuSans-3b1" x="676.123047"/>
      <use xlink:href="#DejaVuSans-20" x="742.041016"/>
      <use xlink:href="#DejaVuSans-3d" x="773.828125"/>
      <use xlink:href="#DejaVuSans-20" x="857.617188"/>
      <use xlink:href="#DejaVuSans-31" x="889.404297"/>
     </g>
    </g>
    <g id="line2d_36">
     <path d="M 266.516875 69.248563 
L 276.516875 69.248563 
L 286.516875 69.248563 
" style="fill: none; stroke: #ff7f0e; stroke-width: 1.5; stroke-linecap: square"/>
    </g>
    <g id="text_19">
     <!-- μ = 1, σ = 1, α = 1 -->
     <g transform="translate(294.516875 72.748563) scale(0.1 -0.1)">
      <use xlink:href="#DejaVuSans-3bc"/>
      <use xlink:href="#DejaVuSans-20" x="63.623047"/>
      <use xlink:href="#DejaVuSans-3d" x="95.410156"/>
      <use xlink:href="#DejaVuSans-20" x="179.199219"/>
      <use xlink:href="#DejaVuSans-31" x="210.986328"/>
      <use xlink:href="#DejaVuSans-2c" x="274.609375"/>
      <use xlink:href="#DejaVuSans-20" x="306.396484"/>
      <use xlink:href="#DejaVuSans-3c3" x="338.183594"/>
      <use xlink:href="#DejaVuSans-20" x="401.5625"/>
      <use xlink:href="#DejaVuSans-3d" x="433.349609"/>
      <use xlink:href="#DejaVuSans-20" x="517.138672"/>
      <use xlink:href="#DejaVuSans-31" x="548.925781"/>
      <use xlink:href="#DejaVuSans-2c" x="612.548828"/>
      <use xlink:href="#DejaVuSans-20" x="644.335938"/>
      <use xlink:href="#DejaVuSans-3b1" x="676.123047"/>
      <use xlink:href="#DejaVuSans-20" x="742.041016"/>
      <use xlink:href="#DejaVuSans-3d" x="773.828125"/>
      <use xlink:href="#DejaVuSans-20" x="857.617188"/>
      <use xlink:href="#DejaVuSans-31" x="889.404297"/>
     </g>
    </g>
    <g id="line2d_37">
     <path d="M 266.516875 83.926688 
L 276.516875 83.926688 
L 286.516875 83.926688 
" style="fill: none; stroke: #2ca02c; stroke-width: 1.5; stroke-linecap: square"/>
    </g>
    <g id="text_20">
     <!-- μ = 0, σ = 0.5, α = 1 -->
     <g transform="translate(294.516875 87.426688) scale(0.1 -0.1)">
      <use xlink:href="#DejaVuSans-3bc"/>
      <use xlink:href="#DejaVuSans-20" x="63.623047"/>
      <use xlink:href="#DejaVuSans-3d" x="95.410156"/>
      <use xlink:href="#DejaVuSans-20" x="179.199219"/>
      <use xlink:href="#DejaVuSans-30" x="210.986328"/>
      <use xlink:href="#DejaVuSans-2c" x="274.609375"/>
      <use xlink:href="#DejaVuSans-20" x="306.396484"/>
      <use xlink:href="#DejaVuSans-3c3" x="338.183594"/>
      <use xlink:href="#DejaVuSans-20" x="401.5625"/>
      <use xlink:href="#DejaVuSans-3d" x="433.349609"/>
      <use xlink:href="#DejaVuSans-20" x="517.138672"/>
      <use xlink:href="#DejaVuSans-30" x="548.925781"/>
      <use xlink:href="#DejaVuSans-2e" x="612.548828"/>
      <use xlink:href="#DejaVuSans-35" x="644.335938"/>
      <use xlink:href="#DejaVuSans-2c" x="707.958984"/>
      <use xlink:href="#DejaVuSans-20" x="739.746094"/>
      <use xlink:href="#DejaVuSans-3b1" x="771.533203"/>
      <use xlink:href="#DejaVuSans-20" x="837.451172"/>
      <use xlink:href="#DejaVuSans-3d" x="869.238281"/>
      <use xlink:href="#DejaVuSans-20" x="953.027344"/>
      <use xlink:href="#DejaVuSans-31" x="984.814453"/>
     </g>
    </g>
    <g id="line2d_38">
     <path d="M 266.516875 98.604813 
L 276.516875 98.604813 
L 286.516875 98.604813 
" style="fill: none; stroke: #d62728; stroke-width: 1.5; stroke-linecap: square"/>
    </g>
    <g id="text_21">
     <!-- μ = 0, σ = 2, α = 1 -->
     <g transform="translate(294.516875 102.104813) scale(0.1 -0.1)">
      <use xlink:href="#DejaVuSans-3bc"/>
      <use xlink:href="#DejaVuSans-20" x="63.623047"/>
      <use xlink:href="#DejaVuSans-3d" x="95.410156"/>
      <use xlink:href="#DejaVuSans-20" x="179.199219"/>
      <use xlink:href="#DejaVuSans-30" x="210.986328"/>
      <use xlink:href="#DejaVuSans-2c" x="274.609375"/>
      <use xlink:href="#DejaVuSans-20" x="306.396484"/>
      <use xlink:href="#DejaVuSans-3c3" x="338.183594"/>
      <use xlink:href="#DejaVuSans-20" x="401.5625"/>
      <use xlink:href="#DejaVuSans-3d" x="433.349609"/>
      <use xlink:href="#DejaVuSans-20" x="517.138672"/>
      <use xlink:href="#DejaVuSans-32" x="548.925781"/>
      <use xlink:href="#DejaVuSans-2c" x="612.548828"/>
      <use xlink:href="#DejaVuSans-20" x="644.335938"/>
      <use xlink:href="#DejaVuSans-3b1" x="676.123047"/>
      <use xlink:href="#DejaVuSans-20" x="742.041016"/>
      <use xlink:href="#DejaVuSans-3d" x="773.828125"/>
      <use xlink:href="#DejaVuSans-20" x="857.617188"/>
      <use xlink:href="#DejaVuSans-31" x="889.404297"/>
     </g>
    </g>
    <g id="line2d_39">
     <path d="M 266.516875 113.282938 
L 276.516875 113.282938 
L 286.516875 113.282938 
" style="fill: none; stroke: #9467bd; stroke-width: 1.5; stroke-linecap: square"/>
    </g>
    <g id="text_22">
     <!-- μ = 0, σ = 1, α = 0.35 -->
     <g transform="translate(294.516875 116.782938) scale(0.1 -0.1)">
      <use xlink:href="#DejaVuSans-3bc"/>
      <use xlink:href="#DejaVuSans-20" x="63.623047"/>
      <use xlink:href="#DejaVuSans-3d" x="95.410156"/>
      <use xlink:href="#DejaVuSans-20" x="179.199219"/>
      <use xlink:href="#DejaVuSans-30" x="210.986328"/>
      <use xlink:href="#DejaVuSans-2c" x="274.609375"/>
      <use xlink:href="#DejaVuSans-20" x="306.396484"/>
      <use xlink:href="#DejaVuSans-3c3" x="338.183594"/>
      <use xlink:href="#DejaVuSans-20" x="401.5625"/>
      <use xlink:href="#DejaVuSans-3d" x="433.349609"/>
      <use xlink:href="#DejaVuSans-20" x="517.138672"/>
      <use xlink:href="#DejaVuSans-31" x="548.925781"/>
      <use xlink:href="#DejaVuSans-2c" x="612.548828"/>
      <use xlink:href="#DejaVuSans-20" x="644.335938"/>
      <use xlink:href="#DejaVuSans-3b1" x="676.123047"/>
      <use xlink:href="#DejaVuSans-20" x="742.041016"/>
      <use xlink:href="#DejaVuSans-3d" x="773.828125"/>
      <use xlink:href="#DejaVuSans-20" x="857.617188"/>
      <use xlink:href="#DejaVuSans-30" x="889.404297"/>
      <use xlink:href="#DejaVuSans-2e" x="953.027344"/>
      <use xlink:href="#DejaVuSans-33" x="984.814453"/>
      <use xlink:href="#DejaVuSans-35" x="1048.4375"/>
     </g>
    </g>
    <g id="line2d_40">
     <path d="M 266.516875 127.961063 
L 276.516875 127.961063 
L 286.516875 127.961063 
" style="fill: none; stroke: #8c564b; stroke-width: 1.5; stroke-linecap: square"/>
    </g>
    <g id="text_23">
     <!-- μ = 0, σ = 1, α = 2 -->
     <g transform="translate(294.516875 131.461063) scale(0.1 -0.1)">
      <use xlink:href="#DejaVuSans-3bc"/>
      <use xlink:href="#DejaVuSans-20" x="63.623047"/>
      <use xlink:href="#DejaVuSans-3d" x="95.410156"/>
      <use xlink:href="#DejaVuSans-20" x="179.199219"/>
      <use xlink:href="#DejaVuSans-30" x="210.986328"/>
      <use xlink:href="#DejaVuSans-2c" x="274.609375"/>
      <use xlink:href="#DejaVuSans-20" x="306.396484"/>
      <use xlink:href="#DejaVuSans-3c3" x="338.183594"/>
      <use xlink:href="#DejaVuSans-20" x="401.5625"/>
      <use xlink:href="#DejaVuSans-3d" x="433.349609"/>
      <use xlink:href="#DejaVuSans-20" x="517.138672"/>
      <use xlink:href="#DejaVuSans-31" x="548.925781"/>
      <use xlink:href="#DejaVuSans-2c" x="612.548828"/>
      <use xlink:href="#DejaVuSans-20" x="644.335938"/>
      <use xlink:href="#DejaVuSans-3b1" x="676.123047"/>
      <use xlink:href="#DejaVuSans-20" x="742.041016"/>
      <use xlink:href="#DejaVuSans-3d" x="773.828125"/>
      <use xlink:href="#DejaVuSans-20" x="857.617188"/>
      <use xlink:href="#DejaVuSans-32" x="889.404297"/>
     </g>
    </g>
   </g>
  </g>
 </g>
 <defs>
  <clipPath id="pa404952ee5">
   <rect x="57.6" y="41.472" width="357.12" height="266.112"/>
  </clipPath>
 </defs>
</svg>
