<?xml version="1.0" encoding="utf-8" standalone="no"?>
<!DOCTYPE svg PUBLIC "-//W3C//DTD SVG 1.1//EN"
  "http://www.w3.org/Graphics/SVG/1.1/DTD/svg11.dtd">
<svg xmlns:xlink="http://www.w3.org/1999/xlink" width="460.8pt" height="345.6pt" viewBox="0 0 460.8 345.6" xmlns="http://www.w3.org/2000/svg" version="1.1">
 <metadata>
  <rdf:RDF xmlns:dc="http://purl.org/dc/elements/1.1/" xmlns:cc="http://creativecommons.org/ns#" xmlns:rdf="http://www.w3.org/1999/02/22-rdf-syntax-ns#">
   <cc:Work>
    <dc:type rdf:resource="http://purl.org/dc/dcmitype/StillImage"/>
    <dc:date>2024-05-02T16:43:11.309628</dc:date>
    <dc:format>image/svg+xml</dc:format>
    <dc:creator>
     <cc:Agent>
      <dc:title>Matplotlib v3.8.4, https://matplotlib.org/</dc:title>
     </cc:Agent>
    </dc:creator>
   </cc:Work>
  </rdf:RDF>
 </metadata>
 <defs>
  <style type="text/css">*{stroke-linejoin: round; stroke-linecap: butt}</style>
 </defs>
 <g id="figure_1">
  <g id="patch_1">
   <path d="M 0 345.6 
L 460.8 345.6 
L 460.8 0 
L 0 0 
z
" style="fill: #ffffff"/>
  </g>
  <g id="axes_1">
   <g id="patch_2">
    <path d="M 57.6 307.584 
L 414.72 307.584 
L 414.72 41.472 
L 57.6 41.472 
z
" style="fill: #ffffff"/>
   </g>
   <g id="matplotlib.axis_1">
    <g id="xtick_1">
     <g id="line2d_1">
      <path d="M 57.6 307.584 
L 57.6 41.472 
" clip-path="url(#p77c68f73d0)" style="fill: none; stroke: #b0b0b0; stroke-width: 0.8; stroke-linecap: square"/>
     </g>
     <g id="line2d_2">
      <defs>
       <path id="maa04c0b4a7" d="M 0 0 
L 0 3.5 
" style="stroke: #000000; stroke-width: 0.8"/>
      </defs>
      <g>
       <use xlink:href="#maa04c0b4a7" x="57.6" y="307.584" style="stroke: #000000; stroke-width: 0.8"/>
      </g>
     </g>
     <g id="text_1">
      <!-- 0 -->
      <g transform="translate(54.41875 322.182437) scale(0.1 -0.1)">
       <defs>
        <path id="DejaVuSans-30" d="M 2034 4250 
Q 1547 4250 1301 3770 
Q 1056 3291 1056 2328 
Q 1056 1369 1301 889 
Q 1547 409 2034 409 
Q 2525 409 2770 889 
Q 3016 1369 3016 2328 
Q 3016 3291 2770 3770 
Q 2525 4250 2034 4250 
z
M 2034 4750 
Q 2819 4750 3233 4129 
Q 3647 3509 3647 2328 
Q 3647 1150 3233 529 
Q 2819 -91 2034 -91 
Q 1250 -91 836 529 
Q 422 1150 422 2328 
Q 422 3509 836 4129 
Q 1250 4750 2034 4750 
z
" transform="scale(0.015625)"/>
       </defs>
       <use xlink:href="#DejaVuSans-30"/>
      </g>
     </g>
    </g>
    <g id="xtick_2">
     <g id="line2d_3">
      <path d="M 108.617143 307.584 
L 108.617143 41.472 
" clip-path="url(#p77c68f73d0)" style="fill: none; stroke: #b0b0b0; stroke-width: 0.8; stroke-linecap: square"/>
     </g>
     <g id="line2d_4">
      <g>
       <use xlink:href="#maa04c0b4a7" x="108.617143" y="307.584" style="stroke: #000000; stroke-width: 0.8"/>
      </g>
     </g>
     <g id="text_2">
      <!-- 1 -->
      <g transform="translate(105.435893 322.182437) scale(0.1 -0.1)">
       <defs>
        <path id="DejaVuSans-31" d="M 794 531 
L 1825 531 
L 1825 4091 
L 703 3866 
L 703 4441 
L 1819 4666 
L 2450 4666 
L 2450 531 
L 3481 531 
L 3481 0 
L 794 0 
L 794 531 
z
" transform="scale(0.015625)"/>
       </defs>
       <use xlink:href="#DejaVuSans-31"/>
      </g>
     </g>
    </g>
    <g id="xtick_3">
     <g id="line2d_5">
      <path d="M 159.634286 307.584 
L 159.634286 41.472 
" clip-path="url(#p77c68f73d0)" style="fill: none; stroke: #b0b0b0; stroke-width: 0.8; stroke-linecap: square"/>
     </g>
     <g id="line2d_6">
      <g>
       <use xlink:href="#maa04c0b4a7" x="159.634286" y="307.584" style="stroke: #000000; stroke-width: 0.8"/>
      </g>
     </g>
     <g id="text_3">
      <!-- 2 -->
      <g transform="translate(156.453036 322.182437) scale(0.1 -0.1)">
       <defs>
        <path id="DejaVuSans-32" d="M 1228 531 
L 3431 531 
L 3431 0 
L 469 0 
L 469 531 
Q 828 903 1448 1529 
Q 2069 2156 2228 2338 
Q 2531 2678 2651 2914 
Q 2772 3150 2772 3378 
Q 2772 3750 2511 3984 
Q 2250 4219 1831 4219 
Q 1534 4219 1204 4116 
Q 875 4013 500 3803 
L 500 4441 
Q 881 4594 1212 4672 
Q 1544 4750 1819 4750 
Q 2544 4750 2975 4387 
Q 3406 4025 3406 3419 
Q 3406 3131 3298 2873 
Q 3191 2616 2906 2266 
Q 2828 2175 2409 1742 
Q 1991 1309 1228 531 
z
" transform="scale(0.015625)"/>
       </defs>
       <use xlink:href="#DejaVuSans-32"/>
      </g>
     </g>
    </g>
    <g id="xtick_4">
     <g id="line2d_7">
      <path d="M 210.651429 307.584 
L 210.651429 41.472 
" clip-path="url(#p77c68f73d0)" style="fill: none; stroke: #b0b0b0; stroke-width: 0.8; stroke-linecap: square"/>
     </g>
     <g id="line2d_8">
      <g>
       <use xlink:href="#maa04c0b4a7" x="210.651429" y="307.584" style="stroke: #000000; stroke-width: 0.8"/>
      </g>
     </g>
     <g id="text_4">
      <!-- 3 -->
      <g transform="translate(207.470179 322.182437) scale(0.1 -0.1)">
       <defs>
        <path id="DejaVuSans-33" d="M 2597 2516 
Q 3050 2419 3304 2112 
Q 3559 1806 3559 1356 
Q 3559 666 3084 287 
Q 2609 -91 1734 -91 
Q 1441 -91 1130 -33 
Q 819 25 488 141 
L 488 750 
Q 750 597 1062 519 
Q 1375 441 1716 441 
Q 2309 441 2620 675 
Q 2931 909 2931 1356 
Q 2931 1769 2642 2001 
Q 2353 2234 1838 2234 
L 1294 2234 
L 1294 2753 
L 1863 2753 
Q 2328 2753 2575 2939 
Q 2822 3125 2822 3475 
Q 2822 3834 2567 4026 
Q 2313 4219 1838 4219 
Q 1578 4219 1281 4162 
Q 984 4106 628 3988 
L 628 4550 
Q 988 4650 1302 4700 
Q 1616 4750 1894 4750 
Q 2613 4750 3031 4423 
Q 3450 4097 3450 3541 
Q 3450 3153 3228 2886 
Q 3006 2619 2597 2516 
z
" transform="scale(0.015625)"/>
       </defs>
       <use xlink:href="#DejaVuSans-33"/>
      </g>
     </g>
    </g>
    <g id="xtick_5">
     <g id="line2d_9">
      <path d="M 261.668571 307.584 
L 261.668571 41.472 
" clip-path="url(#p77c68f73d0)" style="fill: none; stroke: #b0b0b0; stroke-width: 0.8; stroke-linecap: square"/>
     </g>
     <g id="line2d_10">
      <g>
       <use xlink:href="#maa04c0b4a7" x="261.668571" y="307.584" style="stroke: #000000; stroke-width: 0.8"/>
      </g>
     </g>
     <g id="text_5">
      <!-- 4 -->
      <g transform="translate(258.487321 322.182437) scale(0.1 -0.1)">
       <defs>
        <path id="DejaVuSans-34" d="M 2419 4116 
L 825 1625 
L 2419 1625 
L 2419 4116 
z
M 2253 4666 
L 3047 4666 
L 3047 1625 
L 3713 1625 
L 3713 1100 
L 3047 1100 
L 3047 0 
L 2419 0 
L 2419 1100 
L 313 1100 
L 313 1709 
L 2253 4666 
z
" transform="scale(0.015625)"/>
       </defs>
       <use xlink:href="#DejaVuSans-34"/>
      </g>
     </g>
    </g>
    <g id="xtick_6">
     <g id="line2d_11">
      <path d="M 312.685714 307.584 
L 312.685714 41.472 
" clip-path="url(#p77c68f73d0)" style="fill: none; stroke: #b0b0b0; stroke-width: 0.8; stroke-linecap: square"/>
     </g>
     <g id="line2d_12">
      <g>
       <use xlink:href="#maa04c0b4a7" x="312.685714" y="307.584" style="stroke: #000000; stroke-width: 0.8"/>
      </g>
     </g>
     <g id="text_6">
      <!-- 5 -->
      <g transform="translate(309.504464 322.182437) scale(0.1 -0.1)">
       <defs>
        <path id="DejaVuSans-35" d="M 691 4666 
L 3169 4666 
L 3169 4134 
L 1269 4134 
L 1269 2991 
Q 1406 3038 1543 3061 
Q 1681 3084 1819 3084 
Q 2600 3084 3056 2656 
Q 3513 2228 3513 1497 
Q 3513 744 3044 326 
Q 2575 -91 1722 -91 
Q 1428 -91 1123 -41 
Q 819 9 494 109 
L 494 744 
Q 775 591 1075 516 
Q 1375 441 1709 441 
Q 2250 441 2565 725 
Q 2881 1009 2881 1497 
Q 2881 1984 2565 2268 
Q 2250 2553 1709 2553 
Q 1456 2553 1204 2497 
Q 953 2441 691 2322 
L 691 4666 
z
" transform="scale(0.015625)"/>
       </defs>
       <use xlink:href="#DejaVuSans-35"/>
      </g>
     </g>
    </g>
    <g id="xtick_7">
     <g id="line2d_13">
      <path d="M 363.702857 307.584 
L 363.702857 41.472 
" clip-path="url(#p77c68f73d0)" style="fill: none; stroke: #b0b0b0; stroke-width: 0.8; stroke-linecap: square"/>
     </g>
     <g id="line2d_14">
      <g>
       <use xlink:href="#maa04c0b4a7" x="363.702857" y="307.584" style="stroke: #000000; stroke-width: 0.8"/>
      </g>
     </g>
     <g id="text_7">
      <!-- 6 -->
      <g transform="translate(360.521607 322.182437) scale(0.1 -0.1)">
       <defs>
        <path id="DejaVuSans-36" d="M 2113 2584 
Q 1688 2584 1439 2293 
Q 1191 2003 1191 1497 
Q 1191 994 1439 701 
Q 1688 409 2113 409 
Q 2538 409 2786 701 
Q 3034 994 3034 1497 
Q 3034 2003 2786 2293 
Q 2538 2584 2113 2584 
z
M 3366 4563 
L 3366 3988 
Q 3128 4100 2886 4159 
Q 2644 4219 2406 4219 
Q 1781 4219 1451 3797 
Q 1122 3375 1075 2522 
Q 1259 2794 1537 2939 
Q 1816 3084 2150 3084 
Q 2853 3084 3261 2657 
Q 3669 2231 3669 1497 
Q 3669 778 3244 343 
Q 2819 -91 2113 -91 
Q 1303 -91 875 529 
Q 447 1150 447 2328 
Q 447 3434 972 4092 
Q 1497 4750 2381 4750 
Q 2619 4750 2861 4703 
Q 3103 4656 3366 4563 
z
" transform="scale(0.015625)"/>
       </defs>
       <use xlink:href="#DejaVuSans-36"/>
      </g>
     </g>
    </g>
    <g id="xtick_8">
     <g id="line2d_15">
      <path d="M 414.72 307.584 
L 414.72 41.472 
" clip-path="url(#p77c68f73d0)" style="fill: none; stroke: #b0b0b0; stroke-width: 0.8; stroke-linecap: square"/>
     </g>
     <g id="line2d_16">
      <g>
       <use xlink:href="#maa04c0b4a7" x="414.72" y="307.584" style="stroke: #000000; stroke-width: 0.8"/>
      </g>
     </g>
     <g id="text_8">
      <!-- 7 -->
      <g transform="translate(411.53875 322.182437) scale(0.1 -0.1)">
       <defs>
        <path id="DejaVuSans-37" d="M 525 4666 
L 3525 4666 
L 3525 4397 
L 1831 0 
L 1172 0 
L 2766 4134 
L 525 4134 
L 525 4666 
z
" transform="scale(0.015625)"/>
       </defs>
       <use xlink:href="#DejaVuSans-37"/>
      </g>
     </g>
    </g>
    <g id="text_9">
     <!-- x -->
     <g transform="translate(233.200625 335.860562) scale(0.1 -0.1)">
      <defs>
       <path id="DejaVuSans-78" d="M 3513 3500 
L 2247 1797 
L 3578 0 
L 2900 0 
L 1881 1375 
L 863 0 
L 184 0 
L 1544 1831 
L 300 3500 
L 978 3500 
L 1906 2253 
L 2834 3500 
L 3513 3500 
z
" transform="scale(0.015625)"/>
      </defs>
      <use xlink:href="#DejaVuSans-78"/>
     </g>
    </g>
   </g>
   <g id="matplotlib.axis_2">
    <g id="ytick_1">
     <g id="line2d_17">
      <path d="M 57.6 307.584 
L 414.72 307.584 
" clip-path="url(#p77c68f73d0)" style="fill: none; stroke: #b0b0b0; stroke-width: 0.8; stroke-linecap: square"/>
     </g>
     <g id="line2d_18">
      <defs>
       <path id="mf3c7f74334" d="M 0 0 
L -3.5 0 
" style="stroke: #000000; stroke-width: 0.8"/>
      </defs>
      <g>
       <use xlink:href="#mf3c7f74334" x="57.6" y="307.584" style="stroke: #000000; stroke-width: 0.8"/>
      </g>
     </g>
     <g id="text_10">
      <!-- 0.0 -->
      <g transform="translate(34.696875 311.383219) scale(0.1 -0.1)">
       <defs>
        <path id="DejaVuSans-2e" d="M 684 794 
L 1344 794 
L 1344 0 
L 684 0 
L 684 794 
z
" transform="scale(0.015625)"/>
       </defs>
       <use xlink:href="#DejaVuSans-30"/>
       <use xlink:href="#DejaVuSans-2e" x="63.623047"/>
       <use xlink:href="#DejaVuSans-30" x="95.410156"/>
      </g>
     </g>
    </g>
    <g id="ytick_2">
     <g id="line2d_19">
      <path d="M 57.6 254.3616 
L 414.72 254.3616 
" clip-path="url(#p77c68f73d0)" style="fill: none; stroke: #b0b0b0; stroke-width: 0.8; stroke-linecap: square"/>
     </g>
     <g id="line2d_20">
      <g>
       <use xlink:href="#mf3c7f74334" x="57.6" y="254.3616" style="stroke: #000000; stroke-width: 0.8"/>
      </g>
     </g>
     <g id="text_11">
      <!-- 0.2 -->
      <g transform="translate(34.696875 258.160819) scale(0.1 -0.1)">
       <use xlink:href="#DejaVuSans-30"/>
       <use xlink:href="#DejaVuSans-2e" x="63.623047"/>
       <use xlink:href="#DejaVuSans-32" x="95.410156"/>
      </g>
     </g>
    </g>
    <g id="ytick_3">
     <g id="line2d_21">
      <path d="M 57.6 201.1392 
L 414.72 201.1392 
" clip-path="url(#p77c68f73d0)" style="fill: none; stroke: #b0b0b0; stroke-width: 0.8; stroke-linecap: square"/>
     </g>
     <g id="line2d_22">
      <g>
       <use xlink:href="#mf3c7f74334" x="57.6" y="201.1392" style="stroke: #000000; stroke-width: 0.8"/>
      </g>
     </g>
     <g id="text_12">
      <!-- 0.4 -->
      <g transform="translate(34.696875 204.938419) scale(0.1 -0.1)">
       <use xlink:href="#DejaVuSans-30"/>
       <use xlink:href="#DejaVuSans-2e" x="63.623047"/>
       <use xlink:href="#DejaVuSans-34" x="95.410156"/>
      </g>
     </g>
    </g>
    <g id="ytick_4">
     <g id="line2d_23">
      <path d="M 57.6 147.9168 
L 414.72 147.9168 
" clip-path="url(#p77c68f73d0)" style="fill: none; stroke: #b0b0b0; stroke-width: 0.8; stroke-linecap: square"/>
     </g>
     <g id="line2d_24">
      <g>
       <use xlink:href="#mf3c7f74334" x="57.6" y="147.9168" style="stroke: #000000; stroke-width: 0.8"/>
      </g>
     </g>
     <g id="text_13">
      <!-- 0.6 -->
      <g transform="translate(34.696875 151.716019) scale(0.1 -0.1)">
       <use xlink:href="#DejaVuSans-30"/>
       <use xlink:href="#DejaVuSans-2e" x="63.623047"/>
       <use xlink:href="#DejaVuSans-36" x="95.410156"/>
      </g>
     </g>
    </g>
    <g id="ytick_5">
     <g id="line2d_25">
      <path d="M 57.6 94.6944 
L 414.72 94.6944 
" clip-path="url(#p77c68f73d0)" style="fill: none; stroke: #b0b0b0; stroke-width: 0.8; stroke-linecap: square"/>
     </g>
     <g id="line2d_26">
      <g>
       <use xlink:href="#mf3c7f74334" x="57.6" y="94.6944" style="stroke: #000000; stroke-width: 0.8"/>
      </g>
     </g>
     <g id="text_14">
      <!-- 0.8 -->
      <g transform="translate(34.696875 98.493619) scale(0.1 -0.1)">
       <defs>
        <path id="DejaVuSans-38" d="M 2034 2216 
Q 1584 2216 1326 1975 
Q 1069 1734 1069 1313 
Q 1069 891 1326 650 
Q 1584 409 2034 409 
Q 2484 409 2743 651 
Q 3003 894 3003 1313 
Q 3003 1734 2745 1975 
Q 2488 2216 2034 2216 
z
M 1403 2484 
Q 997 2584 770 2862 
Q 544 3141 544 3541 
Q 544 4100 942 4425 
Q 1341 4750 2034 4750 
Q 2731 4750 3128 4425 
Q 3525 4100 3525 3541 
Q 3525 3141 3298 2862 
Q 3072 2584 2669 2484 
Q 3125 2378 3379 2068 
Q 3634 1759 3634 1313 
Q 3634 634 3220 271 
Q 2806 -91 2034 -91 
Q 1263 -91 848 271 
Q 434 634 434 1313 
Q 434 1759 690 2068 
Q 947 2378 1403 2484 
z
M 1172 3481 
Q 1172 3119 1398 2916 
Q 1625 2713 2034 2713 
Q 2441 2713 2670 2916 
Q 2900 3119 2900 3481 
Q 2900 3844 2670 4047 
Q 2441 4250 2034 4250 
Q 1625 4250 1398 4047 
Q 1172 3844 1172 3481 
z
" transform="scale(0.015625)"/>
       </defs>
       <use xlink:href="#DejaVuSans-30"/>
       <use xlink:href="#DejaVuSans-2e" x="63.623047"/>
       <use xlink:href="#DejaVuSans-38" x="95.410156"/>
      </g>
     </g>
    </g>
    <g id="ytick_6">
     <g id="line2d_27">
      <path d="M 57.6 41.472 
L 414.72 41.472 
" clip-path="url(#p77c68f73d0)" style="fill: none; stroke: #b0b0b0; stroke-width: 0.8; stroke-linecap: square"/>
     </g>
     <g id="line2d_28">
      <g>
       <use xlink:href="#mf3c7f74334" x="57.6" y="41.472" style="stroke: #000000; stroke-width: 0.8"/>
      </g>
     </g>
     <g id="text_15">
      <!-- 1.0 -->
      <g transform="translate(34.696875 45.271219) scale(0.1 -0.1)">
       <use xlink:href="#DejaVuSans-31"/>
       <use xlink:href="#DejaVuSans-2e" x="63.623047"/>
       <use xlink:href="#DejaVuSans-30" x="95.410156"/>
      </g>
     </g>
    </g>
    <g id="text_16">
     <!-- Probability density -->
     <g transform="translate(28.617187 220.878781) rotate(-90) scale(0.1 -0.1)">
      <defs>
       <path id="DejaVuSans-50" d="M 1259 4147 
L 1259 2394 
L 2053 2394 
Q 2494 2394 2734 2622 
Q 2975 2850 2975 3272 
Q 2975 3691 2734 3919 
Q 2494 4147 2053 4147 
L 1259 4147 
z
M 628 4666 
L 2053 4666 
Q 2838 4666 3239 4311 
Q 3641 3956 3641 3272 
Q 3641 2581 3239 2228 
Q 2838 1875 2053 1875 
L 1259 1875 
L 1259 0 
L 628 0 
L 628 4666 
z
" transform="scale(0.015625)"/>
       <path id="DejaVuSans-72" d="M 2631 2963 
Q 2534 3019 2420 3045 
Q 2306 3072 2169 3072 
Q 1681 3072 1420 2755 
Q 1159 2438 1159 1844 
L 1159 0 
L 581 0 
L 581 3500 
L 1159 3500 
L 1159 2956 
Q 1341 3275 1631 3429 
Q 1922 3584 2338 3584 
Q 2397 3584 2469 3576 
Q 2541 3569 2628 3553 
L 2631 2963 
z
" transform="scale(0.015625)"/>
       <path id="DejaVuSans-6f" d="M 1959 3097 
Q 1497 3097 1228 2736 
Q 959 2375 959 1747 
Q 959 1119 1226 758 
Q 1494 397 1959 397 
Q 2419 397 2687 759 
Q 2956 1122 2956 1747 
Q 2956 2369 2687 2733 
Q 2419 3097 1959 3097 
z
M 1959 3584 
Q 2709 3584 3137 3096 
Q 3566 2609 3566 1747 
Q 3566 888 3137 398 
Q 2709 -91 1959 -91 
Q 1206 -91 779 398 
Q 353 888 353 1747 
Q 353 2609 779 3096 
Q 1206 3584 1959 3584 
z
" transform="scale(0.015625)"/>
       <path id="DejaVuSans-62" d="M 3116 1747 
Q 3116 2381 2855 2742 
Q 2594 3103 2138 3103 
Q 1681 3103 1420 2742 
Q 1159 2381 1159 1747 
Q 1159 1113 1420 752 
Q 1681 391 2138 391 
Q 2594 391 2855 752 
Q 3116 1113 3116 1747 
z
M 1159 2969 
Q 1341 3281 1617 3432 
Q 1894 3584 2278 3584 
Q 2916 3584 3314 3078 
Q 3713 2572 3713 1747 
Q 3713 922 3314 415 
Q 2916 -91 2278 -91 
Q 1894 -91 1617 61 
Q 1341 213 1159 525 
L 1159 0 
L 581 0 
L 581 4863 
L 1159 4863 
L 1159 2969 
z
" transform="scale(0.015625)"/>
       <path id="DejaVuSans-61" d="M 2194 1759 
Q 1497 1759 1228 1600 
Q 959 1441 959 1056 
Q 959 750 1161 570 
Q 1363 391 1709 391 
Q 2188 391 2477 730 
Q 2766 1069 2766 1631 
L 2766 1759 
L 2194 1759 
z
M 3341 1997 
L 3341 0 
L 2766 0 
L 2766 531 
Q 2569 213 2275 61 
Q 1981 -91 1556 -91 
Q 1019 -91 701 211 
Q 384 513 384 1019 
Q 384 1609 779 1909 
Q 1175 2209 1959 2209 
L 2766 2209 
L 2766 2266 
Q 2766 2663 2505 2880 
Q 2244 3097 1772 3097 
Q 1472 3097 1187 3025 
Q 903 2953 641 2809 
L 641 3341 
Q 956 3463 1253 3523 
Q 1550 3584 1831 3584 
Q 2591 3584 2966 3190 
Q 3341 2797 3341 1997 
z
" transform="scale(0.015625)"/>
       <path id="DejaVuSans-69" d="M 603 3500 
L 1178 3500 
L 1178 0 
L 603 0 
L 603 3500 
z
M 603 4863 
L 1178 4863 
L 1178 4134 
L 603 4134 
L 603 4863 
z
" transform="scale(0.015625)"/>
       <path id="DejaVuSans-6c" d="M 603 4863 
L 1178 4863 
L 1178 0 
L 603 0 
L 603 4863 
z
" transform="scale(0.015625)"/>
       <path id="DejaVuSans-74" d="M 1172 4494 
L 1172 3500 
L 2356 3500 
L 2356 3053 
L 1172 3053 
L 1172 1153 
Q 1172 725 1289 603 
Q 1406 481 1766 481 
L 2356 481 
L 2356 0 
L 1766 0 
Q 1100 0 847 248 
Q 594 497 594 1153 
L 594 3053 
L 172 3053 
L 172 3500 
L 594 3500 
L 594 4494 
L 1172 4494 
z
" transform="scale(0.015625)"/>
       <path id="DejaVuSans-79" d="M 2059 -325 
Q 1816 -950 1584 -1140 
Q 1353 -1331 966 -1331 
L 506 -1331 
L 506 -850 
L 844 -850 
Q 1081 -850 1212 -737 
Q 1344 -625 1503 -206 
L 1606 56 
L 191 3500 
L 800 3500 
L 1894 763 
L 2988 3500 
L 3597 3500 
L 2059 -325 
z
" transform="scale(0.015625)"/>
       <path id="DejaVuSans-20" transform="scale(0.015625)"/>
       <path id="DejaVuSans-64" d="M 2906 2969 
L 2906 4863 
L 3481 4863 
L 3481 0 
L 2906 0 
L 2906 525 
Q 2725 213 2448 61 
Q 2172 -91 1784 -91 
Q 1150 -91 751 415 
Q 353 922 353 1747 
Q 353 2572 751 3078 
Q 1150 3584 1784 3584 
Q 2172 3584 2448 3432 
Q 2725 3281 2906 2969 
z
M 947 1747 
Q 947 1113 1208 752 
Q 1469 391 1925 391 
Q 2381 391 2643 752 
Q 2906 1113 2906 1747 
Q 2906 2381 2643 2742 
Q 2381 3103 1925 3103 
Q 1469 3103 1208 2742 
Q 947 2381 947 1747 
z
" transform="scale(0.015625)"/>
       <path id="DejaVuSans-65" d="M 3597 1894 
L 3597 1613 
L 953 1613 
Q 991 1019 1311 708 
Q 1631 397 2203 397 
Q 2534 397 2845 478 
Q 3156 559 3463 722 
L 3463 178 
Q 3153 47 2828 -22 
Q 2503 -91 2169 -91 
Q 1331 -91 842 396 
Q 353 884 353 1716 
Q 353 2575 817 3079 
Q 1281 3584 2069 3584 
Q 2775 3584 3186 3129 
Q 3597 2675 3597 1894 
z
M 3022 2063 
Q 3016 2534 2758 2815 
Q 2500 3097 2075 3097 
Q 1594 3097 1305 2825 
Q 1016 2553 972 2059 
L 3022 2063 
z
" transform="scale(0.015625)"/>
       <path id="DejaVuSans-6e" d="M 3513 2113 
L 3513 0 
L 2938 0 
L 2938 2094 
Q 2938 2591 2744 2837 
Q 2550 3084 2163 3084 
Q 1697 3084 1428 2787 
Q 1159 2491 1159 1978 
L 1159 0 
L 581 0 
L 581 3500 
L 1159 3500 
L 1159 2956 
Q 1366 3272 1645 3428 
Q 1925 3584 2291 3584 
Q 2894 3584 3203 3211 
Q 3513 2838 3513 2113 
z
" transform="scale(0.015625)"/>
       <path id="DejaVuSans-73" d="M 2834 3397 
L 2834 2853 
Q 2591 2978 2328 3040 
Q 2066 3103 1784 3103 
Q 1356 3103 1142 2972 
Q 928 2841 928 2578 
Q 928 2378 1081 2264 
Q 1234 2150 1697 2047 
L 1894 2003 
Q 2506 1872 2764 1633 
Q 3022 1394 3022 966 
Q 3022 478 2636 193 
Q 2250 -91 1575 -91 
Q 1294 -91 989 -36 
Q 684 19 347 128 
L 347 722 
Q 666 556 975 473 
Q 1284 391 1588 391 
Q 1994 391 2212 530 
Q 2431 669 2431 922 
Q 2431 1156 2273 1281 
Q 2116 1406 1581 1522 
L 1381 1569 
Q 847 1681 609 1914 
Q 372 2147 372 2553 
Q 372 3047 722 3315 
Q 1072 3584 1716 3584 
Q 2034 3584 2315 3537 
Q 2597 3491 2834 3397 
z
" transform="scale(0.015625)"/>
      </defs>
      <use xlink:href="#DejaVuSans-50"/>
      <use xlink:href="#DejaVuSans-72" x="58.552734"/>
      <use xlink:href="#DejaVuSans-6f" x="97.416016"/>
      <use xlink:href="#DejaVuSans-62" x="158.597656"/>
      <use xlink:href="#DejaVuSans-61" x="222.074219"/>
      <use xlink:href="#DejaVuSans-62" x="283.353516"/>
      <use xlink:href="#DejaVuSans-69" x="346.830078"/>
      <use xlink:href="#DejaVuSans-6c" x="374.613281"/>
      <use xlink:href="#DejaVuSans-69" x="402.396484"/>
      <use xlink:href="#DejaVuSans-74" x="430.179688"/>
      <use xlink:href="#DejaVuSans-79" x="469.388672"/>
      <use xlink:href="#DejaVuSans-20" x="528.568359"/>
      <use xlink:href="#DejaVuSans-64" x="560.355469"/>
      <use xlink:href="#DejaVuSans-65" x="623.832031"/>
      <use xlink:href="#DejaVuSans-6e" x="685.355469"/>
      <use xlink:href="#DejaVuSans-73" x="748.734375"/>
      <use xlink:href="#DejaVuSans-69" x="800.833984"/>
      <use xlink:href="#DejaVuSans-74" x="828.617188"/>
      <use xlink:href="#DejaVuSans-79" x="867.826172"/>
     </g>
    </g>
   </g>
   <g id="line2d_29">
    <path d="M 57.6 41.472 
L 61.174775 59.480201 
L 64.74955 76.26976 
L 68.324324 91.923144 
L 71.899099 106.51724 
L 75.473874 120.123731 
L 79.048649 132.809451 
L 82.623423 144.636709 
L 86.198198 155.663598 
L 89.772973 165.944281 
L 93.347748 175.529255 
L 96.922523 184.465599 
L 100.497297 192.797207 
L 104.072072 200.565003 
L 107.646847 207.80714 
L 111.221622 214.559191 
L 114.796396 220.85432 
L 118.371171 226.723449 
L 121.945946 232.195404 
L 125.520721 237.297065 
L 129.452973 242.511055 
L 133.385225 247.338265 
L 137.317477 251.807384 
L 141.24973 255.944978 
L 145.181982 259.775638 
L 149.471712 263.631194 
L 153.761441 267.175814 
L 158.051171 270.434575 
L 162.340901 273.430529 
L 166.988108 276.404116 
L 171.635315 279.118807 
L 176.64 281.778596 
L 181.644685 284.189854 
L 187.006847 286.52389 
L 192.726486 288.75744 
L 198.446126 290.754109 
L 204.523243 292.644072 
L 210.957838 294.414398 
L 217.74991 296.056008 
L 225.256937 297.633419 
L 233.121441 299.05496 
L 241.700901 300.375156 
L 250.995315 301.575792 
L 261.362162 302.680627 
L 272.801441 303.665539 
L 285.670631 304.539165 
L 299.96973 305.283408 
L 316.771171 305.92894 
L 336.78991 306.466108 
L 361.455856 306.894672 
L 393.628829 307.217101 
L 414.72 307.341337 
L 414.72 307.341337 
" clip-path="url(#p77c68f73d0)" style="fill: none; stroke: #0000ff; stroke-width: 1.5; stroke-linecap: square"/>
   </g>
   <g id="line2d_30">
    <path d="M 57.6 307.584 
L 60.102342 295.156227 
L 62.604685 283.918179 
L 65.107027 273.784435 
L 67.609369 264.675027 
L 70.111712 256.515112 
L 72.256577 250.223413 
L 74.401441 244.536342 
L 76.546306 239.414777 
L 78.691171 234.821794 
L 80.836036 230.722549 
L 82.980901 227.084174 
L 85.125766 223.875667 
L 87.270631 221.067801 
L 89.415495 218.633024 
L 91.56036 216.545375 
L 93.705225 214.780398 
L 95.85009 213.315063 
L 97.994955 212.127689 
L 100.13982 211.197871 
L 102.284685 210.506415 
L 104.42955 210.03527 
L 106.574414 209.767467 
L 109.076757 209.690815 
L 111.579099 209.84561 
L 114.081441 210.20987 
L 116.941261 210.856546 
L 119.801081 211.72209 
L 123.018378 212.925421 
L 126.593153 214.508548 
L 130.525405 216.501726 
L 134.815135 218.921455 
L 139.81982 221.996406 
L 146.254414 226.233771 
L 155.191351 232.423072 
L 176.282523 247.130088 
L 184.861982 252.793935 
L 192.726486 257.719058 
L 200.233514 262.15102 
L 207.383063 266.112451 
L 214.532613 269.814724 
L 221.682162 273.257878 
L 228.831712 276.446375 
L 235.981261 279.38794 
L 243.130811 282.092632 
L 250.637838 284.690386 
L 258.144865 287.054505 
L 266.009369 289.297287 
L 274.231351 291.405125 
L 282.810811 293.367858 
L 291.747748 295.178768 
L 301.042162 296.834458 
L 311.051532 298.386238 
L 321.775856 299.814604 
L 333.215135 301.106345 
L 345.369369 302.25441 
L 358.953514 303.30751 
L 373.967568 304.239025 
L 390.769009 305.049808 
L 409.715315 305.736539 
L 414.72 305.885361 
L 414.72 305.885361 
" clip-path="url(#p77c68f73d0)" style="fill: none; stroke: #ff0000; stroke-width: 1.5; stroke-linecap: square"/>
   </g>
   <g id="line2d_31">
    <path d="M 57.6 307.584 
L 59.02991 307.482364 
L 60.45982 307.188693 
L 62.247207 306.57608 
L 64.034595 305.718185 
L 66.179459 304.403558 
L 68.324324 302.819153 
L 70.826667 300.683062 
L 73.686486 297.93272 
L 77.261261 294.1423 
L 81.550991 289.245611 
L 89.415495 279.848035 
L 96.922523 271.012443 
L 101.927207 265.453367 
L 106.216937 260.99159 
L 110.506667 256.856491 
L 114.438919 253.378893 
L 118.371171 250.216008 
L 121.945946 247.620666 
L 125.520721 245.294203 
L 129.095495 243.235465 
L 132.67027 241.440646 
L 136.245045 239.903752 
L 139.81982 238.61702 
L 143.394595 237.571276 
L 146.969369 236.756247 
L 150.544144 236.160834 
L 154.476396 235.74557 
L 158.408649 235.56579 
L 162.340901 235.605102 
L 166.630631 235.878515 
L 170.92036 236.371871 
L 175.567568 237.130436 
L 180.572252 238.179359 
L 185.934414 239.536221 
L 191.654054 241.21001 
L 198.088649 243.323425 
L 205.595676 246.030182 
L 214.89009 249.635934 
L 228.116757 255.033665 
L 253.14018 265.268832 
L 264.936937 269.830697 
L 275.661261 273.741261 
L 285.670631 277.158322 
L 295.322523 280.226376 
L 304.974414 283.066089 
L 314.626306 285.677892 
L 324.635676 288.150916 
L 334.645045 290.393164 
L 345.011892 292.48474 
L 355.736216 294.41713 
L 366.818018 296.185534 
L 378.257297 297.788655 
L 390.411532 299.268877 
L 403.280721 300.613395 
L 414.72 301.638763 
L 414.72 301.638763 
" clip-path="url(#p77c68f73d0)" style="fill: none; stroke: #008000; stroke-width: 1.5; stroke-linecap: square"/>
   </g>
   <g id="line2d_32">
    <path d="M 57.6 174.528 
L 62.962162 181.339874 
L 68.324324 187.803011 
L 73.686486 193.935263 
L 79.406126 200.130695 
L 85.125766 205.98839 
L 90.845405 211.52676 
L 96.565045 216.763211 
L 102.642162 222.014522 
L 108.719279 226.962199 
L 114.796396 231.623799 
L 120.873514 236.015862 
L 127.308108 240.389802 
L 133.742703 244.496425 
L 140.534775 248.559225 
L 147.326847 252.360383 
L 154.476396 256.097448 
L 161.625946 259.581621 
L 169.132973 262.986536 
L 176.64 266.149933 
L 184.504505 269.223574 
L 192.726486 272.193417 
L 201.305946 275.047528 
L 210.242883 277.776081 
L 219.537297 280.371321 
L 229.189189 282.827492 
L 239.198559 285.140741 
L 249.565405 287.308998 
L 260.647207 289.395671 
L 272.086486 291.324652 
L 284.240721 293.150544 
L 297.10991 294.860855 
L 311.051532 296.485765 
L 326.065586 298.00437 
L 342.152072 299.401634 
L 359.310991 300.668169 
L 378.257297 301.840163 
L 398.990991 302.896383 
L 414.72 303.566057 
L 414.72 303.566057 
" clip-path="url(#p77c68f73d0)" style="fill: none; stroke: #0000ff; stroke-opacity: 0.6; stroke-width: 1.5; stroke-linecap: square"/>
   </g>
   <g id="line2d_33">
    <path d="M 57.6 307.584 
L 61.532252 302.650074 
L 65.464505 298.089206 
L 69.396757 293.88024 
L 73.329009 290.003088 
L 77.261261 286.438676 
L 81.193514 283.1689 
L 85.125766 280.176576 
L 89.058018 277.445399 
L 93.347748 274.745615 
L 97.637477 272.319219 
L 101.927207 270.148277 
L 106.216937 268.215867 
L 110.864144 266.373109 
L 115.511351 264.772488 
L 120.158559 263.396094 
L 125.163243 262.145347 
L 130.167928 261.115575 
L 135.53009 260.23671 
L 141.24973 259.532201 
L 147.326847 259.02149 
L 153.403964 258.730485 
L 160.196036 258.636172 
L 167.345586 258.768375 
L 174.852613 259.128651 
L 183.074595 259.745308 
L 192.369009 260.675324 
L 202.735856 261.947446 
L 214.532613 263.625779 
L 228.831712 265.892357 
L 248.492973 269.251303 
L 305.331892 279.084676 
L 326.065586 282.378737 
L 345.369369 285.223405 
L 364.315676 287.790049 
L 383.261982 290.128942 
L 402.208288 292.243564 
L 414.72 293.521199 
L 414.72 293.521199 
" clip-path="url(#p77c68f73d0)" style="fill: none; stroke: #ff0000; stroke-opacity: 0.6; stroke-width: 1.5; stroke-linecap: square"/>
   </g>
   <g id="line2d_34">
    <path d="M 57.6 307.584 
L 61.88973 307.471251 
L 66.536937 307.116426 
L 71.541622 306.500576 
L 76.903784 305.613242 
L 82.980901 304.374066 
L 89.772973 302.75836 
L 97.994955 300.565714 
L 109.076757 297.35976 
L 142.322162 287.59006 
L 153.403964 284.648766 
L 163.413333 282.220246 
L 173.065225 280.108016 
L 182.35964 278.29944 
L 191.654054 276.717312 
L 200.948468 275.361749 
L 210.242883 274.228879 
L 219.894775 273.280647 
L 229.546667 272.554567 
L 239.556036 272.022911 
L 249.922883 271.69354 
L 261.004685 271.570039 
L 272.443964 271.666539 
L 284.598198 271.990446 
L 297.824865 272.568122 
L 312.123964 273.415621 
L 328.21045 274.593698 
L 347.156757 276.213438 
L 370.75027 278.467576 
L 409.00036 282.382246 
L 414.72 282.974099 
L 414.72 282.974099 
" clip-path="url(#p77c68f73d0)" style="fill: none; stroke: #008000; stroke-opacity: 0.6; stroke-width: 1.5; stroke-linecap: square"/>
   </g>
   <g id="patch_3">
    <path d="M 57.6 307.584 
L 57.6 41.472 
" style="fill: none; stroke: #000000; stroke-width: 0.8; stroke-linejoin: miter; stroke-linecap: square"/>
   </g>
   <g id="patch_4">
    <path d="M 414.72 307.584 
L 414.72 41.472 
" style="fill: none; stroke: #000000; stroke-width: 0.8; stroke-linejoin: miter; stroke-linecap: square"/>
   </g>
   <g id="patch_5">
    <path d="M 57.6 307.584 
L 414.72 307.584 
" style="fill: none; stroke: #000000; stroke-width: 0.8; stroke-linejoin: miter; stroke-linecap: square"/>
   </g>
   <g id="patch_6">
    <path d="M 57.6 41.472 
L 414.72 41.472 
" style="fill: none; stroke: #000000; stroke-width: 0.8; stroke-linejoin: miter; stroke-linecap: square"/>
   </g>
   <g id="text_17">
    <!-- Gamma distribution -->
    <g transform="translate(176.37 35.472) scale(0.12 -0.12)">
     <defs>
      <path id="DejaVuSans-47" d="M 3809 666 
L 3809 1919 
L 2778 1919 
L 2778 2438 
L 4434 2438 
L 4434 434 
Q 4069 175 3628 42 
Q 3188 -91 2688 -91 
Q 1594 -91 976 548 
Q 359 1188 359 2328 
Q 359 3472 976 4111 
Q 1594 4750 2688 4750 
Q 3144 4750 3555 4637 
Q 3966 4525 4313 4306 
L 4313 3634 
Q 3963 3931 3569 4081 
Q 3175 4231 2741 4231 
Q 1884 4231 1454 3753 
Q 1025 3275 1025 2328 
Q 1025 1384 1454 906 
Q 1884 428 2741 428 
Q 3075 428 3337 486 
Q 3600 544 3809 666 
z
" transform="scale(0.015625)"/>
      <path id="DejaVuSans-6d" d="M 3328 2828 
Q 3544 3216 3844 3400 
Q 4144 3584 4550 3584 
Q 5097 3584 5394 3201 
Q 5691 2819 5691 2113 
L 5691 0 
L 5113 0 
L 5113 2094 
Q 5113 2597 4934 2840 
Q 4756 3084 4391 3084 
Q 3944 3084 3684 2787 
Q 3425 2491 3425 1978 
L 3425 0 
L 2847 0 
L 2847 2094 
Q 2847 2600 2669 2842 
Q 2491 3084 2119 3084 
Q 1678 3084 1418 2786 
Q 1159 2488 1159 1978 
L 1159 0 
L 581 0 
L 581 3500 
L 1159 3500 
L 1159 2956 
Q 1356 3278 1631 3431 
Q 1906 3584 2284 3584 
Q 2666 3584 2933 3390 
Q 3200 3197 3328 2828 
z
" transform="scale(0.015625)"/>
      <path id="DejaVuSans-75" d="M 544 1381 
L 544 3500 
L 1119 3500 
L 1119 1403 
Q 1119 906 1312 657 
Q 1506 409 1894 409 
Q 2359 409 2629 706 
Q 2900 1003 2900 1516 
L 2900 3500 
L 3475 3500 
L 3475 0 
L 2900 0 
L 2900 538 
Q 2691 219 2414 64 
Q 2138 -91 1772 -91 
Q 1169 -91 856 284 
Q 544 659 544 1381 
z
M 1991 3584 
L 1991 3584 
z
" transform="scale(0.015625)"/>
     </defs>
     <use xlink:href="#DejaVuSans-47"/>
     <use xlink:href="#DejaVuSans-61" x="77.490234"/>
     <use xlink:href="#DejaVuSans-6d" x="138.769531"/>
     <use xlink:href="#DejaVuSans-6d" x="236.181641"/>
     <use xlink:href="#DejaVuSans-61" x="333.59375"/>
     <use xlink:href="#DejaVuSans-20" x="394.873047"/>
     <use xlink:href="#DejaVuSans-64" x="426.660156"/>
     <use xlink:href="#DejaVuSans-69" x="490.136719"/>
     <use xlink:href="#DejaVuSans-73" x="517.919922"/>
     <use xlink:href="#DejaVuSans-74" x="570.019531"/>
     <use xlink:href="#DejaVuSans-72" x="609.228516"/>
     <use xlink:href="#DejaVuSans-69" x="650.341797"/>
     <use xlink:href="#DejaVuSans-62" x="678.125"/>
     <use xlink:href="#DejaVuSans-75" x="741.601562"/>
     <use xlink:href="#DejaVuSans-74" x="804.980469"/>
     <use xlink:href="#DejaVuSans-69" x="844.189453"/>
     <use xlink:href="#DejaVuSans-6f" x="871.972656"/>
     <use xlink:href="#DejaVuSans-6e" x="933.154297"/>
    </g>
   </g>
   <g id="legend_1">
    <g id="patch_7">
     <path d="M 315.2575 137.54075 
L 407.72 137.54075 
Q 409.72 137.54075 409.72 135.54075 
L 409.72 48.472 
Q 409.72 46.472 407.72 46.472 
L 315.2575 46.472 
Q 313.2575 46.472 313.2575 48.472 
L 313.2575 135.54075 
Q 313.2575 137.54075 315.2575 137.54075 
z
" style="fill: #ffffff; opacity: 0.8; stroke: #cccccc; stroke-linejoin: miter"/>
    </g>
    <g id="line2d_35">
     <path d="M 317.2575 54.570438 
L 327.2575 54.570438 
L 337.2575 54.570438 
" style="fill: none; stroke: #0000ff; stroke-width: 1.5; stroke-linecap: square"/>
    </g>
    <g id="text_18">
     <!-- k = 1, θ = 1 -->
     <g transform="translate(345.2575 58.070438) scale(0.1 -0.1)">
      <defs>
       <path id="DejaVuSans-6b" d="M 581 4863 
L 1159 4863 
L 1159 1991 
L 2875 3500 
L 3609 3500 
L 1753 1863 
L 3688 0 
L 2938 0 
L 1159 1709 
L 1159 0 
L 581 0 
L 581 4863 
z
" transform="scale(0.015625)"/>
       <path id="DejaVuSans-3d" d="M 678 2906 
L 4684 2906 
L 4684 2381 
L 678 2381 
L 678 2906 
z
M 678 1631 
L 4684 1631 
L 4684 1100 
L 678 1100 
L 678 1631 
z
" transform="scale(0.015625)"/>
       <path id="DejaVuSans-2c" d="M 750 794 
L 1409 794 
L 1409 256 
L 897 -744 
L 494 -744 
L 750 256 
L 750 794 
z
" transform="scale(0.015625)"/>
       <path id="DejaVuSans-3b8" d="M 2953 2219 
L 963 2219 
Q 1009 1284 1225 888 
Q 1494 400 1959 400 
Q 2428 400 2688 891 
Q 2916 1322 2953 2219 
z
M 2944 2750 
Q 2856 3638 2688 3950 
Q 2419 4444 1959 4444 
Q 1481 4444 1228 3956 
Q 1028 3563 969 2750 
L 2944 2750 
z
M 1959 4913 
Q 2709 4913 3138 4250 
Q 3566 3591 3566 2422 
Q 3566 1256 3138 594 
Q 2709 -72 1959 -72 
Q 1206 -72 781 594 
Q 353 1256 353 2422 
Q 353 3591 781 4250 
Q 1206 4913 1959 4913 
z
" transform="scale(0.015625)"/>
      </defs>
      <use xlink:href="#DejaVuSans-6b"/>
      <use xlink:href="#DejaVuSans-20" x="57.910156"/>
      <use xlink:href="#DejaVuSans-3d" x="89.697266"/>
      <use xlink:href="#DejaVuSans-20" x="173.486328"/>
      <use xlink:href="#DejaVuSans-31" x="205.273438"/>
      <use xlink:href="#DejaVuSans-2c" x="268.896484"/>
      <use xlink:href="#DejaVuSans-20" x="300.683594"/>
      <use xlink:href="#DejaVuSans-3b8" x="332.470703"/>
      <use xlink:href="#DejaVuSans-20" x="393.652344"/>
      <use xlink:href="#DejaVuSans-3d" x="425.439453"/>
      <use xlink:href="#DejaVuSans-20" x="509.228516"/>
      <use xlink:href="#DejaVuSans-31" x="541.015625"/>
     </g>
    </g>
    <g id="line2d_36">
     <path d="M 317.2575 69.248563 
L 327.2575 69.248563 
L 337.2575 69.248563 
" style="fill: none; stroke: #ff0000; stroke-width: 1.5; stroke-linecap: square"/>
    </g>
    <g id="text_19">
     <!-- k = 2, θ = 1 -->
     <g transform="translate(345.2575 72.748563) scale(0.1 -0.1)">
      <use xlink:href="#DejaVuSans-6b"/>
      <use xlink:href="#DejaVuSans-20" x="57.910156"/>
      <use xlink:href="#DejaVuSans-3d" x="89.697266"/>
      <use xlink:href="#DejaVuSans-20" x="173.486328"/>
      <use xlink:href="#DejaVuSans-32" x="205.273438"/>
      <use xlink:href="#DejaVuSans-2c" x="268.896484"/>
      <use xlink:href="#DejaVuSans-20" x="300.683594"/>
      <use xlink:href="#DejaVuSans-3b8" x="332.470703"/>
      <use xlink:href="#DejaVuSans-20" x="393.652344"/>
      <use xlink:href="#DejaVuSans-3d" x="425.439453"/>
      <use xlink:href="#DejaVuSans-20" x="509.228516"/>
      <use xlink:href="#DejaVuSans-31" x="541.015625"/>
     </g>
    </g>
    <g id="line2d_37">
     <path d="M 317.2575 83.926688 
L 327.2575 83.926688 
L 337.2575 83.926688 
" style="fill: none; stroke: #008000; stroke-width: 1.5; stroke-linecap: square"/>
    </g>
    <g id="text_20">
     <!-- k = 3, θ = 1 -->
     <g transform="translate(345.2575 87.426688) scale(0.1 -0.1)">
      <use xlink:href="#DejaVuSans-6b"/>
      <use xlink:href="#DejaVuSans-20" x="57.910156"/>
      <use xlink:href="#DejaVuSans-3d" x="89.697266"/>
      <use xlink:href="#DejaVuSans-20" x="173.486328"/>
      <use xlink:href="#DejaVuSans-33" x="205.273438"/>
      <use xlink:href="#DejaVuSans-2c" x="268.896484"/>
      <use xlink:href="#DejaVuSans-20" x="300.683594"/>
      <use xlink:href="#DejaVuSans-3b8" x="332.470703"/>
      <use xlink:href="#DejaVuSans-20" x="393.652344"/>
      <use xlink:href="#DejaVuSans-3d" x="425.439453"/>
      <use xlink:href="#DejaVuSans-20" x="509.228516"/>
      <use xlink:href="#DejaVuSans-31" x="541.015625"/>
     </g>
    </g>
    <g id="line2d_38">
     <path d="M 317.2575 98.604813 
L 327.2575 98.604813 
L 337.2575 98.604813 
" style="fill: none; stroke: #0000ff; stroke-opacity: 0.6; stroke-width: 1.5; stroke-linecap: square"/>
    </g>
    <g id="text_21">
     <!-- k = 1, θ = 2 -->
     <g transform="translate(345.2575 102.104813) scale(0.1 -0.1)">
      <use xlink:href="#DejaVuSans-6b"/>
      <use xlink:href="#DejaVuSans-20" x="57.910156"/>
      <use xlink:href="#DejaVuSans-3d" x="89.697266"/>
      <use xlink:href="#DejaVuSans-20" x="173.486328"/>
      <use xlink:href="#DejaVuSans-31" x="205.273438"/>
      <use xlink:href="#DejaVuSans-2c" x="268.896484"/>
      <use xlink:href="#DejaVuSans-20" x="300.683594"/>
      <use xlink:href="#DejaVuSans-3b8" x="332.470703"/>
      <use xlink:href="#DejaVuSans-20" x="393.652344"/>
      <use xlink:href="#DejaVuSans-3d" x="425.439453"/>
      <use xlink:href="#DejaVuSans-20" x="509.228516"/>
      <use xlink:href="#DejaVuSans-32" x="541.015625"/>
     </g>
    </g>
    <g id="line2d_39">
     <path d="M 317.2575 113.282938 
L 327.2575 113.282938 
L 337.2575 113.282938 
" style="fill: none; stroke: #ff0000; stroke-opacity: 0.6; stroke-width: 1.5; stroke-linecap: square"/>
    </g>
    <g id="text_22">
     <!-- k = 2, θ = 2 -->
     <g transform="translate(345.2575 116.782938) scale(0.1 -0.1)">
      <use xlink:href="#DejaVuSans-6b"/>
      <use xlink:href="#DejaVuSans-20" x="57.910156"/>
      <use xlink:href="#DejaVuSans-3d" x="89.697266"/>
      <use xlink:href="#DejaVuSans-20" x="173.486328"/>
      <use xlink:href="#DejaVuSans-32" x="205.273438"/>
      <use xlink:href="#DejaVuSans-2c" x="268.896484"/>
      <use xlink:href="#DejaVuSans-20" x="300.683594"/>
      <use xlink:href="#DejaVuSans-3b8" x="332.470703"/>
      <use xlink:href="#DejaVuSans-20" x="393.652344"/>
      <use xlink:href="#DejaVuSans-3d" x="425.439453"/>
      <use xlink:href="#DejaVuSans-20" x="509.228516"/>
      <use xlink:href="#DejaVuSans-32" x="541.015625"/>
     </g>
    </g>
    <g id="line2d_40">
     <path d="M 317.2575 127.961063 
L 327.2575 127.961063 
L 337.2575 127.961063 
" style="fill: none; stroke: #008000; stroke-opacity: 0.6; stroke-width: 1.5; stroke-linecap: square"/>
    </g>
    <g id="text_23">
     <!-- k = 3, θ = 2 -->
     <g transform="translate(345.2575 131.461063) scale(0.1 -0.1)">
      <use xlink:href="#DejaVuSans-6b"/>
      <use xlink:href="#DejaVuSans-20" x="57.910156"/>
      <use xlink:href="#DejaVuSans-3d" x="89.697266"/>
      <use xlink:href="#DejaVuSans-20" x="173.486328"/>
      <use xlink:href="#DejaVuSans-33" x="205.273438"/>
      <use xlink:href="#DejaVuSans-2c" x="268.896484"/>
      <use xlink:href="#DejaVuSans-20" x="300.683594"/>
      <use xlink:href="#DejaVuSans-3b8" x="332.470703"/>
      <use xlink:href="#DejaVuSans-20" x="393.652344"/>
      <use xlink:href="#DejaVuSans-3d" x="425.439453"/>
      <use xlink:href="#DejaVuSans-20" x="509.228516"/>
      <use xlink:href="#DejaVuSans-32" x="541.015625"/>
     </g>
    </g>
   </g>
  </g>
 </g>
 <defs>
  <clipPath id="p77c68f73d0">
   <rect x="57.6" y="41.472" width="357.12" height="266.112"/>
  </clipPath>
 </defs>
</svg>
