<?xml version="1.0" encoding="utf-8" standalone="no"?>
<!DOCTYPE svg PUBLIC "-//W3C//DTD SVG 1.1//EN"
  "http://www.w3.org/Graphics/SVG/1.1/DTD/svg11.dtd">
<svg xmlns:xlink="http://www.w3.org/1999/xlink" width="460.8pt" height="345.6pt" viewBox="0 0 460.8 345.6" xmlns="http://www.w3.org/2000/svg" version="1.1">
 <metadata>
  <rdf:RDF xmlns:dc="http://purl.org/dc/elements/1.1/" xmlns:cc="http://creativecommons.org/ns#" xmlns:rdf="http://www.w3.org/1999/02/22-rdf-syntax-ns#">
   <cc:Work>
    <dc:type rdf:resource="http://purl.org/dc/dcmitype/StillImage"/>
    <dc:date>2024-05-03T20:15:44.705546</dc:date>
    <dc:format>image/svg+xml</dc:format>
    <dc:creator>
     <cc:Agent>
      <dc:title>Matplotlib v3.8.4, https://matplotlib.org/</dc:title>
     </cc:Agent>
    </dc:creator>
   </cc:Work>
  </rdf:RDF>
 </metadata>
 <defs>
  <style type="text/css">*{stroke-linejoin: round; stroke-linecap: butt}</style>
 </defs>
 <g id="figure_1">
  <g id="patch_1">
   <path d="M 0 345.6 
L 460.8 345.6 
L 460.8 0 
L 0 0 
z
" style="fill: #ffffff"/>
  </g>
  <g id="axes_1">
   <g id="patch_2">
    <path d="M 57.6 307.584 
L 414.72 307.584 
L 414.72 41.472 
L 57.6 41.472 
z
" style="fill: #ffffff"/>
   </g>
   <g id="matplotlib.axis_1">
    <g id="xtick_1">
     <g id="line2d_1">
      <path d="M 57.6 307.584 
L 57.6 41.472 
" clip-path="url(#pd1abda3bba)" style="fill: none; stroke: #b0b0b0; stroke-width: 0.8; stroke-linecap: square"/>
     </g>
     <g id="line2d_2">
      <defs>
       <path id="m5dd4082538" d="M 0 0 
L 0 3.5 
" style="stroke: #000000; stroke-width: 0.8"/>
      </defs>
      <g>
       <use xlink:href="#m5dd4082538" x="57.6" y="307.584" style="stroke: #000000; stroke-width: 0.8"/>
      </g>
     </g>
     <g id="text_1">
      <!-- 0 -->
      <g transform="translate(54.41875 322.182437) scale(0.1 -0.1)">
       <defs>
        <path id="DejaVuSans-30" d="M 2034 4250 
Q 1547 4250 1301 3770 
Q 1056 3291 1056 2328 
Q 1056 1369 1301 889 
Q 1547 409 2034 409 
Q 2525 409 2770 889 
Q 3016 1369 3016 2328 
Q 3016 3291 2770 3770 
Q 2525 4250 2034 4250 
z
M 2034 4750 
Q 2819 4750 3233 4129 
Q 3647 3509 3647 2328 
Q 3647 1150 3233 529 
Q 2819 -91 2034 -91 
Q 1250 -91 836 529 
Q 422 1150 422 2328 
Q 422 3509 836 4129 
Q 1250 4750 2034 4750 
z
" transform="scale(0.015625)"/>
       </defs>
       <use xlink:href="#DejaVuSans-30"/>
      </g>
     </g>
    </g>
    <g id="xtick_2">
     <g id="line2d_3">
      <path d="M 129.024 307.584 
L 129.024 41.472 
" clip-path="url(#pd1abda3bba)" style="fill: none; stroke: #b0b0b0; stroke-width: 0.8; stroke-linecap: square"/>
     </g>
     <g id="line2d_4">
      <g>
       <use xlink:href="#m5dd4082538" x="129.024" y="307.584" style="stroke: #000000; stroke-width: 0.8"/>
      </g>
     </g>
     <g id="text_2">
      <!-- 1 -->
      <g transform="translate(125.84275 322.182437) scale(0.1 -0.1)">
       <defs>
        <path id="DejaVuSans-31" d="M 794 531 
L 1825 531 
L 1825 4091 
L 703 3866 
L 703 4441 
L 1819 4666 
L 2450 4666 
L 2450 531 
L 3481 531 
L 3481 0 
L 794 0 
L 794 531 
z
" transform="scale(0.015625)"/>
       </defs>
       <use xlink:href="#DejaVuSans-31"/>
      </g>
     </g>
    </g>
    <g id="xtick_3">
     <g id="line2d_5">
      <path d="M 200.448 307.584 
L 200.448 41.472 
" clip-path="url(#pd1abda3bba)" style="fill: none; stroke: #b0b0b0; stroke-width: 0.8; stroke-linecap: square"/>
     </g>
     <g id="line2d_6">
      <g>
       <use xlink:href="#m5dd4082538" x="200.448" y="307.584" style="stroke: #000000; stroke-width: 0.8"/>
      </g>
     </g>
     <g id="text_3">
      <!-- 2 -->
      <g transform="translate(197.26675 322.182437) scale(0.1 -0.1)">
       <defs>
        <path id="DejaVuSans-32" d="M 1228 531 
L 3431 531 
L 3431 0 
L 469 0 
L 469 531 
Q 828 903 1448 1529 
Q 2069 2156 2228 2338 
Q 2531 2678 2651 2914 
Q 2772 3150 2772 3378 
Q 2772 3750 2511 3984 
Q 2250 4219 1831 4219 
Q 1534 4219 1204 4116 
Q 875 4013 500 3803 
L 500 4441 
Q 881 4594 1212 4672 
Q 1544 4750 1819 4750 
Q 2544 4750 2975 4387 
Q 3406 4025 3406 3419 
Q 3406 3131 3298 2873 
Q 3191 2616 2906 2266 
Q 2828 2175 2409 1742 
Q 1991 1309 1228 531 
z
" transform="scale(0.015625)"/>
       </defs>
       <use xlink:href="#DejaVuSans-32"/>
      </g>
     </g>
    </g>
    <g id="xtick_4">
     <g id="line2d_7">
      <path d="M 271.872 307.584 
L 271.872 41.472 
" clip-path="url(#pd1abda3bba)" style="fill: none; stroke: #b0b0b0; stroke-width: 0.8; stroke-linecap: square"/>
     </g>
     <g id="line2d_8">
      <g>
       <use xlink:href="#m5dd4082538" x="271.872" y="307.584" style="stroke: #000000; stroke-width: 0.8"/>
      </g>
     </g>
     <g id="text_4">
      <!-- 3 -->
      <g transform="translate(268.69075 322.182437) scale(0.1 -0.1)">
       <defs>
        <path id="DejaVuSans-33" d="M 2597 2516 
Q 3050 2419 3304 2112 
Q 3559 1806 3559 1356 
Q 3559 666 3084 287 
Q 2609 -91 1734 -91 
Q 1441 -91 1130 -33 
Q 819 25 488 141 
L 488 750 
Q 750 597 1062 519 
Q 1375 441 1716 441 
Q 2309 441 2620 675 
Q 2931 909 2931 1356 
Q 2931 1769 2642 2001 
Q 2353 2234 1838 2234 
L 1294 2234 
L 1294 2753 
L 1863 2753 
Q 2328 2753 2575 2939 
Q 2822 3125 2822 3475 
Q 2822 3834 2567 4026 
Q 2313 4219 1838 4219 
Q 1578 4219 1281 4162 
Q 984 4106 628 3988 
L 628 4550 
Q 988 4650 1302 4700 
Q 1616 4750 1894 4750 
Q 2613 4750 3031 4423 
Q 3450 4097 3450 3541 
Q 3450 3153 3228 2886 
Q 3006 2619 2597 2516 
z
" transform="scale(0.015625)"/>
       </defs>
       <use xlink:href="#DejaVuSans-33"/>
      </g>
     </g>
    </g>
    <g id="xtick_5">
     <g id="line2d_9">
      <path d="M 343.296 307.584 
L 343.296 41.472 
" clip-path="url(#pd1abda3bba)" style="fill: none; stroke: #b0b0b0; stroke-width: 0.8; stroke-linecap: square"/>
     </g>
     <g id="line2d_10">
      <g>
       <use xlink:href="#m5dd4082538" x="343.296" y="307.584" style="stroke: #000000; stroke-width: 0.8"/>
      </g>
     </g>
     <g id="text_5">
      <!-- 4 -->
      <g transform="translate(340.11475 322.182437) scale(0.1 -0.1)">
       <defs>
        <path id="DejaVuSans-34" d="M 2419 4116 
L 825 1625 
L 2419 1625 
L 2419 4116 
z
M 2253 4666 
L 3047 4666 
L 3047 1625 
L 3713 1625 
L 3713 1100 
L 3047 1100 
L 3047 0 
L 2419 0 
L 2419 1100 
L 313 1100 
L 313 1709 
L 2253 4666 
z
" transform="scale(0.015625)"/>
       </defs>
       <use xlink:href="#DejaVuSans-34"/>
      </g>
     </g>
    </g>
    <g id="xtick_6">
     <g id="line2d_11">
      <path d="M 414.72 307.584 
L 414.72 41.472 
" clip-path="url(#pd1abda3bba)" style="fill: none; stroke: #b0b0b0; stroke-width: 0.8; stroke-linecap: square"/>
     </g>
     <g id="line2d_12">
      <g>
       <use xlink:href="#m5dd4082538" x="414.72" y="307.584" style="stroke: #000000; stroke-width: 0.8"/>
      </g>
     </g>
     <g id="text_6">
      <!-- 5 -->
      <g transform="translate(411.53875 322.182437) scale(0.1 -0.1)">
       <defs>
        <path id="DejaVuSans-35" d="M 691 4666 
L 3169 4666 
L 3169 4134 
L 1269 4134 
L 1269 2991 
Q 1406 3038 1543 3061 
Q 1681 3084 1819 3084 
Q 2600 3084 3056 2656 
Q 3513 2228 3513 1497 
Q 3513 744 3044 326 
Q 2575 -91 1722 -91 
Q 1428 -91 1123 -41 
Q 819 9 494 109 
L 494 744 
Q 775 591 1075 516 
Q 1375 441 1709 441 
Q 2250 441 2565 725 
Q 2881 1009 2881 1497 
Q 2881 1984 2565 2268 
Q 2250 2553 1709 2553 
Q 1456 2553 1204 2497 
Q 953 2441 691 2322 
L 691 4666 
z
" transform="scale(0.015625)"/>
       </defs>
       <use xlink:href="#DejaVuSans-35"/>
      </g>
     </g>
    </g>
    <g id="text_7">
     <!-- x -->
     <g transform="translate(233.200625 335.860562) scale(0.1 -0.1)">
      <defs>
       <path id="DejaVuSans-78" d="M 3513 3500 
L 2247 1797 
L 3578 0 
L 2900 0 
L 1881 1375 
L 863 0 
L 184 0 
L 1544 1831 
L 300 3500 
L 978 3500 
L 1906 2253 
L 2834 3500 
L 3513 3500 
z
" transform="scale(0.015625)"/>
      </defs>
      <use xlink:href="#DejaVuSans-78"/>
     </g>
    </g>
   </g>
   <g id="matplotlib.axis_2">
    <g id="ytick_1">
     <g id="line2d_13">
      <path d="M 57.6 307.584 
L 414.72 307.584 
" clip-path="url(#pd1abda3bba)" style="fill: none; stroke: #b0b0b0; stroke-width: 0.8; stroke-linecap: square"/>
     </g>
     <g id="line2d_14">
      <defs>
       <path id="md27addb9ff" d="M 0 0 
L -3.5 0 
" style="stroke: #000000; stroke-width: 0.8"/>
      </defs>
      <g>
       <use xlink:href="#md27addb9ff" x="57.6" y="307.584" style="stroke: #000000; stroke-width: 0.8"/>
      </g>
     </g>
     <g id="text_8">
      <!-- 0.0 -->
      <g transform="translate(34.696875 311.383219) scale(0.1 -0.1)">
       <defs>
        <path id="DejaVuSans-2e" d="M 684 794 
L 1344 794 
L 1344 0 
L 684 0 
L 684 794 
z
" transform="scale(0.015625)"/>
       </defs>
       <use xlink:href="#DejaVuSans-30"/>
       <use xlink:href="#DejaVuSans-2e" x="63.623047"/>
       <use xlink:href="#DejaVuSans-30" x="95.410156"/>
      </g>
     </g>
    </g>
    <g id="ytick_2">
     <g id="line2d_15">
      <path d="M 57.6 273.159637 
L 414.72 273.159637 
" clip-path="url(#pd1abda3bba)" style="fill: none; stroke: #b0b0b0; stroke-width: 0.8; stroke-linecap: square"/>
     </g>
     <g id="line2d_16">
      <g>
       <use xlink:href="#md27addb9ff" x="57.6" y="273.159637" style="stroke: #000000; stroke-width: 0.8"/>
      </g>
     </g>
     <g id="text_9">
      <!-- 0.2 -->
      <g transform="translate(34.696875 276.958856) scale(0.1 -0.1)">
       <use xlink:href="#DejaVuSans-30"/>
       <use xlink:href="#DejaVuSans-2e" x="63.623047"/>
       <use xlink:href="#DejaVuSans-32" x="95.410156"/>
      </g>
     </g>
    </g>
    <g id="ytick_3">
     <g id="line2d_17">
      <path d="M 57.6 238.735274 
L 414.72 238.735274 
" clip-path="url(#pd1abda3bba)" style="fill: none; stroke: #b0b0b0; stroke-width: 0.8; stroke-linecap: square"/>
     </g>
     <g id="line2d_18">
      <g>
       <use xlink:href="#md27addb9ff" x="57.6" y="238.735274" style="stroke: #000000; stroke-width: 0.8"/>
      </g>
     </g>
     <g id="text_10">
      <!-- 0.4 -->
      <g transform="translate(34.696875 242.534493) scale(0.1 -0.1)">
       <use xlink:href="#DejaVuSans-30"/>
       <use xlink:href="#DejaVuSans-2e" x="63.623047"/>
       <use xlink:href="#DejaVuSans-34" x="95.410156"/>
      </g>
     </g>
    </g>
    <g id="ytick_4">
     <g id="line2d_19">
      <path d="M 57.6 204.310912 
L 414.72 204.310912 
" clip-path="url(#pd1abda3bba)" style="fill: none; stroke: #b0b0b0; stroke-width: 0.8; stroke-linecap: square"/>
     </g>
     <g id="line2d_20">
      <g>
       <use xlink:href="#md27addb9ff" x="57.6" y="204.310912" style="stroke: #000000; stroke-width: 0.8"/>
      </g>
     </g>
     <g id="text_11">
      <!-- 0.6 -->
      <g transform="translate(34.696875 208.11013) scale(0.1 -0.1)">
       <defs>
        <path id="DejaVuSans-36" d="M 2113 2584 
Q 1688 2584 1439 2293 
Q 1191 2003 1191 1497 
Q 1191 994 1439 701 
Q 1688 409 2113 409 
Q 2538 409 2786 701 
Q 3034 994 3034 1497 
Q 3034 2003 2786 2293 
Q 2538 2584 2113 2584 
z
M 3366 4563 
L 3366 3988 
Q 3128 4100 2886 4159 
Q 2644 4219 2406 4219 
Q 1781 4219 1451 3797 
Q 1122 3375 1075 2522 
Q 1259 2794 1537 2939 
Q 1816 3084 2150 3084 
Q 2853 3084 3261 2657 
Q 3669 2231 3669 1497 
Q 3669 778 3244 343 
Q 2819 -91 2113 -91 
Q 1303 -91 875 529 
Q 447 1150 447 2328 
Q 447 3434 972 4092 
Q 1497 4750 2381 4750 
Q 2619 4750 2861 4703 
Q 3103 4656 3366 4563 
z
" transform="scale(0.015625)"/>
       </defs>
       <use xlink:href="#DejaVuSans-30"/>
       <use xlink:href="#DejaVuSans-2e" x="63.623047"/>
       <use xlink:href="#DejaVuSans-36" x="95.410156"/>
      </g>
     </g>
    </g>
    <g id="ytick_5">
     <g id="line2d_21">
      <path d="M 57.6 169.886549 
L 414.72 169.886549 
" clip-path="url(#pd1abda3bba)" style="fill: none; stroke: #b0b0b0; stroke-width: 0.8; stroke-linecap: square"/>
     </g>
     <g id="line2d_22">
      <g>
       <use xlink:href="#md27addb9ff" x="57.6" y="169.886549" style="stroke: #000000; stroke-width: 0.8"/>
      </g>
     </g>
     <g id="text_12">
      <!-- 0.8 -->
      <g transform="translate(34.696875 173.685768) scale(0.1 -0.1)">
       <defs>
        <path id="DejaVuSans-38" d="M 2034 2216 
Q 1584 2216 1326 1975 
Q 1069 1734 1069 1313 
Q 1069 891 1326 650 
Q 1584 409 2034 409 
Q 2484 409 2743 651 
Q 3003 894 3003 1313 
Q 3003 1734 2745 1975 
Q 2488 2216 2034 2216 
z
M 1403 2484 
Q 997 2584 770 2862 
Q 544 3141 544 3541 
Q 544 4100 942 4425 
Q 1341 4750 2034 4750 
Q 2731 4750 3128 4425 
Q 3525 4100 3525 3541 
Q 3525 3141 3298 2862 
Q 3072 2584 2669 2484 
Q 3125 2378 3379 2068 
Q 3634 1759 3634 1313 
Q 3634 634 3220 271 
Q 2806 -91 2034 -91 
Q 1263 -91 848 271 
Q 434 634 434 1313 
Q 434 1759 690 2068 
Q 947 2378 1403 2484 
z
M 1172 3481 
Q 1172 3119 1398 2916 
Q 1625 2713 2034 2713 
Q 2441 2713 2670 2916 
Q 2900 3119 2900 3481 
Q 2900 3844 2670 4047 
Q 2441 4250 2034 4250 
Q 1625 4250 1398 4047 
Q 1172 3844 1172 3481 
z
" transform="scale(0.015625)"/>
       </defs>
       <use xlink:href="#DejaVuSans-30"/>
       <use xlink:href="#DejaVuSans-2e" x="63.623047"/>
       <use xlink:href="#DejaVuSans-38" x="95.410156"/>
      </g>
     </g>
    </g>
    <g id="ytick_6">
     <g id="line2d_23">
      <path d="M 57.6 135.462186 
L 414.72 135.462186 
" clip-path="url(#pd1abda3bba)" style="fill: none; stroke: #b0b0b0; stroke-width: 0.8; stroke-linecap: square"/>
     </g>
     <g id="line2d_24">
      <g>
       <use xlink:href="#md27addb9ff" x="57.6" y="135.462186" style="stroke: #000000; stroke-width: 0.8"/>
      </g>
     </g>
     <g id="text_13">
      <!-- 1.0 -->
      <g transform="translate(34.696875 139.261405) scale(0.1 -0.1)">
       <use xlink:href="#DejaVuSans-31"/>
       <use xlink:href="#DejaVuSans-2e" x="63.623047"/>
       <use xlink:href="#DejaVuSans-30" x="95.410156"/>
      </g>
     </g>
    </g>
    <g id="ytick_7">
     <g id="line2d_25">
      <path d="M 57.6 101.037823 
L 414.72 101.037823 
" clip-path="url(#pd1abda3bba)" style="fill: none; stroke: #b0b0b0; stroke-width: 0.8; stroke-linecap: square"/>
     </g>
     <g id="line2d_26">
      <g>
       <use xlink:href="#md27addb9ff" x="57.6" y="101.037823" style="stroke: #000000; stroke-width: 0.8"/>
      </g>
     </g>
     <g id="text_14">
      <!-- 1.2 -->
      <g transform="translate(34.696875 104.837042) scale(0.1 -0.1)">
       <use xlink:href="#DejaVuSans-31"/>
       <use xlink:href="#DejaVuSans-2e" x="63.623047"/>
       <use xlink:href="#DejaVuSans-32" x="95.410156"/>
      </g>
     </g>
    </g>
    <g id="ytick_8">
     <g id="line2d_27">
      <path d="M 57.6 66.61346 
L 414.72 66.61346 
" clip-path="url(#pd1abda3bba)" style="fill: none; stroke: #b0b0b0; stroke-width: 0.8; stroke-linecap: square"/>
     </g>
     <g id="line2d_28">
      <g>
       <use xlink:href="#md27addb9ff" x="57.6" y="66.61346" style="stroke: #000000; stroke-width: 0.8"/>
      </g>
     </g>
     <g id="text_15">
      <!-- 1.4 -->
      <g transform="translate(34.696875 70.412679) scale(0.1 -0.1)">
       <use xlink:href="#DejaVuSans-31"/>
       <use xlink:href="#DejaVuSans-2e" x="63.623047"/>
       <use xlink:href="#DejaVuSans-34" x="95.410156"/>
      </g>
     </g>
    </g>
    <g id="text_16">
     <!-- Probability density -->
     <g transform="translate(28.617187 220.878781) rotate(-90) scale(0.1 -0.1)">
      <defs>
       <path id="DejaVuSans-50" d="M 1259 4147 
L 1259 2394 
L 2053 2394 
Q 2494 2394 2734 2622 
Q 2975 2850 2975 3272 
Q 2975 3691 2734 3919 
Q 2494 4147 2053 4147 
L 1259 4147 
z
M 628 4666 
L 2053 4666 
Q 2838 4666 3239 4311 
Q 3641 3956 3641 3272 
Q 3641 2581 3239 2228 
Q 2838 1875 2053 1875 
L 1259 1875 
L 1259 0 
L 628 0 
L 628 4666 
z
" transform="scale(0.015625)"/>
       <path id="DejaVuSans-72" d="M 2631 2963 
Q 2534 3019 2420 3045 
Q 2306 3072 2169 3072 
Q 1681 3072 1420 2755 
Q 1159 2438 1159 1844 
L 1159 0 
L 581 0 
L 581 3500 
L 1159 3500 
L 1159 2956 
Q 1341 3275 1631 3429 
Q 1922 3584 2338 3584 
Q 2397 3584 2469 3576 
Q 2541 3569 2628 3553 
L 2631 2963 
z
" transform="scale(0.015625)"/>
       <path id="DejaVuSans-6f" d="M 1959 3097 
Q 1497 3097 1228 2736 
Q 959 2375 959 1747 
Q 959 1119 1226 758 
Q 1494 397 1959 397 
Q 2419 397 2687 759 
Q 2956 1122 2956 1747 
Q 2956 2369 2687 2733 
Q 2419 3097 1959 3097 
z
M 1959 3584 
Q 2709 3584 3137 3096 
Q 3566 2609 3566 1747 
Q 3566 888 3137 398 
Q 2709 -91 1959 -91 
Q 1206 -91 779 398 
Q 353 888 353 1747 
Q 353 2609 779 3096 
Q 1206 3584 1959 3584 
z
" transform="scale(0.015625)"/>
       <path id="DejaVuSans-62" d="M 3116 1747 
Q 3116 2381 2855 2742 
Q 2594 3103 2138 3103 
Q 1681 3103 1420 2742 
Q 1159 2381 1159 1747 
Q 1159 1113 1420 752 
Q 1681 391 2138 391 
Q 2594 391 2855 752 
Q 3116 1113 3116 1747 
z
M 1159 2969 
Q 1341 3281 1617 3432 
Q 1894 3584 2278 3584 
Q 2916 3584 3314 3078 
Q 3713 2572 3713 1747 
Q 3713 922 3314 415 
Q 2916 -91 2278 -91 
Q 1894 -91 1617 61 
Q 1341 213 1159 525 
L 1159 0 
L 581 0 
L 581 4863 
L 1159 4863 
L 1159 2969 
z
" transform="scale(0.015625)"/>
       <path id="DejaVuSans-61" d="M 2194 1759 
Q 1497 1759 1228 1600 
Q 959 1441 959 1056 
Q 959 750 1161 570 
Q 1363 391 1709 391 
Q 2188 391 2477 730 
Q 2766 1069 2766 1631 
L 2766 1759 
L 2194 1759 
z
M 3341 1997 
L 3341 0 
L 2766 0 
L 2766 531 
Q 2569 213 2275 61 
Q 1981 -91 1556 -91 
Q 1019 -91 701 211 
Q 384 513 384 1019 
Q 384 1609 779 1909 
Q 1175 2209 1959 2209 
L 2766 2209 
L 2766 2266 
Q 2766 2663 2505 2880 
Q 2244 3097 1772 3097 
Q 1472 3097 1187 3025 
Q 903 2953 641 2809 
L 641 3341 
Q 956 3463 1253 3523 
Q 1550 3584 1831 3584 
Q 2591 3584 2966 3190 
Q 3341 2797 3341 1997 
z
" transform="scale(0.015625)"/>
       <path id="DejaVuSans-69" d="M 603 3500 
L 1178 3500 
L 1178 0 
L 603 0 
L 603 3500 
z
M 603 4863 
L 1178 4863 
L 1178 4134 
L 603 4134 
L 603 4863 
z
" transform="scale(0.015625)"/>
       <path id="DejaVuSans-6c" d="M 603 4863 
L 1178 4863 
L 1178 0 
L 603 0 
L 603 4863 
z
" transform="scale(0.015625)"/>
       <path id="DejaVuSans-74" d="M 1172 4494 
L 1172 3500 
L 2356 3500 
L 2356 3053 
L 1172 3053 
L 1172 1153 
Q 1172 725 1289 603 
Q 1406 481 1766 481 
L 2356 481 
L 2356 0 
L 1766 0 
Q 1100 0 847 248 
Q 594 497 594 1153 
L 594 3053 
L 172 3053 
L 172 3500 
L 594 3500 
L 594 4494 
L 1172 4494 
z
" transform="scale(0.015625)"/>
       <path id="DejaVuSans-79" d="M 2059 -325 
Q 1816 -950 1584 -1140 
Q 1353 -1331 966 -1331 
L 506 -1331 
L 506 -850 
L 844 -850 
Q 1081 -850 1212 -737 
Q 1344 -625 1503 -206 
L 1606 56 
L 191 3500 
L 800 3500 
L 1894 763 
L 2988 3500 
L 3597 3500 
L 2059 -325 
z
" transform="scale(0.015625)"/>
       <path id="DejaVuSans-20" transform="scale(0.015625)"/>
       <path id="DejaVuSans-64" d="M 2906 2969 
L 2906 4863 
L 3481 4863 
L 3481 0 
L 2906 0 
L 2906 525 
Q 2725 213 2448 61 
Q 2172 -91 1784 -91 
Q 1150 -91 751 415 
Q 353 922 353 1747 
Q 353 2572 751 3078 
Q 1150 3584 1784 3584 
Q 2172 3584 2448 3432 
Q 2725 3281 2906 2969 
z
M 947 1747 
Q 947 1113 1208 752 
Q 1469 391 1925 391 
Q 2381 391 2643 752 
Q 2906 1113 2906 1747 
Q 2906 2381 2643 2742 
Q 2381 3103 1925 3103 
Q 1469 3103 1208 2742 
Q 947 2381 947 1747 
z
" transform="scale(0.015625)"/>
       <path id="DejaVuSans-65" d="M 3597 1894 
L 3597 1613 
L 953 1613 
Q 991 1019 1311 708 
Q 1631 397 2203 397 
Q 2534 397 2845 478 
Q 3156 559 3463 722 
L 3463 178 
Q 3153 47 2828 -22 
Q 2503 -91 2169 -91 
Q 1331 -91 842 396 
Q 353 884 353 1716 
Q 353 2575 817 3079 
Q 1281 3584 2069 3584 
Q 2775 3584 3186 3129 
Q 3597 2675 3597 1894 
z
M 3022 2063 
Q 3016 2534 2758 2815 
Q 2500 3097 2075 3097 
Q 1594 3097 1305 2825 
Q 1016 2553 972 2059 
L 3022 2063 
z
" transform="scale(0.015625)"/>
       <path id="DejaVuSans-6e" d="M 3513 2113 
L 3513 0 
L 2938 0 
L 2938 2094 
Q 2938 2591 2744 2837 
Q 2550 3084 2163 3084 
Q 1697 3084 1428 2787 
Q 1159 2491 1159 1978 
L 1159 0 
L 581 0 
L 581 3500 
L 1159 3500 
L 1159 2956 
Q 1366 3272 1645 3428 
Q 1925 3584 2291 3584 
Q 2894 3584 3203 3211 
Q 3513 2838 3513 2113 
z
" transform="scale(0.015625)"/>
       <path id="DejaVuSans-73" d="M 2834 3397 
L 2834 2853 
Q 2591 2978 2328 3040 
Q 2066 3103 1784 3103 
Q 1356 3103 1142 2972 
Q 928 2841 928 2578 
Q 928 2378 1081 2264 
Q 1234 2150 1697 2047 
L 1894 2003 
Q 2506 1872 2764 1633 
Q 3022 1394 3022 966 
Q 3022 478 2636 193 
Q 2250 -91 1575 -91 
Q 1294 -91 989 -36 
Q 684 19 347 128 
L 347 722 
Q 666 556 975 473 
Q 1284 391 1588 391 
Q 1994 391 2212 530 
Q 2431 669 2431 922 
Q 2431 1156 2273 1281 
Q 2116 1406 1581 1522 
L 1381 1569 
Q 847 1681 609 1914 
Q 372 2147 372 2553 
Q 372 3047 722 3315 
Q 1072 3584 1716 3584 
Q 2034 3584 2315 3537 
Q 2597 3491 2834 3397 
z
" transform="scale(0.015625)"/>
      </defs>
      <use xlink:href="#DejaVuSans-50"/>
      <use xlink:href="#DejaVuSans-72" x="58.552734"/>
      <use xlink:href="#DejaVuSans-6f" x="97.416016"/>
      <use xlink:href="#DejaVuSans-62" x="158.597656"/>
      <use xlink:href="#DejaVuSans-61" x="222.074219"/>
      <use xlink:href="#DejaVuSans-62" x="283.353516"/>
      <use xlink:href="#DejaVuSans-69" x="346.830078"/>
      <use xlink:href="#DejaVuSans-6c" x="374.613281"/>
      <use xlink:href="#DejaVuSans-69" x="402.396484"/>
      <use xlink:href="#DejaVuSans-74" x="430.179688"/>
      <use xlink:href="#DejaVuSans-79" x="469.388672"/>
      <use xlink:href="#DejaVuSans-20" x="528.568359"/>
      <use xlink:href="#DejaVuSans-64" x="560.355469"/>
      <use xlink:href="#DejaVuSans-65" x="623.832031"/>
      <use xlink:href="#DejaVuSans-6e" x="685.355469"/>
      <use xlink:href="#DejaVuSans-73" x="748.734375"/>
      <use xlink:href="#DejaVuSans-69" x="800.833984"/>
      <use xlink:href="#DejaVuSans-74" x="828.617188"/>
      <use xlink:href="#DejaVuSans-79" x="867.826172"/>
     </g>
    </g>
   </g>
   <g id="line2d_29">
    <path d="M 57.6 307.584 
L 57.957477 307.572938 
L 58.314955 307.412943 
L 58.672432 306.904631 
L 59.02991 305.948027 
L 59.744865 302.67851 
L 60.45982 297.906744 
L 61.532252 288.943014 
L 66.179459 247.069135 
L 67.609369 236.522693 
L 69.039279 227.466007 
L 70.469189 219.832393 
L 71.899099 213.502082 
L 73.329009 208.336758 
L 74.758919 204.197277 
L 75.831351 201.686463 
L 76.903784 199.627394 
L 77.976216 197.972925 
L 79.048649 196.679992 
L 80.121081 195.709484 
L 81.193514 195.026033 
L 82.265946 194.597749 
L 83.338378 194.39594 
L 84.410811 194.394832 
L 85.840721 194.665934 
L 87.270631 195.204683 
L 88.700541 195.969339 
L 90.487928 197.188415 
L 92.632793 198.959989 
L 95.135135 201.347618 
L 98.352432 204.766519 
L 102.99964 210.095893 
L 117.298739 226.741033 
L 122.660901 232.529036 
L 127.665586 237.598942 
L 132.312793 242.006461 
L 136.96 246.126064 
L 141.607207 249.966306 
L 146.611892 253.804199 
L 151.616577 257.351661 
L 156.621261 260.628675 
L 161.983423 263.862465 
L 167.345586 266.832826 
L 173.065225 269.736407 
L 178.784865 272.391687 
L 184.861982 274.96708 
L 191.296577 277.44564 
L 198.088649 279.814176 
L 205.238198 282.063035 
L 212.745225 284.18579 
L 220.60973 286.178877 
L 229.189189 288.117491 
L 238.126126 289.909306 
L 247.778018 291.61903 
L 258.144865 293.231404 
L 269.584144 294.781408 
L 282.095856 296.244724 
L 295.68 297.604671 
L 310.694054 298.879299 
L 327.495495 300.074194 
L 346.084324 301.167713 
L 367.175495 302.179213 
L 391.126486 303.099177 
L 414.72 303.823015 
L 414.72 303.823015 
" clip-path="url(#pd1abda3bba)" style="fill: none; stroke: #1f77b4; stroke-width: 1.5; stroke-linecap: square"/>
   </g>
   <g id="line2d_30">
    <path d="M 57.6 307.584 
L 65.821982 307.479933 
L 67.251892 307.247095 
L 68.324324 306.894651 
L 69.396757 306.316062 
L 70.469189 305.441438 
L 71.541622 304.204073 
L 72.614054 302.545748 
L 73.686486 300.420745 
L 74.758919 297.798379 
L 75.831351 294.664088 
L 77.261261 289.693337 
L 78.691171 283.860483 
L 80.478559 275.486379 
L 82.623423 264.152755 
L 85.483243 247.632724 
L 91.917838 209.982427 
L 94.42018 196.869637 
L 96.565045 186.802484 
L 98.352432 179.354484 
L 100.13982 172.815873 
L 101.927207 167.208491 
L 103.357117 163.393206 
L 104.787027 160.164722 
L 106.216937 157.507765 
L 107.646847 155.402039 
L 108.719279 154.170026 
L 109.791712 153.223141 
L 110.864144 152.549281 
L 111.936577 152.135798 
L 113.009009 151.969654 
L 114.081441 152.037574 
L 115.153874 152.326166 
L 116.226306 152.822042 
L 117.656216 153.782696 
L 119.086126 155.057251 
L 120.516036 156.61556 
L 122.303423 158.918293 
L 124.448288 162.131106 
L 126.593153 165.752497 
L 129.452973 171.080352 
L 132.67027 177.56739 
L 137.317477 187.472559 
L 148.756757 212.053607 
L 153.403964 221.419634 
L 157.693694 229.548593 
L 161.625946 236.515581 
L 165.200721 242.429822 
L 168.775495 247.941706 
L 172.35027 253.056824 
L 175.925045 257.786715 
L 179.49982 262.147093 
L 183.074595 266.156442 
L 186.649369 269.834926 
L 190.224144 273.203549 
L 193.798919 276.283526 
L 197.731171 279.363111 
L 201.663423 282.145825 
L 205.595676 284.657479 
L 209.885405 287.11688 
L 214.175135 289.312059 
L 218.822342 291.42336 
L 223.46955 293.287671 
L 228.474234 295.051515 
L 233.836396 296.695512 
L 239.556036 298.206254 
L 245.633153 299.576013 
L 252.067748 300.802191 
L 259.217297 301.938403 
L 267.081802 302.961926 
L 276.018739 303.893484 
L 286.028108 304.707415 
L 297.467387 305.411832 
L 311.051532 306.019397 
L 327.495495 306.523864 
L 348.229189 306.927049 
L 376.112432 307.231545 
L 414.72 307.429507 
L 414.72 307.429507 
" clip-path="url(#pd1abda3bba)" style="fill: none; stroke: #ff7f0e; stroke-width: 1.5; stroke-linecap: square"/>
   </g>
   <g id="line2d_31">
    <path d="M 57.6 307.584 
L 57.957477 102.024023 
L 58.314955 65.208275 
L 58.672432 55.142057 
L 59.02991 54.144 
L 59.387387 56.963639 
L 60.102342 66.888517 
L 62.604685 105.014447 
L 64.034595 122.85521 
L 65.464505 137.900439 
L 66.894414 150.695617 
L 68.324324 161.697696 
L 69.754234 171.259608 
L 71.541622 181.590863 
L 73.329009 190.481489 
L 75.116396 198.219567 
L 76.903784 205.02044 
L 78.691171 211.048248 
L 80.836036 217.438506 
L 82.980901 223.067692 
L 85.125766 228.066258 
L 87.270631 232.535999 
L 89.772973 237.189037 
L 92.275315 241.332857 
L 94.777658 245.047295 
L 97.28 248.396122 
L 100.13982 251.841406 
L 102.99964 254.938504 
L 106.216937 258.068631 
L 109.434234 260.878909 
L 113.009009 263.682396 
L 116.583784 266.199341 
L 120.516036 268.686158 
L 124.805766 271.112599 
L 129.095495 273.285003 
L 133.742703 275.394837 
L 138.747387 277.426088 
L 144.10955 279.367524 
L 150.186667 281.320313 
L 156.621261 283.147585 
L 163.770811 284.936299 
L 171.635315 286.660369 
L 180.214775 288.301513 
L 189.509189 289.848074 
L 199.876036 291.341712 
L 211.315315 292.760494 
L 224.184505 294.125651 
L 238.483604 295.414099 
L 254.57009 296.636969 
L 272.801441 297.796399 
L 293.535135 298.8893 
L 317.486126 299.924282 
L 345.369369 300.899094 
L 377.89982 301.806279 
L 414.72 302.61662 
L 414.72 302.61662 
" clip-path="url(#pd1abda3bba)" style="fill: none; stroke: #2ca02c; stroke-width: 1.5; stroke-linecap: square"/>
   </g>
   <g id="line2d_32">
    <path d="M 57.6 307.584 
L 57.957477 307.446006 
L 58.314955 306.075178 
L 58.672432 302.69122 
L 59.387387 290.539003 
L 60.45982 264.904612 
L 62.604685 212.145569 
L 63.677117 190.309644 
L 64.74955 172.216272 
L 65.821982 157.640388 
L 66.894414 146.184181 
L 67.966847 137.412821 
L 69.039279 130.9127 
L 69.754234 127.656275 
L 70.469189 125.146229 
L 71.184144 123.294671 
L 71.899099 122.022831 
L 72.614054 121.260387 
L 73.329009 120.944723 
L 74.043964 121.020195 
L 74.758919 121.43741 
L 75.473874 122.15257 
L 76.546306 123.700256 
L 77.618739 125.719124 
L 79.048649 128.98355 
L 80.836036 133.737475 
L 83.338378 141.187073 
L 87.628108 154.864511 
L 92.99027 171.806283 
L 96.565045 182.420838 
L 99.782342 191.357425 
L 102.99964 199.674244 
L 106.216937 207.373351 
L 109.434234 214.476771 
L 112.651532 221.017272 
L 115.868829 227.032702 
L 119.086126 232.562546 
L 122.303423 237.645871 
L 125.520721 242.320141 
L 128.738018 246.620585 
L 131.955315 250.579899 
L 135.53009 254.615542 
L 139.104865 258.304658 
L 142.67964 261.681078 
L 146.611892 265.070149 
L 150.544144 268.153633 
L 154.476396 270.963475 
L 158.766126 273.749818 
L 163.055856 276.276449 
L 167.703063 278.753351 
L 172.707748 281.153057 
L 177.712432 283.308213 
L 183.074595 285.379144 
L 188.794234 287.350552 
L 194.871351 289.211442 
L 201.305946 290.954702 
L 208.455495 292.656394 
L 215.962523 294.215847 
L 224.184505 295.697927 
L 233.121441 297.08418 
L 243.130811 298.406405 
L 254.212613 299.637902 
L 266.366847 300.761886 
L 279.950991 301.794714 
L 295.68 302.760357 
L 313.553874 303.628261 
L 334.287568 304.407188 
L 358.953514 305.10342 
L 388.624144 305.710087 
L 414.72 306.099672 
L 414.72 306.099672 
" clip-path="url(#pd1abda3bba)" style="fill: none; stroke: #d62728; stroke-width: 1.5; stroke-linecap: square"/>
   </g>
   <g id="line2d_33">
    <path d="M 57.6 307.584 
L 59.744865 307.494651 
L 60.817297 307.243051 
L 61.88973 306.785932 
L 62.962162 306.125931 
L 64.392072 304.969045 
L 66.179459 303.175097 
L 68.324324 300.683255 
L 72.256577 295.700628 
L 76.903784 289.886975 
L 80.121081 286.188177 
L 83.338378 282.84453 
L 86.198198 280.188307 
L 89.058018 277.826528 
L 91.917838 275.746579 
L 94.777658 273.930813 
L 97.637477 272.359256 
L 100.854775 270.857462 
L 104.072072 269.609782 
L 107.289369 268.588884 
L 110.864144 267.689807 
L 114.796396 266.95061 
L 118.728649 266.437045 
L 123.018378 266.095893 
L 127.665586 265.943238 
L 133.027748 265.997461 
L 139.104865 266.296982 
L 145.896937 266.861663 
L 154.118919 267.781418 
L 164.128288 269.13421 
L 178.427387 271.311191 
L 229.189189 279.218752 
L 247.778018 281.800788 
L 266.009369 284.110261 
L 284.598198 286.240662 
L 303.901982 288.22736 
L 324.278198 290.096593 
L 345.726847 291.838154 
L 368.605405 293.471175 
L 393.271351 295.006771 
L 414.72 296.178237 
L 414.72 296.178237 
" clip-path="url(#pd1abda3bba)" style="fill: none; stroke: #9467bd; stroke-width: 1.5; stroke-linecap: square"/>
   </g>
   <g id="patch_3">
    <path d="M 57.6 307.584 
L 57.6 41.472 
" style="fill: none; stroke: #000000; stroke-width: 0.8; stroke-linejoin: miter; stroke-linecap: square"/>
   </g>
   <g id="patch_4">
    <path d="M 414.72 307.584 
L 414.72 41.472 
" style="fill: none; stroke: #000000; stroke-width: 0.8; stroke-linejoin: miter; stroke-linecap: square"/>
   </g>
   <g id="patch_5">
    <path d="M 57.6 307.584 
L 414.72 307.584 
" style="fill: none; stroke: #000000; stroke-width: 0.8; stroke-linejoin: miter; stroke-linecap: square"/>
   </g>
   <g id="patch_6">
    <path d="M 57.6 41.472 
L 414.72 41.472 
" style="fill: none; stroke: #000000; stroke-width: 0.8; stroke-linejoin: miter; stroke-linecap: square"/>
   </g>
   <g id="text_17">
    <!-- Log-normal distribution -->
    <g transform="translate(166.155 35.472) scale(0.12 -0.12)">
     <defs>
      <path id="DejaVuSans-4c" d="M 628 4666 
L 1259 4666 
L 1259 531 
L 3531 531 
L 3531 0 
L 628 0 
L 628 4666 
z
" transform="scale(0.015625)"/>
      <path id="DejaVuSans-67" d="M 2906 1791 
Q 2906 2416 2648 2759 
Q 2391 3103 1925 3103 
Q 1463 3103 1205 2759 
Q 947 2416 947 1791 
Q 947 1169 1205 825 
Q 1463 481 1925 481 
Q 2391 481 2648 825 
Q 2906 1169 2906 1791 
z
M 3481 434 
Q 3481 -459 3084 -895 
Q 2688 -1331 1869 -1331 
Q 1566 -1331 1297 -1286 
Q 1028 -1241 775 -1147 
L 775 -588 
Q 1028 -725 1275 -790 
Q 1522 -856 1778 -856 
Q 2344 -856 2625 -561 
Q 2906 -266 2906 331 
L 2906 616 
Q 2728 306 2450 153 
Q 2172 0 1784 0 
Q 1141 0 747 490 
Q 353 981 353 1791 
Q 353 2603 747 3093 
Q 1141 3584 1784 3584 
Q 2172 3584 2450 3431 
Q 2728 3278 2906 2969 
L 2906 3500 
L 3481 3500 
L 3481 434 
z
" transform="scale(0.015625)"/>
      <path id="DejaVuSans-2d" d="M 313 2009 
L 1997 2009 
L 1997 1497 
L 313 1497 
L 313 2009 
z
" transform="scale(0.015625)"/>
      <path id="DejaVuSans-6d" d="M 3328 2828 
Q 3544 3216 3844 3400 
Q 4144 3584 4550 3584 
Q 5097 3584 5394 3201 
Q 5691 2819 5691 2113 
L 5691 0 
L 5113 0 
L 5113 2094 
Q 5113 2597 4934 2840 
Q 4756 3084 4391 3084 
Q 3944 3084 3684 2787 
Q 3425 2491 3425 1978 
L 3425 0 
L 2847 0 
L 2847 2094 
Q 2847 2600 2669 2842 
Q 2491 3084 2119 3084 
Q 1678 3084 1418 2786 
Q 1159 2488 1159 1978 
L 1159 0 
L 581 0 
L 581 3500 
L 1159 3500 
L 1159 2956 
Q 1356 3278 1631 3431 
Q 1906 3584 2284 3584 
Q 2666 3584 2933 3390 
Q 3200 3197 3328 2828 
z
" transform="scale(0.015625)"/>
      <path id="DejaVuSans-75" d="M 544 1381 
L 544 3500 
L 1119 3500 
L 1119 1403 
Q 1119 906 1312 657 
Q 1506 409 1894 409 
Q 2359 409 2629 706 
Q 2900 1003 2900 1516 
L 2900 3500 
L 3475 3500 
L 3475 0 
L 2900 0 
L 2900 538 
Q 2691 219 2414 64 
Q 2138 -91 1772 -91 
Q 1169 -91 856 284 
Q 544 659 544 1381 
z
M 1991 3584 
L 1991 3584 
z
" transform="scale(0.015625)"/>
     </defs>
     <use xlink:href="#DejaVuSans-4c"/>
     <use xlink:href="#DejaVuSans-6f" x="53.962891"/>
     <use xlink:href="#DejaVuSans-67" x="115.144531"/>
     <use xlink:href="#DejaVuSans-2d" x="178.621094"/>
     <use xlink:href="#DejaVuSans-6e" x="214.705078"/>
     <use xlink:href="#DejaVuSans-6f" x="278.083984"/>
     <use xlink:href="#DejaVuSans-72" x="339.265625"/>
     <use xlink:href="#DejaVuSans-6d" x="378.628906"/>
     <use xlink:href="#DejaVuSans-61" x="476.041016"/>
     <use xlink:href="#DejaVuSans-6c" x="537.320312"/>
     <use xlink:href="#DejaVuSans-20" x="565.103516"/>
     <use xlink:href="#DejaVuSans-64" x="596.890625"/>
     <use xlink:href="#DejaVuSans-69" x="660.367188"/>
     <use xlink:href="#DejaVuSans-73" x="688.150391"/>
     <use xlink:href="#DejaVuSans-74" x="740.25"/>
     <use xlink:href="#DejaVuSans-72" x="779.458984"/>
     <use xlink:href="#DejaVuSans-69" x="820.572266"/>
     <use xlink:href="#DejaVuSans-62" x="848.355469"/>
     <use xlink:href="#DejaVuSans-75" x="911.832031"/>
     <use xlink:href="#DejaVuSans-74" x="975.210938"/>
     <use xlink:href="#DejaVuSans-69" x="1014.419922"/>
     <use xlink:href="#DejaVuSans-6f" x="1042.203125"/>
     <use xlink:href="#DejaVuSans-6e" x="1103.384766"/>
    </g>
   </g>
   <g id="legend_1">
    <g id="patch_7">
     <path d="M 301.318438 122.862625 
L 407.72 122.862625 
Q 409.72 122.862625 409.72 120.862625 
L 409.72 48.472 
Q 409.72 46.472 407.72 46.472 
L 301.318438 46.472 
Q 299.318438 46.472 299.318438 48.472 
L 299.318438 120.862625 
Q 299.318438 122.862625 301.318438 122.862625 
z
" style="fill: #ffffff; opacity: 0.8; stroke: #cccccc; stroke-linejoin: miter"/>
    </g>
    <g id="line2d_34">
     <path d="M 303.318438 54.570438 
L 313.318438 54.570438 
L 323.318438 54.570438 
" style="fill: none; stroke: #1f77b4; stroke-width: 1.5; stroke-linecap: square"/>
    </g>
    <g id="text_18">
     <!-- μ = 0, σ = 1 -->
     <g transform="translate(331.318438 58.070438) scale(0.1 -0.1)">
      <defs>
       <path id="DejaVuSans-3bc" d="M 544 -1331 
L 544 3500 
L 1119 3500 
L 1119 1325 
Q 1119 872 1334 640 
Q 1550 409 1972 409 
Q 2434 409 2667 671 
Q 2900 934 2900 1459 
L 2900 3500 
L 3475 3500 
L 3475 806 
Q 3475 619 3529 530 
Q 3584 441 3700 441 
Q 3728 441 3778 458 
Q 3828 475 3916 513 
L 3916 50 
Q 3788 -22 3673 -56 
Q 3559 -91 3450 -91 
Q 3234 -91 3106 31 
Q 2978 153 2931 403 
Q 2775 156 2548 32 
Q 2322 -91 2016 -91 
Q 1697 -91 1473 31 
Q 1250 153 1119 397 
L 1119 -1331 
L 544 -1331 
z
" transform="scale(0.015625)"/>
       <path id="DejaVuSans-3d" d="M 678 2906 
L 4684 2906 
L 4684 2381 
L 678 2381 
L 678 2906 
z
M 678 1631 
L 4684 1631 
L 4684 1100 
L 678 1100 
L 678 1631 
z
" transform="scale(0.015625)"/>
       <path id="DejaVuSans-2c" d="M 750 794 
L 1409 794 
L 1409 256 
L 897 -744 
L 494 -744 
L 750 256 
L 750 794 
z
" transform="scale(0.015625)"/>
       <path id="DejaVuSans-3c3" d="M 1959 3044 
Q 1484 3044 1228 2700 
Q 959 2341 959 1747 
Q 959 1119 1226 758 
Q 1494 397 1959 397 
Q 2419 397 2687 759 
Q 2956 1122 2956 1747 
Q 2956 2319 2688 2700 
Q 2441 3044 1959 3044 
z
M 1959 3500 
L 3869 3500 
L 3869 2925 
L 3225 2925 
Q 3566 2438 3566 1747 
Q 3566 888 3138 400 
Q 2709 -91 1959 -91 
Q 1206 -91 781 400 
Q 353 888 353 1747 
Q 353 2613 781 3097 
Q 1134 3500 1959 3500 
z
" transform="scale(0.015625)"/>
      </defs>
      <use xlink:href="#DejaVuSans-3bc"/>
      <use xlink:href="#DejaVuSans-20" x="63.623047"/>
      <use xlink:href="#DejaVuSans-3d" x="95.410156"/>
      <use xlink:href="#DejaVuSans-20" x="179.199219"/>
      <use xlink:href="#DejaVuSans-30" x="210.986328"/>
      <use xlink:href="#DejaVuSans-2c" x="274.609375"/>
      <use xlink:href="#DejaVuSans-20" x="306.396484"/>
      <use xlink:href="#DejaVuSans-3c3" x="338.183594"/>
      <use xlink:href="#DejaVuSans-20" x="401.5625"/>
      <use xlink:href="#DejaVuSans-3d" x="433.349609"/>
      <use xlink:href="#DejaVuSans-20" x="517.138672"/>
      <use xlink:href="#DejaVuSans-31" x="548.925781"/>
     </g>
    </g>
    <g id="line2d_35">
     <path d="M 303.318438 69.248563 
L 313.318438 69.248563 
L 323.318438 69.248563 
" style="fill: none; stroke: #ff7f0e; stroke-width: 1.5; stroke-linecap: square"/>
    </g>
    <g id="text_19">
     <!-- μ = 0, σ = 0.5 -->
     <g transform="translate(331.318438 72.748563) scale(0.1 -0.1)">
      <use xlink:href="#DejaVuSans-3bc"/>
      <use xlink:href="#DejaVuSans-20" x="63.623047"/>
      <use xlink:href="#DejaVuSans-3d" x="95.410156"/>
      <use xlink:href="#DejaVuSans-20" x="179.199219"/>
      <use xlink:href="#DejaVuSans-30" x="210.986328"/>
      <use xlink:href="#DejaVuSans-2c" x="274.609375"/>
      <use xlink:href="#DejaVuSans-20" x="306.396484"/>
      <use xlink:href="#DejaVuSans-3c3" x="338.183594"/>
      <use xlink:href="#DejaVuSans-20" x="401.5625"/>
      <use xlink:href="#DejaVuSans-3d" x="433.349609"/>
      <use xlink:href="#DejaVuSans-20" x="517.138672"/>
      <use xlink:href="#DejaVuSans-30" x="548.925781"/>
      <use xlink:href="#DejaVuSans-2e" x="612.548828"/>
      <use xlink:href="#DejaVuSans-35" x="644.335938"/>
     </g>
    </g>
    <g id="line2d_36">
     <path d="M 303.318438 83.926688 
L 313.318438 83.926688 
L 323.318438 83.926688 
" style="fill: none; stroke: #2ca02c; stroke-width: 1.5; stroke-linecap: square"/>
    </g>
    <g id="text_20">
     <!-- μ = 0, σ = 2 -->
     <g transform="translate(331.318438 87.426688) scale(0.1 -0.1)">
      <use xlink:href="#DejaVuSans-3bc"/>
      <use xlink:href="#DejaVuSans-20" x="63.623047"/>
      <use xlink:href="#DejaVuSans-3d" x="95.410156"/>
      <use xlink:href="#DejaVuSans-20" x="179.199219"/>
      <use xlink:href="#DejaVuSans-30" x="210.986328"/>
      <use xlink:href="#DejaVuSans-2c" x="274.609375"/>
      <use xlink:href="#DejaVuSans-20" x="306.396484"/>
      <use xlink:href="#DejaVuSans-3c3" x="338.183594"/>
      <use xlink:href="#DejaVuSans-20" x="401.5625"/>
      <use xlink:href="#DejaVuSans-3d" x="433.349609"/>
      <use xlink:href="#DejaVuSans-20" x="517.138672"/>
      <use xlink:href="#DejaVuSans-32" x="548.925781"/>
     </g>
    </g>
    <g id="line2d_37">
     <path d="M 303.318438 98.604813 
L 313.318438 98.604813 
L 323.318438 98.604813 
" style="fill: none; stroke: #d62728; stroke-width: 1.5; stroke-linecap: square"/>
    </g>
    <g id="text_21">
     <!-- μ = -0.5, σ = 1 -->
     <g transform="translate(331.318438 102.104813) scale(0.1 -0.1)">
      <use xlink:href="#DejaVuSans-3bc"/>
      <use xlink:href="#DejaVuSans-20" x="63.623047"/>
      <use xlink:href="#DejaVuSans-3d" x="95.410156"/>
      <use xlink:href="#DejaVuSans-20" x="179.199219"/>
      <use xlink:href="#DejaVuSans-2d" x="210.986328"/>
      <use xlink:href="#DejaVuSans-30" x="247.070312"/>
      <use xlink:href="#DejaVuSans-2e" x="310.693359"/>
      <use xlink:href="#DejaVuSans-35" x="342.480469"/>
      <use xlink:href="#DejaVuSans-2c" x="406.103516"/>
      <use xlink:href="#DejaVuSans-20" x="437.890625"/>
      <use xlink:href="#DejaVuSans-3c3" x="469.677734"/>
      <use xlink:href="#DejaVuSans-20" x="533.056641"/>
      <use xlink:href="#DejaVuSans-3d" x="564.84375"/>
      <use xlink:href="#DejaVuSans-20" x="648.632812"/>
      <use xlink:href="#DejaVuSans-31" x="680.419922"/>
     </g>
    </g>
    <g id="line2d_38">
     <path d="M 303.318438 113.282938 
L 313.318438 113.282938 
L 323.318438 113.282938 
" style="fill: none; stroke: #9467bd; stroke-width: 1.5; stroke-linecap: square"/>
    </g>
    <g id="text_22">
     <!-- μ = 1, σ = 1 -->
     <g transform="translate(331.318438 116.782938) scale(0.1 -0.1)">
      <use xlink:href="#DejaVuSans-3bc"/>
      <use xlink:href="#DejaVuSans-20" x="63.623047"/>
      <use xlink:href="#DejaVuSans-3d" x="95.410156"/>
      <use xlink:href="#DejaVuSans-20" x="179.199219"/>
      <use xlink:href="#DejaVuSans-31" x="210.986328"/>
      <use xlink:href="#DejaVuSans-2c" x="274.609375"/>
      <use xlink:href="#DejaVuSans-20" x="306.396484"/>
      <use xlink:href="#DejaVuSans-3c3" x="338.183594"/>
      <use xlink:href="#DejaVuSans-20" x="401.5625"/>
      <use xlink:href="#DejaVuSans-3d" x="433.349609"/>
      <use xlink:href="#DejaVuSans-20" x="517.138672"/>
      <use xlink:href="#DejaVuSans-31" x="548.925781"/>
     </g>
    </g>
   </g>
  </g>
 </g>
 <defs>
  <clipPath id="pd1abda3bba">
   <rect x="57.6" y="41.472" width="357.12" height="266.112"/>
  </clipPath>
 </defs>
</svg>
