<?xml version="1.0" encoding="utf-8" standalone="no"?>
<!DOCTYPE svg PUBLIC "-//W3C//DTD SVG 1.1//EN"
  "http://www.w3.org/Graphics/SVG/1.1/DTD/svg11.dtd">
<svg xmlns:xlink="http://www.w3.org/1999/xlink" width="576pt" height="360pt" viewBox="0 0 576 360" xmlns="http://www.w3.org/2000/svg" version="1.1">
 <metadata>
  <rdf:RDF xmlns:dc="http://purl.org/dc/elements/1.1/" xmlns:cc="http://creativecommons.org/ns#" xmlns:rdf="http://www.w3.org/1999/02/22-rdf-syntax-ns#">
   <cc:Work>
    <dc:type rdf:resource="http://purl.org/dc/dcmitype/StillImage"/>
    <dc:date>2024-05-03T20:15:45.049347</dc:date>
    <dc:format>image/svg+xml</dc:format>
    <dc:creator>
     <cc:Agent>
      <dc:title>Matplotlib v3.8.4, https://matplotlib.org/</dc:title>
     </cc:Agent>
    </dc:creator>
   </cc:Work>
  </rdf:RDF>
 </metadata>
 <defs>
  <style type="text/css">*{stroke-linejoin: round; stroke-linecap: butt}</style>
 </defs>
 <g id="figure_1">
  <g id="patch_1">
   <path d="M 0 360 
L 576 360 
L 576 0 
L 0 0 
z
" style="fill: #ffffff"/>
  </g>
  <g id="axes_1">
   <g id="patch_2">
    <path d="M 72 320.4 
L 518.4 320.4 
L 518.4 43.2 
L 72 43.2 
z
" style="fill: #ffffff"/>
   </g>
   <g id="matplotlib.axis_1">
    <g id="xtick_1">
     <g id="line2d_1">
      <path d="M 116.64 320.4 
L 116.64 43.2 
" clip-path="url(#pc72437bb4c)" style="fill: none; stroke: #b0b0b0; stroke-width: 0.8; stroke-linecap: square"/>
     </g>
     <g id="line2d_2">
      <defs>
       <path id="mb285b0676c" d="M 0 0 
L 0 3.5 
" style="stroke: #000000; stroke-width: 0.8"/>
      </defs>
      <g>
       <use xlink:href="#mb285b0676c" x="116.64" y="320.4" style="stroke: #000000; stroke-width: 0.8"/>
      </g>
     </g>
     <g id="text_1">
      <!-- −4 -->
      <g transform="translate(109.268906 334.998438) scale(0.1 -0.1)">
       <defs>
        <path id="DejaVuSans-2212" d="M 678 2272 
L 4684 2272 
L 4684 1741 
L 678 1741 
L 678 2272 
z
" transform="scale(0.015625)"/>
        <path id="DejaVuSans-34" d="M 2419 4116 
L 825 1625 
L 2419 1625 
L 2419 4116 
z
M 2253 4666 
L 3047 4666 
L 3047 1625 
L 3713 1625 
L 3713 1100 
L 3047 1100 
L 3047 0 
L 2419 0 
L 2419 1100 
L 313 1100 
L 313 1709 
L 2253 4666 
z
" transform="scale(0.015625)"/>
       </defs>
       <use xlink:href="#DejaVuSans-2212"/>
       <use xlink:href="#DejaVuSans-34" x="83.789062"/>
      </g>
     </g>
    </g>
    <g id="xtick_2">
     <g id="line2d_3">
      <path d="M 205.92 320.4 
L 205.92 43.2 
" clip-path="url(#pc72437bb4c)" style="fill: none; stroke: #b0b0b0; stroke-width: 0.8; stroke-linecap: square"/>
     </g>
     <g id="line2d_4">
      <g>
       <use xlink:href="#mb285b0676c" x="205.92" y="320.4" style="stroke: #000000; stroke-width: 0.8"/>
      </g>
     </g>
     <g id="text_2">
      <!-- −2 -->
      <g transform="translate(198.548906 334.998438) scale(0.1 -0.1)">
       <defs>
        <path id="DejaVuSans-32" d="M 1228 531 
L 3431 531 
L 3431 0 
L 469 0 
L 469 531 
Q 828 903 1448 1529 
Q 2069 2156 2228 2338 
Q 2531 2678 2651 2914 
Q 2772 3150 2772 3378 
Q 2772 3750 2511 3984 
Q 2250 4219 1831 4219 
Q 1534 4219 1204 4116 
Q 875 4013 500 3803 
L 500 4441 
Q 881 4594 1212 4672 
Q 1544 4750 1819 4750 
Q 2544 4750 2975 4387 
Q 3406 4025 3406 3419 
Q 3406 3131 3298 2873 
Q 3191 2616 2906 2266 
Q 2828 2175 2409 1742 
Q 1991 1309 1228 531 
z
" transform="scale(0.015625)"/>
       </defs>
       <use xlink:href="#DejaVuSans-2212"/>
       <use xlink:href="#DejaVuSans-32" x="83.789062"/>
      </g>
     </g>
    </g>
    <g id="xtick_3">
     <g id="line2d_5">
      <path d="M 295.2 320.4 
L 295.2 43.2 
" clip-path="url(#pc72437bb4c)" style="fill: none; stroke: #b0b0b0; stroke-width: 0.8; stroke-linecap: square"/>
     </g>
     <g id="line2d_6">
      <g>
       <use xlink:href="#mb285b0676c" x="295.2" y="320.4" style="stroke: #000000; stroke-width: 0.8"/>
      </g>
     </g>
     <g id="text_3">
      <!-- 0 -->
      <g transform="translate(292.01875 334.998438) scale(0.1 -0.1)">
       <defs>
        <path id="DejaVuSans-30" d="M 2034 4250 
Q 1547 4250 1301 3770 
Q 1056 3291 1056 2328 
Q 1056 1369 1301 889 
Q 1547 409 2034 409 
Q 2525 409 2770 889 
Q 3016 1369 3016 2328 
Q 3016 3291 2770 3770 
Q 2525 4250 2034 4250 
z
M 2034 4750 
Q 2819 4750 3233 4129 
Q 3647 3509 3647 2328 
Q 3647 1150 3233 529 
Q 2819 -91 2034 -91 
Q 1250 -91 836 529 
Q 422 1150 422 2328 
Q 422 3509 836 4129 
Q 1250 4750 2034 4750 
z
" transform="scale(0.015625)"/>
       </defs>
       <use xlink:href="#DejaVuSans-30"/>
      </g>
     </g>
    </g>
    <g id="xtick_4">
     <g id="line2d_7">
      <path d="M 384.48 320.4 
L 384.48 43.2 
" clip-path="url(#pc72437bb4c)" style="fill: none; stroke: #b0b0b0; stroke-width: 0.8; stroke-linecap: square"/>
     </g>
     <g id="line2d_8">
      <g>
       <use xlink:href="#mb285b0676c" x="384.48" y="320.4" style="stroke: #000000; stroke-width: 0.8"/>
      </g>
     </g>
     <g id="text_4">
      <!-- 2 -->
      <g transform="translate(381.29875 334.998438) scale(0.1 -0.1)">
       <use xlink:href="#DejaVuSans-32"/>
      </g>
     </g>
    </g>
    <g id="xtick_5">
     <g id="line2d_9">
      <path d="M 473.76 320.4 
L 473.76 43.2 
" clip-path="url(#pc72437bb4c)" style="fill: none; stroke: #b0b0b0; stroke-width: 0.8; stroke-linecap: square"/>
     </g>
     <g id="line2d_10">
      <g>
       <use xlink:href="#mb285b0676c" x="473.76" y="320.4" style="stroke: #000000; stroke-width: 0.8"/>
      </g>
     </g>
     <g id="text_5">
      <!-- 4 -->
      <g transform="translate(470.57875 334.998438) scale(0.1 -0.1)">
       <use xlink:href="#DejaVuSans-34"/>
      </g>
     </g>
    </g>
    <g id="text_6">
     <!-- x -->
     <g transform="translate(292.240625 348.676562) scale(0.1 -0.1)">
      <defs>
       <path id="DejaVuSans-78" d="M 3513 3500 
L 2247 1797 
L 3578 0 
L 2900 0 
L 1881 1375 
L 863 0 
L 184 0 
L 1544 1831 
L 300 3500 
L 978 3500 
L 1906 2253 
L 2834 3500 
L 3513 3500 
z
" transform="scale(0.015625)"/>
      </defs>
      <use xlink:href="#DejaVuSans-78"/>
     </g>
    </g>
   </g>
   <g id="matplotlib.axis_2">
    <g id="ytick_1">
     <g id="line2d_11">
      <path d="M 72 286.121807 
L 518.4 286.121807 
" clip-path="url(#pc72437bb4c)" style="fill: none; stroke: #b0b0b0; stroke-width: 0.8; stroke-linecap: square"/>
     </g>
     <g id="line2d_12">
      <defs>
       <path id="mec1caf6194" d="M 0 0 
L -3.5 0 
" style="stroke: #000000; stroke-width: 0.8"/>
      </defs>
      <g>
       <use xlink:href="#mec1caf6194" x="72" y="286.121807" style="stroke: #000000; stroke-width: 0.8"/>
      </g>
     </g>
     <g id="text_7">
      <!-- 0.1 -->
      <g transform="translate(49.096875 289.921026) scale(0.1 -0.1)">
       <defs>
        <path id="DejaVuSans-2e" d="M 684 794 
L 1344 794 
L 1344 0 
L 684 0 
L 684 794 
z
" transform="scale(0.015625)"/>
        <path id="DejaVuSans-31" d="M 794 531 
L 1825 531 
L 1825 4091 
L 703 3866 
L 703 4441 
L 1819 4666 
L 2450 4666 
L 2450 531 
L 3481 531 
L 3481 0 
L 794 0 
L 794 531 
z
" transform="scale(0.015625)"/>
       </defs>
       <use xlink:href="#DejaVuSans-30"/>
       <use xlink:href="#DejaVuSans-2e" x="63.623047"/>
       <use xlink:href="#DejaVuSans-31" x="95.410156"/>
      </g>
     </g>
    </g>
    <g id="ytick_2">
     <g id="line2d_13">
      <path d="M 72 251.843518 
L 518.4 251.843518 
" clip-path="url(#pc72437bb4c)" style="fill: none; stroke: #b0b0b0; stroke-width: 0.8; stroke-linecap: square"/>
     </g>
     <g id="line2d_14">
      <g>
       <use xlink:href="#mec1caf6194" x="72" y="251.843518" style="stroke: #000000; stroke-width: 0.8"/>
      </g>
     </g>
     <g id="text_8">
      <!-- 0.2 -->
      <g transform="translate(49.096875 255.642737) scale(0.1 -0.1)">
       <use xlink:href="#DejaVuSans-30"/>
       <use xlink:href="#DejaVuSans-2e" x="63.623047"/>
       <use xlink:href="#DejaVuSans-32" x="95.410156"/>
      </g>
     </g>
    </g>
    <g id="ytick_3">
     <g id="line2d_15">
      <path d="M 72 217.565229 
L 518.4 217.565229 
" clip-path="url(#pc72437bb4c)" style="fill: none; stroke: #b0b0b0; stroke-width: 0.8; stroke-linecap: square"/>
     </g>
     <g id="line2d_16">
      <g>
       <use xlink:href="#mec1caf6194" x="72" y="217.565229" style="stroke: #000000; stroke-width: 0.8"/>
      </g>
     </g>
     <g id="text_9">
      <!-- 0.3 -->
      <g transform="translate(49.096875 221.364447) scale(0.1 -0.1)">
       <defs>
        <path id="DejaVuSans-33" d="M 2597 2516 
Q 3050 2419 3304 2112 
Q 3559 1806 3559 1356 
Q 3559 666 3084 287 
Q 2609 -91 1734 -91 
Q 1441 -91 1130 -33 
Q 819 25 488 141 
L 488 750 
Q 750 597 1062 519 
Q 1375 441 1716 441 
Q 2309 441 2620 675 
Q 2931 909 2931 1356 
Q 2931 1769 2642 2001 
Q 2353 2234 1838 2234 
L 1294 2234 
L 1294 2753 
L 1863 2753 
Q 2328 2753 2575 2939 
Q 2822 3125 2822 3475 
Q 2822 3834 2567 4026 
Q 2313 4219 1838 4219 
Q 1578 4219 1281 4162 
Q 984 4106 628 3988 
L 628 4550 
Q 988 4650 1302 4700 
Q 1616 4750 1894 4750 
Q 2613 4750 3031 4423 
Q 3450 4097 3450 3541 
Q 3450 3153 3228 2886 
Q 3006 2619 2597 2516 
z
" transform="scale(0.015625)"/>
       </defs>
       <use xlink:href="#DejaVuSans-30"/>
       <use xlink:href="#DejaVuSans-2e" x="63.623047"/>
       <use xlink:href="#DejaVuSans-33" x="95.410156"/>
      </g>
     </g>
    </g>
    <g id="ytick_4">
     <g id="line2d_17">
      <path d="M 72 183.28694 
L 518.4 183.28694 
" clip-path="url(#pc72437bb4c)" style="fill: none; stroke: #b0b0b0; stroke-width: 0.8; stroke-linecap: square"/>
     </g>
     <g id="line2d_18">
      <g>
       <use xlink:href="#mec1caf6194" x="72" y="183.28694" style="stroke: #000000; stroke-width: 0.8"/>
      </g>
     </g>
     <g id="text_10">
      <!-- 0.4 -->
      <g transform="translate(49.096875 187.086158) scale(0.1 -0.1)">
       <use xlink:href="#DejaVuSans-30"/>
       <use xlink:href="#DejaVuSans-2e" x="63.623047"/>
       <use xlink:href="#DejaVuSans-34" x="95.410156"/>
      </g>
     </g>
    </g>
    <g id="ytick_5">
     <g id="line2d_19">
      <path d="M 72 149.00865 
L 518.4 149.00865 
" clip-path="url(#pc72437bb4c)" style="fill: none; stroke: #b0b0b0; stroke-width: 0.8; stroke-linecap: square"/>
     </g>
     <g id="line2d_20">
      <g>
       <use xlink:href="#mec1caf6194" x="72" y="149.00865" style="stroke: #000000; stroke-width: 0.8"/>
      </g>
     </g>
     <g id="text_11">
      <!-- 0.5 -->
      <g transform="translate(49.096875 152.807869) scale(0.1 -0.1)">
       <defs>
        <path id="DejaVuSans-35" d="M 691 4666 
L 3169 4666 
L 3169 4134 
L 1269 4134 
L 1269 2991 
Q 1406 3038 1543 3061 
Q 1681 3084 1819 3084 
Q 2600 3084 3056 2656 
Q 3513 2228 3513 1497 
Q 3513 744 3044 326 
Q 2575 -91 1722 -91 
Q 1428 -91 1123 -41 
Q 819 9 494 109 
L 494 744 
Q 775 591 1075 516 
Q 1375 441 1709 441 
Q 2250 441 2565 725 
Q 2881 1009 2881 1497 
Q 2881 1984 2565 2268 
Q 2250 2553 1709 2553 
Q 1456 2553 1204 2497 
Q 953 2441 691 2322 
L 691 4666 
z
" transform="scale(0.015625)"/>
       </defs>
       <use xlink:href="#DejaVuSans-30"/>
       <use xlink:href="#DejaVuSans-2e" x="63.623047"/>
       <use xlink:href="#DejaVuSans-35" x="95.410156"/>
      </g>
     </g>
    </g>
    <g id="ytick_6">
     <g id="line2d_21">
      <path d="M 72 114.730361 
L 518.4 114.730361 
" clip-path="url(#pc72437bb4c)" style="fill: none; stroke: #b0b0b0; stroke-width: 0.8; stroke-linecap: square"/>
     </g>
     <g id="line2d_22">
      <g>
       <use xlink:href="#mec1caf6194" x="72" y="114.730361" style="stroke: #000000; stroke-width: 0.8"/>
      </g>
     </g>
     <g id="text_12">
      <!-- 0.6 -->
      <g transform="translate(49.096875 118.52958) scale(0.1 -0.1)">
       <defs>
        <path id="DejaVuSans-36" d="M 2113 2584 
Q 1688 2584 1439 2293 
Q 1191 2003 1191 1497 
Q 1191 994 1439 701 
Q 1688 409 2113 409 
Q 2538 409 2786 701 
Q 3034 994 3034 1497 
Q 3034 2003 2786 2293 
Q 2538 2584 2113 2584 
z
M 3366 4563 
L 3366 3988 
Q 3128 4100 2886 4159 
Q 2644 4219 2406 4219 
Q 1781 4219 1451 3797 
Q 1122 3375 1075 2522 
Q 1259 2794 1537 2939 
Q 1816 3084 2150 3084 
Q 2853 3084 3261 2657 
Q 3669 2231 3669 1497 
Q 3669 778 3244 343 
Q 2819 -91 2113 -91 
Q 1303 -91 875 529 
Q 447 1150 447 2328 
Q 447 3434 972 4092 
Q 1497 4750 2381 4750 
Q 2619 4750 2861 4703 
Q 3103 4656 3366 4563 
z
" transform="scale(0.015625)"/>
       </defs>
       <use xlink:href="#DejaVuSans-30"/>
       <use xlink:href="#DejaVuSans-2e" x="63.623047"/>
       <use xlink:href="#DejaVuSans-36" x="95.410156"/>
      </g>
     </g>
    </g>
    <g id="ytick_7">
     <g id="line2d_23">
      <path d="M 72 80.452072 
L 518.4 80.452072 
" clip-path="url(#pc72437bb4c)" style="fill: none; stroke: #b0b0b0; stroke-width: 0.8; stroke-linecap: square"/>
     </g>
     <g id="line2d_24">
      <g>
       <use xlink:href="#mec1caf6194" x="72" y="80.452072" style="stroke: #000000; stroke-width: 0.8"/>
      </g>
     </g>
     <g id="text_13">
      <!-- 0.7 -->
      <g transform="translate(49.096875 84.251291) scale(0.1 -0.1)">
       <defs>
        <path id="DejaVuSans-37" d="M 525 4666 
L 3525 4666 
L 3525 4397 
L 1831 0 
L 1172 0 
L 2766 4134 
L 525 4134 
L 525 4666 
z
" transform="scale(0.015625)"/>
       </defs>
       <use xlink:href="#DejaVuSans-30"/>
       <use xlink:href="#DejaVuSans-2e" x="63.623047"/>
       <use xlink:href="#DejaVuSans-37" x="95.410156"/>
      </g>
     </g>
    </g>
    <g id="ytick_8">
     <g id="line2d_25">
      <path d="M 72 46.173783 
L 518.4 46.173783 
" clip-path="url(#pc72437bb4c)" style="fill: none; stroke: #b0b0b0; stroke-width: 0.8; stroke-linecap: square"/>
     </g>
     <g id="line2d_26">
      <g>
       <use xlink:href="#mec1caf6194" x="72" y="46.173783" style="stroke: #000000; stroke-width: 0.8"/>
      </g>
     </g>
     <g id="text_14">
      <!-- 0.8 -->
      <g transform="translate(49.096875 49.973002) scale(0.1 -0.1)">
       <defs>
        <path id="DejaVuSans-38" d="M 2034 2216 
Q 1584 2216 1326 1975 
Q 1069 1734 1069 1313 
Q 1069 891 1326 650 
Q 1584 409 2034 409 
Q 2484 409 2743 651 
Q 3003 894 3003 1313 
Q 3003 1734 2745 1975 
Q 2488 2216 2034 2216 
z
M 1403 2484 
Q 997 2584 770 2862 
Q 544 3141 544 3541 
Q 544 4100 942 4425 
Q 1341 4750 2034 4750 
Q 2731 4750 3128 4425 
Q 3525 4100 3525 3541 
Q 3525 3141 3298 2862 
Q 3072 2584 2669 2484 
Q 3125 2378 3379 2068 
Q 3634 1759 3634 1313 
Q 3634 634 3220 271 
Q 2806 -91 2034 -91 
Q 1263 -91 848 271 
Q 434 634 434 1313 
Q 434 1759 690 2068 
Q 947 2378 1403 2484 
z
M 1172 3481 
Q 1172 3119 1398 2916 
Q 1625 2713 2034 2713 
Q 2441 2713 2670 2916 
Q 2900 3119 2900 3481 
Q 2900 3844 2670 4047 
Q 2441 4250 2034 4250 
Q 1625 4250 1398 4047 
Q 1172 3844 1172 3481 
z
" transform="scale(0.015625)"/>
       </defs>
       <use xlink:href="#DejaVuSans-30"/>
       <use xlink:href="#DejaVuSans-2e" x="63.623047"/>
       <use xlink:href="#DejaVuSans-38" x="95.410156"/>
      </g>
     </g>
    </g>
    <g id="text_15">
     <!-- Probability density -->
     <g transform="translate(43.017187 228.150781) rotate(-90) scale(0.1 -0.1)">
      <defs>
       <path id="DejaVuSans-50" d="M 1259 4147 
L 1259 2394 
L 2053 2394 
Q 2494 2394 2734 2622 
Q 2975 2850 2975 3272 
Q 2975 3691 2734 3919 
Q 2494 4147 2053 4147 
L 1259 4147 
z
M 628 4666 
L 2053 4666 
Q 2838 4666 3239 4311 
Q 3641 3956 3641 3272 
Q 3641 2581 3239 2228 
Q 2838 1875 2053 1875 
L 1259 1875 
L 1259 0 
L 628 0 
L 628 4666 
z
" transform="scale(0.015625)"/>
       <path id="DejaVuSans-72" d="M 2631 2963 
Q 2534 3019 2420 3045 
Q 2306 3072 2169 3072 
Q 1681 3072 1420 2755 
Q 1159 2438 1159 1844 
L 1159 0 
L 581 0 
L 581 3500 
L 1159 3500 
L 1159 2956 
Q 1341 3275 1631 3429 
Q 1922 3584 2338 3584 
Q 2397 3584 2469 3576 
Q 2541 3569 2628 3553 
L 2631 2963 
z
" transform="scale(0.015625)"/>
       <path id="DejaVuSans-6f" d="M 1959 3097 
Q 1497 3097 1228 2736 
Q 959 2375 959 1747 
Q 959 1119 1226 758 
Q 1494 397 1959 397 
Q 2419 397 2687 759 
Q 2956 1122 2956 1747 
Q 2956 2369 2687 2733 
Q 2419 3097 1959 3097 
z
M 1959 3584 
Q 2709 3584 3137 3096 
Q 3566 2609 3566 1747 
Q 3566 888 3137 398 
Q 2709 -91 1959 -91 
Q 1206 -91 779 398 
Q 353 888 353 1747 
Q 353 2609 779 3096 
Q 1206 3584 1959 3584 
z
" transform="scale(0.015625)"/>
       <path id="DejaVuSans-62" d="M 3116 1747 
Q 3116 2381 2855 2742 
Q 2594 3103 2138 3103 
Q 1681 3103 1420 2742 
Q 1159 2381 1159 1747 
Q 1159 1113 1420 752 
Q 1681 391 2138 391 
Q 2594 391 2855 752 
Q 3116 1113 3116 1747 
z
M 1159 2969 
Q 1341 3281 1617 3432 
Q 1894 3584 2278 3584 
Q 2916 3584 3314 3078 
Q 3713 2572 3713 1747 
Q 3713 922 3314 415 
Q 2916 -91 2278 -91 
Q 1894 -91 1617 61 
Q 1341 213 1159 525 
L 1159 0 
L 581 0 
L 581 4863 
L 1159 4863 
L 1159 2969 
z
" transform="scale(0.015625)"/>
       <path id="DejaVuSans-61" d="M 2194 1759 
Q 1497 1759 1228 1600 
Q 959 1441 959 1056 
Q 959 750 1161 570 
Q 1363 391 1709 391 
Q 2188 391 2477 730 
Q 2766 1069 2766 1631 
L 2766 1759 
L 2194 1759 
z
M 3341 1997 
L 3341 0 
L 2766 0 
L 2766 531 
Q 2569 213 2275 61 
Q 1981 -91 1556 -91 
Q 1019 -91 701 211 
Q 384 513 384 1019 
Q 384 1609 779 1909 
Q 1175 2209 1959 2209 
L 2766 2209 
L 2766 2266 
Q 2766 2663 2505 2880 
Q 2244 3097 1772 3097 
Q 1472 3097 1187 3025 
Q 903 2953 641 2809 
L 641 3341 
Q 956 3463 1253 3523 
Q 1550 3584 1831 3584 
Q 2591 3584 2966 3190 
Q 3341 2797 3341 1997 
z
" transform="scale(0.015625)"/>
       <path id="DejaVuSans-69" d="M 603 3500 
L 1178 3500 
L 1178 0 
L 603 0 
L 603 3500 
z
M 603 4863 
L 1178 4863 
L 1178 4134 
L 603 4134 
L 603 4863 
z
" transform="scale(0.015625)"/>
       <path id="DejaVuSans-6c" d="M 603 4863 
L 1178 4863 
L 1178 0 
L 603 0 
L 603 4863 
z
" transform="scale(0.015625)"/>
       <path id="DejaVuSans-74" d="M 1172 4494 
L 1172 3500 
L 2356 3500 
L 2356 3053 
L 1172 3053 
L 1172 1153 
Q 1172 725 1289 603 
Q 1406 481 1766 481 
L 2356 481 
L 2356 0 
L 1766 0 
Q 1100 0 847 248 
Q 594 497 594 1153 
L 594 3053 
L 172 3053 
L 172 3500 
L 594 3500 
L 594 4494 
L 1172 4494 
z
" transform="scale(0.015625)"/>
       <path id="DejaVuSans-79" d="M 2059 -325 
Q 1816 -950 1584 -1140 
Q 1353 -1331 966 -1331 
L 506 -1331 
L 506 -850 
L 844 -850 
Q 1081 -850 1212 -737 
Q 1344 -625 1503 -206 
L 1606 56 
L 191 3500 
L 800 3500 
L 1894 763 
L 2988 3500 
L 3597 3500 
L 2059 -325 
z
" transform="scale(0.015625)"/>
       <path id="DejaVuSans-20" transform="scale(0.015625)"/>
       <path id="DejaVuSans-64" d="M 2906 2969 
L 2906 4863 
L 3481 4863 
L 3481 0 
L 2906 0 
L 2906 525 
Q 2725 213 2448 61 
Q 2172 -91 1784 -91 
Q 1150 -91 751 415 
Q 353 922 353 1747 
Q 353 2572 751 3078 
Q 1150 3584 1784 3584 
Q 2172 3584 2448 3432 
Q 2725 3281 2906 2969 
z
M 947 1747 
Q 947 1113 1208 752 
Q 1469 391 1925 391 
Q 2381 391 2643 752 
Q 2906 1113 2906 1747 
Q 2906 2381 2643 2742 
Q 2381 3103 1925 3103 
Q 1469 3103 1208 2742 
Q 947 2381 947 1747 
z
" transform="scale(0.015625)"/>
       <path id="DejaVuSans-65" d="M 3597 1894 
L 3597 1613 
L 953 1613 
Q 991 1019 1311 708 
Q 1631 397 2203 397 
Q 2534 397 2845 478 
Q 3156 559 3463 722 
L 3463 178 
Q 3153 47 2828 -22 
Q 2503 -91 2169 -91 
Q 1331 -91 842 396 
Q 353 884 353 1716 
Q 353 2575 817 3079 
Q 1281 3584 2069 3584 
Q 2775 3584 3186 3129 
Q 3597 2675 3597 1894 
z
M 3022 2063 
Q 3016 2534 2758 2815 
Q 2500 3097 2075 3097 
Q 1594 3097 1305 2825 
Q 1016 2553 972 2059 
L 3022 2063 
z
" transform="scale(0.015625)"/>
       <path id="DejaVuSans-6e" d="M 3513 2113 
L 3513 0 
L 2938 0 
L 2938 2094 
Q 2938 2591 2744 2837 
Q 2550 3084 2163 3084 
Q 1697 3084 1428 2787 
Q 1159 2491 1159 1978 
L 1159 0 
L 581 0 
L 581 3500 
L 1159 3500 
L 1159 2956 
Q 1366 3272 1645 3428 
Q 1925 3584 2291 3584 
Q 2894 3584 3203 3211 
Q 3513 2838 3513 2113 
z
" transform="scale(0.015625)"/>
       <path id="DejaVuSans-73" d="M 2834 3397 
L 2834 2853 
Q 2591 2978 2328 3040 
Q 2066 3103 1784 3103 
Q 1356 3103 1142 2972 
Q 928 2841 928 2578 
Q 928 2378 1081 2264 
Q 1234 2150 1697 2047 
L 1894 2003 
Q 2506 1872 2764 1633 
Q 3022 1394 3022 966 
Q 3022 478 2636 193 
Q 2250 -91 1575 -91 
Q 1294 -91 989 -36 
Q 684 19 347 128 
L 347 722 
Q 666 556 975 473 
Q 1284 391 1588 391 
Q 1994 391 2212 530 
Q 2431 669 2431 922 
Q 2431 1156 2273 1281 
Q 2116 1406 1581 1522 
L 1381 1569 
Q 847 1681 609 1914 
Q 372 2147 372 2553 
Q 372 3047 722 3315 
Q 1072 3584 1716 3584 
Q 2034 3584 2315 3537 
Q 2597 3491 2834 3397 
z
" transform="scale(0.015625)"/>
      </defs>
      <use xlink:href="#DejaVuSans-50"/>
      <use xlink:href="#DejaVuSans-72" x="58.552734"/>
      <use xlink:href="#DejaVuSans-6f" x="97.416016"/>
      <use xlink:href="#DejaVuSans-62" x="158.597656"/>
      <use xlink:href="#DejaVuSans-61" x="222.074219"/>
      <use xlink:href="#DejaVuSans-62" x="283.353516"/>
      <use xlink:href="#DejaVuSans-69" x="346.830078"/>
      <use xlink:href="#DejaVuSans-6c" x="374.613281"/>
      <use xlink:href="#DejaVuSans-69" x="402.396484"/>
      <use xlink:href="#DejaVuSans-74" x="430.179688"/>
      <use xlink:href="#DejaVuSans-79" x="469.388672"/>
      <use xlink:href="#DejaVuSans-20" x="528.568359"/>
      <use xlink:href="#DejaVuSans-64" x="560.355469"/>
      <use xlink:href="#DejaVuSans-65" x="623.832031"/>
      <use xlink:href="#DejaVuSans-6e" x="685.355469"/>
      <use xlink:href="#DejaVuSans-73" x="748.734375"/>
      <use xlink:href="#DejaVuSans-69" x="800.833984"/>
      <use xlink:href="#DejaVuSans-74" x="828.617188"/>
      <use xlink:href="#DejaVuSans-79" x="867.826172"/>
     </g>
    </g>
   </g>
   <g id="line2d_27">
    <path d="M 72 320.18935 
L 101.938739 319.896455 
L 121.6 319.494111 
L 136.345946 318.979729 
L 147.963964 318.362966 
L 157.794595 317.622673 
L 165.837838 316.808079 
L 172.987387 315.872451 
L 179.243243 314.842933 
L 185.052252 313.664755 
L 190.414414 312.34226 
L 195.32973 310.888437 
L 199.798198 309.326114 
L 203.81982 307.688496 
L 207.841441 305.794485 
L 211.416216 303.862134 
L 214.990991 301.660776 
L 218.118919 299.48407 
L 221.246847 297.043689 
L 224.374775 294.307989 
L 227.502703 291.242209 
L 230.183784 288.323076 
L 232.864865 285.108159 
L 235.545946 281.570593 
L 238.227027 277.682524 
L 240.908108 273.415646 
L 243.589189 268.741987 
L 246.27027 263.634999 
L 248.951351 258.071038 
L 251.632432 252.031305 
L 254.313514 245.50432 
L 257.441441 237.272958 
L 260.569369 228.400527 
L 264.144144 217.552434 
L 268.612613 203.177521 
L 277.996396 172.635215 
L 280.677477 164.723163 
L 282.911712 158.735158 
L 284.699099 154.448775 
L 286.486486 150.690647 
L 288.273874 147.529251 
L 289.614414 145.586486 
L 290.954955 144.035139 
L 292.295495 142.892849 
L 293.189189 142.365292 
L 294.082883 142.028252 
L 294.976577 141.883489 
L 295.87027 141.931765 
L 296.763964 142.172824 
L 297.657658 142.605405 
L 298.551351 143.227251 
L 299.891892 144.507588 
L 301.232432 146.191573 
L 302.572973 148.260192 
L 303.913514 150.690647 
L 305.700901 154.448775 
L 307.488288 158.735158 
L 309.722523 164.723163 
L 312.403604 172.635215 
L 315.978378 184.000853 
L 327.596396 221.701205 
L 331.171171 232.278679 
L 334.299099 240.881227 
L 337.427027 248.829071 
L 340.554955 256.111402 
L 343.236036 261.832169 
L 345.917117 267.089049 
L 348.598198 271.90431 
L 351.279279 276.303718 
L 353.96036 280.314909 
L 356.641441 283.966179 
L 359.322523 287.285604 
L 362.45045 290.775126 
L 365.578378 293.891079 
L 368.706306 296.671732 
L 371.834234 299.152292 
L 374.962162 301.364845 
L 378.536937 303.602412 
L 382.111712 305.566464 
L 385.686486 307.291134 
L 389.708108 308.982435 
L 394.176577 310.595648 
L 398.645045 311.970604 
L 403.56036 313.251367 
L 408.922523 314.417786 
L 414.731532 315.458257 
L 421.434234 316.426594 
L 429.030631 317.287616 
L 437.520721 318.022825 
L 447.798198 318.676589 
L 459.863063 319.211521 
L 475.055856 319.649586 
L 494.717117 319.98117 
L 518.4 320.18935 
L 518.4 320.18935 
" clip-path="url(#pc72437bb4c)" style="fill: none; stroke: #1f77b4; stroke-width: 1.5; stroke-linecap: square"/>
   </g>
   <g id="line2d_28">
    <path d="M 72 320.4 
L 168.072072 320.289869 
L 183.264865 320.059519 
L 192.648649 319.716164 
L 199.798198 319.237296 
L 205.16036 318.670025 
L 209.628829 317.992811 
L 213.65045 317.162102 
L 217.225225 316.189602 
L 220.353153 315.106411 
L 223.034234 313.963706 
L 225.715315 312.580971 
L 227.94955 311.211228 
L 230.183784 309.609973 
L 232.418018 307.740906 
L 234.652252 305.562971 
L 236.886486 303.030044 
L 239.120721 300.090722 
L 240.908108 297.408708 
L 242.695495 294.398936 
L 244.482883 291.027967 
L 246.27027 287.260624 
L 248.057658 283.06036 
L 249.845045 278.389791 
L 252.079279 271.833136 
L 254.313514 264.411927 
L 256.547748 256.060774 
L 258.781982 246.724835 
L 261.016216 236.365762 
L 263.25045 224.96876 
L 265.931532 209.948679 
L 268.612613 193.567498 
L 271.740541 173.02536 
L 277.102703 135.893607 
L 281.124324 108.761527 
L 283.358559 94.960083 
L 285.145946 84.970564 
L 286.933333 76.169012 
L 288.273874 70.479646 
L 289.614414 65.664942 
L 290.954955 61.79742 
L 291.848649 59.775357 
L 292.742342 58.215229 
L 293.636036 57.128044 
L 294.52973 56.521526 
L 294.976577 56.400005 
L 295.423423 56.400005 
L 295.87027 56.521526 
L 296.763964 57.128044 
L 297.657658 58.215229 
L 298.551351 59.775357 
L 299.445045 61.79742 
L 300.338739 64.267294 
L 301.679279 68.773739 
L 303.01982 74.18031 
L 304.36036 80.40717 
L 306.147748 89.831184 
L 308.381982 103.091734 
L 311.063063 120.564767 
L 315.978378 154.586973 
L 320.446847 184.928114 
L 323.574775 204.631402 
L 326.255856 220.121845 
L 328.936937 234.169367 
L 331.171171 244.735732 
L 333.405405 254.273875 
L 335.63964 262.818033 
L 337.873874 270.420261 
L 340.108108 277.144259 
L 342.342342 283.06036 
L 344.576577 288.2416 
L 346.810811 292.760763 
L 349.045045 296.688266 
L 351.279279 300.090722 
L 353.513514 303.030044 
L 355.747748 305.562971 
L 357.981982 307.740906 
L 360.216216 309.609973 
L 362.45045 311.211228 
L 365.131532 312.830019 
L 367.812613 314.169652 
L 370.493694 315.276453 
L 373.621622 316.325364 
L 377.196396 317.266872 
L 381.218018 318.07094 
L 385.686486 318.726315 
L 391.048649 319.275205 
L 397.751351 319.716164 
L 406.241441 320.036135 
L 418.306306 320.251543 
L 439.308108 320.368746 
L 501.41982 320.399766 
L 518.4 320.4 
L 518.4 320.4 
" clip-path="url(#pc72437bb4c)" style="fill: none; stroke: #ff7f0e; stroke-width: 1.5; stroke-linecap: square"/>
   </g>
   <g id="line2d_29">
    <path d="M 72 316.580105 
L 91.661261 315.732006 
L 108.641441 314.78141 
L 122.940541 313.765125 
L 135.452252 312.658848 
L 146.623423 311.446716 
L 156.454054 310.154709 
L 164.944144 308.824626 
L 172.987387 307.336834 
L 180.136937 305.786433 
L 186.392793 304.217036 
L 192.201802 302.54782 
L 197.563964 300.793819 
L 202.926126 298.800178 
L 207.841441 296.727731 
L 212.30991 294.608883 
L 216.778378 292.233852 
L 220.8 289.847686 
L 224.821622 287.195666 
L 228.396396 284.589167 
L 231.971171 281.72289 
L 235.545946 278.571325 
L 239.120721 275.108513 
L 242.695495 271.309225 
L 246.27027 267.150787 
L 249.845045 262.615729 
L 253.41982 257.695508 
L 256.994595 252.395493 
L 261.016216 246.011954 
L 265.484685 238.492862 
L 277.996396 217.128356 
L 280.677477 213.086949 
L 282.911712 210.048162 
L 285.145946 207.382838 
L 286.933333 205.564168 
L 288.720721 204.057784 
L 290.508108 202.890313 
L 291.848649 202.250192 
L 293.189189 201.8196 
L 294.52973 201.603137 
L 295.87027 201.603137 
L 297.210811 201.8196 
L 298.551351 202.250192 
L 299.891892 202.890313 
L 301.232432 203.733211 
L 303.01982 205.157175 
L 304.807207 206.900517 
L 306.594595 208.933393 
L 308.828829 211.83104 
L 311.50991 215.740093 
L 314.637838 220.743708 
L 319.106306 228.376691 
L 328.49009 244.539555 
L 332.511712 251.013601 
L 336.533333 257.053474 
L 340.108108 262.021812 
L 343.682883 266.60478 
L 347.257658 270.809482 
L 350.832432 274.652501 
L 354.407207 278.156026 
L 357.981982 281.345078 
L 361.556757 284.245603 
L 365.131532 286.883215 
L 369.153153 289.56671 
L 373.174775 291.980914 
L 377.643243 294.383467 
L 382.111712 296.526441 
L 387.027027 298.622006 
L 391.942342 300.479196 
L 397.304505 302.270608 
L 403.113514 303.974403 
L 409.369369 305.575284 
L 416.072072 307.063832 
L 423.668468 308.514837 
L 431.711712 309.825859 
L 440.648649 311.061102 
L 450.926126 312.249921 
L 462.544144 313.358013 
L 475.502703 314.364901 
L 490.248649 315.286541 
L 507.675676 316.146045 
L 518.4 316.580105 
L 518.4 316.580105 
" clip-path="url(#pc72437bb4c)" style="fill: none; stroke: #2ca02c; stroke-width: 1.5; stroke-linecap: square"/>
   </g>
   <g id="line2d_30">
    <path d="M 72 307.796684 
L 87.63964 306.399686 
L 101.491892 304.945172 
L 114.003604 303.414393 
L 125.621622 301.767067 
L 135.899099 300.090133 
L 145.282883 298.343058 
L 154.21982 296.451523 
L 162.263063 294.525512 
L 169.859459 292.479063 
L 177.009009 290.319011 
L 183.711712 288.056729 
L 189.967568 285.70876 
L 195.776577 283.297259 
L 201.585586 280.635912 
L 206.947748 277.932865 
L 212.30991 274.969297 
L 217.225225 272.004194 
L 222.140541 268.784873 
L 227.055856 265.299155 
L 231.971171 261.541967 
L 237.333333 257.142252 
L 243.142342 252.06337 
L 251.632432 244.288546 
L 258.335135 238.270143 
L 261.90991 235.32359 
L 265.037838 233.023522 
L 267.718919 231.340268 
L 269.953153 230.19572 
L 272.187387 229.332991 
L 273.974775 228.875966 
L 275.762162 228.65074 
L 277.54955 228.67878 
L 279.336937 228.979595 
L 281.124324 229.569859 
L 282.911712 230.462523 
L 284.699099 231.665953 
L 286.486486 233.183167 
L 288.273874 235.01123 
L 290.061261 237.140878 
L 292.295495 240.202526 
L 294.52973 243.666211 
L 297.210811 248.271411 
L 300.338739 254.110635 
L 305.700901 264.705731 
L 311.063063 275.165321 
L 314.637838 281.659102 
L 317.765766 286.879017 
L 320.446847 290.962927 
L 323.127928 294.670049 
L 325.809009 298.000767 
L 328.49009 300.967063 
L 331.171171 303.589066 
L 333.852252 305.892073 
L 336.533333 307.904131 
L 339.214414 309.654185 
L 342.342342 311.402739 
L 345.47027 312.876315 
L 348.598198 314.11419 
L 352.172973 315.285164 
L 356.194595 316.34576 
L 360.663063 317.268653 
L 365.578378 318.042267 
L 371.387387 318.712292 
L 378.09009 319.250267 
L 386.58018 319.690454 
L 397.304505 320.011964 
L 412.944144 320.237075 
L 439.308108 320.361136 
L 511.25045 320.399186 
L 518.4 320.399464 
L 518.4 320.399464 
" clip-path="url(#pc72437bb4c)" style="fill: none; stroke: #d62728; stroke-width: 1.5; stroke-linecap: square"/>
   </g>
   <g id="line2d_31">
    <path d="M 72 320.399464 
L 170.753153 320.287199 
L 191.308108 320.048859 
L 203.81982 319.690454 
L 212.756757 319.220552 
L 219.906306 318.623374 
L 225.715315 317.91755 
L 230.630631 317.102679 
L 235.099099 316.130807 
L 239.120721 315.014375 
L 242.695495 313.782434 
L 245.823423 312.480987 
L 248.951351 310.933027 
L 251.632432 309.379481 
L 254.313514 307.587765 
L 256.994595 305.529221 
L 259.675676 303.174947 
L 262.356757 300.497212 
L 265.037838 297.471397 
L 267.718919 294.078508 
L 270.4 290.308248 
L 273.081081 286.162521 
L 276.209009 280.87605 
L 279.783784 274.320323 
L 284.252252 265.595499 
L 291.401802 251.55861 
L 294.52973 245.913912 
L 297.210811 241.542708 
L 299.445045 238.314138 
L 301.679279 235.515872 
L 303.466667 233.611292 
L 305.254054 232.015849 
L 307.041441 230.734032 
L 308.828829 229.764264 
L 310.616216 229.099449 
L 312.403604 228.727704 
L 314.190991 228.633204 
L 315.978378 228.797064 
L 317.765766 229.198228 
L 319.553153 229.814289 
L 321.787387 230.851498 
L 324.021622 232.143778 
L 326.702703 233.970613 
L 329.830631 236.395689 
L 333.852252 239.830914 
L 340.108108 245.524375 
L 349.491892 254.050471 
L 355.300901 259.012172 
L 360.663063 263.28334 
L 365.578378 266.917135 
L 370.493694 270.280614 
L 375.409009 273.382581 
L 380.324324 276.237277 
L 385.686486 279.089449 
L 391.048649 281.690857 
L 396.857658 284.252828 
L 402.666667 286.575426 
L 408.922523 288.838334 
L 415.625225 291.02045 
L 422.774775 293.105934 
L 430.371171 295.083807 
L 438.414414 296.947358 
L 447.351351 298.779736 
L 456.735135 300.474286 
L 467.012613 302.10288 
L 478.183784 303.647397 
L 490.695495 305.145988 
L 504.547748 306.57149 
L 518.4 307.796684 
L 518.4 307.796684 
" clip-path="url(#pc72437bb4c)" style="fill: none; stroke: #9467bd; stroke-width: 1.5; stroke-linecap: square"/>
   </g>
   <g id="patch_3">
    <path d="M 72 320.4 
L 72 43.2 
" style="fill: none; stroke: #000000; stroke-width: 0.8; stroke-linejoin: miter; stroke-linecap: square"/>
   </g>
   <g id="patch_4">
    <path d="M 518.4 320.4 
L 518.4 43.2 
" style="fill: none; stroke: #000000; stroke-width: 0.8; stroke-linejoin: miter; stroke-linecap: square"/>
   </g>
   <g id="patch_5">
    <path d="M 72 320.4 
L 518.4 320.4 
" style="fill: none; stroke: #000000; stroke-width: 0.8; stroke-linejoin: miter; stroke-linecap: square"/>
   </g>
   <g id="patch_6">
    <path d="M 72 43.2 
L 518.4 43.2 
" style="fill: none; stroke: #000000; stroke-width: 0.8; stroke-linejoin: miter; stroke-linecap: square"/>
   </g>
   <g id="text_16">
    <!-- Normal Inverse Gaussian distribution -->
    <g transform="translate(183.9525 37.2) scale(0.12 -0.12)">
     <defs>
      <path id="DejaVuSans-4e" d="M 628 4666 
L 1478 4666 
L 3547 763 
L 3547 4666 
L 4159 4666 
L 4159 0 
L 3309 0 
L 1241 3903 
L 1241 0 
L 628 0 
L 628 4666 
z
" transform="scale(0.015625)"/>
      <path id="DejaVuSans-6d" d="M 3328 2828 
Q 3544 3216 3844 3400 
Q 4144 3584 4550 3584 
Q 5097 3584 5394 3201 
Q 5691 2819 5691 2113 
L 5691 0 
L 5113 0 
L 5113 2094 
Q 5113 2597 4934 2840 
Q 4756 3084 4391 3084 
Q 3944 3084 3684 2787 
Q 3425 2491 3425 1978 
L 3425 0 
L 2847 0 
L 2847 2094 
Q 2847 2600 2669 2842 
Q 2491 3084 2119 3084 
Q 1678 3084 1418 2786 
Q 1159 2488 1159 1978 
L 1159 0 
L 581 0 
L 581 3500 
L 1159 3500 
L 1159 2956 
Q 1356 3278 1631 3431 
Q 1906 3584 2284 3584 
Q 2666 3584 2933 3390 
Q 3200 3197 3328 2828 
z
" transform="scale(0.015625)"/>
      <path id="DejaVuSans-49" d="M 628 4666 
L 1259 4666 
L 1259 0 
L 628 0 
L 628 4666 
z
" transform="scale(0.015625)"/>
      <path id="DejaVuSans-76" d="M 191 3500 
L 800 3500 
L 1894 563 
L 2988 3500 
L 3597 3500 
L 2284 0 
L 1503 0 
L 191 3500 
z
" transform="scale(0.015625)"/>
      <path id="DejaVuSans-47" d="M 3809 666 
L 3809 1919 
L 2778 1919 
L 2778 2438 
L 4434 2438 
L 4434 434 
Q 4069 175 3628 42 
Q 3188 -91 2688 -91 
Q 1594 -91 976 548 
Q 359 1188 359 2328 
Q 359 3472 976 4111 
Q 1594 4750 2688 4750 
Q 3144 4750 3555 4637 
Q 3966 4525 4313 4306 
L 4313 3634 
Q 3963 3931 3569 4081 
Q 3175 4231 2741 4231 
Q 1884 4231 1454 3753 
Q 1025 3275 1025 2328 
Q 1025 1384 1454 906 
Q 1884 428 2741 428 
Q 3075 428 3337 486 
Q 3600 544 3809 666 
z
" transform="scale(0.015625)"/>
      <path id="DejaVuSans-75" d="M 544 1381 
L 544 3500 
L 1119 3500 
L 1119 1403 
Q 1119 906 1312 657 
Q 1506 409 1894 409 
Q 2359 409 2629 706 
Q 2900 1003 2900 1516 
L 2900 3500 
L 3475 3500 
L 3475 0 
L 2900 0 
L 2900 538 
Q 2691 219 2414 64 
Q 2138 -91 1772 -91 
Q 1169 -91 856 284 
Q 544 659 544 1381 
z
M 1991 3584 
L 1991 3584 
z
" transform="scale(0.015625)"/>
     </defs>
     <use xlink:href="#DejaVuSans-4e"/>
     <use xlink:href="#DejaVuSans-6f" x="74.804688"/>
     <use xlink:href="#DejaVuSans-72" x="135.986328"/>
     <use xlink:href="#DejaVuSans-6d" x="175.349609"/>
     <use xlink:href="#DejaVuSans-61" x="272.761719"/>
     <use xlink:href="#DejaVuSans-6c" x="334.041016"/>
     <use xlink:href="#DejaVuSans-20" x="361.824219"/>
     <use xlink:href="#DejaVuSans-49" x="393.611328"/>
     <use xlink:href="#DejaVuSans-6e" x="423.103516"/>
     <use xlink:href="#DejaVuSans-76" x="486.482422"/>
     <use xlink:href="#DejaVuSans-65" x="545.662109"/>
     <use xlink:href="#DejaVuSans-72" x="607.185547"/>
     <use xlink:href="#DejaVuSans-73" x="648.298828"/>
     <use xlink:href="#DejaVuSans-65" x="700.398438"/>
     <use xlink:href="#DejaVuSans-20" x="761.921875"/>
     <use xlink:href="#DejaVuSans-47" x="793.708984"/>
     <use xlink:href="#DejaVuSans-61" x="871.199219"/>
     <use xlink:href="#DejaVuSans-75" x="932.478516"/>
     <use xlink:href="#DejaVuSans-73" x="995.857422"/>
     <use xlink:href="#DejaVuSans-73" x="1047.957031"/>
     <use xlink:href="#DejaVuSans-69" x="1100.056641"/>
     <use xlink:href="#DejaVuSans-61" x="1127.839844"/>
     <use xlink:href="#DejaVuSans-6e" x="1189.119141"/>
     <use xlink:href="#DejaVuSans-20" x="1252.498047"/>
     <use xlink:href="#DejaVuSans-64" x="1284.285156"/>
     <use xlink:href="#DejaVuSans-69" x="1347.761719"/>
     <use xlink:href="#DejaVuSans-73" x="1375.544922"/>
     <use xlink:href="#DejaVuSans-74" x="1427.644531"/>
     <use xlink:href="#DejaVuSans-72" x="1466.853516"/>
     <use xlink:href="#DejaVuSans-69" x="1507.966797"/>
     <use xlink:href="#DejaVuSans-62" x="1535.75"/>
     <use xlink:href="#DejaVuSans-75" x="1599.226562"/>
     <use xlink:href="#DejaVuSans-74" x="1662.605469"/>
     <use xlink:href="#DejaVuSans-69" x="1701.814453"/>
     <use xlink:href="#DejaVuSans-6f" x="1729.597656"/>
     <use xlink:href="#DejaVuSans-6e" x="1790.779297"/>
    </g>
   </g>
   <g id="legend_1">
    <g id="patch_7">
     <path d="M 398.3625 124.903125 
L 511.4 124.903125 
Q 513.4 124.903125 513.4 122.903125 
L 513.4 50.2 
Q 513.4 48.2 511.4 48.2 
L 398.3625 48.2 
Q 396.3625 48.2 396.3625 50.2 
L 396.3625 122.903125 
Q 396.3625 124.903125 398.3625 124.903125 
z
" style="fill: #ffffff; opacity: 0.8; stroke: #cccccc; stroke-linejoin: miter"/>
    </g>
    <g id="line2d_32">
     <path d="M 400.3625 56.360937 
L 410.3625 56.360937 
L 420.3625 56.360937 
" style="fill: none; stroke: #1f77b4; stroke-width: 1.5; stroke-linecap: square"/>
    </g>
    <g id="text_17">
     <!-- α = 1, β = 0 -->
     <g transform="translate(428.3625 59.860937) scale(0.1 -0.1)">
      <defs>
       <path id="DejaVuSans-3b1" d="M 2644 1628 
L 2506 2350 
Q 2366 3091 1809 3091 
Q 1391 3091 1200 2747 
Q 959 2316 959 1747 
Q 959 1059 1194 731 
Q 1431 397 1809 397 
Q 2228 397 2453 1063 
L 2644 1628 
z
M 2966 2584 
L 3275 3500 
L 3788 3500 
L 3147 1603 
L 3272 919 
Q 3300 766 3409 638 
Q 3538 488 3638 488 
L 3913 488 
L 3913 0 
L 3569 0 
Q 3275 0 3013 263 
Q 2884 394 2831 669 
Q 2688 322 2394 50 
Q 2256 -78 1809 -78 
Q 1075 -78 719 397 
Q 353 888 353 1747 
Q 353 2666 750 3097 
Q 1191 3578 1809 3578 
Q 2781 3578 2966 2584 
z
" transform="scale(0.015625)"/>
       <path id="DejaVuSans-3d" d="M 678 2906 
L 4684 2906 
L 4684 2381 
L 678 2381 
L 678 2906 
z
M 678 1631 
L 4684 1631 
L 4684 1100 
L 678 1100 
L 678 1631 
z
" transform="scale(0.015625)"/>
       <path id="DejaVuSans-2c" d="M 750 794 
L 1409 794 
L 1409 256 
L 897 -744 
L 494 -744 
L 750 256 
L 750 794 
z
" transform="scale(0.015625)"/>
       <path id="DejaVuSans-3b2" d="M 1178 216 
L 1178 -1331 
L 600 -1331 
L 600 3478 
Q 600 4903 1931 4903 
Q 3288 4903 3288 3700 
Q 3288 2844 2750 2531 
Q 3625 2250 3625 1416 
Q 3625 -66 2119 -66 
Q 1456 -66 1178 216 
z
M 1178 966 
Q 1525 425 2141 425 
Q 3041 425 3041 1406 
Q 3041 2288 1591 2219 
L 1591 2750 
Q 2725 2750 2725 3750 
Q 2725 4434 1994 4434 
Q 1178 4434 1178 3459 
L 1178 966 
z
" transform="scale(0.015625)"/>
      </defs>
      <use xlink:href="#DejaVuSans-3b1"/>
      <use xlink:href="#DejaVuSans-20" x="65.917969"/>
      <use xlink:href="#DejaVuSans-3d" x="97.705078"/>
      <use xlink:href="#DejaVuSans-20" x="181.494141"/>
      <use xlink:href="#DejaVuSans-31" x="213.28125"/>
      <use xlink:href="#DejaVuSans-2c" x="276.904297"/>
      <use xlink:href="#DejaVuSans-20" x="308.691406"/>
      <use xlink:href="#DejaVuSans-3b2" x="340.478516"/>
      <use xlink:href="#DejaVuSans-20" x="404.296875"/>
      <use xlink:href="#DejaVuSans-3d" x="436.083984"/>
      <use xlink:href="#DejaVuSans-20" x="519.873047"/>
      <use xlink:href="#DejaVuSans-30" x="551.660156"/>
     </g>
    </g>
    <g id="line2d_33">
     <path d="M 400.3625 71.101562 
L 410.3625 71.101562 
L 420.3625 71.101562 
" style="fill: none; stroke: #ff7f0e; stroke-width: 1.5; stroke-linecap: square"/>
    </g>
    <g id="text_18">
     <!-- α = 3, β = 0 -->
     <g transform="translate(428.3625 74.601562) scale(0.1 -0.1)">
      <use xlink:href="#DejaVuSans-3b1"/>
      <use xlink:href="#DejaVuSans-20" x="65.917969"/>
      <use xlink:href="#DejaVuSans-3d" x="97.705078"/>
      <use xlink:href="#DejaVuSans-20" x="181.494141"/>
      <use xlink:href="#DejaVuSans-33" x="213.28125"/>
      <use xlink:href="#DejaVuSans-2c" x="276.904297"/>
      <use xlink:href="#DejaVuSans-20" x="308.691406"/>
      <use xlink:href="#DejaVuSans-3b2" x="340.478516"/>
      <use xlink:href="#DejaVuSans-20" x="404.296875"/>
      <use xlink:href="#DejaVuSans-3d" x="436.083984"/>
      <use xlink:href="#DejaVuSans-20" x="519.873047"/>
      <use xlink:href="#DejaVuSans-30" x="551.660156"/>
     </g>
    </g>
    <g id="line2d_34">
     <path d="M 400.3625 85.842187 
L 410.3625 85.842187 
L 420.3625 85.842187 
" style="fill: none; stroke: #2ca02c; stroke-width: 1.5; stroke-linecap: square"/>
    </g>
    <g id="text_19">
     <!-- α = 0.1, β = 0 -->
     <g transform="translate(428.3625 89.342187) scale(0.1 -0.1)">
      <use xlink:href="#DejaVuSans-3b1"/>
      <use xlink:href="#DejaVuSans-20" x="65.917969"/>
      <use xlink:href="#DejaVuSans-3d" x="97.705078"/>
      <use xlink:href="#DejaVuSans-20" x="181.494141"/>
      <use xlink:href="#DejaVuSans-30" x="213.28125"/>
      <use xlink:href="#DejaVuSans-2e" x="276.904297"/>
      <use xlink:href="#DejaVuSans-31" x="308.691406"/>
      <use xlink:href="#DejaVuSans-2c" x="372.314453"/>
      <use xlink:href="#DejaVuSans-20" x="404.101562"/>
      <use xlink:href="#DejaVuSans-3b2" x="435.888672"/>
      <use xlink:href="#DejaVuSans-20" x="499.707031"/>
      <use xlink:href="#DejaVuSans-3d" x="531.494141"/>
      <use xlink:href="#DejaVuSans-20" x="615.283203"/>
      <use xlink:href="#DejaVuSans-30" x="647.070312"/>
     </g>
    </g>
    <g id="line2d_35">
     <path d="M 400.3625 100.582812 
L 410.3625 100.582812 
L 420.3625 100.582812 
" style="fill: none; stroke: #d62728; stroke-width: 1.5; stroke-linecap: square"/>
    </g>
    <g id="text_20">
     <!-- α = 1, β = -0.99 -->
     <g transform="translate(428.3625 104.082812) scale(0.1 -0.1)">
      <defs>
       <path id="DejaVuSans-2d" d="M 313 2009 
L 1997 2009 
L 1997 1497 
L 313 1497 
L 313 2009 
z
" transform="scale(0.015625)"/>
       <path id="DejaVuSans-39" d="M 703 97 
L 703 672 
Q 941 559 1184 500 
Q 1428 441 1663 441 
Q 2288 441 2617 861 
Q 2947 1281 2994 2138 
Q 2813 1869 2534 1725 
Q 2256 1581 1919 1581 
Q 1219 1581 811 2004 
Q 403 2428 403 3163 
Q 403 3881 828 4315 
Q 1253 4750 1959 4750 
Q 2769 4750 3195 4129 
Q 3622 3509 3622 2328 
Q 3622 1225 3098 567 
Q 2575 -91 1691 -91 
Q 1453 -91 1209 -44 
Q 966 3 703 97 
z
M 1959 2075 
Q 2384 2075 2632 2365 
Q 2881 2656 2881 3163 
Q 2881 3666 2632 3958 
Q 2384 4250 1959 4250 
Q 1534 4250 1286 3958 
Q 1038 3666 1038 3163 
Q 1038 2656 1286 2365 
Q 1534 2075 1959 2075 
z
" transform="scale(0.015625)"/>
      </defs>
      <use xlink:href="#DejaVuSans-3b1"/>
      <use xlink:href="#DejaVuSans-20" x="65.917969"/>
      <use xlink:href="#DejaVuSans-3d" x="97.705078"/>
      <use xlink:href="#DejaVuSans-20" x="181.494141"/>
      <use xlink:href="#DejaVuSans-31" x="213.28125"/>
      <use xlink:href="#DejaVuSans-2c" x="276.904297"/>
      <use xlink:href="#DejaVuSans-20" x="308.691406"/>
      <use xlink:href="#DejaVuSans-3b2" x="340.478516"/>
      <use xlink:href="#DejaVuSans-20" x="404.296875"/>
      <use xlink:href="#DejaVuSans-3d" x="436.083984"/>
      <use xlink:href="#DejaVuSans-20" x="519.873047"/>
      <use xlink:href="#DejaVuSans-2d" x="551.660156"/>
      <use xlink:href="#DejaVuSans-30" x="587.744141"/>
      <use xlink:href="#DejaVuSans-2e" x="651.367188"/>
      <use xlink:href="#DejaVuSans-39" x="683.154297"/>
      <use xlink:href="#DejaVuSans-39" x="746.777344"/>
     </g>
    </g>
    <g id="line2d_36">
     <path d="M 400.3625 115.323437 
L 410.3625 115.323437 
L 420.3625 115.323437 
" style="fill: none; stroke: #9467bd; stroke-width: 1.5; stroke-linecap: square"/>
    </g>
    <g id="text_21">
     <!-- α = 1, β = 0.99 -->
     <g transform="translate(428.3625 118.823437) scale(0.1 -0.1)">
      <use xlink:href="#DejaVuSans-3b1"/>
      <use xlink:href="#DejaVuSans-20" x="65.917969"/>
      <use xlink:href="#DejaVuSans-3d" x="97.705078"/>
      <use xlink:href="#DejaVuSans-20" x="181.494141"/>
      <use xlink:href="#DejaVuSans-31" x="213.28125"/>
      <use xlink:href="#DejaVuSans-2c" x="276.904297"/>
      <use xlink:href="#DejaVuSans-20" x="308.691406"/>
      <use xlink:href="#DejaVuSans-3b2" x="340.478516"/>
      <use xlink:href="#DejaVuSans-20" x="404.296875"/>
      <use xlink:href="#DejaVuSans-3d" x="436.083984"/>
      <use xlink:href="#DejaVuSans-20" x="519.873047"/>
      <use xlink:href="#DejaVuSans-30" x="551.660156"/>
      <use xlink:href="#DejaVuSans-2e" x="615.283203"/>
      <use xlink:href="#DejaVuSans-39" x="647.070312"/>
      <use xlink:href="#DejaVuSans-39" x="710.693359"/>
     </g>
    </g>
   </g>
  </g>
 </g>
 <defs>
  <clipPath id="pc72437bb4c">
   <rect x="72" y="43.2" width="446.4" height="277.2"/>
  </clipPath>
 </defs>
</svg>
