<?xml version="1.0" encoding="utf-8" standalone="no"?>
<!DOCTYPE svg PUBLIC "-//W3C//DTD SVG 1.1//EN"
  "http://www.w3.org/Graphics/SVG/1.1/DTD/svg11.dtd">
<svg xmlns:xlink="http://www.w3.org/1999/xlink" width="576pt" height="360pt" viewBox="0 0 576 360" xmlns="http://www.w3.org/2000/svg" version="1.1">
 <metadata>
  <rdf:RDF xmlns:dc="http://purl.org/dc/elements/1.1/" xmlns:cc="http://creativecommons.org/ns#" xmlns:rdf="http://www.w3.org/1999/02/22-rdf-syntax-ns#">
   <cc:Work>
    <dc:type rdf:resource="http://purl.org/dc/dcmitype/StillImage"/>
    <dc:date>2024-05-02T16:43:12.465532</dc:date>
    <dc:format>image/svg+xml</dc:format>
    <dc:creator>
     <cc:Agent>
      <dc:title>Matplotlib v3.8.4, https://matplotlib.org/</dc:title>
     </cc:Agent>
    </dc:creator>
   </cc:Work>
  </rdf:RDF>
 </metadata>
 <defs>
  <style type="text/css">*{stroke-linejoin: round; stroke-linecap: butt}</style>
 </defs>
 <g id="figure_1">
  <g id="patch_1">
   <path d="M 0 360 
L 576 360 
L 576 0 
L 0 0 
z
" style="fill: #ffffff"/>
  </g>
  <g id="axes_1">
   <g id="patch_2">
    <path d="M 72 320.4 
L 518.4 320.4 
L 518.4 43.2 
L 72 43.2 
z
" style="fill: #ffffff"/>
   </g>
   <g id="matplotlib.axis_1">
    <g id="xtick_1">
     <g id="line2d_1">
      <path d="M 116.64 320.4 
L 116.64 43.2 
" clip-path="url(#pcce63a714d)" style="fill: none; stroke: #b0b0b0; stroke-width: 0.8; stroke-linecap: square"/>
     </g>
     <g id="line2d_2">
      <defs>
       <path id="m19373bb740" d="M 0 0 
L 0 3.5 
" style="stroke: #000000; stroke-width: 0.8"/>
      </defs>
      <g>
       <use xlink:href="#m19373bb740" x="116.64" y="320.4" style="stroke: #000000; stroke-width: 0.8"/>
      </g>
     </g>
     <g id="text_1">
      <!-- −4 -->
      <g transform="translate(109.268906 334.998438) scale(0.1 -0.1)">
       <defs>
        <path id="DejaVuSans-2212" d="M 678 2272 
L 4684 2272 
L 4684 1741 
L 678 1741 
L 678 2272 
z
" transform="scale(0.015625)"/>
        <path id="DejaVuSans-34" d="M 2419 4116 
L 825 1625 
L 2419 1625 
L 2419 4116 
z
M 2253 4666 
L 3047 4666 
L 3047 1625 
L 3713 1625 
L 3713 1100 
L 3047 1100 
L 3047 0 
L 2419 0 
L 2419 1100 
L 313 1100 
L 313 1709 
L 2253 4666 
z
" transform="scale(0.015625)"/>
       </defs>
       <use xlink:href="#DejaVuSans-2212"/>
       <use xlink:href="#DejaVuSans-34" x="83.789062"/>
      </g>
     </g>
    </g>
    <g id="xtick_2">
     <g id="line2d_3">
      <path d="M 205.92 320.4 
L 205.92 43.2 
" clip-path="url(#pcce63a714d)" style="fill: none; stroke: #b0b0b0; stroke-width: 0.8; stroke-linecap: square"/>
     </g>
     <g id="line2d_4">
      <g>
       <use xlink:href="#m19373bb740" x="205.92" y="320.4" style="stroke: #000000; stroke-width: 0.8"/>
      </g>
     </g>
     <g id="text_2">
      <!-- −2 -->
      <g transform="translate(198.548906 334.998438) scale(0.1 -0.1)">
       <defs>
        <path id="DejaVuSans-32" d="M 1228 531 
L 3431 531 
L 3431 0 
L 469 0 
L 469 531 
Q 828 903 1448 1529 
Q 2069 2156 2228 2338 
Q 2531 2678 2651 2914 
Q 2772 3150 2772 3378 
Q 2772 3750 2511 3984 
Q 2250 4219 1831 4219 
Q 1534 4219 1204 4116 
Q 875 4013 500 3803 
L 500 4441 
Q 881 4594 1212 4672 
Q 1544 4750 1819 4750 
Q 2544 4750 2975 4387 
Q 3406 4025 3406 3419 
Q 3406 3131 3298 2873 
Q 3191 2616 2906 2266 
Q 2828 2175 2409 1742 
Q 1991 1309 1228 531 
z
" transform="scale(0.015625)"/>
       </defs>
       <use xlink:href="#DejaVuSans-2212"/>
       <use xlink:href="#DejaVuSans-32" x="83.789062"/>
      </g>
     </g>
    </g>
    <g id="xtick_3">
     <g id="line2d_5">
      <path d="M 295.2 320.4 
L 295.2 43.2 
" clip-path="url(#pcce63a714d)" style="fill: none; stroke: #b0b0b0; stroke-width: 0.8; stroke-linecap: square"/>
     </g>
     <g id="line2d_6">
      <g>
       <use xlink:href="#m19373bb740" x="295.2" y="320.4" style="stroke: #000000; stroke-width: 0.8"/>
      </g>
     </g>
     <g id="text_3">
      <!-- 0 -->
      <g transform="translate(292.01875 334.998438) scale(0.1 -0.1)">
       <defs>
        <path id="DejaVuSans-30" d="M 2034 4250 
Q 1547 4250 1301 3770 
Q 1056 3291 1056 2328 
Q 1056 1369 1301 889 
Q 1547 409 2034 409 
Q 2525 409 2770 889 
Q 3016 1369 3016 2328 
Q 3016 3291 2770 3770 
Q 2525 4250 2034 4250 
z
M 2034 4750 
Q 2819 4750 3233 4129 
Q 3647 3509 3647 2328 
Q 3647 1150 3233 529 
Q 2819 -91 2034 -91 
Q 1250 -91 836 529 
Q 422 1150 422 2328 
Q 422 3509 836 4129 
Q 1250 4750 2034 4750 
z
" transform="scale(0.015625)"/>
       </defs>
       <use xlink:href="#DejaVuSans-30"/>
      </g>
     </g>
    </g>
    <g id="xtick_4">
     <g id="line2d_7">
      <path d="M 384.48 320.4 
L 384.48 43.2 
" clip-path="url(#pcce63a714d)" style="fill: none; stroke: #b0b0b0; stroke-width: 0.8; stroke-linecap: square"/>
     </g>
     <g id="line2d_8">
      <g>
       <use xlink:href="#m19373bb740" x="384.48" y="320.4" style="stroke: #000000; stroke-width: 0.8"/>
      </g>
     </g>
     <g id="text_4">
      <!-- 2 -->
      <g transform="translate(381.29875 334.998438) scale(0.1 -0.1)">
       <use xlink:href="#DejaVuSans-32"/>
      </g>
     </g>
    </g>
    <g id="xtick_5">
     <g id="line2d_9">
      <path d="M 473.76 320.4 
L 473.76 43.2 
" clip-path="url(#pcce63a714d)" style="fill: none; stroke: #b0b0b0; stroke-width: 0.8; stroke-linecap: square"/>
     </g>
     <g id="line2d_10">
      <g>
       <use xlink:href="#m19373bb740" x="473.76" y="320.4" style="stroke: #000000; stroke-width: 0.8"/>
      </g>
     </g>
     <g id="text_5">
      <!-- 4 -->
      <g transform="translate(470.57875 334.998438) scale(0.1 -0.1)">
       <use xlink:href="#DejaVuSans-34"/>
      </g>
     </g>
    </g>
    <g id="text_6">
     <!-- x -->
     <g transform="translate(292.240625 348.676562) scale(0.1 -0.1)">
      <defs>
       <path id="DejaVuSans-78" d="M 3513 3500 
L 2247 1797 
L 3578 0 
L 2900 0 
L 1881 1375 
L 863 0 
L 184 0 
L 1544 1831 
L 300 3500 
L 978 3500 
L 1906 2253 
L 2834 3500 
L 3513 3500 
z
" transform="scale(0.015625)"/>
      </defs>
      <use xlink:href="#DejaVuSans-78"/>
     </g>
    </g>
   </g>
   <g id="matplotlib.axis_2">
    <g id="ytick_1">
     <g id="line2d_11">
      <path d="M 72 284.407897 
L 518.4 284.407897 
" clip-path="url(#pcce63a714d)" style="fill: none; stroke: #b0b0b0; stroke-width: 0.8; stroke-linecap: square"/>
     </g>
     <g id="line2d_12">
      <defs>
       <path id="m3ad31da1ca" d="M 0 0 
L -3.5 0 
" style="stroke: #000000; stroke-width: 0.8"/>
      </defs>
      <g>
       <use xlink:href="#m3ad31da1ca" x="72" y="284.407897" style="stroke: #000000; stroke-width: 0.8"/>
      </g>
     </g>
     <g id="text_7">
      <!-- 0.1 -->
      <g transform="translate(49.096875 288.207116) scale(0.1 -0.1)">
       <defs>
        <path id="DejaVuSans-2e" d="M 684 794 
L 1344 794 
L 1344 0 
L 684 0 
L 684 794 
z
" transform="scale(0.015625)"/>
        <path id="DejaVuSans-31" d="M 794 531 
L 1825 531 
L 1825 4091 
L 703 3866 
L 703 4441 
L 1819 4666 
L 2450 4666 
L 2450 531 
L 3481 531 
L 3481 0 
L 794 0 
L 794 531 
z
" transform="scale(0.015625)"/>
       </defs>
       <use xlink:href="#DejaVuSans-30"/>
       <use xlink:href="#DejaVuSans-2e" x="63.623047"/>
       <use xlink:href="#DejaVuSans-31" x="95.410156"/>
      </g>
     </g>
    </g>
    <g id="ytick_2">
     <g id="line2d_13">
      <path d="M 72 248.415693 
L 518.4 248.415693 
" clip-path="url(#pcce63a714d)" style="fill: none; stroke: #b0b0b0; stroke-width: 0.8; stroke-linecap: square"/>
     </g>
     <g id="line2d_14">
      <g>
       <use xlink:href="#m3ad31da1ca" x="72" y="248.415693" style="stroke: #000000; stroke-width: 0.8"/>
      </g>
     </g>
     <g id="text_8">
      <!-- 0.2 -->
      <g transform="translate(49.096875 252.214911) scale(0.1 -0.1)">
       <use xlink:href="#DejaVuSans-30"/>
       <use xlink:href="#DejaVuSans-2e" x="63.623047"/>
       <use xlink:href="#DejaVuSans-32" x="95.410156"/>
      </g>
     </g>
    </g>
    <g id="ytick_3">
     <g id="line2d_15">
      <path d="M 72 212.423488 
L 518.4 212.423488 
" clip-path="url(#pcce63a714d)" style="fill: none; stroke: #b0b0b0; stroke-width: 0.8; stroke-linecap: square"/>
     </g>
     <g id="line2d_16">
      <g>
       <use xlink:href="#m3ad31da1ca" x="72" y="212.423488" style="stroke: #000000; stroke-width: 0.8"/>
      </g>
     </g>
     <g id="text_9">
      <!-- 0.3 -->
      <g transform="translate(49.096875 216.222707) scale(0.1 -0.1)">
       <defs>
        <path id="DejaVuSans-33" d="M 2597 2516 
Q 3050 2419 3304 2112 
Q 3559 1806 3559 1356 
Q 3559 666 3084 287 
Q 2609 -91 1734 -91 
Q 1441 -91 1130 -33 
Q 819 25 488 141 
L 488 750 
Q 750 597 1062 519 
Q 1375 441 1716 441 
Q 2309 441 2620 675 
Q 2931 909 2931 1356 
Q 2931 1769 2642 2001 
Q 2353 2234 1838 2234 
L 1294 2234 
L 1294 2753 
L 1863 2753 
Q 2328 2753 2575 2939 
Q 2822 3125 2822 3475 
Q 2822 3834 2567 4026 
Q 2313 4219 1838 4219 
Q 1578 4219 1281 4162 
Q 984 4106 628 3988 
L 628 4550 
Q 988 4650 1302 4700 
Q 1616 4750 1894 4750 
Q 2613 4750 3031 4423 
Q 3450 4097 3450 3541 
Q 3450 3153 3228 2886 
Q 3006 2619 2597 2516 
z
" transform="scale(0.015625)"/>
       </defs>
       <use xlink:href="#DejaVuSans-30"/>
       <use xlink:href="#DejaVuSans-2e" x="63.623047"/>
       <use xlink:href="#DejaVuSans-33" x="95.410156"/>
      </g>
     </g>
    </g>
    <g id="ytick_4">
     <g id="line2d_17">
      <path d="M 72 176.431284 
L 518.4 176.431284 
" clip-path="url(#pcce63a714d)" style="fill: none; stroke: #b0b0b0; stroke-width: 0.8; stroke-linecap: square"/>
     </g>
     <g id="line2d_18">
      <g>
       <use xlink:href="#m3ad31da1ca" x="72" y="176.431284" style="stroke: #000000; stroke-width: 0.8"/>
      </g>
     </g>
     <g id="text_10">
      <!-- 0.4 -->
      <g transform="translate(49.096875 180.230503) scale(0.1 -0.1)">
       <use xlink:href="#DejaVuSans-30"/>
       <use xlink:href="#DejaVuSans-2e" x="63.623047"/>
       <use xlink:href="#DejaVuSans-34" x="95.410156"/>
      </g>
     </g>
    </g>
    <g id="ytick_5">
     <g id="line2d_19">
      <path d="M 72 140.43908 
L 518.4 140.43908 
" clip-path="url(#pcce63a714d)" style="fill: none; stroke: #b0b0b0; stroke-width: 0.8; stroke-linecap: square"/>
     </g>
     <g id="line2d_20">
      <g>
       <use xlink:href="#m3ad31da1ca" x="72" y="140.43908" style="stroke: #000000; stroke-width: 0.8"/>
      </g>
     </g>
     <g id="text_11">
      <!-- 0.5 -->
      <g transform="translate(49.096875 144.238299) scale(0.1 -0.1)">
       <defs>
        <path id="DejaVuSans-35" d="M 691 4666 
L 3169 4666 
L 3169 4134 
L 1269 4134 
L 1269 2991 
Q 1406 3038 1543 3061 
Q 1681 3084 1819 3084 
Q 2600 3084 3056 2656 
Q 3513 2228 3513 1497 
Q 3513 744 3044 326 
Q 2575 -91 1722 -91 
Q 1428 -91 1123 -41 
Q 819 9 494 109 
L 494 744 
Q 775 591 1075 516 
Q 1375 441 1709 441 
Q 2250 441 2565 725 
Q 2881 1009 2881 1497 
Q 2881 1984 2565 2268 
Q 2250 2553 1709 2553 
Q 1456 2553 1204 2497 
Q 953 2441 691 2322 
L 691 4666 
z
" transform="scale(0.015625)"/>
       </defs>
       <use xlink:href="#DejaVuSans-30"/>
       <use xlink:href="#DejaVuSans-2e" x="63.623047"/>
       <use xlink:href="#DejaVuSans-35" x="95.410156"/>
      </g>
     </g>
    </g>
    <g id="ytick_6">
     <g id="line2d_21">
      <path d="M 72 104.446876 
L 518.4 104.446876 
" clip-path="url(#pcce63a714d)" style="fill: none; stroke: #b0b0b0; stroke-width: 0.8; stroke-linecap: square"/>
     </g>
     <g id="line2d_22">
      <g>
       <use xlink:href="#m3ad31da1ca" x="72" y="104.446876" style="stroke: #000000; stroke-width: 0.8"/>
      </g>
     </g>
     <g id="text_12">
      <!-- 0.6 -->
      <g transform="translate(49.096875 108.246094) scale(0.1 -0.1)">
       <defs>
        <path id="DejaVuSans-36" d="M 2113 2584 
Q 1688 2584 1439 2293 
Q 1191 2003 1191 1497 
Q 1191 994 1439 701 
Q 1688 409 2113 409 
Q 2538 409 2786 701 
Q 3034 994 3034 1497 
Q 3034 2003 2786 2293 
Q 2538 2584 2113 2584 
z
M 3366 4563 
L 3366 3988 
Q 3128 4100 2886 4159 
Q 2644 4219 2406 4219 
Q 1781 4219 1451 3797 
Q 1122 3375 1075 2522 
Q 1259 2794 1537 2939 
Q 1816 3084 2150 3084 
Q 2853 3084 3261 2657 
Q 3669 2231 3669 1497 
Q 3669 778 3244 343 
Q 2819 -91 2113 -91 
Q 1303 -91 875 529 
Q 447 1150 447 2328 
Q 447 3434 972 4092 
Q 1497 4750 2381 4750 
Q 2619 4750 2861 4703 
Q 3103 4656 3366 4563 
z
" transform="scale(0.015625)"/>
       </defs>
       <use xlink:href="#DejaVuSans-30"/>
       <use xlink:href="#DejaVuSans-2e" x="63.623047"/>
       <use xlink:href="#DejaVuSans-36" x="95.410156"/>
      </g>
     </g>
    </g>
    <g id="ytick_7">
     <g id="line2d_23">
      <path d="M 72 68.454671 
L 518.4 68.454671 
" clip-path="url(#pcce63a714d)" style="fill: none; stroke: #b0b0b0; stroke-width: 0.8; stroke-linecap: square"/>
     </g>
     <g id="line2d_24">
      <g>
       <use xlink:href="#m3ad31da1ca" x="72" y="68.454671" style="stroke: #000000; stroke-width: 0.8"/>
      </g>
     </g>
     <g id="text_13">
      <!-- 0.7 -->
      <g transform="translate(49.096875 72.25389) scale(0.1 -0.1)">
       <defs>
        <path id="DejaVuSans-37" d="M 525 4666 
L 3525 4666 
L 3525 4397 
L 1831 0 
L 1172 0 
L 2766 4134 
L 525 4134 
L 525 4666 
z
" transform="scale(0.015625)"/>
       </defs>
       <use xlink:href="#DejaVuSans-30"/>
       <use xlink:href="#DejaVuSans-2e" x="63.623047"/>
       <use xlink:href="#DejaVuSans-37" x="95.410156"/>
      </g>
     </g>
    </g>
    <g id="text_14">
     <!-- Probability density -->
     <g transform="translate(43.017187 228.150781) rotate(-90) scale(0.1 -0.1)">
      <defs>
       <path id="DejaVuSans-50" d="M 1259 4147 
L 1259 2394 
L 2053 2394 
Q 2494 2394 2734 2622 
Q 2975 2850 2975 3272 
Q 2975 3691 2734 3919 
Q 2494 4147 2053 4147 
L 1259 4147 
z
M 628 4666 
L 2053 4666 
Q 2838 4666 3239 4311 
Q 3641 3956 3641 3272 
Q 3641 2581 3239 2228 
Q 2838 1875 2053 1875 
L 1259 1875 
L 1259 0 
L 628 0 
L 628 4666 
z
" transform="scale(0.015625)"/>
       <path id="DejaVuSans-72" d="M 2631 2963 
Q 2534 3019 2420 3045 
Q 2306 3072 2169 3072 
Q 1681 3072 1420 2755 
Q 1159 2438 1159 1844 
L 1159 0 
L 581 0 
L 581 3500 
L 1159 3500 
L 1159 2956 
Q 1341 3275 1631 3429 
Q 1922 3584 2338 3584 
Q 2397 3584 2469 3576 
Q 2541 3569 2628 3553 
L 2631 2963 
z
" transform="scale(0.015625)"/>
       <path id="DejaVuSans-6f" d="M 1959 3097 
Q 1497 3097 1228 2736 
Q 959 2375 959 1747 
Q 959 1119 1226 758 
Q 1494 397 1959 397 
Q 2419 397 2687 759 
Q 2956 1122 2956 1747 
Q 2956 2369 2687 2733 
Q 2419 3097 1959 3097 
z
M 1959 3584 
Q 2709 3584 3137 3096 
Q 3566 2609 3566 1747 
Q 3566 888 3137 398 
Q 2709 -91 1959 -91 
Q 1206 -91 779 398 
Q 353 888 353 1747 
Q 353 2609 779 3096 
Q 1206 3584 1959 3584 
z
" transform="scale(0.015625)"/>
       <path id="DejaVuSans-62" d="M 3116 1747 
Q 3116 2381 2855 2742 
Q 2594 3103 2138 3103 
Q 1681 3103 1420 2742 
Q 1159 2381 1159 1747 
Q 1159 1113 1420 752 
Q 1681 391 2138 391 
Q 2594 391 2855 752 
Q 3116 1113 3116 1747 
z
M 1159 2969 
Q 1341 3281 1617 3432 
Q 1894 3584 2278 3584 
Q 2916 3584 3314 3078 
Q 3713 2572 3713 1747 
Q 3713 922 3314 415 
Q 2916 -91 2278 -91 
Q 1894 -91 1617 61 
Q 1341 213 1159 525 
L 1159 0 
L 581 0 
L 581 4863 
L 1159 4863 
L 1159 2969 
z
" transform="scale(0.015625)"/>
       <path id="DejaVuSans-61" d="M 2194 1759 
Q 1497 1759 1228 1600 
Q 959 1441 959 1056 
Q 959 750 1161 570 
Q 1363 391 1709 391 
Q 2188 391 2477 730 
Q 2766 1069 2766 1631 
L 2766 1759 
L 2194 1759 
z
M 3341 1997 
L 3341 0 
L 2766 0 
L 2766 531 
Q 2569 213 2275 61 
Q 1981 -91 1556 -91 
Q 1019 -91 701 211 
Q 384 513 384 1019 
Q 384 1609 779 1909 
Q 1175 2209 1959 2209 
L 2766 2209 
L 2766 2266 
Q 2766 2663 2505 2880 
Q 2244 3097 1772 3097 
Q 1472 3097 1187 3025 
Q 903 2953 641 2809 
L 641 3341 
Q 956 3463 1253 3523 
Q 1550 3584 1831 3584 
Q 2591 3584 2966 3190 
Q 3341 2797 3341 1997 
z
" transform="scale(0.015625)"/>
       <path id="DejaVuSans-69" d="M 603 3500 
L 1178 3500 
L 1178 0 
L 603 0 
L 603 3500 
z
M 603 4863 
L 1178 4863 
L 1178 4134 
L 603 4134 
L 603 4863 
z
" transform="scale(0.015625)"/>
       <path id="DejaVuSans-6c" d="M 603 4863 
L 1178 4863 
L 1178 0 
L 603 0 
L 603 4863 
z
" transform="scale(0.015625)"/>
       <path id="DejaVuSans-74" d="M 1172 4494 
L 1172 3500 
L 2356 3500 
L 2356 3053 
L 1172 3053 
L 1172 1153 
Q 1172 725 1289 603 
Q 1406 481 1766 481 
L 2356 481 
L 2356 0 
L 1766 0 
Q 1100 0 847 248 
Q 594 497 594 1153 
L 594 3053 
L 172 3053 
L 172 3500 
L 594 3500 
L 594 4494 
L 1172 4494 
z
" transform="scale(0.015625)"/>
       <path id="DejaVuSans-79" d="M 2059 -325 
Q 1816 -950 1584 -1140 
Q 1353 -1331 966 -1331 
L 506 -1331 
L 506 -850 
L 844 -850 
Q 1081 -850 1212 -737 
Q 1344 -625 1503 -206 
L 1606 56 
L 191 3500 
L 800 3500 
L 1894 763 
L 2988 3500 
L 3597 3500 
L 2059 -325 
z
" transform="scale(0.015625)"/>
       <path id="DejaVuSans-20" transform="scale(0.015625)"/>
       <path id="DejaVuSans-64" d="M 2906 2969 
L 2906 4863 
L 3481 4863 
L 3481 0 
L 2906 0 
L 2906 525 
Q 2725 213 2448 61 
Q 2172 -91 1784 -91 
Q 1150 -91 751 415 
Q 353 922 353 1747 
Q 353 2572 751 3078 
Q 1150 3584 1784 3584 
Q 2172 3584 2448 3432 
Q 2725 3281 2906 2969 
z
M 947 1747 
Q 947 1113 1208 752 
Q 1469 391 1925 391 
Q 2381 391 2643 752 
Q 2906 1113 2906 1747 
Q 2906 2381 2643 2742 
Q 2381 3103 1925 3103 
Q 1469 3103 1208 2742 
Q 947 2381 947 1747 
z
" transform="scale(0.015625)"/>
       <path id="DejaVuSans-65" d="M 3597 1894 
L 3597 1613 
L 953 1613 
Q 991 1019 1311 708 
Q 1631 397 2203 397 
Q 2534 397 2845 478 
Q 3156 559 3463 722 
L 3463 178 
Q 3153 47 2828 -22 
Q 2503 -91 2169 -91 
Q 1331 -91 842 396 
Q 353 884 353 1716 
Q 353 2575 817 3079 
Q 1281 3584 2069 3584 
Q 2775 3584 3186 3129 
Q 3597 2675 3597 1894 
z
M 3022 2063 
Q 3016 2534 2758 2815 
Q 2500 3097 2075 3097 
Q 1594 3097 1305 2825 
Q 1016 2553 972 2059 
L 3022 2063 
z
" transform="scale(0.015625)"/>
       <path id="DejaVuSans-6e" d="M 3513 2113 
L 3513 0 
L 2938 0 
L 2938 2094 
Q 2938 2591 2744 2837 
Q 2550 3084 2163 3084 
Q 1697 3084 1428 2787 
Q 1159 2491 1159 1978 
L 1159 0 
L 581 0 
L 581 3500 
L 1159 3500 
L 1159 2956 
Q 1366 3272 1645 3428 
Q 1925 3584 2291 3584 
Q 2894 3584 3203 3211 
Q 3513 2838 3513 2113 
z
" transform="scale(0.015625)"/>
       <path id="DejaVuSans-73" d="M 2834 3397 
L 2834 2853 
Q 2591 2978 2328 3040 
Q 2066 3103 1784 3103 
Q 1356 3103 1142 2972 
Q 928 2841 928 2578 
Q 928 2378 1081 2264 
Q 1234 2150 1697 2047 
L 1894 2003 
Q 2506 1872 2764 1633 
Q 3022 1394 3022 966 
Q 3022 478 2636 193 
Q 2250 -91 1575 -91 
Q 1294 -91 989 -36 
Q 684 19 347 128 
L 347 722 
Q 666 556 975 473 
Q 1284 391 1588 391 
Q 1994 391 2212 530 
Q 2431 669 2431 922 
Q 2431 1156 2273 1281 
Q 2116 1406 1581 1522 
L 1381 1569 
Q 847 1681 609 1914 
Q 372 2147 372 2553 
Q 372 3047 722 3315 
Q 1072 3584 1716 3584 
Q 2034 3584 2315 3537 
Q 2597 3491 2834 3397 
z
" transform="scale(0.015625)"/>
      </defs>
      <use xlink:href="#DejaVuSans-50"/>
      <use xlink:href="#DejaVuSans-72" x="58.552734"/>
      <use xlink:href="#DejaVuSans-6f" x="97.416016"/>
      <use xlink:href="#DejaVuSans-62" x="158.597656"/>
      <use xlink:href="#DejaVuSans-61" x="222.074219"/>
      <use xlink:href="#DejaVuSans-62" x="283.353516"/>
      <use xlink:href="#DejaVuSans-69" x="346.830078"/>
      <use xlink:href="#DejaVuSans-6c" x="374.613281"/>
      <use xlink:href="#DejaVuSans-69" x="402.396484"/>
      <use xlink:href="#DejaVuSans-74" x="430.179688"/>
      <use xlink:href="#DejaVuSans-79" x="469.388672"/>
      <use xlink:href="#DejaVuSans-20" x="528.568359"/>
      <use xlink:href="#DejaVuSans-64" x="560.355469"/>
      <use xlink:href="#DejaVuSans-65" x="623.832031"/>
      <use xlink:href="#DejaVuSans-6e" x="685.355469"/>
      <use xlink:href="#DejaVuSans-73" x="748.734375"/>
      <use xlink:href="#DejaVuSans-69" x="800.833984"/>
      <use xlink:href="#DejaVuSans-74" x="828.617188"/>
      <use xlink:href="#DejaVuSans-79" x="867.826172"/>
     </g>
    </g>
   </g>
   <g id="line2d_25">
    <path d="M 72 320.178817 
L 101.045045 319.885047 
L 120.706306 319.474142 
L 135.452252 318.949169 
L 147.07027 318.320079 
L 156.900901 317.56539 
L 164.944144 316.735345 
L 172.093694 315.782372 
L 178.34955 314.734168 
L 184.158559 313.535025 
L 189.520721 312.189427 
L 194.436036 310.710632 
L 198.904505 309.121868 
L 202.926126 307.456881 
L 206.500901 305.759593 
L 210.075676 303.827211 
L 213.65045 301.626132 
L 216.778378 299.449869 
L 219.906306 297.010002 
L 223.034234 294.274688 
L 226.162162 291.208834 
L 228.843243 288.288884 
L 231.524324 285.071953 
L 234.205405 281.530501 
L 236.886486 277.635744 
L 239.567568 273.358112 
L 242.248649 268.66794 
L 244.92973 263.536435 
L 247.610811 257.937027 
L 250.291892 251.847142 
L 252.972973 245.250523 
L 256.100901 236.905287 
L 259.228829 227.872611 
L 262.803604 216.766264 
L 266.825225 203.441533 
L 279.783784 159.627844 
L 282.018018 153.086167 
L 284.252252 147.227342 
L 286.03964 143.135629 
L 287.827027 139.653199 
L 289.167568 137.481149 
L 290.508108 135.712964 
L 291.848649 134.36861 
L 292.742342 133.715672 
L 293.636036 133.261462 
L 294.52973 133.00835 
L 295.423423 132.957661 
L 296.317117 133.109661 
L 297.210811 133.463554 
L 298.104505 134.017488 
L 298.998198 134.768583 
L 300.338739 136.256165 
L 301.679279 138.161397 
L 303.01982 140.462929 
L 304.807207 144.1042 
L 306.594595 148.336978 
L 308.828829 154.344911 
L 311.063063 161.004244 
L 314.190991 171.123162 
L 319.106306 188.01076 
L 325.809009 210.937534 
L 329.383784 222.417765 
L 332.511712 231.825972 
L 335.63964 240.567298 
L 338.767568 248.612869 
L 341.448649 254.954589 
L 344.12973 260.796748 
L 346.810811 266.159085 
L 349.491892 271.066427 
L 352.172973 275.546649 
L 354.854054 279.629122 
L 357.535135 283.343566 
L 360.216216 286.719229 
L 362.897297 289.784319 
L 366.025225 293.003387 
L 369.153153 295.875873 
L 372.281081 298.438274 
L 375.409009 300.723814 
L 378.983784 303.035241 
L 382.558559 305.064209 
L 386.133333 306.845992 
L 390.154955 308.593439 
L 394.176577 310.10543 
L 398.645045 311.549134 
L 403.56036 312.893935 
L 408.922523 314.118675 
L 414.731532 315.211169 
L 420.987387 316.167146 
L 428.136937 317.037261 
L 436.627027 317.832578 
L 446.457658 318.513408 
L 458.075676 319.081967 
L 472.374775 319.545993 
L 490.695495 319.90501 
L 516.165766 320.164151 
L 518.4 320.178817 
L 518.4 320.178817 
" clip-path="url(#pcce63a714d)" style="fill: none; stroke: #1f77b4; stroke-width: 1.5; stroke-linecap: square"/>
   </g>
   <g id="line2d_26">
    <path d="M 72 320.4 
L 167.178378 320.291786 
L 182.818018 320.054174 
L 192.201802 319.705417 
L 198.904505 319.257477 
L 204.266667 318.699824 
L 208.735135 318.033883 
L 212.756757 317.216706 
L 216.331532 316.259652 
L 219.459459 315.193186 
L 222.140541 314.067604 
L 224.821622 312.704897 
L 227.502703 311.057747 
L 229.736937 309.427942 
L 231.971171 307.524946 
L 234.205405 305.306676 
L 236.43964 302.725789 
L 238.673874 299.729432 
L 240.461261 296.994109 
L 242.248649 293.923098 
L 244.036036 290.481792 
L 245.823423 286.633679 
L 247.610811 282.3407 
L 249.398198 277.56376 
L 251.185586 272.263425 
L 253.41982 264.842947 
L 255.654054 256.472469 
L 257.888288 247.089299 
L 260.122523 236.645416 
L 262.356757 225.114434 
L 264.590991 212.499657 
L 267.272072 195.993551 
L 270.4 175.069846 
L 274.421622 146.296319 
L 280.677477 101.222864 
L 283.358559 83.688083 
L 285.145946 73.199088 
L 286.933333 63.957458 
L 288.273874 57.983624 
L 289.614414 52.928185 
L 290.954955 48.867286 
L 291.848649 46.74412 
L 292.742342 45.105986 
L 293.636036 43.964441 
L 294.52973 43.327597 
L 294.976577 43.2 
L 295.423423 43.2 
L 295.87027 43.327597 
L 296.763964 43.964441 
L 297.657658 45.105986 
L 298.551351 46.74412 
L 299.445045 48.867286 
L 300.338739 51.460654 
L 301.679279 56.192421 
L 303.01982 61.869321 
L 304.36036 68.407524 
L 306.147748 78.302739 
L 308.381982 92.226317 
L 311.063063 110.573002 
L 315.978378 146.296319 
L 320.446847 178.154517 
L 323.574775 198.842969 
L 326.255856 215.107935 
L 328.936937 229.857833 
L 331.171171 240.952517 
L 333.405405 250.967568 
L 335.63964 259.938934 
L 337.873874 267.921273 
L 340.108108 274.981471 
L 342.342342 281.193378 
L 344.576577 286.633679 
L 346.810811 291.3788 
L 349.045045 295.502679 
L 351.279279 299.075258 
L 353.513514 302.161545 
L 355.747748 304.821119 
L 357.981982 307.107951 
L 360.216216 309.070471 
L 362.45045 310.75179 
L 364.684685 312.19002 
L 367.365766 313.641891 
L 370.046847 314.841731 
L 373.174775 315.979082 
L 376.302703 316.886565 
L 379.877477 317.700113 
L 383.899099 318.394104 
L 388.814414 319.006133 
L 394.623423 319.494195 
L 401.772973 319.867447 
L 411.603604 320.143519 
L 426.34955 320.314205 
L 456.288288 320.390691 
L 518.4 320.4 
L 518.4 320.4 
" clip-path="url(#pcce63a714d)" style="fill: none; stroke: #ff7f0e; stroke-width: 1.5; stroke-linecap: square"/>
   </g>
   <g id="line2d_27">
    <path d="M 72 316.38911 
L 91.214414 315.52167 
L 107.747748 314.559575 
L 122.046847 313.507457 
L 134.558559 312.363189 
L 145.282883 311.165585 
L 155.113514 309.842594 
L 163.603604 308.48225 
L 171.2 307.053558 
L 178.34955 305.486439 
L 184.605405 303.902303 
L 190.414414 302.219564 
L 195.776577 300.453471 
L 201.138739 298.448393 
L 206.054054 296.366295 
L 210.522523 294.239565 
L 214.990991 291.857646 
L 219.012613 289.466175 
L 223.034234 286.809617 
L 226.609009 284.199501 
L 230.183784 281.329577 
L 233.758559 278.17361 
L 237.333333 274.704458 
L 240.908108 270.895052 
L 244.482883 266.719958 
L 248.057658 262.157686 
L 251.632432 257.194013 
L 255.207207 251.826527 
L 258.781982 246.070585 
L 262.803604 239.182477 
L 268.165766 229.513123 
L 276.209009 214.986553 
L 279.336937 209.793573 
L 282.018018 205.763857 
L 284.252252 202.799783 
L 286.03964 200.73812 
L 287.827027 198.988671 
L 289.614414 197.581723 
L 290.954955 196.766732 
L 292.295495 196.167261 
L 293.636036 195.789663 
L 294.976577 195.637987 
L 296.317117 195.713871 
L 297.657658 196.016493 
L 298.998198 196.542602 
L 300.338739 197.286595 
L 301.679279 198.240671 
L 303.466667 199.822374 
L 305.254054 201.731978 
L 307.041441 203.937178 
L 309.275676 207.055267 
L 311.956757 211.231023 
L 315.084685 216.541694 
L 320 225.41266 
L 328.043243 239.966671 
L 332.511712 247.54428 
L 336.086486 253.205784 
L 339.661261 258.472947 
L 343.236036 263.335492 
L 346.810811 267.799284 
L 350.385586 271.88074 
L 353.96036 275.602601 
L 357.535135 278.990895 
L 361.10991 282.072828 
L 364.684685 284.875392 
L 368.706306 287.726533 
L 372.727928 290.291271 
L 376.74955 292.601063 
L 381.218018 294.902865 
L 385.686486 296.959366 
L 390.601802 298.974147 
L 395.963964 300.915977 
L 401.772973 302.761171 
L 408.028829 304.493238 
L 414.731532 306.102134 
L 421.881081 307.583282 
L 429.924324 309.009909 
L 438.414414 310.290203 
L 448.245045 311.538775 
L 458.969369 312.672247 
L 471.034234 313.723343 
L 484.886486 314.703834 
L 500.972973 315.612473 
L 518.4 316.38911 
L 518.4 316.38911 
" clip-path="url(#pcce63a714d)" style="fill: none; stroke: #2ca02c; stroke-width: 1.5; stroke-linecap: square"/>
   </g>
   <g id="line2d_28">
    <path d="M 72 307.166518 
L 87.192793 305.745101 
L 101.045045 304.225555 
L 113.556757 302.626777 
L 124.727928 300.977673 
L 135.005405 299.237432 
L 144.389189 297.425331 
L 152.879279 295.568495 
L 160.922523 293.585868 
L 168.518919 291.480675 
L 175.668468 289.260011 
L 182.371171 286.935567 
L 188.627027 284.52426 
L 194.436036 282.048678 
L 199.798198 279.537235 
L 205.16036 276.784751 
L 210.522523 273.766918 
L 215.437838 270.746593 
L 220.353153 267.465121 
L 225.268468 263.907932 
L 230.183784 260.066491 
L 235.099099 255.942779 
L 240.461261 251.145322 
L 246.717117 245.237906 
L 258.781982 233.762053 
L 262.356757 230.705409 
L 265.484685 228.338477 
L 267.718919 226.88728 
L 269.953153 225.685504 
L 271.740541 224.934869 
L 273.527928 224.397828 
L 275.315315 224.098318 
L 277.102703 224.059262 
L 278.89009 224.301741 
L 280.230631 224.679519 
L 281.571171 225.232475 
L 283.358559 226.250732 
L 285.145946 227.596639 
L 286.933333 229.271855 
L 288.720721 231.271664 
L 290.508108 233.584646 
L 292.742342 236.888003 
L 294.976577 240.602445 
L 297.657658 245.512937 
L 301.232432 252.616062 
L 313.744144 278.068484 
L 316.872072 283.687847 
L 319.553153 288.105258 
L 322.234234 292.130279 
L 324.915315 295.7584 
L 327.596396 298.998563 
L 330.277477 301.869427 
L 332.958559 304.396058 
L 335.63964 306.607187 
L 338.320721 308.533073 
L 341.001802 310.20393 
L 344.12973 311.869634 
L 347.257658 313.270691 
L 350.385586 314.44589 
L 353.96036 315.556244 
L 357.981982 316.560965 
L 362.45045 317.434636 
L 367.365766 318.1667 
L 373.174775 318.800672 
L 380.324324 319.337204 
L 388.814414 319.74338 
L 400.432432 320.057876 
L 416.965766 320.262834 
L 446.457658 320.372187 
L 518.4 320.399437 
L 518.4 320.399437 
" clip-path="url(#pcce63a714d)" style="fill: none; stroke: #d62728; stroke-width: 1.5; stroke-linecap: square"/>
   </g>
   <g id="line2d_29">
    <path d="M 72 320.399437 
L 169.859459 320.287205 
L 190.414414 320.049242 
L 202.926126 319.691708 
L 211.863063 319.223182 
L 219.012613 318.627906 
L 224.821622 317.92438 
L 229.736937 317.112086 
L 234.205405 316.143048 
L 238.227027 315.029422 
L 241.801802 313.799899 
L 244.92973 312.50013 
L 248.057658 310.952876 
L 250.738739 309.398526 
L 253.41982 307.603881 
L 256.100901 305.539184 
L 258.781982 303.174034 
L 261.463063 300.478706 
L 264.144144 297.425997 
L 266.825225 293.993663 
L 269.506306 290.16746 
L 272.187387 285.944688 
L 274.868468 281.338033 
L 277.996396 275.52207 
L 281.571171 268.405738 
L 294.082883 243.002704 
L 296.763964 238.327702 
L 298.998198 234.853162 
L 301.232432 231.821145 
L 303.01982 229.741707 
L 304.807207 227.984643 
L 306.594595 226.556323 
L 308.381982 225.456637 
L 310.169369 224.679519 
L 311.956757 224.213668 
L 313.744144 224.043416 
L 315.531532 224.149649 
L 317.318919 224.510743 
L 319.106306 225.10345 
L 320.893694 225.903695 
L 323.127928 227.159022 
L 325.362162 228.654697 
L 328.043243 230.705409 
L 331.618018 233.762053 
L 336.086486 237.907237 
L 353.066667 253.979364 
L 358.428829 258.599065 
L 363.344144 262.544112 
L 368.259459 266.204116 
L 373.174775 269.584403 
L 378.09009 272.697761 
L 383.005405 275.560982 
L 388.367568 278.421038 
L 393.72973 281.030016 
L 399.538739 283.600579 
L 405.347748 285.932535 
L 411.603604 288.206496 
L 418.306306 290.401507 
L 425.455856 292.501744 
L 433.052252 294.496123 
L 441.095495 296.377742 
L 450.032432 298.230517 
L 459.416216 299.946468 
L 469.693694 301.598123 
L 480.864865 303.166942 
L 493.376577 304.691538 
L 507.228829 306.144146 
L 518.4 307.166518 
L 518.4 307.166518 
" clip-path="url(#pcce63a714d)" style="fill: none; stroke: #9467bd; stroke-width: 1.5; stroke-linecap: square"/>
   </g>
   <g id="patch_3">
    <path d="M 72 320.4 
L 72 43.2 
" style="fill: none; stroke: #000000; stroke-width: 0.8; stroke-linejoin: miter; stroke-linecap: square"/>
   </g>
   <g id="patch_4">
    <path d="M 518.4 320.4 
L 518.4 43.2 
" style="fill: none; stroke: #000000; stroke-width: 0.8; stroke-linejoin: miter; stroke-linecap: square"/>
   </g>
   <g id="patch_5">
    <path d="M 72 320.4 
L 518.4 320.4 
" style="fill: none; stroke: #000000; stroke-width: 0.8; stroke-linejoin: miter; stroke-linecap: square"/>
   </g>
   <g id="patch_6">
    <path d="M 72 43.2 
L 518.4 43.2 
" style="fill: none; stroke: #000000; stroke-width: 0.8; stroke-linejoin: miter; stroke-linecap: square"/>
   </g>
   <g id="text_15">
    <!-- Normal Inverse Gaussian distribution -->
    <g transform="translate(183.9525 37.2) scale(0.12 -0.12)">
     <defs>
      <path id="DejaVuSans-4e" d="M 628 4666 
L 1478 4666 
L 3547 763 
L 3547 4666 
L 4159 4666 
L 4159 0 
L 3309 0 
L 1241 3903 
L 1241 0 
L 628 0 
L 628 4666 
z
" transform="scale(0.015625)"/>
      <path id="DejaVuSans-6d" d="M 3328 2828 
Q 3544 3216 3844 3400 
Q 4144 3584 4550 3584 
Q 5097 3584 5394 3201 
Q 5691 2819 5691 2113 
L 5691 0 
L 5113 0 
L 5113 2094 
Q 5113 2597 4934 2840 
Q 4756 3084 4391 3084 
Q 3944 3084 3684 2787 
Q 3425 2491 3425 1978 
L 3425 0 
L 2847 0 
L 2847 2094 
Q 2847 2600 2669 2842 
Q 2491 3084 2119 3084 
Q 1678 3084 1418 2786 
Q 1159 2488 1159 1978 
L 1159 0 
L 581 0 
L 581 3500 
L 1159 3500 
L 1159 2956 
Q 1356 3278 1631 3431 
Q 1906 3584 2284 3584 
Q 2666 3584 2933 3390 
Q 3200 3197 3328 2828 
z
" transform="scale(0.015625)"/>
      <path id="DejaVuSans-49" d="M 628 4666 
L 1259 4666 
L 1259 0 
L 628 0 
L 628 4666 
z
" transform="scale(0.015625)"/>
      <path id="DejaVuSans-76" d="M 191 3500 
L 800 3500 
L 1894 563 
L 2988 3500 
L 3597 3500 
L 2284 0 
L 1503 0 
L 191 3500 
z
" transform="scale(0.015625)"/>
      <path id="DejaVuSans-47" d="M 3809 666 
L 3809 1919 
L 2778 1919 
L 2778 2438 
L 4434 2438 
L 4434 434 
Q 4069 175 3628 42 
Q 3188 -91 2688 -91 
Q 1594 -91 976 548 
Q 359 1188 359 2328 
Q 359 3472 976 4111 
Q 1594 4750 2688 4750 
Q 3144 4750 3555 4637 
Q 3966 4525 4313 4306 
L 4313 3634 
Q 3963 3931 3569 4081 
Q 3175 4231 2741 4231 
Q 1884 4231 1454 3753 
Q 1025 3275 1025 2328 
Q 1025 1384 1454 906 
Q 1884 428 2741 428 
Q 3075 428 3337 486 
Q 3600 544 3809 666 
z
" transform="scale(0.015625)"/>
      <path id="DejaVuSans-75" d="M 544 1381 
L 544 3500 
L 1119 3500 
L 1119 1403 
Q 1119 906 1312 657 
Q 1506 409 1894 409 
Q 2359 409 2629 706 
Q 2900 1003 2900 1516 
L 2900 3500 
L 3475 3500 
L 3475 0 
L 2900 0 
L 2900 538 
Q 2691 219 2414 64 
Q 2138 -91 1772 -91 
Q 1169 -91 856 284 
Q 544 659 544 1381 
z
M 1991 3584 
L 1991 3584 
z
" transform="scale(0.015625)"/>
     </defs>
     <use xlink:href="#DejaVuSans-4e"/>
     <use xlink:href="#DejaVuSans-6f" x="74.804688"/>
     <use xlink:href="#DejaVuSans-72" x="135.986328"/>
     <use xlink:href="#DejaVuSans-6d" x="175.349609"/>
     <use xlink:href="#DejaVuSans-61" x="272.761719"/>
     <use xlink:href="#DejaVuSans-6c" x="334.041016"/>
     <use xlink:href="#DejaVuSans-20" x="361.824219"/>
     <use xlink:href="#DejaVuSans-49" x="393.611328"/>
     <use xlink:href="#DejaVuSans-6e" x="423.103516"/>
     <use xlink:href="#DejaVuSans-76" x="486.482422"/>
     <use xlink:href="#DejaVuSans-65" x="545.662109"/>
     <use xlink:href="#DejaVuSans-72" x="607.185547"/>
     <use xlink:href="#DejaVuSans-73" x="648.298828"/>
     <use xlink:href="#DejaVuSans-65" x="700.398438"/>
     <use xlink:href="#DejaVuSans-20" x="761.921875"/>
     <use xlink:href="#DejaVuSans-47" x="793.708984"/>
     <use xlink:href="#DejaVuSans-61" x="871.199219"/>
     <use xlink:href="#DejaVuSans-75" x="932.478516"/>
     <use xlink:href="#DejaVuSans-73" x="995.857422"/>
     <use xlink:href="#DejaVuSans-73" x="1047.957031"/>
     <use xlink:href="#DejaVuSans-69" x="1100.056641"/>
     <use xlink:href="#DejaVuSans-61" x="1127.839844"/>
     <use xlink:href="#DejaVuSans-6e" x="1189.119141"/>
     <use xlink:href="#DejaVuSans-20" x="1252.498047"/>
     <use xlink:href="#DejaVuSans-64" x="1284.285156"/>
     <use xlink:href="#DejaVuSans-69" x="1347.761719"/>
     <use xlink:href="#DejaVuSans-73" x="1375.544922"/>
     <use xlink:href="#DejaVuSans-74" x="1427.644531"/>
     <use xlink:href="#DejaVuSans-72" x="1466.853516"/>
     <use xlink:href="#DejaVuSans-69" x="1507.966797"/>
     <use xlink:href="#DejaVuSans-62" x="1535.75"/>
     <use xlink:href="#DejaVuSans-75" x="1599.226562"/>
     <use xlink:href="#DejaVuSans-74" x="1662.605469"/>
     <use xlink:href="#DejaVuSans-69" x="1701.814453"/>
     <use xlink:href="#DejaVuSans-6f" x="1729.597656"/>
     <use xlink:href="#DejaVuSans-6e" x="1790.779297"/>
    </g>
   </g>
   <g id="legend_1">
    <g id="patch_7">
     <path d="M 398.3625 124.903125 
L 511.4 124.903125 
Q 513.4 124.903125 513.4 122.903125 
L 513.4 50.2 
Q 513.4 48.2 511.4 48.2 
L 398.3625 48.2 
Q 396.3625 48.2 396.3625 50.2 
L 396.3625 122.903125 
Q 396.3625 124.903125 398.3625 124.903125 
z
" style="fill: #ffffff; opacity: 0.8; stroke: #cccccc; stroke-linejoin: miter"/>
    </g>
    <g id="line2d_30">
     <path d="M 400.3625 56.360937 
L 410.3625 56.360937 
L 420.3625 56.360937 
" style="fill: none; stroke: #1f77b4; stroke-width: 1.5; stroke-linecap: square"/>
    </g>
    <g id="text_16">
     <!-- α = 1, β = 0 -->
     <g transform="translate(428.3625 59.860937) scale(0.1 -0.1)">
      <defs>
       <path id="DejaVuSans-3b1" d="M 2644 1628 
L 2506 2350 
Q 2366 3091 1809 3091 
Q 1391 3091 1200 2747 
Q 959 2316 959 1747 
Q 959 1059 1194 731 
Q 1431 397 1809 397 
Q 2228 397 2453 1063 
L 2644 1628 
z
M 2966 2584 
L 3275 3500 
L 3788 3500 
L 3147 1603 
L 3272 919 
Q 3300 766 3409 638 
Q 3538 488 3638 488 
L 3913 488 
L 3913 0 
L 3569 0 
Q 3275 0 3013 263 
Q 2884 394 2831 669 
Q 2688 322 2394 50 
Q 2256 -78 1809 -78 
Q 1075 -78 719 397 
Q 353 888 353 1747 
Q 353 2666 750 3097 
Q 1191 3578 1809 3578 
Q 2781 3578 2966 2584 
z
" transform="scale(0.015625)"/>
       <path id="DejaVuSans-3d" d="M 678 2906 
L 4684 2906 
L 4684 2381 
L 678 2381 
L 678 2906 
z
M 678 1631 
L 4684 1631 
L 4684 1100 
L 678 1100 
L 678 1631 
z
" transform="scale(0.015625)"/>
       <path id="DejaVuSans-2c" d="M 750 794 
L 1409 794 
L 1409 256 
L 897 -744 
L 494 -744 
L 750 256 
L 750 794 
z
" transform="scale(0.015625)"/>
       <path id="DejaVuSans-3b2" d="M 1178 216 
L 1178 -1331 
L 600 -1331 
L 600 3478 
Q 600 4903 1931 4903 
Q 3288 4903 3288 3700 
Q 3288 2844 2750 2531 
Q 3625 2250 3625 1416 
Q 3625 -66 2119 -66 
Q 1456 -66 1178 216 
z
M 1178 966 
Q 1525 425 2141 425 
Q 3041 425 3041 1406 
Q 3041 2288 1591 2219 
L 1591 2750 
Q 2725 2750 2725 3750 
Q 2725 4434 1994 4434 
Q 1178 4434 1178 3459 
L 1178 966 
z
" transform="scale(0.015625)"/>
      </defs>
      <use xlink:href="#DejaVuSans-3b1"/>
      <use xlink:href="#DejaVuSans-20" x="65.917969"/>
      <use xlink:href="#DejaVuSans-3d" x="97.705078"/>
      <use xlink:href="#DejaVuSans-20" x="181.494141"/>
      <use xlink:href="#DejaVuSans-31" x="213.28125"/>
      <use xlink:href="#DejaVuSans-2c" x="276.904297"/>
      <use xlink:href="#DejaVuSans-20" x="308.691406"/>
      <use xlink:href="#DejaVuSans-3b2" x="340.478516"/>
      <use xlink:href="#DejaVuSans-20" x="404.296875"/>
      <use xlink:href="#DejaVuSans-3d" x="436.083984"/>
      <use xlink:href="#DejaVuSans-20" x="519.873047"/>
      <use xlink:href="#DejaVuSans-30" x="551.660156"/>
     </g>
    </g>
    <g id="line2d_31">
     <path d="M 400.3625 71.101562 
L 410.3625 71.101562 
L 420.3625 71.101562 
" style="fill: none; stroke: #ff7f0e; stroke-width: 1.5; stroke-linecap: square"/>
    </g>
    <g id="text_17">
     <!-- α = 3, β = 0 -->
     <g transform="translate(428.3625 74.601562) scale(0.1 -0.1)">
      <use xlink:href="#DejaVuSans-3b1"/>
      <use xlink:href="#DejaVuSans-20" x="65.917969"/>
      <use xlink:href="#DejaVuSans-3d" x="97.705078"/>
      <use xlink:href="#DejaVuSans-20" x="181.494141"/>
      <use xlink:href="#DejaVuSans-33" x="213.28125"/>
      <use xlink:href="#DejaVuSans-2c" x="276.904297"/>
      <use xlink:href="#DejaVuSans-20" x="308.691406"/>
      <use xlink:href="#DejaVuSans-3b2" x="340.478516"/>
      <use xlink:href="#DejaVuSans-20" x="404.296875"/>
      <use xlink:href="#DejaVuSans-3d" x="436.083984"/>
      <use xlink:href="#DejaVuSans-20" x="519.873047"/>
      <use xlink:href="#DejaVuSans-30" x="551.660156"/>
     </g>
    </g>
    <g id="line2d_32">
     <path d="M 400.3625 85.842187 
L 410.3625 85.842187 
L 420.3625 85.842187 
" style="fill: none; stroke: #2ca02c; stroke-width: 1.5; stroke-linecap: square"/>
    </g>
    <g id="text_18">
     <!-- α = 0.1, β = 0 -->
     <g transform="translate(428.3625 89.342187) scale(0.1 -0.1)">
      <use xlink:href="#DejaVuSans-3b1"/>
      <use xlink:href="#DejaVuSans-20" x="65.917969"/>
      <use xlink:href="#DejaVuSans-3d" x="97.705078"/>
      <use xlink:href="#DejaVuSans-20" x="181.494141"/>
      <use xlink:href="#DejaVuSans-30" x="213.28125"/>
      <use xlink:href="#DejaVuSans-2e" x="276.904297"/>
      <use xlink:href="#DejaVuSans-31" x="308.691406"/>
      <use xlink:href="#DejaVuSans-2c" x="372.314453"/>
      <use xlink:href="#DejaVuSans-20" x="404.101562"/>
      <use xlink:href="#DejaVuSans-3b2" x="435.888672"/>
      <use xlink:href="#DejaVuSans-20" x="499.707031"/>
      <use xlink:href="#DejaVuSans-3d" x="531.494141"/>
      <use xlink:href="#DejaVuSans-20" x="615.283203"/>
      <use xlink:href="#DejaVuSans-30" x="647.070312"/>
     </g>
    </g>
    <g id="line2d_33">
     <path d="M 400.3625 100.582812 
L 410.3625 100.582812 
L 420.3625 100.582812 
" style="fill: none; stroke: #d62728; stroke-width: 1.5; stroke-linecap: square"/>
    </g>
    <g id="text_19">
     <!-- α = 1, β = -0.99 -->
     <g transform="translate(428.3625 104.082812) scale(0.1 -0.1)">
      <defs>
       <path id="DejaVuSans-2d" d="M 313 2009 
L 1997 2009 
L 1997 1497 
L 313 1497 
L 313 2009 
z
" transform="scale(0.015625)"/>
       <path id="DejaVuSans-39" d="M 703 97 
L 703 672 
Q 941 559 1184 500 
Q 1428 441 1663 441 
Q 2288 441 2617 861 
Q 2947 1281 2994 2138 
Q 2813 1869 2534 1725 
Q 2256 1581 1919 1581 
Q 1219 1581 811 2004 
Q 403 2428 403 3163 
Q 403 3881 828 4315 
Q 1253 4750 1959 4750 
Q 2769 4750 3195 4129 
Q 3622 3509 3622 2328 
Q 3622 1225 3098 567 
Q 2575 -91 1691 -91 
Q 1453 -91 1209 -44 
Q 966 3 703 97 
z
M 1959 2075 
Q 2384 2075 2632 2365 
Q 2881 2656 2881 3163 
Q 2881 3666 2632 3958 
Q 2384 4250 1959 4250 
Q 1534 4250 1286 3958 
Q 1038 3666 1038 3163 
Q 1038 2656 1286 2365 
Q 1534 2075 1959 2075 
z
" transform="scale(0.015625)"/>
      </defs>
      <use xlink:href="#DejaVuSans-3b1"/>
      <use xlink:href="#DejaVuSans-20" x="65.917969"/>
      <use xlink:href="#DejaVuSans-3d" x="97.705078"/>
      <use xlink:href="#DejaVuSans-20" x="181.494141"/>
      <use xlink:href="#DejaVuSans-31" x="213.28125"/>
      <use xlink:href="#DejaVuSans-2c" x="276.904297"/>
      <use xlink:href="#DejaVuSans-20" x="308.691406"/>
      <use xlink:href="#DejaVuSans-3b2" x="340.478516"/>
      <use xlink:href="#DejaVuSans-20" x="404.296875"/>
      <use xlink:href="#DejaVuSans-3d" x="436.083984"/>
      <use xlink:href="#DejaVuSans-20" x="519.873047"/>
      <use xlink:href="#DejaVuSans-2d" x="551.660156"/>
      <use xlink:href="#DejaVuSans-30" x="587.744141"/>
      <use xlink:href="#DejaVuSans-2e" x="651.367188"/>
      <use xlink:href="#DejaVuSans-39" x="683.154297"/>
      <use xlink:href="#DejaVuSans-39" x="746.777344"/>
     </g>
    </g>
    <g id="line2d_34">
     <path d="M 400.3625 115.323437 
L 410.3625 115.323437 
L 420.3625 115.323437 
" style="fill: none; stroke: #9467bd; stroke-width: 1.5; stroke-linecap: square"/>
    </g>
    <g id="text_20">
     <!-- α = 1, β = 0.99 -->
     <g transform="translate(428.3625 118.823437) scale(0.1 -0.1)">
      <use xlink:href="#DejaVuSans-3b1"/>
      <use xlink:href="#DejaVuSans-20" x="65.917969"/>
      <use xlink:href="#DejaVuSans-3d" x="97.705078"/>
      <use xlink:href="#DejaVuSans-20" x="181.494141"/>
      <use xlink:href="#DejaVuSans-31" x="213.28125"/>
      <use xlink:href="#DejaVuSans-2c" x="276.904297"/>
      <use xlink:href="#DejaVuSans-20" x="308.691406"/>
      <use xlink:href="#DejaVuSans-3b2" x="340.478516"/>
      <use xlink:href="#DejaVuSans-20" x="404.296875"/>
      <use xlink:href="#DejaVuSans-3d" x="436.083984"/>
      <use xlink:href="#DejaVuSans-20" x="519.873047"/>
      <use xlink:href="#DejaVuSans-30" x="551.660156"/>
      <use xlink:href="#DejaVuSans-2e" x="615.283203"/>
      <use xlink:href="#DejaVuSans-39" x="647.070312"/>
      <use xlink:href="#DejaVuSans-39" x="710.693359"/>
     </g>
    </g>
   </g>
  </g>
 </g>
 <defs>
  <clipPath id="pcce63a714d">
   <rect x="72" y="43.2" width="446.4" height="277.2"/>
  </clipPath>
 </defs>
</svg>
