<?xml version="1.0" encoding="utf-8" standalone="no"?>
<!DOCTYPE svg PUBLIC "-//W3C//DTD SVG 1.1//EN"
  "http://www.w3.org/Graphics/SVG/1.1/DTD/svg11.dtd">
<svg xmlns:xlink="http://www.w3.org/1999/xlink" width="576pt" height="360pt" viewBox="0 0 576 360" xmlns="http://www.w3.org/2000/svg" version="1.1">
 <metadata>
  <rdf:RDF xmlns:dc="http://purl.org/dc/elements/1.1/" xmlns:cc="http://creativecommons.org/ns#" xmlns:rdf="http://www.w3.org/1999/02/22-rdf-syntax-ns#">
   <cc:Work>
    <dc:type rdf:resource="http://purl.org/dc/dcmitype/StillImage"/>
    <dc:date>2024-04-11T00:58:48.954792</dc:date>
    <dc:format>image/svg+xml</dc:format>
    <dc:creator>
     <cc:Agent>
      <dc:title>Matplotlib v3.8.4, https://matplotlib.org/</dc:title>
     </cc:Agent>
    </dc:creator>
   </cc:Work>
  </rdf:RDF>
 </metadata>
 <defs>
  <style type="text/css">*{stroke-linejoin: round; stroke-linecap: butt}</style>
 </defs>
 <g id="figure_1">
  <g id="patch_1">
   <path d="M 0 360 
L 576 360 
L 576 0 
L 0 0 
z
" style="fill: #ffffff"/>
  </g>
  <g id="axes_1">
   <g id="patch_2">
    <path d="M 72 320.4 
L 518.4 320.4 
L 518.4 43.2 
L 72 43.2 
z
" style="fill: #ffffff"/>
   </g>
   <g id="matplotlib.axis_1">
    <g id="xtick_1">
     <g id="line2d_1">
      <defs>
       <path id="m79d1c293e9" d="M 0 0 
L 0 3.5 
" style="stroke: #000000; stroke-width: 0.8"/>
      </defs>
      <g>
       <use xlink:href="#m79d1c293e9" x="132.872727" y="320.4" style="stroke: #000000; stroke-width: 0.8"/>
      </g>
     </g>
     <g id="text_1">
      <!-- −4 -->
      <g transform="translate(125.501634 334.998438) scale(0.1 -0.1)">
       <defs>
        <path id="DejaVuSans-2212" d="M 678 2272 
L 4684 2272 
L 4684 1741 
L 678 1741 
L 678 2272 
z
" transform="scale(0.015625)"/>
        <path id="DejaVuSans-34" d="M 2419 4116 
L 825 1625 
L 2419 1625 
L 2419 4116 
z
M 2253 4666 
L 3047 4666 
L 3047 1625 
L 3713 1625 
L 3713 1100 
L 3047 1100 
L 3047 0 
L 2419 0 
L 2419 1100 
L 313 1100 
L 313 1709 
L 2253 4666 
z
" transform="scale(0.015625)"/>
       </defs>
       <use xlink:href="#DejaVuSans-2212"/>
       <use xlink:href="#DejaVuSans-34" x="83.789062"/>
      </g>
     </g>
    </g>
    <g id="xtick_2">
     <g id="line2d_2">
      <g>
       <use xlink:href="#m79d1c293e9" x="214.036364" y="320.4" style="stroke: #000000; stroke-width: 0.8"/>
      </g>
     </g>
     <g id="text_2">
      <!-- −2 -->
      <g transform="translate(206.66527 334.998438) scale(0.1 -0.1)">
       <defs>
        <path id="DejaVuSans-32" d="M 1228 531 
L 3431 531 
L 3431 0 
L 469 0 
L 469 531 
Q 828 903 1448 1529 
Q 2069 2156 2228 2338 
Q 2531 2678 2651 2914 
Q 2772 3150 2772 3378 
Q 2772 3750 2511 3984 
Q 2250 4219 1831 4219 
Q 1534 4219 1204 4116 
Q 875 4013 500 3803 
L 500 4441 
Q 881 4594 1212 4672 
Q 1544 4750 1819 4750 
Q 2544 4750 2975 4387 
Q 3406 4025 3406 3419 
Q 3406 3131 3298 2873 
Q 3191 2616 2906 2266 
Q 2828 2175 2409 1742 
Q 1991 1309 1228 531 
z
" transform="scale(0.015625)"/>
       </defs>
       <use xlink:href="#DejaVuSans-2212"/>
       <use xlink:href="#DejaVuSans-32" x="83.789062"/>
      </g>
     </g>
    </g>
    <g id="xtick_3">
     <g id="line2d_3">
      <g>
       <use xlink:href="#m79d1c293e9" x="295.2" y="320.4" style="stroke: #000000; stroke-width: 0.8"/>
      </g>
     </g>
     <g id="text_3">
      <!-- 0 -->
      <g transform="translate(292.01875 334.998438) scale(0.1 -0.1)">
       <defs>
        <path id="DejaVuSans-30" d="M 2034 4250 
Q 1547 4250 1301 3770 
Q 1056 3291 1056 2328 
Q 1056 1369 1301 889 
Q 1547 409 2034 409 
Q 2525 409 2770 889 
Q 3016 1369 3016 2328 
Q 3016 3291 2770 3770 
Q 2525 4250 2034 4250 
z
M 2034 4750 
Q 2819 4750 3233 4129 
Q 3647 3509 3647 2328 
Q 3647 1150 3233 529 
Q 2819 -91 2034 -91 
Q 1250 -91 836 529 
Q 422 1150 422 2328 
Q 422 3509 836 4129 
Q 1250 4750 2034 4750 
z
" transform="scale(0.015625)"/>
       </defs>
       <use xlink:href="#DejaVuSans-30"/>
      </g>
     </g>
    </g>
    <g id="xtick_4">
     <g id="line2d_4">
      <g>
       <use xlink:href="#m79d1c293e9" x="376.363636" y="320.4" style="stroke: #000000; stroke-width: 0.8"/>
      </g>
     </g>
     <g id="text_4">
      <!-- 2 -->
      <g transform="translate(373.182386 334.998438) scale(0.1 -0.1)">
       <use xlink:href="#DejaVuSans-32"/>
      </g>
     </g>
    </g>
    <g id="xtick_5">
     <g id="line2d_5">
      <g>
       <use xlink:href="#m79d1c293e9" x="457.527273" y="320.4" style="stroke: #000000; stroke-width: 0.8"/>
      </g>
     </g>
     <g id="text_5">
      <!-- 4 -->
      <g transform="translate(454.346023 334.998438) scale(0.1 -0.1)">
       <use xlink:href="#DejaVuSans-34"/>
      </g>
     </g>
    </g>
    <g id="text_6">
     <!-- x -->
     <g transform="translate(292.240625 348.676562) scale(0.1 -0.1)">
      <defs>
       <path id="DejaVuSans-78" d="M 3513 3500 
L 2247 1797 
L 3578 0 
L 2900 0 
L 1881 1375 
L 863 0 
L 184 0 
L 1544 1831 
L 300 3500 
L 978 3500 
L 1906 2253 
L 2834 3500 
L 3513 3500 
z
" transform="scale(0.015625)"/>
      </defs>
      <use xlink:href="#DejaVuSans-78"/>
     </g>
    </g>
   </g>
   <g id="matplotlib.axis_2">
    <g id="ytick_1">
     <g id="line2d_6">
      <defs>
       <path id="m70a799e225" d="M 0 0 
L -3.5 0 
" style="stroke: #000000; stroke-width: 0.8"/>
      </defs>
      <g>
       <use xlink:href="#m70a799e225" x="72" y="307.800092" style="stroke: #000000; stroke-width: 0.8"/>
      </g>
     </g>
     <g id="text_7">
      <!-- 0.0 -->
      <g transform="translate(49.096875 311.599311) scale(0.1 -0.1)">
       <defs>
        <path id="DejaVuSans-2e" d="M 684 794 
L 1344 794 
L 1344 0 
L 684 0 
L 684 794 
z
" transform="scale(0.015625)"/>
       </defs>
       <use xlink:href="#DejaVuSans-30"/>
       <use xlink:href="#DejaVuSans-2e" x="63.623047"/>
       <use xlink:href="#DejaVuSans-30" x="95.410156"/>
      </g>
     </g>
    </g>
    <g id="ytick_2">
     <g id="line2d_7">
      <g>
       <use xlink:href="#m70a799e225" x="72" y="275.079906" style="stroke: #000000; stroke-width: 0.8"/>
      </g>
     </g>
     <g id="text_8">
      <!-- 0.1 -->
      <g transform="translate(49.096875 278.879125) scale(0.1 -0.1)">
       <defs>
        <path id="DejaVuSans-31" d="M 794 531 
L 1825 531 
L 1825 4091 
L 703 3866 
L 703 4441 
L 1819 4666 
L 2450 4666 
L 2450 531 
L 3481 531 
L 3481 0 
L 794 0 
L 794 531 
z
" transform="scale(0.015625)"/>
       </defs>
       <use xlink:href="#DejaVuSans-30"/>
       <use xlink:href="#DejaVuSans-2e" x="63.623047"/>
       <use xlink:href="#DejaVuSans-31" x="95.410156"/>
      </g>
     </g>
    </g>
    <g id="ytick_3">
     <g id="line2d_8">
      <g>
       <use xlink:href="#m70a799e225" x="72" y="242.35972" style="stroke: #000000; stroke-width: 0.8"/>
      </g>
     </g>
     <g id="text_9">
      <!-- 0.2 -->
      <g transform="translate(49.096875 246.158939) scale(0.1 -0.1)">
       <use xlink:href="#DejaVuSans-30"/>
       <use xlink:href="#DejaVuSans-2e" x="63.623047"/>
       <use xlink:href="#DejaVuSans-32" x="95.410156"/>
      </g>
     </g>
    </g>
    <g id="ytick_4">
     <g id="line2d_9">
      <g>
       <use xlink:href="#m70a799e225" x="72" y="209.639535" style="stroke: #000000; stroke-width: 0.8"/>
      </g>
     </g>
     <g id="text_10">
      <!-- 0.3 -->
      <g transform="translate(49.096875 213.438754) scale(0.1 -0.1)">
       <defs>
        <path id="DejaVuSans-33" d="M 2597 2516 
Q 3050 2419 3304 2112 
Q 3559 1806 3559 1356 
Q 3559 666 3084 287 
Q 2609 -91 1734 -91 
Q 1441 -91 1130 -33 
Q 819 25 488 141 
L 488 750 
Q 750 597 1062 519 
Q 1375 441 1716 441 
Q 2309 441 2620 675 
Q 2931 909 2931 1356 
Q 2931 1769 2642 2001 
Q 2353 2234 1838 2234 
L 1294 2234 
L 1294 2753 
L 1863 2753 
Q 2328 2753 2575 2939 
Q 2822 3125 2822 3475 
Q 2822 3834 2567 4026 
Q 2313 4219 1838 4219 
Q 1578 4219 1281 4162 
Q 984 4106 628 3988 
L 628 4550 
Q 988 4650 1302 4700 
Q 1616 4750 1894 4750 
Q 2613 4750 3031 4423 
Q 3450 4097 3450 3541 
Q 3450 3153 3228 2886 
Q 3006 2619 2597 2516 
z
" transform="scale(0.015625)"/>
       </defs>
       <use xlink:href="#DejaVuSans-30"/>
       <use xlink:href="#DejaVuSans-2e" x="63.623047"/>
       <use xlink:href="#DejaVuSans-33" x="95.410156"/>
      </g>
     </g>
    </g>
    <g id="ytick_5">
     <g id="line2d_10">
      <g>
       <use xlink:href="#m70a799e225" x="72" y="176.919349" style="stroke: #000000; stroke-width: 0.8"/>
      </g>
     </g>
     <g id="text_11">
      <!-- 0.4 -->
      <g transform="translate(49.096875 180.718568) scale(0.1 -0.1)">
       <use xlink:href="#DejaVuSans-30"/>
       <use xlink:href="#DejaVuSans-2e" x="63.623047"/>
       <use xlink:href="#DejaVuSans-34" x="95.410156"/>
      </g>
     </g>
    </g>
    <g id="ytick_6">
     <g id="line2d_11">
      <g>
       <use xlink:href="#m70a799e225" x="72" y="144.199164" style="stroke: #000000; stroke-width: 0.8"/>
      </g>
     </g>
     <g id="text_12">
      <!-- 0.5 -->
      <g transform="translate(49.096875 147.998382) scale(0.1 -0.1)">
       <defs>
        <path id="DejaVuSans-35" d="M 691 4666 
L 3169 4666 
L 3169 4134 
L 1269 4134 
L 1269 2991 
Q 1406 3038 1543 3061 
Q 1681 3084 1819 3084 
Q 2600 3084 3056 2656 
Q 3513 2228 3513 1497 
Q 3513 744 3044 326 
Q 2575 -91 1722 -91 
Q 1428 -91 1123 -41 
Q 819 9 494 109 
L 494 744 
Q 775 591 1075 516 
Q 1375 441 1709 441 
Q 2250 441 2565 725 
Q 2881 1009 2881 1497 
Q 2881 1984 2565 2268 
Q 2250 2553 1709 2553 
Q 1456 2553 1204 2497 
Q 953 2441 691 2322 
L 691 4666 
z
" transform="scale(0.015625)"/>
       </defs>
       <use xlink:href="#DejaVuSans-30"/>
       <use xlink:href="#DejaVuSans-2e" x="63.623047"/>
       <use xlink:href="#DejaVuSans-35" x="95.410156"/>
      </g>
     </g>
    </g>
    <g id="ytick_7">
     <g id="line2d_12">
      <g>
       <use xlink:href="#m70a799e225" x="72" y="111.478978" style="stroke: #000000; stroke-width: 0.8"/>
      </g>
     </g>
     <g id="text_13">
      <!-- 0.6 -->
      <g transform="translate(49.096875 115.278197) scale(0.1 -0.1)">
       <defs>
        <path id="DejaVuSans-36" d="M 2113 2584 
Q 1688 2584 1439 2293 
Q 1191 2003 1191 1497 
Q 1191 994 1439 701 
Q 1688 409 2113 409 
Q 2538 409 2786 701 
Q 3034 994 3034 1497 
Q 3034 2003 2786 2293 
Q 2538 2584 2113 2584 
z
M 3366 4563 
L 3366 3988 
Q 3128 4100 2886 4159 
Q 2644 4219 2406 4219 
Q 1781 4219 1451 3797 
Q 1122 3375 1075 2522 
Q 1259 2794 1537 2939 
Q 1816 3084 2150 3084 
Q 2853 3084 3261 2657 
Q 3669 2231 3669 1497 
Q 3669 778 3244 343 
Q 2819 -91 2113 -91 
Q 1303 -91 875 529 
Q 447 1150 447 2328 
Q 447 3434 972 4092 
Q 1497 4750 2381 4750 
Q 2619 4750 2861 4703 
Q 3103 4656 3366 4563 
z
" transform="scale(0.015625)"/>
       </defs>
       <use xlink:href="#DejaVuSans-30"/>
       <use xlink:href="#DejaVuSans-2e" x="63.623047"/>
       <use xlink:href="#DejaVuSans-36" x="95.410156"/>
      </g>
     </g>
    </g>
    <g id="ytick_8">
     <g id="line2d_13">
      <g>
       <use xlink:href="#m70a799e225" x="72" y="78.758792" style="stroke: #000000; stroke-width: 0.8"/>
      </g>
     </g>
     <g id="text_14">
      <!-- 0.7 -->
      <g transform="translate(49.096875 82.558011) scale(0.1 -0.1)">
       <defs>
        <path id="DejaVuSans-37" d="M 525 4666 
L 3525 4666 
L 3525 4397 
L 1831 0 
L 1172 0 
L 2766 4134 
L 525 4134 
L 525 4666 
z
" transform="scale(0.015625)"/>
       </defs>
       <use xlink:href="#DejaVuSans-30"/>
       <use xlink:href="#DejaVuSans-2e" x="63.623047"/>
       <use xlink:href="#DejaVuSans-37" x="95.410156"/>
      </g>
     </g>
    </g>
    <g id="ytick_9">
     <g id="line2d_14">
      <g>
       <use xlink:href="#m70a799e225" x="72" y="46.038607" style="stroke: #000000; stroke-width: 0.8"/>
      </g>
     </g>
     <g id="text_15">
      <!-- 0.8 -->
      <g transform="translate(49.096875 49.837825) scale(0.1 -0.1)">
       <defs>
        <path id="DejaVuSans-38" d="M 2034 2216 
Q 1584 2216 1326 1975 
Q 1069 1734 1069 1313 
Q 1069 891 1326 650 
Q 1584 409 2034 409 
Q 2484 409 2743 651 
Q 3003 894 3003 1313 
Q 3003 1734 2745 1975 
Q 2488 2216 2034 2216 
z
M 1403 2484 
Q 997 2584 770 2862 
Q 544 3141 544 3541 
Q 544 4100 942 4425 
Q 1341 4750 2034 4750 
Q 2731 4750 3128 4425 
Q 3525 4100 3525 3541 
Q 3525 3141 3298 2862 
Q 3072 2584 2669 2484 
Q 3125 2378 3379 2068 
Q 3634 1759 3634 1313 
Q 3634 634 3220 271 
Q 2806 -91 2034 -91 
Q 1263 -91 848 271 
Q 434 634 434 1313 
Q 434 1759 690 2068 
Q 947 2378 1403 2484 
z
M 1172 3481 
Q 1172 3119 1398 2916 
Q 1625 2713 2034 2713 
Q 2441 2713 2670 2916 
Q 2900 3119 2900 3481 
Q 2900 3844 2670 4047 
Q 2441 4250 2034 4250 
Q 1625 4250 1398 4047 
Q 1172 3844 1172 3481 
z
" transform="scale(0.015625)"/>
       </defs>
       <use xlink:href="#DejaVuSans-30"/>
       <use xlink:href="#DejaVuSans-2e" x="63.623047"/>
       <use xlink:href="#DejaVuSans-38" x="95.410156"/>
      </g>
     </g>
    </g>
    <g id="text_16">
     <!-- Probability density -->
     <g transform="translate(43.017187 228.150781) rotate(-90) scale(0.1 -0.1)">
      <defs>
       <path id="DejaVuSans-50" d="M 1259 4147 
L 1259 2394 
L 2053 2394 
Q 2494 2394 2734 2622 
Q 2975 2850 2975 3272 
Q 2975 3691 2734 3919 
Q 2494 4147 2053 4147 
L 1259 4147 
z
M 628 4666 
L 2053 4666 
Q 2838 4666 3239 4311 
Q 3641 3956 3641 3272 
Q 3641 2581 3239 2228 
Q 2838 1875 2053 1875 
L 1259 1875 
L 1259 0 
L 628 0 
L 628 4666 
z
" transform="scale(0.015625)"/>
       <path id="DejaVuSans-72" d="M 2631 2963 
Q 2534 3019 2420 3045 
Q 2306 3072 2169 3072 
Q 1681 3072 1420 2755 
Q 1159 2438 1159 1844 
L 1159 0 
L 581 0 
L 581 3500 
L 1159 3500 
L 1159 2956 
Q 1341 3275 1631 3429 
Q 1922 3584 2338 3584 
Q 2397 3584 2469 3576 
Q 2541 3569 2628 3553 
L 2631 2963 
z
" transform="scale(0.015625)"/>
       <path id="DejaVuSans-6f" d="M 1959 3097 
Q 1497 3097 1228 2736 
Q 959 2375 959 1747 
Q 959 1119 1226 758 
Q 1494 397 1959 397 
Q 2419 397 2687 759 
Q 2956 1122 2956 1747 
Q 2956 2369 2687 2733 
Q 2419 3097 1959 3097 
z
M 1959 3584 
Q 2709 3584 3137 3096 
Q 3566 2609 3566 1747 
Q 3566 888 3137 398 
Q 2709 -91 1959 -91 
Q 1206 -91 779 398 
Q 353 888 353 1747 
Q 353 2609 779 3096 
Q 1206 3584 1959 3584 
z
" transform="scale(0.015625)"/>
       <path id="DejaVuSans-62" d="M 3116 1747 
Q 3116 2381 2855 2742 
Q 2594 3103 2138 3103 
Q 1681 3103 1420 2742 
Q 1159 2381 1159 1747 
Q 1159 1113 1420 752 
Q 1681 391 2138 391 
Q 2594 391 2855 752 
Q 3116 1113 3116 1747 
z
M 1159 2969 
Q 1341 3281 1617 3432 
Q 1894 3584 2278 3584 
Q 2916 3584 3314 3078 
Q 3713 2572 3713 1747 
Q 3713 922 3314 415 
Q 2916 -91 2278 -91 
Q 1894 -91 1617 61 
Q 1341 213 1159 525 
L 1159 0 
L 581 0 
L 581 4863 
L 1159 4863 
L 1159 2969 
z
" transform="scale(0.015625)"/>
       <path id="DejaVuSans-61" d="M 2194 1759 
Q 1497 1759 1228 1600 
Q 959 1441 959 1056 
Q 959 750 1161 570 
Q 1363 391 1709 391 
Q 2188 391 2477 730 
Q 2766 1069 2766 1631 
L 2766 1759 
L 2194 1759 
z
M 3341 1997 
L 3341 0 
L 2766 0 
L 2766 531 
Q 2569 213 2275 61 
Q 1981 -91 1556 -91 
Q 1019 -91 701 211 
Q 384 513 384 1019 
Q 384 1609 779 1909 
Q 1175 2209 1959 2209 
L 2766 2209 
L 2766 2266 
Q 2766 2663 2505 2880 
Q 2244 3097 1772 3097 
Q 1472 3097 1187 3025 
Q 903 2953 641 2809 
L 641 3341 
Q 956 3463 1253 3523 
Q 1550 3584 1831 3584 
Q 2591 3584 2966 3190 
Q 3341 2797 3341 1997 
z
" transform="scale(0.015625)"/>
       <path id="DejaVuSans-69" d="M 603 3500 
L 1178 3500 
L 1178 0 
L 603 0 
L 603 3500 
z
M 603 4863 
L 1178 4863 
L 1178 4134 
L 603 4134 
L 603 4863 
z
" transform="scale(0.015625)"/>
       <path id="DejaVuSans-6c" d="M 603 4863 
L 1178 4863 
L 1178 0 
L 603 0 
L 603 4863 
z
" transform="scale(0.015625)"/>
       <path id="DejaVuSans-74" d="M 1172 4494 
L 1172 3500 
L 2356 3500 
L 2356 3053 
L 1172 3053 
L 1172 1153 
Q 1172 725 1289 603 
Q 1406 481 1766 481 
L 2356 481 
L 2356 0 
L 1766 0 
Q 1100 0 847 248 
Q 594 497 594 1153 
L 594 3053 
L 172 3053 
L 172 3500 
L 594 3500 
L 594 4494 
L 1172 4494 
z
" transform="scale(0.015625)"/>
       <path id="DejaVuSans-79" d="M 2059 -325 
Q 1816 -950 1584 -1140 
Q 1353 -1331 966 -1331 
L 506 -1331 
L 506 -850 
L 844 -850 
Q 1081 -850 1212 -737 
Q 1344 -625 1503 -206 
L 1606 56 
L 191 3500 
L 800 3500 
L 1894 763 
L 2988 3500 
L 3597 3500 
L 2059 -325 
z
" transform="scale(0.015625)"/>
       <path id="DejaVuSans-20" transform="scale(0.015625)"/>
       <path id="DejaVuSans-64" d="M 2906 2969 
L 2906 4863 
L 3481 4863 
L 3481 0 
L 2906 0 
L 2906 525 
Q 2725 213 2448 61 
Q 2172 -91 1784 -91 
Q 1150 -91 751 415 
Q 353 922 353 1747 
Q 353 2572 751 3078 
Q 1150 3584 1784 3584 
Q 2172 3584 2448 3432 
Q 2725 3281 2906 2969 
z
M 947 1747 
Q 947 1113 1208 752 
Q 1469 391 1925 391 
Q 2381 391 2643 752 
Q 2906 1113 2906 1747 
Q 2906 2381 2643 2742 
Q 2381 3103 1925 3103 
Q 1469 3103 1208 2742 
Q 947 2381 947 1747 
z
" transform="scale(0.015625)"/>
       <path id="DejaVuSans-65" d="M 3597 1894 
L 3597 1613 
L 953 1613 
Q 991 1019 1311 708 
Q 1631 397 2203 397 
Q 2534 397 2845 478 
Q 3156 559 3463 722 
L 3463 178 
Q 3153 47 2828 -22 
Q 2503 -91 2169 -91 
Q 1331 -91 842 396 
Q 353 884 353 1716 
Q 353 2575 817 3079 
Q 1281 3584 2069 3584 
Q 2775 3584 3186 3129 
Q 3597 2675 3597 1894 
z
M 3022 2063 
Q 3016 2534 2758 2815 
Q 2500 3097 2075 3097 
Q 1594 3097 1305 2825 
Q 1016 2553 972 2059 
L 3022 2063 
z
" transform="scale(0.015625)"/>
       <path id="DejaVuSans-6e" d="M 3513 2113 
L 3513 0 
L 2938 0 
L 2938 2094 
Q 2938 2591 2744 2837 
Q 2550 3084 2163 3084 
Q 1697 3084 1428 2787 
Q 1159 2491 1159 1978 
L 1159 0 
L 581 0 
L 581 3500 
L 1159 3500 
L 1159 2956 
Q 1366 3272 1645 3428 
Q 1925 3584 2291 3584 
Q 2894 3584 3203 3211 
Q 3513 2838 3513 2113 
z
" transform="scale(0.015625)"/>
       <path id="DejaVuSans-73" d="M 2834 3397 
L 2834 2853 
Q 2591 2978 2328 3040 
Q 2066 3103 1784 3103 
Q 1356 3103 1142 2972 
Q 928 2841 928 2578 
Q 928 2378 1081 2264 
Q 1234 2150 1697 2047 
L 1894 2003 
Q 2506 1872 2764 1633 
Q 3022 1394 3022 966 
Q 3022 478 2636 193 
Q 2250 -91 1575 -91 
Q 1294 -91 989 -36 
Q 684 19 347 128 
L 347 722 
Q 666 556 975 473 
Q 1284 391 1588 391 
Q 1994 391 2212 530 
Q 2431 669 2431 922 
Q 2431 1156 2273 1281 
Q 2116 1406 1581 1522 
L 1381 1569 
Q 847 1681 609 1914 
Q 372 2147 372 2553 
Q 372 3047 722 3315 
Q 1072 3584 1716 3584 
Q 2034 3584 2315 3537 
Q 2597 3491 2834 3397 
z
" transform="scale(0.015625)"/>
      </defs>
      <use xlink:href="#DejaVuSans-50"/>
      <use xlink:href="#DejaVuSans-72" x="58.552734"/>
      <use xlink:href="#DejaVuSans-6f" x="97.416016"/>
      <use xlink:href="#DejaVuSans-62" x="158.597656"/>
      <use xlink:href="#DejaVuSans-61" x="222.074219"/>
      <use xlink:href="#DejaVuSans-62" x="283.353516"/>
      <use xlink:href="#DejaVuSans-69" x="346.830078"/>
      <use xlink:href="#DejaVuSans-6c" x="374.613281"/>
      <use xlink:href="#DejaVuSans-69" x="402.396484"/>
      <use xlink:href="#DejaVuSans-74" x="430.179688"/>
      <use xlink:href="#DejaVuSans-79" x="469.388672"/>
      <use xlink:href="#DejaVuSans-20" x="528.568359"/>
      <use xlink:href="#DejaVuSans-64" x="560.355469"/>
      <use xlink:href="#DejaVuSans-65" x="623.832031"/>
      <use xlink:href="#DejaVuSans-6e" x="685.355469"/>
      <use xlink:href="#DejaVuSans-73" x="748.734375"/>
      <use xlink:href="#DejaVuSans-69" x="800.833984"/>
      <use xlink:href="#DejaVuSans-74" x="828.617188"/>
      <use xlink:href="#DejaVuSans-79" x="867.826172"/>
     </g>
    </g>
   </g>
   <g id="line2d_15">
    <path d="M 92.290909 307.598925 
L 119.914169 307.312954 
L 138.194267 306.91161 
L 151.599672 306.406439 
L 162.161507 305.800361 
L 171.098444 305.072505 
L 178.816708 304.220005 
L 185.316298 303.285119 
L 191.00344 302.255826 
L 196.284357 301.077289 
L 201.15905 299.753758 
L 205.627518 298.298175 
L 209.689762 296.733386 
L 213.345782 295.092689 
L 217.001802 293.194645 
L 220.251597 291.257816 
L 223.501392 289.051091 
L 226.344963 286.868969 
L 229.188534 284.422573 
L 232.032105 281.680427 
L 234.875676 278.608077 
L 237.719247 275.168192 
L 240.156593 271.897001 
L 242.593939 268.30018 
L 245.031286 264.350782 
L 247.468632 260.0219 
L 249.905979 255.287604 
L 252.343325 250.124216 
L 255.186896 243.531947 
L 258.030467 236.308668 
L 260.874038 228.451459 
L 263.717609 219.98232 
L 266.967404 209.627322 
L 271.029648 195.905814 
L 279.56036 166.751793 
L 282.403931 158.008833 
L 284.435053 152.417191 
L 286.466175 147.531091 
L 288.091073 144.220845 
L 289.309746 142.128543 
L 290.528419 140.396513 
L 291.747093 139.044167 
L 292.965766 138.086974 
L 293.778215 137.674056 
L 294.590663 137.443954 
L 295.403112 137.397873 
L 296.215561 137.536055 
L 297.02801 137.857776 
L 297.840459 138.361353 
L 299.059132 139.451721 
L 300.277805 140.932552 
L 301.496478 142.787009 
L 302.715152 144.994478 
L 304.340049 148.44525 
L 305.964947 152.417191 
L 307.996069 158.008833 
L 310.433415 165.450044 
L 313.68321 176.21217 
L 325.463718 216.177739 
L 328.713514 226.092423 
L 331.557084 234.128013 
L 334.400655 241.533055 
L 337.244226 248.304172 
L 340.087797 254.457429 
L 342.931368 260.0219 
L 345.774939 265.034648 
L 348.618509 269.536958 
L 351.46208 273.571634 
L 354.305651 277.181117 
L 357.149222 280.406252 
L 359.992793 283.285523 
L 362.836364 285.854641 
L 365.679934 288.14636 
L 368.92973 290.463868 
L 372.179525 292.497734 
L 375.42932 294.283226 
L 379.08534 296.033528 
L 382.74136 297.547153 
L 386.803604 298.991484 
L 391.272072 300.335843 
L 396.146765 301.559113 
L 401.427682 302.649244 
L 407.521048 303.662703 
L 414.020639 304.51598 
L 421.738903 305.295074 
L 430.675839 305.961223 
L 441.237674 306.516799 
L 454.236855 306.969582 
L 471.29828 307.325645 
L 494.859296 307.577158 
L 498.109091 307.598925 
L 498.109091 307.598925 
" clip-path="url(#p227fd4f038)" style="fill: none; stroke: #1f77b4; stroke-width: 1.5; stroke-linecap: square"/>
   </g>
   <g id="line2d_16">
    <path d="M 92.290909 307.8 
L 180.035381 307.691329 
L 194.253235 307.452675 
L 202.783948 307.102442 
L 208.877314 306.652746 
L 213.752007 306.093134 
L 217.814251 305.425172 
L 221.47027 304.605968 
L 224.720066 303.647143 
L 227.563636 302.579433 
L 230.000983 301.453332 
L 232.438329 300.091045 
L 234.875676 298.445872 
L 236.906798 296.819551 
L 238.93792 294.922478 
L 240.969042 292.713559 
L 243.000164 290.14677 
L 245.031286 287.171003 
L 247.062408 283.730089 
L 249.09353 279.763059 
L 251.124652 275.204749 
L 253.155774 269.986841 
L 255.186896 264.039477 
L 257.218018 257.293588 
L 259.24914 249.684063 
L 261.280262 241.153908 
L 263.311384 231.659469 
L 265.342506 221.176758 
L 267.779853 207.29959 
L 270.217199 192.078941 
L 273.06077 172.852213 
L 277.123014 143.576272 
L 281.997707 108.548059 
L 284.435053 92.607349 
L 286.466175 80.856754 
L 288.091073 72.77211 
L 289.309746 67.611292 
L 290.528419 63.309685 
L 291.747093 59.93266 
L 292.559541 58.221475 
L 293.37199 56.956864 
L 294.184439 56.147784 
L 294.996888 55.8 
L 295.403112 55.8 
L 295.809337 55.915997 
L 296.621785 56.494946 
L 297.434234 57.532714 
L 298.246683 59.021927 
L 299.059132 60.952078 
L 300.277805 64.643804 
L 301.496478 69.239658 
L 302.715152 74.670416 
L 304.340049 83.071898 
L 305.964947 92.607349 
L 307.996069 105.781454 
L 310.83964 125.777309 
L 318.964128 184.012768 
L 321.807699 202.369192 
L 324.245045 216.706542 
L 326.682391 229.642331 
L 328.713514 239.333257 
L 330.744636 248.053308 
L 332.775758 255.842744 
L 334.80688 262.756345 
L 336.838002 268.857964 
L 338.869124 274.216161 
L 340.900246 278.900849 
L 342.931368 282.980802 
L 344.96249 286.521917 
L 346.993612 289.586061 
L 349.024734 292.230393 
L 351.055856 294.507042 
L 353.086978 296.463042 
L 355.1181 298.140455 
L 357.555446 299.837869 
L 359.992793 301.243853 
L 362.430139 302.40639 
L 365.27371 303.50892 
L 368.523505 304.499249 
L 372.179525 305.345557 
L 376.241769 306.035754 
L 381.116462 306.614091 
L 386.803604 307.054567 
L 394.115643 307.389932 
L 404.677477 307.627063 
L 421.738903 307.75705 
L 466.017363 307.798894 
L 498.109091 307.8 
L 498.109091 307.8 
" clip-path="url(#p227fd4f038)" style="fill: none; stroke: #ff7f0e; stroke-width: 1.5; stroke-linecap: square"/>
   </g>
   <g id="line2d_17">
    <path d="M 92.290909 307.798821 
L 173.942015 307.683621 
L 193.034562 307.447772 
L 204.81507 307.093614 
L 213.345782 306.623338 
L 219.845373 306.058093 
L 225.532514 305.339066 
L 230.000983 304.567212 
L 234.063227 303.654143 
L 237.719247 302.611795 
L 240.969042 301.466626 
L 244.218837 300.07003 
L 247.062408 298.601119 
L 249.905979 296.859976 
L 252.343325 295.11689 
L 254.780672 293.109747 
L 257.218018 290.805479 
L 259.655364 288.169759 
L 262.092711 285.168212 
L 264.530057 281.768141 
L 266.967404 277.940902 
L 269.40475 273.66495 
L 271.842097 268.929564 
L 274.279443 263.739099 
L 277.123014 257.141579 
L 280.372809 248.9882 
L 284.841278 237.081296 
L 290.528419 221.942173 
L 293.37199 214.966513 
L 295.809337 209.57177 
L 297.840459 205.599252 
L 299.871581 202.174464 
L 301.496478 199.862383 
L 303.121376 197.948156 
L 304.746274 196.439211 
L 305.964947 195.57338 
L 307.18362 194.932275 
L 308.402293 194.510692 
L 309.620966 194.301514 
L 310.83964 194.295974 
L 312.058313 194.483937 
L 313.276986 194.854174 
L 314.901884 195.610466 
L 316.526781 196.639361 
L 318.151679 197.910123 
L 320.182801 199.79207 
L 322.620147 202.404697 
L 325.463718 205.824209 
L 329.119738 210.609707 
L 336.025553 220.129047 
L 342.525143 228.930565 
L 347.399836 235.143456 
L 351.868305 240.458289 
L 355.930549 244.951342 
L 359.992793 249.120358 
L 364.055037 252.974664 
L 368.117281 256.529824 
L 372.179525 259.804748 
L 376.647993 263.10778 
L 381.116462 266.123623 
L 385.58493 268.878642 
L 390.459623 271.615712 
L 395.334316 274.101399 
L 400.615233 276.541463 
L 406.302375 278.908929 
L 411.989517 281.03874 
L 418.082883 283.089597 
L 424.582473 285.04719 
L 431.488288 286.901494 
L 439.206552 288.737249 
L 447.33104 290.439049 
L 456.267977 292.07977 
L 466.017363 293.637445 
L 476.579197 295.097176 
L 488.359705 296.494826 
L 498.109091 297.498791 
L 498.109091 297.498791 
" clip-path="url(#p227fd4f038)" style="fill: none; stroke: #2ca02c; stroke-width: 1.5; stroke-linecap: square"/>
   </g>
   <g id="line2d_18">
    <path d="M 92.290909 307.055291 
L 106.914988 306.586935 
L 118.289271 306.014274 
L 127.632432 305.333768 
L 135.756921 304.52069 
L 142.662735 303.608253 
L 148.756102 302.58066 
L 154.037019 301.475147 
L 158.911712 300.234437 
L 163.38018 298.870735 
L 167.442424 297.405459 
L 171.098444 295.869739 
L 174.754464 294.093748 
L 178.004259 292.281938 
L 181.254054 290.218005 
L 184.503849 287.86618 
L 187.34742 285.540526 
L 190.190991 282.933429 
L 193.034562 280.011752 
L 195.878133 276.739412 
L 198.721704 273.077593 
L 201.15905 269.597787 
L 203.596396 265.77487 
L 206.033743 261.581831 
L 208.471089 256.992269 
L 210.908436 251.98155 
L 213.752007 245.575235 
L 216.595577 238.542491 
L 219.439148 230.874444 
L 222.282719 222.584751 
L 225.532514 212.408589 
L 229.594758 198.839676 
L 239.750369 164.29186 
L 242.187715 156.956581 
L 244.218837 151.48158 
L 245.843735 147.62101 
L 247.468632 144.296535 
L 248.687305 142.1926 
L 249.905979 140.448228 
L 251.124652 139.082953 
L 252.343325 138.112384 
L 253.155774 137.690374 
L 253.968223 137.451095 
L 254.780672 137.395799 
L 255.59312 137.524777 
L 256.405569 137.837353 
L 257.218018 138.331891 
L 258.436691 139.409003 
L 259.655364 140.877067 
L 260.874038 142.719383 
L 262.092711 144.915453 
L 263.717609 148.352349 
L 265.342506 152.312089 
L 267.373628 157.890999 
L 269.810975 165.320714 
L 273.06077 176.073689 
L 285.247502 217.329531 
L 288.497297 227.16014 
L 291.340868 235.115718 
L 294.184439 242.438963 
L 297.02801 249.129409 
L 299.871581 255.205125 
L 302.715152 260.696463 
L 305.558722 265.641215 
L 308.402293 270.080995 
L 311.245864 274.05865 
L 314.089435 277.616472 
L 316.933006 280.795038 
L 319.776577 283.632493 
L 322.620147 286.164173 
L 325.463718 288.42245 
L 328.713514 290.706146 
L 331.963309 292.710391 
L 335.213104 294.469958 
L 338.869124 296.194955 
L 342.525143 297.686816 
L 346.587387 299.110514 
L 351.055856 300.435817 
L 355.930549 301.641905 
L 361.211466 302.716879 
L 367.304832 303.716409 
L 374.210647 304.604253 
L 381.928911 305.361515 
L 390.865848 306.009291 
L 401.833907 306.566831 
L 415.239312 307.012062 
L 432.706962 307.35531 
L 457.080426 307.596067 
L 496.890418 307.740778 
L 498.109091 307.742944 
L 498.109091 307.742944 
" clip-path="url(#p227fd4f038)" style="fill: none; stroke: #d62728; stroke-width: 1.5; stroke-linecap: square"/>
   </g>
   <g id="line2d_19">
    <path d="M 92.290909 300.484941 
L 105.29009 299.139464 
L 117.070598 297.701464 
L 128.038657 296.145791 
L 138.600491 294.422449 
L 148.349877 292.611872 
L 157.693038 290.658717 
L 167.0362 288.474848 
L 175.973137 286.157195 
L 184.910074 283.608333 
L 193.847011 280.828157 
L 203.190172 277.685716 
L 213.345782 274.030192 
L 226.344963 269.095107 
L 246.656183 261.370049 
L 254.780672 258.535072 
L 261.686486 256.361247 
L 267.779853 254.681811 
L 273.06077 253.444224 
L 278.341687 252.437318 
L 283.21638 251.732477 
L 288.091073 251.257871 
L 292.965766 251.023243 
L 297.434234 251.023243 
L 301.902703 251.229053 
L 306.777396 251.683968 
L 311.652088 252.370106 
L 316.526781 253.273676 
L 321.807699 254.477436 
L 327.49484 256.005791 
L 333.588206 257.869672 
L 340.900246 260.350076 
L 349.837183 263.630188 
L 367.711057 270.501999 
L 380.710238 275.371645 
L 390.865848 278.942719 
L 400.209009 281.993074 
L 409.145946 284.679201 
L 418.082883 287.132985 
L 427.01982 289.357863 
L 436.362981 291.449578 
L 445.706143 293.316989 
L 455.455528 295.045714 
L 466.017363 296.689408 
L 476.985422 298.172031 
L 488.76593 299.541798 
L 498.109091 300.484941 
L 498.109091 300.484941 
" clip-path="url(#p227fd4f038)" style="fill: none; stroke: #9467bd; stroke-width: 1.5; stroke-linecap: square"/>
   </g>
   <g id="patch_3">
    <path d="M 72 320.4 
L 72 43.2 
" style="fill: none; stroke: #000000; stroke-width: 0.8; stroke-linejoin: miter; stroke-linecap: square"/>
   </g>
   <g id="patch_4">
    <path d="M 518.4 320.4 
L 518.4 43.2 
" style="fill: none; stroke: #000000; stroke-width: 0.8; stroke-linejoin: miter; stroke-linecap: square"/>
   </g>
   <g id="patch_5">
    <path d="M 72 320.4 
L 518.4 320.4 
" style="fill: none; stroke: #000000; stroke-width: 0.8; stroke-linejoin: miter; stroke-linecap: square"/>
   </g>
   <g id="patch_6">
    <path d="M 72 43.2 
L 518.4 43.2 
" style="fill: none; stroke: #000000; stroke-width: 0.8; stroke-linejoin: miter; stroke-linecap: square"/>
   </g>
   <g id="text_17">
    <!-- Normal Inverse Gaussian distribution -->
    <g transform="translate(183.9525 37.2) scale(0.12 -0.12)">
     <defs>
      <path id="DejaVuSans-4e" d="M 628 4666 
L 1478 4666 
L 3547 763 
L 3547 4666 
L 4159 4666 
L 4159 0 
L 3309 0 
L 1241 3903 
L 1241 0 
L 628 0 
L 628 4666 
z
" transform="scale(0.015625)"/>
      <path id="DejaVuSans-6d" d="M 3328 2828 
Q 3544 3216 3844 3400 
Q 4144 3584 4550 3584 
Q 5097 3584 5394 3201 
Q 5691 2819 5691 2113 
L 5691 0 
L 5113 0 
L 5113 2094 
Q 5113 2597 4934 2840 
Q 4756 3084 4391 3084 
Q 3944 3084 3684 2787 
Q 3425 2491 3425 1978 
L 3425 0 
L 2847 0 
L 2847 2094 
Q 2847 2600 2669 2842 
Q 2491 3084 2119 3084 
Q 1678 3084 1418 2786 
Q 1159 2488 1159 1978 
L 1159 0 
L 581 0 
L 581 3500 
L 1159 3500 
L 1159 2956 
Q 1356 3278 1631 3431 
Q 1906 3584 2284 3584 
Q 2666 3584 2933 3390 
Q 3200 3197 3328 2828 
z
" transform="scale(0.015625)"/>
      <path id="DejaVuSans-49" d="M 628 4666 
L 1259 4666 
L 1259 0 
L 628 0 
L 628 4666 
z
" transform="scale(0.015625)"/>
      <path id="DejaVuSans-76" d="M 191 3500 
L 800 3500 
L 1894 563 
L 2988 3500 
L 3597 3500 
L 2284 0 
L 1503 0 
L 191 3500 
z
" transform="scale(0.015625)"/>
      <path id="DejaVuSans-47" d="M 3809 666 
L 3809 1919 
L 2778 1919 
L 2778 2438 
L 4434 2438 
L 4434 434 
Q 4069 175 3628 42 
Q 3188 -91 2688 -91 
Q 1594 -91 976 548 
Q 359 1188 359 2328 
Q 359 3472 976 4111 
Q 1594 4750 2688 4750 
Q 3144 4750 3555 4637 
Q 3966 4525 4313 4306 
L 4313 3634 
Q 3963 3931 3569 4081 
Q 3175 4231 2741 4231 
Q 1884 4231 1454 3753 
Q 1025 3275 1025 2328 
Q 1025 1384 1454 906 
Q 1884 428 2741 428 
Q 3075 428 3337 486 
Q 3600 544 3809 666 
z
" transform="scale(0.015625)"/>
      <path id="DejaVuSans-75" d="M 544 1381 
L 544 3500 
L 1119 3500 
L 1119 1403 
Q 1119 906 1312 657 
Q 1506 409 1894 409 
Q 2359 409 2629 706 
Q 2900 1003 2900 1516 
L 2900 3500 
L 3475 3500 
L 3475 0 
L 2900 0 
L 2900 538 
Q 2691 219 2414 64 
Q 2138 -91 1772 -91 
Q 1169 -91 856 284 
Q 544 659 544 1381 
z
M 1991 3584 
L 1991 3584 
z
" transform="scale(0.015625)"/>
     </defs>
     <use xlink:href="#DejaVuSans-4e"/>
     <use xlink:href="#DejaVuSans-6f" x="74.804688"/>
     <use xlink:href="#DejaVuSans-72" x="135.986328"/>
     <use xlink:href="#DejaVuSans-6d" x="175.349609"/>
     <use xlink:href="#DejaVuSans-61" x="272.761719"/>
     <use xlink:href="#DejaVuSans-6c" x="334.041016"/>
     <use xlink:href="#DejaVuSans-20" x="361.824219"/>
     <use xlink:href="#DejaVuSans-49" x="393.611328"/>
     <use xlink:href="#DejaVuSans-6e" x="423.103516"/>
     <use xlink:href="#DejaVuSans-76" x="486.482422"/>
     <use xlink:href="#DejaVuSans-65" x="545.662109"/>
     <use xlink:href="#DejaVuSans-72" x="607.185547"/>
     <use xlink:href="#DejaVuSans-73" x="648.298828"/>
     <use xlink:href="#DejaVuSans-65" x="700.398438"/>
     <use xlink:href="#DejaVuSans-20" x="761.921875"/>
     <use xlink:href="#DejaVuSans-47" x="793.708984"/>
     <use xlink:href="#DejaVuSans-61" x="871.199219"/>
     <use xlink:href="#DejaVuSans-75" x="932.478516"/>
     <use xlink:href="#DejaVuSans-73" x="995.857422"/>
     <use xlink:href="#DejaVuSans-73" x="1047.957031"/>
     <use xlink:href="#DejaVuSans-69" x="1100.056641"/>
     <use xlink:href="#DejaVuSans-61" x="1127.839844"/>
     <use xlink:href="#DejaVuSans-6e" x="1189.119141"/>
     <use xlink:href="#DejaVuSans-20" x="1252.498047"/>
     <use xlink:href="#DejaVuSans-64" x="1284.285156"/>
     <use xlink:href="#DejaVuSans-69" x="1347.761719"/>
     <use xlink:href="#DejaVuSans-73" x="1375.544922"/>
     <use xlink:href="#DejaVuSans-74" x="1427.644531"/>
     <use xlink:href="#DejaVuSans-72" x="1466.853516"/>
     <use xlink:href="#DejaVuSans-69" x="1507.966797"/>
     <use xlink:href="#DejaVuSans-62" x="1535.75"/>
     <use xlink:href="#DejaVuSans-75" x="1599.226562"/>
     <use xlink:href="#DejaVuSans-74" x="1662.605469"/>
     <use xlink:href="#DejaVuSans-69" x="1701.814453"/>
     <use xlink:href="#DejaVuSans-6f" x="1729.597656"/>
     <use xlink:href="#DejaVuSans-6e" x="1790.779297"/>
    </g>
   </g>
   <g id="legend_1">
    <g id="patch_7">
     <path d="M 340.942187 124.903125 
L 511.4 124.903125 
Q 513.4 124.903125 513.4 122.903125 
L 513.4 50.2 
Q 513.4 48.2 511.4 48.2 
L 340.942187 48.2 
Q 338.942187 48.2 338.942187 50.2 
L 338.942187 122.903125 
Q 338.942187 124.903125 340.942187 124.903125 
z
" style="fill: #ffffff; opacity: 0.8; stroke: #cccccc; stroke-linejoin: miter"/>
    </g>
    <g id="line2d_20">
     <path d="M 342.942187 56.360937 
L 352.942187 56.360937 
L 362.942187 56.360937 
" style="fill: none; stroke: #1f77b4; stroke-width: 1.5; stroke-linecap: square"/>
    </g>
    <g id="text_18">
     <!-- α = 1, β = 0, μ = 0, δ = 1 -->
     <g transform="translate(370.942187 59.860937) scale(0.1 -0.1)">
      <defs>
       <path id="DejaVuSans-3b1" d="M 2644 1628 
L 2506 2350 
Q 2366 3091 1809 3091 
Q 1391 3091 1200 2747 
Q 959 2316 959 1747 
Q 959 1059 1194 731 
Q 1431 397 1809 397 
Q 2228 397 2453 1063 
L 2644 1628 
z
M 2966 2584 
L 3275 3500 
L 3788 3500 
L 3147 1603 
L 3272 919 
Q 3300 766 3409 638 
Q 3538 488 3638 488 
L 3913 488 
L 3913 0 
L 3569 0 
Q 3275 0 3013 263 
Q 2884 394 2831 669 
Q 2688 322 2394 50 
Q 2256 -78 1809 -78 
Q 1075 -78 719 397 
Q 353 888 353 1747 
Q 353 2666 750 3097 
Q 1191 3578 1809 3578 
Q 2781 3578 2966 2584 
z
" transform="scale(0.015625)"/>
       <path id="DejaVuSans-3d" d="M 678 2906 
L 4684 2906 
L 4684 2381 
L 678 2381 
L 678 2906 
z
M 678 1631 
L 4684 1631 
L 4684 1100 
L 678 1100 
L 678 1631 
z
" transform="scale(0.015625)"/>
       <path id="DejaVuSans-2c" d="M 750 794 
L 1409 794 
L 1409 256 
L 897 -744 
L 494 -744 
L 750 256 
L 750 794 
z
" transform="scale(0.015625)"/>
       <path id="DejaVuSans-3b2" d="M 1178 216 
L 1178 -1331 
L 600 -1331 
L 600 3478 
Q 600 4903 1931 4903 
Q 3288 4903 3288 3700 
Q 3288 2844 2750 2531 
Q 3625 2250 3625 1416 
Q 3625 -66 2119 -66 
Q 1456 -66 1178 216 
z
M 1178 966 
Q 1525 425 2141 425 
Q 3041 425 3041 1406 
Q 3041 2288 1591 2219 
L 1591 2750 
Q 2725 2750 2725 3750 
Q 2725 4434 1994 4434 
Q 1178 4434 1178 3459 
L 1178 966 
z
" transform="scale(0.015625)"/>
       <path id="DejaVuSans-3bc" d="M 544 -1331 
L 544 3500 
L 1119 3500 
L 1119 1325 
Q 1119 872 1334 640 
Q 1550 409 1972 409 
Q 2434 409 2667 671 
Q 2900 934 2900 1459 
L 2900 3500 
L 3475 3500 
L 3475 806 
Q 3475 619 3529 530 
Q 3584 441 3700 441 
Q 3728 441 3778 458 
Q 3828 475 3916 513 
L 3916 50 
Q 3788 -22 3673 -56 
Q 3559 -91 3450 -91 
Q 3234 -91 3106 31 
Q 2978 153 2931 403 
Q 2775 156 2548 32 
Q 2322 -91 2016 -91 
Q 1697 -91 1473 31 
Q 1250 153 1119 397 
L 1119 -1331 
L 544 -1331 
z
" transform="scale(0.015625)"/>
       <path id="DejaVuSans-3b4" d="M 3138 4053 
Q 2819 4272 2072 4272 
Q 1281 4272 1281 3906 
Q 1281 3619 2106 3469 
Q 2756 3353 3122 3003 
Q 3566 2581 3566 1716 
Q 3566 888 3138 400 
Q 2709 -91 1959 -91 
Q 1213 -91 781 400 
Q 353 888 353 1747 
Q 353 2384 781 2900 
Q 947 3100 1181 3213 
Q 694 3459 694 3900 
Q 694 4750 2072 4750 
Q 2763 4750 3138 4531 
L 3138 4053 
z
M 1613 3056 
Q 1400 2966 1228 2738 
Q 959 2384 959 1747 
Q 959 1113 1225 756 
Q 1494 397 1959 397 
Q 2419 397 2687 759 
Q 2956 1122 2956 1716 
Q 2956 2338 2672 2638 
Q 2369 2959 1975 2994 
Q 1775 3013 1613 3056 
z
" transform="scale(0.015625)"/>
      </defs>
      <use xlink:href="#DejaVuSans-3b1"/>
      <use xlink:href="#DejaVuSans-20" x="65.917969"/>
      <use xlink:href="#DejaVuSans-3d" x="97.705078"/>
      <use xlink:href="#DejaVuSans-20" x="181.494141"/>
      <use xlink:href="#DejaVuSans-31" x="213.28125"/>
      <use xlink:href="#DejaVuSans-2c" x="276.904297"/>
      <use xlink:href="#DejaVuSans-20" x="308.691406"/>
      <use xlink:href="#DejaVuSans-3b2" x="340.478516"/>
      <use xlink:href="#DejaVuSans-20" x="404.296875"/>
      <use xlink:href="#DejaVuSans-3d" x="436.083984"/>
      <use xlink:href="#DejaVuSans-20" x="519.873047"/>
      <use xlink:href="#DejaVuSans-30" x="551.660156"/>
      <use xlink:href="#DejaVuSans-2c" x="615.283203"/>
      <use xlink:href="#DejaVuSans-20" x="647.070312"/>
      <use xlink:href="#DejaVuSans-3bc" x="678.857422"/>
      <use xlink:href="#DejaVuSans-20" x="742.480469"/>
      <use xlink:href="#DejaVuSans-3d" x="774.267578"/>
      <use xlink:href="#DejaVuSans-20" x="858.056641"/>
      <use xlink:href="#DejaVuSans-30" x="889.84375"/>
      <use xlink:href="#DejaVuSans-2c" x="953.466797"/>
      <use xlink:href="#DejaVuSans-20" x="985.253906"/>
      <use xlink:href="#DejaVuSans-3b4" x="1017.041016"/>
      <use xlink:href="#DejaVuSans-20" x="1078.222656"/>
      <use xlink:href="#DejaVuSans-3d" x="1110.009766"/>
      <use xlink:href="#DejaVuSans-20" x="1193.798828"/>
      <use xlink:href="#DejaVuSans-31" x="1225.585938"/>
     </g>
    </g>
    <g id="line2d_21">
     <path d="M 342.942187 71.101562 
L 352.942187 71.101562 
L 362.942187 71.101562 
" style="fill: none; stroke: #ff7f0e; stroke-width: 1.5; stroke-linecap: square"/>
    </g>
    <g id="text_19">
     <!-- α = 3, β = 0, μ = 0, δ = 1 -->
     <g transform="translate(370.942187 74.601562) scale(0.1 -0.1)">
      <use xlink:href="#DejaVuSans-3b1"/>
      <use xlink:href="#DejaVuSans-20" x="65.917969"/>
      <use xlink:href="#DejaVuSans-3d" x="97.705078"/>
      <use xlink:href="#DejaVuSans-20" x="181.494141"/>
      <use xlink:href="#DejaVuSans-33" x="213.28125"/>
      <use xlink:href="#DejaVuSans-2c" x="276.904297"/>
      <use xlink:href="#DejaVuSans-20" x="308.691406"/>
      <use xlink:href="#DejaVuSans-3b2" x="340.478516"/>
      <use xlink:href="#DejaVuSans-20" x="404.296875"/>
      <use xlink:href="#DejaVuSans-3d" x="436.083984"/>
      <use xlink:href="#DejaVuSans-20" x="519.873047"/>
      <use xlink:href="#DejaVuSans-30" x="551.660156"/>
      <use xlink:href="#DejaVuSans-2c" x="615.283203"/>
      <use xlink:href="#DejaVuSans-20" x="647.070312"/>
      <use xlink:href="#DejaVuSans-3bc" x="678.857422"/>
      <use xlink:href="#DejaVuSans-20" x="742.480469"/>
      <use xlink:href="#DejaVuSans-3d" x="774.267578"/>
      <use xlink:href="#DejaVuSans-20" x="858.056641"/>
      <use xlink:href="#DejaVuSans-30" x="889.84375"/>
      <use xlink:href="#DejaVuSans-2c" x="953.466797"/>
      <use xlink:href="#DejaVuSans-20" x="985.253906"/>
      <use xlink:href="#DejaVuSans-3b4" x="1017.041016"/>
      <use xlink:href="#DejaVuSans-20" x="1078.222656"/>
      <use xlink:href="#DejaVuSans-3d" x="1110.009766"/>
      <use xlink:href="#DejaVuSans-20" x="1193.798828"/>
      <use xlink:href="#DejaVuSans-31" x="1225.585938"/>
     </g>
    </g>
    <g id="line2d_22">
     <path d="M 342.942187 85.842187 
L 352.942187 85.842187 
L 362.942187 85.842187 
" style="fill: none; stroke: #2ca02c; stroke-width: 1.5; stroke-linecap: square"/>
    </g>
    <g id="text_20">
     <!-- α = 1, β = 0.9, μ = 0, δ = 1 -->
     <g transform="translate(370.942187 89.342187) scale(0.1 -0.1)">
      <defs>
       <path id="DejaVuSans-39" d="M 703 97 
L 703 672 
Q 941 559 1184 500 
Q 1428 441 1663 441 
Q 2288 441 2617 861 
Q 2947 1281 2994 2138 
Q 2813 1869 2534 1725 
Q 2256 1581 1919 1581 
Q 1219 1581 811 2004 
Q 403 2428 403 3163 
Q 403 3881 828 4315 
Q 1253 4750 1959 4750 
Q 2769 4750 3195 4129 
Q 3622 3509 3622 2328 
Q 3622 1225 3098 567 
Q 2575 -91 1691 -91 
Q 1453 -91 1209 -44 
Q 966 3 703 97 
z
M 1959 2075 
Q 2384 2075 2632 2365 
Q 2881 2656 2881 3163 
Q 2881 3666 2632 3958 
Q 2384 4250 1959 4250 
Q 1534 4250 1286 3958 
Q 1038 3666 1038 3163 
Q 1038 2656 1286 2365 
Q 1534 2075 1959 2075 
z
" transform="scale(0.015625)"/>
      </defs>
      <use xlink:href="#DejaVuSans-3b1"/>
      <use xlink:href="#DejaVuSans-20" x="65.917969"/>
      <use xlink:href="#DejaVuSans-3d" x="97.705078"/>
      <use xlink:href="#DejaVuSans-20" x="181.494141"/>
      <use xlink:href="#DejaVuSans-31" x="213.28125"/>
      <use xlink:href="#DejaVuSans-2c" x="276.904297"/>
      <use xlink:href="#DejaVuSans-20" x="308.691406"/>
      <use xlink:href="#DejaVuSans-3b2" x="340.478516"/>
      <use xlink:href="#DejaVuSans-20" x="404.296875"/>
      <use xlink:href="#DejaVuSans-3d" x="436.083984"/>
      <use xlink:href="#DejaVuSans-20" x="519.873047"/>
      <use xlink:href="#DejaVuSans-30" x="551.660156"/>
      <use xlink:href="#DejaVuSans-2e" x="615.283203"/>
      <use xlink:href="#DejaVuSans-39" x="647.070312"/>
      <use xlink:href="#DejaVuSans-2c" x="710.693359"/>
      <use xlink:href="#DejaVuSans-20" x="742.480469"/>
      <use xlink:href="#DejaVuSans-3bc" x="774.267578"/>
      <use xlink:href="#DejaVuSans-20" x="837.890625"/>
      <use xlink:href="#DejaVuSans-3d" x="869.677734"/>
      <use xlink:href="#DejaVuSans-20" x="953.466797"/>
      <use xlink:href="#DejaVuSans-30" x="985.253906"/>
      <use xlink:href="#DejaVuSans-2c" x="1048.876953"/>
      <use xlink:href="#DejaVuSans-20" x="1080.664062"/>
      <use xlink:href="#DejaVuSans-3b4" x="1112.451172"/>
      <use xlink:href="#DejaVuSans-20" x="1173.632812"/>
      <use xlink:href="#DejaVuSans-3d" x="1205.419922"/>
      <use xlink:href="#DejaVuSans-20" x="1289.208984"/>
      <use xlink:href="#DejaVuSans-31" x="1320.996094"/>
     </g>
    </g>
    <g id="line2d_23">
     <path d="M 342.942187 100.582812 
L 352.942187 100.582812 
L 362.942187 100.582812 
" style="fill: none; stroke: #d62728; stroke-width: 1.5; stroke-linecap: square"/>
    </g>
    <g id="text_21">
     <!-- α = 1, β = 0, μ = -1, δ = 1 -->
     <g transform="translate(370.942187 104.082812) scale(0.1 -0.1)">
      <defs>
       <path id="DejaVuSans-2d" d="M 313 2009 
L 1997 2009 
L 1997 1497 
L 313 1497 
L 313 2009 
z
" transform="scale(0.015625)"/>
      </defs>
      <use xlink:href="#DejaVuSans-3b1"/>
      <use xlink:href="#DejaVuSans-20" x="65.917969"/>
      <use xlink:href="#DejaVuSans-3d" x="97.705078"/>
      <use xlink:href="#DejaVuSans-20" x="181.494141"/>
      <use xlink:href="#DejaVuSans-31" x="213.28125"/>
      <use xlink:href="#DejaVuSans-2c" x="276.904297"/>
      <use xlink:href="#DejaVuSans-20" x="308.691406"/>
      <use xlink:href="#DejaVuSans-3b2" x="340.478516"/>
      <use xlink:href="#DejaVuSans-20" x="404.296875"/>
      <use xlink:href="#DejaVuSans-3d" x="436.083984"/>
      <use xlink:href="#DejaVuSans-20" x="519.873047"/>
      <use xlink:href="#DejaVuSans-30" x="551.660156"/>
      <use xlink:href="#DejaVuSans-2c" x="615.283203"/>
      <use xlink:href="#DejaVuSans-20" x="647.070312"/>
      <use xlink:href="#DejaVuSans-3bc" x="678.857422"/>
      <use xlink:href="#DejaVuSans-20" x="742.480469"/>
      <use xlink:href="#DejaVuSans-3d" x="774.267578"/>
      <use xlink:href="#DejaVuSans-20" x="858.056641"/>
      <use xlink:href="#DejaVuSans-2d" x="889.84375"/>
      <use xlink:href="#DejaVuSans-31" x="925.927734"/>
      <use xlink:href="#DejaVuSans-2c" x="989.550781"/>
      <use xlink:href="#DejaVuSans-20" x="1021.337891"/>
      <use xlink:href="#DejaVuSans-3b4" x="1053.125"/>
      <use xlink:href="#DejaVuSans-20" x="1114.306641"/>
      <use xlink:href="#DejaVuSans-3d" x="1146.09375"/>
      <use xlink:href="#DejaVuSans-20" x="1229.882812"/>
      <use xlink:href="#DejaVuSans-31" x="1261.669922"/>
     </g>
    </g>
    <g id="line2d_24">
     <path d="M 342.942187 115.323437 
L 352.942187 115.323437 
L 362.942187 115.323437 
" style="fill: none; stroke: #9467bd; stroke-width: 1.5; stroke-linecap: square"/>
    </g>
    <g id="text_22">
     <!-- α = 1, β = 0, μ = 0, δ = 3 -->
     <g transform="translate(370.942187 118.823437) scale(0.1 -0.1)">
      <use xlink:href="#DejaVuSans-3b1"/>
      <use xlink:href="#DejaVuSans-20" x="65.917969"/>
      <use xlink:href="#DejaVuSans-3d" x="97.705078"/>
      <use xlink:href="#DejaVuSans-20" x="181.494141"/>
      <use xlink:href="#DejaVuSans-31" x="213.28125"/>
      <use xlink:href="#DejaVuSans-2c" x="276.904297"/>
      <use xlink:href="#DejaVuSans-20" x="308.691406"/>
      <use xlink:href="#DejaVuSans-3b2" x="340.478516"/>
      <use xlink:href="#DejaVuSans-20" x="404.296875"/>
      <use xlink:href="#DejaVuSans-3d" x="436.083984"/>
      <use xlink:href="#DejaVuSans-20" x="519.873047"/>
      <use xlink:href="#DejaVuSans-30" x="551.660156"/>
      <use xlink:href="#DejaVuSans-2c" x="615.283203"/>
      <use xlink:href="#DejaVuSans-20" x="647.070312"/>
      <use xlink:href="#DejaVuSans-3bc" x="678.857422"/>
      <use xlink:href="#DejaVuSans-20" x="742.480469"/>
      <use xlink:href="#DejaVuSans-3d" x="774.267578"/>
      <use xlink:href="#DejaVuSans-20" x="858.056641"/>
      <use xlink:href="#DejaVuSans-30" x="889.84375"/>
      <use xlink:href="#DejaVuSans-2c" x="953.466797"/>
      <use xlink:href="#DejaVuSans-20" x="985.253906"/>
      <use xlink:href="#DejaVuSans-3b4" x="1017.041016"/>
      <use xlink:href="#DejaVuSans-20" x="1078.222656"/>
      <use xlink:href="#DejaVuSans-3d" x="1110.009766"/>
      <use xlink:href="#DejaVuSans-20" x="1193.798828"/>
      <use xlink:href="#DejaVuSans-33" x="1225.585938"/>
     </g>
    </g>
   </g>
  </g>
 </g>
 <defs>
  <clipPath id="p227fd4f038">
   <rect x="72" y="43.2" width="446.4" height="277.2"/>
  </clipPath>
 </defs>
</svg>
