<?xml version="1.0" encoding="utf-8" standalone="no"?>
<!DOCTYPE svg PUBLIC "-//W3C//DTD SVG 1.1//EN"
  "http://www.w3.org/Graphics/SVG/1.1/DTD/svg11.dtd">
<svg xmlns:xlink="http://www.w3.org/1999/xlink" width="720pt" height="360pt" viewBox="0 0 720 360" xmlns="http://www.w3.org/2000/svg" version="1.1">
 <metadata>
  <rdf:RDF xmlns:dc="http://purl.org/dc/elements/1.1/" xmlns:cc="http://creativecommons.org/ns#" xmlns:rdf="http://www.w3.org/1999/02/22-rdf-syntax-ns#">
   <cc:Work>
    <dc:type rdf:resource="http://purl.org/dc/dcmitype/StillImage"/>
    <dc:date>2024-05-02T16:43:12.935396</dc:date>
    <dc:format>image/svg+xml</dc:format>
    <dc:creator>
     <cc:Agent>
      <dc:title>Matplotlib v3.8.4, https://matplotlib.org/</dc:title>
     </cc:Agent>
    </dc:creator>
   </cc:Work>
  </rdf:RDF>
 </metadata>
 <defs>
  <style type="text/css">*{stroke-linejoin: round; stroke-linecap: butt}</style>
 </defs>
 <g id="figure_1">
  <g id="patch_1">
   <path d="M 0 360 
L 720 360 
L 720 0 
L 0 0 
z
" style="fill: #ffffff"/>
  </g>
  <g id="axes_1">
   <g id="patch_2">
    <path d="M 90 320.4 
L 424.8 320.4 
L 424.8 43.2 
L 90 43.2 
z
" style="fill: #ffffff"/>
   </g>
   <g id="matplotlib.axis_1">
    <g id="xtick_1">
     <g id="line2d_1">
      <path d="M 90 320.4 
L 90 43.2 
" clip-path="url(#p665a474401)" style="fill: none; stroke: #b0b0b0; stroke-width: 0.8; stroke-linecap: square"/>
     </g>
     <g id="line2d_2">
      <defs>
       <path id="m6cc8e16997" d="M 0 0 
L 0 3.5 
" style="stroke: #000000; stroke-width: 0.8"/>
      </defs>
      <g>
       <use xlink:href="#m6cc8e16997" x="90" y="320.4" style="stroke: #000000; stroke-width: 0.8"/>
      </g>
     </g>
     <g id="text_1">
      <!-- −1.5 -->
      <g transform="translate(77.858594 334.998438) scale(0.1 -0.1)">
       <defs>
        <path id="DejaVuSans-2212" d="M 678 2272 
L 4684 2272 
L 4684 1741 
L 678 1741 
L 678 2272 
z
" transform="scale(0.015625)"/>
        <path id="DejaVuSans-31" d="M 794 531 
L 1825 531 
L 1825 4091 
L 703 3866 
L 703 4441 
L 1819 4666 
L 2450 4666 
L 2450 531 
L 3481 531 
L 3481 0 
L 794 0 
L 794 531 
z
" transform="scale(0.015625)"/>
        <path id="DejaVuSans-2e" d="M 684 794 
L 1344 794 
L 1344 0 
L 684 0 
L 684 794 
z
" transform="scale(0.015625)"/>
        <path id="DejaVuSans-35" d="M 691 4666 
L 3169 4666 
L 3169 4134 
L 1269 4134 
L 1269 2991 
Q 1406 3038 1543 3061 
Q 1681 3084 1819 3084 
Q 2600 3084 3056 2656 
Q 3513 2228 3513 1497 
Q 3513 744 3044 326 
Q 2575 -91 1722 -91 
Q 1428 -91 1123 -41 
Q 819 9 494 109 
L 494 744 
Q 775 591 1075 516 
Q 1375 441 1709 441 
Q 2250 441 2565 725 
Q 2881 1009 2881 1497 
Q 2881 1984 2565 2268 
Q 2250 2553 1709 2553 
Q 1456 2553 1204 2497 
Q 953 2441 691 2322 
L 691 4666 
z
" transform="scale(0.015625)"/>
       </defs>
       <use xlink:href="#DejaVuSans-2212"/>
       <use xlink:href="#DejaVuSans-31" x="83.789062"/>
       <use xlink:href="#DejaVuSans-2e" x="147.412109"/>
       <use xlink:href="#DejaVuSans-35" x="179.199219"/>
      </g>
     </g>
    </g>
    <g id="xtick_2">
     <g id="line2d_3">
      <path d="M 145.8 320.4 
L 145.8 43.2 
" clip-path="url(#p665a474401)" style="fill: none; stroke: #b0b0b0; stroke-width: 0.8; stroke-linecap: square"/>
     </g>
     <g id="line2d_4">
      <g>
       <use xlink:href="#m6cc8e16997" x="145.8" y="320.4" style="stroke: #000000; stroke-width: 0.8"/>
      </g>
     </g>
     <g id="text_2">
      <!-- −1.0 -->
      <g transform="translate(133.658594 334.998438) scale(0.1 -0.1)">
       <defs>
        <path id="DejaVuSans-30" d="M 2034 4250 
Q 1547 4250 1301 3770 
Q 1056 3291 1056 2328 
Q 1056 1369 1301 889 
Q 1547 409 2034 409 
Q 2525 409 2770 889 
Q 3016 1369 3016 2328 
Q 3016 3291 2770 3770 
Q 2525 4250 2034 4250 
z
M 2034 4750 
Q 2819 4750 3233 4129 
Q 3647 3509 3647 2328 
Q 3647 1150 3233 529 
Q 2819 -91 2034 -91 
Q 1250 -91 836 529 
Q 422 1150 422 2328 
Q 422 3509 836 4129 
Q 1250 4750 2034 4750 
z
" transform="scale(0.015625)"/>
       </defs>
       <use xlink:href="#DejaVuSans-2212"/>
       <use xlink:href="#DejaVuSans-31" x="83.789062"/>
       <use xlink:href="#DejaVuSans-2e" x="147.412109"/>
       <use xlink:href="#DejaVuSans-30" x="179.199219"/>
      </g>
     </g>
    </g>
    <g id="xtick_3">
     <g id="line2d_5">
      <path d="M 201.6 320.4 
L 201.6 43.2 
" clip-path="url(#p665a474401)" style="fill: none; stroke: #b0b0b0; stroke-width: 0.8; stroke-linecap: square"/>
     </g>
     <g id="line2d_6">
      <g>
       <use xlink:href="#m6cc8e16997" x="201.6" y="320.4" style="stroke: #000000; stroke-width: 0.8"/>
      </g>
     </g>
     <g id="text_3">
      <!-- −0.5 -->
      <g transform="translate(189.458594 334.998438) scale(0.1 -0.1)">
       <use xlink:href="#DejaVuSans-2212"/>
       <use xlink:href="#DejaVuSans-30" x="83.789062"/>
       <use xlink:href="#DejaVuSans-2e" x="147.412109"/>
       <use xlink:href="#DejaVuSans-35" x="179.199219"/>
      </g>
     </g>
    </g>
    <g id="xtick_4">
     <g id="line2d_7">
      <path d="M 257.4 320.4 
L 257.4 43.2 
" clip-path="url(#p665a474401)" style="fill: none; stroke: #b0b0b0; stroke-width: 0.8; stroke-linecap: square"/>
     </g>
     <g id="line2d_8">
      <g>
       <use xlink:href="#m6cc8e16997" x="257.4" y="320.4" style="stroke: #000000; stroke-width: 0.8"/>
      </g>
     </g>
     <g id="text_4">
      <!-- 0.0 -->
      <g transform="translate(249.448437 334.998438) scale(0.1 -0.1)">
       <use xlink:href="#DejaVuSans-30"/>
       <use xlink:href="#DejaVuSans-2e" x="63.623047"/>
       <use xlink:href="#DejaVuSans-30" x="95.410156"/>
      </g>
     </g>
    </g>
    <g id="xtick_5">
     <g id="line2d_9">
      <path d="M 313.2 320.4 
L 313.2 43.2 
" clip-path="url(#p665a474401)" style="fill: none; stroke: #b0b0b0; stroke-width: 0.8; stroke-linecap: square"/>
     </g>
     <g id="line2d_10">
      <g>
       <use xlink:href="#m6cc8e16997" x="313.2" y="320.4" style="stroke: #000000; stroke-width: 0.8"/>
      </g>
     </g>
     <g id="text_5">
      <!-- 0.5 -->
      <g transform="translate(305.248437 334.998438) scale(0.1 -0.1)">
       <use xlink:href="#DejaVuSans-30"/>
       <use xlink:href="#DejaVuSans-2e" x="63.623047"/>
       <use xlink:href="#DejaVuSans-35" x="95.410156"/>
      </g>
     </g>
    </g>
    <g id="xtick_6">
     <g id="line2d_11">
      <path d="M 369 320.4 
L 369 43.2 
" clip-path="url(#p665a474401)" style="fill: none; stroke: #b0b0b0; stroke-width: 0.8; stroke-linecap: square"/>
     </g>
     <g id="line2d_12">
      <g>
       <use xlink:href="#m6cc8e16997" x="369" y="320.4" style="stroke: #000000; stroke-width: 0.8"/>
      </g>
     </g>
     <g id="text_6">
      <!-- 1.0 -->
      <g transform="translate(361.048437 334.998438) scale(0.1 -0.1)">
       <use xlink:href="#DejaVuSans-31"/>
       <use xlink:href="#DejaVuSans-2e" x="63.623047"/>
       <use xlink:href="#DejaVuSans-30" x="95.410156"/>
      </g>
     </g>
    </g>
    <g id="xtick_7">
     <g id="line2d_13">
      <path d="M 424.8 320.4 
L 424.8 43.2 
" clip-path="url(#p665a474401)" style="fill: none; stroke: #b0b0b0; stroke-width: 0.8; stroke-linecap: square"/>
     </g>
     <g id="line2d_14">
      <g>
       <use xlink:href="#m6cc8e16997" x="424.8" y="320.4" style="stroke: #000000; stroke-width: 0.8"/>
      </g>
     </g>
     <g id="text_7">
      <!-- 1.5 -->
      <g transform="translate(416.848437 334.998438) scale(0.1 -0.1)">
       <use xlink:href="#DejaVuSans-31"/>
       <use xlink:href="#DejaVuSans-2e" x="63.623047"/>
       <use xlink:href="#DejaVuSans-35" x="95.410156"/>
      </g>
     </g>
    </g>
    <g id="text_8">
     <!-- x -->
     <g transform="translate(254.440625 348.676562) scale(0.1 -0.1)">
      <defs>
       <path id="DejaVuSans-78" d="M 3513 3500 
L 2247 1797 
L 3578 0 
L 2900 0 
L 1881 1375 
L 863 0 
L 184 0 
L 1544 1831 
L 300 3500 
L 978 3500 
L 1906 2253 
L 2834 3500 
L 3513 3500 
z
" transform="scale(0.015625)"/>
      </defs>
      <use xlink:href="#DejaVuSans-78"/>
     </g>
    </g>
   </g>
   <g id="matplotlib.axis_2">
    <g id="ytick_1">
     <g id="line2d_15">
      <path d="M 90 320.4 
L 424.8 320.4 
" clip-path="url(#p665a474401)" style="fill: none; stroke: #b0b0b0; stroke-width: 0.8; stroke-linecap: square"/>
     </g>
     <g id="line2d_16">
      <defs>
       <path id="m63c31b9f11" d="M 0 0 
L -3.5 0 
" style="stroke: #000000; stroke-width: 0.8"/>
      </defs>
      <g>
       <use xlink:href="#m63c31b9f11" x="90" y="320.4" style="stroke: #000000; stroke-width: 0.8"/>
      </g>
     </g>
     <g id="text_9">
      <!-- 0.0 -->
      <g transform="translate(67.096875 324.199219) scale(0.1 -0.1)">
       <use xlink:href="#DejaVuSans-30"/>
       <use xlink:href="#DejaVuSans-2e" x="63.623047"/>
       <use xlink:href="#DejaVuSans-30" x="95.410156"/>
      </g>
     </g>
    </g>
    <g id="ytick_2">
     <g id="line2d_17">
      <path d="M 90 275.343594 
L 424.8 275.343594 
" clip-path="url(#p665a474401)" style="fill: none; stroke: #b0b0b0; stroke-width: 0.8; stroke-linecap: square"/>
     </g>
     <g id="line2d_18">
      <g>
       <use xlink:href="#m63c31b9f11" x="90" y="275.343594" style="stroke: #000000; stroke-width: 0.8"/>
      </g>
     </g>
     <g id="text_10">
      <!-- 0.2 -->
      <g transform="translate(67.096875 279.142812) scale(0.1 -0.1)">
       <defs>
        <path id="DejaVuSans-32" d="M 1228 531 
L 3431 531 
L 3431 0 
L 469 0 
L 469 531 
Q 828 903 1448 1529 
Q 2069 2156 2228 2338 
Q 2531 2678 2651 2914 
Q 2772 3150 2772 3378 
Q 2772 3750 2511 3984 
Q 2250 4219 1831 4219 
Q 1534 4219 1204 4116 
Q 875 4013 500 3803 
L 500 4441 
Q 881 4594 1212 4672 
Q 1544 4750 1819 4750 
Q 2544 4750 2975 4387 
Q 3406 4025 3406 3419 
Q 3406 3131 3298 2873 
Q 3191 2616 2906 2266 
Q 2828 2175 2409 1742 
Q 1991 1309 1228 531 
z
" transform="scale(0.015625)"/>
       </defs>
       <use xlink:href="#DejaVuSans-30"/>
       <use xlink:href="#DejaVuSans-2e" x="63.623047"/>
       <use xlink:href="#DejaVuSans-32" x="95.410156"/>
      </g>
     </g>
    </g>
    <g id="ytick_3">
     <g id="line2d_19">
      <path d="M 90 230.287187 
L 424.8 230.287187 
" clip-path="url(#p665a474401)" style="fill: none; stroke: #b0b0b0; stroke-width: 0.8; stroke-linecap: square"/>
     </g>
     <g id="line2d_20">
      <g>
       <use xlink:href="#m63c31b9f11" x="90" y="230.287187" style="stroke: #000000; stroke-width: 0.8"/>
      </g>
     </g>
     <g id="text_11">
      <!-- 0.4 -->
      <g transform="translate(67.096875 234.086406) scale(0.1 -0.1)">
       <defs>
        <path id="DejaVuSans-34" d="M 2419 4116 
L 825 1625 
L 2419 1625 
L 2419 4116 
z
M 2253 4666 
L 3047 4666 
L 3047 1625 
L 3713 1625 
L 3713 1100 
L 3047 1100 
L 3047 0 
L 2419 0 
L 2419 1100 
L 313 1100 
L 313 1709 
L 2253 4666 
z
" transform="scale(0.015625)"/>
       </defs>
       <use xlink:href="#DejaVuSans-30"/>
       <use xlink:href="#DejaVuSans-2e" x="63.623047"/>
       <use xlink:href="#DejaVuSans-34" x="95.410156"/>
      </g>
     </g>
    </g>
    <g id="ytick_4">
     <g id="line2d_21">
      <path d="M 90 185.230781 
L 424.8 185.230781 
" clip-path="url(#p665a474401)" style="fill: none; stroke: #b0b0b0; stroke-width: 0.8; stroke-linecap: square"/>
     </g>
     <g id="line2d_22">
      <g>
       <use xlink:href="#m63c31b9f11" x="90" y="185.230781" style="stroke: #000000; stroke-width: 0.8"/>
      </g>
     </g>
     <g id="text_12">
      <!-- 0.6 -->
      <g transform="translate(67.096875 189.03) scale(0.1 -0.1)">
       <defs>
        <path id="DejaVuSans-36" d="M 2113 2584 
Q 1688 2584 1439 2293 
Q 1191 2003 1191 1497 
Q 1191 994 1439 701 
Q 1688 409 2113 409 
Q 2538 409 2786 701 
Q 3034 994 3034 1497 
Q 3034 2003 2786 2293 
Q 2538 2584 2113 2584 
z
M 3366 4563 
L 3366 3988 
Q 3128 4100 2886 4159 
Q 2644 4219 2406 4219 
Q 1781 4219 1451 3797 
Q 1122 3375 1075 2522 
Q 1259 2794 1537 2939 
Q 1816 3084 2150 3084 
Q 2853 3084 3261 2657 
Q 3669 2231 3669 1497 
Q 3669 778 3244 343 
Q 2819 -91 2113 -91 
Q 1303 -91 875 529 
Q 447 1150 447 2328 
Q 447 3434 972 4092 
Q 1497 4750 2381 4750 
Q 2619 4750 2861 4703 
Q 3103 4656 3366 4563 
z
" transform="scale(0.015625)"/>
       </defs>
       <use xlink:href="#DejaVuSans-30"/>
       <use xlink:href="#DejaVuSans-2e" x="63.623047"/>
       <use xlink:href="#DejaVuSans-36" x="95.410156"/>
      </g>
     </g>
    </g>
    <g id="ytick_5">
     <g id="line2d_23">
      <path d="M 90 140.174375 
L 424.8 140.174375 
" clip-path="url(#p665a474401)" style="fill: none; stroke: #b0b0b0; stroke-width: 0.8; stroke-linecap: square"/>
     </g>
     <g id="line2d_24">
      <g>
       <use xlink:href="#m63c31b9f11" x="90" y="140.174375" style="stroke: #000000; stroke-width: 0.8"/>
      </g>
     </g>
     <g id="text_13">
      <!-- 0.8 -->
      <g transform="translate(67.096875 143.973593) scale(0.1 -0.1)">
       <defs>
        <path id="DejaVuSans-38" d="M 2034 2216 
Q 1584 2216 1326 1975 
Q 1069 1734 1069 1313 
Q 1069 891 1326 650 
Q 1584 409 2034 409 
Q 2484 409 2743 651 
Q 3003 894 3003 1313 
Q 3003 1734 2745 1975 
Q 2488 2216 2034 2216 
z
M 1403 2484 
Q 997 2584 770 2862 
Q 544 3141 544 3541 
Q 544 4100 942 4425 
Q 1341 4750 2034 4750 
Q 2731 4750 3128 4425 
Q 3525 4100 3525 3541 
Q 3525 3141 3298 2862 
Q 3072 2584 2669 2484 
Q 3125 2378 3379 2068 
Q 3634 1759 3634 1313 
Q 3634 634 3220 271 
Q 2806 -91 2034 -91 
Q 1263 -91 848 271 
Q 434 634 434 1313 
Q 434 1759 690 2068 
Q 947 2378 1403 2484 
z
M 1172 3481 
Q 1172 3119 1398 2916 
Q 1625 2713 2034 2713 
Q 2441 2713 2670 2916 
Q 2900 3119 2900 3481 
Q 2900 3844 2670 4047 
Q 2441 4250 2034 4250 
Q 1625 4250 1398 4047 
Q 1172 3844 1172 3481 
z
" transform="scale(0.015625)"/>
       </defs>
       <use xlink:href="#DejaVuSans-30"/>
       <use xlink:href="#DejaVuSans-2e" x="63.623047"/>
       <use xlink:href="#DejaVuSans-38" x="95.410156"/>
      </g>
     </g>
    </g>
    <g id="ytick_6">
     <g id="line2d_25">
      <path d="M 90 95.117968 
L 424.8 95.117968 
" clip-path="url(#p665a474401)" style="fill: none; stroke: #b0b0b0; stroke-width: 0.8; stroke-linecap: square"/>
     </g>
     <g id="line2d_26">
      <g>
       <use xlink:href="#m63c31b9f11" x="90" y="95.117968" style="stroke: #000000; stroke-width: 0.8"/>
      </g>
     </g>
     <g id="text_14">
      <!-- 1.0 -->
      <g transform="translate(67.096875 98.917187) scale(0.1 -0.1)">
       <use xlink:href="#DejaVuSans-31"/>
       <use xlink:href="#DejaVuSans-2e" x="63.623047"/>
       <use xlink:href="#DejaVuSans-30" x="95.410156"/>
      </g>
     </g>
    </g>
    <g id="ytick_7">
     <g id="line2d_27">
      <path d="M 90 50.061562 
L 424.8 50.061562 
" clip-path="url(#p665a474401)" style="fill: none; stroke: #b0b0b0; stroke-width: 0.8; stroke-linecap: square"/>
     </g>
     <g id="line2d_28">
      <g>
       <use xlink:href="#m63c31b9f11" x="90" y="50.061562" style="stroke: #000000; stroke-width: 0.8"/>
      </g>
     </g>
     <g id="text_15">
      <!-- 1.2 -->
      <g transform="translate(67.096875 53.860781) scale(0.1 -0.1)">
       <use xlink:href="#DejaVuSans-31"/>
       <use xlink:href="#DejaVuSans-2e" x="63.623047"/>
       <use xlink:href="#DejaVuSans-32" x="95.410156"/>
      </g>
     </g>
    </g>
    <g id="text_16">
     <!-- Probability density -->
     <g transform="translate(61.017187 228.150781) rotate(-90) scale(0.1 -0.1)">
      <defs>
       <path id="DejaVuSans-50" d="M 1259 4147 
L 1259 2394 
L 2053 2394 
Q 2494 2394 2734 2622 
Q 2975 2850 2975 3272 
Q 2975 3691 2734 3919 
Q 2494 4147 2053 4147 
L 1259 4147 
z
M 628 4666 
L 2053 4666 
Q 2838 4666 3239 4311 
Q 3641 3956 3641 3272 
Q 3641 2581 3239 2228 
Q 2838 1875 2053 1875 
L 1259 1875 
L 1259 0 
L 628 0 
L 628 4666 
z
" transform="scale(0.015625)"/>
       <path id="DejaVuSans-72" d="M 2631 2963 
Q 2534 3019 2420 3045 
Q 2306 3072 2169 3072 
Q 1681 3072 1420 2755 
Q 1159 2438 1159 1844 
L 1159 0 
L 581 0 
L 581 3500 
L 1159 3500 
L 1159 2956 
Q 1341 3275 1631 3429 
Q 1922 3584 2338 3584 
Q 2397 3584 2469 3576 
Q 2541 3569 2628 3553 
L 2631 2963 
z
" transform="scale(0.015625)"/>
       <path id="DejaVuSans-6f" d="M 1959 3097 
Q 1497 3097 1228 2736 
Q 959 2375 959 1747 
Q 959 1119 1226 758 
Q 1494 397 1959 397 
Q 2419 397 2687 759 
Q 2956 1122 2956 1747 
Q 2956 2369 2687 2733 
Q 2419 3097 1959 3097 
z
M 1959 3584 
Q 2709 3584 3137 3096 
Q 3566 2609 3566 1747 
Q 3566 888 3137 398 
Q 2709 -91 1959 -91 
Q 1206 -91 779 398 
Q 353 888 353 1747 
Q 353 2609 779 3096 
Q 1206 3584 1959 3584 
z
" transform="scale(0.015625)"/>
       <path id="DejaVuSans-62" d="M 3116 1747 
Q 3116 2381 2855 2742 
Q 2594 3103 2138 3103 
Q 1681 3103 1420 2742 
Q 1159 2381 1159 1747 
Q 1159 1113 1420 752 
Q 1681 391 2138 391 
Q 2594 391 2855 752 
Q 3116 1113 3116 1747 
z
M 1159 2969 
Q 1341 3281 1617 3432 
Q 1894 3584 2278 3584 
Q 2916 3584 3314 3078 
Q 3713 2572 3713 1747 
Q 3713 922 3314 415 
Q 2916 -91 2278 -91 
Q 1894 -91 1617 61 
Q 1341 213 1159 525 
L 1159 0 
L 581 0 
L 581 4863 
L 1159 4863 
L 1159 2969 
z
" transform="scale(0.015625)"/>
       <path id="DejaVuSans-61" d="M 2194 1759 
Q 1497 1759 1228 1600 
Q 959 1441 959 1056 
Q 959 750 1161 570 
Q 1363 391 1709 391 
Q 2188 391 2477 730 
Q 2766 1069 2766 1631 
L 2766 1759 
L 2194 1759 
z
M 3341 1997 
L 3341 0 
L 2766 0 
L 2766 531 
Q 2569 213 2275 61 
Q 1981 -91 1556 -91 
Q 1019 -91 701 211 
Q 384 513 384 1019 
Q 384 1609 779 1909 
Q 1175 2209 1959 2209 
L 2766 2209 
L 2766 2266 
Q 2766 2663 2505 2880 
Q 2244 3097 1772 3097 
Q 1472 3097 1187 3025 
Q 903 2953 641 2809 
L 641 3341 
Q 956 3463 1253 3523 
Q 1550 3584 1831 3584 
Q 2591 3584 2966 3190 
Q 3341 2797 3341 1997 
z
" transform="scale(0.015625)"/>
       <path id="DejaVuSans-69" d="M 603 3500 
L 1178 3500 
L 1178 0 
L 603 0 
L 603 3500 
z
M 603 4863 
L 1178 4863 
L 1178 4134 
L 603 4134 
L 603 4863 
z
" transform="scale(0.015625)"/>
       <path id="DejaVuSans-6c" d="M 603 4863 
L 1178 4863 
L 1178 0 
L 603 0 
L 603 4863 
z
" transform="scale(0.015625)"/>
       <path id="DejaVuSans-74" d="M 1172 4494 
L 1172 3500 
L 2356 3500 
L 2356 3053 
L 1172 3053 
L 1172 1153 
Q 1172 725 1289 603 
Q 1406 481 1766 481 
L 2356 481 
L 2356 0 
L 1766 0 
Q 1100 0 847 248 
Q 594 497 594 1153 
L 594 3053 
L 172 3053 
L 172 3500 
L 594 3500 
L 594 4494 
L 1172 4494 
z
" transform="scale(0.015625)"/>
       <path id="DejaVuSans-79" d="M 2059 -325 
Q 1816 -950 1584 -1140 
Q 1353 -1331 966 -1331 
L 506 -1331 
L 506 -850 
L 844 -850 
Q 1081 -850 1212 -737 
Q 1344 -625 1503 -206 
L 1606 56 
L 191 3500 
L 800 3500 
L 1894 763 
L 2988 3500 
L 3597 3500 
L 2059 -325 
z
" transform="scale(0.015625)"/>
       <path id="DejaVuSans-20" transform="scale(0.015625)"/>
       <path id="DejaVuSans-64" d="M 2906 2969 
L 2906 4863 
L 3481 4863 
L 3481 0 
L 2906 0 
L 2906 525 
Q 2725 213 2448 61 
Q 2172 -91 1784 -91 
Q 1150 -91 751 415 
Q 353 922 353 1747 
Q 353 2572 751 3078 
Q 1150 3584 1784 3584 
Q 2172 3584 2448 3432 
Q 2725 3281 2906 2969 
z
M 947 1747 
Q 947 1113 1208 752 
Q 1469 391 1925 391 
Q 2381 391 2643 752 
Q 2906 1113 2906 1747 
Q 2906 2381 2643 2742 
Q 2381 3103 1925 3103 
Q 1469 3103 1208 2742 
Q 947 2381 947 1747 
z
" transform="scale(0.015625)"/>
       <path id="DejaVuSans-65" d="M 3597 1894 
L 3597 1613 
L 953 1613 
Q 991 1019 1311 708 
Q 1631 397 2203 397 
Q 2534 397 2845 478 
Q 3156 559 3463 722 
L 3463 178 
Q 3153 47 2828 -22 
Q 2503 -91 2169 -91 
Q 1331 -91 842 396 
Q 353 884 353 1716 
Q 353 2575 817 3079 
Q 1281 3584 2069 3584 
Q 2775 3584 3186 3129 
Q 3597 2675 3597 1894 
z
M 3022 2063 
Q 3016 2534 2758 2815 
Q 2500 3097 2075 3097 
Q 1594 3097 1305 2825 
Q 1016 2553 972 2059 
L 3022 2063 
z
" transform="scale(0.015625)"/>
       <path id="DejaVuSans-6e" d="M 3513 2113 
L 3513 0 
L 2938 0 
L 2938 2094 
Q 2938 2591 2744 2837 
Q 2550 3084 2163 3084 
Q 1697 3084 1428 2787 
Q 1159 2491 1159 1978 
L 1159 0 
L 581 0 
L 581 3500 
L 1159 3500 
L 1159 2956 
Q 1366 3272 1645 3428 
Q 1925 3584 2291 3584 
Q 2894 3584 3203 3211 
Q 3513 2838 3513 2113 
z
" transform="scale(0.015625)"/>
       <path id="DejaVuSans-73" d="M 2834 3397 
L 2834 2853 
Q 2591 2978 2328 3040 
Q 2066 3103 1784 3103 
Q 1356 3103 1142 2972 
Q 928 2841 928 2578 
Q 928 2378 1081 2264 
Q 1234 2150 1697 2047 
L 1894 2003 
Q 2506 1872 2764 1633 
Q 3022 1394 3022 966 
Q 3022 478 2636 193 
Q 2250 -91 1575 -91 
Q 1294 -91 989 -36 
Q 684 19 347 128 
L 347 722 
Q 666 556 975 473 
Q 1284 391 1588 391 
Q 1994 391 2212 530 
Q 2431 669 2431 922 
Q 2431 1156 2273 1281 
Q 2116 1406 1581 1522 
L 1381 1569 
Q 847 1681 609 1914 
Q 372 2147 372 2553 
Q 372 3047 722 3315 
Q 1072 3584 1716 3584 
Q 2034 3584 2315 3537 
Q 2597 3491 2834 3397 
z
" transform="scale(0.015625)"/>
      </defs>
      <use xlink:href="#DejaVuSans-50"/>
      <use xlink:href="#DejaVuSans-72" x="58.552734"/>
      <use xlink:href="#DejaVuSans-6f" x="97.416016"/>
      <use xlink:href="#DejaVuSans-62" x="158.597656"/>
      <use xlink:href="#DejaVuSans-61" x="222.074219"/>
      <use xlink:href="#DejaVuSans-62" x="283.353516"/>
      <use xlink:href="#DejaVuSans-69" x="346.830078"/>
      <use xlink:href="#DejaVuSans-6c" x="374.613281"/>
      <use xlink:href="#DejaVuSans-69" x="402.396484"/>
      <use xlink:href="#DejaVuSans-74" x="430.179688"/>
      <use xlink:href="#DejaVuSans-79" x="469.388672"/>
      <use xlink:href="#DejaVuSans-20" x="528.568359"/>
      <use xlink:href="#DejaVuSans-64" x="560.355469"/>
      <use xlink:href="#DejaVuSans-65" x="623.832031"/>
      <use xlink:href="#DejaVuSans-6e" x="685.355469"/>
      <use xlink:href="#DejaVuSans-73" x="748.734375"/>
      <use xlink:href="#DejaVuSans-69" x="800.833984"/>
      <use xlink:href="#DejaVuSans-74" x="828.617188"/>
      <use xlink:href="#DejaVuSans-79" x="867.826172"/>
     </g>
    </g>
   </g>
   <g id="line2d_29">
    <path d="M 90 320.4 
L 146.972973 320.307652 
L 148.313514 319.981057 
L 149.654054 319.426948 
L 150.994595 318.653861 
L 152.67027 317.392393 
L 154.345946 315.818164 
L 156.021622 313.947148 
L 158.032432 311.33228 
L 160.043243 308.339323 
L 162.389189 304.404513 
L 164.735135 300.031211 
L 167.416216 294.546962 
L 170.432432 287.825911 
L 173.783784 279.766362 
L 177.47027 270.302393 
L 181.827027 258.486668 
L 187.524324 242.334972 
L 206.627027 187.580538 
L 211.318919 175.077227 
L 215.340541 164.933873 
L 219.027027 156.186122 
L 222.378378 148.747782 
L 225.72973 141.845869 
L 228.745946 136.126779 
L 231.762162 130.902516 
L 234.443243 126.693877 
L 237.124324 122.910785 
L 239.47027 119.960405 
L 241.816216 117.354341 
L 244.162162 115.099663 
L 246.172973 113.451393 
L 248.183784 112.069017 
L 250.194595 110.955251 
L 252.205405 110.112276 
L 254.216216 109.54174 
L 255.891892 109.275226 
L 257.567568 109.199048 
L 259.243243 109.313309 
L 260.918919 109.617856 
L 262.92973 110.23389 
L 264.940541 111.122126 
L 266.951351 112.280826 
L 268.962162 113.707721 
L 270.972973 115.400005 
L 272.983784 117.354341 
L 275.32973 119.960405 
L 277.675676 122.910785 
L 280.021622 126.197423 
L 282.702703 130.353671 
L 285.383784 134.922169 
L 288.4 140.53354 
L 291.416216 146.618937 
L 294.767568 153.900901 
L 298.454054 162.492827 
L 302.475676 172.487408 
L 306.832432 183.943098 
L 311.859459 197.809454 
L 318.562162 217.016499 
L 332.637838 257.555089 
L 337.32973 270.302393 
L 341.351351 280.597485 
L 344.702703 288.599177 
L 347.718919 295.259006 
L 350.4 300.681304 
L 352.745946 304.994411 
L 355.091892 308.86329 
L 357.102703 311.795061 
L 359.113514 314.344336 
L 360.789189 316.15726 
L 362.464865 317.670223 
L 364.140541 318.867199 
L 365.481081 319.586336 
L 366.821622 320.084371 
L 368.162162 320.352741 
L 369.837838 320.4 
L 424.8 320.4 
L 424.8 320.4 
" clip-path="url(#p665a474401)" style="fill: none; stroke: #1f77b4; stroke-width: 1.5; stroke-linecap: square"/>
   </g>
   <g id="line2d_30">
    <path d="M 90 320.4 
L 145.632432 320.4 
L 146.302703 306.80261 
L 146.972973 299.660924 
L 147.978378 292.201467 
L 148.983784 286.387261 
L 150.324324 279.977834 
L 152 273.262321 
L 153.675676 267.478403 
L 155.686486 261.383608 
L 157.697297 255.965396 
L 160.043243 250.29078 
L 162.389189 245.16298 
L 165.07027 239.838665 
L 167.751351 234.983927 
L 170.767568 229.989691 
L 173.783784 225.415302 
L 177.135135 220.754889 
L 180.486486 216.481258 
L 183.837838 212.548419 
L 187.524324 208.573084 
L 191.210811 204.928506 
L 194.897297 201.584245 
L 198.918919 198.249542 
L 202.940541 195.21668 
L 206.962162 192.464192 
L 210.983784 189.974324 
L 215.005405 187.732291 
L 219.362162 185.568788 
L 223.718919 183.668533 
L 228.075676 182.02068 
L 232.432432 180.616303 
L 236.789189 179.448123 
L 241.145946 178.510307 
L 245.502703 177.798309 
L 249.859459 177.30876 
L 254.216216 177.039379 
L 258.572973 176.988926 
L 262.92973 177.157171 
L 267.286486 177.544885 
L 271.643243 178.153863 
L 276 178.986963 
L 280.356757 180.048178 
L 284.713514 181.342728 
L 289.07027 182.877204 
L 293.427027 184.659741 
L 297.783784 186.700262 
L 301.805405 188.823153 
L 305.827027 191.187417 
L 309.848649 193.806576 
L 313.87027 196.69682 
L 317.891892 199.877651 
L 321.578378 203.068828 
L 325.264865 206.546224 
L 328.951351 210.336966 
L 332.302703 214.083153 
L 335.654054 218.147499 
L 339.005405 222.569648 
L 342.021622 226.897369 
L 345.037838 231.604411 
L 348.054054 236.754787 
L 350.735135 241.775314 
L 353.416216 247.301313 
L 355.762162 252.648092 
L 358.108108 258.601571 
L 360.118919 264.333215 
L 361.794595 269.701731 
L 363.47027 275.814464 
L 364.810811 281.473958 
L 366.151351 288.202675 
L 367.156757 294.441464 
L 367.827027 299.660924 
L 368.497297 306.80261 
L 368.832432 312.543638 
L 369.167568 320.4 
L 424.8 320.4 
L 424.8 320.4 
" clip-path="url(#p665a474401)" style="fill: none; stroke: #ff7f0e; stroke-width: 1.5; stroke-linecap: square"/>
   </g>
   <g id="line2d_31">
    <path d="M 90 320.4 
L 153.675676 320.304719 
L 157.027027 320.030457 
L 159.708108 319.572886 
L 162.054054 318.925115 
L 164.064865 318.138403 
L 166.075676 317.098424 
L 168.086486 315.768874 
L 169.762162 314.414852 
L 171.437838 312.817293 
L 173.113514 310.959135 
L 175.124324 308.363813 
L 177.135135 305.348088 
L 179.145946 301.893033 
L 181.156757 297.984131 
L 183.167568 293.611466 
L 185.513514 287.917222 
L 187.859459 281.584877 
L 190.205405 274.6233 
L 192.886486 265.919705 
L 195.567568 256.457368 
L 198.583784 244.972566 
L 201.935135 231.282464 
L 205.621622 215.277753 
L 210.313514 193.854664 
L 226.4 119.351029 
L 230.086486 103.882317 
L 233.102703 92.135897 
L 235.783784 82.513955 
L 238.12973 74.808213 
L 240.475676 67.831866 
L 242.486486 62.474448 
L 244.497297 57.724394 
L 246.172973 54.249984 
L 247.848649 51.230611 
L 249.524324 48.678487 
L 250.864865 46.980213 
L 252.205405 45.592031 
L 253.545946 44.517541 
L 254.886486 43.759532 
L 256.227027 43.319971 
L 257.232432 43.2 
L 258.237838 43.25999 
L 259.243243 43.499855 
L 260.248649 43.919242 
L 261.589189 44.756588 
L 262.92973 45.909795 
L 264.27027 47.375869 
L 265.610811 49.151008 
L 267.286486 51.79747 
L 268.962162 54.908886 
L 270.637838 58.472677 
L 272.648649 63.32597 
L 274.659459 68.781686 
L 277.005405 75.865728 
L 279.351351 83.670859 
L 282.032432 93.395261 
L 285.048649 105.241599 
L 288.4 119.351029 
L 292.421622 137.29495 
L 298.118919 163.861809 
L 307.837838 209.257372 
L 312.194595 228.439972 
L 315.881081 243.64538 
L 318.897297 255.223753 
L 321.913514 265.919705 
L 324.594595 274.6233 
L 327.275676 282.528324 
L 329.621622 288.769849 
L 331.967568 294.372729 
L 333.978378 298.667611 
L 335.989189 302.500057 
L 338 305.88076 
L 340.010811 308.824988 
L 342.021622 311.352379 
L 344.032432 313.486669 
L 346.043243 315.255334 
L 348.054054 316.689158 
L 350.064865 317.821709 
L 352.075676 318.68872 
L 354.086486 319.327375 
L 356.432432 319.834296 
L 359.113514 320.17211 
L 362.464865 320.353692 
L 368.497297 320.399998 
L 424.8 320.4 
L 424.8 320.4 
" clip-path="url(#p665a474401)" style="fill: none; stroke: #2ca02c; stroke-width: 1.5; stroke-linecap: square"/>
   </g>
   <g id="line2d_32">
    <path d="M 90 320.4 
L 154.010811 320.291975 
L 158.367568 320.020485 
L 162.389189 319.543794 
L 165.740541 318.937111 
L 169.091892 318.10705 
L 172.108108 317.145783 
L 175.124324 315.962308 
L 178.140541 314.539896 
L 181.156757 312.863623 
L 184.172973 310.920365 
L 187.189189 308.698804 
L 190.205405 306.189424 
L 193.221622 303.38451 
L 196.237838 300.278155 
L 199.254054 296.866249 
L 202.605405 292.714141 
L 205.956757 288.181461 
L 209.308108 283.270407 
L 212.659459 277.985926 
L 216.345946 271.750955 
L 220.032432 265.087588 
L 224.054054 257.351261 
L 228.410811 248.453052 
L 233.102703 238.318803 
L 238.12973 226.899166 
L 243.827027 213.37189 
L 250.864865 196.034078 
L 272.313514 142.684085 
L 277.340541 131.03228 
L 281.697297 121.511377 
L 285.383784 113.983122 
L 288.735135 107.638883 
L 291.751351 102.395707 
L 294.432432 98.150637 
L 297.113514 94.33663 
L 299.459459 91.384035 
L 301.805405 88.818923 
L 303.816216 86.949755 
L 305.827027 85.403649 
L 307.502703 84.375189 
L 309.178378 83.594537 
L 310.854054 83.072633 
L 312.52973 82.820591 
L 313.87027 82.820835 
L 315.210811 83.006866 
L 316.551351 83.384611 
L 317.891892 83.960069 
L 319.232432 84.739305 
L 320.908108 86.009275 
L 322.583784 87.61939 
L 324.259459 89.581965 
L 325.935135 91.909488 
L 327.610811 94.614617 
L 329.286486 97.710183 
L 331.297297 101.958558 
L 333.308108 106.810688 
L 335.318919 112.289723 
L 337.32973 118.419171 
L 339.340541 125.222894 
L 341.351351 132.725111 
L 343.697297 142.393322 
L 346.043243 153.085362 
L 348.389189 164.841528 
L 350.735135 177.702776 
L 353.081081 191.710724 
L 355.762162 209.17819 
L 358.443243 228.262787 
L 361.124324 249.029803 
L 363.805405 271.54565 
L 366.486486 295.877867 
L 369.167568 320.4 
L 424.8 320.4 
L 424.8 320.4 
" clip-path="url(#p665a474401)" style="fill: none; stroke: #d62728; stroke-width: 1.5; stroke-linecap: square"/>
   </g>
   <g id="patch_3">
    <path d="M 90 320.4 
L 90 43.2 
" style="fill: none; stroke: #000000; stroke-width: 0.8; stroke-linejoin: miter; stroke-linecap: square"/>
   </g>
   <g id="patch_4">
    <path d="M 424.8 320.4 
L 424.8 43.2 
" style="fill: none; stroke: #000000; stroke-width: 0.8; stroke-linejoin: miter; stroke-linecap: square"/>
   </g>
   <g id="patch_5">
    <path d="M 90 320.4 
L 424.8 320.4 
" style="fill: none; stroke: #000000; stroke-width: 0.8; stroke-linejoin: miter; stroke-linecap: square"/>
   </g>
   <g id="patch_6">
    <path d="M 90 43.2 
L 424.8 43.2 
" style="fill: none; stroke: #000000; stroke-width: 0.8; stroke-linejoin: miter; stroke-linecap: square"/>
   </g>
   <g id="text_17">
    <!-- PERT Distribution -->
    <g transform="translate(205.682812 37.2) scale(0.12 -0.12)">
     <defs>
      <path id="DejaVuSans-45" d="M 628 4666 
L 3578 4666 
L 3578 4134 
L 1259 4134 
L 1259 2753 
L 3481 2753 
L 3481 2222 
L 1259 2222 
L 1259 531 
L 3634 531 
L 3634 0 
L 628 0 
L 628 4666 
z
" transform="scale(0.015625)"/>
      <path id="DejaVuSans-52" d="M 2841 2188 
Q 3044 2119 3236 1894 
Q 3428 1669 3622 1275 
L 4263 0 
L 3584 0 
L 2988 1197 
Q 2756 1666 2539 1819 
Q 2322 1972 1947 1972 
L 1259 1972 
L 1259 0 
L 628 0 
L 628 4666 
L 2053 4666 
Q 2853 4666 3247 4331 
Q 3641 3997 3641 3322 
Q 3641 2881 3436 2590 
Q 3231 2300 2841 2188 
z
M 1259 4147 
L 1259 2491 
L 2053 2491 
Q 2509 2491 2742 2702 
Q 2975 2913 2975 3322 
Q 2975 3731 2742 3939 
Q 2509 4147 2053 4147 
L 1259 4147 
z
" transform="scale(0.015625)"/>
      <path id="DejaVuSans-54" d="M -19 4666 
L 3928 4666 
L 3928 4134 
L 2272 4134 
L 2272 0 
L 1638 0 
L 1638 4134 
L -19 4134 
L -19 4666 
z
" transform="scale(0.015625)"/>
      <path id="DejaVuSans-44" d="M 1259 4147 
L 1259 519 
L 2022 519 
Q 2988 519 3436 956 
Q 3884 1394 3884 2338 
Q 3884 3275 3436 3711 
Q 2988 4147 2022 4147 
L 1259 4147 
z
M 628 4666 
L 1925 4666 
Q 3281 4666 3915 4102 
Q 4550 3538 4550 2338 
Q 4550 1131 3912 565 
Q 3275 0 1925 0 
L 628 0 
L 628 4666 
z
" transform="scale(0.015625)"/>
      <path id="DejaVuSans-75" d="M 544 1381 
L 544 3500 
L 1119 3500 
L 1119 1403 
Q 1119 906 1312 657 
Q 1506 409 1894 409 
Q 2359 409 2629 706 
Q 2900 1003 2900 1516 
L 2900 3500 
L 3475 3500 
L 3475 0 
L 2900 0 
L 2900 538 
Q 2691 219 2414 64 
Q 2138 -91 1772 -91 
Q 1169 -91 856 284 
Q 544 659 544 1381 
z
M 1991 3584 
L 1991 3584 
z
" transform="scale(0.015625)"/>
     </defs>
     <use xlink:href="#DejaVuSans-50"/>
     <use xlink:href="#DejaVuSans-45" x="60.302734"/>
     <use xlink:href="#DejaVuSans-52" x="123.486328"/>
     <use xlink:href="#DejaVuSans-54" x="185.71875"/>
     <use xlink:href="#DejaVuSans-20" x="246.802734"/>
     <use xlink:href="#DejaVuSans-44" x="278.589844"/>
     <use xlink:href="#DejaVuSans-69" x="355.591797"/>
     <use xlink:href="#DejaVuSans-73" x="383.375"/>
     <use xlink:href="#DejaVuSans-74" x="435.474609"/>
     <use xlink:href="#DejaVuSans-72" x="474.683594"/>
     <use xlink:href="#DejaVuSans-69" x="515.796875"/>
     <use xlink:href="#DejaVuSans-62" x="543.580078"/>
     <use xlink:href="#DejaVuSans-75" x="607.056641"/>
     <use xlink:href="#DejaVuSans-74" x="670.435547"/>
     <use xlink:href="#DejaVuSans-69" x="709.644531"/>
     <use xlink:href="#DejaVuSans-6f" x="737.427734"/>
     <use xlink:href="#DejaVuSans-6e" x="798.609375"/>
    </g>
   </g>
   <g id="legend_1">
    <g id="patch_7">
     <path d="M 431.8 220.7925 
L 679.592187 220.7925 
Q 681.592187 220.7925 681.592187 218.7925 
L 681.592187 161.08 
Q 681.592187 159.08 679.592187 159.08 
L 431.8 159.08 
Q 429.8 159.08 429.8 161.08 
L 429.8 218.7925 
Q 429.8 220.7925 431.8 220.7925 
z
" style="fill: #ffffff; opacity: 0.8; stroke: #cccccc; stroke-linejoin: miter"/>
    </g>
    <g id="line2d_33">
     <path d="M 433.8 167.178437 
L 443.8 167.178437 
L 453.8 167.178437 
" style="fill: none; stroke: #1f77b4; stroke-width: 1.5; stroke-linecap: square"/>
    </g>
    <g id="text_18">
     <!-- min = -1, mode = 0, max = 1, shape = 4 -->
     <g transform="translate(461.8 170.678437) scale(0.1 -0.1)">
      <defs>
       <path id="DejaVuSans-6d" d="M 3328 2828 
Q 3544 3216 3844 3400 
Q 4144 3584 4550 3584 
Q 5097 3584 5394 3201 
Q 5691 2819 5691 2113 
L 5691 0 
L 5113 0 
L 5113 2094 
Q 5113 2597 4934 2840 
Q 4756 3084 4391 3084 
Q 3944 3084 3684 2787 
Q 3425 2491 3425 1978 
L 3425 0 
L 2847 0 
L 2847 2094 
Q 2847 2600 2669 2842 
Q 2491 3084 2119 3084 
Q 1678 3084 1418 2786 
Q 1159 2488 1159 1978 
L 1159 0 
L 581 0 
L 581 3500 
L 1159 3500 
L 1159 2956 
Q 1356 3278 1631 3431 
Q 1906 3584 2284 3584 
Q 2666 3584 2933 3390 
Q 3200 3197 3328 2828 
z
" transform="scale(0.015625)"/>
       <path id="DejaVuSans-3d" d="M 678 2906 
L 4684 2906 
L 4684 2381 
L 678 2381 
L 678 2906 
z
M 678 1631 
L 4684 1631 
L 4684 1100 
L 678 1100 
L 678 1631 
z
" transform="scale(0.015625)"/>
       <path id="DejaVuSans-2d" d="M 313 2009 
L 1997 2009 
L 1997 1497 
L 313 1497 
L 313 2009 
z
" transform="scale(0.015625)"/>
       <path id="DejaVuSans-2c" d="M 750 794 
L 1409 794 
L 1409 256 
L 897 -744 
L 494 -744 
L 750 256 
L 750 794 
z
" transform="scale(0.015625)"/>
       <path id="DejaVuSans-68" d="M 3513 2113 
L 3513 0 
L 2938 0 
L 2938 2094 
Q 2938 2591 2744 2837 
Q 2550 3084 2163 3084 
Q 1697 3084 1428 2787 
Q 1159 2491 1159 1978 
L 1159 0 
L 581 0 
L 581 4863 
L 1159 4863 
L 1159 2956 
Q 1366 3272 1645 3428 
Q 1925 3584 2291 3584 
Q 2894 3584 3203 3211 
Q 3513 2838 3513 2113 
z
" transform="scale(0.015625)"/>
       <path id="DejaVuSans-70" d="M 1159 525 
L 1159 -1331 
L 581 -1331 
L 581 3500 
L 1159 3500 
L 1159 2969 
Q 1341 3281 1617 3432 
Q 1894 3584 2278 3584 
Q 2916 3584 3314 3078 
Q 3713 2572 3713 1747 
Q 3713 922 3314 415 
Q 2916 -91 2278 -91 
Q 1894 -91 1617 61 
Q 1341 213 1159 525 
z
M 3116 1747 
Q 3116 2381 2855 2742 
Q 2594 3103 2138 3103 
Q 1681 3103 1420 2742 
Q 1159 2381 1159 1747 
Q 1159 1113 1420 752 
Q 1681 391 2138 391 
Q 2594 391 2855 752 
Q 3116 1113 3116 1747 
z
" transform="scale(0.015625)"/>
      </defs>
      <use xlink:href="#DejaVuSans-6d"/>
      <use xlink:href="#DejaVuSans-69" x="97.412109"/>
      <use xlink:href="#DejaVuSans-6e" x="125.195312"/>
      <use xlink:href="#DejaVuSans-20" x="188.574219"/>
      <use xlink:href="#DejaVuSans-3d" x="220.361328"/>
      <use xlink:href="#DejaVuSans-20" x="304.150391"/>
      <use xlink:href="#DejaVuSans-2d" x="335.9375"/>
      <use xlink:href="#DejaVuSans-31" x="372.021484"/>
      <use xlink:href="#DejaVuSans-2c" x="435.644531"/>
      <use xlink:href="#DejaVuSans-20" x="467.431641"/>
      <use xlink:href="#DejaVuSans-6d" x="499.21875"/>
      <use xlink:href="#DejaVuSans-6f" x="596.630859"/>
      <use xlink:href="#DejaVuSans-64" x="657.8125"/>
      <use xlink:href="#DejaVuSans-65" x="721.289062"/>
      <use xlink:href="#DejaVuSans-20" x="782.8125"/>
      <use xlink:href="#DejaVuSans-3d" x="814.599609"/>
      <use xlink:href="#DejaVuSans-20" x="898.388672"/>
      <use xlink:href="#DejaVuSans-30" x="930.175781"/>
      <use xlink:href="#DejaVuSans-2c" x="993.798828"/>
      <use xlink:href="#DejaVuSans-20" x="1025.585938"/>
      <use xlink:href="#DejaVuSans-6d" x="1057.373047"/>
      <use xlink:href="#DejaVuSans-61" x="1154.785156"/>
      <use xlink:href="#DejaVuSans-78" x="1216.064453"/>
      <use xlink:href="#DejaVuSans-20" x="1275.244141"/>
      <use xlink:href="#DejaVuSans-3d" x="1307.03125"/>
      <use xlink:href="#DejaVuSans-20" x="1390.820312"/>
      <use xlink:href="#DejaVuSans-31" x="1422.607422"/>
      <use xlink:href="#DejaVuSans-2c" x="1486.230469"/>
      <use xlink:href="#DejaVuSans-20" x="1518.017578"/>
      <use xlink:href="#DejaVuSans-73" x="1549.804688"/>
      <use xlink:href="#DejaVuSans-68" x="1601.904297"/>
      <use xlink:href="#DejaVuSans-61" x="1665.283203"/>
      <use xlink:href="#DejaVuSans-70" x="1726.5625"/>
      <use xlink:href="#DejaVuSans-65" x="1790.039062"/>
      <use xlink:href="#DejaVuSans-20" x="1851.5625"/>
      <use xlink:href="#DejaVuSans-3d" x="1883.349609"/>
      <use xlink:href="#DejaVuSans-20" x="1967.138672"/>
      <use xlink:href="#DejaVuSans-34" x="1998.925781"/>
     </g>
    </g>
    <g id="line2d_34">
     <path d="M 433.8 181.856562 
L 443.8 181.856562 
L 453.8 181.856562 
" style="fill: none; stroke: #ff7f0e; stroke-width: 1.5; stroke-linecap: square"/>
    </g>
    <g id="text_19">
     <!-- min = -1, mode = 0, max = 1, shape = 1 -->
     <g transform="translate(461.8 185.356562) scale(0.1 -0.1)">
      <use xlink:href="#DejaVuSans-6d"/>
      <use xlink:href="#DejaVuSans-69" x="97.412109"/>
      <use xlink:href="#DejaVuSans-6e" x="125.195312"/>
      <use xlink:href="#DejaVuSans-20" x="188.574219"/>
      <use xlink:href="#DejaVuSans-3d" x="220.361328"/>
      <use xlink:href="#DejaVuSans-20" x="304.150391"/>
      <use xlink:href="#DejaVuSans-2d" x="335.9375"/>
      <use xlink:href="#DejaVuSans-31" x="372.021484"/>
      <use xlink:href="#DejaVuSans-2c" x="435.644531"/>
      <use xlink:href="#DejaVuSans-20" x="467.431641"/>
      <use xlink:href="#DejaVuSans-6d" x="499.21875"/>
      <use xlink:href="#DejaVuSans-6f" x="596.630859"/>
      <use xlink:href="#DejaVuSans-64" x="657.8125"/>
      <use xlink:href="#DejaVuSans-65" x="721.289062"/>
      <use xlink:href="#DejaVuSans-20" x="782.8125"/>
      <use xlink:href="#DejaVuSans-3d" x="814.599609"/>
      <use xlink:href="#DejaVuSans-20" x="898.388672"/>
      <use xlink:href="#DejaVuSans-30" x="930.175781"/>
      <use xlink:href="#DejaVuSans-2c" x="993.798828"/>
      <use xlink:href="#DejaVuSans-20" x="1025.585938"/>
      <use xlink:href="#DejaVuSans-6d" x="1057.373047"/>
      <use xlink:href="#DejaVuSans-61" x="1154.785156"/>
      <use xlink:href="#DejaVuSans-78" x="1216.064453"/>
      <use xlink:href="#DejaVuSans-20" x="1275.244141"/>
      <use xlink:href="#DejaVuSans-3d" x="1307.03125"/>
      <use xlink:href="#DejaVuSans-20" x="1390.820312"/>
      <use xlink:href="#DejaVuSans-31" x="1422.607422"/>
      <use xlink:href="#DejaVuSans-2c" x="1486.230469"/>
      <use xlink:href="#DejaVuSans-20" x="1518.017578"/>
      <use xlink:href="#DejaVuSans-73" x="1549.804688"/>
      <use xlink:href="#DejaVuSans-68" x="1601.904297"/>
      <use xlink:href="#DejaVuSans-61" x="1665.283203"/>
      <use xlink:href="#DejaVuSans-70" x="1726.5625"/>
      <use xlink:href="#DejaVuSans-65" x="1790.039062"/>
      <use xlink:href="#DejaVuSans-20" x="1851.5625"/>
      <use xlink:href="#DejaVuSans-3d" x="1883.349609"/>
      <use xlink:href="#DejaVuSans-20" x="1967.138672"/>
      <use xlink:href="#DejaVuSans-31" x="1998.925781"/>
     </g>
    </g>
    <g id="line2d_35">
     <path d="M 433.8 196.534687 
L 443.8 196.534687 
L 453.8 196.534687 
" style="fill: none; stroke: #2ca02c; stroke-width: 1.5; stroke-linecap: square"/>
    </g>
    <g id="text_20">
     <!-- min = -1, mode = 0, max = 1, shape = 8 -->
     <g transform="translate(461.8 200.034687) scale(0.1 -0.1)">
      <use xlink:href="#DejaVuSans-6d"/>
      <use xlink:href="#DejaVuSans-69" x="97.412109"/>
      <use xlink:href="#DejaVuSans-6e" x="125.195312"/>
      <use xlink:href="#DejaVuSans-20" x="188.574219"/>
      <use xlink:href="#DejaVuSans-3d" x="220.361328"/>
      <use xlink:href="#DejaVuSans-20" x="304.150391"/>
      <use xlink:href="#DejaVuSans-2d" x="335.9375"/>
      <use xlink:href="#DejaVuSans-31" x="372.021484"/>
      <use xlink:href="#DejaVuSans-2c" x="435.644531"/>
      <use xlink:href="#DejaVuSans-20" x="467.431641"/>
      <use xlink:href="#DejaVuSans-6d" x="499.21875"/>
      <use xlink:href="#DejaVuSans-6f" x="596.630859"/>
      <use xlink:href="#DejaVuSans-64" x="657.8125"/>
      <use xlink:href="#DejaVuSans-65" x="721.289062"/>
      <use xlink:href="#DejaVuSans-20" x="782.8125"/>
      <use xlink:href="#DejaVuSans-3d" x="814.599609"/>
      <use xlink:href="#DejaVuSans-20" x="898.388672"/>
      <use xlink:href="#DejaVuSans-30" x="930.175781"/>
      <use xlink:href="#DejaVuSans-2c" x="993.798828"/>
      <use xlink:href="#DejaVuSans-20" x="1025.585938"/>
      <use xlink:href="#DejaVuSans-6d" x="1057.373047"/>
      <use xlink:href="#DejaVuSans-61" x="1154.785156"/>
      <use xlink:href="#DejaVuSans-78" x="1216.064453"/>
      <use xlink:href="#DejaVuSans-20" x="1275.244141"/>
      <use xlink:href="#DejaVuSans-3d" x="1307.03125"/>
      <use xlink:href="#DejaVuSans-20" x="1390.820312"/>
      <use xlink:href="#DejaVuSans-31" x="1422.607422"/>
      <use xlink:href="#DejaVuSans-2c" x="1486.230469"/>
      <use xlink:href="#DejaVuSans-20" x="1518.017578"/>
      <use xlink:href="#DejaVuSans-73" x="1549.804688"/>
      <use xlink:href="#DejaVuSans-68" x="1601.904297"/>
      <use xlink:href="#DejaVuSans-61" x="1665.283203"/>
      <use xlink:href="#DejaVuSans-70" x="1726.5625"/>
      <use xlink:href="#DejaVuSans-65" x="1790.039062"/>
      <use xlink:href="#DejaVuSans-20" x="1851.5625"/>
      <use xlink:href="#DejaVuSans-3d" x="1883.349609"/>
      <use xlink:href="#DejaVuSans-20" x="1967.138672"/>
      <use xlink:href="#DejaVuSans-38" x="1998.925781"/>
     </g>
    </g>
    <g id="line2d_36">
     <path d="M 433.8 211.212812 
L 443.8 211.212812 
L 453.8 211.212812 
" style="fill: none; stroke: #d62728; stroke-width: 1.5; stroke-linecap: square"/>
    </g>
    <g id="text_21">
     <!-- min = -1, mode = 0.5, max = 1, shape = 4 -->
     <g transform="translate(461.8 214.712812) scale(0.1 -0.1)">
      <use xlink:href="#DejaVuSans-6d"/>
      <use xlink:href="#DejaVuSans-69" x="97.412109"/>
      <use xlink:href="#DejaVuSans-6e" x="125.195312"/>
      <use xlink:href="#DejaVuSans-20" x="188.574219"/>
      <use xlink:href="#DejaVuSans-3d" x="220.361328"/>
      <use xlink:href="#DejaVuSans-20" x="304.150391"/>
      <use xlink:href="#DejaVuSans-2d" x="335.9375"/>
      <use xlink:href="#DejaVuSans-31" x="372.021484"/>
      <use xlink:href="#DejaVuSans-2c" x="435.644531"/>
      <use xlink:href="#DejaVuSans-20" x="467.431641"/>
      <use xlink:href="#DejaVuSans-6d" x="499.21875"/>
      <use xlink:href="#DejaVuSans-6f" x="596.630859"/>
      <use xlink:href="#DejaVuSans-64" x="657.8125"/>
      <use xlink:href="#DejaVuSans-65" x="721.289062"/>
      <use xlink:href="#DejaVuSans-20" x="782.8125"/>
      <use xlink:href="#DejaVuSans-3d" x="814.599609"/>
      <use xlink:href="#DejaVuSans-20" x="898.388672"/>
      <use xlink:href="#DejaVuSans-30" x="930.175781"/>
      <use xlink:href="#DejaVuSans-2e" x="993.798828"/>
      <use xlink:href="#DejaVuSans-35" x="1025.585938"/>
      <use xlink:href="#DejaVuSans-2c" x="1089.208984"/>
      <use xlink:href="#DejaVuSans-20" x="1120.996094"/>
      <use xlink:href="#DejaVuSans-6d" x="1152.783203"/>
      <use xlink:href="#DejaVuSans-61" x="1250.195312"/>
      <use xlink:href="#DejaVuSans-78" x="1311.474609"/>
      <use xlink:href="#DejaVuSans-20" x="1370.654297"/>
      <use xlink:href="#DejaVuSans-3d" x="1402.441406"/>
      <use xlink:href="#DejaVuSans-20" x="1486.230469"/>
      <use xlink:href="#DejaVuSans-31" x="1518.017578"/>
      <use xlink:href="#DejaVuSans-2c" x="1581.640625"/>
      <use xlink:href="#DejaVuSans-20" x="1613.427734"/>
      <use xlink:href="#DejaVuSans-73" x="1645.214844"/>
      <use xlink:href="#DejaVuSans-68" x="1697.314453"/>
      <use xlink:href="#DejaVuSans-61" x="1760.693359"/>
      <use xlink:href="#DejaVuSans-70" x="1821.972656"/>
      <use xlink:href="#DejaVuSans-65" x="1885.449219"/>
      <use xlink:href="#DejaVuSans-20" x="1946.972656"/>
      <use xlink:href="#DejaVuSans-3d" x="1978.759766"/>
      <use xlink:href="#DejaVuSans-20" x="2062.548828"/>
      <use xlink:href="#DejaVuSans-34" x="2094.335938"/>
     </g>
    </g>
   </g>
  </g>
 </g>
 <defs>
  <clipPath id="p665a474401">
   <rect x="90" y="43.2" width="334.8" height="277.2"/>
  </clipPath>
 </defs>
</svg>
