<?xml version="1.0" encoding="utf-8" standalone="no"?>
<!DOCTYPE svg PUBLIC "-//W3C//DTD SVG 1.1//EN"
  "http://www.w3.org/Graphics/SVG/1.1/DTD/svg11.dtd">
<svg xmlns:xlink="http://www.w3.org/1999/xlink" width="720pt" height="360pt" viewBox="0 0 720 360" xmlns="http://www.w3.org/2000/svg" version="1.1">
 <metadata>
  <rdf:RDF xmlns:dc="http://purl.org/dc/elements/1.1/" xmlns:cc="http://creativecommons.org/ns#" xmlns:rdf="http://www.w3.org/1999/02/22-rdf-syntax-ns#">
   <cc:Work>
    <dc:type rdf:resource="http://purl.org/dc/dcmitype/StillImage"/>
    <dc:date>2024-05-03T20:15:45.554920</dc:date>
    <dc:format>image/svg+xml</dc:format>
    <dc:creator>
     <cc:Agent>
      <dc:title>Matplotlib v3.8.4, https://matplotlib.org/</dc:title>
     </cc:Agent>
    </dc:creator>
   </cc:Work>
  </rdf:RDF>
 </metadata>
 <defs>
  <style type="text/css">*{stroke-linejoin: round; stroke-linecap: butt}</style>
 </defs>
 <g id="figure_1">
  <g id="patch_1">
   <path d="M 0 360 
L 720 360 
L 720 0 
L 0 0 
z
" style="fill: #ffffff"/>
  </g>
  <g id="axes_1">
   <g id="patch_2">
    <path d="M 90 320.4 
L 424.8 320.4 
L 424.8 43.2 
L 90 43.2 
z
" style="fill: #ffffff"/>
   </g>
   <g id="matplotlib.axis_1">
    <g id="xtick_1">
     <g id="line2d_1">
      <path d="M 90 320.4 
L 90 43.2 
" clip-path="url(#p41675c6eda)" style="fill: none; stroke: #b0b0b0; stroke-width: 0.8; stroke-linecap: square"/>
     </g>
     <g id="line2d_2">
      <defs>
       <path id="m1ff936c5df" d="M 0 0 
L 0 3.5 
" style="stroke: #000000; stroke-width: 0.8"/>
      </defs>
      <g>
       <use xlink:href="#m1ff936c5df" x="90" y="320.4" style="stroke: #000000; stroke-width: 0.8"/>
      </g>
     </g>
     <g id="text_1">
      <!-- −1.5 -->
      <g transform="translate(77.858594 334.998438) scale(0.1 -0.1)">
       <defs>
        <path id="DejaVuSans-2212" d="M 678 2272 
L 4684 2272 
L 4684 1741 
L 678 1741 
L 678 2272 
z
" transform="scale(0.015625)"/>
        <path id="DejaVuSans-31" d="M 794 531 
L 1825 531 
L 1825 4091 
L 703 3866 
L 703 4441 
L 1819 4666 
L 2450 4666 
L 2450 531 
L 3481 531 
L 3481 0 
L 794 0 
L 794 531 
z
" transform="scale(0.015625)"/>
        <path id="DejaVuSans-2e" d="M 684 794 
L 1344 794 
L 1344 0 
L 684 0 
L 684 794 
z
" transform="scale(0.015625)"/>
        <path id="DejaVuSans-35" d="M 691 4666 
L 3169 4666 
L 3169 4134 
L 1269 4134 
L 1269 2991 
Q 1406 3038 1543 3061 
Q 1681 3084 1819 3084 
Q 2600 3084 3056 2656 
Q 3513 2228 3513 1497 
Q 3513 744 3044 326 
Q 2575 -91 1722 -91 
Q 1428 -91 1123 -41 
Q 819 9 494 109 
L 494 744 
Q 775 591 1075 516 
Q 1375 441 1709 441 
Q 2250 441 2565 725 
Q 2881 1009 2881 1497 
Q 2881 1984 2565 2268 
Q 2250 2553 1709 2553 
Q 1456 2553 1204 2497 
Q 953 2441 691 2322 
L 691 4666 
z
" transform="scale(0.015625)"/>
       </defs>
       <use xlink:href="#DejaVuSans-2212"/>
       <use xlink:href="#DejaVuSans-31" x="83.789062"/>
       <use xlink:href="#DejaVuSans-2e" x="147.412109"/>
       <use xlink:href="#DejaVuSans-35" x="179.199219"/>
      </g>
     </g>
    </g>
    <g id="xtick_2">
     <g id="line2d_3">
      <path d="M 145.8 320.4 
L 145.8 43.2 
" clip-path="url(#p41675c6eda)" style="fill: none; stroke: #b0b0b0; stroke-width: 0.8; stroke-linecap: square"/>
     </g>
     <g id="line2d_4">
      <g>
       <use xlink:href="#m1ff936c5df" x="145.8" y="320.4" style="stroke: #000000; stroke-width: 0.8"/>
      </g>
     </g>
     <g id="text_2">
      <!-- −1.0 -->
      <g transform="translate(133.658594 334.998438) scale(0.1 -0.1)">
       <defs>
        <path id="DejaVuSans-30" d="M 2034 4250 
Q 1547 4250 1301 3770 
Q 1056 3291 1056 2328 
Q 1056 1369 1301 889 
Q 1547 409 2034 409 
Q 2525 409 2770 889 
Q 3016 1369 3016 2328 
Q 3016 3291 2770 3770 
Q 2525 4250 2034 4250 
z
M 2034 4750 
Q 2819 4750 3233 4129 
Q 3647 3509 3647 2328 
Q 3647 1150 3233 529 
Q 2819 -91 2034 -91 
Q 1250 -91 836 529 
Q 422 1150 422 2328 
Q 422 3509 836 4129 
Q 1250 4750 2034 4750 
z
" transform="scale(0.015625)"/>
       </defs>
       <use xlink:href="#DejaVuSans-2212"/>
       <use xlink:href="#DejaVuSans-31" x="83.789062"/>
       <use xlink:href="#DejaVuSans-2e" x="147.412109"/>
       <use xlink:href="#DejaVuSans-30" x="179.199219"/>
      </g>
     </g>
    </g>
    <g id="xtick_3">
     <g id="line2d_5">
      <path d="M 201.6 320.4 
L 201.6 43.2 
" clip-path="url(#p41675c6eda)" style="fill: none; stroke: #b0b0b0; stroke-width: 0.8; stroke-linecap: square"/>
     </g>
     <g id="line2d_6">
      <g>
       <use xlink:href="#m1ff936c5df" x="201.6" y="320.4" style="stroke: #000000; stroke-width: 0.8"/>
      </g>
     </g>
     <g id="text_3">
      <!-- −0.5 -->
      <g transform="translate(189.458594 334.998438) scale(0.1 -0.1)">
       <use xlink:href="#DejaVuSans-2212"/>
       <use xlink:href="#DejaVuSans-30" x="83.789062"/>
       <use xlink:href="#DejaVuSans-2e" x="147.412109"/>
       <use xlink:href="#DejaVuSans-35" x="179.199219"/>
      </g>
     </g>
    </g>
    <g id="xtick_4">
     <g id="line2d_7">
      <path d="M 257.4 320.4 
L 257.4 43.2 
" clip-path="url(#p41675c6eda)" style="fill: none; stroke: #b0b0b0; stroke-width: 0.8; stroke-linecap: square"/>
     </g>
     <g id="line2d_8">
      <g>
       <use xlink:href="#m1ff936c5df" x="257.4" y="320.4" style="stroke: #000000; stroke-width: 0.8"/>
      </g>
     </g>
     <g id="text_4">
      <!-- 0.0 -->
      <g transform="translate(249.448437 334.998438) scale(0.1 -0.1)">
       <use xlink:href="#DejaVuSans-30"/>
       <use xlink:href="#DejaVuSans-2e" x="63.623047"/>
       <use xlink:href="#DejaVuSans-30" x="95.410156"/>
      </g>
     </g>
    </g>
    <g id="xtick_5">
     <g id="line2d_9">
      <path d="M 313.2 320.4 
L 313.2 43.2 
" clip-path="url(#p41675c6eda)" style="fill: none; stroke: #b0b0b0; stroke-width: 0.8; stroke-linecap: square"/>
     </g>
     <g id="line2d_10">
      <g>
       <use xlink:href="#m1ff936c5df" x="313.2" y="320.4" style="stroke: #000000; stroke-width: 0.8"/>
      </g>
     </g>
     <g id="text_5">
      <!-- 0.5 -->
      <g transform="translate(305.248437 334.998438) scale(0.1 -0.1)">
       <use xlink:href="#DejaVuSans-30"/>
       <use xlink:href="#DejaVuSans-2e" x="63.623047"/>
       <use xlink:href="#DejaVuSans-35" x="95.410156"/>
      </g>
     </g>
    </g>
    <g id="xtick_6">
     <g id="line2d_11">
      <path d="M 369 320.4 
L 369 43.2 
" clip-path="url(#p41675c6eda)" style="fill: none; stroke: #b0b0b0; stroke-width: 0.8; stroke-linecap: square"/>
     </g>
     <g id="line2d_12">
      <g>
       <use xlink:href="#m1ff936c5df" x="369" y="320.4" style="stroke: #000000; stroke-width: 0.8"/>
      </g>
     </g>
     <g id="text_6">
      <!-- 1.0 -->
      <g transform="translate(361.048437 334.998438) scale(0.1 -0.1)">
       <use xlink:href="#DejaVuSans-31"/>
       <use xlink:href="#DejaVuSans-2e" x="63.623047"/>
       <use xlink:href="#DejaVuSans-30" x="95.410156"/>
      </g>
     </g>
    </g>
    <g id="xtick_7">
     <g id="line2d_13">
      <path d="M 424.8 320.4 
L 424.8 43.2 
" clip-path="url(#p41675c6eda)" style="fill: none; stroke: #b0b0b0; stroke-width: 0.8; stroke-linecap: square"/>
     </g>
     <g id="line2d_14">
      <g>
       <use xlink:href="#m1ff936c5df" x="424.8" y="320.4" style="stroke: #000000; stroke-width: 0.8"/>
      </g>
     </g>
     <g id="text_7">
      <!-- 1.5 -->
      <g transform="translate(416.848437 334.998438) scale(0.1 -0.1)">
       <use xlink:href="#DejaVuSans-31"/>
       <use xlink:href="#DejaVuSans-2e" x="63.623047"/>
       <use xlink:href="#DejaVuSans-35" x="95.410156"/>
      </g>
     </g>
    </g>
    <g id="text_8">
     <!-- x -->
     <g transform="translate(254.440625 348.676562) scale(0.1 -0.1)">
      <defs>
       <path id="DejaVuSans-78" d="M 3513 3500 
L 2247 1797 
L 3578 0 
L 2900 0 
L 1881 1375 
L 863 0 
L 184 0 
L 1544 1831 
L 300 3500 
L 978 3500 
L 1906 2253 
L 2834 3500 
L 3513 3500 
z
" transform="scale(0.015625)"/>
      </defs>
      <use xlink:href="#DejaVuSans-78"/>
     </g>
    </g>
   </g>
   <g id="matplotlib.axis_2">
    <g id="ytick_1">
     <g id="line2d_15">
      <path d="M 90 320.4 
L 424.8 320.4 
" clip-path="url(#p41675c6eda)" style="fill: none; stroke: #b0b0b0; stroke-width: 0.8; stroke-linecap: square"/>
     </g>
     <g id="line2d_16">
      <defs>
       <path id="m2b56e0897a" d="M 0 0 
L -3.5 0 
" style="stroke: #000000; stroke-width: 0.8"/>
      </defs>
      <g>
       <use xlink:href="#m2b56e0897a" x="90" y="320.4" style="stroke: #000000; stroke-width: 0.8"/>
      </g>
     </g>
     <g id="text_9">
      <!-- 0.0 -->
      <g transform="translate(67.096875 324.199219) scale(0.1 -0.1)">
       <use xlink:href="#DejaVuSans-30"/>
       <use xlink:href="#DejaVuSans-2e" x="63.623047"/>
       <use xlink:href="#DejaVuSans-30" x="95.410156"/>
      </g>
     </g>
    </g>
    <g id="ytick_2">
     <g id="line2d_17">
      <path d="M 90 277.489137 
L 424.8 277.489137 
" clip-path="url(#p41675c6eda)" style="fill: none; stroke: #b0b0b0; stroke-width: 0.8; stroke-linecap: square"/>
     </g>
     <g id="line2d_18">
      <g>
       <use xlink:href="#m2b56e0897a" x="90" y="277.489137" style="stroke: #000000; stroke-width: 0.8"/>
      </g>
     </g>
     <g id="text_10">
      <!-- 0.2 -->
      <g transform="translate(67.096875 281.288356) scale(0.1 -0.1)">
       <defs>
        <path id="DejaVuSans-32" d="M 1228 531 
L 3431 531 
L 3431 0 
L 469 0 
L 469 531 
Q 828 903 1448 1529 
Q 2069 2156 2228 2338 
Q 2531 2678 2651 2914 
Q 2772 3150 2772 3378 
Q 2772 3750 2511 3984 
Q 2250 4219 1831 4219 
Q 1534 4219 1204 4116 
Q 875 4013 500 3803 
L 500 4441 
Q 881 4594 1212 4672 
Q 1544 4750 1819 4750 
Q 2544 4750 2975 4387 
Q 3406 4025 3406 3419 
Q 3406 3131 3298 2873 
Q 3191 2616 2906 2266 
Q 2828 2175 2409 1742 
Q 1991 1309 1228 531 
z
" transform="scale(0.015625)"/>
       </defs>
       <use xlink:href="#DejaVuSans-30"/>
       <use xlink:href="#DejaVuSans-2e" x="63.623047"/>
       <use xlink:href="#DejaVuSans-32" x="95.410156"/>
      </g>
     </g>
    </g>
    <g id="ytick_3">
     <g id="line2d_19">
      <path d="M 90 234.578274 
L 424.8 234.578274 
" clip-path="url(#p41675c6eda)" style="fill: none; stroke: #b0b0b0; stroke-width: 0.8; stroke-linecap: square"/>
     </g>
     <g id="line2d_20">
      <g>
       <use xlink:href="#m2b56e0897a" x="90" y="234.578274" style="stroke: #000000; stroke-width: 0.8"/>
      </g>
     </g>
     <g id="text_11">
      <!-- 0.4 -->
      <g transform="translate(67.096875 238.377492) scale(0.1 -0.1)">
       <defs>
        <path id="DejaVuSans-34" d="M 2419 4116 
L 825 1625 
L 2419 1625 
L 2419 4116 
z
M 2253 4666 
L 3047 4666 
L 3047 1625 
L 3713 1625 
L 3713 1100 
L 3047 1100 
L 3047 0 
L 2419 0 
L 2419 1100 
L 313 1100 
L 313 1709 
L 2253 4666 
z
" transform="scale(0.015625)"/>
       </defs>
       <use xlink:href="#DejaVuSans-30"/>
       <use xlink:href="#DejaVuSans-2e" x="63.623047"/>
       <use xlink:href="#DejaVuSans-34" x="95.410156"/>
      </g>
     </g>
    </g>
    <g id="ytick_4">
     <g id="line2d_21">
      <path d="M 90 191.667411 
L 424.8 191.667411 
" clip-path="url(#p41675c6eda)" style="fill: none; stroke: #b0b0b0; stroke-width: 0.8; stroke-linecap: square"/>
     </g>
     <g id="line2d_22">
      <g>
       <use xlink:href="#m2b56e0897a" x="90" y="191.667411" style="stroke: #000000; stroke-width: 0.8"/>
      </g>
     </g>
     <g id="text_12">
      <!-- 0.6 -->
      <g transform="translate(67.096875 195.466629) scale(0.1 -0.1)">
       <defs>
        <path id="DejaVuSans-36" d="M 2113 2584 
Q 1688 2584 1439 2293 
Q 1191 2003 1191 1497 
Q 1191 994 1439 701 
Q 1688 409 2113 409 
Q 2538 409 2786 701 
Q 3034 994 3034 1497 
Q 3034 2003 2786 2293 
Q 2538 2584 2113 2584 
z
M 3366 4563 
L 3366 3988 
Q 3128 4100 2886 4159 
Q 2644 4219 2406 4219 
Q 1781 4219 1451 3797 
Q 1122 3375 1075 2522 
Q 1259 2794 1537 2939 
Q 1816 3084 2150 3084 
Q 2853 3084 3261 2657 
Q 3669 2231 3669 1497 
Q 3669 778 3244 343 
Q 2819 -91 2113 -91 
Q 1303 -91 875 529 
Q 447 1150 447 2328 
Q 447 3434 972 4092 
Q 1497 4750 2381 4750 
Q 2619 4750 2861 4703 
Q 3103 4656 3366 4563 
z
" transform="scale(0.015625)"/>
       </defs>
       <use xlink:href="#DejaVuSans-30"/>
       <use xlink:href="#DejaVuSans-2e" x="63.623047"/>
       <use xlink:href="#DejaVuSans-36" x="95.410156"/>
      </g>
     </g>
    </g>
    <g id="ytick_5">
     <g id="line2d_23">
      <path d="M 90 148.756547 
L 424.8 148.756547 
" clip-path="url(#p41675c6eda)" style="fill: none; stroke: #b0b0b0; stroke-width: 0.8; stroke-linecap: square"/>
     </g>
     <g id="line2d_24">
      <g>
       <use xlink:href="#m2b56e0897a" x="90" y="148.756547" style="stroke: #000000; stroke-width: 0.8"/>
      </g>
     </g>
     <g id="text_13">
      <!-- 0.8 -->
      <g transform="translate(67.096875 152.555766) scale(0.1 -0.1)">
       <defs>
        <path id="DejaVuSans-38" d="M 2034 2216 
Q 1584 2216 1326 1975 
Q 1069 1734 1069 1313 
Q 1069 891 1326 650 
Q 1584 409 2034 409 
Q 2484 409 2743 651 
Q 3003 894 3003 1313 
Q 3003 1734 2745 1975 
Q 2488 2216 2034 2216 
z
M 1403 2484 
Q 997 2584 770 2862 
Q 544 3141 544 3541 
Q 544 4100 942 4425 
Q 1341 4750 2034 4750 
Q 2731 4750 3128 4425 
Q 3525 4100 3525 3541 
Q 3525 3141 3298 2862 
Q 3072 2584 2669 2484 
Q 3125 2378 3379 2068 
Q 3634 1759 3634 1313 
Q 3634 634 3220 271 
Q 2806 -91 2034 -91 
Q 1263 -91 848 271 
Q 434 634 434 1313 
Q 434 1759 690 2068 
Q 947 2378 1403 2484 
z
M 1172 3481 
Q 1172 3119 1398 2916 
Q 1625 2713 2034 2713 
Q 2441 2713 2670 2916 
Q 2900 3119 2900 3481 
Q 2900 3844 2670 4047 
Q 2441 4250 2034 4250 
Q 1625 4250 1398 4047 
Q 1172 3844 1172 3481 
z
" transform="scale(0.015625)"/>
       </defs>
       <use xlink:href="#DejaVuSans-30"/>
       <use xlink:href="#DejaVuSans-2e" x="63.623047"/>
       <use xlink:href="#DejaVuSans-38" x="95.410156"/>
      </g>
     </g>
    </g>
    <g id="ytick_6">
     <g id="line2d_25">
      <path d="M 90 105.845684 
L 424.8 105.845684 
" clip-path="url(#p41675c6eda)" style="fill: none; stroke: #b0b0b0; stroke-width: 0.8; stroke-linecap: square"/>
     </g>
     <g id="line2d_26">
      <g>
       <use xlink:href="#m2b56e0897a" x="90" y="105.845684" style="stroke: #000000; stroke-width: 0.8"/>
      </g>
     </g>
     <g id="text_14">
      <!-- 1.0 -->
      <g transform="translate(67.096875 109.644903) scale(0.1 -0.1)">
       <use xlink:href="#DejaVuSans-31"/>
       <use xlink:href="#DejaVuSans-2e" x="63.623047"/>
       <use xlink:href="#DejaVuSans-30" x="95.410156"/>
      </g>
     </g>
    </g>
    <g id="ytick_7">
     <g id="line2d_27">
      <path d="M 90 62.934821 
L 424.8 62.934821 
" clip-path="url(#p41675c6eda)" style="fill: none; stroke: #b0b0b0; stroke-width: 0.8; stroke-linecap: square"/>
     </g>
     <g id="line2d_28">
      <g>
       <use xlink:href="#m2b56e0897a" x="90" y="62.934821" style="stroke: #000000; stroke-width: 0.8"/>
      </g>
     </g>
     <g id="text_15">
      <!-- 1.2 -->
      <g transform="translate(67.096875 66.73404) scale(0.1 -0.1)">
       <use xlink:href="#DejaVuSans-31"/>
       <use xlink:href="#DejaVuSans-2e" x="63.623047"/>
       <use xlink:href="#DejaVuSans-32" x="95.410156"/>
      </g>
     </g>
    </g>
    <g id="text_16">
     <!-- Probability density -->
     <g transform="translate(61.017187 228.150781) rotate(-90) scale(0.1 -0.1)">
      <defs>
       <path id="DejaVuSans-50" d="M 1259 4147 
L 1259 2394 
L 2053 2394 
Q 2494 2394 2734 2622 
Q 2975 2850 2975 3272 
Q 2975 3691 2734 3919 
Q 2494 4147 2053 4147 
L 1259 4147 
z
M 628 4666 
L 2053 4666 
Q 2838 4666 3239 4311 
Q 3641 3956 3641 3272 
Q 3641 2581 3239 2228 
Q 2838 1875 2053 1875 
L 1259 1875 
L 1259 0 
L 628 0 
L 628 4666 
z
" transform="scale(0.015625)"/>
       <path id="DejaVuSans-72" d="M 2631 2963 
Q 2534 3019 2420 3045 
Q 2306 3072 2169 3072 
Q 1681 3072 1420 2755 
Q 1159 2438 1159 1844 
L 1159 0 
L 581 0 
L 581 3500 
L 1159 3500 
L 1159 2956 
Q 1341 3275 1631 3429 
Q 1922 3584 2338 3584 
Q 2397 3584 2469 3576 
Q 2541 3569 2628 3553 
L 2631 2963 
z
" transform="scale(0.015625)"/>
       <path id="DejaVuSans-6f" d="M 1959 3097 
Q 1497 3097 1228 2736 
Q 959 2375 959 1747 
Q 959 1119 1226 758 
Q 1494 397 1959 397 
Q 2419 397 2687 759 
Q 2956 1122 2956 1747 
Q 2956 2369 2687 2733 
Q 2419 3097 1959 3097 
z
M 1959 3584 
Q 2709 3584 3137 3096 
Q 3566 2609 3566 1747 
Q 3566 888 3137 398 
Q 2709 -91 1959 -91 
Q 1206 -91 779 398 
Q 353 888 353 1747 
Q 353 2609 779 3096 
Q 1206 3584 1959 3584 
z
" transform="scale(0.015625)"/>
       <path id="DejaVuSans-62" d="M 3116 1747 
Q 3116 2381 2855 2742 
Q 2594 3103 2138 3103 
Q 1681 3103 1420 2742 
Q 1159 2381 1159 1747 
Q 1159 1113 1420 752 
Q 1681 391 2138 391 
Q 2594 391 2855 752 
Q 3116 1113 3116 1747 
z
M 1159 2969 
Q 1341 3281 1617 3432 
Q 1894 3584 2278 3584 
Q 2916 3584 3314 3078 
Q 3713 2572 3713 1747 
Q 3713 922 3314 415 
Q 2916 -91 2278 -91 
Q 1894 -91 1617 61 
Q 1341 213 1159 525 
L 1159 0 
L 581 0 
L 581 4863 
L 1159 4863 
L 1159 2969 
z
" transform="scale(0.015625)"/>
       <path id="DejaVuSans-61" d="M 2194 1759 
Q 1497 1759 1228 1600 
Q 959 1441 959 1056 
Q 959 750 1161 570 
Q 1363 391 1709 391 
Q 2188 391 2477 730 
Q 2766 1069 2766 1631 
L 2766 1759 
L 2194 1759 
z
M 3341 1997 
L 3341 0 
L 2766 0 
L 2766 531 
Q 2569 213 2275 61 
Q 1981 -91 1556 -91 
Q 1019 -91 701 211 
Q 384 513 384 1019 
Q 384 1609 779 1909 
Q 1175 2209 1959 2209 
L 2766 2209 
L 2766 2266 
Q 2766 2663 2505 2880 
Q 2244 3097 1772 3097 
Q 1472 3097 1187 3025 
Q 903 2953 641 2809 
L 641 3341 
Q 956 3463 1253 3523 
Q 1550 3584 1831 3584 
Q 2591 3584 2966 3190 
Q 3341 2797 3341 1997 
z
" transform="scale(0.015625)"/>
       <path id="DejaVuSans-69" d="M 603 3500 
L 1178 3500 
L 1178 0 
L 603 0 
L 603 3500 
z
M 603 4863 
L 1178 4863 
L 1178 4134 
L 603 4134 
L 603 4863 
z
" transform="scale(0.015625)"/>
       <path id="DejaVuSans-6c" d="M 603 4863 
L 1178 4863 
L 1178 0 
L 603 0 
L 603 4863 
z
" transform="scale(0.015625)"/>
       <path id="DejaVuSans-74" d="M 1172 4494 
L 1172 3500 
L 2356 3500 
L 2356 3053 
L 1172 3053 
L 1172 1153 
Q 1172 725 1289 603 
Q 1406 481 1766 481 
L 2356 481 
L 2356 0 
L 1766 0 
Q 1100 0 847 248 
Q 594 497 594 1153 
L 594 3053 
L 172 3053 
L 172 3500 
L 594 3500 
L 594 4494 
L 1172 4494 
z
" transform="scale(0.015625)"/>
       <path id="DejaVuSans-79" d="M 2059 -325 
Q 1816 -950 1584 -1140 
Q 1353 -1331 966 -1331 
L 506 -1331 
L 506 -850 
L 844 -850 
Q 1081 -850 1212 -737 
Q 1344 -625 1503 -206 
L 1606 56 
L 191 3500 
L 800 3500 
L 1894 763 
L 2988 3500 
L 3597 3500 
L 2059 -325 
z
" transform="scale(0.015625)"/>
       <path id="DejaVuSans-20" transform="scale(0.015625)"/>
       <path id="DejaVuSans-64" d="M 2906 2969 
L 2906 4863 
L 3481 4863 
L 3481 0 
L 2906 0 
L 2906 525 
Q 2725 213 2448 61 
Q 2172 -91 1784 -91 
Q 1150 -91 751 415 
Q 353 922 353 1747 
Q 353 2572 751 3078 
Q 1150 3584 1784 3584 
Q 2172 3584 2448 3432 
Q 2725 3281 2906 2969 
z
M 947 1747 
Q 947 1113 1208 752 
Q 1469 391 1925 391 
Q 2381 391 2643 752 
Q 2906 1113 2906 1747 
Q 2906 2381 2643 2742 
Q 2381 3103 1925 3103 
Q 1469 3103 1208 2742 
Q 947 2381 947 1747 
z
" transform="scale(0.015625)"/>
       <path id="DejaVuSans-65" d="M 3597 1894 
L 3597 1613 
L 953 1613 
Q 991 1019 1311 708 
Q 1631 397 2203 397 
Q 2534 397 2845 478 
Q 3156 559 3463 722 
L 3463 178 
Q 3153 47 2828 -22 
Q 2503 -91 2169 -91 
Q 1331 -91 842 396 
Q 353 884 353 1716 
Q 353 2575 817 3079 
Q 1281 3584 2069 3584 
Q 2775 3584 3186 3129 
Q 3597 2675 3597 1894 
z
M 3022 2063 
Q 3016 2534 2758 2815 
Q 2500 3097 2075 3097 
Q 1594 3097 1305 2825 
Q 1016 2553 972 2059 
L 3022 2063 
z
" transform="scale(0.015625)"/>
       <path id="DejaVuSans-6e" d="M 3513 2113 
L 3513 0 
L 2938 0 
L 2938 2094 
Q 2938 2591 2744 2837 
Q 2550 3084 2163 3084 
Q 1697 3084 1428 2787 
Q 1159 2491 1159 1978 
L 1159 0 
L 581 0 
L 581 3500 
L 1159 3500 
L 1159 2956 
Q 1366 3272 1645 3428 
Q 1925 3584 2291 3584 
Q 2894 3584 3203 3211 
Q 3513 2838 3513 2113 
z
" transform="scale(0.015625)"/>
       <path id="DejaVuSans-73" d="M 2834 3397 
L 2834 2853 
Q 2591 2978 2328 3040 
Q 2066 3103 1784 3103 
Q 1356 3103 1142 2972 
Q 928 2841 928 2578 
Q 928 2378 1081 2264 
Q 1234 2150 1697 2047 
L 1894 2003 
Q 2506 1872 2764 1633 
Q 3022 1394 3022 966 
Q 3022 478 2636 193 
Q 2250 -91 1575 -91 
Q 1294 -91 989 -36 
Q 684 19 347 128 
L 347 722 
Q 666 556 975 473 
Q 1284 391 1588 391 
Q 1994 391 2212 530 
Q 2431 669 2431 922 
Q 2431 1156 2273 1281 
Q 2116 1406 1581 1522 
L 1381 1569 
Q 847 1681 609 1914 
Q 372 2147 372 2553 
Q 372 3047 722 3315 
Q 1072 3584 1716 3584 
Q 2034 3584 2315 3537 
Q 2597 3491 2834 3397 
z
" transform="scale(0.015625)"/>
      </defs>
      <use xlink:href="#DejaVuSans-50"/>
      <use xlink:href="#DejaVuSans-72" x="58.552734"/>
      <use xlink:href="#DejaVuSans-6f" x="97.416016"/>
      <use xlink:href="#DejaVuSans-62" x="158.597656"/>
      <use xlink:href="#DejaVuSans-61" x="222.074219"/>
      <use xlink:href="#DejaVuSans-62" x="283.353516"/>
      <use xlink:href="#DejaVuSans-69" x="346.830078"/>
      <use xlink:href="#DejaVuSans-6c" x="374.613281"/>
      <use xlink:href="#DejaVuSans-69" x="402.396484"/>
      <use xlink:href="#DejaVuSans-74" x="430.179688"/>
      <use xlink:href="#DejaVuSans-79" x="469.388672"/>
      <use xlink:href="#DejaVuSans-20" x="528.568359"/>
      <use xlink:href="#DejaVuSans-64" x="560.355469"/>
      <use xlink:href="#DejaVuSans-65" x="623.832031"/>
      <use xlink:href="#DejaVuSans-6e" x="685.355469"/>
      <use xlink:href="#DejaVuSans-73" x="748.734375"/>
      <use xlink:href="#DejaVuSans-69" x="800.833984"/>
      <use xlink:href="#DejaVuSans-74" x="828.617188"/>
      <use xlink:href="#DejaVuSans-79" x="867.826172"/>
     </g>
    </g>
   </g>
   <g id="line2d_29">
    <path d="M 90 320.4 
L 146.972973 320.312049 
L 148.313514 320.001007 
L 149.654054 319.473284 
L 150.994595 318.73701 
L 152.67027 317.535612 
L 154.345946 316.036347 
L 156.021622 314.254427 
L 158.032432 311.764076 
L 160.043243 308.913641 
L 162.389189 305.166203 
L 164.735135 301.001153 
L 167.416216 295.778059 
L 170.432432 289.377058 
L 173.783784 281.701297 
L 177.47027 272.687993 
L 181.827027 261.434922 
L 187.524324 246.052354 
L 206.627027 193.905274 
L 211.318919 181.997359 
L 215.340541 172.337022 
L 219.027027 164.00583 
L 222.378378 156.921697 
L 225.72973 150.348447 
L 228.745946 144.901694 
L 231.762162 139.926206 
L 234.443243 135.917978 
L 237.124324 132.315034 
L 239.47027 129.505147 
L 241.816216 127.023182 
L 244.162162 124.87587 
L 246.172973 123.306088 
L 248.183784 121.98954 
L 250.194595 120.92881 
L 252.205405 120.125977 
L 254.216216 119.58261 
L 256.227027 119.299768 
L 258.237838 119.278002 
L 260.248649 119.517356 
L 262.259459 120.017363 
L 264.27027 120.777046 
L 266.281081 121.794924 
L 268.291892 123.069002 
L 270.302703 124.596779 
L 272.313514 126.375245 
L 274.659459 128.762241 
L 277.005405 131.479178 
L 279.351351 134.518649 
L 282.032432 138.376517 
L 284.713514 142.630748 
L 287.72973 147.871077 
L 290.745946 153.568678 
L 294.097297 160.402498 
L 297.783784 168.483814 
L 301.47027 177.097709 
L 305.827027 187.87401 
L 310.854054 200.961862 
L 317.221622 218.240245 
L 333.643243 263.20109 
L 338.335135 275.198395 
L 342.021622 284.06065 
L 345.372973 291.568093 
L 348.389189 297.79136 
L 351.07027 302.834871 
L 353.416216 306.825616 
L 355.762162 310.382302 
L 357.772973 313.055838 
L 359.783784 315.356654 
L 361.459459 316.970793 
L 363.135135 318.293179 
L 364.810811 319.308452 
L 366.151351 319.889071 
L 367.491892 320.255051 
L 368.832432 320.398189 
L 389.610811 320.4 
L 424.8 320.4 
L 424.8 320.4 
" clip-path="url(#p41675c6eda)" style="fill: none; stroke: #1f77b4; stroke-width: 1.5; stroke-linecap: square"/>
   </g>
   <g id="line2d_30">
    <path d="M 90 320.4 
L 145.632432 320.4 
L 146.302703 307.450104 
L 146.972973 300.648499 
L 147.978378 293.544254 
L 148.983784 288.006915 
L 150.324324 281.902699 
L 152 275.506972 
L 153.675676 269.998479 
L 155.686486 264.193912 
L 157.697297 259.03371 
L 160.043243 253.629314 
L 162.389189 248.745696 
L 165.07027 243.674919 
L 167.751351 239.051359 
L 170.767568 234.294944 
L 173.783784 229.938383 
L 177.135135 225.499894 
L 180.486486 221.429769 
L 183.837838 217.684209 
L 187.524324 213.898175 
L 191.210811 210.427149 
L 194.897297 207.242138 
L 198.918919 204.06623 
L 202.940541 201.177791 
L 206.962162 198.556373 
L 210.983784 196.185071 
L 215.340541 193.882132 
L 219.697297 191.841352 
L 224.054054 190.050418 
L 228.410811 188.499152 
L 232.767568 187.179181 
L 237.124324 186.083686 
L 241.481081 185.20721 
L 245.837838 184.545514 
L 250.194595 184.09547 
L 254.551351 183.854985 
L 258.908108 183.822953 
L 263.264865 183.999225 
L 267.621622 184.384613 
L 271.978378 184.980901 
L 276.335135 185.790893 
L 280.691892 186.818475 
L 285.048649 188.068717 
L 289.405405 189.548 
L 293.762162 191.264196 
L 298.118919 193.226895 
L 302.475676 195.447714 
L 306.497297 197.738896 
L 310.518919 200.275216 
L 314.540541 203.072568 
L 318.562162 206.150126 
L 322.248649 209.237211 
L 325.935135 212.601196 
L 329.621622 216.268915 
L 333.308108 220.27374 
L 336.659459 224.242389 
L 340.010811 228.565066 
L 343.027027 232.801387 
L 346.043243 237.417334 
L 348.724324 241.893086 
L 351.405405 246.786057 
L 354.086486 252.185969 
L 356.432432 257.42888 
L 358.443243 262.411185 
L 360.454054 267.979302 
L 362.12973 273.215626 
L 363.805405 279.212764 
L 365.145946 284.814187 
L 366.151351 289.735881 
L 367.156757 295.677585 
L 367.827027 300.648499 
L 368.497297 307.450104 
L 368.832432 312.917751 
L 369.167568 320.4 
L 424.8 320.4 
L 424.8 320.4 
" clip-path="url(#p41675c6eda)" style="fill: none; stroke: #ff7f0e; stroke-width: 1.5; stroke-linecap: square"/>
   </g>
   <g id="line2d_31">
    <path d="M 90 320.4 
L 154.010811 320.293462 
L 157.362162 320.00661 
L 160.043243 319.539094 
L 162.389189 318.885717 
L 164.4 318.098725 
L 166.410811 317.064663 
L 168.421622 315.749221 
L 170.432432 314.120042 
L 172.443243 312.147329 
L 174.454054 309.804357 
L 176.464865 307.067902 
L 178.475676 303.918592 
L 180.486486 300.341175 
L 182.497297 296.324732 
L 184.843243 291.075645 
L 187.189189 285.21798 
L 189.535135 278.757775 
L 192.216216 270.655746 
L 194.897297 261.820362 
L 197.913514 251.06404 
L 201.264865 238.201802 
L 204.951351 223.115512 
L 209.308108 204.323995 
L 216.681081 171.316008 
L 223.383784 141.661924 
L 227.405405 124.805477 
L 230.756757 111.6331 
L 233.772973 100.641662 
L 236.454054 91.677439 
L 238.8 84.531461 
L 241.145946 78.095641 
L 243.156757 73.183025 
L 245.167568 68.857984 
L 246.843243 65.720862 
L 248.518919 63.021972 
L 250.194595 60.772233 
L 251.535135 59.302016 
L 252.875676 58.128934 
L 254.216216 57.256032 
L 255.556757 56.685576 
L 256.897297 56.419046 
L 257.902703 56.419046 
L 258.908108 56.59041 
L 260.248649 57.084993 
L 261.589189 57.882465 
L 262.92973 58.980757 
L 264.27027 60.377018 
L 265.610811 62.067627 
L 267.286486 64.588066 
L 268.962162 67.55132 
L 270.637838 70.945406 
L 272.648649 75.56759 
L 274.659459 80.763511 
L 277.005405 87.510217 
L 279.351351 94.943675 
L 282.032432 104.205011 
L 285.048649 115.487237 
L 288.4 128.924789 
L 292.421622 146.014238 
L 298.118919 171.316008 
L 307.837838 214.549878 
L 312.194595 232.819021 
L 315.881081 247.300362 
L 318.897297 258.327384 
L 321.913514 268.514004 
L 324.594595 276.803143 
L 327.275676 284.331737 
L 329.621622 290.276046 
L 331.967568 295.612123 
L 334.313514 300.341175 
L 336.324324 303.918592 
L 338.335135 307.067902 
L 340.345946 309.804357 
L 342.356757 312.147329 
L 344.367568 314.120042 
L 346.378378 315.749221 
L 348.389189 317.064663 
L 350.4 318.098725 
L 352.410811 318.885717 
L 354.756757 319.539094 
L 357.102703 319.961764 
L 360.118919 320.255988 
L 364.140541 320.386095 
L 376.205405 320.4 
L 424.8 320.4 
L 424.8 320.4 
" clip-path="url(#p41675c6eda)" style="fill: none; stroke: #2ca02c; stroke-width: 1.5; stroke-linecap: square"/>
   </g>
   <g id="line2d_32">
    <path d="M 90 320.4 
L 154.010811 320.297119 
L 158.702703 320.009486 
L 162.724324 319.535545 
L 166.410811 318.866577 
L 169.762162 318.030207 
L 173.113514 316.949376 
L 176.12973 315.748089 
L 179.145946 314.314315 
L 182.162162 312.634411 
L 185.178378 310.696452 
L 188.194595 308.49023 
L 191.210811 306.007256 
L 194.227027 303.240754 
L 197.243243 300.18567 
L 200.259459 296.838664 
L 203.610811 292.775477 
L 206.962162 288.350193 
L 210.313514 283.565691 
L 214 277.894482 
L 217.686486 271.806298 
L 221.708108 264.706587 
L 225.72973 257.152756 
L 230.086486 248.49173 
L 234.778378 238.659661 
L 240.140541 226.865489 
L 246.172973 213.024599 
L 254.216216 193.948563 
L 269.297297 158.054676 
L 274.994595 145.154711 
L 279.686486 135.094674 
L 283.708108 127.008384 
L 287.059459 120.730404 
L 290.075676 115.495868 
L 293.091892 110.706397 
L 295.772973 106.864101 
L 298.118919 103.8529 
L 300.464865 101.195853 
L 302.475676 99.220081 
L 304.486486 97.540567 
L 306.497297 96.174496 
L 308.172973 95.288174 
L 309.848649 94.642007 
L 311.524324 94.246481 
L 313.2 94.112245 
L 314.875676 94.250112 
L 316.216216 94.563691 
L 317.556757 95.064132 
L 319.232432 95.961243 
L 320.908108 97.170738 
L 322.583784 98.704181 
L 324.259459 100.5733 
L 325.935135 102.789989 
L 327.610811 105.366302 
L 329.286486 108.31446 
L 331.297297 112.360531 
L 333.308108 116.981607 
L 335.318919 122.199736 
L 337.32973 128.037306 
L 339.340541 134.517042 
L 341.686486 142.919153 
L 344.032432 152.263943 
L 346.378378 162.589253 
L 348.724324 173.93355 
L 351.07027 186.33593 
L 353.416216 199.836118 
L 356.097297 216.660952 
L 358.778378 235.033625 
L 361.459459 255.016448 
L 364.140541 276.672807 
L 366.821622 300.067158 
L 369.167568 320.4 
L 424.8 320.4 
L 424.8 320.4 
" clip-path="url(#p41675c6eda)" style="fill: none; stroke: #d62728; stroke-width: 1.5; stroke-linecap: square"/>
   </g>
   <g id="patch_3">
    <path d="M 90 320.4 
L 90 43.2 
" style="fill: none; stroke: #000000; stroke-width: 0.8; stroke-linejoin: miter; stroke-linecap: square"/>
   </g>
   <g id="patch_4">
    <path d="M 424.8 320.4 
L 424.8 43.2 
" style="fill: none; stroke: #000000; stroke-width: 0.8; stroke-linejoin: miter; stroke-linecap: square"/>
   </g>
   <g id="patch_5">
    <path d="M 90 320.4 
L 424.8 320.4 
" style="fill: none; stroke: #000000; stroke-width: 0.8; stroke-linejoin: miter; stroke-linecap: square"/>
   </g>
   <g id="patch_6">
    <path d="M 90 43.2 
L 424.8 43.2 
" style="fill: none; stroke: #000000; stroke-width: 0.8; stroke-linejoin: miter; stroke-linecap: square"/>
   </g>
   <g id="text_17">
    <!-- PERT Distribution -->
    <g transform="translate(205.682812 37.2) scale(0.12 -0.12)">
     <defs>
      <path id="DejaVuSans-45" d="M 628 4666 
L 3578 4666 
L 3578 4134 
L 1259 4134 
L 1259 2753 
L 3481 2753 
L 3481 2222 
L 1259 2222 
L 1259 531 
L 3634 531 
L 3634 0 
L 628 0 
L 628 4666 
z
" transform="scale(0.015625)"/>
      <path id="DejaVuSans-52" d="M 2841 2188 
Q 3044 2119 3236 1894 
Q 3428 1669 3622 1275 
L 4263 0 
L 3584 0 
L 2988 1197 
Q 2756 1666 2539 1819 
Q 2322 1972 1947 1972 
L 1259 1972 
L 1259 0 
L 628 0 
L 628 4666 
L 2053 4666 
Q 2853 4666 3247 4331 
Q 3641 3997 3641 3322 
Q 3641 2881 3436 2590 
Q 3231 2300 2841 2188 
z
M 1259 4147 
L 1259 2491 
L 2053 2491 
Q 2509 2491 2742 2702 
Q 2975 2913 2975 3322 
Q 2975 3731 2742 3939 
Q 2509 4147 2053 4147 
L 1259 4147 
z
" transform="scale(0.015625)"/>
      <path id="DejaVuSans-54" d="M -19 4666 
L 3928 4666 
L 3928 4134 
L 2272 4134 
L 2272 0 
L 1638 0 
L 1638 4134 
L -19 4134 
L -19 4666 
z
" transform="scale(0.015625)"/>
      <path id="DejaVuSans-44" d="M 1259 4147 
L 1259 519 
L 2022 519 
Q 2988 519 3436 956 
Q 3884 1394 3884 2338 
Q 3884 3275 3436 3711 
Q 2988 4147 2022 4147 
L 1259 4147 
z
M 628 4666 
L 1925 4666 
Q 3281 4666 3915 4102 
Q 4550 3538 4550 2338 
Q 4550 1131 3912 565 
Q 3275 0 1925 0 
L 628 0 
L 628 4666 
z
" transform="scale(0.015625)"/>
      <path id="DejaVuSans-75" d="M 544 1381 
L 544 3500 
L 1119 3500 
L 1119 1403 
Q 1119 906 1312 657 
Q 1506 409 1894 409 
Q 2359 409 2629 706 
Q 2900 1003 2900 1516 
L 2900 3500 
L 3475 3500 
L 3475 0 
L 2900 0 
L 2900 538 
Q 2691 219 2414 64 
Q 2138 -91 1772 -91 
Q 1169 -91 856 284 
Q 544 659 544 1381 
z
M 1991 3584 
L 1991 3584 
z
" transform="scale(0.015625)"/>
     </defs>
     <use xlink:href="#DejaVuSans-50"/>
     <use xlink:href="#DejaVuSans-45" x="60.302734"/>
     <use xlink:href="#DejaVuSans-52" x="123.486328"/>
     <use xlink:href="#DejaVuSans-54" x="185.71875"/>
     <use xlink:href="#DejaVuSans-20" x="246.802734"/>
     <use xlink:href="#DejaVuSans-44" x="278.589844"/>
     <use xlink:href="#DejaVuSans-69" x="355.591797"/>
     <use xlink:href="#DejaVuSans-73" x="383.375"/>
     <use xlink:href="#DejaVuSans-74" x="435.474609"/>
     <use xlink:href="#DejaVuSans-72" x="474.683594"/>
     <use xlink:href="#DejaVuSans-69" x="515.796875"/>
     <use xlink:href="#DejaVuSans-62" x="543.580078"/>
     <use xlink:href="#DejaVuSans-75" x="607.056641"/>
     <use xlink:href="#DejaVuSans-74" x="670.435547"/>
     <use xlink:href="#DejaVuSans-69" x="709.644531"/>
     <use xlink:href="#DejaVuSans-6f" x="737.427734"/>
     <use xlink:href="#DejaVuSans-6e" x="798.609375"/>
    </g>
   </g>
   <g id="legend_1">
    <g id="patch_7">
     <path d="M 431.8 220.7925 
L 679.592187 220.7925 
Q 681.592187 220.7925 681.592187 218.7925 
L 681.592187 161.08 
Q 681.592187 159.08 679.592187 159.08 
L 431.8 159.08 
Q 429.8 159.08 429.8 161.08 
L 429.8 218.7925 
Q 429.8 220.7925 431.8 220.7925 
z
" style="fill: #ffffff; opacity: 0.8; stroke: #cccccc; stroke-linejoin: miter"/>
    </g>
    <g id="line2d_33">
     <path d="M 433.8 167.178437 
L 443.8 167.178437 
L 453.8 167.178437 
" style="fill: none; stroke: #1f77b4; stroke-width: 1.5; stroke-linecap: square"/>
    </g>
    <g id="text_18">
     <!-- min = -1, mode = 0, max = 1, shape = 4 -->
     <g transform="translate(461.8 170.678437) scale(0.1 -0.1)">
      <defs>
       <path id="DejaVuSans-6d" d="M 3328 2828 
Q 3544 3216 3844 3400 
Q 4144 3584 4550 3584 
Q 5097 3584 5394 3201 
Q 5691 2819 5691 2113 
L 5691 0 
L 5113 0 
L 5113 2094 
Q 5113 2597 4934 2840 
Q 4756 3084 4391 3084 
Q 3944 3084 3684 2787 
Q 3425 2491 3425 1978 
L 3425 0 
L 2847 0 
L 2847 2094 
Q 2847 2600 2669 2842 
Q 2491 3084 2119 3084 
Q 1678 3084 1418 2786 
Q 1159 2488 1159 1978 
L 1159 0 
L 581 0 
L 581 3500 
L 1159 3500 
L 1159 2956 
Q 1356 3278 1631 3431 
Q 1906 3584 2284 3584 
Q 2666 3584 2933 3390 
Q 3200 3197 3328 2828 
z
" transform="scale(0.015625)"/>
       <path id="DejaVuSans-3d" d="M 678 2906 
L 4684 2906 
L 4684 2381 
L 678 2381 
L 678 2906 
z
M 678 1631 
L 4684 1631 
L 4684 1100 
L 678 1100 
L 678 1631 
z
" transform="scale(0.015625)"/>
       <path id="DejaVuSans-2d" d="M 313 2009 
L 1997 2009 
L 1997 1497 
L 313 1497 
L 313 2009 
z
" transform="scale(0.015625)"/>
       <path id="DejaVuSans-2c" d="M 750 794 
L 1409 794 
L 1409 256 
L 897 -744 
L 494 -744 
L 750 256 
L 750 794 
z
" transform="scale(0.015625)"/>
       <path id="DejaVuSans-68" d="M 3513 2113 
L 3513 0 
L 2938 0 
L 2938 2094 
Q 2938 2591 2744 2837 
Q 2550 3084 2163 3084 
Q 1697 3084 1428 2787 
Q 1159 2491 1159 1978 
L 1159 0 
L 581 0 
L 581 4863 
L 1159 4863 
L 1159 2956 
Q 1366 3272 1645 3428 
Q 1925 3584 2291 3584 
Q 2894 3584 3203 3211 
Q 3513 2838 3513 2113 
z
" transform="scale(0.015625)"/>
       <path id="DejaVuSans-70" d="M 1159 525 
L 1159 -1331 
L 581 -1331 
L 581 3500 
L 1159 3500 
L 1159 2969 
Q 1341 3281 1617 3432 
Q 1894 3584 2278 3584 
Q 2916 3584 3314 3078 
Q 3713 2572 3713 1747 
Q 3713 922 3314 415 
Q 2916 -91 2278 -91 
Q 1894 -91 1617 61 
Q 1341 213 1159 525 
z
M 3116 1747 
Q 3116 2381 2855 2742 
Q 2594 3103 2138 3103 
Q 1681 3103 1420 2742 
Q 1159 2381 1159 1747 
Q 1159 1113 1420 752 
Q 1681 391 2138 391 
Q 2594 391 2855 752 
Q 3116 1113 3116 1747 
z
" transform="scale(0.015625)"/>
      </defs>
      <use xlink:href="#DejaVuSans-6d"/>
      <use xlink:href="#DejaVuSans-69" x="97.412109"/>
      <use xlink:href="#DejaVuSans-6e" x="125.195312"/>
      <use xlink:href="#DejaVuSans-20" x="188.574219"/>
      <use xlink:href="#DejaVuSans-3d" x="220.361328"/>
      <use xlink:href="#DejaVuSans-20" x="304.150391"/>
      <use xlink:href="#DejaVuSans-2d" x="335.9375"/>
      <use xlink:href="#DejaVuSans-31" x="372.021484"/>
      <use xlink:href="#DejaVuSans-2c" x="435.644531"/>
      <use xlink:href="#DejaVuSans-20" x="467.431641"/>
      <use xlink:href="#DejaVuSans-6d" x="499.21875"/>
      <use xlink:href="#DejaVuSans-6f" x="596.630859"/>
      <use xlink:href="#DejaVuSans-64" x="657.8125"/>
      <use xlink:href="#DejaVuSans-65" x="721.289062"/>
      <use xlink:href="#DejaVuSans-20" x="782.8125"/>
      <use xlink:href="#DejaVuSans-3d" x="814.599609"/>
      <use xlink:href="#DejaVuSans-20" x="898.388672"/>
      <use xlink:href="#DejaVuSans-30" x="930.175781"/>
      <use xlink:href="#DejaVuSans-2c" x="993.798828"/>
      <use xlink:href="#DejaVuSans-20" x="1025.585938"/>
      <use xlink:href="#DejaVuSans-6d" x="1057.373047"/>
      <use xlink:href="#DejaVuSans-61" x="1154.785156"/>
      <use xlink:href="#DejaVuSans-78" x="1216.064453"/>
      <use xlink:href="#DejaVuSans-20" x="1275.244141"/>
      <use xlink:href="#DejaVuSans-3d" x="1307.03125"/>
      <use xlink:href="#DejaVuSans-20" x="1390.820312"/>
      <use xlink:href="#DejaVuSans-31" x="1422.607422"/>
      <use xlink:href="#DejaVuSans-2c" x="1486.230469"/>
      <use xlink:href="#DejaVuSans-20" x="1518.017578"/>
      <use xlink:href="#DejaVuSans-73" x="1549.804688"/>
      <use xlink:href="#DejaVuSans-68" x="1601.904297"/>
      <use xlink:href="#DejaVuSans-61" x="1665.283203"/>
      <use xlink:href="#DejaVuSans-70" x="1726.5625"/>
      <use xlink:href="#DejaVuSans-65" x="1790.039062"/>
      <use xlink:href="#DejaVuSans-20" x="1851.5625"/>
      <use xlink:href="#DejaVuSans-3d" x="1883.349609"/>
      <use xlink:href="#DejaVuSans-20" x="1967.138672"/>
      <use xlink:href="#DejaVuSans-34" x="1998.925781"/>
     </g>
    </g>
    <g id="line2d_34">
     <path d="M 433.8 181.856562 
L 443.8 181.856562 
L 453.8 181.856562 
" style="fill: none; stroke: #ff7f0e; stroke-width: 1.5; stroke-linecap: square"/>
    </g>
    <g id="text_19">
     <!-- min = -1, mode = 0, max = 1, shape = 1 -->
     <g transform="translate(461.8 185.356562) scale(0.1 -0.1)">
      <use xlink:href="#DejaVuSans-6d"/>
      <use xlink:href="#DejaVuSans-69" x="97.412109"/>
      <use xlink:href="#DejaVuSans-6e" x="125.195312"/>
      <use xlink:href="#DejaVuSans-20" x="188.574219"/>
      <use xlink:href="#DejaVuSans-3d" x="220.361328"/>
      <use xlink:href="#DejaVuSans-20" x="304.150391"/>
      <use xlink:href="#DejaVuSans-2d" x="335.9375"/>
      <use xlink:href="#DejaVuSans-31" x="372.021484"/>
      <use xlink:href="#DejaVuSans-2c" x="435.644531"/>
      <use xlink:href="#DejaVuSans-20" x="467.431641"/>
      <use xlink:href="#DejaVuSans-6d" x="499.21875"/>
      <use xlink:href="#DejaVuSans-6f" x="596.630859"/>
      <use xlink:href="#DejaVuSans-64" x="657.8125"/>
      <use xlink:href="#DejaVuSans-65" x="721.289062"/>
      <use xlink:href="#DejaVuSans-20" x="782.8125"/>
      <use xlink:href="#DejaVuSans-3d" x="814.599609"/>
      <use xlink:href="#DejaVuSans-20" x="898.388672"/>
      <use xlink:href="#DejaVuSans-30" x="930.175781"/>
      <use xlink:href="#DejaVuSans-2c" x="993.798828"/>
      <use xlink:href="#DejaVuSans-20" x="1025.585938"/>
      <use xlink:href="#DejaVuSans-6d" x="1057.373047"/>
      <use xlink:href="#DejaVuSans-61" x="1154.785156"/>
      <use xlink:href="#DejaVuSans-78" x="1216.064453"/>
      <use xlink:href="#DejaVuSans-20" x="1275.244141"/>
      <use xlink:href="#DejaVuSans-3d" x="1307.03125"/>
      <use xlink:href="#DejaVuSans-20" x="1390.820312"/>
      <use xlink:href="#DejaVuSans-31" x="1422.607422"/>
      <use xlink:href="#DejaVuSans-2c" x="1486.230469"/>
      <use xlink:href="#DejaVuSans-20" x="1518.017578"/>
      <use xlink:href="#DejaVuSans-73" x="1549.804688"/>
      <use xlink:href="#DejaVuSans-68" x="1601.904297"/>
      <use xlink:href="#DejaVuSans-61" x="1665.283203"/>
      <use xlink:href="#DejaVuSans-70" x="1726.5625"/>
      <use xlink:href="#DejaVuSans-65" x="1790.039062"/>
      <use xlink:href="#DejaVuSans-20" x="1851.5625"/>
      <use xlink:href="#DejaVuSans-3d" x="1883.349609"/>
      <use xlink:href="#DejaVuSans-20" x="1967.138672"/>
      <use xlink:href="#DejaVuSans-31" x="1998.925781"/>
     </g>
    </g>
    <g id="line2d_35">
     <path d="M 433.8 196.534687 
L 443.8 196.534687 
L 453.8 196.534687 
" style="fill: none; stroke: #2ca02c; stroke-width: 1.5; stroke-linecap: square"/>
    </g>
    <g id="text_20">
     <!-- min = -1, mode = 0, max = 1, shape = 8 -->
     <g transform="translate(461.8 200.034687) scale(0.1 -0.1)">
      <use xlink:href="#DejaVuSans-6d"/>
      <use xlink:href="#DejaVuSans-69" x="97.412109"/>
      <use xlink:href="#DejaVuSans-6e" x="125.195312"/>
      <use xlink:href="#DejaVuSans-20" x="188.574219"/>
      <use xlink:href="#DejaVuSans-3d" x="220.361328"/>
      <use xlink:href="#DejaVuSans-20" x="304.150391"/>
      <use xlink:href="#DejaVuSans-2d" x="335.9375"/>
      <use xlink:href="#DejaVuSans-31" x="372.021484"/>
      <use xlink:href="#DejaVuSans-2c" x="435.644531"/>
      <use xlink:href="#DejaVuSans-20" x="467.431641"/>
      <use xlink:href="#DejaVuSans-6d" x="499.21875"/>
      <use xlink:href="#DejaVuSans-6f" x="596.630859"/>
      <use xlink:href="#DejaVuSans-64" x="657.8125"/>
      <use xlink:href="#DejaVuSans-65" x="721.289062"/>
      <use xlink:href="#DejaVuSans-20" x="782.8125"/>
      <use xlink:href="#DejaVuSans-3d" x="814.599609"/>
      <use xlink:href="#DejaVuSans-20" x="898.388672"/>
      <use xlink:href="#DejaVuSans-30" x="930.175781"/>
      <use xlink:href="#DejaVuSans-2c" x="993.798828"/>
      <use xlink:href="#DejaVuSans-20" x="1025.585938"/>
      <use xlink:href="#DejaVuSans-6d" x="1057.373047"/>
      <use xlink:href="#DejaVuSans-61" x="1154.785156"/>
      <use xlink:href="#DejaVuSans-78" x="1216.064453"/>
      <use xlink:href="#DejaVuSans-20" x="1275.244141"/>
      <use xlink:href="#DejaVuSans-3d" x="1307.03125"/>
      <use xlink:href="#DejaVuSans-20" x="1390.820312"/>
      <use xlink:href="#DejaVuSans-31" x="1422.607422"/>
      <use xlink:href="#DejaVuSans-2c" x="1486.230469"/>
      <use xlink:href="#DejaVuSans-20" x="1518.017578"/>
      <use xlink:href="#DejaVuSans-73" x="1549.804688"/>
      <use xlink:href="#DejaVuSans-68" x="1601.904297"/>
      <use xlink:href="#DejaVuSans-61" x="1665.283203"/>
      <use xlink:href="#DejaVuSans-70" x="1726.5625"/>
      <use xlink:href="#DejaVuSans-65" x="1790.039062"/>
      <use xlink:href="#DejaVuSans-20" x="1851.5625"/>
      <use xlink:href="#DejaVuSans-3d" x="1883.349609"/>
      <use xlink:href="#DejaVuSans-20" x="1967.138672"/>
      <use xlink:href="#DejaVuSans-38" x="1998.925781"/>
     </g>
    </g>
    <g id="line2d_36">
     <path d="M 433.8 211.212812 
L 443.8 211.212812 
L 453.8 211.212812 
" style="fill: none; stroke: #d62728; stroke-width: 1.5; stroke-linecap: square"/>
    </g>
    <g id="text_21">
     <!-- min = -1, mode = 0.5, max = 1, shape = 4 -->
     <g transform="translate(461.8 214.712812) scale(0.1 -0.1)">
      <use xlink:href="#DejaVuSans-6d"/>
      <use xlink:href="#DejaVuSans-69" x="97.412109"/>
      <use xlink:href="#DejaVuSans-6e" x="125.195312"/>
      <use xlink:href="#DejaVuSans-20" x="188.574219"/>
      <use xlink:href="#DejaVuSans-3d" x="220.361328"/>
      <use xlink:href="#DejaVuSans-20" x="304.150391"/>
      <use xlink:href="#DejaVuSans-2d" x="335.9375"/>
      <use xlink:href="#DejaVuSans-31" x="372.021484"/>
      <use xlink:href="#DejaVuSans-2c" x="435.644531"/>
      <use xlink:href="#DejaVuSans-20" x="467.431641"/>
      <use xlink:href="#DejaVuSans-6d" x="499.21875"/>
      <use xlink:href="#DejaVuSans-6f" x="596.630859"/>
      <use xlink:href="#DejaVuSans-64" x="657.8125"/>
      <use xlink:href="#DejaVuSans-65" x="721.289062"/>
      <use xlink:href="#DejaVuSans-20" x="782.8125"/>
      <use xlink:href="#DejaVuSans-3d" x="814.599609"/>
      <use xlink:href="#DejaVuSans-20" x="898.388672"/>
      <use xlink:href="#DejaVuSans-30" x="930.175781"/>
      <use xlink:href="#DejaVuSans-2e" x="993.798828"/>
      <use xlink:href="#DejaVuSans-35" x="1025.585938"/>
      <use xlink:href="#DejaVuSans-2c" x="1089.208984"/>
      <use xlink:href="#DejaVuSans-20" x="1120.996094"/>
      <use xlink:href="#DejaVuSans-6d" x="1152.783203"/>
      <use xlink:href="#DejaVuSans-61" x="1250.195312"/>
      <use xlink:href="#DejaVuSans-78" x="1311.474609"/>
      <use xlink:href="#DejaVuSans-20" x="1370.654297"/>
      <use xlink:href="#DejaVuSans-3d" x="1402.441406"/>
      <use xlink:href="#DejaVuSans-20" x="1486.230469"/>
      <use xlink:href="#DejaVuSans-31" x="1518.017578"/>
      <use xlink:href="#DejaVuSans-2c" x="1581.640625"/>
      <use xlink:href="#DejaVuSans-20" x="1613.427734"/>
      <use xlink:href="#DejaVuSans-73" x="1645.214844"/>
      <use xlink:href="#DejaVuSans-68" x="1697.314453"/>
      <use xlink:href="#DejaVuSans-61" x="1760.693359"/>
      <use xlink:href="#DejaVuSans-70" x="1821.972656"/>
      <use xlink:href="#DejaVuSans-65" x="1885.449219"/>
      <use xlink:href="#DejaVuSans-20" x="1946.972656"/>
      <use xlink:href="#DejaVuSans-3d" x="1978.759766"/>
      <use xlink:href="#DejaVuSans-20" x="2062.548828"/>
      <use xlink:href="#DejaVuSans-34" x="2094.335938"/>
     </g>
    </g>
   </g>
  </g>
 </g>
 <defs>
  <clipPath id="p41675c6eda">
   <rect x="90" y="43.2" width="334.8" height="277.2"/>
  </clipPath>
 </defs>
</svg>
