<?xml version="1.0" encoding="utf-8" standalone="no"?>
<!DOCTYPE svg PUBLIC "-//W3C//DTD SVG 1.1//EN"
  "http://www.w3.org/Graphics/SVG/1.1/DTD/svg11.dtd">
<svg xmlns:xlink="http://www.w3.org/1999/xlink" width="720pt" height="360pt" viewBox="0 0 720 360" xmlns="http://www.w3.org/2000/svg" version="1.1">
 <metadata>
  <rdf:RDF xmlns:dc="http://purl.org/dc/elements/1.1/" xmlns:cc="http://creativecommons.org/ns#" xmlns:rdf="http://www.w3.org/1999/02/22-rdf-syntax-ns#">
   <cc:Work>
    <dc:type rdf:resource="http://purl.org/dc/dcmitype/StillImage"/>
    <dc:date>2024-05-03T22:23:15.121614</dc:date>
    <dc:format>image/svg+xml</dc:format>
    <dc:creator>
     <cc:Agent>
      <dc:title>Matplotlib v3.8.4, https://matplotlib.org/</dc:title>
     </cc:Agent>
    </dc:creator>
   </cc:Work>
  </rdf:RDF>
 </metadata>
 <defs>
  <style type="text/css">*{stroke-linejoin: round; stroke-linecap: butt}</style>
 </defs>
 <g id="figure_1">
  <g id="patch_1">
   <path d="M 0 360 
L 720 360 
L 720 0 
L 0 0 
z
" style="fill: #ffffff"/>
  </g>
  <g id="axes_1">
   <g id="patch_2">
    <path d="M 90 320.4 
L 424.8 320.4 
L 424.8 43.2 
L 90 43.2 
z
" style="fill: #ffffff"/>
   </g>
   <g id="matplotlib.axis_1">
    <g id="xtick_1">
     <g id="line2d_1">
      <path d="M 90 320.4 
L 90 43.2 
" clip-path="url(#p31e3119566)" style="fill: none; stroke: #b0b0b0; stroke-width: 0.8; stroke-linecap: square"/>
     </g>
     <g id="line2d_2">
      <defs>
       <path id="m78f7bfffde" d="M 0 0 
L 0 3.5 
" style="stroke: #000000; stroke-width: 0.8"/>
      </defs>
      <g>
       <use xlink:href="#m78f7bfffde" x="90" y="320.4" style="stroke: #000000; stroke-width: 0.8"/>
      </g>
     </g>
     <g id="text_1">
      <!-- −1.00 -->
      <g transform="translate(74.677344 334.998438) scale(0.1 -0.1)">
       <defs>
        <path id="DejaVuSans-2212" d="M 678 2272 
L 4684 2272 
L 4684 1741 
L 678 1741 
L 678 2272 
z
" transform="scale(0.015625)"/>
        <path id="DejaVuSans-31" d="M 794 531 
L 1825 531 
L 1825 4091 
L 703 3866 
L 703 4441 
L 1819 4666 
L 2450 4666 
L 2450 531 
L 3481 531 
L 3481 0 
L 794 0 
L 794 531 
z
" transform="scale(0.015625)"/>
        <path id="DejaVuSans-2e" d="M 684 794 
L 1344 794 
L 1344 0 
L 684 0 
L 684 794 
z
" transform="scale(0.015625)"/>
        <path id="DejaVuSans-30" d="M 2034 4250 
Q 1547 4250 1301 3770 
Q 1056 3291 1056 2328 
Q 1056 1369 1301 889 
Q 1547 409 2034 409 
Q 2525 409 2770 889 
Q 3016 1369 3016 2328 
Q 3016 3291 2770 3770 
Q 2525 4250 2034 4250 
z
M 2034 4750 
Q 2819 4750 3233 4129 
Q 3647 3509 3647 2328 
Q 3647 1150 3233 529 
Q 2819 -91 2034 -91 
Q 1250 -91 836 529 
Q 422 1150 422 2328 
Q 422 3509 836 4129 
Q 1250 4750 2034 4750 
z
" transform="scale(0.015625)"/>
       </defs>
       <use xlink:href="#DejaVuSans-2212"/>
       <use xlink:href="#DejaVuSans-31" x="83.789062"/>
       <use xlink:href="#DejaVuSans-2e" x="147.412109"/>
       <use xlink:href="#DejaVuSans-30" x="179.199219"/>
       <use xlink:href="#DejaVuSans-30" x="242.822266"/>
      </g>
     </g>
    </g>
    <g id="xtick_2">
     <g id="line2d_3">
      <path d="M 131.85 320.4 
L 131.85 43.2 
" clip-path="url(#p31e3119566)" style="fill: none; stroke: #b0b0b0; stroke-width: 0.8; stroke-linecap: square"/>
     </g>
     <g id="line2d_4">
      <g>
       <use xlink:href="#m78f7bfffde" x="131.85" y="320.4" style="stroke: #000000; stroke-width: 0.8"/>
      </g>
     </g>
     <g id="text_2">
      <!-- −0.75 -->
      <g transform="translate(116.527344 334.998438) scale(0.1 -0.1)">
       <defs>
        <path id="DejaVuSans-37" d="M 525 4666 
L 3525 4666 
L 3525 4397 
L 1831 0 
L 1172 0 
L 2766 4134 
L 525 4134 
L 525 4666 
z
" transform="scale(0.015625)"/>
        <path id="DejaVuSans-35" d="M 691 4666 
L 3169 4666 
L 3169 4134 
L 1269 4134 
L 1269 2991 
Q 1406 3038 1543 3061 
Q 1681 3084 1819 3084 
Q 2600 3084 3056 2656 
Q 3513 2228 3513 1497 
Q 3513 744 3044 326 
Q 2575 -91 1722 -91 
Q 1428 -91 1123 -41 
Q 819 9 494 109 
L 494 744 
Q 775 591 1075 516 
Q 1375 441 1709 441 
Q 2250 441 2565 725 
Q 2881 1009 2881 1497 
Q 2881 1984 2565 2268 
Q 2250 2553 1709 2553 
Q 1456 2553 1204 2497 
Q 953 2441 691 2322 
L 691 4666 
z
" transform="scale(0.015625)"/>
       </defs>
       <use xlink:href="#DejaVuSans-2212"/>
       <use xlink:href="#DejaVuSans-30" x="83.789062"/>
       <use xlink:href="#DejaVuSans-2e" x="147.412109"/>
       <use xlink:href="#DejaVuSans-37" x="179.199219"/>
       <use xlink:href="#DejaVuSans-35" x="242.822266"/>
      </g>
     </g>
    </g>
    <g id="xtick_3">
     <g id="line2d_5">
      <path d="M 173.7 320.4 
L 173.7 43.2 
" clip-path="url(#p31e3119566)" style="fill: none; stroke: #b0b0b0; stroke-width: 0.8; stroke-linecap: square"/>
     </g>
     <g id="line2d_6">
      <g>
       <use xlink:href="#m78f7bfffde" x="173.7" y="320.4" style="stroke: #000000; stroke-width: 0.8"/>
      </g>
     </g>
     <g id="text_3">
      <!-- −0.50 -->
      <g transform="translate(158.377344 334.998438) scale(0.1 -0.1)">
       <use xlink:href="#DejaVuSans-2212"/>
       <use xlink:href="#DejaVuSans-30" x="83.789062"/>
       <use xlink:href="#DejaVuSans-2e" x="147.412109"/>
       <use xlink:href="#DejaVuSans-35" x="179.199219"/>
       <use xlink:href="#DejaVuSans-30" x="242.822266"/>
      </g>
     </g>
    </g>
    <g id="xtick_4">
     <g id="line2d_7">
      <path d="M 215.55 320.4 
L 215.55 43.2 
" clip-path="url(#p31e3119566)" style="fill: none; stroke: #b0b0b0; stroke-width: 0.8; stroke-linecap: square"/>
     </g>
     <g id="line2d_8">
      <g>
       <use xlink:href="#m78f7bfffde" x="215.55" y="320.4" style="stroke: #000000; stroke-width: 0.8"/>
      </g>
     </g>
     <g id="text_4">
      <!-- −0.25 -->
      <g transform="translate(200.227344 334.998438) scale(0.1 -0.1)">
       <defs>
        <path id="DejaVuSans-32" d="M 1228 531 
L 3431 531 
L 3431 0 
L 469 0 
L 469 531 
Q 828 903 1448 1529 
Q 2069 2156 2228 2338 
Q 2531 2678 2651 2914 
Q 2772 3150 2772 3378 
Q 2772 3750 2511 3984 
Q 2250 4219 1831 4219 
Q 1534 4219 1204 4116 
Q 875 4013 500 3803 
L 500 4441 
Q 881 4594 1212 4672 
Q 1544 4750 1819 4750 
Q 2544 4750 2975 4387 
Q 3406 4025 3406 3419 
Q 3406 3131 3298 2873 
Q 3191 2616 2906 2266 
Q 2828 2175 2409 1742 
Q 1991 1309 1228 531 
z
" transform="scale(0.015625)"/>
       </defs>
       <use xlink:href="#DejaVuSans-2212"/>
       <use xlink:href="#DejaVuSans-30" x="83.789062"/>
       <use xlink:href="#DejaVuSans-2e" x="147.412109"/>
       <use xlink:href="#DejaVuSans-32" x="179.199219"/>
       <use xlink:href="#DejaVuSans-35" x="242.822266"/>
      </g>
     </g>
    </g>
    <g id="xtick_5">
     <g id="line2d_9">
      <path d="M 257.4 320.4 
L 257.4 43.2 
" clip-path="url(#p31e3119566)" style="fill: none; stroke: #b0b0b0; stroke-width: 0.8; stroke-linecap: square"/>
     </g>
     <g id="line2d_10">
      <g>
       <use xlink:href="#m78f7bfffde" x="257.4" y="320.4" style="stroke: #000000; stroke-width: 0.8"/>
      </g>
     </g>
     <g id="text_5">
      <!-- 0.00 -->
      <g transform="translate(246.267187 334.998438) scale(0.1 -0.1)">
       <use xlink:href="#DejaVuSans-30"/>
       <use xlink:href="#DejaVuSans-2e" x="63.623047"/>
       <use xlink:href="#DejaVuSans-30" x="95.410156"/>
       <use xlink:href="#DejaVuSans-30" x="159.033203"/>
      </g>
     </g>
    </g>
    <g id="xtick_6">
     <g id="line2d_11">
      <path d="M 299.25 320.4 
L 299.25 43.2 
" clip-path="url(#p31e3119566)" style="fill: none; stroke: #b0b0b0; stroke-width: 0.8; stroke-linecap: square"/>
     </g>
     <g id="line2d_12">
      <g>
       <use xlink:href="#m78f7bfffde" x="299.25" y="320.4" style="stroke: #000000; stroke-width: 0.8"/>
      </g>
     </g>
     <g id="text_6">
      <!-- 0.25 -->
      <g transform="translate(288.117188 334.998438) scale(0.1 -0.1)">
       <use xlink:href="#DejaVuSans-30"/>
       <use xlink:href="#DejaVuSans-2e" x="63.623047"/>
       <use xlink:href="#DejaVuSans-32" x="95.410156"/>
       <use xlink:href="#DejaVuSans-35" x="159.033203"/>
      </g>
     </g>
    </g>
    <g id="xtick_7">
     <g id="line2d_13">
      <path d="M 341.1 320.4 
L 341.1 43.2 
" clip-path="url(#p31e3119566)" style="fill: none; stroke: #b0b0b0; stroke-width: 0.8; stroke-linecap: square"/>
     </g>
     <g id="line2d_14">
      <g>
       <use xlink:href="#m78f7bfffde" x="341.1" y="320.4" style="stroke: #000000; stroke-width: 0.8"/>
      </g>
     </g>
     <g id="text_7">
      <!-- 0.50 -->
      <g transform="translate(329.967187 334.998438) scale(0.1 -0.1)">
       <use xlink:href="#DejaVuSans-30"/>
       <use xlink:href="#DejaVuSans-2e" x="63.623047"/>
       <use xlink:href="#DejaVuSans-35" x="95.410156"/>
       <use xlink:href="#DejaVuSans-30" x="159.033203"/>
      </g>
     </g>
    </g>
    <g id="xtick_8">
     <g id="line2d_15">
      <path d="M 382.95 320.4 
L 382.95 43.2 
" clip-path="url(#p31e3119566)" style="fill: none; stroke: #b0b0b0; stroke-width: 0.8; stroke-linecap: square"/>
     </g>
     <g id="line2d_16">
      <g>
       <use xlink:href="#m78f7bfffde" x="382.95" y="320.4" style="stroke: #000000; stroke-width: 0.8"/>
      </g>
     </g>
     <g id="text_8">
      <!-- 0.75 -->
      <g transform="translate(371.817187 334.998438) scale(0.1 -0.1)">
       <use xlink:href="#DejaVuSans-30"/>
       <use xlink:href="#DejaVuSans-2e" x="63.623047"/>
       <use xlink:href="#DejaVuSans-37" x="95.410156"/>
       <use xlink:href="#DejaVuSans-35" x="159.033203"/>
      </g>
     </g>
    </g>
    <g id="xtick_9">
     <g id="line2d_17">
      <path d="M 424.8 320.4 
L 424.8 43.2 
" clip-path="url(#p31e3119566)" style="fill: none; stroke: #b0b0b0; stroke-width: 0.8; stroke-linecap: square"/>
     </g>
     <g id="line2d_18">
      <g>
       <use xlink:href="#m78f7bfffde" x="424.8" y="320.4" style="stroke: #000000; stroke-width: 0.8"/>
      </g>
     </g>
     <g id="text_9">
      <!-- 1.00 -->
      <g transform="translate(413.667187 334.998438) scale(0.1 -0.1)">
       <use xlink:href="#DejaVuSans-31"/>
       <use xlink:href="#DejaVuSans-2e" x="63.623047"/>
       <use xlink:href="#DejaVuSans-30" x="95.410156"/>
       <use xlink:href="#DejaVuSans-30" x="159.033203"/>
      </g>
     </g>
    </g>
    <g id="text_10">
     <!-- x -->
     <g transform="translate(254.440625 348.676562) scale(0.1 -0.1)">
      <defs>
       <path id="DejaVuSans-78" d="M 3513 3500 
L 2247 1797 
L 3578 0 
L 2900 0 
L 1881 1375 
L 863 0 
L 184 0 
L 1544 1831 
L 300 3500 
L 978 3500 
L 1906 2253 
L 2834 3500 
L 3513 3500 
z
" transform="scale(0.015625)"/>
      </defs>
      <use xlink:href="#DejaVuSans-78"/>
     </g>
    </g>
   </g>
   <g id="matplotlib.axis_2">
    <g id="ytick_1">
     <g id="line2d_19">
      <path d="M 90 320.4 
L 424.8 320.4 
" clip-path="url(#p31e3119566)" style="fill: none; stroke: #b0b0b0; stroke-width: 0.8; stroke-linecap: square"/>
     </g>
     <g id="line2d_20">
      <defs>
       <path id="mbd14173f63" d="M 0 0 
L -3.5 0 
" style="stroke: #000000; stroke-width: 0.8"/>
      </defs>
      <g>
       <use xlink:href="#mbd14173f63" x="90" y="320.4" style="stroke: #000000; stroke-width: 0.8"/>
      </g>
     </g>
     <g id="text_11">
      <!-- 0.0 -->
      <g transform="translate(67.096875 324.199219) scale(0.1 -0.1)">
       <use xlink:href="#DejaVuSans-30"/>
       <use xlink:href="#DejaVuSans-2e" x="63.623047"/>
       <use xlink:href="#DejaVuSans-30" x="95.410156"/>
      </g>
     </g>
    </g>
    <g id="ytick_2">
     <g id="line2d_21">
      <path d="M 90 277.489352 
L 424.8 277.489352 
" clip-path="url(#p31e3119566)" style="fill: none; stroke: #b0b0b0; stroke-width: 0.8; stroke-linecap: square"/>
     </g>
     <g id="line2d_22">
      <g>
       <use xlink:href="#mbd14173f63" x="90" y="277.489352" style="stroke: #000000; stroke-width: 0.8"/>
      </g>
     </g>
     <g id="text_12">
      <!-- 0.2 -->
      <g transform="translate(67.096875 281.288571) scale(0.1 -0.1)">
       <use xlink:href="#DejaVuSans-30"/>
       <use xlink:href="#DejaVuSans-2e" x="63.623047"/>
       <use xlink:href="#DejaVuSans-32" x="95.410156"/>
      </g>
     </g>
    </g>
    <g id="ytick_3">
     <g id="line2d_23">
      <path d="M 90 234.578704 
L 424.8 234.578704 
" clip-path="url(#p31e3119566)" style="fill: none; stroke: #b0b0b0; stroke-width: 0.8; stroke-linecap: square"/>
     </g>
     <g id="line2d_24">
      <g>
       <use xlink:href="#mbd14173f63" x="90" y="234.578704" style="stroke: #000000; stroke-width: 0.8"/>
      </g>
     </g>
     <g id="text_13">
      <!-- 0.4 -->
      <g transform="translate(67.096875 238.377922) scale(0.1 -0.1)">
       <defs>
        <path id="DejaVuSans-34" d="M 2419 4116 
L 825 1625 
L 2419 1625 
L 2419 4116 
z
M 2253 4666 
L 3047 4666 
L 3047 1625 
L 3713 1625 
L 3713 1100 
L 3047 1100 
L 3047 0 
L 2419 0 
L 2419 1100 
L 313 1100 
L 313 1709 
L 2253 4666 
z
" transform="scale(0.015625)"/>
       </defs>
       <use xlink:href="#DejaVuSans-30"/>
       <use xlink:href="#DejaVuSans-2e" x="63.623047"/>
       <use xlink:href="#DejaVuSans-34" x="95.410156"/>
      </g>
     </g>
    </g>
    <g id="ytick_4">
     <g id="line2d_25">
      <path d="M 90 191.668055 
L 424.8 191.668055 
" clip-path="url(#p31e3119566)" style="fill: none; stroke: #b0b0b0; stroke-width: 0.8; stroke-linecap: square"/>
     </g>
     <g id="line2d_26">
      <g>
       <use xlink:href="#mbd14173f63" x="90" y="191.668055" style="stroke: #000000; stroke-width: 0.8"/>
      </g>
     </g>
     <g id="text_14">
      <!-- 0.6 -->
      <g transform="translate(67.096875 195.467274) scale(0.1 -0.1)">
       <defs>
        <path id="DejaVuSans-36" d="M 2113 2584 
Q 1688 2584 1439 2293 
Q 1191 2003 1191 1497 
Q 1191 994 1439 701 
Q 1688 409 2113 409 
Q 2538 409 2786 701 
Q 3034 994 3034 1497 
Q 3034 2003 2786 2293 
Q 2538 2584 2113 2584 
z
M 3366 4563 
L 3366 3988 
Q 3128 4100 2886 4159 
Q 2644 4219 2406 4219 
Q 1781 4219 1451 3797 
Q 1122 3375 1075 2522 
Q 1259 2794 1537 2939 
Q 1816 3084 2150 3084 
Q 2853 3084 3261 2657 
Q 3669 2231 3669 1497 
Q 3669 778 3244 343 
Q 2819 -91 2113 -91 
Q 1303 -91 875 529 
Q 447 1150 447 2328 
Q 447 3434 972 4092 
Q 1497 4750 2381 4750 
Q 2619 4750 2861 4703 
Q 3103 4656 3366 4563 
z
" transform="scale(0.015625)"/>
       </defs>
       <use xlink:href="#DejaVuSans-30"/>
       <use xlink:href="#DejaVuSans-2e" x="63.623047"/>
       <use xlink:href="#DejaVuSans-36" x="95.410156"/>
      </g>
     </g>
    </g>
    <g id="ytick_5">
     <g id="line2d_27">
      <path d="M 90 148.757407 
L 424.8 148.757407 
" clip-path="url(#p31e3119566)" style="fill: none; stroke: #b0b0b0; stroke-width: 0.8; stroke-linecap: square"/>
     </g>
     <g id="line2d_28">
      <g>
       <use xlink:href="#mbd14173f63" x="90" y="148.757407" style="stroke: #000000; stroke-width: 0.8"/>
      </g>
     </g>
     <g id="text_15">
      <!-- 0.8 -->
      <g transform="translate(67.096875 152.556626) scale(0.1 -0.1)">
       <defs>
        <path id="DejaVuSans-38" d="M 2034 2216 
Q 1584 2216 1326 1975 
Q 1069 1734 1069 1313 
Q 1069 891 1326 650 
Q 1584 409 2034 409 
Q 2484 409 2743 651 
Q 3003 894 3003 1313 
Q 3003 1734 2745 1975 
Q 2488 2216 2034 2216 
z
M 1403 2484 
Q 997 2584 770 2862 
Q 544 3141 544 3541 
Q 544 4100 942 4425 
Q 1341 4750 2034 4750 
Q 2731 4750 3128 4425 
Q 3525 4100 3525 3541 
Q 3525 3141 3298 2862 
Q 3072 2584 2669 2484 
Q 3125 2378 3379 2068 
Q 3634 1759 3634 1313 
Q 3634 634 3220 271 
Q 2806 -91 2034 -91 
Q 1263 -91 848 271 
Q 434 634 434 1313 
Q 434 1759 690 2068 
Q 947 2378 1403 2484 
z
M 1172 3481 
Q 1172 3119 1398 2916 
Q 1625 2713 2034 2713 
Q 2441 2713 2670 2916 
Q 2900 3119 2900 3481 
Q 2900 3844 2670 4047 
Q 2441 4250 2034 4250 
Q 1625 4250 1398 4047 
Q 1172 3844 1172 3481 
z
" transform="scale(0.015625)"/>
       </defs>
       <use xlink:href="#DejaVuSans-30"/>
       <use xlink:href="#DejaVuSans-2e" x="63.623047"/>
       <use xlink:href="#DejaVuSans-38" x="95.410156"/>
      </g>
     </g>
    </g>
    <g id="ytick_6">
     <g id="line2d_29">
      <path d="M 90 105.846759 
L 424.8 105.846759 
" clip-path="url(#p31e3119566)" style="fill: none; stroke: #b0b0b0; stroke-width: 0.8; stroke-linecap: square"/>
     </g>
     <g id="line2d_30">
      <g>
       <use xlink:href="#mbd14173f63" x="90" y="105.846759" style="stroke: #000000; stroke-width: 0.8"/>
      </g>
     </g>
     <g id="text_16">
      <!-- 1.0 -->
      <g transform="translate(67.096875 109.645978) scale(0.1 -0.1)">
       <use xlink:href="#DejaVuSans-31"/>
       <use xlink:href="#DejaVuSans-2e" x="63.623047"/>
       <use xlink:href="#DejaVuSans-30" x="95.410156"/>
      </g>
     </g>
    </g>
    <g id="ytick_7">
     <g id="line2d_31">
      <path d="M 90 62.936111 
L 424.8 62.936111 
" clip-path="url(#p31e3119566)" style="fill: none; stroke: #b0b0b0; stroke-width: 0.8; stroke-linecap: square"/>
     </g>
     <g id="line2d_32">
      <g>
       <use xlink:href="#mbd14173f63" x="90" y="62.936111" style="stroke: #000000; stroke-width: 0.8"/>
      </g>
     </g>
     <g id="text_17">
      <!-- 1.2 -->
      <g transform="translate(67.096875 66.73533) scale(0.1 -0.1)">
       <use xlink:href="#DejaVuSans-31"/>
       <use xlink:href="#DejaVuSans-2e" x="63.623047"/>
       <use xlink:href="#DejaVuSans-32" x="95.410156"/>
      </g>
     </g>
    </g>
    <g id="text_18">
     <!-- Probability density -->
     <g transform="translate(61.017187 228.150781) rotate(-90) scale(0.1 -0.1)">
      <defs>
       <path id="DejaVuSans-50" d="M 1259 4147 
L 1259 2394 
L 2053 2394 
Q 2494 2394 2734 2622 
Q 2975 2850 2975 3272 
Q 2975 3691 2734 3919 
Q 2494 4147 2053 4147 
L 1259 4147 
z
M 628 4666 
L 2053 4666 
Q 2838 4666 3239 4311 
Q 3641 3956 3641 3272 
Q 3641 2581 3239 2228 
Q 2838 1875 2053 1875 
L 1259 1875 
L 1259 0 
L 628 0 
L 628 4666 
z
" transform="scale(0.015625)"/>
       <path id="DejaVuSans-72" d="M 2631 2963 
Q 2534 3019 2420 3045 
Q 2306 3072 2169 3072 
Q 1681 3072 1420 2755 
Q 1159 2438 1159 1844 
L 1159 0 
L 581 0 
L 581 3500 
L 1159 3500 
L 1159 2956 
Q 1341 3275 1631 3429 
Q 1922 3584 2338 3584 
Q 2397 3584 2469 3576 
Q 2541 3569 2628 3553 
L 2631 2963 
z
" transform="scale(0.015625)"/>
       <path id="DejaVuSans-6f" d="M 1959 3097 
Q 1497 3097 1228 2736 
Q 959 2375 959 1747 
Q 959 1119 1226 758 
Q 1494 397 1959 397 
Q 2419 397 2687 759 
Q 2956 1122 2956 1747 
Q 2956 2369 2687 2733 
Q 2419 3097 1959 3097 
z
M 1959 3584 
Q 2709 3584 3137 3096 
Q 3566 2609 3566 1747 
Q 3566 888 3137 398 
Q 2709 -91 1959 -91 
Q 1206 -91 779 398 
Q 353 888 353 1747 
Q 353 2609 779 3096 
Q 1206 3584 1959 3584 
z
" transform="scale(0.015625)"/>
       <path id="DejaVuSans-62" d="M 3116 1747 
Q 3116 2381 2855 2742 
Q 2594 3103 2138 3103 
Q 1681 3103 1420 2742 
Q 1159 2381 1159 1747 
Q 1159 1113 1420 752 
Q 1681 391 2138 391 
Q 2594 391 2855 752 
Q 3116 1113 3116 1747 
z
M 1159 2969 
Q 1341 3281 1617 3432 
Q 1894 3584 2278 3584 
Q 2916 3584 3314 3078 
Q 3713 2572 3713 1747 
Q 3713 922 3314 415 
Q 2916 -91 2278 -91 
Q 1894 -91 1617 61 
Q 1341 213 1159 525 
L 1159 0 
L 581 0 
L 581 4863 
L 1159 4863 
L 1159 2969 
z
" transform="scale(0.015625)"/>
       <path id="DejaVuSans-61" d="M 2194 1759 
Q 1497 1759 1228 1600 
Q 959 1441 959 1056 
Q 959 750 1161 570 
Q 1363 391 1709 391 
Q 2188 391 2477 730 
Q 2766 1069 2766 1631 
L 2766 1759 
L 2194 1759 
z
M 3341 1997 
L 3341 0 
L 2766 0 
L 2766 531 
Q 2569 213 2275 61 
Q 1981 -91 1556 -91 
Q 1019 -91 701 211 
Q 384 513 384 1019 
Q 384 1609 779 1909 
Q 1175 2209 1959 2209 
L 2766 2209 
L 2766 2266 
Q 2766 2663 2505 2880 
Q 2244 3097 1772 3097 
Q 1472 3097 1187 3025 
Q 903 2953 641 2809 
L 641 3341 
Q 956 3463 1253 3523 
Q 1550 3584 1831 3584 
Q 2591 3584 2966 3190 
Q 3341 2797 3341 1997 
z
" transform="scale(0.015625)"/>
       <path id="DejaVuSans-69" d="M 603 3500 
L 1178 3500 
L 1178 0 
L 603 0 
L 603 3500 
z
M 603 4863 
L 1178 4863 
L 1178 4134 
L 603 4134 
L 603 4863 
z
" transform="scale(0.015625)"/>
       <path id="DejaVuSans-6c" d="M 603 4863 
L 1178 4863 
L 1178 0 
L 603 0 
L 603 4863 
z
" transform="scale(0.015625)"/>
       <path id="DejaVuSans-74" d="M 1172 4494 
L 1172 3500 
L 2356 3500 
L 2356 3053 
L 1172 3053 
L 1172 1153 
Q 1172 725 1289 603 
Q 1406 481 1766 481 
L 2356 481 
L 2356 0 
L 1766 0 
Q 1100 0 847 248 
Q 594 497 594 1153 
L 594 3053 
L 172 3053 
L 172 3500 
L 594 3500 
L 594 4494 
L 1172 4494 
z
" transform="scale(0.015625)"/>
       <path id="DejaVuSans-79" d="M 2059 -325 
Q 1816 -950 1584 -1140 
Q 1353 -1331 966 -1331 
L 506 -1331 
L 506 -850 
L 844 -850 
Q 1081 -850 1212 -737 
Q 1344 -625 1503 -206 
L 1606 56 
L 191 3500 
L 800 3500 
L 1894 763 
L 2988 3500 
L 3597 3500 
L 2059 -325 
z
" transform="scale(0.015625)"/>
       <path id="DejaVuSans-20" transform="scale(0.015625)"/>
       <path id="DejaVuSans-64" d="M 2906 2969 
L 2906 4863 
L 3481 4863 
L 3481 0 
L 2906 0 
L 2906 525 
Q 2725 213 2448 61 
Q 2172 -91 1784 -91 
Q 1150 -91 751 415 
Q 353 922 353 1747 
Q 353 2572 751 3078 
Q 1150 3584 1784 3584 
Q 2172 3584 2448 3432 
Q 2725 3281 2906 2969 
z
M 947 1747 
Q 947 1113 1208 752 
Q 1469 391 1925 391 
Q 2381 391 2643 752 
Q 2906 1113 2906 1747 
Q 2906 2381 2643 2742 
Q 2381 3103 1925 3103 
Q 1469 3103 1208 2742 
Q 947 2381 947 1747 
z
" transform="scale(0.015625)"/>
       <path id="DejaVuSans-65" d="M 3597 1894 
L 3597 1613 
L 953 1613 
Q 991 1019 1311 708 
Q 1631 397 2203 397 
Q 2534 397 2845 478 
Q 3156 559 3463 722 
L 3463 178 
Q 3153 47 2828 -22 
Q 2503 -91 2169 -91 
Q 1331 -91 842 396 
Q 353 884 353 1716 
Q 353 2575 817 3079 
Q 1281 3584 2069 3584 
Q 2775 3584 3186 3129 
Q 3597 2675 3597 1894 
z
M 3022 2063 
Q 3016 2534 2758 2815 
Q 2500 3097 2075 3097 
Q 1594 3097 1305 2825 
Q 1016 2553 972 2059 
L 3022 2063 
z
" transform="scale(0.015625)"/>
       <path id="DejaVuSans-6e" d="M 3513 2113 
L 3513 0 
L 2938 0 
L 2938 2094 
Q 2938 2591 2744 2837 
Q 2550 3084 2163 3084 
Q 1697 3084 1428 2787 
Q 1159 2491 1159 1978 
L 1159 0 
L 581 0 
L 581 3500 
L 1159 3500 
L 1159 2956 
Q 1366 3272 1645 3428 
Q 1925 3584 2291 3584 
Q 2894 3584 3203 3211 
Q 3513 2838 3513 2113 
z
" transform="scale(0.015625)"/>
       <path id="DejaVuSans-73" d="M 2834 3397 
L 2834 2853 
Q 2591 2978 2328 3040 
Q 2066 3103 1784 3103 
Q 1356 3103 1142 2972 
Q 928 2841 928 2578 
Q 928 2378 1081 2264 
Q 1234 2150 1697 2047 
L 1894 2003 
Q 2506 1872 2764 1633 
Q 3022 1394 3022 966 
Q 3022 478 2636 193 
Q 2250 -91 1575 -91 
Q 1294 -91 989 -36 
Q 684 19 347 128 
L 347 722 
Q 666 556 975 473 
Q 1284 391 1588 391 
Q 1994 391 2212 530 
Q 2431 669 2431 922 
Q 2431 1156 2273 1281 
Q 2116 1406 1581 1522 
L 1381 1569 
Q 847 1681 609 1914 
Q 372 2147 372 2553 
Q 372 3047 722 3315 
Q 1072 3584 1716 3584 
Q 2034 3584 2315 3537 
Q 2597 3491 2834 3397 
z
" transform="scale(0.015625)"/>
      </defs>
      <use xlink:href="#DejaVuSans-50"/>
      <use xlink:href="#DejaVuSans-72" x="58.552734"/>
      <use xlink:href="#DejaVuSans-6f" x="97.416016"/>
      <use xlink:href="#DejaVuSans-62" x="158.597656"/>
      <use xlink:href="#DejaVuSans-61" x="222.074219"/>
      <use xlink:href="#DejaVuSans-62" x="283.353516"/>
      <use xlink:href="#DejaVuSans-69" x="346.830078"/>
      <use xlink:href="#DejaVuSans-6c" x="374.613281"/>
      <use xlink:href="#DejaVuSans-69" x="402.396484"/>
      <use xlink:href="#DejaVuSans-74" x="430.179688"/>
      <use xlink:href="#DejaVuSans-79" x="469.388672"/>
      <use xlink:href="#DejaVuSans-20" x="528.568359"/>
      <use xlink:href="#DejaVuSans-64" x="560.355469"/>
      <use xlink:href="#DejaVuSans-65" x="623.832031"/>
      <use xlink:href="#DejaVuSans-6e" x="685.355469"/>
      <use xlink:href="#DejaVuSans-73" x="748.734375"/>
      <use xlink:href="#DejaVuSans-69" x="800.833984"/>
      <use xlink:href="#DejaVuSans-74" x="828.617188"/>
      <use xlink:href="#DejaVuSans-79" x="867.826172"/>
     </g>
    </g>
   </g>
   <g id="line2d_33">
    <path d="M 90 320.4 
L 92.010811 320.285299 
L 94.021622 319.946726 
L 96.032432 319.392495 
L 98.043243 318.630722 
L 100.389189 317.490365 
L 102.735135 316.090982 
L 105.081081 314.44494 
L 107.762162 312.277338 
L 110.443243 309.821363 
L 113.459459 306.735558 
L 116.475676 303.331545 
L 119.827027 299.205304 
L 123.513514 294.285377 
L 127.535135 288.510503 
L 131.891892 281.833762 
L 136.583784 274.226703 
L 141.945946 265.101586 
L 148.313514 253.815862 
L 157.362162 237.269138 
L 175.124324 204.697068 
L 182.162162 192.312454 
L 188.194595 182.136028 
L 193.556757 173.514297 
L 198.583784 165.852512 
L 203.275676 159.112502 
L 207.632432 153.241437 
L 211.654054 148.176716 
L 215.675676 143.472191 
L 219.362162 139.491096 
L 223.048649 135.83966 
L 226.4 132.815644 
L 229.751351 130.080861 
L 233.102703 127.642097 
L 236.118919 125.705289 
L 239.135135 124.016979 
L 242.151351 122.580502 
L 245.167568 121.398685 
L 248.183784 120.473845 
L 250.864865 119.868974 
L 253.545946 119.469516 
L 256.227027 119.276088 
L 258.908108 119.288986 
L 261.589189 119.508191 
L 264.27027 119.933366 
L 266.951351 120.563854 
L 269.967568 121.517346 
L 272.983784 122.727582 
L 276 124.192189 
L 279.016216 125.908284 
L 282.032432 127.872475 
L 285.383784 130.341124 
L 288.735135 133.105149 
L 292.086486 136.157685 
L 295.772973 139.839567 
L 299.459459 143.85004 
L 303.145946 148.176716 
L 307.167568 153.241437 
L 311.524324 159.112502 
L 315.881081 165.357451 
L 320.572973 172.46803 
L 325.6 180.486875 
L 331.297297 190.011952 
L 337.664865 201.111121 
L 345.372973 215.016888 
L 361.459459 244.671731 
L 369.837838 259.80664 
L 376.205405 270.853141 
L 381.567568 279.701134 
L 386.259459 287.006296 
L 390.281081 292.879593 
L 393.967568 297.901446 
L 397.318919 302.130328 
L 400.67027 306.005756 
L 403.686486 309.164376 
L 406.702703 311.985748 
L 409.383784 314.190368 
L 412.064865 316.090982 
L 414.410811 317.490365 
L 416.756757 318.630722 
L 419.102703 319.499497 
L 421.113514 320.018351 
L 423.124324 320.320186 
L 424.8 320.4 
L 424.8 320.4 
" clip-path="url(#p31e3119566)" style="fill: none; stroke: #1f77b4; stroke-width: 1.5; stroke-linecap: square"/>
   </g>
   <g id="line2d_34">
    <path d="M 90 320.4 
L 90.335135 311.761368 
L 91.005405 305.45245 
L 92.010811 299.292832 
L 93.016216 294.588184 
L 94.356757 289.440792 
L 96.032432 284.062883 
L 97.708108 279.429757 
L 99.718919 274.536777 
L 102.064865 269.485193 
L 104.410811 264.95749 
L 107.091892 260.273079 
L 110.108108 255.493509 
L 113.124324 251.129914 
L 116.475676 246.679687 
L 120.162162 242.186287 
L 123.848649 238.047163 
L 127.87027 233.876159 
L 131.891892 230.016234 
L 136.248649 226.141434 
L 140.940541 222.283238 
L 145.632432 218.71515 
L 150.659459 215.180642 
L 155.686486 211.916043 
L 161.048649 208.704672 
L 166.410811 205.749931 
L 172.108108 202.870084 
L 177.805405 200.238844 
L 183.837838 197.706044 
L 189.87027 195.418178 
L 195.902703 193.362013 
L 202.27027 191.430756 
L 208.637838 189.734421 
L 215.005405 188.263959 
L 221.372973 187.011899 
L 228.075676 185.923199 
L 234.778378 185.06407 
L 241.481081 184.430159 
L 248.183784 184.018326 
L 254.886486 183.826563 
L 261.589189 183.853941 
L 268.291892 184.100593 
L 274.994595 184.567714 
L 281.697297 185.257589 
L 288.4 186.173654 
L 295.102703 187.320579 
L 301.47027 188.629468 
L 307.837838 190.158586 
L 314.205405 191.915796 
L 320.572973 193.910603 
L 326.605405 196.029932 
L 332.637838 198.384406 
L 338.67027 200.987931 
L 344.367568 203.690497 
L 350.064865 206.646963 
L 355.427027 209.679644 
L 360.789189 212.975814 
L 365.816216 216.327506 
L 370.843243 219.958161 
L 375.535135 223.626115 
L 379.891892 227.30204 
L 384.248649 231.270873 
L 388.27027 235.229742 
L 392.291892 239.514841 
L 395.978378 243.776087 
L 399.32973 247.975191 
L 402.681081 252.543337 
L 405.697297 257.036 
L 408.378378 261.401693 
L 411.059459 266.205603 
L 413.405405 270.868347 
L 415.416216 275.311235 
L 417.427027 280.30979 
L 419.102703 285.068676 
L 420.443243 289.440792 
L 421.783784 294.588184 
L 422.789189 299.292832 
L 423.459459 303.148723 
L 424.12973 308.189251 
L 424.464865 311.761368 
L 424.8 320.4 
L 424.8 320.4 
" clip-path="url(#p31e3119566)" style="fill: none; stroke: #ff7f0e; stroke-width: 1.5; stroke-linecap: square"/>
   </g>
   <g id="line2d_35">
    <path d="M 90 320.4 
L 102.4 320.290647 
L 107.091892 320.027749 
L 111.113514 319.576265 
L 114.464865 318.977484 
L 117.481081 318.222017 
L 120.497297 317.224364 
L 123.178378 316.106292 
L 125.859459 314.746515 
L 128.540541 313.123506 
L 131.221622 311.217549 
L 133.902703 309.010994 
L 136.583784 306.488475 
L 139.264865 303.637089 
L 141.945946 300.446536 
L 144.627027 296.90923 
L 147.308108 293.020374 
L 150.324324 288.222866 
L 153.340541 282.979549 
L 156.356757 277.296498 
L 159.708108 270.479262 
L 163.059459 263.153118 
L 166.745946 254.539267 
L 170.767568 244.530588 
L 175.124324 233.046224 
L 179.816216 220.046988 
L 185.513514 203.586237 
L 193.891892 178.610069 
L 204.616216 146.744865 
L 210.313514 130.546146 
L 215.005405 117.88631 
L 219.027027 107.665401 
L 222.713514 98.901026 
L 226.064865 91.50061 
L 229.081081 85.34716 
L 232.097297 79.710839 
L 234.778378 75.161331 
L 237.459459 71.067056 
L 239.805405 67.872819 
L 242.151351 65.052772 
L 244.162162 62.940978 
L 246.172973 61.116888 
L 248.183784 59.58523 
L 250.194595 58.349974 
L 252.205405 57.414327 
L 253.881081 56.865263 
L 255.556757 56.526951 
L 257.232432 56.4 
L 258.908108 56.484639 
L 260.583784 56.780716 
L 262.259459 57.287696 
L 263.935135 58.004666 
L 265.610811 58.930333 
L 267.621622 60.314239 
L 269.632432 61.992657 
L 271.643243 63.961237 
L 273.654054 66.214877 
L 276 69.196585 
L 278.345946 72.547823 
L 281.027027 76.815125 
L 283.708108 81.53008 
L 286.389189 86.671109 
L 289.405405 92.934754 
L 292.756757 100.4479 
L 296.443243 109.323603 
L 300.464865 119.649821 
L 304.821622 131.476514 
L 309.848649 145.772127 
L 316.551351 165.547365 
L 332.972973 214.30962 
L 338.335135 229.393297 
L 343.027027 241.93629 
L 347.048649 252.094587 
L 350.735135 260.859948 
L 354.421622 269.053964 
L 357.772973 275.974858 
L 361.124324 282.369659 
L 364.140541 287.662219 
L 367.156757 292.50942 
L 370.172973 296.90923 
L 372.854054 300.446536 
L 375.535135 303.637089 
L 378.216216 306.488475 
L 380.897297 309.010994 
L 383.578378 311.217549 
L 386.259459 313.123506 
L 388.940541 314.746515 
L 391.621622 316.106292 
L 394.302703 317.224364 
L 397.318919 318.222017 
L 400.335135 318.977484 
L 403.686486 319.576265 
L 407.372973 319.999378 
L 411.72973 320.266136 
L 417.762162 320.387879 
L 424.8 320.4 
L 424.8 320.4 
" clip-path="url(#p31e3119566)" style="fill: none; stroke: #2ca02c; stroke-width: 1.5; stroke-linecap: square"/>
   </g>
   <g id="line2d_36">
    <path d="M 90 320.4 
L 102.4 320.295033 
L 109.437838 320.0045 
L 115.47027 319.527198 
L 120.832432 318.878598 
L 125.859459 318.046093 
L 130.551351 317.049391 
L 135.243243 315.820815 
L 139.6 314.457245 
L 143.956757 312.866535 
L 148.313514 311.037867 
L 152.67027 308.961898 
L 157.027027 306.630762 
L 161.383784 304.038072 
L 165.740541 301.178913 
L 170.097297 298.049851 
L 174.454054 294.648926 
L 178.810811 290.975655 
L 183.502703 286.716421 
L 188.194595 282.145662 
L 192.886486 277.268521 
L 197.913514 271.711162 
L 202.940541 265.821598 
L 208.302703 259.18896 
L 214 251.767638 
L 220.032432 243.520684 
L 226.4 234.423837 
L 233.437838 223.9637 
L 241.481081 211.58826 
L 251.87027 195.153898 
L 274.659459 158.961938 
L 282.032432 147.757947 
L 288.064865 138.975585 
L 293.427027 131.546401 
L 298.118919 125.397703 
L 302.475676 120.029508 
L 306.497297 115.404001 
L 310.183784 111.472628 
L 313.87027 107.864977 
L 317.221622 104.890093 
L 320.572973 102.228092 
L 323.589189 100.118308 
L 326.605405 98.296783 
L 329.286486 96.9334 
L 331.967568 95.823408 
L 334.313514 95.069762 
L 336.659459 94.528041 
L 339.005405 94.206806 
L 341.351351 94.114741 
L 343.697297 94.260655 
L 346.043243 94.65348 
L 348.389189 95.302274 
L 350.735135 96.216218 
L 353.081081 97.404618 
L 355.427027 98.876902 
L 357.772973 100.642625 
L 360.118919 102.711463 
L 362.464865 105.093219 
L 364.810811 107.79782 
L 367.156757 110.835314 
L 369.502703 114.215876 
L 371.848649 117.949804 
L 374.52973 122.663221 
L 377.210811 127.86755 
L 379.891892 133.578761 
L 382.572973 139.813034 
L 385.254054 146.586759 
L 387.935135 153.91654 
L 390.951351 162.848149 
L 393.967568 172.529066 
L 396.983784 182.983893 
L 400 194.23757 
L 403.016216 206.315377 
L 406.032432 219.242932 
L 409.383784 234.635085 
L 412.735135 251.144465 
L 416.086486 268.807687 
L 419.437838 287.661886 
L 422.789189 307.744709 
L 424.8 320.4 
L 424.8 320.4 
" clip-path="url(#p31e3119566)" style="fill: none; stroke: #d62728; stroke-width: 1.5; stroke-linecap: square"/>
   </g>
   <g id="patch_3">
    <path d="M 90 320.4 
L 90 43.2 
" style="fill: none; stroke: #000000; stroke-width: 0.8; stroke-linejoin: miter; stroke-linecap: square"/>
   </g>
   <g id="patch_4">
    <path d="M 424.8 320.4 
L 424.8 43.2 
" style="fill: none; stroke: #000000; stroke-width: 0.8; stroke-linejoin: miter; stroke-linecap: square"/>
   </g>
   <g id="patch_5">
    <path d="M 90 320.4 
L 424.8 320.4 
" style="fill: none; stroke: #000000; stroke-width: 0.8; stroke-linejoin: miter; stroke-linecap: square"/>
   </g>
   <g id="patch_6">
    <path d="M 90 43.2 
L 424.8 43.2 
" style="fill: none; stroke: #000000; stroke-width: 0.8; stroke-linejoin: miter; stroke-linecap: square"/>
   </g>
   <g id="text_19">
    <!-- PERT Distribution -->
    <g transform="translate(205.682812 37.2) scale(0.12 -0.12)">
     <defs>
      <path id="DejaVuSans-45" d="M 628 4666 
L 3578 4666 
L 3578 4134 
L 1259 4134 
L 1259 2753 
L 3481 2753 
L 3481 2222 
L 1259 2222 
L 1259 531 
L 3634 531 
L 3634 0 
L 628 0 
L 628 4666 
z
" transform="scale(0.015625)"/>
      <path id="DejaVuSans-52" d="M 2841 2188 
Q 3044 2119 3236 1894 
Q 3428 1669 3622 1275 
L 4263 0 
L 3584 0 
L 2988 1197 
Q 2756 1666 2539 1819 
Q 2322 1972 1947 1972 
L 1259 1972 
L 1259 0 
L 628 0 
L 628 4666 
L 2053 4666 
Q 2853 4666 3247 4331 
Q 3641 3997 3641 3322 
Q 3641 2881 3436 2590 
Q 3231 2300 2841 2188 
z
M 1259 4147 
L 1259 2491 
L 2053 2491 
Q 2509 2491 2742 2702 
Q 2975 2913 2975 3322 
Q 2975 3731 2742 3939 
Q 2509 4147 2053 4147 
L 1259 4147 
z
" transform="scale(0.015625)"/>
      <path id="DejaVuSans-54" d="M -19 4666 
L 3928 4666 
L 3928 4134 
L 2272 4134 
L 2272 0 
L 1638 0 
L 1638 4134 
L -19 4134 
L -19 4666 
z
" transform="scale(0.015625)"/>
      <path id="DejaVuSans-44" d="M 1259 4147 
L 1259 519 
L 2022 519 
Q 2988 519 3436 956 
Q 3884 1394 3884 2338 
Q 3884 3275 3436 3711 
Q 2988 4147 2022 4147 
L 1259 4147 
z
M 628 4666 
L 1925 4666 
Q 3281 4666 3915 4102 
Q 4550 3538 4550 2338 
Q 4550 1131 3912 565 
Q 3275 0 1925 0 
L 628 0 
L 628 4666 
z
" transform="scale(0.015625)"/>
      <path id="DejaVuSans-75" d="M 544 1381 
L 544 3500 
L 1119 3500 
L 1119 1403 
Q 1119 906 1312 657 
Q 1506 409 1894 409 
Q 2359 409 2629 706 
Q 2900 1003 2900 1516 
L 2900 3500 
L 3475 3500 
L 3475 0 
L 2900 0 
L 2900 538 
Q 2691 219 2414 64 
Q 2138 -91 1772 -91 
Q 1169 -91 856 284 
Q 544 659 544 1381 
z
M 1991 3584 
L 1991 3584 
z
" transform="scale(0.015625)"/>
     </defs>
     <use xlink:href="#DejaVuSans-50"/>
     <use xlink:href="#DejaVuSans-45" x="60.302734"/>
     <use xlink:href="#DejaVuSans-52" x="123.486328"/>
     <use xlink:href="#DejaVuSans-54" x="185.71875"/>
     <use xlink:href="#DejaVuSans-20" x="246.802734"/>
     <use xlink:href="#DejaVuSans-44" x="278.589844"/>
     <use xlink:href="#DejaVuSans-69" x="355.591797"/>
     <use xlink:href="#DejaVuSans-73" x="383.375"/>
     <use xlink:href="#DejaVuSans-74" x="435.474609"/>
     <use xlink:href="#DejaVuSans-72" x="474.683594"/>
     <use xlink:href="#DejaVuSans-69" x="515.796875"/>
     <use xlink:href="#DejaVuSans-62" x="543.580078"/>
     <use xlink:href="#DejaVuSans-75" x="607.056641"/>
     <use xlink:href="#DejaVuSans-74" x="670.435547"/>
     <use xlink:href="#DejaVuSans-69" x="709.644531"/>
     <use xlink:href="#DejaVuSans-6f" x="737.427734"/>
     <use xlink:href="#DejaVuSans-6e" x="798.609375"/>
    </g>
   </g>
   <g id="legend_1">
    <g id="patch_7">
     <path d="M 431.8 220.7925 
L 679.592187 220.7925 
Q 681.592187 220.7925 681.592187 218.7925 
L 681.592187 161.08 
Q 681.592187 159.08 679.592187 159.08 
L 431.8 159.08 
Q 429.8 159.08 429.8 161.08 
L 429.8 218.7925 
Q 429.8 220.7925 431.8 220.7925 
z
" style="fill: #ffffff; opacity: 0.8; stroke: #cccccc; stroke-linejoin: miter"/>
    </g>
    <g id="line2d_37">
     <path d="M 433.8 167.178437 
L 443.8 167.178437 
L 453.8 167.178437 
" style="fill: none; stroke: #1f77b4; stroke-width: 1.5; stroke-linecap: square"/>
    </g>
    <g id="text_20">
     <!-- min = -1, mode = 0, max = 1, shape = 4 -->
     <g transform="translate(461.8 170.678437) scale(0.1 -0.1)">
      <defs>
       <path id="DejaVuSans-6d" d="M 3328 2828 
Q 3544 3216 3844 3400 
Q 4144 3584 4550 3584 
Q 5097 3584 5394 3201 
Q 5691 2819 5691 2113 
L 5691 0 
L 5113 0 
L 5113 2094 
Q 5113 2597 4934 2840 
Q 4756 3084 4391 3084 
Q 3944 3084 3684 2787 
Q 3425 2491 3425 1978 
L 3425 0 
L 2847 0 
L 2847 2094 
Q 2847 2600 2669 2842 
Q 2491 3084 2119 3084 
Q 1678 3084 1418 2786 
Q 1159 2488 1159 1978 
L 1159 0 
L 581 0 
L 581 3500 
L 1159 3500 
L 1159 2956 
Q 1356 3278 1631 3431 
Q 1906 3584 2284 3584 
Q 2666 3584 2933 3390 
Q 3200 3197 3328 2828 
z
" transform="scale(0.015625)"/>
       <path id="DejaVuSans-3d" d="M 678 2906 
L 4684 2906 
L 4684 2381 
L 678 2381 
L 678 2906 
z
M 678 1631 
L 4684 1631 
L 4684 1100 
L 678 1100 
L 678 1631 
z
" transform="scale(0.015625)"/>
       <path id="DejaVuSans-2d" d="M 313 2009 
L 1997 2009 
L 1997 1497 
L 313 1497 
L 313 2009 
z
" transform="scale(0.015625)"/>
       <path id="DejaVuSans-2c" d="M 750 794 
L 1409 794 
L 1409 256 
L 897 -744 
L 494 -744 
L 750 256 
L 750 794 
z
" transform="scale(0.015625)"/>
       <path id="DejaVuSans-68" d="M 3513 2113 
L 3513 0 
L 2938 0 
L 2938 2094 
Q 2938 2591 2744 2837 
Q 2550 3084 2163 3084 
Q 1697 3084 1428 2787 
Q 1159 2491 1159 1978 
L 1159 0 
L 581 0 
L 581 4863 
L 1159 4863 
L 1159 2956 
Q 1366 3272 1645 3428 
Q 1925 3584 2291 3584 
Q 2894 3584 3203 3211 
Q 3513 2838 3513 2113 
z
" transform="scale(0.015625)"/>
       <path id="DejaVuSans-70" d="M 1159 525 
L 1159 -1331 
L 581 -1331 
L 581 3500 
L 1159 3500 
L 1159 2969 
Q 1341 3281 1617 3432 
Q 1894 3584 2278 3584 
Q 2916 3584 3314 3078 
Q 3713 2572 3713 1747 
Q 3713 922 3314 415 
Q 2916 -91 2278 -91 
Q 1894 -91 1617 61 
Q 1341 213 1159 525 
z
M 3116 1747 
Q 3116 2381 2855 2742 
Q 2594 3103 2138 3103 
Q 1681 3103 1420 2742 
Q 1159 2381 1159 1747 
Q 1159 1113 1420 752 
Q 1681 391 2138 391 
Q 2594 391 2855 752 
Q 3116 1113 3116 1747 
z
" transform="scale(0.015625)"/>
      </defs>
      <use xlink:href="#DejaVuSans-6d"/>
      <use xlink:href="#DejaVuSans-69" x="97.412109"/>
      <use xlink:href="#DejaVuSans-6e" x="125.195312"/>
      <use xlink:href="#DejaVuSans-20" x="188.574219"/>
      <use xlink:href="#DejaVuSans-3d" x="220.361328"/>
      <use xlink:href="#DejaVuSans-20" x="304.150391"/>
      <use xlink:href="#DejaVuSans-2d" x="335.9375"/>
      <use xlink:href="#DejaVuSans-31" x="372.021484"/>
      <use xlink:href="#DejaVuSans-2c" x="435.644531"/>
      <use xlink:href="#DejaVuSans-20" x="467.431641"/>
      <use xlink:href="#DejaVuSans-6d" x="499.21875"/>
      <use xlink:href="#DejaVuSans-6f" x="596.630859"/>
      <use xlink:href="#DejaVuSans-64" x="657.8125"/>
      <use xlink:href="#DejaVuSans-65" x="721.289062"/>
      <use xlink:href="#DejaVuSans-20" x="782.8125"/>
      <use xlink:href="#DejaVuSans-3d" x="814.599609"/>
      <use xlink:href="#DejaVuSans-20" x="898.388672"/>
      <use xlink:href="#DejaVuSans-30" x="930.175781"/>
      <use xlink:href="#DejaVuSans-2c" x="993.798828"/>
      <use xlink:href="#DejaVuSans-20" x="1025.585938"/>
      <use xlink:href="#DejaVuSans-6d" x="1057.373047"/>
      <use xlink:href="#DejaVuSans-61" x="1154.785156"/>
      <use xlink:href="#DejaVuSans-78" x="1216.064453"/>
      <use xlink:href="#DejaVuSans-20" x="1275.244141"/>
      <use xlink:href="#DejaVuSans-3d" x="1307.03125"/>
      <use xlink:href="#DejaVuSans-20" x="1390.820312"/>
      <use xlink:href="#DejaVuSans-31" x="1422.607422"/>
      <use xlink:href="#DejaVuSans-2c" x="1486.230469"/>
      <use xlink:href="#DejaVuSans-20" x="1518.017578"/>
      <use xlink:href="#DejaVuSans-73" x="1549.804688"/>
      <use xlink:href="#DejaVuSans-68" x="1601.904297"/>
      <use xlink:href="#DejaVuSans-61" x="1665.283203"/>
      <use xlink:href="#DejaVuSans-70" x="1726.5625"/>
      <use xlink:href="#DejaVuSans-65" x="1790.039062"/>
      <use xlink:href="#DejaVuSans-20" x="1851.5625"/>
      <use xlink:href="#DejaVuSans-3d" x="1883.349609"/>
      <use xlink:href="#DejaVuSans-20" x="1967.138672"/>
      <use xlink:href="#DejaVuSans-34" x="1998.925781"/>
     </g>
    </g>
    <g id="line2d_38">
     <path d="M 433.8 181.856562 
L 443.8 181.856562 
L 453.8 181.856562 
" style="fill: none; stroke: #ff7f0e; stroke-width: 1.5; stroke-linecap: square"/>
    </g>
    <g id="text_21">
     <!-- min = -1, mode = 0, max = 1, shape = 1 -->
     <g transform="translate(461.8 185.356562) scale(0.1 -0.1)">
      <use xlink:href="#DejaVuSans-6d"/>
      <use xlink:href="#DejaVuSans-69" x="97.412109"/>
      <use xlink:href="#DejaVuSans-6e" x="125.195312"/>
      <use xlink:href="#DejaVuSans-20" x="188.574219"/>
      <use xlink:href="#DejaVuSans-3d" x="220.361328"/>
      <use xlink:href="#DejaVuSans-20" x="304.150391"/>
      <use xlink:href="#DejaVuSans-2d" x="335.9375"/>
      <use xlink:href="#DejaVuSans-31" x="372.021484"/>
      <use xlink:href="#DejaVuSans-2c" x="435.644531"/>
      <use xlink:href="#DejaVuSans-20" x="467.431641"/>
      <use xlink:href="#DejaVuSans-6d" x="499.21875"/>
      <use xlink:href="#DejaVuSans-6f" x="596.630859"/>
      <use xlink:href="#DejaVuSans-64" x="657.8125"/>
      <use xlink:href="#DejaVuSans-65" x="721.289062"/>
      <use xlink:href="#DejaVuSans-20" x="782.8125"/>
      <use xlink:href="#DejaVuSans-3d" x="814.599609"/>
      <use xlink:href="#DejaVuSans-20" x="898.388672"/>
      <use xlink:href="#DejaVuSans-30" x="930.175781"/>
      <use xlink:href="#DejaVuSans-2c" x="993.798828"/>
      <use xlink:href="#DejaVuSans-20" x="1025.585938"/>
      <use xlink:href="#DejaVuSans-6d" x="1057.373047"/>
      <use xlink:href="#DejaVuSans-61" x="1154.785156"/>
      <use xlink:href="#DejaVuSans-78" x="1216.064453"/>
      <use xlink:href="#DejaVuSans-20" x="1275.244141"/>
      <use xlink:href="#DejaVuSans-3d" x="1307.03125"/>
      <use xlink:href="#DejaVuSans-20" x="1390.820312"/>
      <use xlink:href="#DejaVuSans-31" x="1422.607422"/>
      <use xlink:href="#DejaVuSans-2c" x="1486.230469"/>
      <use xlink:href="#DejaVuSans-20" x="1518.017578"/>
      <use xlink:href="#DejaVuSans-73" x="1549.804688"/>
      <use xlink:href="#DejaVuSans-68" x="1601.904297"/>
      <use xlink:href="#DejaVuSans-61" x="1665.283203"/>
      <use xlink:href="#DejaVuSans-70" x="1726.5625"/>
      <use xlink:href="#DejaVuSans-65" x="1790.039062"/>
      <use xlink:href="#DejaVuSans-20" x="1851.5625"/>
      <use xlink:href="#DejaVuSans-3d" x="1883.349609"/>
      <use xlink:href="#DejaVuSans-20" x="1967.138672"/>
      <use xlink:href="#DejaVuSans-31" x="1998.925781"/>
     </g>
    </g>
    <g id="line2d_39">
     <path d="M 433.8 196.534687 
L 443.8 196.534687 
L 453.8 196.534687 
" style="fill: none; stroke: #2ca02c; stroke-width: 1.5; stroke-linecap: square"/>
    </g>
    <g id="text_22">
     <!-- min = -1, mode = 0, max = 1, shape = 8 -->
     <g transform="translate(461.8 200.034687) scale(0.1 -0.1)">
      <use xlink:href="#DejaVuSans-6d"/>
      <use xlink:href="#DejaVuSans-69" x="97.412109"/>
      <use xlink:href="#DejaVuSans-6e" x="125.195312"/>
      <use xlink:href="#DejaVuSans-20" x="188.574219"/>
      <use xlink:href="#DejaVuSans-3d" x="220.361328"/>
      <use xlink:href="#DejaVuSans-20" x="304.150391"/>
      <use xlink:href="#DejaVuSans-2d" x="335.9375"/>
      <use xlink:href="#DejaVuSans-31" x="372.021484"/>
      <use xlink:href="#DejaVuSans-2c" x="435.644531"/>
      <use xlink:href="#DejaVuSans-20" x="467.431641"/>
      <use xlink:href="#DejaVuSans-6d" x="499.21875"/>
      <use xlink:href="#DejaVuSans-6f" x="596.630859"/>
      <use xlink:href="#DejaVuSans-64" x="657.8125"/>
      <use xlink:href="#DejaVuSans-65" x="721.289062"/>
      <use xlink:href="#DejaVuSans-20" x="782.8125"/>
      <use xlink:href="#DejaVuSans-3d" x="814.599609"/>
      <use xlink:href="#DejaVuSans-20" x="898.388672"/>
      <use xlink:href="#DejaVuSans-30" x="930.175781"/>
      <use xlink:href="#DejaVuSans-2c" x="993.798828"/>
      <use xlink:href="#DejaVuSans-20" x="1025.585938"/>
      <use xlink:href="#DejaVuSans-6d" x="1057.373047"/>
      <use xlink:href="#DejaVuSans-61" x="1154.785156"/>
      <use xlink:href="#DejaVuSans-78" x="1216.064453"/>
      <use xlink:href="#DejaVuSans-20" x="1275.244141"/>
      <use xlink:href="#DejaVuSans-3d" x="1307.03125"/>
      <use xlink:href="#DejaVuSans-20" x="1390.820312"/>
      <use xlink:href="#DejaVuSans-31" x="1422.607422"/>
      <use xlink:href="#DejaVuSans-2c" x="1486.230469"/>
      <use xlink:href="#DejaVuSans-20" x="1518.017578"/>
      <use xlink:href="#DejaVuSans-73" x="1549.804688"/>
      <use xlink:href="#DejaVuSans-68" x="1601.904297"/>
      <use xlink:href="#DejaVuSans-61" x="1665.283203"/>
      <use xlink:href="#DejaVuSans-70" x="1726.5625"/>
      <use xlink:href="#DejaVuSans-65" x="1790.039062"/>
      <use xlink:href="#DejaVuSans-20" x="1851.5625"/>
      <use xlink:href="#DejaVuSans-3d" x="1883.349609"/>
      <use xlink:href="#DejaVuSans-20" x="1967.138672"/>
      <use xlink:href="#DejaVuSans-38" x="1998.925781"/>
     </g>
    </g>
    <g id="line2d_40">
     <path d="M 433.8 211.212812 
L 443.8 211.212812 
L 453.8 211.212812 
" style="fill: none; stroke: #d62728; stroke-width: 1.5; stroke-linecap: square"/>
    </g>
    <g id="text_23">
     <!-- min = -1, mode = 0.5, max = 1, shape = 4 -->
     <g transform="translate(461.8 214.712812) scale(0.1 -0.1)">
      <use xlink:href="#DejaVuSans-6d"/>
      <use xlink:href="#DejaVuSans-69" x="97.412109"/>
      <use xlink:href="#DejaVuSans-6e" x="125.195312"/>
      <use xlink:href="#DejaVuSans-20" x="188.574219"/>
      <use xlink:href="#DejaVuSans-3d" x="220.361328"/>
      <use xlink:href="#DejaVuSans-20" x="304.150391"/>
      <use xlink:href="#DejaVuSans-2d" x="335.9375"/>
      <use xlink:href="#DejaVuSans-31" x="372.021484"/>
      <use xlink:href="#DejaVuSans-2c" x="435.644531"/>
      <use xlink:href="#DejaVuSans-20" x="467.431641"/>
      <use xlink:href="#DejaVuSans-6d" x="499.21875"/>
      <use xlink:href="#DejaVuSans-6f" x="596.630859"/>
      <use xlink:href="#DejaVuSans-64" x="657.8125"/>
      <use xlink:href="#DejaVuSans-65" x="721.289062"/>
      <use xlink:href="#DejaVuSans-20" x="782.8125"/>
      <use xlink:href="#DejaVuSans-3d" x="814.599609"/>
      <use xlink:href="#DejaVuSans-20" x="898.388672"/>
      <use xlink:href="#DejaVuSans-30" x="930.175781"/>
      <use xlink:href="#DejaVuSans-2e" x="993.798828"/>
      <use xlink:href="#DejaVuSans-35" x="1025.585938"/>
      <use xlink:href="#DejaVuSans-2c" x="1089.208984"/>
      <use xlink:href="#DejaVuSans-20" x="1120.996094"/>
      <use xlink:href="#DejaVuSans-6d" x="1152.783203"/>
      <use xlink:href="#DejaVuSans-61" x="1250.195312"/>
      <use xlink:href="#DejaVuSans-78" x="1311.474609"/>
      <use xlink:href="#DejaVuSans-20" x="1370.654297"/>
      <use xlink:href="#DejaVuSans-3d" x="1402.441406"/>
      <use xlink:href="#DejaVuSans-20" x="1486.230469"/>
      <use xlink:href="#DejaVuSans-31" x="1518.017578"/>
      <use xlink:href="#DejaVuSans-2c" x="1581.640625"/>
      <use xlink:href="#DejaVuSans-20" x="1613.427734"/>
      <use xlink:href="#DejaVuSans-73" x="1645.214844"/>
      <use xlink:href="#DejaVuSans-68" x="1697.314453"/>
      <use xlink:href="#DejaVuSans-61" x="1760.693359"/>
      <use xlink:href="#DejaVuSans-70" x="1821.972656"/>
      <use xlink:href="#DejaVuSans-65" x="1885.449219"/>
      <use xlink:href="#DejaVuSans-20" x="1946.972656"/>
      <use xlink:href="#DejaVuSans-3d" x="1978.759766"/>
      <use xlink:href="#DejaVuSans-20" x="2062.548828"/>
      <use xlink:href="#DejaVuSans-34" x="2094.335938"/>
     </g>
    </g>
   </g>
  </g>
 </g>
 <defs>
  <clipPath id="p31e3119566">
   <rect x="90" y="43.2" width="334.8" height="277.2"/>
  </clipPath>
 </defs>
</svg>
