<?xml version="1.0" encoding="utf-8" standalone="no"?>
<!DOCTYPE svg PUBLIC "-//W3C//DTD SVG 1.1//EN"
  "http://www.w3.org/Graphics/SVG/1.1/DTD/svg11.dtd">
<svg xmlns:xlink="http://www.w3.org/1999/xlink" width="720pt" height="360pt" viewBox="0 0 720 360" xmlns="http://www.w3.org/2000/svg" version="1.1">
 <metadata>
  <rdf:RDF xmlns:dc="http://purl.org/dc/elements/1.1/" xmlns:cc="http://creativecommons.org/ns#" xmlns:rdf="http://www.w3.org/1999/02/22-rdf-syntax-ns#">
   <cc:Work>
    <dc:type rdf:resource="http://purl.org/dc/dcmitype/StillImage"/>
    <dc:date>2024-04-17T14:48:53.614393</dc:date>
    <dc:format>image/svg+xml</dc:format>
    <dc:creator>
     <cc:Agent>
      <dc:title>Matplotlib v3.8.4, https://matplotlib.org/</dc:title>
     </cc:Agent>
    </dc:creator>
   </cc:Work>
  </rdf:RDF>
 </metadata>
 <defs>
  <style type="text/css">*{stroke-linejoin: round; stroke-linecap: butt}</style>
 </defs>
 <g id="figure_1">
  <g id="patch_1">
   <path d="M 0 360 
L 720 360 
L 720 0 
L 0 0 
z
" style="fill: #ffffff"/>
  </g>
  <g id="axes_1">
   <g id="patch_2">
    <path d="M 90 320.4 
L 424.8 320.4 
L 424.8 43.2 
L 90 43.2 
z
" style="fill: #ffffff"/>
   </g>
   <g id="matplotlib.axis_1">
    <g id="xtick_1">
     <g id="line2d_1">
      <defs>
       <path id="mb355807cef" d="M 0 0 
L 0 3.5 
" style="stroke: #000000; stroke-width: 0.8"/>
      </defs>
      <g>
       <use xlink:href="#mb355807cef" x="105.218182" y="320.4" style="stroke: #000000; stroke-width: 0.8"/>
      </g>
     </g>
     <g id="text_1">
      <!-- −1.5 -->
      <g transform="translate(93.076776 334.998438) scale(0.1 -0.1)">
       <defs>
        <path id="DejaVuSans-2212" d="M 678 2272 
L 4684 2272 
L 4684 1741 
L 678 1741 
L 678 2272 
z
" transform="scale(0.015625)"/>
        <path id="DejaVuSans-31" d="M 794 531 
L 1825 531 
L 1825 4091 
L 703 3866 
L 703 4441 
L 1819 4666 
L 2450 4666 
L 2450 531 
L 3481 531 
L 3481 0 
L 794 0 
L 794 531 
z
" transform="scale(0.015625)"/>
        <path id="DejaVuSans-2e" d="M 684 794 
L 1344 794 
L 1344 0 
L 684 0 
L 684 794 
z
" transform="scale(0.015625)"/>
        <path id="DejaVuSans-35" d="M 691 4666 
L 3169 4666 
L 3169 4134 
L 1269 4134 
L 1269 2991 
Q 1406 3038 1543 3061 
Q 1681 3084 1819 3084 
Q 2600 3084 3056 2656 
Q 3513 2228 3513 1497 
Q 3513 744 3044 326 
Q 2575 -91 1722 -91 
Q 1428 -91 1123 -41 
Q 819 9 494 109 
L 494 744 
Q 775 591 1075 516 
Q 1375 441 1709 441 
Q 2250 441 2565 725 
Q 2881 1009 2881 1497 
Q 2881 1984 2565 2268 
Q 2250 2553 1709 2553 
Q 1456 2553 1204 2497 
Q 953 2441 691 2322 
L 691 4666 
z
" transform="scale(0.015625)"/>
       </defs>
       <use xlink:href="#DejaVuSans-2212"/>
       <use xlink:href="#DejaVuSans-31" x="83.789062"/>
       <use xlink:href="#DejaVuSans-2e" x="147.412109"/>
       <use xlink:href="#DejaVuSans-35" x="179.199219"/>
      </g>
     </g>
    </g>
    <g id="xtick_2">
     <g id="line2d_2">
      <g>
       <use xlink:href="#mb355807cef" x="155.945455" y="320.4" style="stroke: #000000; stroke-width: 0.8"/>
      </g>
     </g>
     <g id="text_2">
      <!-- −1.0 -->
      <g transform="translate(143.804048 334.998438) scale(0.1 -0.1)">
       <defs>
        <path id="DejaVuSans-30" d="M 2034 4250 
Q 1547 4250 1301 3770 
Q 1056 3291 1056 2328 
Q 1056 1369 1301 889 
Q 1547 409 2034 409 
Q 2525 409 2770 889 
Q 3016 1369 3016 2328 
Q 3016 3291 2770 3770 
Q 2525 4250 2034 4250 
z
M 2034 4750 
Q 2819 4750 3233 4129 
Q 3647 3509 3647 2328 
Q 3647 1150 3233 529 
Q 2819 -91 2034 -91 
Q 1250 -91 836 529 
Q 422 1150 422 2328 
Q 422 3509 836 4129 
Q 1250 4750 2034 4750 
z
" transform="scale(0.015625)"/>
       </defs>
       <use xlink:href="#DejaVuSans-2212"/>
       <use xlink:href="#DejaVuSans-31" x="83.789062"/>
       <use xlink:href="#DejaVuSans-2e" x="147.412109"/>
       <use xlink:href="#DejaVuSans-30" x="179.199219"/>
      </g>
     </g>
    </g>
    <g id="xtick_3">
     <g id="line2d_3">
      <g>
       <use xlink:href="#mb355807cef" x="206.672727" y="320.4" style="stroke: #000000; stroke-width: 0.8"/>
      </g>
     </g>
     <g id="text_3">
      <!-- −0.5 -->
      <g transform="translate(194.531321 334.998438) scale(0.1 -0.1)">
       <use xlink:href="#DejaVuSans-2212"/>
       <use xlink:href="#DejaVuSans-30" x="83.789062"/>
       <use xlink:href="#DejaVuSans-2e" x="147.412109"/>
       <use xlink:href="#DejaVuSans-35" x="179.199219"/>
      </g>
     </g>
    </g>
    <g id="xtick_4">
     <g id="line2d_4">
      <g>
       <use xlink:href="#mb355807cef" x="257.4" y="320.4" style="stroke: #000000; stroke-width: 0.8"/>
      </g>
     </g>
     <g id="text_4">
      <!-- 0.0 -->
      <g transform="translate(249.448437 334.998438) scale(0.1 -0.1)">
       <use xlink:href="#DejaVuSans-30"/>
       <use xlink:href="#DejaVuSans-2e" x="63.623047"/>
       <use xlink:href="#DejaVuSans-30" x="95.410156"/>
      </g>
     </g>
    </g>
    <g id="xtick_5">
     <g id="line2d_5">
      <g>
       <use xlink:href="#mb355807cef" x="308.127273" y="320.4" style="stroke: #000000; stroke-width: 0.8"/>
      </g>
     </g>
     <g id="text_5">
      <!-- 0.5 -->
      <g transform="translate(300.17571 334.998438) scale(0.1 -0.1)">
       <use xlink:href="#DejaVuSans-30"/>
       <use xlink:href="#DejaVuSans-2e" x="63.623047"/>
       <use xlink:href="#DejaVuSans-35" x="95.410156"/>
      </g>
     </g>
    </g>
    <g id="xtick_6">
     <g id="line2d_6">
      <g>
       <use xlink:href="#mb355807cef" x="358.854545" y="320.4" style="stroke: #000000; stroke-width: 0.8"/>
      </g>
     </g>
     <g id="text_6">
      <!-- 1.0 -->
      <g transform="translate(350.902983 334.998438) scale(0.1 -0.1)">
       <use xlink:href="#DejaVuSans-31"/>
       <use xlink:href="#DejaVuSans-2e" x="63.623047"/>
       <use xlink:href="#DejaVuSans-30" x="95.410156"/>
      </g>
     </g>
    </g>
    <g id="xtick_7">
     <g id="line2d_7">
      <g>
       <use xlink:href="#mb355807cef" x="409.581818" y="320.4" style="stroke: #000000; stroke-width: 0.8"/>
      </g>
     </g>
     <g id="text_7">
      <!-- 1.5 -->
      <g transform="translate(401.630256 334.998438) scale(0.1 -0.1)">
       <use xlink:href="#DejaVuSans-31"/>
       <use xlink:href="#DejaVuSans-2e" x="63.623047"/>
       <use xlink:href="#DejaVuSans-35" x="95.410156"/>
      </g>
     </g>
    </g>
    <g id="text_8">
     <!-- x -->
     <g transform="translate(254.440625 348.676562) scale(0.1 -0.1)">
      <defs>
       <path id="DejaVuSans-78" d="M 3513 3500 
L 2247 1797 
L 3578 0 
L 2900 0 
L 1881 1375 
L 863 0 
L 184 0 
L 1544 1831 
L 300 3500 
L 978 3500 
L 1906 2253 
L 2834 3500 
L 3513 3500 
z
" transform="scale(0.015625)"/>
      </defs>
      <use xlink:href="#DejaVuSans-78"/>
     </g>
    </g>
   </g>
   <g id="matplotlib.axis_2">
    <g id="ytick_1">
     <g id="line2d_8">
      <defs>
       <path id="mc7a815b96d" d="M 0 0 
L -3.5 0 
" style="stroke: #000000; stroke-width: 0.8"/>
      </defs>
      <g>
       <use xlink:href="#mc7a815b96d" x="90" y="307.8" style="stroke: #000000; stroke-width: 0.8"/>
      </g>
     </g>
     <g id="text_9">
      <!-- 0.0 -->
      <g transform="translate(67.096875 311.599219) scale(0.1 -0.1)">
       <use xlink:href="#DejaVuSans-30"/>
       <use xlink:href="#DejaVuSans-2e" x="63.623047"/>
       <use xlink:href="#DejaVuSans-30" x="95.410156"/>
      </g>
     </g>
    </g>
    <g id="ytick_2">
     <g id="line2d_9">
      <g>
       <use xlink:href="#mc7a815b96d" x="90" y="266.839631" style="stroke: #000000; stroke-width: 0.8"/>
      </g>
     </g>
     <g id="text_10">
      <!-- 0.2 -->
      <g transform="translate(67.096875 270.638849) scale(0.1 -0.1)">
       <defs>
        <path id="DejaVuSans-32" d="M 1228 531 
L 3431 531 
L 3431 0 
L 469 0 
L 469 531 
Q 828 903 1448 1529 
Q 2069 2156 2228 2338 
Q 2531 2678 2651 2914 
Q 2772 3150 2772 3378 
Q 2772 3750 2511 3984 
Q 2250 4219 1831 4219 
Q 1534 4219 1204 4116 
Q 875 4013 500 3803 
L 500 4441 
Q 881 4594 1212 4672 
Q 1544 4750 1819 4750 
Q 2544 4750 2975 4387 
Q 3406 4025 3406 3419 
Q 3406 3131 3298 2873 
Q 3191 2616 2906 2266 
Q 2828 2175 2409 1742 
Q 1991 1309 1228 531 
z
" transform="scale(0.015625)"/>
       </defs>
       <use xlink:href="#DejaVuSans-30"/>
       <use xlink:href="#DejaVuSans-2e" x="63.623047"/>
       <use xlink:href="#DejaVuSans-32" x="95.410156"/>
      </g>
     </g>
    </g>
    <g id="ytick_3">
     <g id="line2d_10">
      <g>
       <use xlink:href="#mc7a815b96d" x="90" y="225.879261" style="stroke: #000000; stroke-width: 0.8"/>
      </g>
     </g>
     <g id="text_11">
      <!-- 0.4 -->
      <g transform="translate(67.096875 229.67848) scale(0.1 -0.1)">
       <defs>
        <path id="DejaVuSans-34" d="M 2419 4116 
L 825 1625 
L 2419 1625 
L 2419 4116 
z
M 2253 4666 
L 3047 4666 
L 3047 1625 
L 3713 1625 
L 3713 1100 
L 3047 1100 
L 3047 0 
L 2419 0 
L 2419 1100 
L 313 1100 
L 313 1709 
L 2253 4666 
z
" transform="scale(0.015625)"/>
       </defs>
       <use xlink:href="#DejaVuSans-30"/>
       <use xlink:href="#DejaVuSans-2e" x="63.623047"/>
       <use xlink:href="#DejaVuSans-34" x="95.410156"/>
      </g>
     </g>
    </g>
    <g id="ytick_4">
     <g id="line2d_11">
      <g>
       <use xlink:href="#mc7a815b96d" x="90" y="184.918892" style="stroke: #000000; stroke-width: 0.8"/>
      </g>
     </g>
     <g id="text_12">
      <!-- 0.6 -->
      <g transform="translate(67.096875 188.718111) scale(0.1 -0.1)">
       <defs>
        <path id="DejaVuSans-36" d="M 2113 2584 
Q 1688 2584 1439 2293 
Q 1191 2003 1191 1497 
Q 1191 994 1439 701 
Q 1688 409 2113 409 
Q 2538 409 2786 701 
Q 3034 994 3034 1497 
Q 3034 2003 2786 2293 
Q 2538 2584 2113 2584 
z
M 3366 4563 
L 3366 3988 
Q 3128 4100 2886 4159 
Q 2644 4219 2406 4219 
Q 1781 4219 1451 3797 
Q 1122 3375 1075 2522 
Q 1259 2794 1537 2939 
Q 1816 3084 2150 3084 
Q 2853 3084 3261 2657 
Q 3669 2231 3669 1497 
Q 3669 778 3244 343 
Q 2819 -91 2113 -91 
Q 1303 -91 875 529 
Q 447 1150 447 2328 
Q 447 3434 972 4092 
Q 1497 4750 2381 4750 
Q 2619 4750 2861 4703 
Q 3103 4656 3366 4563 
z
" transform="scale(0.015625)"/>
       </defs>
       <use xlink:href="#DejaVuSans-30"/>
       <use xlink:href="#DejaVuSans-2e" x="63.623047"/>
       <use xlink:href="#DejaVuSans-36" x="95.410156"/>
      </g>
     </g>
    </g>
    <g id="ytick_5">
     <g id="line2d_12">
      <g>
       <use xlink:href="#mc7a815b96d" x="90" y="143.958522" style="stroke: #000000; stroke-width: 0.8"/>
      </g>
     </g>
     <g id="text_13">
      <!-- 0.8 -->
      <g transform="translate(67.096875 147.757741) scale(0.1 -0.1)">
       <defs>
        <path id="DejaVuSans-38" d="M 2034 2216 
Q 1584 2216 1326 1975 
Q 1069 1734 1069 1313 
Q 1069 891 1326 650 
Q 1584 409 2034 409 
Q 2484 409 2743 651 
Q 3003 894 3003 1313 
Q 3003 1734 2745 1975 
Q 2488 2216 2034 2216 
z
M 1403 2484 
Q 997 2584 770 2862 
Q 544 3141 544 3541 
Q 544 4100 942 4425 
Q 1341 4750 2034 4750 
Q 2731 4750 3128 4425 
Q 3525 4100 3525 3541 
Q 3525 3141 3298 2862 
Q 3072 2584 2669 2484 
Q 3125 2378 3379 2068 
Q 3634 1759 3634 1313 
Q 3634 634 3220 271 
Q 2806 -91 2034 -91 
Q 1263 -91 848 271 
Q 434 634 434 1313 
Q 434 1759 690 2068 
Q 947 2378 1403 2484 
z
M 1172 3481 
Q 1172 3119 1398 2916 
Q 1625 2713 2034 2713 
Q 2441 2713 2670 2916 
Q 2900 3119 2900 3481 
Q 2900 3844 2670 4047 
Q 2441 4250 2034 4250 
Q 1625 4250 1398 4047 
Q 1172 3844 1172 3481 
z
" transform="scale(0.015625)"/>
       </defs>
       <use xlink:href="#DejaVuSans-30"/>
       <use xlink:href="#DejaVuSans-2e" x="63.623047"/>
       <use xlink:href="#DejaVuSans-38" x="95.410156"/>
      </g>
     </g>
    </g>
    <g id="ytick_6">
     <g id="line2d_13">
      <g>
       <use xlink:href="#mc7a815b96d" x="90" y="102.998153" style="stroke: #000000; stroke-width: 0.8"/>
      </g>
     </g>
     <g id="text_14">
      <!-- 1.0 -->
      <g transform="translate(67.096875 106.797372) scale(0.1 -0.1)">
       <use xlink:href="#DejaVuSans-31"/>
       <use xlink:href="#DejaVuSans-2e" x="63.623047"/>
       <use xlink:href="#DejaVuSans-30" x="95.410156"/>
      </g>
     </g>
    </g>
    <g id="ytick_7">
     <g id="line2d_14">
      <g>
       <use xlink:href="#mc7a815b96d" x="90" y="62.037784" style="stroke: #000000; stroke-width: 0.8"/>
      </g>
     </g>
     <g id="text_15">
      <!-- 1.2 -->
      <g transform="translate(67.096875 65.837002) scale(0.1 -0.1)">
       <use xlink:href="#DejaVuSans-31"/>
       <use xlink:href="#DejaVuSans-2e" x="63.623047"/>
       <use xlink:href="#DejaVuSans-32" x="95.410156"/>
      </g>
     </g>
    </g>
    <g id="text_16">
     <!-- Probability density -->
     <g transform="translate(61.017187 228.150781) rotate(-90) scale(0.1 -0.1)">
      <defs>
       <path id="DejaVuSans-50" d="M 1259 4147 
L 1259 2394 
L 2053 2394 
Q 2494 2394 2734 2622 
Q 2975 2850 2975 3272 
Q 2975 3691 2734 3919 
Q 2494 4147 2053 4147 
L 1259 4147 
z
M 628 4666 
L 2053 4666 
Q 2838 4666 3239 4311 
Q 3641 3956 3641 3272 
Q 3641 2581 3239 2228 
Q 2838 1875 2053 1875 
L 1259 1875 
L 1259 0 
L 628 0 
L 628 4666 
z
" transform="scale(0.015625)"/>
       <path id="DejaVuSans-72" d="M 2631 2963 
Q 2534 3019 2420 3045 
Q 2306 3072 2169 3072 
Q 1681 3072 1420 2755 
Q 1159 2438 1159 1844 
L 1159 0 
L 581 0 
L 581 3500 
L 1159 3500 
L 1159 2956 
Q 1341 3275 1631 3429 
Q 1922 3584 2338 3584 
Q 2397 3584 2469 3576 
Q 2541 3569 2628 3553 
L 2631 2963 
z
" transform="scale(0.015625)"/>
       <path id="DejaVuSans-6f" d="M 1959 3097 
Q 1497 3097 1228 2736 
Q 959 2375 959 1747 
Q 959 1119 1226 758 
Q 1494 397 1959 397 
Q 2419 397 2687 759 
Q 2956 1122 2956 1747 
Q 2956 2369 2687 2733 
Q 2419 3097 1959 3097 
z
M 1959 3584 
Q 2709 3584 3137 3096 
Q 3566 2609 3566 1747 
Q 3566 888 3137 398 
Q 2709 -91 1959 -91 
Q 1206 -91 779 398 
Q 353 888 353 1747 
Q 353 2609 779 3096 
Q 1206 3584 1959 3584 
z
" transform="scale(0.015625)"/>
       <path id="DejaVuSans-62" d="M 3116 1747 
Q 3116 2381 2855 2742 
Q 2594 3103 2138 3103 
Q 1681 3103 1420 2742 
Q 1159 2381 1159 1747 
Q 1159 1113 1420 752 
Q 1681 391 2138 391 
Q 2594 391 2855 752 
Q 3116 1113 3116 1747 
z
M 1159 2969 
Q 1341 3281 1617 3432 
Q 1894 3584 2278 3584 
Q 2916 3584 3314 3078 
Q 3713 2572 3713 1747 
Q 3713 922 3314 415 
Q 2916 -91 2278 -91 
Q 1894 -91 1617 61 
Q 1341 213 1159 525 
L 1159 0 
L 581 0 
L 581 4863 
L 1159 4863 
L 1159 2969 
z
" transform="scale(0.015625)"/>
       <path id="DejaVuSans-61" d="M 2194 1759 
Q 1497 1759 1228 1600 
Q 959 1441 959 1056 
Q 959 750 1161 570 
Q 1363 391 1709 391 
Q 2188 391 2477 730 
Q 2766 1069 2766 1631 
L 2766 1759 
L 2194 1759 
z
M 3341 1997 
L 3341 0 
L 2766 0 
L 2766 531 
Q 2569 213 2275 61 
Q 1981 -91 1556 -91 
Q 1019 -91 701 211 
Q 384 513 384 1019 
Q 384 1609 779 1909 
Q 1175 2209 1959 2209 
L 2766 2209 
L 2766 2266 
Q 2766 2663 2505 2880 
Q 2244 3097 1772 3097 
Q 1472 3097 1187 3025 
Q 903 2953 641 2809 
L 641 3341 
Q 956 3463 1253 3523 
Q 1550 3584 1831 3584 
Q 2591 3584 2966 3190 
Q 3341 2797 3341 1997 
z
" transform="scale(0.015625)"/>
       <path id="DejaVuSans-69" d="M 603 3500 
L 1178 3500 
L 1178 0 
L 603 0 
L 603 3500 
z
M 603 4863 
L 1178 4863 
L 1178 4134 
L 603 4134 
L 603 4863 
z
" transform="scale(0.015625)"/>
       <path id="DejaVuSans-6c" d="M 603 4863 
L 1178 4863 
L 1178 0 
L 603 0 
L 603 4863 
z
" transform="scale(0.015625)"/>
       <path id="DejaVuSans-74" d="M 1172 4494 
L 1172 3500 
L 2356 3500 
L 2356 3053 
L 1172 3053 
L 1172 1153 
Q 1172 725 1289 603 
Q 1406 481 1766 481 
L 2356 481 
L 2356 0 
L 1766 0 
Q 1100 0 847 248 
Q 594 497 594 1153 
L 594 3053 
L 172 3053 
L 172 3500 
L 594 3500 
L 594 4494 
L 1172 4494 
z
" transform="scale(0.015625)"/>
       <path id="DejaVuSans-79" d="M 2059 -325 
Q 1816 -950 1584 -1140 
Q 1353 -1331 966 -1331 
L 506 -1331 
L 506 -850 
L 844 -850 
Q 1081 -850 1212 -737 
Q 1344 -625 1503 -206 
L 1606 56 
L 191 3500 
L 800 3500 
L 1894 763 
L 2988 3500 
L 3597 3500 
L 2059 -325 
z
" transform="scale(0.015625)"/>
       <path id="DejaVuSans-20" transform="scale(0.015625)"/>
       <path id="DejaVuSans-64" d="M 2906 2969 
L 2906 4863 
L 3481 4863 
L 3481 0 
L 2906 0 
L 2906 525 
Q 2725 213 2448 61 
Q 2172 -91 1784 -91 
Q 1150 -91 751 415 
Q 353 922 353 1747 
Q 353 2572 751 3078 
Q 1150 3584 1784 3584 
Q 2172 3584 2448 3432 
Q 2725 3281 2906 2969 
z
M 947 1747 
Q 947 1113 1208 752 
Q 1469 391 1925 391 
Q 2381 391 2643 752 
Q 2906 1113 2906 1747 
Q 2906 2381 2643 2742 
Q 2381 3103 1925 3103 
Q 1469 3103 1208 2742 
Q 947 2381 947 1747 
z
" transform="scale(0.015625)"/>
       <path id="DejaVuSans-65" d="M 3597 1894 
L 3597 1613 
L 953 1613 
Q 991 1019 1311 708 
Q 1631 397 2203 397 
Q 2534 397 2845 478 
Q 3156 559 3463 722 
L 3463 178 
Q 3153 47 2828 -22 
Q 2503 -91 2169 -91 
Q 1331 -91 842 396 
Q 353 884 353 1716 
Q 353 2575 817 3079 
Q 1281 3584 2069 3584 
Q 2775 3584 3186 3129 
Q 3597 2675 3597 1894 
z
M 3022 2063 
Q 3016 2534 2758 2815 
Q 2500 3097 2075 3097 
Q 1594 3097 1305 2825 
Q 1016 2553 972 2059 
L 3022 2063 
z
" transform="scale(0.015625)"/>
       <path id="DejaVuSans-6e" d="M 3513 2113 
L 3513 0 
L 2938 0 
L 2938 2094 
Q 2938 2591 2744 2837 
Q 2550 3084 2163 3084 
Q 1697 3084 1428 2787 
Q 1159 2491 1159 1978 
L 1159 0 
L 581 0 
L 581 3500 
L 1159 3500 
L 1159 2956 
Q 1366 3272 1645 3428 
Q 1925 3584 2291 3584 
Q 2894 3584 3203 3211 
Q 3513 2838 3513 2113 
z
" transform="scale(0.015625)"/>
       <path id="DejaVuSans-73" d="M 2834 3397 
L 2834 2853 
Q 2591 2978 2328 3040 
Q 2066 3103 1784 3103 
Q 1356 3103 1142 2972 
Q 928 2841 928 2578 
Q 928 2378 1081 2264 
Q 1234 2150 1697 2047 
L 1894 2003 
Q 2506 1872 2764 1633 
Q 3022 1394 3022 966 
Q 3022 478 2636 193 
Q 2250 -91 1575 -91 
Q 1294 -91 989 -36 
Q 684 19 347 128 
L 347 722 
Q 666 556 975 473 
Q 1284 391 1588 391 
Q 1994 391 2212 530 
Q 2431 669 2431 922 
Q 2431 1156 2273 1281 
Q 2116 1406 1581 1522 
L 1381 1569 
Q 847 1681 609 1914 
Q 372 2147 372 2553 
Q 372 3047 722 3315 
Q 1072 3584 1716 3584 
Q 2034 3584 2315 3537 
Q 2597 3491 2834 3397 
z
" transform="scale(0.015625)"/>
      </defs>
      <use xlink:href="#DejaVuSans-50"/>
      <use xlink:href="#DejaVuSans-72" x="58.552734"/>
      <use xlink:href="#DejaVuSans-6f" x="97.416016"/>
      <use xlink:href="#DejaVuSans-62" x="158.597656"/>
      <use xlink:href="#DejaVuSans-61" x="222.074219"/>
      <use xlink:href="#DejaVuSans-62" x="283.353516"/>
      <use xlink:href="#DejaVuSans-69" x="346.830078"/>
      <use xlink:href="#DejaVuSans-6c" x="374.613281"/>
      <use xlink:href="#DejaVuSans-69" x="402.396484"/>
      <use xlink:href="#DejaVuSans-74" x="430.179688"/>
      <use xlink:href="#DejaVuSans-79" x="469.388672"/>
      <use xlink:href="#DejaVuSans-20" x="528.568359"/>
      <use xlink:href="#DejaVuSans-64" x="560.355469"/>
      <use xlink:href="#DejaVuSans-65" x="623.832031"/>
      <use xlink:href="#DejaVuSans-6e" x="685.355469"/>
      <use xlink:href="#DejaVuSans-73" x="748.734375"/>
      <use xlink:href="#DejaVuSans-69" x="800.833984"/>
      <use xlink:href="#DejaVuSans-74" x="828.617188"/>
      <use xlink:href="#DejaVuSans-79" x="867.826172"/>
     </g>
    </g>
   </g>
   <g id="line2d_15">
    <path d="M 105.218182 307.8 
L 157.011794 307.716047 
L 158.230467 307.419143 
L 159.44914 306.915408 
L 160.972482 306.006694 
L 162.495823 304.801866 
L 164.019165 303.315634 
L 165.847174 301.181064 
L 167.675184 298.686669 
L 169.807862 295.353863 
L 171.940541 291.601457 
L 174.377887 286.845985 
L 177.119902 280.963942 
L 180.166585 273.853227 
L 183.517936 265.443894 
L 187.478624 254.875841 
L 192.353317 241.204581 
L 200.884029 216.470775 
L 208.500737 194.643183 
L 213.37543 181.297918 
L 217.640786 170.244569 
L 221.296806 161.346986 
L 224.648157 153.731757 
L 227.69484 147.306907 
L 230.741523 141.396214 
L 233.483538 136.54492 
L 236.225553 132.160893 
L 238.662899 128.672653 
L 241.100246 125.582186 
L 243.232924 123.213037 
L 245.365602 121.16333 
L 247.49828 119.438593 
L 249.32629 118.222427 
L 251.1543 117.250817 
L 252.98231 116.525664 
L 254.810319 116.048385 
L 256.638329 115.819911 
L 258.466339 115.840687 
L 260.294349 116.110673 
L 262.122359 116.629342 
L 263.950369 117.395682 
L 265.778378 118.408197 
L 267.606388 119.664903 
L 269.434398 121.16333 
L 271.567076 123.213037 
L 273.699754 125.582186 
L 275.832432 128.26435 
L 278.269779 131.703525 
L 280.707125 135.52956 
L 283.44914 140.27889 
L 286.191155 145.478063 
L 289.237838 151.752529 
L 292.589189 159.216143 
L 296.245209 167.966531 
L 300.205897 178.073218 
L 304.775921 190.403794 
L 310.259951 205.891951 
L 328.844717 259.009822 
L 332.805405 269.335075 
L 336.156757 277.47853 
L 339.20344 284.297238 
L 341.945455 289.873912 
L 344.382801 294.32295 
L 346.515479 297.779419 
L 348.648157 300.789663 
L 350.476167 302.985897 
L 352.304177 304.801866 
L 353.827518 306.006694 
L 355.35086 306.915408 
L 356.569533 307.419143 
L 357.788206 307.716047 
L 359.00688 307.8 
L 409.581818 307.8 
L 409.581818 307.8 
" clip-path="url(#pdbc4a0100b)" style="fill: none; stroke: #1f77b4; stroke-width: 1.5; stroke-linecap: square"/>
   </g>
   <g id="line2d_16">
    <path d="M 105.218182 307.8 
L 155.79312 307.8 
L 156.402457 295.438736 
L 157.011794 288.946294 
L 157.925799 282.16497 
L 159.144472 275.317402 
L 160.363145 269.745066 
L 161.886486 263.838619 
L 163.714496 257.762061 
L 165.542506 252.44704 
L 167.675184 246.943498 
L 169.807862 242.012051 
L 172.245209 236.923919 
L 174.987224 231.758898 
L 177.729238 227.076737 
L 180.775921 222.344342 
L 183.822604 218.03122 
L 186.869287 214.079466 
L 190.220639 210.09769 
L 193.57199 206.454818 
L 197.22801 202.825914 
L 200.884029 199.522019 
L 204.540049 196.514181 
L 208.196069 193.778968 
L 212.156757 191.101281 
L 216.117445 188.701003 
L 220.078133 186.561655 
L 224.038821 184.669637 
L 227.999509 183.013698 
L 231.960197 181.584545 
L 236.225553 180.290363 
L 240.490909 179.242694 
L 244.756265 178.435549 
L 249.021622 177.864447 
L 253.286978 177.526282 
L 257.552334 177.419242 
L 261.81769 177.542757 
L 266.083047 177.897486 
L 270.348403 178.48533 
L 274.613759 179.309489 
L 278.879115 180.374548 
L 282.839803 181.584545 
L 286.800491 183.013698 
L 290.761179 184.669637 
L 294.721867 186.561655 
L 298.682555 188.701003 
L 302.643243 191.101281 
L 306.603931 193.778968 
L 310.259951 196.514181 
L 313.915971 199.522019 
L 317.57199 202.825914 
L 320.923342 206.139167 
L 324.274693 209.753108 
L 327.626044 213.702377 
L 330.672727 217.620601 
L 333.71941 221.895253 
L 336.766093 226.582592 
L 339.508108 231.216511 
L 342.250123 236.323013 
L 344.687469 241.346648 
L 346.820147 246.207357 
L 348.952826 251.61961 
L 350.780835 256.830195 
L 352.608845 262.76037 
L 354.132187 268.484911 
L 355.35086 273.831724 
L 356.569533 280.284445 
L 357.483538 286.438048 
L 358.092875 291.853689 
L 358.397543 295.438736 
L 358.702211 300.657853 
L 359.00688 307.8 
L 409.581818 307.8 
L 409.581818 307.8 
" clip-path="url(#pdbc4a0100b)" style="fill: none; stroke: #ff7f0e; stroke-width: 1.5; stroke-linecap: square"/>
   </g>
   <g id="line2d_17">
    <path d="M 105.218182 307.8 
L 163.409828 307.698305 
L 166.456511 307.424491 
L 168.893857 306.978226 
L 171.026536 306.354548 
L 172.854545 305.603328 
L 174.682555 304.61627 
L 176.510565 303.36062 
L 178.338575 301.805494 
L 180.166585 299.92245 
L 181.994595 297.685977 
L 183.822604 295.073907 
L 185.650614 292.067747 
L 187.478624 288.65294 
L 189.611302 284.138844 
L 191.74398 279.045317 
L 193.876658 273.371204 
L 196.314005 266.184818 
L 198.751351 258.272459 
L 201.493366 248.548866 
L 204.540049 236.807718 
L 207.8914 222.897054 
L 211.852088 205.38015 
L 217.03145 181.330198 
L 227.085504 134.442524 
L 230.741523 118.513093 
L 233.788206 106.118133 
L 236.530221 95.819705 
L 238.967568 87.458875 
L 241.100246 80.826146 
L 243.232924 74.885667 
L 245.060934 70.38044 
L 246.888943 66.444442 
L 248.412285 63.615881 
L 249.935627 61.210008 
L 251.458968 59.236557 
L 252.677641 57.974574 
L 253.896314 56.997764 
L 255.114988 56.308665 
L 256.333661 55.909065 
L 257.552334 55.8 
L 258.771007 55.981755 
L 259.989681 56.453857 
L 261.208354 57.21508 
L 262.427027 58.26345 
L 263.6457 59.596244 
L 265.169042 61.656875 
L 266.692383 64.14812 
L 268.215725 67.059899 
L 270.043735 71.092448 
L 271.871744 75.69009 
L 274.004423 81.732457 
L 276.137101 88.459941 
L 278.574447 96.919411 
L 281.316462 107.315365 
L 284.363145 119.800645 
L 288.019165 135.811731 
L 292.893857 158.313843 
L 304.471253 212.234321 
L 308.431941 229.338084 
L 311.783292 242.794953 
L 314.829975 254.054856 
L 317.57199 263.301095 
L 320.009337 270.76314 
L 322.446683 277.483234 
L 324.579361 282.742878 
L 326.712039 287.421937 
L 328.844717 291.527324 
L 330.672727 294.600691 
L 332.500737 297.277261 
L 334.328747 299.57489 
L 336.156757 301.515153 
L 337.984767 303.123031 
L 339.812776 304.426507 
L 341.640786 305.456099 
L 343.468796 306.244291 
L 345.601474 306.903882 
L 347.734152 307.335479 
L 350.476167 307.641575 
L 354.132187 307.782775 
L 363.881572 307.8 
L 409.581818 307.8 
L 409.581818 307.8 
" clip-path="url(#pdbc4a0100b)" style="fill: none; stroke: #2ca02c; stroke-width: 1.5; stroke-linecap: square"/>
   </g>
   <g id="line2d_18">
    <path d="M 105.218182 307.8 
L 163.714496 307.689445 
L 167.979853 307.398071 
L 171.635872 306.926263 
L 174.987224 306.266251 
L 178.033907 305.445646 
L 181.08059 304.38933 
L 183.822604 303.218684 
L 186.564619 301.824589 
L 189.306634 300.194207 
L 192.048649 298.316337 
L 194.790663 296.181416 
L 197.532678 293.781522 
L 200.274693 291.110372 
L 203.321376 287.818694 
L 206.368059 284.18244 
L 209.414742 280.200112 
L 212.461425 275.872708 
L 215.812776 270.718251 
L 219.164128 265.158684 
L 222.820147 258.645646 
L 226.476167 251.684903 
L 230.436855 243.668541 
L 234.702211 234.526623 
L 239.272236 224.211101 
L 244.451597 211.973571 
L 250.849631 196.260846 
L 271.871744 144.077997 
L 276.441769 133.601791 
L 280.402457 125.078199 
L 283.753808 118.369559 
L 286.800491 112.744769 
L 289.542506 108.123412 
L 291.979853 104.407064 
L 294.417199 101.09595 
L 296.549877 98.559678 
L 298.682555 96.386441 
L 300.510565 94.831986 
L 302.338575 93.579493 
L 303.861916 92.778513 
L 305.385258 92.208761 
L 306.9086 91.880278 
L 308.431941 91.80326 
L 309.955283 91.98806 
L 311.478624 92.445186 
L 313.001966 93.185302 
L 314.525307 94.21923 
L 316.048649 95.557947 
L 317.57199 97.212586 
L 319.095332 99.194435 
L 320.618673 101.514941 
L 322.446683 104.762921 
L 324.274693 108.535625 
L 326.102703 112.853722 
L 327.930713 117.738202 
L 329.758722 123.210382 
L 331.8914 130.366267 
L 334.024079 138.386464 
L 336.156757 147.306491 
L 338.289435 157.162469 
L 340.422113 167.991116 
L 342.859459 181.605637 
L 345.296806 196.596012 
L 347.734152 213.019931 
L 350.171499 230.936107 
L 352.608845 250.404274 
L 355.35086 274.23677 
L 358.092875 300.198492 
L 358.702211 306.265909 
L 359.00688 307.8 
L 409.581818 307.8 
L 409.581818 307.8 
" clip-path="url(#pdbc4a0100b)" style="fill: none; stroke: #d62728; stroke-width: 1.5; stroke-linecap: square"/>
   </g>
   <g id="patch_3">
    <path d="M 90 320.4 
L 90 43.2 
" style="fill: none; stroke: #000000; stroke-width: 0.8; stroke-linejoin: miter; stroke-linecap: square"/>
   </g>
   <g id="patch_4">
    <path d="M 424.8 320.4 
L 424.8 43.2 
" style="fill: none; stroke: #000000; stroke-width: 0.8; stroke-linejoin: miter; stroke-linecap: square"/>
   </g>
   <g id="patch_5">
    <path d="M 90 320.4 
L 424.8 320.4 
" style="fill: none; stroke: #000000; stroke-width: 0.8; stroke-linejoin: miter; stroke-linecap: square"/>
   </g>
   <g id="patch_6">
    <path d="M 90 43.2 
L 424.8 43.2 
" style="fill: none; stroke: #000000; stroke-width: 0.8; stroke-linejoin: miter; stroke-linecap: square"/>
   </g>
   <g id="text_17">
    <!-- PERT Distribution -->
    <g transform="translate(205.682812 37.2) scale(0.12 -0.12)">
     <defs>
      <path id="DejaVuSans-45" d="M 628 4666 
L 3578 4666 
L 3578 4134 
L 1259 4134 
L 1259 2753 
L 3481 2753 
L 3481 2222 
L 1259 2222 
L 1259 531 
L 3634 531 
L 3634 0 
L 628 0 
L 628 4666 
z
" transform="scale(0.015625)"/>
      <path id="DejaVuSans-52" d="M 2841 2188 
Q 3044 2119 3236 1894 
Q 3428 1669 3622 1275 
L 4263 0 
L 3584 0 
L 2988 1197 
Q 2756 1666 2539 1819 
Q 2322 1972 1947 1972 
L 1259 1972 
L 1259 0 
L 628 0 
L 628 4666 
L 2053 4666 
Q 2853 4666 3247 4331 
Q 3641 3997 3641 3322 
Q 3641 2881 3436 2590 
Q 3231 2300 2841 2188 
z
M 1259 4147 
L 1259 2491 
L 2053 2491 
Q 2509 2491 2742 2702 
Q 2975 2913 2975 3322 
Q 2975 3731 2742 3939 
Q 2509 4147 2053 4147 
L 1259 4147 
z
" transform="scale(0.015625)"/>
      <path id="DejaVuSans-54" d="M -19 4666 
L 3928 4666 
L 3928 4134 
L 2272 4134 
L 2272 0 
L 1638 0 
L 1638 4134 
L -19 4134 
L -19 4666 
z
" transform="scale(0.015625)"/>
      <path id="DejaVuSans-44" d="M 1259 4147 
L 1259 519 
L 2022 519 
Q 2988 519 3436 956 
Q 3884 1394 3884 2338 
Q 3884 3275 3436 3711 
Q 2988 4147 2022 4147 
L 1259 4147 
z
M 628 4666 
L 1925 4666 
Q 3281 4666 3915 4102 
Q 4550 3538 4550 2338 
Q 4550 1131 3912 565 
Q 3275 0 1925 0 
L 628 0 
L 628 4666 
z
" transform="scale(0.015625)"/>
      <path id="DejaVuSans-75" d="M 544 1381 
L 544 3500 
L 1119 3500 
L 1119 1403 
Q 1119 906 1312 657 
Q 1506 409 1894 409 
Q 2359 409 2629 706 
Q 2900 1003 2900 1516 
L 2900 3500 
L 3475 3500 
L 3475 0 
L 2900 0 
L 2900 538 
Q 2691 219 2414 64 
Q 2138 -91 1772 -91 
Q 1169 -91 856 284 
Q 544 659 544 1381 
z
M 1991 3584 
L 1991 3584 
z
" transform="scale(0.015625)"/>
     </defs>
     <use xlink:href="#DejaVuSans-50"/>
     <use xlink:href="#DejaVuSans-45" x="60.302734"/>
     <use xlink:href="#DejaVuSans-52" x="123.486328"/>
     <use xlink:href="#DejaVuSans-54" x="185.71875"/>
     <use xlink:href="#DejaVuSans-20" x="246.802734"/>
     <use xlink:href="#DejaVuSans-44" x="278.589844"/>
     <use xlink:href="#DejaVuSans-69" x="355.591797"/>
     <use xlink:href="#DejaVuSans-73" x="383.375"/>
     <use xlink:href="#DejaVuSans-74" x="435.474609"/>
     <use xlink:href="#DejaVuSans-72" x="474.683594"/>
     <use xlink:href="#DejaVuSans-69" x="515.796875"/>
     <use xlink:href="#DejaVuSans-62" x="543.580078"/>
     <use xlink:href="#DejaVuSans-75" x="607.056641"/>
     <use xlink:href="#DejaVuSans-74" x="670.435547"/>
     <use xlink:href="#DejaVuSans-69" x="709.644531"/>
     <use xlink:href="#DejaVuSans-6f" x="737.427734"/>
     <use xlink:href="#DejaVuSans-6e" x="798.609375"/>
    </g>
   </g>
   <g id="legend_1">
    <g id="patch_7">
     <path d="M 431.8 220.7925 
L 679.592187 220.7925 
Q 681.592187 220.7925 681.592187 218.7925 
L 681.592187 161.08 
Q 681.592187 159.08 679.592187 159.08 
L 431.8 159.08 
Q 429.8 159.08 429.8 161.08 
L 429.8 218.7925 
Q 429.8 220.7925 431.8 220.7925 
z
" style="fill: #ffffff; opacity: 0.8; stroke: #cccccc; stroke-linejoin: miter"/>
    </g>
    <g id="line2d_19">
     <path d="M 433.8 167.178437 
L 443.8 167.178437 
L 453.8 167.178437 
" style="fill: none; stroke: #1f77b4; stroke-width: 1.5; stroke-linecap: square"/>
    </g>
    <g id="text_18">
     <!-- min = -1, mode = 0, max = 1, shape = 4 -->
     <g transform="translate(461.8 170.678437) scale(0.1 -0.1)">
      <defs>
       <path id="DejaVuSans-6d" d="M 3328 2828 
Q 3544 3216 3844 3400 
Q 4144 3584 4550 3584 
Q 5097 3584 5394 3201 
Q 5691 2819 5691 2113 
L 5691 0 
L 5113 0 
L 5113 2094 
Q 5113 2597 4934 2840 
Q 4756 3084 4391 3084 
Q 3944 3084 3684 2787 
Q 3425 2491 3425 1978 
L 3425 0 
L 2847 0 
L 2847 2094 
Q 2847 2600 2669 2842 
Q 2491 3084 2119 3084 
Q 1678 3084 1418 2786 
Q 1159 2488 1159 1978 
L 1159 0 
L 581 0 
L 581 3500 
L 1159 3500 
L 1159 2956 
Q 1356 3278 1631 3431 
Q 1906 3584 2284 3584 
Q 2666 3584 2933 3390 
Q 3200 3197 3328 2828 
z
" transform="scale(0.015625)"/>
       <path id="DejaVuSans-3d" d="M 678 2906 
L 4684 2906 
L 4684 2381 
L 678 2381 
L 678 2906 
z
M 678 1631 
L 4684 1631 
L 4684 1100 
L 678 1100 
L 678 1631 
z
" transform="scale(0.015625)"/>
       <path id="DejaVuSans-2d" d="M 313 2009 
L 1997 2009 
L 1997 1497 
L 313 1497 
L 313 2009 
z
" transform="scale(0.015625)"/>
       <path id="DejaVuSans-2c" d="M 750 794 
L 1409 794 
L 1409 256 
L 897 -744 
L 494 -744 
L 750 256 
L 750 794 
z
" transform="scale(0.015625)"/>
       <path id="DejaVuSans-68" d="M 3513 2113 
L 3513 0 
L 2938 0 
L 2938 2094 
Q 2938 2591 2744 2837 
Q 2550 3084 2163 3084 
Q 1697 3084 1428 2787 
Q 1159 2491 1159 1978 
L 1159 0 
L 581 0 
L 581 4863 
L 1159 4863 
L 1159 2956 
Q 1366 3272 1645 3428 
Q 1925 3584 2291 3584 
Q 2894 3584 3203 3211 
Q 3513 2838 3513 2113 
z
" transform="scale(0.015625)"/>
       <path id="DejaVuSans-70" d="M 1159 525 
L 1159 -1331 
L 581 -1331 
L 581 3500 
L 1159 3500 
L 1159 2969 
Q 1341 3281 1617 3432 
Q 1894 3584 2278 3584 
Q 2916 3584 3314 3078 
Q 3713 2572 3713 1747 
Q 3713 922 3314 415 
Q 2916 -91 2278 -91 
Q 1894 -91 1617 61 
Q 1341 213 1159 525 
z
M 3116 1747 
Q 3116 2381 2855 2742 
Q 2594 3103 2138 3103 
Q 1681 3103 1420 2742 
Q 1159 2381 1159 1747 
Q 1159 1113 1420 752 
Q 1681 391 2138 391 
Q 2594 391 2855 752 
Q 3116 1113 3116 1747 
z
" transform="scale(0.015625)"/>
      </defs>
      <use xlink:href="#DejaVuSans-6d"/>
      <use xlink:href="#DejaVuSans-69" x="97.412109"/>
      <use xlink:href="#DejaVuSans-6e" x="125.195312"/>
      <use xlink:href="#DejaVuSans-20" x="188.574219"/>
      <use xlink:href="#DejaVuSans-3d" x="220.361328"/>
      <use xlink:href="#DejaVuSans-20" x="304.150391"/>
      <use xlink:href="#DejaVuSans-2d" x="335.9375"/>
      <use xlink:href="#DejaVuSans-31" x="372.021484"/>
      <use xlink:href="#DejaVuSans-2c" x="435.644531"/>
      <use xlink:href="#DejaVuSans-20" x="467.431641"/>
      <use xlink:href="#DejaVuSans-6d" x="499.21875"/>
      <use xlink:href="#DejaVuSans-6f" x="596.630859"/>
      <use xlink:href="#DejaVuSans-64" x="657.8125"/>
      <use xlink:href="#DejaVuSans-65" x="721.289062"/>
      <use xlink:href="#DejaVuSans-20" x="782.8125"/>
      <use xlink:href="#DejaVuSans-3d" x="814.599609"/>
      <use xlink:href="#DejaVuSans-20" x="898.388672"/>
      <use xlink:href="#DejaVuSans-30" x="930.175781"/>
      <use xlink:href="#DejaVuSans-2c" x="993.798828"/>
      <use xlink:href="#DejaVuSans-20" x="1025.585938"/>
      <use xlink:href="#DejaVuSans-6d" x="1057.373047"/>
      <use xlink:href="#DejaVuSans-61" x="1154.785156"/>
      <use xlink:href="#DejaVuSans-78" x="1216.064453"/>
      <use xlink:href="#DejaVuSans-20" x="1275.244141"/>
      <use xlink:href="#DejaVuSans-3d" x="1307.03125"/>
      <use xlink:href="#DejaVuSans-20" x="1390.820312"/>
      <use xlink:href="#DejaVuSans-31" x="1422.607422"/>
      <use xlink:href="#DejaVuSans-2c" x="1486.230469"/>
      <use xlink:href="#DejaVuSans-20" x="1518.017578"/>
      <use xlink:href="#DejaVuSans-73" x="1549.804688"/>
      <use xlink:href="#DejaVuSans-68" x="1601.904297"/>
      <use xlink:href="#DejaVuSans-61" x="1665.283203"/>
      <use xlink:href="#DejaVuSans-70" x="1726.5625"/>
      <use xlink:href="#DejaVuSans-65" x="1790.039062"/>
      <use xlink:href="#DejaVuSans-20" x="1851.5625"/>
      <use xlink:href="#DejaVuSans-3d" x="1883.349609"/>
      <use xlink:href="#DejaVuSans-20" x="1967.138672"/>
      <use xlink:href="#DejaVuSans-34" x="1998.925781"/>
     </g>
    </g>
    <g id="line2d_20">
     <path d="M 433.8 181.856562 
L 443.8 181.856562 
L 453.8 181.856562 
" style="fill: none; stroke: #ff7f0e; stroke-width: 1.5; stroke-linecap: square"/>
    </g>
    <g id="text_19">
     <!-- min = -1, mode = 0, max = 1, shape = 1 -->
     <g transform="translate(461.8 185.356562) scale(0.1 -0.1)">
      <use xlink:href="#DejaVuSans-6d"/>
      <use xlink:href="#DejaVuSans-69" x="97.412109"/>
      <use xlink:href="#DejaVuSans-6e" x="125.195312"/>
      <use xlink:href="#DejaVuSans-20" x="188.574219"/>
      <use xlink:href="#DejaVuSans-3d" x="220.361328"/>
      <use xlink:href="#DejaVuSans-20" x="304.150391"/>
      <use xlink:href="#DejaVuSans-2d" x="335.9375"/>
      <use xlink:href="#DejaVuSans-31" x="372.021484"/>
      <use xlink:href="#DejaVuSans-2c" x="435.644531"/>
      <use xlink:href="#DejaVuSans-20" x="467.431641"/>
      <use xlink:href="#DejaVuSans-6d" x="499.21875"/>
      <use xlink:href="#DejaVuSans-6f" x="596.630859"/>
      <use xlink:href="#DejaVuSans-64" x="657.8125"/>
      <use xlink:href="#DejaVuSans-65" x="721.289062"/>
      <use xlink:href="#DejaVuSans-20" x="782.8125"/>
      <use xlink:href="#DejaVuSans-3d" x="814.599609"/>
      <use xlink:href="#DejaVuSans-20" x="898.388672"/>
      <use xlink:href="#DejaVuSans-30" x="930.175781"/>
      <use xlink:href="#DejaVuSans-2c" x="993.798828"/>
      <use xlink:href="#DejaVuSans-20" x="1025.585938"/>
      <use xlink:href="#DejaVuSans-6d" x="1057.373047"/>
      <use xlink:href="#DejaVuSans-61" x="1154.785156"/>
      <use xlink:href="#DejaVuSans-78" x="1216.064453"/>
      <use xlink:href="#DejaVuSans-20" x="1275.244141"/>
      <use xlink:href="#DejaVuSans-3d" x="1307.03125"/>
      <use xlink:href="#DejaVuSans-20" x="1390.820312"/>
      <use xlink:href="#DejaVuSans-31" x="1422.607422"/>
      <use xlink:href="#DejaVuSans-2c" x="1486.230469"/>
      <use xlink:href="#DejaVuSans-20" x="1518.017578"/>
      <use xlink:href="#DejaVuSans-73" x="1549.804688"/>
      <use xlink:href="#DejaVuSans-68" x="1601.904297"/>
      <use xlink:href="#DejaVuSans-61" x="1665.283203"/>
      <use xlink:href="#DejaVuSans-70" x="1726.5625"/>
      <use xlink:href="#DejaVuSans-65" x="1790.039062"/>
      <use xlink:href="#DejaVuSans-20" x="1851.5625"/>
      <use xlink:href="#DejaVuSans-3d" x="1883.349609"/>
      <use xlink:href="#DejaVuSans-20" x="1967.138672"/>
      <use xlink:href="#DejaVuSans-31" x="1998.925781"/>
     </g>
    </g>
    <g id="line2d_21">
     <path d="M 433.8 196.534687 
L 443.8 196.534687 
L 453.8 196.534687 
" style="fill: none; stroke: #2ca02c; stroke-width: 1.5; stroke-linecap: square"/>
    </g>
    <g id="text_20">
     <!-- min = -1, mode = 0, max = 1, shape = 8 -->
     <g transform="translate(461.8 200.034687) scale(0.1 -0.1)">
      <use xlink:href="#DejaVuSans-6d"/>
      <use xlink:href="#DejaVuSans-69" x="97.412109"/>
      <use xlink:href="#DejaVuSans-6e" x="125.195312"/>
      <use xlink:href="#DejaVuSans-20" x="188.574219"/>
      <use xlink:href="#DejaVuSans-3d" x="220.361328"/>
      <use xlink:href="#DejaVuSans-20" x="304.150391"/>
      <use xlink:href="#DejaVuSans-2d" x="335.9375"/>
      <use xlink:href="#DejaVuSans-31" x="372.021484"/>
      <use xlink:href="#DejaVuSans-2c" x="435.644531"/>
      <use xlink:href="#DejaVuSans-20" x="467.431641"/>
      <use xlink:href="#DejaVuSans-6d" x="499.21875"/>
      <use xlink:href="#DejaVuSans-6f" x="596.630859"/>
      <use xlink:href="#DejaVuSans-64" x="657.8125"/>
      <use xlink:href="#DejaVuSans-65" x="721.289062"/>
      <use xlink:href="#DejaVuSans-20" x="782.8125"/>
      <use xlink:href="#DejaVuSans-3d" x="814.599609"/>
      <use xlink:href="#DejaVuSans-20" x="898.388672"/>
      <use xlink:href="#DejaVuSans-30" x="930.175781"/>
      <use xlink:href="#DejaVuSans-2c" x="993.798828"/>
      <use xlink:href="#DejaVuSans-20" x="1025.585938"/>
      <use xlink:href="#DejaVuSans-6d" x="1057.373047"/>
      <use xlink:href="#DejaVuSans-61" x="1154.785156"/>
      <use xlink:href="#DejaVuSans-78" x="1216.064453"/>
      <use xlink:href="#DejaVuSans-20" x="1275.244141"/>
      <use xlink:href="#DejaVuSans-3d" x="1307.03125"/>
      <use xlink:href="#DejaVuSans-20" x="1390.820312"/>
      <use xlink:href="#DejaVuSans-31" x="1422.607422"/>
      <use xlink:href="#DejaVuSans-2c" x="1486.230469"/>
      <use xlink:href="#DejaVuSans-20" x="1518.017578"/>
      <use xlink:href="#DejaVuSans-73" x="1549.804688"/>
      <use xlink:href="#DejaVuSans-68" x="1601.904297"/>
      <use xlink:href="#DejaVuSans-61" x="1665.283203"/>
      <use xlink:href="#DejaVuSans-70" x="1726.5625"/>
      <use xlink:href="#DejaVuSans-65" x="1790.039062"/>
      <use xlink:href="#DejaVuSans-20" x="1851.5625"/>
      <use xlink:href="#DejaVuSans-3d" x="1883.349609"/>
      <use xlink:href="#DejaVuSans-20" x="1967.138672"/>
      <use xlink:href="#DejaVuSans-38" x="1998.925781"/>
     </g>
    </g>
    <g id="line2d_22">
     <path d="M 433.8 211.212812 
L 443.8 211.212812 
L 453.8 211.212812 
" style="fill: none; stroke: #d62728; stroke-width: 1.5; stroke-linecap: square"/>
    </g>
    <g id="text_21">
     <!-- min = -1, mode = 0.5, max = 1, shape = 4 -->
     <g transform="translate(461.8 214.712812) scale(0.1 -0.1)">
      <use xlink:href="#DejaVuSans-6d"/>
      <use xlink:href="#DejaVuSans-69" x="97.412109"/>
      <use xlink:href="#DejaVuSans-6e" x="125.195312"/>
      <use xlink:href="#DejaVuSans-20" x="188.574219"/>
      <use xlink:href="#DejaVuSans-3d" x="220.361328"/>
      <use xlink:href="#DejaVuSans-20" x="304.150391"/>
      <use xlink:href="#DejaVuSans-2d" x="335.9375"/>
      <use xlink:href="#DejaVuSans-31" x="372.021484"/>
      <use xlink:href="#DejaVuSans-2c" x="435.644531"/>
      <use xlink:href="#DejaVuSans-20" x="467.431641"/>
      <use xlink:href="#DejaVuSans-6d" x="499.21875"/>
      <use xlink:href="#DejaVuSans-6f" x="596.630859"/>
      <use xlink:href="#DejaVuSans-64" x="657.8125"/>
      <use xlink:href="#DejaVuSans-65" x="721.289062"/>
      <use xlink:href="#DejaVuSans-20" x="782.8125"/>
      <use xlink:href="#DejaVuSans-3d" x="814.599609"/>
      <use xlink:href="#DejaVuSans-20" x="898.388672"/>
      <use xlink:href="#DejaVuSans-30" x="930.175781"/>
      <use xlink:href="#DejaVuSans-2e" x="993.798828"/>
      <use xlink:href="#DejaVuSans-35" x="1025.585938"/>
      <use xlink:href="#DejaVuSans-2c" x="1089.208984"/>
      <use xlink:href="#DejaVuSans-20" x="1120.996094"/>
      <use xlink:href="#DejaVuSans-6d" x="1152.783203"/>
      <use xlink:href="#DejaVuSans-61" x="1250.195312"/>
      <use xlink:href="#DejaVuSans-78" x="1311.474609"/>
      <use xlink:href="#DejaVuSans-20" x="1370.654297"/>
      <use xlink:href="#DejaVuSans-3d" x="1402.441406"/>
      <use xlink:href="#DejaVuSans-20" x="1486.230469"/>
      <use xlink:href="#DejaVuSans-31" x="1518.017578"/>
      <use xlink:href="#DejaVuSans-2c" x="1581.640625"/>
      <use xlink:href="#DejaVuSans-20" x="1613.427734"/>
      <use xlink:href="#DejaVuSans-73" x="1645.214844"/>
      <use xlink:href="#DejaVuSans-68" x="1697.314453"/>
      <use xlink:href="#DejaVuSans-61" x="1760.693359"/>
      <use xlink:href="#DejaVuSans-70" x="1821.972656"/>
      <use xlink:href="#DejaVuSans-65" x="1885.449219"/>
      <use xlink:href="#DejaVuSans-20" x="1946.972656"/>
      <use xlink:href="#DejaVuSans-3d" x="1978.759766"/>
      <use xlink:href="#DejaVuSans-20" x="2062.548828"/>
      <use xlink:href="#DejaVuSans-34" x="2094.335938"/>
     </g>
    </g>
   </g>
  </g>
 </g>
 <defs>
  <clipPath id="pdbc4a0100b">
   <rect x="90" y="43.2" width="334.8" height="277.2"/>
  </clipPath>
 </defs>
</svg>
