<?xml version="1.0" encoding="utf-8" standalone="no"?>
<!DOCTYPE svg PUBLIC "-//W3C//DTD SVG 1.1//EN"
  "http://www.w3.org/Graphics/SVG/1.1/DTD/svg11.dtd">
<svg xmlns:xlink="http://www.w3.org/1999/xlink" width="460.8pt" height="345.6pt" viewBox="0 0 460.8 345.6" xmlns="http://www.w3.org/2000/svg" version="1.1">
 <metadata>
  <rdf:RDF xmlns:dc="http://purl.org/dc/elements/1.1/" xmlns:cc="http://creativecommons.org/ns#" xmlns:rdf="http://www.w3.org/1999/02/22-rdf-syntax-ns#">
   <cc:Work>
    <dc:type rdf:resource="http://purl.org/dc/dcmitype/StillImage"/>
    <dc:date>2024-05-02T16:43:13.349987</dc:date>
    <dc:format>image/svg+xml</dc:format>
    <dc:creator>
     <cc:Agent>
      <dc:title>Matplotlib v3.8.4, https://matplotlib.org/</dc:title>
     </cc:Agent>
    </dc:creator>
   </cc:Work>
  </rdf:RDF>
 </metadata>
 <defs>
  <style type="text/css">*{stroke-linejoin: round; stroke-linecap: butt}</style>
 </defs>
 <g id="figure_1">
  <g id="patch_1">
   <path d="M 0 345.6 
L 460.8 345.6 
L 460.8 0 
L 0 0 
z
" style="fill: #ffffff"/>
  </g>
  <g id="axes_1">
   <g id="patch_2">
    <path d="M 57.6 307.584 
L 414.72 307.584 
L 414.72 41.472 
L 57.6 41.472 
z
" style="fill: #ffffff"/>
   </g>
   <g id="matplotlib.axis_1">
    <g id="xtick_1">
     <g id="line2d_1">
      <path d="M 93.312 307.584 
L 93.312 41.472 
" clip-path="url(#p50eb201113)" style="fill: none; stroke: #b0b0b0; stroke-width: 0.8; stroke-linecap: square"/>
     </g>
     <g id="line2d_2">
      <defs>
       <path id="m10ff395f58" d="M 0 0 
L 0 3.5 
" style="stroke: #000000; stroke-width: 0.8"/>
      </defs>
      <g>
       <use xlink:href="#m10ff395f58" x="93.312" y="307.584" style="stroke: #000000; stroke-width: 0.8"/>
      </g>
     </g>
     <g id="text_1">
      <!-- −4 -->
      <g transform="translate(85.940906 322.182437) scale(0.1 -0.1)">
       <defs>
        <path id="DejaVuSans-2212" d="M 678 2272 
L 4684 2272 
L 4684 1741 
L 678 1741 
L 678 2272 
z
" transform="scale(0.015625)"/>
        <path id="DejaVuSans-34" d="M 2419 4116 
L 825 1625 
L 2419 1625 
L 2419 4116 
z
M 2253 4666 
L 3047 4666 
L 3047 1625 
L 3713 1625 
L 3713 1100 
L 3047 1100 
L 3047 0 
L 2419 0 
L 2419 1100 
L 313 1100 
L 313 1709 
L 2253 4666 
z
" transform="scale(0.015625)"/>
       </defs>
       <use xlink:href="#DejaVuSans-2212"/>
       <use xlink:href="#DejaVuSans-34" x="83.789062"/>
      </g>
     </g>
    </g>
    <g id="xtick_2">
     <g id="line2d_3">
      <path d="M 164.736 307.584 
L 164.736 41.472 
" clip-path="url(#p50eb201113)" style="fill: none; stroke: #b0b0b0; stroke-width: 0.8; stroke-linecap: square"/>
     </g>
     <g id="line2d_4">
      <g>
       <use xlink:href="#m10ff395f58" x="164.736" y="307.584" style="stroke: #000000; stroke-width: 0.8"/>
      </g>
     </g>
     <g id="text_2">
      <!-- −2 -->
      <g transform="translate(157.364906 322.182437) scale(0.1 -0.1)">
       <defs>
        <path id="DejaVuSans-32" d="M 1228 531 
L 3431 531 
L 3431 0 
L 469 0 
L 469 531 
Q 828 903 1448 1529 
Q 2069 2156 2228 2338 
Q 2531 2678 2651 2914 
Q 2772 3150 2772 3378 
Q 2772 3750 2511 3984 
Q 2250 4219 1831 4219 
Q 1534 4219 1204 4116 
Q 875 4013 500 3803 
L 500 4441 
Q 881 4594 1212 4672 
Q 1544 4750 1819 4750 
Q 2544 4750 2975 4387 
Q 3406 4025 3406 3419 
Q 3406 3131 3298 2873 
Q 3191 2616 2906 2266 
Q 2828 2175 2409 1742 
Q 1991 1309 1228 531 
z
" transform="scale(0.015625)"/>
       </defs>
       <use xlink:href="#DejaVuSans-2212"/>
       <use xlink:href="#DejaVuSans-32" x="83.789062"/>
      </g>
     </g>
    </g>
    <g id="xtick_3">
     <g id="line2d_5">
      <path d="M 236.16 307.584 
L 236.16 41.472 
" clip-path="url(#p50eb201113)" style="fill: none; stroke: #b0b0b0; stroke-width: 0.8; stroke-linecap: square"/>
     </g>
     <g id="line2d_6">
      <g>
       <use xlink:href="#m10ff395f58" x="236.16" y="307.584" style="stroke: #000000; stroke-width: 0.8"/>
      </g>
     </g>
     <g id="text_3">
      <!-- 0 -->
      <g transform="translate(232.97875 322.182437) scale(0.1 -0.1)">
       <defs>
        <path id="DejaVuSans-30" d="M 2034 4250 
Q 1547 4250 1301 3770 
Q 1056 3291 1056 2328 
Q 1056 1369 1301 889 
Q 1547 409 2034 409 
Q 2525 409 2770 889 
Q 3016 1369 3016 2328 
Q 3016 3291 2770 3770 
Q 2525 4250 2034 4250 
z
M 2034 4750 
Q 2819 4750 3233 4129 
Q 3647 3509 3647 2328 
Q 3647 1150 3233 529 
Q 2819 -91 2034 -91 
Q 1250 -91 836 529 
Q 422 1150 422 2328 
Q 422 3509 836 4129 
Q 1250 4750 2034 4750 
z
" transform="scale(0.015625)"/>
       </defs>
       <use xlink:href="#DejaVuSans-30"/>
      </g>
     </g>
    </g>
    <g id="xtick_4">
     <g id="line2d_7">
      <path d="M 307.584 307.584 
L 307.584 41.472 
" clip-path="url(#p50eb201113)" style="fill: none; stroke: #b0b0b0; stroke-width: 0.8; stroke-linecap: square"/>
     </g>
     <g id="line2d_8">
      <g>
       <use xlink:href="#m10ff395f58" x="307.584" y="307.584" style="stroke: #000000; stroke-width: 0.8"/>
      </g>
     </g>
     <g id="text_4">
      <!-- 2 -->
      <g transform="translate(304.40275 322.182437) scale(0.1 -0.1)">
       <use xlink:href="#DejaVuSans-32"/>
      </g>
     </g>
    </g>
    <g id="xtick_5">
     <g id="line2d_9">
      <path d="M 379.008 307.584 
L 379.008 41.472 
" clip-path="url(#p50eb201113)" style="fill: none; stroke: #b0b0b0; stroke-width: 0.8; stroke-linecap: square"/>
     </g>
     <g id="line2d_10">
      <g>
       <use xlink:href="#m10ff395f58" x="379.008" y="307.584" style="stroke: #000000; stroke-width: 0.8"/>
      </g>
     </g>
     <g id="text_5">
      <!-- 4 -->
      <g transform="translate(375.82675 322.182437) scale(0.1 -0.1)">
       <use xlink:href="#DejaVuSans-34"/>
      </g>
     </g>
    </g>
    <g id="text_6">
     <!-- x -->
     <g transform="translate(233.200625 335.860562) scale(0.1 -0.1)">
      <defs>
       <path id="DejaVuSans-78" d="M 3513 3500 
L 2247 1797 
L 3578 0 
L 2900 0 
L 1881 1375 
L 863 0 
L 184 0 
L 1544 1831 
L 300 3500 
L 978 3500 
L 1906 2253 
L 2834 3500 
L 3513 3500 
z
" transform="scale(0.015625)"/>
      </defs>
      <use xlink:href="#DejaVuSans-78"/>
     </g>
    </g>
   </g>
   <g id="matplotlib.axis_2">
    <g id="ytick_1">
     <g id="line2d_11">
      <path d="M 57.6 307.584 
L 414.72 307.584 
" clip-path="url(#p50eb201113)" style="fill: none; stroke: #b0b0b0; stroke-width: 0.8; stroke-linecap: square"/>
     </g>
     <g id="line2d_12">
      <defs>
       <path id="m42856b83f4" d="M 0 0 
L -3.5 0 
" style="stroke: #000000; stroke-width: 0.8"/>
      </defs>
      <g>
       <use xlink:href="#m42856b83f4" x="57.6" y="307.584" style="stroke: #000000; stroke-width: 0.8"/>
      </g>
     </g>
     <g id="text_7">
      <!-- 0.0 -->
      <g transform="translate(34.696875 311.383219) scale(0.1 -0.1)">
       <defs>
        <path id="DejaVuSans-2e" d="M 684 794 
L 1344 794 
L 1344 0 
L 684 0 
L 684 794 
z
" transform="scale(0.015625)"/>
       </defs>
       <use xlink:href="#DejaVuSans-30"/>
       <use xlink:href="#DejaVuSans-2e" x="63.623047"/>
       <use xlink:href="#DejaVuSans-30" x="95.410156"/>
      </g>
     </g>
    </g>
    <g id="ytick_2">
     <g id="line2d_13">
      <path d="M 57.6 270.680298 
L 414.72 270.680298 
" clip-path="url(#p50eb201113)" style="fill: none; stroke: #b0b0b0; stroke-width: 0.8; stroke-linecap: square"/>
     </g>
     <g id="line2d_14">
      <g>
       <use xlink:href="#m42856b83f4" x="57.6" y="270.680298" style="stroke: #000000; stroke-width: 0.8"/>
      </g>
     </g>
     <g id="text_8">
      <!-- 0.1 -->
      <g transform="translate(34.696875 274.479517) scale(0.1 -0.1)">
       <defs>
        <path id="DejaVuSans-31" d="M 794 531 
L 1825 531 
L 1825 4091 
L 703 3866 
L 703 4441 
L 1819 4666 
L 2450 4666 
L 2450 531 
L 3481 531 
L 3481 0 
L 794 0 
L 794 531 
z
" transform="scale(0.015625)"/>
       </defs>
       <use xlink:href="#DejaVuSans-30"/>
       <use xlink:href="#DejaVuSans-2e" x="63.623047"/>
       <use xlink:href="#DejaVuSans-31" x="95.410156"/>
      </g>
     </g>
    </g>
    <g id="ytick_3">
     <g id="line2d_15">
      <path d="M 57.6 233.776596 
L 414.72 233.776596 
" clip-path="url(#p50eb201113)" style="fill: none; stroke: #b0b0b0; stroke-width: 0.8; stroke-linecap: square"/>
     </g>
     <g id="line2d_16">
      <g>
       <use xlink:href="#m42856b83f4" x="57.6" y="233.776596" style="stroke: #000000; stroke-width: 0.8"/>
      </g>
     </g>
     <g id="text_9">
      <!-- 0.2 -->
      <g transform="translate(34.696875 237.575815) scale(0.1 -0.1)">
       <use xlink:href="#DejaVuSans-30"/>
       <use xlink:href="#DejaVuSans-2e" x="63.623047"/>
       <use xlink:href="#DejaVuSans-32" x="95.410156"/>
      </g>
     </g>
    </g>
    <g id="ytick_4">
     <g id="line2d_17">
      <path d="M 57.6 196.872894 
L 414.72 196.872894 
" clip-path="url(#p50eb201113)" style="fill: none; stroke: #b0b0b0; stroke-width: 0.8; stroke-linecap: square"/>
     </g>
     <g id="line2d_18">
      <g>
       <use xlink:href="#m42856b83f4" x="57.6" y="196.872894" style="stroke: #000000; stroke-width: 0.8"/>
      </g>
     </g>
     <g id="text_10">
      <!-- 0.3 -->
      <g transform="translate(34.696875 200.672113) scale(0.1 -0.1)">
       <defs>
        <path id="DejaVuSans-33" d="M 2597 2516 
Q 3050 2419 3304 2112 
Q 3559 1806 3559 1356 
Q 3559 666 3084 287 
Q 2609 -91 1734 -91 
Q 1441 -91 1130 -33 
Q 819 25 488 141 
L 488 750 
Q 750 597 1062 519 
Q 1375 441 1716 441 
Q 2309 441 2620 675 
Q 2931 909 2931 1356 
Q 2931 1769 2642 2001 
Q 2353 2234 1838 2234 
L 1294 2234 
L 1294 2753 
L 1863 2753 
Q 2328 2753 2575 2939 
Q 2822 3125 2822 3475 
Q 2822 3834 2567 4026 
Q 2313 4219 1838 4219 
Q 1578 4219 1281 4162 
Q 984 4106 628 3988 
L 628 4550 
Q 988 4650 1302 4700 
Q 1616 4750 1894 4750 
Q 2613 4750 3031 4423 
Q 3450 4097 3450 3541 
Q 3450 3153 3228 2886 
Q 3006 2619 2597 2516 
z
" transform="scale(0.015625)"/>
       </defs>
       <use xlink:href="#DejaVuSans-30"/>
       <use xlink:href="#DejaVuSans-2e" x="63.623047"/>
       <use xlink:href="#DejaVuSans-33" x="95.410156"/>
      </g>
     </g>
    </g>
    <g id="ytick_5">
     <g id="line2d_19">
      <path d="M 57.6 159.969192 
L 414.72 159.969192 
" clip-path="url(#p50eb201113)" style="fill: none; stroke: #b0b0b0; stroke-width: 0.8; stroke-linecap: square"/>
     </g>
     <g id="line2d_20">
      <g>
       <use xlink:href="#m42856b83f4" x="57.6" y="159.969192" style="stroke: #000000; stroke-width: 0.8"/>
      </g>
     </g>
     <g id="text_11">
      <!-- 0.4 -->
      <g transform="translate(34.696875 163.768411) scale(0.1 -0.1)">
       <use xlink:href="#DejaVuSans-30"/>
       <use xlink:href="#DejaVuSans-2e" x="63.623047"/>
       <use xlink:href="#DejaVuSans-34" x="95.410156"/>
      </g>
     </g>
    </g>
    <g id="ytick_6">
     <g id="line2d_21">
      <path d="M 57.6 123.06549 
L 414.72 123.06549 
" clip-path="url(#p50eb201113)" style="fill: none; stroke: #b0b0b0; stroke-width: 0.8; stroke-linecap: square"/>
     </g>
     <g id="line2d_22">
      <g>
       <use xlink:href="#m42856b83f4" x="57.6" y="123.06549" style="stroke: #000000; stroke-width: 0.8"/>
      </g>
     </g>
     <g id="text_12">
      <!-- 0.5 -->
      <g transform="translate(34.696875 126.864709) scale(0.1 -0.1)">
       <defs>
        <path id="DejaVuSans-35" d="M 691 4666 
L 3169 4666 
L 3169 4134 
L 1269 4134 
L 1269 2991 
Q 1406 3038 1543 3061 
Q 1681 3084 1819 3084 
Q 2600 3084 3056 2656 
Q 3513 2228 3513 1497 
Q 3513 744 3044 326 
Q 2575 -91 1722 -91 
Q 1428 -91 1123 -41 
Q 819 9 494 109 
L 494 744 
Q 775 591 1075 516 
Q 1375 441 1709 441 
Q 2250 441 2565 725 
Q 2881 1009 2881 1497 
Q 2881 1984 2565 2268 
Q 2250 2553 1709 2553 
Q 1456 2553 1204 2497 
Q 953 2441 691 2322 
L 691 4666 
z
" transform="scale(0.015625)"/>
       </defs>
       <use xlink:href="#DejaVuSans-30"/>
       <use xlink:href="#DejaVuSans-2e" x="63.623047"/>
       <use xlink:href="#DejaVuSans-35" x="95.410156"/>
      </g>
     </g>
    </g>
    <g id="ytick_7">
     <g id="line2d_23">
      <path d="M 57.6 86.161788 
L 414.72 86.161788 
" clip-path="url(#p50eb201113)" style="fill: none; stroke: #b0b0b0; stroke-width: 0.8; stroke-linecap: square"/>
     </g>
     <g id="line2d_24">
      <g>
       <use xlink:href="#m42856b83f4" x="57.6" y="86.161788" style="stroke: #000000; stroke-width: 0.8"/>
      </g>
     </g>
     <g id="text_13">
      <!-- 0.6 -->
      <g transform="translate(34.696875 89.961007) scale(0.1 -0.1)">
       <defs>
        <path id="DejaVuSans-36" d="M 2113 2584 
Q 1688 2584 1439 2293 
Q 1191 2003 1191 1497 
Q 1191 994 1439 701 
Q 1688 409 2113 409 
Q 2538 409 2786 701 
Q 3034 994 3034 1497 
Q 3034 2003 2786 2293 
Q 2538 2584 2113 2584 
z
M 3366 4563 
L 3366 3988 
Q 3128 4100 2886 4159 
Q 2644 4219 2406 4219 
Q 1781 4219 1451 3797 
Q 1122 3375 1075 2522 
Q 1259 2794 1537 2939 
Q 1816 3084 2150 3084 
Q 2853 3084 3261 2657 
Q 3669 2231 3669 1497 
Q 3669 778 3244 343 
Q 2819 -91 2113 -91 
Q 1303 -91 875 529 
Q 447 1150 447 2328 
Q 447 3434 972 4092 
Q 1497 4750 2381 4750 
Q 2619 4750 2861 4703 
Q 3103 4656 3366 4563 
z
" transform="scale(0.015625)"/>
       </defs>
       <use xlink:href="#DejaVuSans-30"/>
       <use xlink:href="#DejaVuSans-2e" x="63.623047"/>
       <use xlink:href="#DejaVuSans-36" x="95.410156"/>
      </g>
     </g>
    </g>
    <g id="ytick_8">
     <g id="line2d_25">
      <path d="M 57.6 49.258086 
L 414.72 49.258086 
" clip-path="url(#p50eb201113)" style="fill: none; stroke: #b0b0b0; stroke-width: 0.8; stroke-linecap: square"/>
     </g>
     <g id="line2d_26">
      <g>
       <use xlink:href="#m42856b83f4" x="57.6" y="49.258086" style="stroke: #000000; stroke-width: 0.8"/>
      </g>
     </g>
     <g id="text_14">
      <!-- 0.7 -->
      <g transform="translate(34.696875 53.057304) scale(0.1 -0.1)">
       <defs>
        <path id="DejaVuSans-37" d="M 525 4666 
L 3525 4666 
L 3525 4397 
L 1831 0 
L 1172 0 
L 2766 4134 
L 525 4134 
L 525 4666 
z
" transform="scale(0.015625)"/>
       </defs>
       <use xlink:href="#DejaVuSans-30"/>
       <use xlink:href="#DejaVuSans-2e" x="63.623047"/>
       <use xlink:href="#DejaVuSans-37" x="95.410156"/>
      </g>
     </g>
    </g>
    <g id="text_15">
     <!-- Probability density -->
     <g transform="translate(28.617187 220.878781) rotate(-90) scale(0.1 -0.1)">
      <defs>
       <path id="DejaVuSans-50" d="M 1259 4147 
L 1259 2394 
L 2053 2394 
Q 2494 2394 2734 2622 
Q 2975 2850 2975 3272 
Q 2975 3691 2734 3919 
Q 2494 4147 2053 4147 
L 1259 4147 
z
M 628 4666 
L 2053 4666 
Q 2838 4666 3239 4311 
Q 3641 3956 3641 3272 
Q 3641 2581 3239 2228 
Q 2838 1875 2053 1875 
L 1259 1875 
L 1259 0 
L 628 0 
L 628 4666 
z
" transform="scale(0.015625)"/>
       <path id="DejaVuSans-72" d="M 2631 2963 
Q 2534 3019 2420 3045 
Q 2306 3072 2169 3072 
Q 1681 3072 1420 2755 
Q 1159 2438 1159 1844 
L 1159 0 
L 581 0 
L 581 3500 
L 1159 3500 
L 1159 2956 
Q 1341 3275 1631 3429 
Q 1922 3584 2338 3584 
Q 2397 3584 2469 3576 
Q 2541 3569 2628 3553 
L 2631 2963 
z
" transform="scale(0.015625)"/>
       <path id="DejaVuSans-6f" d="M 1959 3097 
Q 1497 3097 1228 2736 
Q 959 2375 959 1747 
Q 959 1119 1226 758 
Q 1494 397 1959 397 
Q 2419 397 2687 759 
Q 2956 1122 2956 1747 
Q 2956 2369 2687 2733 
Q 2419 3097 1959 3097 
z
M 1959 3584 
Q 2709 3584 3137 3096 
Q 3566 2609 3566 1747 
Q 3566 888 3137 398 
Q 2709 -91 1959 -91 
Q 1206 -91 779 398 
Q 353 888 353 1747 
Q 353 2609 779 3096 
Q 1206 3584 1959 3584 
z
" transform="scale(0.015625)"/>
       <path id="DejaVuSans-62" d="M 3116 1747 
Q 3116 2381 2855 2742 
Q 2594 3103 2138 3103 
Q 1681 3103 1420 2742 
Q 1159 2381 1159 1747 
Q 1159 1113 1420 752 
Q 1681 391 2138 391 
Q 2594 391 2855 752 
Q 3116 1113 3116 1747 
z
M 1159 2969 
Q 1341 3281 1617 3432 
Q 1894 3584 2278 3584 
Q 2916 3584 3314 3078 
Q 3713 2572 3713 1747 
Q 3713 922 3314 415 
Q 2916 -91 2278 -91 
Q 1894 -91 1617 61 
Q 1341 213 1159 525 
L 1159 0 
L 581 0 
L 581 4863 
L 1159 4863 
L 1159 2969 
z
" transform="scale(0.015625)"/>
       <path id="DejaVuSans-61" d="M 2194 1759 
Q 1497 1759 1228 1600 
Q 959 1441 959 1056 
Q 959 750 1161 570 
Q 1363 391 1709 391 
Q 2188 391 2477 730 
Q 2766 1069 2766 1631 
L 2766 1759 
L 2194 1759 
z
M 3341 1997 
L 3341 0 
L 2766 0 
L 2766 531 
Q 2569 213 2275 61 
Q 1981 -91 1556 -91 
Q 1019 -91 701 211 
Q 384 513 384 1019 
Q 384 1609 779 1909 
Q 1175 2209 1959 2209 
L 2766 2209 
L 2766 2266 
Q 2766 2663 2505 2880 
Q 2244 3097 1772 3097 
Q 1472 3097 1187 3025 
Q 903 2953 641 2809 
L 641 3341 
Q 956 3463 1253 3523 
Q 1550 3584 1831 3584 
Q 2591 3584 2966 3190 
Q 3341 2797 3341 1997 
z
" transform="scale(0.015625)"/>
       <path id="DejaVuSans-69" d="M 603 3500 
L 1178 3500 
L 1178 0 
L 603 0 
L 603 3500 
z
M 603 4863 
L 1178 4863 
L 1178 4134 
L 603 4134 
L 603 4863 
z
" transform="scale(0.015625)"/>
       <path id="DejaVuSans-6c" d="M 603 4863 
L 1178 4863 
L 1178 0 
L 603 0 
L 603 4863 
z
" transform="scale(0.015625)"/>
       <path id="DejaVuSans-74" d="M 1172 4494 
L 1172 3500 
L 2356 3500 
L 2356 3053 
L 1172 3053 
L 1172 1153 
Q 1172 725 1289 603 
Q 1406 481 1766 481 
L 2356 481 
L 2356 0 
L 1766 0 
Q 1100 0 847 248 
Q 594 497 594 1153 
L 594 3053 
L 172 3053 
L 172 3500 
L 594 3500 
L 594 4494 
L 1172 4494 
z
" transform="scale(0.015625)"/>
       <path id="DejaVuSans-79" d="M 2059 -325 
Q 1816 -950 1584 -1140 
Q 1353 -1331 966 -1331 
L 506 -1331 
L 506 -850 
L 844 -850 
Q 1081 -850 1212 -737 
Q 1344 -625 1503 -206 
L 1606 56 
L 191 3500 
L 800 3500 
L 1894 763 
L 2988 3500 
L 3597 3500 
L 2059 -325 
z
" transform="scale(0.015625)"/>
       <path id="DejaVuSans-20" transform="scale(0.015625)"/>
       <path id="DejaVuSans-64" d="M 2906 2969 
L 2906 4863 
L 3481 4863 
L 3481 0 
L 2906 0 
L 2906 525 
Q 2725 213 2448 61 
Q 2172 -91 1784 -91 
Q 1150 -91 751 415 
Q 353 922 353 1747 
Q 353 2572 751 3078 
Q 1150 3584 1784 3584 
Q 2172 3584 2448 3432 
Q 2725 3281 2906 2969 
z
M 947 1747 
Q 947 1113 1208 752 
Q 1469 391 1925 391 
Q 2381 391 2643 752 
Q 2906 1113 2906 1747 
Q 2906 2381 2643 2742 
Q 2381 3103 1925 3103 
Q 1469 3103 1208 2742 
Q 947 2381 947 1747 
z
" transform="scale(0.015625)"/>
       <path id="DejaVuSans-65" d="M 3597 1894 
L 3597 1613 
L 953 1613 
Q 991 1019 1311 708 
Q 1631 397 2203 397 
Q 2534 397 2845 478 
Q 3156 559 3463 722 
L 3463 178 
Q 3153 47 2828 -22 
Q 2503 -91 2169 -91 
Q 1331 -91 842 396 
Q 353 884 353 1716 
Q 353 2575 817 3079 
Q 1281 3584 2069 3584 
Q 2775 3584 3186 3129 
Q 3597 2675 3597 1894 
z
M 3022 2063 
Q 3016 2534 2758 2815 
Q 2500 3097 2075 3097 
Q 1594 3097 1305 2825 
Q 1016 2553 972 2059 
L 3022 2063 
z
" transform="scale(0.015625)"/>
       <path id="DejaVuSans-6e" d="M 3513 2113 
L 3513 0 
L 2938 0 
L 2938 2094 
Q 2938 2591 2744 2837 
Q 2550 3084 2163 3084 
Q 1697 3084 1428 2787 
Q 1159 2491 1159 1978 
L 1159 0 
L 581 0 
L 581 3500 
L 1159 3500 
L 1159 2956 
Q 1366 3272 1645 3428 
Q 1925 3584 2291 3584 
Q 2894 3584 3203 3211 
Q 3513 2838 3513 2113 
z
" transform="scale(0.015625)"/>
       <path id="DejaVuSans-73" d="M 2834 3397 
L 2834 2853 
Q 2591 2978 2328 3040 
Q 2066 3103 1784 3103 
Q 1356 3103 1142 2972 
Q 928 2841 928 2578 
Q 928 2378 1081 2264 
Q 1234 2150 1697 2047 
L 1894 2003 
Q 2506 1872 2764 1633 
Q 3022 1394 3022 966 
Q 3022 478 2636 193 
Q 2250 -91 1575 -91 
Q 1294 -91 989 -36 
Q 684 19 347 128 
L 347 722 
Q 666 556 975 473 
Q 1284 391 1588 391 
Q 1994 391 2212 530 
Q 2431 669 2431 922 
Q 2431 1156 2273 1281 
Q 2116 1406 1581 1522 
L 1381 1569 
Q 847 1681 609 1914 
Q 372 2147 372 2553 
Q 372 3047 722 3315 
Q 1072 3584 1716 3584 
Q 2034 3584 2315 3537 
Q 2597 3491 2834 3397 
z
" transform="scale(0.015625)"/>
      </defs>
      <use xlink:href="#DejaVuSans-50"/>
      <use xlink:href="#DejaVuSans-72" x="58.552734"/>
      <use xlink:href="#DejaVuSans-6f" x="97.416016"/>
      <use xlink:href="#DejaVuSans-62" x="158.597656"/>
      <use xlink:href="#DejaVuSans-61" x="222.074219"/>
      <use xlink:href="#DejaVuSans-62" x="283.353516"/>
      <use xlink:href="#DejaVuSans-69" x="346.830078"/>
      <use xlink:href="#DejaVuSans-6c" x="374.613281"/>
      <use xlink:href="#DejaVuSans-69" x="402.396484"/>
      <use xlink:href="#DejaVuSans-74" x="430.179688"/>
      <use xlink:href="#DejaVuSans-79" x="469.388672"/>
      <use xlink:href="#DejaVuSans-20" x="528.568359"/>
      <use xlink:href="#DejaVuSans-64" x="560.355469"/>
      <use xlink:href="#DejaVuSans-65" x="623.832031"/>
      <use xlink:href="#DejaVuSans-6e" x="685.355469"/>
      <use xlink:href="#DejaVuSans-73" x="748.734375"/>
      <use xlink:href="#DejaVuSans-69" x="800.833984"/>
      <use xlink:href="#DejaVuSans-74" x="828.617188"/>
      <use xlink:href="#DejaVuSans-79" x="867.826172"/>
     </g>
    </g>
   </g>
   <g id="line2d_27">
    <path d="M 57.6 307.582903 
L 94.777658 307.467699 
L 105.501982 307.218974 
L 112.651532 306.839738 
L 118.013694 306.347044 
L 122.660901 305.697549 
L 126.593153 304.923312 
L 130.167928 303.984882 
L 133.385225 302.900643 
L 136.245045 301.70569 
L 139.104865 300.253008 
L 141.607207 298.736928 
L 144.10955 296.959608 
L 146.611892 294.887725 
L 149.114234 292.48611 
L 151.259099 290.137413 
L 153.403964 287.495935 
L 155.548829 284.53781 
L 157.693694 281.239281 
L 159.838559 277.577079 
L 161.983423 273.528858 
L 164.485766 268.290188 
L 166.988108 262.467715 
L 169.49045 256.036193 
L 171.992793 248.976291 
L 174.495135 241.275837 
L 177.354955 231.686555 
L 180.214775 221.265822 
L 183.074595 210.041852 
L 186.291892 196.515829 
L 189.866667 180.491703 
L 194.156396 160.145607 
L 200.233514 130.064347 
L 207.740541 93.059161 
L 211.315315 76.482457 
L 214.175135 64.216639 
L 216.32 55.932732 
L 218.107387 49.940278 
L 219.537297 46.000756 
L 220.60973 43.71301 
L 221.324685 42.580622 
L 222.03964 41.816597 
L 222.754595 41.472 
L 223.112072 41.473895 
L 223.46955 41.601275 
L 223.827027 41.861303 
L 224.541982 42.808215 
L 225.256937 44.372234 
L 225.971892 46.609242 
L 226.686847 49.571271 
L 227.401802 53.304162 
L 228.474234 60.427286 
L 229.546667 69.442418 
L 230.619099 80.353515 
L 232.049009 97.697741 
L 233.478919 117.814449 
L 235.623784 151.566466 
L 239.556036 214.5991 
L 241.343423 239.403903 
L 242.773333 256.282452 
L 244.203243 270.248195 
L 245.275676 278.818137 
L 246.348108 285.851549 
L 247.420541 291.489262 
L 248.492973 295.90298 
L 249.565405 299.278059 
L 250.637838 301.798933 
L 251.71027 303.638073 
L 252.782703 304.948704 
L 253.855135 305.86104 
L 254.927568 306.481396 
L 256.357477 306.996009 
L 258.144865 307.330219 
L 260.647207 307.513346 
L 265.651892 307.580188 
L 318.558559 307.584 
L 414.72 307.584 
L 414.72 307.584 
" clip-path="url(#p50eb201113)" style="fill: none; stroke: #1f77b4; stroke-width: 1.5; stroke-linecap: square"/>
   </g>
   <g id="line2d_28">
    <path d="M 57.6 307.582903 
L 94.777658 307.467699 
L 105.501982 307.218974 
L 112.651532 306.839738 
L 118.013694 306.347044 
L 122.660901 305.697549 
L 126.593153 304.923312 
L 130.167928 303.984882 
L 133.385225 302.900643 
L 136.245045 301.70569 
L 139.104865 300.253008 
L 141.607207 298.736928 
L 144.10955 296.959609 
L 146.611892 294.887728 
L 149.114234 292.486118 
L 151.259099 290.137431 
L 153.403964 287.495971 
L 155.548829 284.537883 
L 157.693694 281.239427 
L 159.838559 277.577367 
L 161.983423 273.529414 
L 164.485766 268.291361 
L 166.988108 262.470132 
L 169.49045 256.041056 
L 171.992793 248.985848 
L 174.495135 241.294186 
L 177.354955 231.724132 
L 180.214775 221.340466 
L 183.432072 208.740358 
L 187.006847 193.727322 
L 191.296577 174.629901 
L 201.663423 127.843516 
L 204.523243 116.303088 
L 206.668108 108.534845 
L 208.455495 102.810036 
L 210.242883 97.897812 
L 211.672793 94.635509 
L 212.745225 92.618021 
L 213.817658 90.99547 
L 214.89009 89.790557 
L 215.605045 89.229668 
L 216.32 88.869311 
L 217.034955 88.714609 
L 217.74991 88.77014 
L 218.464865 89.039887 
L 219.17982 89.527196 
L 219.894775 90.234735 
L 220.967207 91.71303 
L 222.03964 93.694406 
L 223.112072 96.17818 
L 224.184505 99.159451 
L 225.614414 103.891783 
L 227.044324 109.457685 
L 228.831712 117.51354 
L 230.619099 126.675282 
L 232.763964 138.916568 
L 235.266306 154.53063 
L 239.198559 180.713114 
L 244.203243 213.942294 
L 247.063063 231.498183 
L 249.565405 245.455411 
L 251.71027 256.186631 
L 253.855135 265.694569 
L 255.642523 272.66572 
L 257.42991 278.784603 
L 259.217297 284.084976 
L 261.004685 288.616553 
L 262.792072 292.440713 
L 264.221982 295.036842 
L 265.651892 297.261387 
L 267.081802 299.151899 
L 268.511712 300.745394 
L 270.299099 302.373802 
L 272.086486 303.659157 
L 273.873874 304.660891 
L 275.661261 305.431725 
L 277.806126 306.115858 
L 280.308468 306.663947 
L 283.168288 307.059497 
L 287.100541 307.353364 
L 292.82018 307.520946 
L 304.616937 307.581042 
L 414.72 307.584 
L 414.72 307.584 
" clip-path="url(#p50eb201113)" style="fill: none; stroke: #ff7f0e; stroke-width: 1.5; stroke-linecap: square"/>
   </g>
   <g id="line2d_29">
    <path d="M 57.6 307.583451 
L 100.854775 307.471579 
L 112.294054 307.224549 
L 119.801081 306.855061 
L 125.520721 306.371296 
L 130.525405 305.730268 
L 134.815135 304.958434 
L 138.747387 304.017056 
L 142.322162 302.920599 
L 145.539459 301.69898 
L 148.399279 300.396022 
L 151.259099 298.860707 
L 154.118919 297.065128 
L 156.978739 294.981032 
L 159.481081 292.898832 
L 161.983423 290.556429 
L 164.485766 287.937094 
L 166.988108 285.025858 
L 169.49045 281.810097 
L 172.35027 277.749814 
L 175.21009 273.270648 
L 178.06991 268.371274 
L 180.92973 263.0588 
L 184.147027 256.609489 
L 187.721802 248.903519 
L 191.654054 239.863186 
L 196.658739 227.728155 
L 209.885405 195.269284 
L 213.46018 187.289596 
L 216.32 181.413086 
L 218.822342 176.726316 
L 221.324685 172.530169 
L 223.46955 169.367718 
L 225.614414 166.640546 
L 227.401802 164.721045 
L 229.189189 163.137695 
L 230.619099 162.120984 
L 232.049009 161.331777 
L 233.478919 160.773844 
L 234.908829 160.449857 
L 236.338739 160.361374 
L 237.768649 160.508817 
L 239.198559 160.89148 
L 240.628468 161.507525 
L 242.058378 162.354004 
L 243.488288 163.426876 
L 245.275676 165.07847 
L 247.063063 167.063587 
L 248.85045 169.367718 
L 250.995315 172.530169 
L 253.14018 176.095425 
L 255.642523 180.715837 
L 258.502342 186.527822 
L 261.71964 193.625546 
L 265.651892 202.898116 
L 271.371532 217.036529 
L 279.593514 237.312417 
L 283.883243 247.300344 
L 287.458018 255.111794 
L 290.675315 261.667854 
L 293.892613 267.729561 
L 296.752432 272.681146 
L 299.612252 277.212928 
L 302.472072 281.325238 
L 305.331892 285.025858 
L 308.191712 288.32883 
L 311.051532 291.253242 
L 313.911351 293.822041 
L 316.771171 296.060905 
L 319.630991 297.997216 
L 322.490811 299.659138 
L 325.350631 301.074833 
L 328.567928 302.407373 
L 331.785225 303.500398 
L 335.36 304.476142 
L 339.292252 305.308931 
L 343.581982 305.987359 
L 348.586667 306.546784 
L 354.663784 306.985698 
L 362.170811 307.29267 
L 372.895135 307.48748 
L 392.198919 307.573472 
L 414.72 307.583451 
L 414.72 307.583451 
" clip-path="url(#p50eb201113)" style="fill: none; stroke: #2ca02c; stroke-width: 1.5; stroke-linecap: square"/>
   </g>
   <g id="line2d_30">
    <path d="M 57.6 307.584 
L 181.644685 307.479988 
L 187.006847 307.246576 
L 190.581622 306.886732 
L 193.441441 306.378978 
L 195.586306 305.802712 
L 197.731171 304.994214 
L 199.518559 304.090778 
L 201.305946 302.925638 
L 203.093333 301.441987 
L 204.523243 299.983503 
L 205.953153 298.246061 
L 207.383063 296.193214 
L 208.812973 293.787569 
L 210.242883 290.991652 
L 211.672793 287.768929 
L 213.102703 284.084976 
L 214.89009 278.784603 
L 216.677477 272.66572 
L 218.464865 265.694569 
L 220.252252 257.85751 
L 222.397117 247.326286 
L 224.541982 235.633395 
L 227.044324 220.699254 
L 230.261622 199.946733 
L 239.198559 141.069845 
L 241.700901 126.675282 
L 243.488288 117.51354 
L 245.275676 109.457685 
L 246.705586 103.891783 
L 248.135495 99.159451 
L 249.565405 95.294648 
L 250.637838 92.978006 
L 251.71027 91.164452 
L 252.782703 89.853298 
L 253.497658 89.256163 
L 254.212613 88.878012 
L 254.927568 88.715832 
L 255.642523 88.765954 
L 256.357477 89.024091 
L 257.072432 89.485386 
L 258.144865 90.546358 
L 259.217297 92.032133 
L 260.28973 93.920599 
L 261.71964 97.023718 
L 263.14955 100.74071 
L 264.936937 106.155345 
L 266.724324 112.308236 
L 268.869189 120.493433 
L 271.729009 132.434025 
L 275.661261 150.024585 
L 285.313153 193.727322 
L 288.887928 208.740358 
L 292.105225 221.340466 
L 294.965045 231.724132 
L 297.824865 241.294186 
L 300.684685 250.032557 
L 303.187027 256.997482 
L 305.689369 263.338438 
L 308.191712 269.074715 
L 310.694054 274.231778 
L 313.196396 278.839855 
L 315.698739 282.93267 
L 318.201081 286.546301 
L 320.703423 289.718162 
L 323.205766 292.486118 
L 325.708108 294.887728 
L 328.21045 296.959609 
L 330.712793 298.736928 
L 333.215135 300.253008 
L 336.074955 301.70569 
L 338.934775 302.900643 
L 342.152072 303.984882 
L 345.369369 304.840468 
L 348.944144 305.574021 
L 353.233874 306.218458 
L 358.238559 306.729883 
L 364.315676 307.113462 
L 372.18018 307.375623 
L 384.334414 307.530207 
L 410.787748 307.582109 
L 414.72 307.582903 
L 414.72 307.582903 
" clip-path="url(#p50eb201113)" style="fill: none; stroke: #d62728; stroke-width: 1.5; stroke-linecap: square"/>
   </g>
   <g id="line2d_31">
    <path d="M 57.6 307.584 
L 212.387748 307.480934 
L 214.89009 307.226247 
L 216.32 306.893441 
L 217.392432 306.481396 
L 218.464865 305.86104 
L 219.537297 304.948704 
L 220.60973 303.638073 
L 221.682162 301.798933 
L 222.754595 299.278059 
L 223.827027 295.90298 
L 224.899459 291.489262 
L 225.971892 285.851549 
L 227.044324 278.818137 
L 228.116757 270.248195 
L 229.189189 260.050134 
L 230.619099 243.888452 
L 232.049009 224.965813 
L 233.836396 198.143261 
L 240.270991 97.697741 
L 241.700901 80.353515 
L 242.773333 69.442418 
L 243.845766 60.427286 
L 244.918198 53.304162 
L 245.990631 47.99659 
L 246.705586 45.403245 
L 247.420541 43.509529 
L 248.135495 42.261204 
L 248.85045 41.601275 
L 249.207928 41.473895 
L 249.565405 41.472 
L 250.28036 41.816597 
L 250.995315 42.580622 
L 251.71027 43.71301 
L 252.782703 46.000756 
L 253.855135 48.873416 
L 255.285045 53.416666 
L 257.072432 59.952248 
L 259.217297 68.681989 
L 262.077117 81.337701 
L 265.651892 98.216044 
L 271.371532 126.489133 
L 279.593514 167.040834 
L 283.883243 187.016687 
L 287.458018 202.639589 
L 290.675315 215.751709 
L 293.535135 226.578811 
L 296.394955 236.586148 
L 299.254775 245.754957 
L 301.757117 253.088353 
L 304.259459 259.787203 
L 306.761802 265.867922 
L 309.264144 271.353373 
L 311.766486 276.271632 
L 314.268829 280.654786 
L 316.771171 284.53781 
L 319.273514 287.957526 
L 321.775856 290.951669 
L 324.278198 293.55807 
L 326.780541 295.813961 
L 329.282883 297.755396 
L 331.785225 299.416795 
L 334.287568 300.830595 
L 337.147387 302.181831 
L 340.007207 303.290332 
L 343.224505 304.293269 
L 346.799279 305.158592 
L 350.731532 305.870041 
L 355.378739 306.464531 
L 360.740901 306.913459 
L 367.532973 307.244823 
L 376.827387 307.458131 
L 392.556396 307.563846 
L 414.72 307.582903 
L 414.72 307.582903 
" clip-path="url(#p50eb201113)" style="fill: none; stroke: #9467bd; stroke-width: 1.5; stroke-linecap: square"/>
   </g>
   <g id="patch_3">
    <path d="M 57.6 307.584 
L 57.6 41.472 
" style="fill: none; stroke: #000000; stroke-width: 0.8; stroke-linejoin: miter; stroke-linecap: square"/>
   </g>
   <g id="patch_4">
    <path d="M 414.72 307.584 
L 414.72 41.472 
" style="fill: none; stroke: #000000; stroke-width: 0.8; stroke-linejoin: miter; stroke-linecap: square"/>
   </g>
   <g id="patch_5">
    <path d="M 57.6 307.584 
L 414.72 307.584 
" style="fill: none; stroke: #000000; stroke-width: 0.8; stroke-linejoin: miter; stroke-linecap: square"/>
   </g>
   <g id="patch_6">
    <path d="M 57.6 41.472 
L 414.72 41.472 
" style="fill: none; stroke: #000000; stroke-width: 0.8; stroke-linejoin: miter; stroke-linecap: square"/>
   </g>
   <g id="text_16">
    <!-- Skew Normal distribution -->
    <g transform="translate(160.780312 35.472) scale(0.12 -0.12)">
     <defs>
      <path id="DejaVuSans-53" d="M 3425 4513 
L 3425 3897 
Q 3066 4069 2747 4153 
Q 2428 4238 2131 4238 
Q 1616 4238 1336 4038 
Q 1056 3838 1056 3469 
Q 1056 3159 1242 3001 
Q 1428 2844 1947 2747 
L 2328 2669 
Q 3034 2534 3370 2195 
Q 3706 1856 3706 1288 
Q 3706 609 3251 259 
Q 2797 -91 1919 -91 
Q 1588 -91 1214 -16 
Q 841 59 441 206 
L 441 856 
Q 825 641 1194 531 
Q 1563 422 1919 422 
Q 2459 422 2753 634 
Q 3047 847 3047 1241 
Q 3047 1584 2836 1778 
Q 2625 1972 2144 2069 
L 1759 2144 
Q 1053 2284 737 2584 
Q 422 2884 422 3419 
Q 422 4038 858 4394 
Q 1294 4750 2059 4750 
Q 2388 4750 2728 4690 
Q 3069 4631 3425 4513 
z
" transform="scale(0.015625)"/>
      <path id="DejaVuSans-6b" d="M 581 4863 
L 1159 4863 
L 1159 1991 
L 2875 3500 
L 3609 3500 
L 1753 1863 
L 3688 0 
L 2938 0 
L 1159 1709 
L 1159 0 
L 581 0 
L 581 4863 
z
" transform="scale(0.015625)"/>
      <path id="DejaVuSans-77" d="M 269 3500 
L 844 3500 
L 1563 769 
L 2278 3500 
L 2956 3500 
L 3675 769 
L 4391 3500 
L 4966 3500 
L 4050 0 
L 3372 0 
L 2619 2869 
L 1863 0 
L 1184 0 
L 269 3500 
z
" transform="scale(0.015625)"/>
      <path id="DejaVuSans-4e" d="M 628 4666 
L 1478 4666 
L 3547 763 
L 3547 4666 
L 4159 4666 
L 4159 0 
L 3309 0 
L 1241 3903 
L 1241 0 
L 628 0 
L 628 4666 
z
" transform="scale(0.015625)"/>
      <path id="DejaVuSans-6d" d="M 3328 2828 
Q 3544 3216 3844 3400 
Q 4144 3584 4550 3584 
Q 5097 3584 5394 3201 
Q 5691 2819 5691 2113 
L 5691 0 
L 5113 0 
L 5113 2094 
Q 5113 2597 4934 2840 
Q 4756 3084 4391 3084 
Q 3944 3084 3684 2787 
Q 3425 2491 3425 1978 
L 3425 0 
L 2847 0 
L 2847 2094 
Q 2847 2600 2669 2842 
Q 2491 3084 2119 3084 
Q 1678 3084 1418 2786 
Q 1159 2488 1159 1978 
L 1159 0 
L 581 0 
L 581 3500 
L 1159 3500 
L 1159 2956 
Q 1356 3278 1631 3431 
Q 1906 3584 2284 3584 
Q 2666 3584 2933 3390 
Q 3200 3197 3328 2828 
z
" transform="scale(0.015625)"/>
      <path id="DejaVuSans-75" d="M 544 1381 
L 544 3500 
L 1119 3500 
L 1119 1403 
Q 1119 906 1312 657 
Q 1506 409 1894 409 
Q 2359 409 2629 706 
Q 2900 1003 2900 1516 
L 2900 3500 
L 3475 3500 
L 3475 0 
L 2900 0 
L 2900 538 
Q 2691 219 2414 64 
Q 2138 -91 1772 -91 
Q 1169 -91 856 284 
Q 544 659 544 1381 
z
M 1991 3584 
L 1991 3584 
z
" transform="scale(0.015625)"/>
     </defs>
     <use xlink:href="#DejaVuSans-53"/>
     <use xlink:href="#DejaVuSans-6b" x="63.476562"/>
     <use xlink:href="#DejaVuSans-65" x="117.761719"/>
     <use xlink:href="#DejaVuSans-77" x="179.285156"/>
     <use xlink:href="#DejaVuSans-20" x="261.072266"/>
     <use xlink:href="#DejaVuSans-4e" x="292.859375"/>
     <use xlink:href="#DejaVuSans-6f" x="367.664062"/>
     <use xlink:href="#DejaVuSans-72" x="428.845703"/>
     <use xlink:href="#DejaVuSans-6d" x="468.208984"/>
     <use xlink:href="#DejaVuSans-61" x="565.621094"/>
     <use xlink:href="#DejaVuSans-6c" x="626.900391"/>
     <use xlink:href="#DejaVuSans-20" x="654.683594"/>
     <use xlink:href="#DejaVuSans-64" x="686.470703"/>
     <use xlink:href="#DejaVuSans-69" x="749.947266"/>
     <use xlink:href="#DejaVuSans-73" x="777.730469"/>
     <use xlink:href="#DejaVuSans-74" x="829.830078"/>
     <use xlink:href="#DejaVuSans-72" x="869.039062"/>
     <use xlink:href="#DejaVuSans-69" x="910.152344"/>
     <use xlink:href="#DejaVuSans-62" x="937.935547"/>
     <use xlink:href="#DejaVuSans-75" x="1001.412109"/>
     <use xlink:href="#DejaVuSans-74" x="1064.791016"/>
     <use xlink:href="#DejaVuSans-69" x="1104"/>
     <use xlink:href="#DejaVuSans-6f" x="1131.783203"/>
     <use xlink:href="#DejaVuSans-6e" x="1192.964844"/>
    </g>
   </g>
   <g id="legend_1">
    <g id="patch_7">
     <path d="M 344.421563 122.862625 
L 407.72 122.862625 
Q 409.72 122.862625 409.72 120.862625 
L 409.72 48.472 
Q 409.72 46.472 407.72 46.472 
L 344.421563 46.472 
Q 342.421563 46.472 342.421563 48.472 
L 342.421563 120.862625 
Q 342.421563 122.862625 344.421563 122.862625 
z
" style="fill: #ffffff; opacity: 0.8; stroke: #cccccc; stroke-linejoin: miter"/>
    </g>
    <g id="line2d_32">
     <path d="M 346.421563 54.570438 
L 356.421563 54.570438 
L 366.421563 54.570438 
" style="fill: none; stroke: #1f77b4; stroke-width: 1.5; stroke-linecap: square"/>
    </g>
    <g id="text_17">
     <!-- α = -5 -->
     <g transform="translate(374.421563 58.070438) scale(0.1 -0.1)">
      <defs>
       <path id="DejaVuSans-3b1" d="M 2644 1628 
L 2506 2350 
Q 2366 3091 1809 3091 
Q 1391 3091 1200 2747 
Q 959 2316 959 1747 
Q 959 1059 1194 731 
Q 1431 397 1809 397 
Q 2228 397 2453 1063 
L 2644 1628 
z
M 2966 2584 
L 3275 3500 
L 3788 3500 
L 3147 1603 
L 3272 919 
Q 3300 766 3409 638 
Q 3538 488 3638 488 
L 3913 488 
L 3913 0 
L 3569 0 
Q 3275 0 3013 263 
Q 2884 394 2831 669 
Q 2688 322 2394 50 
Q 2256 -78 1809 -78 
Q 1075 -78 719 397 
Q 353 888 353 1747 
Q 353 2666 750 3097 
Q 1191 3578 1809 3578 
Q 2781 3578 2966 2584 
z
" transform="scale(0.015625)"/>
       <path id="DejaVuSans-3d" d="M 678 2906 
L 4684 2906 
L 4684 2381 
L 678 2381 
L 678 2906 
z
M 678 1631 
L 4684 1631 
L 4684 1100 
L 678 1100 
L 678 1631 
z
" transform="scale(0.015625)"/>
       <path id="DejaVuSans-2d" d="M 313 2009 
L 1997 2009 
L 1997 1497 
L 313 1497 
L 313 2009 
z
" transform="scale(0.015625)"/>
      </defs>
      <use xlink:href="#DejaVuSans-3b1"/>
      <use xlink:href="#DejaVuSans-20" x="65.917969"/>
      <use xlink:href="#DejaVuSans-3d" x="97.705078"/>
      <use xlink:href="#DejaVuSans-20" x="181.494141"/>
      <use xlink:href="#DejaVuSans-2d" x="213.28125"/>
      <use xlink:href="#DejaVuSans-35" x="249.365234"/>
     </g>
    </g>
    <g id="line2d_33">
     <path d="M 346.421563 69.248563 
L 356.421563 69.248563 
L 366.421563 69.248563 
" style="fill: none; stroke: #ff7f0e; stroke-width: 1.5; stroke-linecap: square"/>
    </g>
    <g id="text_18">
     <!-- α = -2 -->
     <g transform="translate(374.421563 72.748563) scale(0.1 -0.1)">
      <use xlink:href="#DejaVuSans-3b1"/>
      <use xlink:href="#DejaVuSans-20" x="65.917969"/>
      <use xlink:href="#DejaVuSans-3d" x="97.705078"/>
      <use xlink:href="#DejaVuSans-20" x="181.494141"/>
      <use xlink:href="#DejaVuSans-2d" x="213.28125"/>
      <use xlink:href="#DejaVuSans-32" x="249.365234"/>
     </g>
    </g>
    <g id="line2d_34">
     <path d="M 346.421563 83.926688 
L 356.421563 83.926688 
L 366.421563 83.926688 
" style="fill: none; stroke: #2ca02c; stroke-width: 1.5; stroke-linecap: square"/>
    </g>
    <g id="text_19">
     <!-- α = 0 -->
     <g transform="translate(374.421563 87.426688) scale(0.1 -0.1)">
      <use xlink:href="#DejaVuSans-3b1"/>
      <use xlink:href="#DejaVuSans-20" x="65.917969"/>
      <use xlink:href="#DejaVuSans-3d" x="97.705078"/>
      <use xlink:href="#DejaVuSans-20" x="181.494141"/>
      <use xlink:href="#DejaVuSans-30" x="213.28125"/>
     </g>
    </g>
    <g id="line2d_35">
     <path d="M 346.421563 98.604813 
L 356.421563 98.604813 
L 366.421563 98.604813 
" style="fill: none; stroke: #d62728; stroke-width: 1.5; stroke-linecap: square"/>
    </g>
    <g id="text_20">
     <!-- α = 2 -->
     <g transform="translate(374.421563 102.104813) scale(0.1 -0.1)">
      <use xlink:href="#DejaVuSans-3b1"/>
      <use xlink:href="#DejaVuSans-20" x="65.917969"/>
      <use xlink:href="#DejaVuSans-3d" x="97.705078"/>
      <use xlink:href="#DejaVuSans-20" x="181.494141"/>
      <use xlink:href="#DejaVuSans-32" x="213.28125"/>
     </g>
    </g>
    <g id="line2d_36">
     <path d="M 346.421563 113.282938 
L 356.421563 113.282938 
L 366.421563 113.282938 
" style="fill: none; stroke: #9467bd; stroke-width: 1.5; stroke-linecap: square"/>
    </g>
    <g id="text_21">
     <!-- α = 5 -->
     <g transform="translate(374.421563 116.782938) scale(0.1 -0.1)">
      <use xlink:href="#DejaVuSans-3b1"/>
      <use xlink:href="#DejaVuSans-20" x="65.917969"/>
      <use xlink:href="#DejaVuSans-3d" x="97.705078"/>
      <use xlink:href="#DejaVuSans-20" x="181.494141"/>
      <use xlink:href="#DejaVuSans-35" x="213.28125"/>
     </g>
    </g>
   </g>
  </g>
 </g>
 <defs>
  <clipPath id="p50eb201113">
   <rect x="57.6" y="41.472" width="357.12" height="266.112"/>
  </clipPath>
 </defs>
</svg>
