<?xml version="1.0" encoding="utf-8" standalone="no"?>
<!DOCTYPE svg PUBLIC "-//W3C//DTD SVG 1.1//EN"
  "http://www.w3.org/Graphics/SVG/1.1/DTD/svg11.dtd">
<svg xmlns:xlink="http://www.w3.org/1999/xlink" width="460.8pt" height="345.6pt" viewBox="0 0 460.8 345.6" xmlns="http://www.w3.org/2000/svg" version="1.1">
 <metadata>
  <rdf:RDF xmlns:dc="http://purl.org/dc/elements/1.1/" xmlns:cc="http://creativecommons.org/ns#" xmlns:rdf="http://www.w3.org/1999/02/22-rdf-syntax-ns#">
   <cc:Work>
    <dc:type rdf:resource="http://purl.org/dc/dcmitype/StillImage"/>
    <dc:date>2024-05-02T16:43:13.769895</dc:date>
    <dc:format>image/svg+xml</dc:format>
    <dc:creator>
     <cc:Agent>
      <dc:title>Matplotlib v3.8.4, https://matplotlib.org/</dc:title>
     </cc:Agent>
    </dc:creator>
   </cc:Work>
  </rdf:RDF>
 </metadata>
 <defs>
  <style type="text/css">*{stroke-linejoin: round; stroke-linecap: butt}</style>
 </defs>
 <g id="figure_1">
  <g id="patch_1">
   <path d="M 0 345.6 
L 460.8 345.6 
L 460.8 0 
L 0 0 
z
" style="fill: #ffffff"/>
  </g>
  <g id="axes_1">
   <g id="patch_2">
    <path d="M 57.6 307.584 
L 414.72 307.584 
L 414.72 41.472 
L 57.6 41.472 
z
" style="fill: #ffffff"/>
   </g>
   <g id="matplotlib.axis_1">
    <g id="xtick_1">
     <g id="line2d_1">
      <path d="M 93.312 307.584 
L 93.312 41.472 
" clip-path="url(#p80e9b761de)" style="fill: none; stroke: #b0b0b0; stroke-width: 0.8; stroke-linecap: square"/>
     </g>
     <g id="line2d_2">
      <defs>
       <path id="m6804166172" d="M 0 0 
L 0 3.5 
" style="stroke: #000000; stroke-width: 0.8"/>
      </defs>
      <g>
       <use xlink:href="#m6804166172" x="93.312" y="307.584" style="stroke: #000000; stroke-width: 0.8"/>
      </g>
     </g>
     <g id="text_1">
      <!-- −4 -->
      <g transform="translate(85.940906 322.182437) scale(0.1 -0.1)">
       <defs>
        <path id="DejaVuSans-2212" d="M 678 2272 
L 4684 2272 
L 4684 1741 
L 678 1741 
L 678 2272 
z
" transform="scale(0.015625)"/>
        <path id="DejaVuSans-34" d="M 2419 4116 
L 825 1625 
L 2419 1625 
L 2419 4116 
z
M 2253 4666 
L 3047 4666 
L 3047 1625 
L 3713 1625 
L 3713 1100 
L 3047 1100 
L 3047 0 
L 2419 0 
L 2419 1100 
L 313 1100 
L 313 1709 
L 2253 4666 
z
" transform="scale(0.015625)"/>
       </defs>
       <use xlink:href="#DejaVuSans-2212"/>
       <use xlink:href="#DejaVuSans-34" x="83.789062"/>
      </g>
     </g>
    </g>
    <g id="xtick_2">
     <g id="line2d_3">
      <path d="M 164.736 307.584 
L 164.736 41.472 
" clip-path="url(#p80e9b761de)" style="fill: none; stroke: #b0b0b0; stroke-width: 0.8; stroke-linecap: square"/>
     </g>
     <g id="line2d_4">
      <g>
       <use xlink:href="#m6804166172" x="164.736" y="307.584" style="stroke: #000000; stroke-width: 0.8"/>
      </g>
     </g>
     <g id="text_2">
      <!-- −2 -->
      <g transform="translate(157.364906 322.182437) scale(0.1 -0.1)">
       <defs>
        <path id="DejaVuSans-32" d="M 1228 531 
L 3431 531 
L 3431 0 
L 469 0 
L 469 531 
Q 828 903 1448 1529 
Q 2069 2156 2228 2338 
Q 2531 2678 2651 2914 
Q 2772 3150 2772 3378 
Q 2772 3750 2511 3984 
Q 2250 4219 1831 4219 
Q 1534 4219 1204 4116 
Q 875 4013 500 3803 
L 500 4441 
Q 881 4594 1212 4672 
Q 1544 4750 1819 4750 
Q 2544 4750 2975 4387 
Q 3406 4025 3406 3419 
Q 3406 3131 3298 2873 
Q 3191 2616 2906 2266 
Q 2828 2175 2409 1742 
Q 1991 1309 1228 531 
z
" transform="scale(0.015625)"/>
       </defs>
       <use xlink:href="#DejaVuSans-2212"/>
       <use xlink:href="#DejaVuSans-32" x="83.789062"/>
      </g>
     </g>
    </g>
    <g id="xtick_3">
     <g id="line2d_5">
      <path d="M 236.16 307.584 
L 236.16 41.472 
" clip-path="url(#p80e9b761de)" style="fill: none; stroke: #b0b0b0; stroke-width: 0.8; stroke-linecap: square"/>
     </g>
     <g id="line2d_6">
      <g>
       <use xlink:href="#m6804166172" x="236.16" y="307.584" style="stroke: #000000; stroke-width: 0.8"/>
      </g>
     </g>
     <g id="text_3">
      <!-- 0 -->
      <g transform="translate(232.97875 322.182437) scale(0.1 -0.1)">
       <defs>
        <path id="DejaVuSans-30" d="M 2034 4250 
Q 1547 4250 1301 3770 
Q 1056 3291 1056 2328 
Q 1056 1369 1301 889 
Q 1547 409 2034 409 
Q 2525 409 2770 889 
Q 3016 1369 3016 2328 
Q 3016 3291 2770 3770 
Q 2525 4250 2034 4250 
z
M 2034 4750 
Q 2819 4750 3233 4129 
Q 3647 3509 3647 2328 
Q 3647 1150 3233 529 
Q 2819 -91 2034 -91 
Q 1250 -91 836 529 
Q 422 1150 422 2328 
Q 422 3509 836 4129 
Q 1250 4750 2034 4750 
z
" transform="scale(0.015625)"/>
       </defs>
       <use xlink:href="#DejaVuSans-30"/>
      </g>
     </g>
    </g>
    <g id="xtick_4">
     <g id="line2d_7">
      <path d="M 307.584 307.584 
L 307.584 41.472 
" clip-path="url(#p80e9b761de)" style="fill: none; stroke: #b0b0b0; stroke-width: 0.8; stroke-linecap: square"/>
     </g>
     <g id="line2d_8">
      <g>
       <use xlink:href="#m6804166172" x="307.584" y="307.584" style="stroke: #000000; stroke-width: 0.8"/>
      </g>
     </g>
     <g id="text_4">
      <!-- 2 -->
      <g transform="translate(304.40275 322.182437) scale(0.1 -0.1)">
       <use xlink:href="#DejaVuSans-32"/>
      </g>
     </g>
    </g>
    <g id="xtick_5">
     <g id="line2d_9">
      <path d="M 379.008 307.584 
L 379.008 41.472 
" clip-path="url(#p80e9b761de)" style="fill: none; stroke: #b0b0b0; stroke-width: 0.8; stroke-linecap: square"/>
     </g>
     <g id="line2d_10">
      <g>
       <use xlink:href="#m6804166172" x="379.008" y="307.584" style="stroke: #000000; stroke-width: 0.8"/>
      </g>
     </g>
     <g id="text_5">
      <!-- 4 -->
      <g transform="translate(375.82675 322.182437) scale(0.1 -0.1)">
       <use xlink:href="#DejaVuSans-34"/>
      </g>
     </g>
    </g>
    <g id="text_6">
     <!-- x -->
     <g transform="translate(233.200625 335.860562) scale(0.1 -0.1)">
      <defs>
       <path id="DejaVuSans-78" d="M 3513 3500 
L 2247 1797 
L 3578 0 
L 2900 0 
L 1881 1375 
L 863 0 
L 184 0 
L 1544 1831 
L 300 3500 
L 978 3500 
L 1906 2253 
L 2834 3500 
L 3513 3500 
z
" transform="scale(0.015625)"/>
      </defs>
      <use xlink:href="#DejaVuSans-78"/>
     </g>
    </g>
   </g>
   <g id="matplotlib.axis_2">
    <g id="ytick_1">
     <g id="line2d_11">
      <path d="M 57.6 274.232257 
L 414.72 274.232257 
" clip-path="url(#p80e9b761de)" style="fill: none; stroke: #b0b0b0; stroke-width: 0.8; stroke-linecap: square"/>
     </g>
     <g id="line2d_12">
      <defs>
       <path id="mc0c02a19a2" d="M 0 0 
L -3.5 0 
" style="stroke: #000000; stroke-width: 0.8"/>
      </defs>
      <g>
       <use xlink:href="#mc0c02a19a2" x="57.6" y="274.232257" style="stroke: #000000; stroke-width: 0.8"/>
      </g>
     </g>
     <g id="text_7">
      <!-- 0.05 -->
      <g transform="translate(28.334375 278.031475) scale(0.1 -0.1)">
       <defs>
        <path id="DejaVuSans-2e" d="M 684 794 
L 1344 794 
L 1344 0 
L 684 0 
L 684 794 
z
" transform="scale(0.015625)"/>
        <path id="DejaVuSans-35" d="M 691 4666 
L 3169 4666 
L 3169 4134 
L 1269 4134 
L 1269 2991 
Q 1406 3038 1543 3061 
Q 1681 3084 1819 3084 
Q 2600 3084 3056 2656 
Q 3513 2228 3513 1497 
Q 3513 744 3044 326 
Q 2575 -91 1722 -91 
Q 1428 -91 1123 -41 
Q 819 9 494 109 
L 494 744 
Q 775 591 1075 516 
Q 1375 441 1709 441 
Q 2250 441 2565 725 
Q 2881 1009 2881 1497 
Q 2881 1984 2565 2268 
Q 2250 2553 1709 2553 
Q 1456 2553 1204 2497 
Q 953 2441 691 2322 
L 691 4666 
z
" transform="scale(0.015625)"/>
       </defs>
       <use xlink:href="#DejaVuSans-30"/>
       <use xlink:href="#DejaVuSans-2e" x="63.623047"/>
       <use xlink:href="#DejaVuSans-30" x="95.410156"/>
       <use xlink:href="#DejaVuSans-35" x="159.033203"/>
      </g>
     </g>
    </g>
    <g id="ytick_2">
     <g id="line2d_13">
      <path d="M 57.6 240.879521 
L 414.72 240.879521 
" clip-path="url(#p80e9b761de)" style="fill: none; stroke: #b0b0b0; stroke-width: 0.8; stroke-linecap: square"/>
     </g>
     <g id="line2d_14">
      <g>
       <use xlink:href="#mc0c02a19a2" x="57.6" y="240.879521" style="stroke: #000000; stroke-width: 0.8"/>
      </g>
     </g>
     <g id="text_8">
      <!-- 0.10 -->
      <g transform="translate(28.334375 244.67874) scale(0.1 -0.1)">
       <defs>
        <path id="DejaVuSans-31" d="M 794 531 
L 1825 531 
L 1825 4091 
L 703 3866 
L 703 4441 
L 1819 4666 
L 2450 4666 
L 2450 531 
L 3481 531 
L 3481 0 
L 794 0 
L 794 531 
z
" transform="scale(0.015625)"/>
       </defs>
       <use xlink:href="#DejaVuSans-30"/>
       <use xlink:href="#DejaVuSans-2e" x="63.623047"/>
       <use xlink:href="#DejaVuSans-31" x="95.410156"/>
       <use xlink:href="#DejaVuSans-30" x="159.033203"/>
      </g>
     </g>
    </g>
    <g id="ytick_3">
     <g id="line2d_15">
      <path d="M 57.6 207.526786 
L 414.72 207.526786 
" clip-path="url(#p80e9b761de)" style="fill: none; stroke: #b0b0b0; stroke-width: 0.8; stroke-linecap: square"/>
     </g>
     <g id="line2d_16">
      <g>
       <use xlink:href="#mc0c02a19a2" x="57.6" y="207.526786" style="stroke: #000000; stroke-width: 0.8"/>
      </g>
     </g>
     <g id="text_9">
      <!-- 0.15 -->
      <g transform="translate(28.334375 211.326005) scale(0.1 -0.1)">
       <use xlink:href="#DejaVuSans-30"/>
       <use xlink:href="#DejaVuSans-2e" x="63.623047"/>
       <use xlink:href="#DejaVuSans-31" x="95.410156"/>
       <use xlink:href="#DejaVuSans-35" x="159.033203"/>
      </g>
     </g>
    </g>
    <g id="ytick_4">
     <g id="line2d_17">
      <path d="M 57.6 174.174051 
L 414.72 174.174051 
" clip-path="url(#p80e9b761de)" style="fill: none; stroke: #b0b0b0; stroke-width: 0.8; stroke-linecap: square"/>
     </g>
     <g id="line2d_18">
      <g>
       <use xlink:href="#mc0c02a19a2" x="57.6" y="174.174051" style="stroke: #000000; stroke-width: 0.8"/>
      </g>
     </g>
     <g id="text_10">
      <!-- 0.20 -->
      <g transform="translate(28.334375 177.97327) scale(0.1 -0.1)">
       <use xlink:href="#DejaVuSans-30"/>
       <use xlink:href="#DejaVuSans-2e" x="63.623047"/>
       <use xlink:href="#DejaVuSans-32" x="95.410156"/>
       <use xlink:href="#DejaVuSans-30" x="159.033203"/>
      </g>
     </g>
    </g>
    <g id="ytick_5">
     <g id="line2d_19">
      <path d="M 57.6 140.821316 
L 414.72 140.821316 
" clip-path="url(#p80e9b761de)" style="fill: none; stroke: #b0b0b0; stroke-width: 0.8; stroke-linecap: square"/>
     </g>
     <g id="line2d_20">
      <g>
       <use xlink:href="#mc0c02a19a2" x="57.6" y="140.821316" style="stroke: #000000; stroke-width: 0.8"/>
      </g>
     </g>
     <g id="text_11">
      <!-- 0.25 -->
      <g transform="translate(28.334375 144.620534) scale(0.1 -0.1)">
       <use xlink:href="#DejaVuSans-30"/>
       <use xlink:href="#DejaVuSans-2e" x="63.623047"/>
       <use xlink:href="#DejaVuSans-32" x="95.410156"/>
       <use xlink:href="#DejaVuSans-35" x="159.033203"/>
      </g>
     </g>
    </g>
    <g id="ytick_6">
     <g id="line2d_21">
      <path d="M 57.6 107.46858 
L 414.72 107.46858 
" clip-path="url(#p80e9b761de)" style="fill: none; stroke: #b0b0b0; stroke-width: 0.8; stroke-linecap: square"/>
     </g>
     <g id="line2d_22">
      <g>
       <use xlink:href="#mc0c02a19a2" x="57.6" y="107.46858" style="stroke: #000000; stroke-width: 0.8"/>
      </g>
     </g>
     <g id="text_12">
      <!-- 0.30 -->
      <g transform="translate(28.334375 111.267799) scale(0.1 -0.1)">
       <defs>
        <path id="DejaVuSans-33" d="M 2597 2516 
Q 3050 2419 3304 2112 
Q 3559 1806 3559 1356 
Q 3559 666 3084 287 
Q 2609 -91 1734 -91 
Q 1441 -91 1130 -33 
Q 819 25 488 141 
L 488 750 
Q 750 597 1062 519 
Q 1375 441 1716 441 
Q 2309 441 2620 675 
Q 2931 909 2931 1356 
Q 2931 1769 2642 2001 
Q 2353 2234 1838 2234 
L 1294 2234 
L 1294 2753 
L 1863 2753 
Q 2328 2753 2575 2939 
Q 2822 3125 2822 3475 
Q 2822 3834 2567 4026 
Q 2313 4219 1838 4219 
Q 1578 4219 1281 4162 
Q 984 4106 628 3988 
L 628 4550 
Q 988 4650 1302 4700 
Q 1616 4750 1894 4750 
Q 2613 4750 3031 4423 
Q 3450 4097 3450 3541 
Q 3450 3153 3228 2886 
Q 3006 2619 2597 2516 
z
" transform="scale(0.015625)"/>
       </defs>
       <use xlink:href="#DejaVuSans-30"/>
       <use xlink:href="#DejaVuSans-2e" x="63.623047"/>
       <use xlink:href="#DejaVuSans-33" x="95.410156"/>
       <use xlink:href="#DejaVuSans-30" x="159.033203"/>
      </g>
     </g>
    </g>
    <g id="ytick_7">
     <g id="line2d_23">
      <path d="M 57.6 74.115845 
L 414.72 74.115845 
" clip-path="url(#p80e9b761de)" style="fill: none; stroke: #b0b0b0; stroke-width: 0.8; stroke-linecap: square"/>
     </g>
     <g id="line2d_24">
      <g>
       <use xlink:href="#mc0c02a19a2" x="57.6" y="74.115845" style="stroke: #000000; stroke-width: 0.8"/>
      </g>
     </g>
     <g id="text_13">
      <!-- 0.35 -->
      <g transform="translate(28.334375 77.915064) scale(0.1 -0.1)">
       <use xlink:href="#DejaVuSans-30"/>
       <use xlink:href="#DejaVuSans-2e" x="63.623047"/>
       <use xlink:href="#DejaVuSans-33" x="95.410156"/>
       <use xlink:href="#DejaVuSans-35" x="159.033203"/>
      </g>
     </g>
    </g>
    <g id="text_14">
     <!-- Probability density -->
     <g transform="translate(22.254687 220.878781) rotate(-90) scale(0.1 -0.1)">
      <defs>
       <path id="DejaVuSans-50" d="M 1259 4147 
L 1259 2394 
L 2053 2394 
Q 2494 2394 2734 2622 
Q 2975 2850 2975 3272 
Q 2975 3691 2734 3919 
Q 2494 4147 2053 4147 
L 1259 4147 
z
M 628 4666 
L 2053 4666 
Q 2838 4666 3239 4311 
Q 3641 3956 3641 3272 
Q 3641 2581 3239 2228 
Q 2838 1875 2053 1875 
L 1259 1875 
L 1259 0 
L 628 0 
L 628 4666 
z
" transform="scale(0.015625)"/>
       <path id="DejaVuSans-72" d="M 2631 2963 
Q 2534 3019 2420 3045 
Q 2306 3072 2169 3072 
Q 1681 3072 1420 2755 
Q 1159 2438 1159 1844 
L 1159 0 
L 581 0 
L 581 3500 
L 1159 3500 
L 1159 2956 
Q 1341 3275 1631 3429 
Q 1922 3584 2338 3584 
Q 2397 3584 2469 3576 
Q 2541 3569 2628 3553 
L 2631 2963 
z
" transform="scale(0.015625)"/>
       <path id="DejaVuSans-6f" d="M 1959 3097 
Q 1497 3097 1228 2736 
Q 959 2375 959 1747 
Q 959 1119 1226 758 
Q 1494 397 1959 397 
Q 2419 397 2687 759 
Q 2956 1122 2956 1747 
Q 2956 2369 2687 2733 
Q 2419 3097 1959 3097 
z
M 1959 3584 
Q 2709 3584 3137 3096 
Q 3566 2609 3566 1747 
Q 3566 888 3137 398 
Q 2709 -91 1959 -91 
Q 1206 -91 779 398 
Q 353 888 353 1747 
Q 353 2609 779 3096 
Q 1206 3584 1959 3584 
z
" transform="scale(0.015625)"/>
       <path id="DejaVuSans-62" d="M 3116 1747 
Q 3116 2381 2855 2742 
Q 2594 3103 2138 3103 
Q 1681 3103 1420 2742 
Q 1159 2381 1159 1747 
Q 1159 1113 1420 752 
Q 1681 391 2138 391 
Q 2594 391 2855 752 
Q 3116 1113 3116 1747 
z
M 1159 2969 
Q 1341 3281 1617 3432 
Q 1894 3584 2278 3584 
Q 2916 3584 3314 3078 
Q 3713 2572 3713 1747 
Q 3713 922 3314 415 
Q 2916 -91 2278 -91 
Q 1894 -91 1617 61 
Q 1341 213 1159 525 
L 1159 0 
L 581 0 
L 581 4863 
L 1159 4863 
L 1159 2969 
z
" transform="scale(0.015625)"/>
       <path id="DejaVuSans-61" d="M 2194 1759 
Q 1497 1759 1228 1600 
Q 959 1441 959 1056 
Q 959 750 1161 570 
Q 1363 391 1709 391 
Q 2188 391 2477 730 
Q 2766 1069 2766 1631 
L 2766 1759 
L 2194 1759 
z
M 3341 1997 
L 3341 0 
L 2766 0 
L 2766 531 
Q 2569 213 2275 61 
Q 1981 -91 1556 -91 
Q 1019 -91 701 211 
Q 384 513 384 1019 
Q 384 1609 779 1909 
Q 1175 2209 1959 2209 
L 2766 2209 
L 2766 2266 
Q 2766 2663 2505 2880 
Q 2244 3097 1772 3097 
Q 1472 3097 1187 3025 
Q 903 2953 641 2809 
L 641 3341 
Q 956 3463 1253 3523 
Q 1550 3584 1831 3584 
Q 2591 3584 2966 3190 
Q 3341 2797 3341 1997 
z
" transform="scale(0.015625)"/>
       <path id="DejaVuSans-69" d="M 603 3500 
L 1178 3500 
L 1178 0 
L 603 0 
L 603 3500 
z
M 603 4863 
L 1178 4863 
L 1178 4134 
L 603 4134 
L 603 4863 
z
" transform="scale(0.015625)"/>
       <path id="DejaVuSans-6c" d="M 603 4863 
L 1178 4863 
L 1178 0 
L 603 0 
L 603 4863 
z
" transform="scale(0.015625)"/>
       <path id="DejaVuSans-74" d="M 1172 4494 
L 1172 3500 
L 2356 3500 
L 2356 3053 
L 1172 3053 
L 1172 1153 
Q 1172 725 1289 603 
Q 1406 481 1766 481 
L 2356 481 
L 2356 0 
L 1766 0 
Q 1100 0 847 248 
Q 594 497 594 1153 
L 594 3053 
L 172 3053 
L 172 3500 
L 594 3500 
L 594 4494 
L 1172 4494 
z
" transform="scale(0.015625)"/>
       <path id="DejaVuSans-79" d="M 2059 -325 
Q 1816 -950 1584 -1140 
Q 1353 -1331 966 -1331 
L 506 -1331 
L 506 -850 
L 844 -850 
Q 1081 -850 1212 -737 
Q 1344 -625 1503 -206 
L 1606 56 
L 191 3500 
L 800 3500 
L 1894 763 
L 2988 3500 
L 3597 3500 
L 2059 -325 
z
" transform="scale(0.015625)"/>
       <path id="DejaVuSans-20" transform="scale(0.015625)"/>
       <path id="DejaVuSans-64" d="M 2906 2969 
L 2906 4863 
L 3481 4863 
L 3481 0 
L 2906 0 
L 2906 525 
Q 2725 213 2448 61 
Q 2172 -91 1784 -91 
Q 1150 -91 751 415 
Q 353 922 353 1747 
Q 353 2572 751 3078 
Q 1150 3584 1784 3584 
Q 2172 3584 2448 3432 
Q 2725 3281 2906 2969 
z
M 947 1747 
Q 947 1113 1208 752 
Q 1469 391 1925 391 
Q 2381 391 2643 752 
Q 2906 1113 2906 1747 
Q 2906 2381 2643 2742 
Q 2381 3103 1925 3103 
Q 1469 3103 1208 2742 
Q 947 2381 947 1747 
z
" transform="scale(0.015625)"/>
       <path id="DejaVuSans-65" d="M 3597 1894 
L 3597 1613 
L 953 1613 
Q 991 1019 1311 708 
Q 1631 397 2203 397 
Q 2534 397 2845 478 
Q 3156 559 3463 722 
L 3463 178 
Q 3153 47 2828 -22 
Q 2503 -91 2169 -91 
Q 1331 -91 842 396 
Q 353 884 353 1716 
Q 353 2575 817 3079 
Q 1281 3584 2069 3584 
Q 2775 3584 3186 3129 
Q 3597 2675 3597 1894 
z
M 3022 2063 
Q 3016 2534 2758 2815 
Q 2500 3097 2075 3097 
Q 1594 3097 1305 2825 
Q 1016 2553 972 2059 
L 3022 2063 
z
" transform="scale(0.015625)"/>
       <path id="DejaVuSans-6e" d="M 3513 2113 
L 3513 0 
L 2938 0 
L 2938 2094 
Q 2938 2591 2744 2837 
Q 2550 3084 2163 3084 
Q 1697 3084 1428 2787 
Q 1159 2491 1159 1978 
L 1159 0 
L 581 0 
L 581 3500 
L 1159 3500 
L 1159 2956 
Q 1366 3272 1645 3428 
Q 1925 3584 2291 3584 
Q 2894 3584 3203 3211 
Q 3513 2838 3513 2113 
z
" transform="scale(0.015625)"/>
       <path id="DejaVuSans-73" d="M 2834 3397 
L 2834 2853 
Q 2591 2978 2328 3040 
Q 2066 3103 1784 3103 
Q 1356 3103 1142 2972 
Q 928 2841 928 2578 
Q 928 2378 1081 2264 
Q 1234 2150 1697 2047 
L 1894 2003 
Q 2506 1872 2764 1633 
Q 3022 1394 3022 966 
Q 3022 478 2636 193 
Q 2250 -91 1575 -91 
Q 1294 -91 989 -36 
Q 684 19 347 128 
L 347 722 
Q 666 556 975 473 
Q 1284 391 1588 391 
Q 1994 391 2212 530 
Q 2431 669 2431 922 
Q 2431 1156 2273 1281 
Q 2116 1406 1581 1522 
L 1381 1569 
Q 847 1681 609 1914 
Q 372 2147 372 2553 
Q 372 3047 722 3315 
Q 1072 3584 1716 3584 
Q 2034 3584 2315 3537 
Q 2597 3491 2834 3397 
z
" transform="scale(0.015625)"/>
      </defs>
      <use xlink:href="#DejaVuSans-50"/>
      <use xlink:href="#DejaVuSans-72" x="58.552734"/>
      <use xlink:href="#DejaVuSans-6f" x="97.416016"/>
      <use xlink:href="#DejaVuSans-62" x="158.597656"/>
      <use xlink:href="#DejaVuSans-61" x="222.074219"/>
      <use xlink:href="#DejaVuSans-62" x="283.353516"/>
      <use xlink:href="#DejaVuSans-69" x="346.830078"/>
      <use xlink:href="#DejaVuSans-6c" x="374.613281"/>
      <use xlink:href="#DejaVuSans-69" x="402.396484"/>
      <use xlink:href="#DejaVuSans-74" x="430.179688"/>
      <use xlink:href="#DejaVuSans-79" x="469.388672"/>
      <use xlink:href="#DejaVuSans-20" x="528.568359"/>
      <use xlink:href="#DejaVuSans-64" x="560.355469"/>
      <use xlink:href="#DejaVuSans-65" x="623.832031"/>
      <use xlink:href="#DejaVuSans-6e" x="685.355469"/>
      <use xlink:href="#DejaVuSans-73" x="748.734375"/>
      <use xlink:href="#DejaVuSans-69" x="800.833984"/>
      <use xlink:href="#DejaVuSans-74" x="828.617188"/>
      <use xlink:href="#DejaVuSans-79" x="867.826172"/>
     </g>
    </g>
   </g>
   <g id="line2d_25">
    <path d="M 57.6 302.854864 
L 81.193514 302.060882 
L 100.497297 301.19599 
L 116.226306 300.276207 
L 129.452973 299.284264 
L 140.534775 298.234146 
L 149.829189 297.138901 
L 158.051171 295.947023 
L 165.200721 294.68159 
L 171.277838 293.383886 
L 176.64 292.017741 
L 181.287207 290.618681 
L 185.576937 289.102326 
L 189.509189 287.473653 
L 193.083964 285.745027 
L 196.301261 283.938366 
L 199.161081 282.087114 
L 202.020901 279.953301 
L 204.523243 277.804609 
L 207.025586 275.336734 
L 209.17045 272.916363 
L 211.315315 270.159336 
L 213.46018 267.002273 
L 215.247568 264.011773 
L 217.034955 260.641337 
L 218.822342 256.836527 
L 220.60973 252.542144 
L 222.397117 247.710361 
L 224.541982 241.171545 
L 226.686847 233.890797 
L 231.691532 216.394343 
L 232.763964 213.392896 
L 233.836396 211.026723 
L 234.551351 209.88483 
L 235.266306 209.138057 
L 235.981261 208.813052 
L 236.696216 208.921722 
L 237.411171 209.460066 
L 238.126126 210.408566 
L 238.841081 211.734082 
L 239.913514 214.331634 
L 241.343423 218.65894 
L 243.488288 226.161215 
L 247.420541 240.005312 
L 249.565405 246.676681 
L 251.71027 252.542144 
L 253.497658 256.836527 
L 255.285045 260.641337 
L 257.42991 264.638591 
L 259.574775 268.103476 
L 261.71964 271.119425 
L 263.864505 273.757756 
L 266.009369 276.078079 
L 268.511712 278.448492 
L 271.014054 280.516463 
L 273.873874 282.574257 
L 276.733694 284.363136 
L 279.950991 286.112324 
L 283.525766 287.78926 
L 287.458018 289.372318 
L 291.747748 290.849002 
L 296.394955 292.213938 
L 301.757117 293.549129 
L 307.834234 294.81966 
L 314.626306 296.004147 
L 322.490811 297.138901 
L 331.427748 298.196077 
L 341.794595 299.192562 
L 353.948829 300.131001 
L 368.247928 301.0069 
L 385.406847 301.828875 
L 406.140541 302.592724 
L 414.72 302.854864 
L 414.72 302.854864 
" clip-path="url(#p80e9b761de)" style="fill: none; stroke: #1f77b4; stroke-width: 1.5; stroke-linecap: square"/>
   </g>
   <g id="line2d_26">
    <path d="M 57.6 298.15901 
L 71.541622 296.96413 
L 83.695856 295.703075 
L 94.42018 294.3709 
L 104.072072 292.947522 
L 112.651532 291.457428 
L 120.158559 289.937739 
L 126.950631 288.349747 
L 133.385225 286.618298 
L 139.104865 284.855507 
L 144.467027 282.973572 
L 149.471712 280.978747 
L 154.118919 278.882305 
L 158.408649 276.701455 
L 162.340901 274.460127 
L 166.273153 271.948918 
L 169.847928 269.394461 
L 173.065225 266.840535 
L 176.282523 264.009903 
L 179.49982 260.862875 
L 182.35964 257.76273 
L 185.219459 254.338893 
L 188.079279 250.548932 
L 190.939099 246.344926 
L 193.441441 242.284813 
L 195.943784 237.827548 
L 198.446126 232.931343 
L 200.948468 227.553 
L 203.450811 221.649978 
L 205.953153 215.183811 
L 208.455495 208.12547 
L 211.315315 199.320038 
L 214.175135 189.757527 
L 217.74991 176.918622 
L 225.614414 148.128361 
L 227.759279 141.314535 
L 229.546667 136.427156 
L 230.976577 133.178965 
L 232.049009 131.190885 
L 233.121441 129.625173 
L 234.193874 128.509713 
L 234.908829 128.026645 
L 235.623784 127.756957 
L 236.338739 127.702906 
L 237.053694 127.864945 
L 237.768649 128.241717 
L 238.483604 128.830078 
L 239.556036 130.098284 
L 240.628468 131.808217 
L 241.700901 133.92978 
L 243.130811 137.336298 
L 244.560721 141.314535 
L 246.348108 146.934389 
L 248.85045 155.650399 
L 253.497658 172.934523 
L 257.787387 188.513365 
L 261.004685 199.320038 
L 263.864505 208.12547 
L 266.366847 215.183811 
L 268.869189 221.649978 
L 271.371532 227.553 
L 273.873874 232.931343 
L 276.376216 237.827548 
L 278.878559 242.284813 
L 281.738378 246.894847 
L 284.598198 251.044283 
L 287.458018 254.785973 
L 290.317838 258.167138 
L 293.177658 261.229545 
L 296.394955 264.339263 
L 299.612252 267.1373 
L 303.187027 269.927951 
L 306.761802 272.427476 
L 310.694054 274.886535 
L 314.626306 277.082985 
L 318.916036 279.22178 
L 323.563243 281.279389 
L 328.567928 283.2388 
L 333.93009 285.088779 
L 339.64973 286.822986 
L 345.726847 288.439059 
L 352.518919 290.015342 
L 360.025946 291.524408 
L 368.247928 292.947522 
L 377.542342 294.322301 
L 387.909189 295.621268 
L 399.348468 296.827494 
L 412.575135 297.990038 
L 414.72 298.15901 
L 414.72 298.15901 
" clip-path="url(#p80e9b761de)" style="fill: none; stroke: #ff7f0e; stroke-width: 1.5; stroke-linecap: square"/>
   </g>
   <g id="line2d_27">
    <path d="M 57.6 299.418449 
L 69.754234 298.236361 
L 80.478559 296.970617 
L 89.772973 295.658085 
L 98.352432 294.223159 
L 105.859459 292.749842 
L 112.651532 291.202678 
L 119.086126 289.509896 
L 124.805766 287.782993 
L 130.167928 285.938167 
L 135.172613 283.983868 
L 139.81982 281.93374 
L 144.10955 279.807295 
L 148.399279 277.420597 
L 152.331532 274.969198 
L 155.906306 272.489803 
L 159.481081 269.738113 
L 162.698378 266.998015 
L 165.915676 263.976059 
L 169.132973 260.637004 
L 171.992793 257.37069 
L 174.852613 253.791262 
L 177.712432 249.864312 
L 180.572252 245.552191 
L 183.432072 240.814156 
L 186.291892 235.606803 
L 189.151712 229.884919 
L 192.011532 223.602955 
L 194.871351 216.717369 
L 197.731171 209.190164 
L 200.590991 200.994002 
L 203.450811 192.119289 
L 206.668108 181.347427 
L 210.242883 168.505153 
L 214.89009 150.853051 
L 220.967207 127.794576 
L 223.827027 117.879775 
L 225.971892 111.235331 
L 227.759279 106.388231 
L 229.189189 103.047983 
L 230.619099 100.246177 
L 231.691532 98.527944 
L 232.763964 97.157794 
L 233.836396 96.149987 
L 234.908829 95.515191 
L 235.623784 95.302744 
L 236.338739 95.260204 
L 237.053694 95.387774 
L 237.768649 95.684842 
L 238.841081 96.444927 
L 239.913514 97.574884 
L 240.985946 99.062814 
L 242.058378 100.893336 
L 243.488288 103.834644 
L 244.918198 107.301011 
L 246.705586 112.284917 
L 248.85045 119.061186 
L 251.352793 127.794576 
L 254.927568 141.205176 
L 263.507027 173.740765 
L 267.081802 186.234342 
L 270.299099 196.641131 
L 273.158919 205.176816 
L 276.018739 213.036 
L 278.878559 220.238171 
L 281.738378 226.81675 
L 284.598198 232.813039 
L 287.458018 238.271942 
L 290.317838 243.239071 
L 293.177658 247.758876 
L 296.037477 251.873505 
L 298.897297 255.622189 
L 301.757117 259.040962 
L 304.974414 262.533438 
L 308.191712 265.691715 
L 311.409009 268.553007 
L 314.983784 271.423777 
L 318.558559 274.007938 
L 322.490811 276.5603 
L 326.423063 278.846667 
L 330.712793 281.076989 
L 335.36 283.224172 
L 340.007207 285.130284 
L 345.011892 286.951582 
L 350.374054 288.675018 
L 356.451171 290.386569 
L 362.885766 291.963521 
L 370.035315 293.479601 
L 377.89982 294.910622 
L 386.479279 296.241021 
L 396.131171 297.505586 
L 406.855495 298.680879 
L 414.72 299.418449 
L 414.72 299.418449 
" clip-path="url(#p80e9b761de)" style="fill: none; stroke: #2ca02c; stroke-width: 1.5; stroke-linecap: square"/>
   </g>
   <g id="line2d_28">
    <path d="M 57.6 302.830372 
L 69.039279 301.875718 
L 79.048649 300.825395 
L 87.985586 299.665706 
L 95.85009 298.423354 
L 102.99964 297.067172 
L 109.434234 295.618126 
L 115.153874 294.108719 
L 120.516036 292.466213 
L 125.520721 290.697121 
L 130.167928 288.813742 
L 134.457658 286.834929 
L 138.38991 284.786573 
L 142.322162 282.480439 
L 145.896937 280.128622 
L 149.471712 277.500166 
L 152.689009 274.867609 
L 155.906306 271.95082 
L 159.123604 268.716011 
L 161.983423 265.543427 
L 164.843243 262.061131 
L 167.703063 258.237855 
L 170.562883 254.040026 
L 173.422703 249.432004 
L 176.282523 244.376521 
L 179.142342 238.835378 
L 182.002162 232.770508 
L 184.861982 226.14548 
L 187.721802 218.927574 
L 190.581622 211.090541 
L 193.441441 202.618146 
L 196.658739 192.325724 
L 199.876036 181.255234 
L 203.450811 168.129424 
L 207.740541 151.481297 
L 218.464865 109.346821 
L 221.324685 99.279465 
L 223.46955 92.439843 
L 225.614414 86.369485 
L 227.401802 81.997666 
L 228.831712 79.002472 
L 230.261622 76.489753 
L 231.691532 74.487966 
L 232.763964 73.336082 
L 233.836396 72.492376 
L 234.908829 71.962484 
L 235.981261 71.74997 
L 237.053694 71.856267 
L 238.126126 72.280658 
L 239.198559 73.020285 
L 240.270991 74.070194 
L 241.343423 75.423413 
L 242.773333 77.683909 
L 244.203243 80.441725 
L 245.633153 83.666032 
L 247.420541 88.298796 
L 249.207928 93.530193 
L 251.352793 100.484134 
L 253.855135 109.346821 
L 257.072432 121.578582 
L 263.14955 145.789624 
L 268.511712 166.774807 
L 272.443964 181.255234 
L 275.661261 192.325724 
L 278.878559 202.618146 
L 281.738378 211.090541 
L 284.598198 218.927574 
L 287.458018 226.14548 
L 290.317838 232.770508 
L 293.177658 238.835378 
L 296.037477 244.376521 
L 298.897297 249.432004 
L 301.757117 254.040026 
L 304.616937 258.237855 
L 307.476757 262.061131 
L 310.336577 265.543427 
L 313.553874 269.092272 
L 316.771171 272.289963 
L 319.988468 275.173568 
L 323.205766 277.776476 
L 326.780541 280.375683 
L 330.355315 282.701692 
L 334.287568 284.982914 
L 338.21982 287.009525 
L 342.50955 288.967728 
L 347.156757 290.831904 
L 352.161441 292.583381 
L 357.523604 294.209948 
L 363.243243 295.705109 
L 369.32036 297.067172 
L 376.112432 298.361089 
L 383.619459 299.562136 
L 392.198919 300.69841 
L 401.850811 301.73935 
L 412.575135 302.668205 
L 414.72 302.830372 
L 414.72 302.830372 
" clip-path="url(#p80e9b761de)" style="fill: none; stroke: #d62728; stroke-width: 1.5; stroke-linecap: square"/>
   </g>
   <g id="line2d_29">
    <path d="M 57.6 306.412684 
L 71.184144 305.853126 
L 81.908468 305.194139 
L 90.845405 304.425474 
L 98.352432 303.562926 
L 104.787027 302.612308 
L 110.506667 301.555814 
L 115.868829 300.337656 
L 120.516036 299.062397 
L 124.805766 297.666482 
L 128.738018 296.168007 
L 132.67027 294.423544 
L 136.245045 292.589465 
L 139.462342 290.706312 
L 142.67964 288.572503 
L 145.896937 286.155212 
L 148.756757 283.739166 
L 151.616577 281.042387 
L 154.476396 278.034543 
L 157.336216 274.683084 
L 160.196036 270.953422 
L 163.055856 266.809252 
L 165.558198 262.813595 
L 168.060541 258.446358 
L 170.562883 253.682209 
L 173.422703 247.720017 
L 176.282523 241.173292 
L 179.142342 234.012373 
L 182.002162 226.214217 
L 184.861982 217.764959 
L 187.721802 208.662813 
L 190.939099 197.659976 
L 194.513874 184.545212 
L 198.446126 169.176819 
L 203.450811 148.579629 
L 213.46018 107.021711 
L 216.677477 94.691234 
L 219.537297 84.624353 
L 221.682162 77.781076 
L 223.827027 71.655141 
L 225.614414 67.165839 
L 227.401802 63.28898 
L 228.831712 60.657988 
L 230.261622 58.466354 
L 231.691532 56.730422 
L 232.763964 55.735533 
L 233.836396 55.00867 
L 234.908829 54.55296 
L 235.981261 54.370369 
L 237.053694 54.461687 
L 238.126126 54.826518 
L 239.198559 55.463287 
L 240.270991 56.369252 
L 241.343423 57.540528 
L 242.773333 59.506157 
L 244.203243 61.919706 
L 245.633153 64.7633 
L 247.420541 68.89071 
L 249.207928 73.611481 
L 251.352793 79.987293 
L 253.497658 87.047711 
L 256 96.014541 
L 259.217297 108.442977 
L 263.507027 126.029293 
L 274.946306 173.454408 
L 278.878559 188.57237 
L 282.453333 201.415186 
L 285.670631 212.152143 
L 288.887928 222.071407 
L 291.747748 230.194064 
L 294.607568 237.67123 
L 297.467387 244.521703 
L 300.327207 250.77213 
L 303.187027 256.454639 
L 306.046847 261.604845 
L 308.906667 266.260226 
L 311.766486 270.458829 
L 314.626306 274.238289 
L 317.486126 277.635093 
L 320.345946 280.684064 
L 323.205766 283.418021 
L 326.065586 285.867579 
L 329.282883 288.318549 
L 332.50018 290.48217 
L 335.717477 292.391661 
L 339.292252 294.251376 
L 342.867027 295.870261 
L 346.799279 297.41065 
L 351.089009 298.845378 
L 355.736216 300.155813 
L 360.740901 301.331416 
L 366.460541 302.430894 
L 372.537658 303.370526 
L 379.687207 304.240583 
L 387.909189 305.002454 
L 397.561081 305.659382 
L 409.00036 306.20668 
L 414.72 306.412684 
L 414.72 306.412684 
" clip-path="url(#p80e9b761de)" style="fill: none; stroke: #9467bd; stroke-width: 1.5; stroke-linecap: square"/>
   </g>
   <g id="line2d_30">
    <path d="M 57.6 307.584 
L 95.492613 307.471234 
L 106.216937 307.230089 
L 113.366486 306.864265 
L 119.086126 306.350846 
L 123.733333 305.710167 
L 127.665586 304.949431 
L 131.24036 304.030565 
L 134.457658 302.972285 
L 137.317477 301.809264 
L 140.177297 300.399234 
L 142.67964 298.931417 
L 145.181982 297.214813 
L 147.684324 295.218554 
L 150.186667 292.910242 
L 152.689009 290.256352 
L 155.191351 287.222734 
L 157.336216 284.294349 
L 159.838559 280.465412 
L 162.340901 276.161669 
L 164.843243 271.35327 
L 167.345586 266.0137 
L 169.847928 260.120835 
L 172.35027 253.65806 
L 174.852613 246.615392 
L 177.712432 237.854075 
L 180.572252 228.343554 
L 183.78955 216.783876 
L 187.006847 204.378933 
L 190.581622 189.725525 
L 194.871351 171.185912 
L 202.020901 139.07288 
L 208.098018 112.154676 
L 211.672793 97.218524 
L 214.89009 84.719934 
L 217.392432 75.791933 
L 219.894775 67.687026 
L 222.03964 61.478394 
L 223.827027 56.873756 
L 225.614414 52.821949 
L 227.401802 49.352345 
L 228.831712 47.013064 
L 230.261622 45.073789 
L 231.691532 43.543732 
L 232.763964 42.669206 
L 233.836396 42.031368 
L 234.908829 41.63194 
L 235.981261 41.472 
L 237.053694 41.551982 
L 238.126126 41.871669 
L 239.198559 42.430196 
L 240.270991 43.226057 
L 241.343423 44.257106 
L 242.773333 45.992806 
L 244.203243 48.133353 
L 245.633153 50.668604 
L 247.420541 54.374367 
L 249.207928 58.651042 
L 250.995315 63.467767 
L 253.14018 69.912163 
L 255.642523 78.263812 
L 258.144865 87.405688 
L 261.004685 98.667944 
L 264.579459 113.695561 
L 269.584144 135.851212 
L 280.308468 183.645496 
L 284.240721 200.072259 
L 287.815495 214.097293 
L 291.032793 225.851712 
L 293.892613 235.545902 
L 296.752432 244.496165 
L 299.612252 252.687609 
L 302.114595 259.232784 
L 304.616937 265.206189 
L 307.119279 270.623564 
L 309.621622 275.506311 
L 312.123964 279.880387 
L 314.626306 283.775227 
L 317.128649 287.222734 
L 319.630991 290.256352 
L 322.133333 292.910242 
L 324.635676 295.218554 
L 327.138018 297.214813 
L 329.64036 298.931417 
L 332.142703 300.399234 
L 335.002523 301.809264 
L 337.862342 302.972285 
L 341.07964 304.030565 
L 344.654414 304.949431 
L 348.586667 305.710167 
L 352.876396 306.309738 
L 357.881081 306.786228 
L 364.315676 307.15973 
L 372.895135 307.410527 
L 386.121802 307.545541 
L 414.72 307.584 
L 414.72 307.584 
" clip-path="url(#p80e9b761de)" style="fill: none; stroke: #8c564b; stroke-width: 1.5; stroke-linecap: square"/>
   </g>
   <g id="patch_3">
    <path d="M 57.6 307.584 
L 57.6 41.472 
" style="fill: none; stroke: #000000; stroke-width: 0.8; stroke-linejoin: miter; stroke-linecap: square"/>
   </g>
   <g id="patch_4">
    <path d="M 414.72 307.584 
L 414.72 41.472 
" style="fill: none; stroke: #000000; stroke-width: 0.8; stroke-linejoin: miter; stroke-linecap: square"/>
   </g>
   <g id="patch_5">
    <path d="M 57.6 307.584 
L 414.72 307.584 
" style="fill: none; stroke: #000000; stroke-width: 0.8; stroke-linejoin: miter; stroke-linecap: square"/>
   </g>
   <g id="patch_6">
    <path d="M 57.6 41.472 
L 414.72 41.472 
" style="fill: none; stroke: #000000; stroke-width: 0.8; stroke-linejoin: miter; stroke-linecap: square"/>
   </g>
   <g id="text_15">
    <!-- T-distribution -->
    <g transform="translate(196.686563 35.472) scale(0.12 -0.12)">
     <defs>
      <path id="DejaVuSans-54" d="M -19 4666 
L 3928 4666 
L 3928 4134 
L 2272 4134 
L 2272 0 
L 1638 0 
L 1638 4134 
L -19 4134 
L -19 4666 
z
" transform="scale(0.015625)"/>
      <path id="DejaVuSans-2d" d="M 313 2009 
L 1997 2009 
L 1997 1497 
L 313 1497 
L 313 2009 
z
" transform="scale(0.015625)"/>
      <path id="DejaVuSans-75" d="M 544 1381 
L 544 3500 
L 1119 3500 
L 1119 1403 
Q 1119 906 1312 657 
Q 1506 409 1894 409 
Q 2359 409 2629 706 
Q 2900 1003 2900 1516 
L 2900 3500 
L 3475 3500 
L 3475 0 
L 2900 0 
L 2900 538 
Q 2691 219 2414 64 
Q 2138 -91 1772 -91 
Q 1169 -91 856 284 
Q 544 659 544 1381 
z
M 1991 3584 
L 1991 3584 
z
" transform="scale(0.015625)"/>
     </defs>
     <use xlink:href="#DejaVuSans-54"/>
     <use xlink:href="#DejaVuSans-2d" x="51.958984"/>
     <use xlink:href="#DejaVuSans-64" x="88.042969"/>
     <use xlink:href="#DejaVuSans-69" x="151.519531"/>
     <use xlink:href="#DejaVuSans-73" x="179.302734"/>
     <use xlink:href="#DejaVuSans-74" x="231.402344"/>
     <use xlink:href="#DejaVuSans-72" x="270.611328"/>
     <use xlink:href="#DejaVuSans-69" x="311.724609"/>
     <use xlink:href="#DejaVuSans-62" x="339.507812"/>
     <use xlink:href="#DejaVuSans-75" x="402.984375"/>
     <use xlink:href="#DejaVuSans-74" x="466.363281"/>
     <use xlink:href="#DejaVuSans-69" x="505.572266"/>
     <use xlink:href="#DejaVuSans-6f" x="533.355469"/>
     <use xlink:href="#DejaVuSans-6e" x="594.537109"/>
    </g>
   </g>
   <g id="legend_1">
    <g id="patch_7">
     <path d="M 332.405938 137.54075 
L 407.72 137.54075 
Q 409.72 137.54075 409.72 135.54075 
L 409.72 48.472 
Q 409.72 46.472 407.72 46.472 
L 332.405938 46.472 
Q 330.405938 46.472 330.405938 48.472 
L 330.405938 135.54075 
Q 330.405938 137.54075 332.405938 137.54075 
z
" style="fill: #ffffff; opacity: 0.8; stroke: #cccccc; stroke-linejoin: miter"/>
    </g>
    <g id="line2d_31">
     <path d="M 334.405938 54.570438 
L 344.405938 54.570438 
L 354.405938 54.570438 
" style="fill: none; stroke: #1f77b4; stroke-width: 1.5; stroke-linecap: square"/>
    </g>
    <g id="text_16">
     <!-- nu = 0.1 -->
     <g transform="translate(362.405938 58.070438) scale(0.1 -0.1)">
      <defs>
       <path id="DejaVuSans-3d" d="M 678 2906 
L 4684 2906 
L 4684 2381 
L 678 2381 
L 678 2906 
z
M 678 1631 
L 4684 1631 
L 4684 1100 
L 678 1100 
L 678 1631 
z
" transform="scale(0.015625)"/>
      </defs>
      <use xlink:href="#DejaVuSans-6e"/>
      <use xlink:href="#DejaVuSans-75" x="63.378906"/>
      <use xlink:href="#DejaVuSans-20" x="126.757812"/>
      <use xlink:href="#DejaVuSans-3d" x="158.544922"/>
      <use xlink:href="#DejaVuSans-20" x="242.333984"/>
      <use xlink:href="#DejaVuSans-30" x="274.121094"/>
      <use xlink:href="#DejaVuSans-2e" x="337.744141"/>
      <use xlink:href="#DejaVuSans-31" x="369.53125"/>
     </g>
    </g>
    <g id="line2d_32">
     <path d="M 334.405938 69.248563 
L 344.405938 69.248563 
L 354.405938 69.248563 
" style="fill: none; stroke: #ff7f0e; stroke-width: 1.5; stroke-linecap: square"/>
    </g>
    <g id="text_17">
     <!-- nu = 0.5 -->
     <g transform="translate(362.405938 72.748563) scale(0.1 -0.1)">
      <use xlink:href="#DejaVuSans-6e"/>
      <use xlink:href="#DejaVuSans-75" x="63.378906"/>
      <use xlink:href="#DejaVuSans-20" x="126.757812"/>
      <use xlink:href="#DejaVuSans-3d" x="158.544922"/>
      <use xlink:href="#DejaVuSans-20" x="242.333984"/>
      <use xlink:href="#DejaVuSans-30" x="274.121094"/>
      <use xlink:href="#DejaVuSans-2e" x="337.744141"/>
      <use xlink:href="#DejaVuSans-35" x="369.53125"/>
     </g>
    </g>
    <g id="line2d_33">
     <path d="M 334.405938 83.926688 
L 344.405938 83.926688 
L 354.405938 83.926688 
" style="fill: none; stroke: #2ca02c; stroke-width: 1.5; stroke-linecap: square"/>
    </g>
    <g id="text_18">
     <!-- nu = 1 -->
     <g transform="translate(362.405938 87.426688) scale(0.1 -0.1)">
      <use xlink:href="#DejaVuSans-6e"/>
      <use xlink:href="#DejaVuSans-75" x="63.378906"/>
      <use xlink:href="#DejaVuSans-20" x="126.757812"/>
      <use xlink:href="#DejaVuSans-3d" x="158.544922"/>
      <use xlink:href="#DejaVuSans-20" x="242.333984"/>
      <use xlink:href="#DejaVuSans-31" x="274.121094"/>
     </g>
    </g>
    <g id="line2d_34">
     <path d="M 334.405938 98.604813 
L 344.405938 98.604813 
L 354.405938 98.604813 
" style="fill: none; stroke: #d62728; stroke-width: 1.5; stroke-linecap: square"/>
    </g>
    <g id="text_19">
     <!-- nu = 2 -->
     <g transform="translate(362.405938 102.104813) scale(0.1 -0.1)">
      <use xlink:href="#DejaVuSans-6e"/>
      <use xlink:href="#DejaVuSans-75" x="63.378906"/>
      <use xlink:href="#DejaVuSans-20" x="126.757812"/>
      <use xlink:href="#DejaVuSans-3d" x="158.544922"/>
      <use xlink:href="#DejaVuSans-20" x="242.333984"/>
      <use xlink:href="#DejaVuSans-32" x="274.121094"/>
     </g>
    </g>
    <g id="line2d_35">
     <path d="M 334.405938 113.282938 
L 344.405938 113.282938 
L 354.405938 113.282938 
" style="fill: none; stroke: #9467bd; stroke-width: 1.5; stroke-linecap: square"/>
    </g>
    <g id="text_20">
     <!-- nu = 5 -->
     <g transform="translate(362.405938 116.782938) scale(0.1 -0.1)">
      <use xlink:href="#DejaVuSans-6e"/>
      <use xlink:href="#DejaVuSans-75" x="63.378906"/>
      <use xlink:href="#DejaVuSans-20" x="126.757812"/>
      <use xlink:href="#DejaVuSans-3d" x="158.544922"/>
      <use xlink:href="#DejaVuSans-20" x="242.333984"/>
      <use xlink:href="#DejaVuSans-35" x="274.121094"/>
     </g>
    </g>
    <g id="line2d_36">
     <path d="M 334.405938 127.961063 
L 344.405938 127.961063 
L 354.405938 127.961063 
" style="fill: none; stroke: #8c564b; stroke-width: 1.5; stroke-linecap: square"/>
    </g>
    <g id="text_21">
     <!-- nu = inf -->
     <g transform="translate(362.405938 131.461063) scale(0.1 -0.1)">
      <defs>
       <path id="DejaVuSans-66" d="M 2375 4863 
L 2375 4384 
L 1825 4384 
Q 1516 4384 1395 4259 
Q 1275 4134 1275 3809 
L 1275 3500 
L 2222 3500 
L 2222 3053 
L 1275 3053 
L 1275 0 
L 697 0 
L 697 3053 
L 147 3053 
L 147 3500 
L 697 3500 
L 697 3744 
Q 697 4328 969 4595 
Q 1241 4863 1831 4863 
L 2375 4863 
z
" transform="scale(0.015625)"/>
      </defs>
      <use xlink:href="#DejaVuSans-6e"/>
      <use xlink:href="#DejaVuSans-75" x="63.378906"/>
      <use xlink:href="#DejaVuSans-20" x="126.757812"/>
      <use xlink:href="#DejaVuSans-3d" x="158.544922"/>
      <use xlink:href="#DejaVuSans-20" x="242.333984"/>
      <use xlink:href="#DejaVuSans-69" x="274.121094"/>
      <use xlink:href="#DejaVuSans-6e" x="301.904297"/>
      <use xlink:href="#DejaVuSans-66" x="365.283203"/>
     </g>
    </g>
   </g>
  </g>
 </g>
 <defs>
  <clipPath id="p80e9b761de">
   <rect x="57.6" y="41.472" width="357.12" height="266.112"/>
  </clipPath>
 </defs>
</svg>
