<?xml version="1.0" encoding="utf-8" standalone="no"?>
<!DOCTYPE svg PUBLIC "-//W3C//DTD SVG 1.1//EN"
  "http://www.w3.org/Graphics/SVG/1.1/DTD/svg11.dtd">
<svg xmlns:xlink="http://www.w3.org/1999/xlink" width="460.8pt" height="345.6pt" viewBox="0 0 460.8 345.6" xmlns="http://www.w3.org/2000/svg" version="1.1">
 <metadata>
  <rdf:RDF xmlns:dc="http://purl.org/dc/elements/1.1/" xmlns:cc="http://creativecommons.org/ns#" xmlns:rdf="http://www.w3.org/1999/02/22-rdf-syntax-ns#">
   <cc:Work>
    <dc:type rdf:resource="http://purl.org/dc/dcmitype/StillImage"/>
    <dc:date>2024-05-03T20:15:46.452798</dc:date>
    <dc:format>image/svg+xml</dc:format>
    <dc:creator>
     <cc:Agent>
      <dc:title>Matplotlib v3.8.4, https://matplotlib.org/</dc:title>
     </cc:Agent>
    </dc:creator>
   </cc:Work>
  </rdf:RDF>
 </metadata>
 <defs>
  <style type="text/css">*{stroke-linejoin: round; stroke-linecap: butt}</style>
 </defs>
 <g id="figure_1">
  <g id="patch_1">
   <path d="M 0 345.6 
L 460.8 345.6 
L 460.8 0 
L 0 0 
z
" style="fill: #ffffff"/>
  </g>
  <g id="axes_1">
   <g id="patch_2">
    <path d="M 57.6 307.584 
L 414.72 307.584 
L 414.72 41.472 
L 57.6 41.472 
z
" style="fill: #ffffff"/>
   </g>
   <g id="matplotlib.axis_1">
    <g id="xtick_1">
     <g id="line2d_1">
      <path d="M 93.312 307.584 
L 93.312 41.472 
" clip-path="url(#p727147c9de)" style="fill: none; stroke: #b0b0b0; stroke-width: 0.8; stroke-linecap: square"/>
     </g>
     <g id="line2d_2">
      <defs>
       <path id="mc326c839e0" d="M 0 0 
L 0 3.5 
" style="stroke: #000000; stroke-width: 0.8"/>
      </defs>
      <g>
       <use xlink:href="#mc326c839e0" x="93.312" y="307.584" style="stroke: #000000; stroke-width: 0.8"/>
      </g>
     </g>
     <g id="text_1">
      <!-- −4 -->
      <g transform="translate(85.940906 322.182437) scale(0.1 -0.1)">
       <defs>
        <path id="DejaVuSans-2212" d="M 678 2272 
L 4684 2272 
L 4684 1741 
L 678 1741 
L 678 2272 
z
" transform="scale(0.015625)"/>
        <path id="DejaVuSans-34" d="M 2419 4116 
L 825 1625 
L 2419 1625 
L 2419 4116 
z
M 2253 4666 
L 3047 4666 
L 3047 1625 
L 3713 1625 
L 3713 1100 
L 3047 1100 
L 3047 0 
L 2419 0 
L 2419 1100 
L 313 1100 
L 313 1709 
L 2253 4666 
z
" transform="scale(0.015625)"/>
       </defs>
       <use xlink:href="#DejaVuSans-2212"/>
       <use xlink:href="#DejaVuSans-34" x="83.789062"/>
      </g>
     </g>
    </g>
    <g id="xtick_2">
     <g id="line2d_3">
      <path d="M 164.736 307.584 
L 164.736 41.472 
" clip-path="url(#p727147c9de)" style="fill: none; stroke: #b0b0b0; stroke-width: 0.8; stroke-linecap: square"/>
     </g>
     <g id="line2d_4">
      <g>
       <use xlink:href="#mc326c839e0" x="164.736" y="307.584" style="stroke: #000000; stroke-width: 0.8"/>
      </g>
     </g>
     <g id="text_2">
      <!-- −2 -->
      <g transform="translate(157.364906 322.182437) scale(0.1 -0.1)">
       <defs>
        <path id="DejaVuSans-32" d="M 1228 531 
L 3431 531 
L 3431 0 
L 469 0 
L 469 531 
Q 828 903 1448 1529 
Q 2069 2156 2228 2338 
Q 2531 2678 2651 2914 
Q 2772 3150 2772 3378 
Q 2772 3750 2511 3984 
Q 2250 4219 1831 4219 
Q 1534 4219 1204 4116 
Q 875 4013 500 3803 
L 500 4441 
Q 881 4594 1212 4672 
Q 1544 4750 1819 4750 
Q 2544 4750 2975 4387 
Q 3406 4025 3406 3419 
Q 3406 3131 3298 2873 
Q 3191 2616 2906 2266 
Q 2828 2175 2409 1742 
Q 1991 1309 1228 531 
z
" transform="scale(0.015625)"/>
       </defs>
       <use xlink:href="#DejaVuSans-2212"/>
       <use xlink:href="#DejaVuSans-32" x="83.789062"/>
      </g>
     </g>
    </g>
    <g id="xtick_3">
     <g id="line2d_5">
      <path d="M 236.16 307.584 
L 236.16 41.472 
" clip-path="url(#p727147c9de)" style="fill: none; stroke: #b0b0b0; stroke-width: 0.8; stroke-linecap: square"/>
     </g>
     <g id="line2d_6">
      <g>
       <use xlink:href="#mc326c839e0" x="236.16" y="307.584" style="stroke: #000000; stroke-width: 0.8"/>
      </g>
     </g>
     <g id="text_3">
      <!-- 0 -->
      <g transform="translate(232.97875 322.182437) scale(0.1 -0.1)">
       <defs>
        <path id="DejaVuSans-30" d="M 2034 4250 
Q 1547 4250 1301 3770 
Q 1056 3291 1056 2328 
Q 1056 1369 1301 889 
Q 1547 409 2034 409 
Q 2525 409 2770 889 
Q 3016 1369 3016 2328 
Q 3016 3291 2770 3770 
Q 2525 4250 2034 4250 
z
M 2034 4750 
Q 2819 4750 3233 4129 
Q 3647 3509 3647 2328 
Q 3647 1150 3233 529 
Q 2819 -91 2034 -91 
Q 1250 -91 836 529 
Q 422 1150 422 2328 
Q 422 3509 836 4129 
Q 1250 4750 2034 4750 
z
" transform="scale(0.015625)"/>
       </defs>
       <use xlink:href="#DejaVuSans-30"/>
      </g>
     </g>
    </g>
    <g id="xtick_4">
     <g id="line2d_7">
      <path d="M 307.584 307.584 
L 307.584 41.472 
" clip-path="url(#p727147c9de)" style="fill: none; stroke: #b0b0b0; stroke-width: 0.8; stroke-linecap: square"/>
     </g>
     <g id="line2d_8">
      <g>
       <use xlink:href="#mc326c839e0" x="307.584" y="307.584" style="stroke: #000000; stroke-width: 0.8"/>
      </g>
     </g>
     <g id="text_4">
      <!-- 2 -->
      <g transform="translate(304.40275 322.182437) scale(0.1 -0.1)">
       <use xlink:href="#DejaVuSans-32"/>
      </g>
     </g>
    </g>
    <g id="xtick_5">
     <g id="line2d_9">
      <path d="M 379.008 307.584 
L 379.008 41.472 
" clip-path="url(#p727147c9de)" style="fill: none; stroke: #b0b0b0; stroke-width: 0.8; stroke-linecap: square"/>
     </g>
     <g id="line2d_10">
      <g>
       <use xlink:href="#mc326c839e0" x="379.008" y="307.584" style="stroke: #000000; stroke-width: 0.8"/>
      </g>
     </g>
     <g id="text_5">
      <!-- 4 -->
      <g transform="translate(375.82675 322.182437) scale(0.1 -0.1)">
       <use xlink:href="#DejaVuSans-34"/>
      </g>
     </g>
    </g>
    <g id="text_6">
     <!-- x -->
     <g transform="translate(233.200625 335.860562) scale(0.1 -0.1)">
      <defs>
       <path id="DejaVuSans-78" d="M 3513 3500 
L 2247 1797 
L 3578 0 
L 2900 0 
L 1881 1375 
L 863 0 
L 184 0 
L 1544 1831 
L 300 3500 
L 978 3500 
L 1906 2253 
L 2834 3500 
L 3513 3500 
z
" transform="scale(0.015625)"/>
      </defs>
      <use xlink:href="#DejaVuSans-78"/>
     </g>
    </g>
   </g>
   <g id="matplotlib.axis_2">
    <g id="ytick_1">
     <g id="line2d_11">
      <path d="M 57.6 275.82044 
L 414.72 275.82044 
" clip-path="url(#p727147c9de)" style="fill: none; stroke: #b0b0b0; stroke-width: 0.8; stroke-linecap: square"/>
     </g>
     <g id="line2d_12">
      <defs>
       <path id="m23052766c8" d="M 0 0 
L -3.5 0 
" style="stroke: #000000; stroke-width: 0.8"/>
      </defs>
      <g>
       <use xlink:href="#m23052766c8" x="57.6" y="275.82044" style="stroke: #000000; stroke-width: 0.8"/>
      </g>
     </g>
     <g id="text_7">
      <!-- 0.05 -->
      <g transform="translate(28.334375 279.619659) scale(0.1 -0.1)">
       <defs>
        <path id="DejaVuSans-2e" d="M 684 794 
L 1344 794 
L 1344 0 
L 684 0 
L 684 794 
z
" transform="scale(0.015625)"/>
        <path id="DejaVuSans-35" d="M 691 4666 
L 3169 4666 
L 3169 4134 
L 1269 4134 
L 1269 2991 
Q 1406 3038 1543 3061 
Q 1681 3084 1819 3084 
Q 2600 3084 3056 2656 
Q 3513 2228 3513 1497 
Q 3513 744 3044 326 
Q 2575 -91 1722 -91 
Q 1428 -91 1123 -41 
Q 819 9 494 109 
L 494 744 
Q 775 591 1075 516 
Q 1375 441 1709 441 
Q 2250 441 2565 725 
Q 2881 1009 2881 1497 
Q 2881 1984 2565 2268 
Q 2250 2553 1709 2553 
Q 1456 2553 1204 2497 
Q 953 2441 691 2322 
L 691 4666 
z
" transform="scale(0.015625)"/>
       </defs>
       <use xlink:href="#DejaVuSans-30"/>
       <use xlink:href="#DejaVuSans-2e" x="63.623047"/>
       <use xlink:href="#DejaVuSans-30" x="95.410156"/>
       <use xlink:href="#DejaVuSans-35" x="159.033203"/>
      </g>
     </g>
    </g>
    <g id="ytick_2">
     <g id="line2d_13">
      <path d="M 57.6 244.055936 
L 414.72 244.055936 
" clip-path="url(#p727147c9de)" style="fill: none; stroke: #b0b0b0; stroke-width: 0.8; stroke-linecap: square"/>
     </g>
     <g id="line2d_14">
      <g>
       <use xlink:href="#m23052766c8" x="57.6" y="244.055936" style="stroke: #000000; stroke-width: 0.8"/>
      </g>
     </g>
     <g id="text_8">
      <!-- 0.10 -->
      <g transform="translate(28.334375 247.855155) scale(0.1 -0.1)">
       <defs>
        <path id="DejaVuSans-31" d="M 794 531 
L 1825 531 
L 1825 4091 
L 703 3866 
L 703 4441 
L 1819 4666 
L 2450 4666 
L 2450 531 
L 3481 531 
L 3481 0 
L 794 0 
L 794 531 
z
" transform="scale(0.015625)"/>
       </defs>
       <use xlink:href="#DejaVuSans-30"/>
       <use xlink:href="#DejaVuSans-2e" x="63.623047"/>
       <use xlink:href="#DejaVuSans-31" x="95.410156"/>
       <use xlink:href="#DejaVuSans-30" x="159.033203"/>
      </g>
     </g>
    </g>
    <g id="ytick_3">
     <g id="line2d_15">
      <path d="M 57.6 212.291432 
L 414.72 212.291432 
" clip-path="url(#p727147c9de)" style="fill: none; stroke: #b0b0b0; stroke-width: 0.8; stroke-linecap: square"/>
     </g>
     <g id="line2d_16">
      <g>
       <use xlink:href="#m23052766c8" x="57.6" y="212.291432" style="stroke: #000000; stroke-width: 0.8"/>
      </g>
     </g>
     <g id="text_9">
      <!-- 0.15 -->
      <g transform="translate(28.334375 216.090651) scale(0.1 -0.1)">
       <use xlink:href="#DejaVuSans-30"/>
       <use xlink:href="#DejaVuSans-2e" x="63.623047"/>
       <use xlink:href="#DejaVuSans-31" x="95.410156"/>
       <use xlink:href="#DejaVuSans-35" x="159.033203"/>
      </g>
     </g>
    </g>
    <g id="ytick_4">
     <g id="line2d_17">
      <path d="M 57.6 180.526928 
L 414.72 180.526928 
" clip-path="url(#p727147c9de)" style="fill: none; stroke: #b0b0b0; stroke-width: 0.8; stroke-linecap: square"/>
     </g>
     <g id="line2d_18">
      <g>
       <use xlink:href="#m23052766c8" x="57.6" y="180.526928" style="stroke: #000000; stroke-width: 0.8"/>
      </g>
     </g>
     <g id="text_10">
      <!-- 0.20 -->
      <g transform="translate(28.334375 184.326147) scale(0.1 -0.1)">
       <use xlink:href="#DejaVuSans-30"/>
       <use xlink:href="#DejaVuSans-2e" x="63.623047"/>
       <use xlink:href="#DejaVuSans-32" x="95.410156"/>
       <use xlink:href="#DejaVuSans-30" x="159.033203"/>
      </g>
     </g>
    </g>
    <g id="ytick_5">
     <g id="line2d_19">
      <path d="M 57.6 148.762424 
L 414.72 148.762424 
" clip-path="url(#p727147c9de)" style="fill: none; stroke: #b0b0b0; stroke-width: 0.8; stroke-linecap: square"/>
     </g>
     <g id="line2d_20">
      <g>
       <use xlink:href="#m23052766c8" x="57.6" y="148.762424" style="stroke: #000000; stroke-width: 0.8"/>
      </g>
     </g>
     <g id="text_11">
      <!-- 0.25 -->
      <g transform="translate(28.334375 152.561643) scale(0.1 -0.1)">
       <use xlink:href="#DejaVuSans-30"/>
       <use xlink:href="#DejaVuSans-2e" x="63.623047"/>
       <use xlink:href="#DejaVuSans-32" x="95.410156"/>
       <use xlink:href="#DejaVuSans-35" x="159.033203"/>
      </g>
     </g>
    </g>
    <g id="ytick_6">
     <g id="line2d_21">
      <path d="M 57.6 116.99792 
L 414.72 116.99792 
" clip-path="url(#p727147c9de)" style="fill: none; stroke: #b0b0b0; stroke-width: 0.8; stroke-linecap: square"/>
     </g>
     <g id="line2d_22">
      <g>
       <use xlink:href="#m23052766c8" x="57.6" y="116.99792" style="stroke: #000000; stroke-width: 0.8"/>
      </g>
     </g>
     <g id="text_12">
      <!-- 0.30 -->
      <g transform="translate(28.334375 120.797139) scale(0.1 -0.1)">
       <defs>
        <path id="DejaVuSans-33" d="M 2597 2516 
Q 3050 2419 3304 2112 
Q 3559 1806 3559 1356 
Q 3559 666 3084 287 
Q 2609 -91 1734 -91 
Q 1441 -91 1130 -33 
Q 819 25 488 141 
L 488 750 
Q 750 597 1062 519 
Q 1375 441 1716 441 
Q 2309 441 2620 675 
Q 2931 909 2931 1356 
Q 2931 1769 2642 2001 
Q 2353 2234 1838 2234 
L 1294 2234 
L 1294 2753 
L 1863 2753 
Q 2328 2753 2575 2939 
Q 2822 3125 2822 3475 
Q 2822 3834 2567 4026 
Q 2313 4219 1838 4219 
Q 1578 4219 1281 4162 
Q 984 4106 628 3988 
L 628 4550 
Q 988 4650 1302 4700 
Q 1616 4750 1894 4750 
Q 2613 4750 3031 4423 
Q 3450 4097 3450 3541 
Q 3450 3153 3228 2886 
Q 3006 2619 2597 2516 
z
" transform="scale(0.015625)"/>
       </defs>
       <use xlink:href="#DejaVuSans-30"/>
       <use xlink:href="#DejaVuSans-2e" x="63.623047"/>
       <use xlink:href="#DejaVuSans-33" x="95.410156"/>
       <use xlink:href="#DejaVuSans-30" x="159.033203"/>
      </g>
     </g>
    </g>
    <g id="ytick_7">
     <g id="line2d_23">
      <path d="M 57.6 85.233416 
L 414.72 85.233416 
" clip-path="url(#p727147c9de)" style="fill: none; stroke: #b0b0b0; stroke-width: 0.8; stroke-linecap: square"/>
     </g>
     <g id="line2d_24">
      <g>
       <use xlink:href="#m23052766c8" x="57.6" y="85.233416" style="stroke: #000000; stroke-width: 0.8"/>
      </g>
     </g>
     <g id="text_13">
      <!-- 0.35 -->
      <g transform="translate(28.334375 89.032635) scale(0.1 -0.1)">
       <use xlink:href="#DejaVuSans-30"/>
       <use xlink:href="#DejaVuSans-2e" x="63.623047"/>
       <use xlink:href="#DejaVuSans-33" x="95.410156"/>
       <use xlink:href="#DejaVuSans-35" x="159.033203"/>
      </g>
     </g>
    </g>
    <g id="ytick_8">
     <g id="line2d_25">
      <path d="M 57.6 53.468912 
L 414.72 53.468912 
" clip-path="url(#p727147c9de)" style="fill: none; stroke: #b0b0b0; stroke-width: 0.8; stroke-linecap: square"/>
     </g>
     <g id="line2d_26">
      <g>
       <use xlink:href="#m23052766c8" x="57.6" y="53.468912" style="stroke: #000000; stroke-width: 0.8"/>
      </g>
     </g>
     <g id="text_14">
      <!-- 0.40 -->
      <g transform="translate(28.334375 57.268131) scale(0.1 -0.1)">
       <use xlink:href="#DejaVuSans-30"/>
       <use xlink:href="#DejaVuSans-2e" x="63.623047"/>
       <use xlink:href="#DejaVuSans-34" x="95.410156"/>
       <use xlink:href="#DejaVuSans-30" x="159.033203"/>
      </g>
     </g>
    </g>
    <g id="text_15">
     <!-- Probability density -->
     <g transform="translate(22.254687 220.878781) rotate(-90) scale(0.1 -0.1)">
      <defs>
       <path id="DejaVuSans-50" d="M 1259 4147 
L 1259 2394 
L 2053 2394 
Q 2494 2394 2734 2622 
Q 2975 2850 2975 3272 
Q 2975 3691 2734 3919 
Q 2494 4147 2053 4147 
L 1259 4147 
z
M 628 4666 
L 2053 4666 
Q 2838 4666 3239 4311 
Q 3641 3956 3641 3272 
Q 3641 2581 3239 2228 
Q 2838 1875 2053 1875 
L 1259 1875 
L 1259 0 
L 628 0 
L 628 4666 
z
" transform="scale(0.015625)"/>
       <path id="DejaVuSans-72" d="M 2631 2963 
Q 2534 3019 2420 3045 
Q 2306 3072 2169 3072 
Q 1681 3072 1420 2755 
Q 1159 2438 1159 1844 
L 1159 0 
L 581 0 
L 581 3500 
L 1159 3500 
L 1159 2956 
Q 1341 3275 1631 3429 
Q 1922 3584 2338 3584 
Q 2397 3584 2469 3576 
Q 2541 3569 2628 3553 
L 2631 2963 
z
" transform="scale(0.015625)"/>
       <path id="DejaVuSans-6f" d="M 1959 3097 
Q 1497 3097 1228 2736 
Q 959 2375 959 1747 
Q 959 1119 1226 758 
Q 1494 397 1959 397 
Q 2419 397 2687 759 
Q 2956 1122 2956 1747 
Q 2956 2369 2687 2733 
Q 2419 3097 1959 3097 
z
M 1959 3584 
Q 2709 3584 3137 3096 
Q 3566 2609 3566 1747 
Q 3566 888 3137 398 
Q 2709 -91 1959 -91 
Q 1206 -91 779 398 
Q 353 888 353 1747 
Q 353 2609 779 3096 
Q 1206 3584 1959 3584 
z
" transform="scale(0.015625)"/>
       <path id="DejaVuSans-62" d="M 3116 1747 
Q 3116 2381 2855 2742 
Q 2594 3103 2138 3103 
Q 1681 3103 1420 2742 
Q 1159 2381 1159 1747 
Q 1159 1113 1420 752 
Q 1681 391 2138 391 
Q 2594 391 2855 752 
Q 3116 1113 3116 1747 
z
M 1159 2969 
Q 1341 3281 1617 3432 
Q 1894 3584 2278 3584 
Q 2916 3584 3314 3078 
Q 3713 2572 3713 1747 
Q 3713 922 3314 415 
Q 2916 -91 2278 -91 
Q 1894 -91 1617 61 
Q 1341 213 1159 525 
L 1159 0 
L 581 0 
L 581 4863 
L 1159 4863 
L 1159 2969 
z
" transform="scale(0.015625)"/>
       <path id="DejaVuSans-61" d="M 2194 1759 
Q 1497 1759 1228 1600 
Q 959 1441 959 1056 
Q 959 750 1161 570 
Q 1363 391 1709 391 
Q 2188 391 2477 730 
Q 2766 1069 2766 1631 
L 2766 1759 
L 2194 1759 
z
M 3341 1997 
L 3341 0 
L 2766 0 
L 2766 531 
Q 2569 213 2275 61 
Q 1981 -91 1556 -91 
Q 1019 -91 701 211 
Q 384 513 384 1019 
Q 384 1609 779 1909 
Q 1175 2209 1959 2209 
L 2766 2209 
L 2766 2266 
Q 2766 2663 2505 2880 
Q 2244 3097 1772 3097 
Q 1472 3097 1187 3025 
Q 903 2953 641 2809 
L 641 3341 
Q 956 3463 1253 3523 
Q 1550 3584 1831 3584 
Q 2591 3584 2966 3190 
Q 3341 2797 3341 1997 
z
" transform="scale(0.015625)"/>
       <path id="DejaVuSans-69" d="M 603 3500 
L 1178 3500 
L 1178 0 
L 603 0 
L 603 3500 
z
M 603 4863 
L 1178 4863 
L 1178 4134 
L 603 4134 
L 603 4863 
z
" transform="scale(0.015625)"/>
       <path id="DejaVuSans-6c" d="M 603 4863 
L 1178 4863 
L 1178 0 
L 603 0 
L 603 4863 
z
" transform="scale(0.015625)"/>
       <path id="DejaVuSans-74" d="M 1172 4494 
L 1172 3500 
L 2356 3500 
L 2356 3053 
L 1172 3053 
L 1172 1153 
Q 1172 725 1289 603 
Q 1406 481 1766 481 
L 2356 481 
L 2356 0 
L 1766 0 
Q 1100 0 847 248 
Q 594 497 594 1153 
L 594 3053 
L 172 3053 
L 172 3500 
L 594 3500 
L 594 4494 
L 1172 4494 
z
" transform="scale(0.015625)"/>
       <path id="DejaVuSans-79" d="M 2059 -325 
Q 1816 -950 1584 -1140 
Q 1353 -1331 966 -1331 
L 506 -1331 
L 506 -850 
L 844 -850 
Q 1081 -850 1212 -737 
Q 1344 -625 1503 -206 
L 1606 56 
L 191 3500 
L 800 3500 
L 1894 763 
L 2988 3500 
L 3597 3500 
L 2059 -325 
z
" transform="scale(0.015625)"/>
       <path id="DejaVuSans-20" transform="scale(0.015625)"/>
       <path id="DejaVuSans-64" d="M 2906 2969 
L 2906 4863 
L 3481 4863 
L 3481 0 
L 2906 0 
L 2906 525 
Q 2725 213 2448 61 
Q 2172 -91 1784 -91 
Q 1150 -91 751 415 
Q 353 922 353 1747 
Q 353 2572 751 3078 
Q 1150 3584 1784 3584 
Q 2172 3584 2448 3432 
Q 2725 3281 2906 2969 
z
M 947 1747 
Q 947 1113 1208 752 
Q 1469 391 1925 391 
Q 2381 391 2643 752 
Q 2906 1113 2906 1747 
Q 2906 2381 2643 2742 
Q 2381 3103 1925 3103 
Q 1469 3103 1208 2742 
Q 947 2381 947 1747 
z
" transform="scale(0.015625)"/>
       <path id="DejaVuSans-65" d="M 3597 1894 
L 3597 1613 
L 953 1613 
Q 991 1019 1311 708 
Q 1631 397 2203 397 
Q 2534 397 2845 478 
Q 3156 559 3463 722 
L 3463 178 
Q 3153 47 2828 -22 
Q 2503 -91 2169 -91 
Q 1331 -91 842 396 
Q 353 884 353 1716 
Q 353 2575 817 3079 
Q 1281 3584 2069 3584 
Q 2775 3584 3186 3129 
Q 3597 2675 3597 1894 
z
M 3022 2063 
Q 3016 2534 2758 2815 
Q 2500 3097 2075 3097 
Q 1594 3097 1305 2825 
Q 1016 2553 972 2059 
L 3022 2063 
z
" transform="scale(0.015625)"/>
       <path id="DejaVuSans-6e" d="M 3513 2113 
L 3513 0 
L 2938 0 
L 2938 2094 
Q 2938 2591 2744 2837 
Q 2550 3084 2163 3084 
Q 1697 3084 1428 2787 
Q 1159 2491 1159 1978 
L 1159 0 
L 581 0 
L 581 3500 
L 1159 3500 
L 1159 2956 
Q 1366 3272 1645 3428 
Q 1925 3584 2291 3584 
Q 2894 3584 3203 3211 
Q 3513 2838 3513 2113 
z
" transform="scale(0.015625)"/>
       <path id="DejaVuSans-73" d="M 2834 3397 
L 2834 2853 
Q 2591 2978 2328 3040 
Q 2066 3103 1784 3103 
Q 1356 3103 1142 2972 
Q 928 2841 928 2578 
Q 928 2378 1081 2264 
Q 1234 2150 1697 2047 
L 1894 2003 
Q 2506 1872 2764 1633 
Q 3022 1394 3022 966 
Q 3022 478 2636 193 
Q 2250 -91 1575 -91 
Q 1294 -91 989 -36 
Q 684 19 347 128 
L 347 722 
Q 666 556 975 473 
Q 1284 391 1588 391 
Q 1994 391 2212 530 
Q 2431 669 2431 922 
Q 2431 1156 2273 1281 
Q 2116 1406 1581 1522 
L 1381 1569 
Q 847 1681 609 1914 
Q 372 2147 372 2553 
Q 372 3047 722 3315 
Q 1072 3584 1716 3584 
Q 2034 3584 2315 3537 
Q 2597 3491 2834 3397 
z
" transform="scale(0.015625)"/>
      </defs>
      <use xlink:href="#DejaVuSans-50"/>
      <use xlink:href="#DejaVuSans-72" x="58.552734"/>
      <use xlink:href="#DejaVuSans-6f" x="97.416016"/>
      <use xlink:href="#DejaVuSans-62" x="158.597656"/>
      <use xlink:href="#DejaVuSans-61" x="222.074219"/>
      <use xlink:href="#DejaVuSans-62" x="283.353516"/>
      <use xlink:href="#DejaVuSans-69" x="346.830078"/>
      <use xlink:href="#DejaVuSans-6c" x="374.613281"/>
      <use xlink:href="#DejaVuSans-69" x="402.396484"/>
      <use xlink:href="#DejaVuSans-74" x="430.179688"/>
      <use xlink:href="#DejaVuSans-79" x="469.388672"/>
      <use xlink:href="#DejaVuSans-20" x="528.568359"/>
      <use xlink:href="#DejaVuSans-64" x="560.355469"/>
      <use xlink:href="#DejaVuSans-65" x="623.832031"/>
      <use xlink:href="#DejaVuSans-6e" x="685.355469"/>
      <use xlink:href="#DejaVuSans-73" x="748.734375"/>
      <use xlink:href="#DejaVuSans-69" x="800.833984"/>
      <use xlink:href="#DejaVuSans-74" x="828.617188"/>
      <use xlink:href="#DejaVuSans-79" x="867.826172"/>
     </g>
    </g>
   </g>
   <g id="line2d_27">
    <path d="M 57.6 303.080062 
L 81.908468 302.297202 
L 101.56973 301.4472 
L 117.656216 300.53258 
L 130.882883 299.562636 
L 141.964685 298.532654 
L 151.259099 297.455005 
L 159.481081 296.278389 
L 166.273153 295.093647 
L 172.35027 293.817381 
L 177.712432 292.470177 
L 182.35964 291.086743 
L 186.649369 289.583122 
L 190.581622 287.963399 
L 194.156396 286.239091 
L 197.373694 284.431459 
L 200.233514 282.573655 
L 202.735856 280.712171 
L 205.238198 278.584725 
L 207.740541 276.136291 
L 209.885405 273.730342 
L 212.03027 270.984863 
L 214.175135 267.835763 
L 215.962523 264.848927 
L 217.74991 261.479887 
L 219.537297 257.675906 
L 221.324685 253.385962 
L 223.112072 248.571008 
L 225.256937 242.093267 
L 227.759279 233.742688 
L 231.334054 221.794253 
L 232.763964 217.878203 
L 233.836396 215.624705 
L 234.551351 214.537188 
L 235.266306 213.825975 
L 235.981261 213.516447 
L 236.696216 213.619943 
L 237.411171 214.132651 
L 238.126126 215.035984 
L 238.841081 216.29838 
L 239.913514 218.772239 
L 241.343423 222.893482 
L 243.488288 230.038504 
L 247.420541 243.223356 
L 249.565405 249.57704 
L 251.71027 255.163194 
L 253.497658 259.253082 
L 255.285045 262.87671 
L 257.42991 266.683618 
L 259.574775 269.983508 
L 261.71964 272.855839 
L 263.864505 275.368535 
L 266.366847 277.920653 
L 268.869189 280.133646 
L 271.371532 282.066195 
L 274.231351 283.991145 
L 277.448649 285.860275 
L 280.665946 287.473872 
L 284.240721 289.023802 
L 288.172973 290.48976 
L 292.462703 291.859755 
L 297.467387 293.217978 
L 303.187027 294.52208 
L 309.621622 295.744886 
L 316.771171 296.871668 
L 324.993153 297.93916 
L 334.645045 298.959688 
L 345.726847 299.903757 
L 358.953514 300.800804 
L 374.682523 301.637302 
L 393.628829 302.415306 
L 414.72 303.080062 
L 414.72 303.080062 
" clip-path="url(#p727147c9de)" style="fill: none; stroke: #1f77b4; stroke-width: 1.5; stroke-linecap: square"/>
   </g>
   <g id="line2d_28">
    <path d="M 57.6 298.60782 
L 71.899099 297.437565 
L 84.410811 296.190924 
L 95.135135 294.907248 
L 104.787027 293.5346 
L 113.366486 292.096466 
L 121.230991 290.553083 
L 128.380541 288.918872 
L 134.815135 287.217282 
L 140.534775 285.482127 
L 145.896937 283.626765 
L 150.901622 281.656967 
L 155.548829 279.583525 
L 159.838559 277.423207 
L 163.770811 275.199584 
L 167.345586 272.943571 
L 170.92036 270.429423 
L 174.137658 267.913124 
L 177.354955 265.121328 
L 180.572252 262.014273 
L 183.432072 258.950568 
L 186.291892 255.564022 
L 189.151712 251.8123 
L 192.011532 247.647748 
L 194.513874 243.623606 
L 197.016216 239.204419 
L 199.518559 234.349634 
L 202.020901 229.018076 
L 204.523243 223.170399 
L 207.025586 216.773067 
L 209.527928 209.804444 
L 212.387748 201.141155 
L 215.605045 190.573316 
L 219.537297 176.79982 
L 224.899459 158.050273 
L 227.044324 151.300218 
L 228.831712 146.343273 
L 230.261622 142.953922 
L 231.691532 140.178522 
L 232.763964 138.550014 
L 233.836396 137.3422 
L 234.551351 136.781856 
L 235.266306 136.423026 
L 235.981261 136.268703 
L 236.696216 136.32018 
L 237.411171 136.577025 
L 238.126126 137.03709 
L 238.841081 137.696556 
L 239.913514 139.047395 
L 240.985946 140.810061 
L 242.058378 142.953922 
L 243.488288 146.343273 
L 245.275676 151.300218 
L 247.420541 158.050273 
L 250.28036 167.884774 
L 258.144865 195.368331 
L 261.362162 205.564374 
L 264.221982 213.857112 
L 266.724324 220.497608 
L 269.226667 226.577271 
L 271.729009 232.125433 
L 274.231351 237.179543 
L 276.733694 241.780371 
L 279.236036 245.968961 
L 282.095856 250.301703 
L 284.955676 254.202362 
L 287.815495 257.720606 
L 290.675315 260.900743 
L 293.892613 264.122814 
L 297.10991 267.014976 
L 300.327207 269.619053 
L 303.901982 272.218119 
L 307.476757 274.547767 
L 311.409009 276.841415 
L 315.698739 279.067172 
L 319.988468 281.045956 
L 324.635676 282.951815 
L 329.64036 284.76883 
L 335.002523 286.486363 
L 341.07964 288.192324 
L 347.514234 289.766516 
L 354.663784 291.284446 
L 362.528288 292.723784 
L 371.465225 294.122014 
L 381.117117 295.404403 
L 392.198919 296.645546 
L 404.710631 297.813972 
L 414.72 298.60782 
L 414.72 298.60782 
" clip-path="url(#p727147c9de)" style="fill: none; stroke: #ff7f0e; stroke-width: 1.5; stroke-linecap: square"/>
   </g>
   <g id="line2d_29">
    <path d="M 57.6 299.807286 
L 70.111712 298.644808 
L 80.836036 297.431772 
L 90.487928 296.120552 
L 99.067387 294.734771 
L 106.931892 293.237466 
L 114.081441 291.644085 
L 120.516036 289.979527 
L 126.235676 288.279215 
L 131.597838 286.460517 
L 136.602523 284.531521 
L 141.24973 282.505508 
L 145.539459 280.401656 
L 149.471712 278.245527 
L 153.403964 275.839199 
L 156.978739 273.403516 
L 160.553514 270.698353 
L 163.770811 268.002736 
L 166.988108 265.027952 
L 170.205405 261.739037 
L 173.065225 258.52008 
L 175.925045 254.990993 
L 178.784865 251.117846 
L 181.644685 246.863649 
L 184.504505 242.188581 
L 187.364324 237.050538 
L 190.224144 231.406137 
L 193.083964 225.212399 
L 195.943784 218.42937 
L 198.803604 211.024003 
L 201.663423 202.975698 
L 204.523243 194.283838 
L 207.740541 183.774111 
L 211.315315 171.318007 
L 217.392432 149.128005 
L 221.324685 135.126909 
L 223.827027 126.913342 
L 225.971892 120.585301 
L 227.759279 115.969016 
L 229.189189 112.787828 
L 230.619099 110.119442 
L 231.691532 108.48303 
L 232.763964 107.178125 
L 233.836396 106.218309 
L 234.908829 105.613741 
L 235.623784 105.411411 
L 236.338739 105.370896 
L 237.053694 105.492392 
L 237.768649 105.775314 
L 238.841081 106.499204 
L 239.913514 107.575353 
L 240.985946 108.992429 
L 242.058378 110.735784 
L 243.488288 113.537029 
L 244.918198 116.83833 
L 246.705586 121.584906 
L 248.85045 128.038495 
L 251.352793 136.356007 
L 254.927568 149.128005 
L 263.507027 180.114275 
L 267.081802 192.012918 
L 270.299099 201.924143 
L 273.158919 210.053366 
L 276.018739 217.538301 
L 278.878559 224.397511 
L 281.738378 230.662823 
L 284.598198 236.373573 
L 287.458018 241.572527 
L 290.317838 246.303126 
L 293.177658 250.607701 
L 296.037477 254.526395 
L 298.897297 258.09657 
L 302.114595 261.739037 
L 305.331892 265.027952 
L 308.549189 268.002736 
L 311.766486 270.698353 
L 315.341261 273.403516 
L 318.916036 275.839199 
L 322.848288 278.245527 
L 326.780541 280.401656 
L 331.07027 282.505508 
L 335.717477 284.531521 
L 340.722162 286.460517 
L 346.084324 288.279215 
L 351.803964 289.979527 
L 357.881081 291.557748 
L 364.673153 293.088859 
L 372.18018 294.54446 
L 380.402162 295.90532 
L 389.339099 297.160206 
L 399.348468 298.343163 
L 410.787748 299.467289 
L 414.72 299.807286 
L 414.72 299.807286 
" clip-path="url(#p727147c9de)" style="fill: none; stroke: #2ca02c; stroke-width: 1.5; stroke-linecap: square"/>
   </g>
   <g id="line2d_30">
    <path d="M 57.6 303.056736 
L 69.396757 302.115446 
L 79.763604 301.066935 
L 88.700541 299.944131 
L 96.565045 298.740456 
L 103.714595 297.425632 
L 110.149189 296.019904 
L 115.868829 294.554777 
L 121.230991 292.959594 
L 126.235676 291.240591 
L 130.882883 289.409656 
L 135.172613 287.485089 
L 139.104865 285.492083 
L 143.037117 283.247421 
L 146.611892 280.957507 
L 150.186667 278.397445 
L 153.403964 275.832701 
L 156.621261 272.990404 
L 159.838559 269.837607 
L 162.698378 266.745025 
L 165.558198 263.350248 
L 168.418018 259.622933 
L 171.277838 255.530588 
L 174.137658 251.038835 
L 176.997477 246.111882 
L 179.857297 240.713274 
L 182.717117 234.80699 
L 185.576937 228.35901 
L 188.436757 221.33944 
L 191.296577 213.725314 
L 194.156396 205.504182 
L 197.373694 195.533663 
L 200.590991 184.833123 
L 204.165766 172.183421 
L 208.812973 154.853225 
L 217.74991 121.310921 
L 220.60973 111.509277 
L 223.112072 103.723267 
L 225.256937 97.810558 
L 227.044324 93.521249 
L 228.474234 90.558568 
L 229.904144 88.047905 
L 231.334054 86.017515 
L 232.406486 84.824171 
L 233.478919 83.922115 
L 234.551351 83.317357 
L 235.623784 83.013955 
L 236.696216 83.013955 
L 237.768649 83.317357 
L 238.841081 83.922115 
L 239.913514 84.824171 
L 240.985946 86.017515 
L 242.058378 87.49428 
L 243.488288 89.887345 
L 244.918198 92.739911 
L 246.705586 96.903547 
L 248.492973 101.666776 
L 250.637838 108.068007 
L 253.14018 116.308354 
L 256.357477 127.789712 
L 261.362162 146.676785 
L 268.154234 172.183421 
L 272.086486 186.05614 
L 275.661261 197.814233 
L 278.878559 207.616538 
L 281.738378 215.685484 
L 284.598198 223.149324 
L 287.458018 230.023519 
L 290.317838 236.333068 
L 293.177658 242.109134 
L 296.037477 247.386411 
L 298.897297 252.201157 
L 301.757117 256.589748 
L 304.616937 260.58768 
L 307.476757 264.228894 
L 310.336577 267.545366 
L 313.553874 270.925218 
L 316.771171 273.970637 
L 319.988468 276.716927 
L 323.563243 279.456094 
L 327.138018 281.90402 
L 330.712793 284.094992 
L 334.645045 286.244151 
L 338.934775 288.316609 
L 343.224505 290.143013 
L 347.871712 291.882494 
L 352.876396 293.517599 
L 358.238559 295.036871 
L 364.315676 296.514715 
L 370.75027 297.845054 
L 377.89982 299.091675 
L 385.764324 300.235152 
L 394.701261 301.304019 
L 404.710631 302.273496 
L 414.72 303.056736 
L 414.72 303.056736 
" clip-path="url(#p727147c9de)" style="fill: none; stroke: #d62728; stroke-width: 1.5; stroke-linecap: square"/>
   </g>
   <g id="line2d_31">
    <path d="M 57.6 306.468461 
L 71.184144 305.935549 
L 82.265946 305.282819 
L 91.202883 304.541551 
L 98.70991 303.709484 
L 105.501982 302.734634 
L 111.221622 301.701352 
L 116.583784 300.509537 
L 121.230991 299.261504 
L 125.520721 297.895097 
L 129.452973 296.428061 
L 133.385225 294.720005 
L 136.96 292.924089 
L 140.177297 291.080093 
L 143.394595 288.990718 
L 146.611892 286.623953 
L 149.471712 284.258705 
L 152.331532 281.619074 
L 155.191351 278.675634 
L 158.051171 275.396879 
L 160.910991 271.749424 
L 163.770811 267.698353 
L 166.630631 263.207731 
L 169.49045 258.241332 
L 172.35027 252.763614 
L 175.21009 246.740979 
L 178.06991 240.143372 
L 180.92973 232.946217 
L 183.78955 225.132724 
L 186.649369 216.696534 
L 189.866667 206.470862 
L 193.083964 195.501712 
L 196.658739 182.525068 
L 200.948468 166.064294 
L 208.098018 137.527307 
L 213.102703 117.925916 
L 216.32 106.089313 
L 219.17982 96.387553 
L 221.682162 88.724111 
L 223.827027 82.889889 
L 225.614414 78.614364 
L 227.401802 74.922118 
L 228.831712 72.416412 
L 230.261622 70.329141 
L 231.691532 68.675873 
L 232.763964 67.72836 
L 233.836396 67.03611 
L 234.908829 66.6021 
L 235.981261 66.428204 
L 237.053694 66.515173 
L 238.126126 66.862631 
L 239.198559 67.469078 
L 240.270991 68.331901 
L 241.343423 69.447403 
L 242.773333 71.319429 
L 244.203243 73.618047 
L 245.633153 76.326232 
L 247.420541 80.257097 
L 249.207928 84.753069 
L 251.352793 90.82527 
L 253.497658 97.549476 
L 256 106.089313 
L 259.217297 117.925916 
L 263.507027 134.674786 
L 274.946306 179.841554 
L 278.878559 194.239611 
L 282.453333 206.470862 
L 285.670631 216.696534 
L 288.887928 226.14345 
L 291.747748 233.879312 
L 294.607568 241.000421 
L 297.467387 247.52468 
L 300.327207 253.477466 
L 303.187027 258.889379 
L 306.046847 263.794337 
L 308.906667 268.228031 
L 311.766486 272.226701 
L 314.626306 275.826186 
L 317.486126 279.061237 
L 320.345946 281.965018 
L 323.205766 284.568786 
L 326.423063 287.175634 
L 329.64036 289.477816 
L 332.857658 291.510014 
L 336.432432 293.489279 
L 340.007207 295.211946 
L 343.939459 296.850499 
L 348.229189 298.375787 
L 352.518919 299.669306 
L 357.523604 300.933869 
L 362.885766 302.048184 
L 368.962883 303.069056 
L 375.754955 303.970515 
L 383.261982 304.741169 
L 392.198919 305.429035 
L 402.923243 306.019892 
L 414.72 306.468461 
L 414.72 306.468461 
" clip-path="url(#p727147c9de)" style="fill: none; stroke: #9467bd; stroke-width: 1.5; stroke-linecap: square"/>
   </g>
   <g id="line2d_32">
    <path d="M 57.6 307.584 
L 96.207568 307.467738 
L 106.931892 307.221474 
L 114.081441 306.849771 
L 119.801081 306.33009 
L 124.448288 305.683621 
L 128.380541 304.918018 
L 131.955315 303.995417 
L 135.172613 302.93508 
L 138.032432 301.772017 
L 140.892252 300.364491 
L 143.394595 298.901776 
L 145.896937 297.193888 
L 148.399279 295.21098 
L 150.901622 292.921848 
L 153.403964 290.294337 
L 155.906306 287.295859 
L 158.408649 283.893998 
L 160.910991 280.057238 
L 163.413333 275.755772 
L 165.915676 270.962413 
L 168.418018 265.653573 
L 170.92036 259.8103 
L 173.422703 253.419344 
L 176.282523 245.436807 
L 179.142342 236.733678 
L 182.002162 227.328103 
L 185.219459 215.951437 
L 188.794234 202.415541 
L 192.726486 186.613776 
L 197.731171 165.535766 
L 208.812973 118.547601 
L 212.387748 104.507421 
L 215.247568 94.074032 
L 217.74991 85.676461 
L 220.252252 78.078213 
L 222.397117 72.280017 
L 224.184505 67.997542 
L 225.971892 64.247452 
L 227.759279 61.056994 
L 229.189189 58.923428 
L 230.619099 57.17318 
L 232.049009 55.814575 
L 233.121441 55.056613 
L 234.193874 54.524682 
L 235.266306 54.220218 
L 236.338739 54.144045 
L 237.411171 54.296368 
L 238.483604 54.676776 
L 239.556036 55.284241 
L 240.628468 56.117123 
L 242.058378 57.574319 
L 243.488288 59.421248 
L 244.918198 61.649134 
L 246.348108 64.247452 
L 248.135495 67.997542 
L 249.922883 72.280017 
L 252.067748 78.078213 
L 254.212613 84.539559 
L 256.714955 92.829576 
L 259.574775 103.159974 
L 262.792072 115.665673 
L 266.724324 131.86376 
L 274.231351 164.004602 
L 280.308468 189.54735 
L 284.240721 205.191884 
L 287.815495 218.549057 
L 291.032793 229.743739 
L 293.892613 238.9763 
L 296.752432 247.500358 
L 299.612252 255.301732 
L 302.114595 261.535231 
L 304.616937 267.224188 
L 307.119279 272.383591 
L 309.621622 277.033825 
L 312.123964 281.199612 
L 314.626306 284.908982 
L 317.128649 288.192321 
L 319.630991 291.081481 
L 322.133333 293.608995 
L 324.635676 295.807386 
L 327.138018 297.708585 
L 329.64036 299.343446 
L 332.50018 300.923364 
L 335.36 302.234827 
L 338.21982 303.31557 
L 341.437117 304.298045 
L 345.011892 305.150193 
L 348.944144 305.854875 
L 353.591351 306.447569 
L 358.953514 306.898539 
L 365.745586 307.234422 
L 375.04 307.45316 
L 390.411532 307.562419 
L 414.72 307.584 
L 414.72 307.584 
" clip-path="url(#p727147c9de)" style="fill: none; stroke: #8c564b; stroke-width: 1.5; stroke-linecap: square"/>
   </g>
   <g id="patch_3">
    <path d="M 57.6 307.584 
L 57.6 41.472 
" style="fill: none; stroke: #000000; stroke-width: 0.8; stroke-linejoin: miter; stroke-linecap: square"/>
   </g>
   <g id="patch_4">
    <path d="M 414.72 307.584 
L 414.72 41.472 
" style="fill: none; stroke: #000000; stroke-width: 0.8; stroke-linejoin: miter; stroke-linecap: square"/>
   </g>
   <g id="patch_5">
    <path d="M 57.6 307.584 
L 414.72 307.584 
" style="fill: none; stroke: #000000; stroke-width: 0.8; stroke-linejoin: miter; stroke-linecap: square"/>
   </g>
   <g id="patch_6">
    <path d="M 57.6 41.472 
L 414.72 41.472 
" style="fill: none; stroke: #000000; stroke-width: 0.8; stroke-linejoin: miter; stroke-linecap: square"/>
   </g>
   <g id="text_16">
    <!-- T-distribution -->
    <g transform="translate(196.686563 35.472) scale(0.12 -0.12)">
     <defs>
      <path id="DejaVuSans-54" d="M -19 4666 
L 3928 4666 
L 3928 4134 
L 2272 4134 
L 2272 0 
L 1638 0 
L 1638 4134 
L -19 4134 
L -19 4666 
z
" transform="scale(0.015625)"/>
      <path id="DejaVuSans-2d" d="M 313 2009 
L 1997 2009 
L 1997 1497 
L 313 1497 
L 313 2009 
z
" transform="scale(0.015625)"/>
      <path id="DejaVuSans-75" d="M 544 1381 
L 544 3500 
L 1119 3500 
L 1119 1403 
Q 1119 906 1312 657 
Q 1506 409 1894 409 
Q 2359 409 2629 706 
Q 2900 1003 2900 1516 
L 2900 3500 
L 3475 3500 
L 3475 0 
L 2900 0 
L 2900 538 
Q 2691 219 2414 64 
Q 2138 -91 1772 -91 
Q 1169 -91 856 284 
Q 544 659 544 1381 
z
M 1991 3584 
L 1991 3584 
z
" transform="scale(0.015625)"/>
     </defs>
     <use xlink:href="#DejaVuSans-54"/>
     <use xlink:href="#DejaVuSans-2d" x="51.958984"/>
     <use xlink:href="#DejaVuSans-64" x="88.042969"/>
     <use xlink:href="#DejaVuSans-69" x="151.519531"/>
     <use xlink:href="#DejaVuSans-73" x="179.302734"/>
     <use xlink:href="#DejaVuSans-74" x="231.402344"/>
     <use xlink:href="#DejaVuSans-72" x="270.611328"/>
     <use xlink:href="#DejaVuSans-69" x="311.724609"/>
     <use xlink:href="#DejaVuSans-62" x="339.507812"/>
     <use xlink:href="#DejaVuSans-75" x="402.984375"/>
     <use xlink:href="#DejaVuSans-74" x="466.363281"/>
     <use xlink:href="#DejaVuSans-69" x="505.572266"/>
     <use xlink:href="#DejaVuSans-6f" x="533.355469"/>
     <use xlink:href="#DejaVuSans-6e" x="594.537109"/>
    </g>
   </g>
   <g id="legend_1">
    <g id="patch_7">
     <path d="M 332.405938 137.54075 
L 407.72 137.54075 
Q 409.72 137.54075 409.72 135.54075 
L 409.72 48.472 
Q 409.72 46.472 407.72 46.472 
L 332.405938 46.472 
Q 330.405938 46.472 330.405938 48.472 
L 330.405938 135.54075 
Q 330.405938 137.54075 332.405938 137.54075 
z
" style="fill: #ffffff; opacity: 0.8; stroke: #cccccc; stroke-linejoin: miter"/>
    </g>
    <g id="line2d_33">
     <path d="M 334.405938 54.570438 
L 344.405938 54.570438 
L 354.405938 54.570438 
" style="fill: none; stroke: #1f77b4; stroke-width: 1.5; stroke-linecap: square"/>
    </g>
    <g id="text_17">
     <!-- nu = 0.1 -->
     <g transform="translate(362.405938 58.070438) scale(0.1 -0.1)">
      <defs>
       <path id="DejaVuSans-3d" d="M 678 2906 
L 4684 2906 
L 4684 2381 
L 678 2381 
L 678 2906 
z
M 678 1631 
L 4684 1631 
L 4684 1100 
L 678 1100 
L 678 1631 
z
" transform="scale(0.015625)"/>
      </defs>
      <use xlink:href="#DejaVuSans-6e"/>
      <use xlink:href="#DejaVuSans-75" x="63.378906"/>
      <use xlink:href="#DejaVuSans-20" x="126.757812"/>
      <use xlink:href="#DejaVuSans-3d" x="158.544922"/>
      <use xlink:href="#DejaVuSans-20" x="242.333984"/>
      <use xlink:href="#DejaVuSans-30" x="274.121094"/>
      <use xlink:href="#DejaVuSans-2e" x="337.744141"/>
      <use xlink:href="#DejaVuSans-31" x="369.53125"/>
     </g>
    </g>
    <g id="line2d_34">
     <path d="M 334.405938 69.248563 
L 344.405938 69.248563 
L 354.405938 69.248563 
" style="fill: none; stroke: #ff7f0e; stroke-width: 1.5; stroke-linecap: square"/>
    </g>
    <g id="text_18">
     <!-- nu = 0.5 -->
     <g transform="translate(362.405938 72.748563) scale(0.1 -0.1)">
      <use xlink:href="#DejaVuSans-6e"/>
      <use xlink:href="#DejaVuSans-75" x="63.378906"/>
      <use xlink:href="#DejaVuSans-20" x="126.757812"/>
      <use xlink:href="#DejaVuSans-3d" x="158.544922"/>
      <use xlink:href="#DejaVuSans-20" x="242.333984"/>
      <use xlink:href="#DejaVuSans-30" x="274.121094"/>
      <use xlink:href="#DejaVuSans-2e" x="337.744141"/>
      <use xlink:href="#DejaVuSans-35" x="369.53125"/>
     </g>
    </g>
    <g id="line2d_35">
     <path d="M 334.405938 83.926688 
L 344.405938 83.926688 
L 354.405938 83.926688 
" style="fill: none; stroke: #2ca02c; stroke-width: 1.5; stroke-linecap: square"/>
    </g>
    <g id="text_19">
     <!-- nu = 1 -->
     <g transform="translate(362.405938 87.426688) scale(0.1 -0.1)">
      <use xlink:href="#DejaVuSans-6e"/>
      <use xlink:href="#DejaVuSans-75" x="63.378906"/>
      <use xlink:href="#DejaVuSans-20" x="126.757812"/>
      <use xlink:href="#DejaVuSans-3d" x="158.544922"/>
      <use xlink:href="#DejaVuSans-20" x="242.333984"/>
      <use xlink:href="#DejaVuSans-31" x="274.121094"/>
     </g>
    </g>
    <g id="line2d_36">
     <path d="M 334.405938 98.604813 
L 344.405938 98.604813 
L 354.405938 98.604813 
" style="fill: none; stroke: #d62728; stroke-width: 1.5; stroke-linecap: square"/>
    </g>
    <g id="text_20">
     <!-- nu = 2 -->
     <g transform="translate(362.405938 102.104813) scale(0.1 -0.1)">
      <use xlink:href="#DejaVuSans-6e"/>
      <use xlink:href="#DejaVuSans-75" x="63.378906"/>
      <use xlink:href="#DejaVuSans-20" x="126.757812"/>
      <use xlink:href="#DejaVuSans-3d" x="158.544922"/>
      <use xlink:href="#DejaVuSans-20" x="242.333984"/>
      <use xlink:href="#DejaVuSans-32" x="274.121094"/>
     </g>
    </g>
    <g id="line2d_37">
     <path d="M 334.405938 113.282938 
L 344.405938 113.282938 
L 354.405938 113.282938 
" style="fill: none; stroke: #9467bd; stroke-width: 1.5; stroke-linecap: square"/>
    </g>
    <g id="text_21">
     <!-- nu = 5 -->
     <g transform="translate(362.405938 116.782938) scale(0.1 -0.1)">
      <use xlink:href="#DejaVuSans-6e"/>
      <use xlink:href="#DejaVuSans-75" x="63.378906"/>
      <use xlink:href="#DejaVuSans-20" x="126.757812"/>
      <use xlink:href="#DejaVuSans-3d" x="158.544922"/>
      <use xlink:href="#DejaVuSans-20" x="242.333984"/>
      <use xlink:href="#DejaVuSans-35" x="274.121094"/>
     </g>
    </g>
    <g id="line2d_38">
     <path d="M 334.405938 127.961063 
L 344.405938 127.961063 
L 354.405938 127.961063 
" style="fill: none; stroke: #8c564b; stroke-width: 1.5; stroke-linecap: square"/>
    </g>
    <g id="text_22">
     <!-- nu = inf -->
     <g transform="translate(362.405938 131.461063) scale(0.1 -0.1)">
      <defs>
       <path id="DejaVuSans-66" d="M 2375 4863 
L 2375 4384 
L 1825 4384 
Q 1516 4384 1395 4259 
Q 1275 4134 1275 3809 
L 1275 3500 
L 2222 3500 
L 2222 3053 
L 1275 3053 
L 1275 0 
L 697 0 
L 697 3053 
L 147 3053 
L 147 3500 
L 697 3500 
L 697 3744 
Q 697 4328 969 4595 
Q 1241 4863 1831 4863 
L 2375 4863 
z
" transform="scale(0.015625)"/>
      </defs>
      <use xlink:href="#DejaVuSans-6e"/>
      <use xlink:href="#DejaVuSans-75" x="63.378906"/>
      <use xlink:href="#DejaVuSans-20" x="126.757812"/>
      <use xlink:href="#DejaVuSans-3d" x="158.544922"/>
      <use xlink:href="#DejaVuSans-20" x="242.333984"/>
      <use xlink:href="#DejaVuSans-69" x="274.121094"/>
      <use xlink:href="#DejaVuSans-6e" x="301.904297"/>
      <use xlink:href="#DejaVuSans-66" x="365.283203"/>
     </g>
    </g>
   </g>
  </g>
 </g>
 <defs>
  <clipPath id="p727147c9de">
   <rect x="57.6" y="41.472" width="357.12" height="266.112"/>
  </clipPath>
 </defs>
</svg>
