<?xml version="1.0" encoding="utf-8" standalone="no"?>
<!DOCTYPE svg PUBLIC "-//W3C//DTD SVG 1.1//EN"
  "http://www.w3.org/Graphics/SVG/1.1/DTD/svg11.dtd">
<svg xmlns:xlink="http://www.w3.org/1999/xlink" width="460.8pt" height="345.6pt" viewBox="0 0 460.8 345.6" xmlns="http://www.w3.org/2000/svg" version="1.1">
 <metadata>
  <rdf:RDF xmlns:dc="http://purl.org/dc/elements/1.1/" xmlns:cc="http://creativecommons.org/ns#" xmlns:rdf="http://www.w3.org/1999/02/22-rdf-syntax-ns#">
   <cc:Work>
    <dc:type rdf:resource="http://purl.org/dc/dcmitype/StillImage"/>
    <dc:date>2024-05-03T20:15:48.301079</dc:date>
    <dc:format>image/svg+xml</dc:format>
    <dc:creator>
     <cc:Agent>
      <dc:title>Matplotlib v3.8.4, https://matplotlib.org/</dc:title>
     </cc:Agent>
    </dc:creator>
   </cc:Work>
  </rdf:RDF>
 </metadata>
 <defs>
  <style type="text/css">*{stroke-linejoin: round; stroke-linecap: butt}</style>
 </defs>
 <g id="figure_1">
  <g id="patch_1">
   <path d="M 0 345.6 
L 460.8 345.6 
L 460.8 0 
L 0 0 
z
" style="fill: #ffffff"/>
  </g>
  <g id="axes_1">
   <g id="patch_2">
    <path d="M 57.6 307.584 
L 414.72 307.584 
L 414.72 41.472 
L 57.6 41.472 
z
" style="fill: #ffffff"/>
   </g>
   <g id="matplotlib.axis_1">
    <g id="xtick_1">
     <g id="line2d_1">
      <path d="M 57.6 307.584 
L 57.6 41.472 
" clip-path="url(#p593ba66f39)" style="fill: none; stroke: #b0b0b0; stroke-width: 0.8; stroke-linecap: square"/>
     </g>
     <g id="line2d_2">
      <defs>
       <path id="m95b77cfcf1" d="M 0 0 
L 0 3.5 
" style="stroke: #000000; stroke-width: 0.8"/>
      </defs>
      <g>
       <use xlink:href="#m95b77cfcf1" x="57.6" y="307.584" style="stroke: #000000; stroke-width: 0.8"/>
      </g>
     </g>
     <g id="text_1">
      <!-- 0.0 -->
      <g transform="translate(49.648438 322.182437) scale(0.1 -0.1)">
       <defs>
        <path id="DejaVuSans-30" d="M 2034 4250 
Q 1547 4250 1301 3770 
Q 1056 3291 1056 2328 
Q 1056 1369 1301 889 
Q 1547 409 2034 409 
Q 2525 409 2770 889 
Q 3016 1369 3016 2328 
Q 3016 3291 2770 3770 
Q 2525 4250 2034 4250 
z
M 2034 4750 
Q 2819 4750 3233 4129 
Q 3647 3509 3647 2328 
Q 3647 1150 3233 529 
Q 2819 -91 2034 -91 
Q 1250 -91 836 529 
Q 422 1150 422 2328 
Q 422 3509 836 4129 
Q 1250 4750 2034 4750 
z
" transform="scale(0.015625)"/>
        <path id="DejaVuSans-2e" d="M 684 794 
L 1344 794 
L 1344 0 
L 684 0 
L 684 794 
z
" transform="scale(0.015625)"/>
       </defs>
       <use xlink:href="#DejaVuSans-30"/>
       <use xlink:href="#DejaVuSans-2e" x="63.623047"/>
       <use xlink:href="#DejaVuSans-30" x="95.410156"/>
      </g>
     </g>
    </g>
    <g id="xtick_2">
     <g id="line2d_3">
      <path d="M 117.12 307.584 
L 117.12 41.472 
" clip-path="url(#p593ba66f39)" style="fill: none; stroke: #b0b0b0; stroke-width: 0.8; stroke-linecap: square"/>
     </g>
     <g id="line2d_4">
      <g>
       <use xlink:href="#m95b77cfcf1" x="117.12" y="307.584" style="stroke: #000000; stroke-width: 0.8"/>
      </g>
     </g>
     <g id="text_2">
      <!-- 0.5 -->
      <g transform="translate(109.168438 322.182437) scale(0.1 -0.1)">
       <defs>
        <path id="DejaVuSans-35" d="M 691 4666 
L 3169 4666 
L 3169 4134 
L 1269 4134 
L 1269 2991 
Q 1406 3038 1543 3061 
Q 1681 3084 1819 3084 
Q 2600 3084 3056 2656 
Q 3513 2228 3513 1497 
Q 3513 744 3044 326 
Q 2575 -91 1722 -91 
Q 1428 -91 1123 -41 
Q 819 9 494 109 
L 494 744 
Q 775 591 1075 516 
Q 1375 441 1709 441 
Q 2250 441 2565 725 
Q 2881 1009 2881 1497 
Q 2881 1984 2565 2268 
Q 2250 2553 1709 2553 
Q 1456 2553 1204 2497 
Q 953 2441 691 2322 
L 691 4666 
z
" transform="scale(0.015625)"/>
       </defs>
       <use xlink:href="#DejaVuSans-30"/>
       <use xlink:href="#DejaVuSans-2e" x="63.623047"/>
       <use xlink:href="#DejaVuSans-35" x="95.410156"/>
      </g>
     </g>
    </g>
    <g id="xtick_3">
     <g id="line2d_5">
      <path d="M 176.64 307.584 
L 176.64 41.472 
" clip-path="url(#p593ba66f39)" style="fill: none; stroke: #b0b0b0; stroke-width: 0.8; stroke-linecap: square"/>
     </g>
     <g id="line2d_6">
      <g>
       <use xlink:href="#m95b77cfcf1" x="176.64" y="307.584" style="stroke: #000000; stroke-width: 0.8"/>
      </g>
     </g>
     <g id="text_3">
      <!-- 1.0 -->
      <g transform="translate(168.688437 322.182437) scale(0.1 -0.1)">
       <defs>
        <path id="DejaVuSans-31" d="M 794 531 
L 1825 531 
L 1825 4091 
L 703 3866 
L 703 4441 
L 1819 4666 
L 2450 4666 
L 2450 531 
L 3481 531 
L 3481 0 
L 794 0 
L 794 531 
z
" transform="scale(0.015625)"/>
       </defs>
       <use xlink:href="#DejaVuSans-31"/>
       <use xlink:href="#DejaVuSans-2e" x="63.623047"/>
       <use xlink:href="#DejaVuSans-30" x="95.410156"/>
      </g>
     </g>
    </g>
    <g id="xtick_4">
     <g id="line2d_7">
      <path d="M 236.16 307.584 
L 236.16 41.472 
" clip-path="url(#p593ba66f39)" style="fill: none; stroke: #b0b0b0; stroke-width: 0.8; stroke-linecap: square"/>
     </g>
     <g id="line2d_8">
      <g>
       <use xlink:href="#m95b77cfcf1" x="236.16" y="307.584" style="stroke: #000000; stroke-width: 0.8"/>
      </g>
     </g>
     <g id="text_4">
      <!-- 1.5 -->
      <g transform="translate(228.208438 322.182437) scale(0.1 -0.1)">
       <use xlink:href="#DejaVuSans-31"/>
       <use xlink:href="#DejaVuSans-2e" x="63.623047"/>
       <use xlink:href="#DejaVuSans-35" x="95.410156"/>
      </g>
     </g>
    </g>
    <g id="xtick_5">
     <g id="line2d_9">
      <path d="M 295.68 307.584 
L 295.68 41.472 
" clip-path="url(#p593ba66f39)" style="fill: none; stroke: #b0b0b0; stroke-width: 0.8; stroke-linecap: square"/>
     </g>
     <g id="line2d_10">
      <g>
       <use xlink:href="#m95b77cfcf1" x="295.68" y="307.584" style="stroke: #000000; stroke-width: 0.8"/>
      </g>
     </g>
     <g id="text_5">
      <!-- 2.0 -->
      <g transform="translate(287.728437 322.182437) scale(0.1 -0.1)">
       <defs>
        <path id="DejaVuSans-32" d="M 1228 531 
L 3431 531 
L 3431 0 
L 469 0 
L 469 531 
Q 828 903 1448 1529 
Q 2069 2156 2228 2338 
Q 2531 2678 2651 2914 
Q 2772 3150 2772 3378 
Q 2772 3750 2511 3984 
Q 2250 4219 1831 4219 
Q 1534 4219 1204 4116 
Q 875 4013 500 3803 
L 500 4441 
Q 881 4594 1212 4672 
Q 1544 4750 1819 4750 
Q 2544 4750 2975 4387 
Q 3406 4025 3406 3419 
Q 3406 3131 3298 2873 
Q 3191 2616 2906 2266 
Q 2828 2175 2409 1742 
Q 1991 1309 1228 531 
z
" transform="scale(0.015625)"/>
       </defs>
       <use xlink:href="#DejaVuSans-32"/>
       <use xlink:href="#DejaVuSans-2e" x="63.623047"/>
       <use xlink:href="#DejaVuSans-30" x="95.410156"/>
      </g>
     </g>
    </g>
    <g id="xtick_6">
     <g id="line2d_11">
      <path d="M 355.2 307.584 
L 355.2 41.472 
" clip-path="url(#p593ba66f39)" style="fill: none; stroke: #b0b0b0; stroke-width: 0.8; stroke-linecap: square"/>
     </g>
     <g id="line2d_12">
      <g>
       <use xlink:href="#m95b77cfcf1" x="355.2" y="307.584" style="stroke: #000000; stroke-width: 0.8"/>
      </g>
     </g>
     <g id="text_6">
      <!-- 2.5 -->
      <g transform="translate(347.248437 322.182437) scale(0.1 -0.1)">
       <use xlink:href="#DejaVuSans-32"/>
       <use xlink:href="#DejaVuSans-2e" x="63.623047"/>
       <use xlink:href="#DejaVuSans-35" x="95.410156"/>
      </g>
     </g>
    </g>
    <g id="xtick_7">
     <g id="line2d_13">
      <path d="M 414.72 307.584 
L 414.72 41.472 
" clip-path="url(#p593ba66f39)" style="fill: none; stroke: #b0b0b0; stroke-width: 0.8; stroke-linecap: square"/>
     </g>
     <g id="line2d_14">
      <g>
       <use xlink:href="#m95b77cfcf1" x="414.72" y="307.584" style="stroke: #000000; stroke-width: 0.8"/>
      </g>
     </g>
     <g id="text_7">
      <!-- 3.0 -->
      <g transform="translate(406.768438 322.182437) scale(0.1 -0.1)">
       <defs>
        <path id="DejaVuSans-33" d="M 2597 2516 
Q 3050 2419 3304 2112 
Q 3559 1806 3559 1356 
Q 3559 666 3084 287 
Q 2609 -91 1734 -91 
Q 1441 -91 1130 -33 
Q 819 25 488 141 
L 488 750 
Q 750 597 1062 519 
Q 1375 441 1716 441 
Q 2309 441 2620 675 
Q 2931 909 2931 1356 
Q 2931 1769 2642 2001 
Q 2353 2234 1838 2234 
L 1294 2234 
L 1294 2753 
L 1863 2753 
Q 2328 2753 2575 2939 
Q 2822 3125 2822 3475 
Q 2822 3834 2567 4026 
Q 2313 4219 1838 4219 
Q 1578 4219 1281 4162 
Q 984 4106 628 3988 
L 628 4550 
Q 988 4650 1302 4700 
Q 1616 4750 1894 4750 
Q 2613 4750 3031 4423 
Q 3450 4097 3450 3541 
Q 3450 3153 3228 2886 
Q 3006 2619 2597 2516 
z
" transform="scale(0.015625)"/>
       </defs>
       <use xlink:href="#DejaVuSans-33"/>
       <use xlink:href="#DejaVuSans-2e" x="63.623047"/>
       <use xlink:href="#DejaVuSans-30" x="95.410156"/>
      </g>
     </g>
    </g>
    <g id="text_8">
     <!-- x -->
     <g transform="translate(233.200625 335.860562) scale(0.1 -0.1)">
      <defs>
       <path id="DejaVuSans-78" d="M 3513 3500 
L 2247 1797 
L 3578 0 
L 2900 0 
L 1881 1375 
L 863 0 
L 184 0 
L 1544 1831 
L 300 3500 
L 978 3500 
L 1906 2253 
L 2834 3500 
L 3513 3500 
z
" transform="scale(0.015625)"/>
      </defs>
      <use xlink:href="#DejaVuSans-78"/>
     </g>
    </g>
   </g>
   <g id="matplotlib.axis_2">
    <g id="ytick_1">
     <g id="line2d_15">
      <path d="M 57.6 307.584 
L 414.72 307.584 
" clip-path="url(#p593ba66f39)" style="fill: none; stroke: #b0b0b0; stroke-width: 0.8; stroke-linecap: square"/>
     </g>
     <g id="line2d_16">
      <defs>
       <path id="m5411f75f3f" d="M 0 0 
L -3.5 0 
" style="stroke: #000000; stroke-width: 0.8"/>
      </defs>
      <g>
       <use xlink:href="#m5411f75f3f" x="57.6" y="307.584" style="stroke: #000000; stroke-width: 0.8"/>
      </g>
     </g>
     <g id="text_9">
      <!-- 0.0 -->
      <g transform="translate(34.696875 311.383219) scale(0.1 -0.1)">
       <use xlink:href="#DejaVuSans-30"/>
       <use xlink:href="#DejaVuSans-2e" x="63.623047"/>
       <use xlink:href="#DejaVuSans-30" x="95.410156"/>
      </g>
     </g>
    </g>
    <g id="ytick_2">
     <g id="line2d_17">
      <path d="M 57.6 264.461108 
L 414.72 264.461108 
" clip-path="url(#p593ba66f39)" style="fill: none; stroke: #b0b0b0; stroke-width: 0.8; stroke-linecap: square"/>
     </g>
     <g id="line2d_18">
      <g>
       <use xlink:href="#m5411f75f3f" x="57.6" y="264.461108" style="stroke: #000000; stroke-width: 0.8"/>
      </g>
     </g>
     <g id="text_10">
      <!-- 0.2 -->
      <g transform="translate(34.696875 268.260327) scale(0.1 -0.1)">
       <use xlink:href="#DejaVuSans-30"/>
       <use xlink:href="#DejaVuSans-2e" x="63.623047"/>
       <use xlink:href="#DejaVuSans-32" x="95.410156"/>
      </g>
     </g>
    </g>
    <g id="ytick_3">
     <g id="line2d_19">
      <path d="M 57.6 221.338217 
L 414.72 221.338217 
" clip-path="url(#p593ba66f39)" style="fill: none; stroke: #b0b0b0; stroke-width: 0.8; stroke-linecap: square"/>
     </g>
     <g id="line2d_20">
      <g>
       <use xlink:href="#m5411f75f3f" x="57.6" y="221.338217" style="stroke: #000000; stroke-width: 0.8"/>
      </g>
     </g>
     <g id="text_11">
      <!-- 0.4 -->
      <g transform="translate(34.696875 225.137435) scale(0.1 -0.1)">
       <defs>
        <path id="DejaVuSans-34" d="M 2419 4116 
L 825 1625 
L 2419 1625 
L 2419 4116 
z
M 2253 4666 
L 3047 4666 
L 3047 1625 
L 3713 1625 
L 3713 1100 
L 3047 1100 
L 3047 0 
L 2419 0 
L 2419 1100 
L 313 1100 
L 313 1709 
L 2253 4666 
z
" transform="scale(0.015625)"/>
       </defs>
       <use xlink:href="#DejaVuSans-30"/>
       <use xlink:href="#DejaVuSans-2e" x="63.623047"/>
       <use xlink:href="#DejaVuSans-34" x="95.410156"/>
      </g>
     </g>
    </g>
    <g id="ytick_4">
     <g id="line2d_21">
      <path d="M 57.6 178.215325 
L 414.72 178.215325 
" clip-path="url(#p593ba66f39)" style="fill: none; stroke: #b0b0b0; stroke-width: 0.8; stroke-linecap: square"/>
     </g>
     <g id="line2d_22">
      <g>
       <use xlink:href="#m5411f75f3f" x="57.6" y="178.215325" style="stroke: #000000; stroke-width: 0.8"/>
      </g>
     </g>
     <g id="text_12">
      <!-- 0.6 -->
      <g transform="translate(34.696875 182.014544) scale(0.1 -0.1)">
       <defs>
        <path id="DejaVuSans-36" d="M 2113 2584 
Q 1688 2584 1439 2293 
Q 1191 2003 1191 1497 
Q 1191 994 1439 701 
Q 1688 409 2113 409 
Q 2538 409 2786 701 
Q 3034 994 3034 1497 
Q 3034 2003 2786 2293 
Q 2538 2584 2113 2584 
z
M 3366 4563 
L 3366 3988 
Q 3128 4100 2886 4159 
Q 2644 4219 2406 4219 
Q 1781 4219 1451 3797 
Q 1122 3375 1075 2522 
Q 1259 2794 1537 2939 
Q 1816 3084 2150 3084 
Q 2853 3084 3261 2657 
Q 3669 2231 3669 1497 
Q 3669 778 3244 343 
Q 2819 -91 2113 -91 
Q 1303 -91 875 529 
Q 447 1150 447 2328 
Q 447 3434 972 4092 
Q 1497 4750 2381 4750 
Q 2619 4750 2861 4703 
Q 3103 4656 3366 4563 
z
" transform="scale(0.015625)"/>
       </defs>
       <use xlink:href="#DejaVuSans-30"/>
       <use xlink:href="#DejaVuSans-2e" x="63.623047"/>
       <use xlink:href="#DejaVuSans-36" x="95.410156"/>
      </g>
     </g>
    </g>
    <g id="ytick_5">
     <g id="line2d_23">
      <path d="M 57.6 135.092433 
L 414.72 135.092433 
" clip-path="url(#p593ba66f39)" style="fill: none; stroke: #b0b0b0; stroke-width: 0.8; stroke-linecap: square"/>
     </g>
     <g id="line2d_24">
      <g>
       <use xlink:href="#m5411f75f3f" x="57.6" y="135.092433" style="stroke: #000000; stroke-width: 0.8"/>
      </g>
     </g>
     <g id="text_13">
      <!-- 0.8 -->
      <g transform="translate(34.696875 138.891652) scale(0.1 -0.1)">
       <defs>
        <path id="DejaVuSans-38" d="M 2034 2216 
Q 1584 2216 1326 1975 
Q 1069 1734 1069 1313 
Q 1069 891 1326 650 
Q 1584 409 2034 409 
Q 2484 409 2743 651 
Q 3003 894 3003 1313 
Q 3003 1734 2745 1975 
Q 2488 2216 2034 2216 
z
M 1403 2484 
Q 997 2584 770 2862 
Q 544 3141 544 3541 
Q 544 4100 942 4425 
Q 1341 4750 2034 4750 
Q 2731 4750 3128 4425 
Q 3525 4100 3525 3541 
Q 3525 3141 3298 2862 
Q 3072 2584 2669 2484 
Q 3125 2378 3379 2068 
Q 3634 1759 3634 1313 
Q 3634 634 3220 271 
Q 2806 -91 2034 -91 
Q 1263 -91 848 271 
Q 434 634 434 1313 
Q 434 1759 690 2068 
Q 947 2378 1403 2484 
z
M 1172 3481 
Q 1172 3119 1398 2916 
Q 1625 2713 2034 2713 
Q 2441 2713 2670 2916 
Q 2900 3119 2900 3481 
Q 2900 3844 2670 4047 
Q 2441 4250 2034 4250 
Q 1625 4250 1398 4047 
Q 1172 3844 1172 3481 
z
" transform="scale(0.015625)"/>
       </defs>
       <use xlink:href="#DejaVuSans-30"/>
       <use xlink:href="#DejaVuSans-2e" x="63.623047"/>
       <use xlink:href="#DejaVuSans-38" x="95.410156"/>
      </g>
     </g>
    </g>
    <g id="ytick_6">
     <g id="line2d_25">
      <path d="M 57.6 91.969542 
L 414.72 91.969542 
" clip-path="url(#p593ba66f39)" style="fill: none; stroke: #b0b0b0; stroke-width: 0.8; stroke-linecap: square"/>
     </g>
     <g id="line2d_26">
      <g>
       <use xlink:href="#m5411f75f3f" x="57.6" y="91.969542" style="stroke: #000000; stroke-width: 0.8"/>
      </g>
     </g>
     <g id="text_14">
      <!-- 1.0 -->
      <g transform="translate(34.696875 95.768761) scale(0.1 -0.1)">
       <use xlink:href="#DejaVuSans-31"/>
       <use xlink:href="#DejaVuSans-2e" x="63.623047"/>
       <use xlink:href="#DejaVuSans-30" x="95.410156"/>
      </g>
     </g>
    </g>
    <g id="ytick_7">
     <g id="line2d_27">
      <path d="M 57.6 48.84665 
L 414.72 48.84665 
" clip-path="url(#p593ba66f39)" style="fill: none; stroke: #b0b0b0; stroke-width: 0.8; stroke-linecap: square"/>
     </g>
     <g id="line2d_28">
      <g>
       <use xlink:href="#m5411f75f3f" x="57.6" y="48.84665" style="stroke: #000000; stroke-width: 0.8"/>
      </g>
     </g>
     <g id="text_15">
      <!-- 1.2 -->
      <g transform="translate(34.696875 52.645869) scale(0.1 -0.1)">
       <use xlink:href="#DejaVuSans-31"/>
       <use xlink:href="#DejaVuSans-2e" x="63.623047"/>
       <use xlink:href="#DejaVuSans-32" x="95.410156"/>
      </g>
     </g>
    </g>
    <g id="text_16">
     <!-- Probability density -->
     <g transform="translate(28.617187 220.878781) rotate(-90) scale(0.1 -0.1)">
      <defs>
       <path id="DejaVuSans-50" d="M 1259 4147 
L 1259 2394 
L 2053 2394 
Q 2494 2394 2734 2622 
Q 2975 2850 2975 3272 
Q 2975 3691 2734 3919 
Q 2494 4147 2053 4147 
L 1259 4147 
z
M 628 4666 
L 2053 4666 
Q 2838 4666 3239 4311 
Q 3641 3956 3641 3272 
Q 3641 2581 3239 2228 
Q 2838 1875 2053 1875 
L 1259 1875 
L 1259 0 
L 628 0 
L 628 4666 
z
" transform="scale(0.015625)"/>
       <path id="DejaVuSans-72" d="M 2631 2963 
Q 2534 3019 2420 3045 
Q 2306 3072 2169 3072 
Q 1681 3072 1420 2755 
Q 1159 2438 1159 1844 
L 1159 0 
L 581 0 
L 581 3500 
L 1159 3500 
L 1159 2956 
Q 1341 3275 1631 3429 
Q 1922 3584 2338 3584 
Q 2397 3584 2469 3576 
Q 2541 3569 2628 3553 
L 2631 2963 
z
" transform="scale(0.015625)"/>
       <path id="DejaVuSans-6f" d="M 1959 3097 
Q 1497 3097 1228 2736 
Q 959 2375 959 1747 
Q 959 1119 1226 758 
Q 1494 397 1959 397 
Q 2419 397 2687 759 
Q 2956 1122 2956 1747 
Q 2956 2369 2687 2733 
Q 2419 3097 1959 3097 
z
M 1959 3584 
Q 2709 3584 3137 3096 
Q 3566 2609 3566 1747 
Q 3566 888 3137 398 
Q 2709 -91 1959 -91 
Q 1206 -91 779 398 
Q 353 888 353 1747 
Q 353 2609 779 3096 
Q 1206 3584 1959 3584 
z
" transform="scale(0.015625)"/>
       <path id="DejaVuSans-62" d="M 3116 1747 
Q 3116 2381 2855 2742 
Q 2594 3103 2138 3103 
Q 1681 3103 1420 2742 
Q 1159 2381 1159 1747 
Q 1159 1113 1420 752 
Q 1681 391 2138 391 
Q 2594 391 2855 752 
Q 3116 1113 3116 1747 
z
M 1159 2969 
Q 1341 3281 1617 3432 
Q 1894 3584 2278 3584 
Q 2916 3584 3314 3078 
Q 3713 2572 3713 1747 
Q 3713 922 3314 415 
Q 2916 -91 2278 -91 
Q 1894 -91 1617 61 
Q 1341 213 1159 525 
L 1159 0 
L 581 0 
L 581 4863 
L 1159 4863 
L 1159 2969 
z
" transform="scale(0.015625)"/>
       <path id="DejaVuSans-61" d="M 2194 1759 
Q 1497 1759 1228 1600 
Q 959 1441 959 1056 
Q 959 750 1161 570 
Q 1363 391 1709 391 
Q 2188 391 2477 730 
Q 2766 1069 2766 1631 
L 2766 1759 
L 2194 1759 
z
M 3341 1997 
L 3341 0 
L 2766 0 
L 2766 531 
Q 2569 213 2275 61 
Q 1981 -91 1556 -91 
Q 1019 -91 701 211 
Q 384 513 384 1019 
Q 384 1609 779 1909 
Q 1175 2209 1959 2209 
L 2766 2209 
L 2766 2266 
Q 2766 2663 2505 2880 
Q 2244 3097 1772 3097 
Q 1472 3097 1187 3025 
Q 903 2953 641 2809 
L 641 3341 
Q 956 3463 1253 3523 
Q 1550 3584 1831 3584 
Q 2591 3584 2966 3190 
Q 3341 2797 3341 1997 
z
" transform="scale(0.015625)"/>
       <path id="DejaVuSans-69" d="M 603 3500 
L 1178 3500 
L 1178 0 
L 603 0 
L 603 3500 
z
M 603 4863 
L 1178 4863 
L 1178 4134 
L 603 4134 
L 603 4863 
z
" transform="scale(0.015625)"/>
       <path id="DejaVuSans-6c" d="M 603 4863 
L 1178 4863 
L 1178 0 
L 603 0 
L 603 4863 
z
" transform="scale(0.015625)"/>
       <path id="DejaVuSans-74" d="M 1172 4494 
L 1172 3500 
L 2356 3500 
L 2356 3053 
L 1172 3053 
L 1172 1153 
Q 1172 725 1289 603 
Q 1406 481 1766 481 
L 2356 481 
L 2356 0 
L 1766 0 
Q 1100 0 847 248 
Q 594 497 594 1153 
L 594 3053 
L 172 3053 
L 172 3500 
L 594 3500 
L 594 4494 
L 1172 4494 
z
" transform="scale(0.015625)"/>
       <path id="DejaVuSans-79" d="M 2059 -325 
Q 1816 -950 1584 -1140 
Q 1353 -1331 966 -1331 
L 506 -1331 
L 506 -850 
L 844 -850 
Q 1081 -850 1212 -737 
Q 1344 -625 1503 -206 
L 1606 56 
L 191 3500 
L 800 3500 
L 1894 763 
L 2988 3500 
L 3597 3500 
L 2059 -325 
z
" transform="scale(0.015625)"/>
       <path id="DejaVuSans-20" transform="scale(0.015625)"/>
       <path id="DejaVuSans-64" d="M 2906 2969 
L 2906 4863 
L 3481 4863 
L 3481 0 
L 2906 0 
L 2906 525 
Q 2725 213 2448 61 
Q 2172 -91 1784 -91 
Q 1150 -91 751 415 
Q 353 922 353 1747 
Q 353 2572 751 3078 
Q 1150 3584 1784 3584 
Q 2172 3584 2448 3432 
Q 2725 3281 2906 2969 
z
M 947 1747 
Q 947 1113 1208 752 
Q 1469 391 1925 391 
Q 2381 391 2643 752 
Q 2906 1113 2906 1747 
Q 2906 2381 2643 2742 
Q 2381 3103 1925 3103 
Q 1469 3103 1208 2742 
Q 947 2381 947 1747 
z
" transform="scale(0.015625)"/>
       <path id="DejaVuSans-65" d="M 3597 1894 
L 3597 1613 
L 953 1613 
Q 991 1019 1311 708 
Q 1631 397 2203 397 
Q 2534 397 2845 478 
Q 3156 559 3463 722 
L 3463 178 
Q 3153 47 2828 -22 
Q 2503 -91 2169 -91 
Q 1331 -91 842 396 
Q 353 884 353 1716 
Q 353 2575 817 3079 
Q 1281 3584 2069 3584 
Q 2775 3584 3186 3129 
Q 3597 2675 3597 1894 
z
M 3022 2063 
Q 3016 2534 2758 2815 
Q 2500 3097 2075 3097 
Q 1594 3097 1305 2825 
Q 1016 2553 972 2059 
L 3022 2063 
z
" transform="scale(0.015625)"/>
       <path id="DejaVuSans-6e" d="M 3513 2113 
L 3513 0 
L 2938 0 
L 2938 2094 
Q 2938 2591 2744 2837 
Q 2550 3084 2163 3084 
Q 1697 3084 1428 2787 
Q 1159 2491 1159 1978 
L 1159 0 
L 581 0 
L 581 3500 
L 1159 3500 
L 1159 2956 
Q 1366 3272 1645 3428 
Q 1925 3584 2291 3584 
Q 2894 3584 3203 3211 
Q 3513 2838 3513 2113 
z
" transform="scale(0.015625)"/>
       <path id="DejaVuSans-73" d="M 2834 3397 
L 2834 2853 
Q 2591 2978 2328 3040 
Q 2066 3103 1784 3103 
Q 1356 3103 1142 2972 
Q 928 2841 928 2578 
Q 928 2378 1081 2264 
Q 1234 2150 1697 2047 
L 1894 2003 
Q 2506 1872 2764 1633 
Q 3022 1394 3022 966 
Q 3022 478 2636 193 
Q 2250 -91 1575 -91 
Q 1294 -91 989 -36 
Q 684 19 347 128 
L 347 722 
Q 666 556 975 473 
Q 1284 391 1588 391 
Q 1994 391 2212 530 
Q 2431 669 2431 922 
Q 2431 1156 2273 1281 
Q 2116 1406 1581 1522 
L 1381 1569 
Q 847 1681 609 1914 
Q 372 2147 372 2553 
Q 372 3047 722 3315 
Q 1072 3584 1716 3584 
Q 2034 3584 2315 3537 
Q 2597 3491 2834 3397 
z
" transform="scale(0.015625)"/>
      </defs>
      <use xlink:href="#DejaVuSans-50"/>
      <use xlink:href="#DejaVuSans-72" x="58.552734"/>
      <use xlink:href="#DejaVuSans-6f" x="97.416016"/>
      <use xlink:href="#DejaVuSans-62" x="158.597656"/>
      <use xlink:href="#DejaVuSans-61" x="222.074219"/>
      <use xlink:href="#DejaVuSans-62" x="283.353516"/>
      <use xlink:href="#DejaVuSans-69" x="346.830078"/>
      <use xlink:href="#DejaVuSans-6c" x="374.613281"/>
      <use xlink:href="#DejaVuSans-69" x="402.396484"/>
      <use xlink:href="#DejaVuSans-74" x="430.179688"/>
      <use xlink:href="#DejaVuSans-79" x="469.388672"/>
      <use xlink:href="#DejaVuSans-20" x="528.568359"/>
      <use xlink:href="#DejaVuSans-64" x="560.355469"/>
      <use xlink:href="#DejaVuSans-65" x="623.832031"/>
      <use xlink:href="#DejaVuSans-6e" x="685.355469"/>
      <use xlink:href="#DejaVuSans-73" x="748.734375"/>
      <use xlink:href="#DejaVuSans-69" x="800.833984"/>
      <use xlink:href="#DejaVuSans-74" x="828.617188"/>
      <use xlink:href="#DejaVuSans-79" x="867.826172"/>
     </g>
    </g>
   </g>
   <g id="line2d_29">
    <path d="M 57.6 91.969542 
L 63.31964 102.084449 
L 69.039279 111.724846 
L 74.758919 120.912992 
L 80.478559 129.670104 
L 86.198198 138.016402 
L 91.917838 145.971158 
L 97.637477 153.552741 
L 103.357117 160.778657 
L 109.076757 167.66559 
L 115.153874 174.629307 
L 121.230991 181.246441 
L 127.308108 187.534241 
L 133.385225 193.509099 
L 139.462342 199.186589 
L 145.896937 204.890363 
L 152.331532 210.29401 
L 158.766126 215.413323 
L 165.558198 220.525092 
L 172.35027 225.353364 
L 179.142342 229.913861 
L 186.291892 234.441411 
L 193.441441 238.70504 
L 200.948468 242.914629 
L 208.455495 246.866945 
L 216.32 250.748646 
L 224.184505 254.382186 
L 232.406486 257.932757 
L 240.628468 261.246371 
L 249.207928 264.468512 
L 258.144865 267.58689 
L 267.439279 270.590984 
L 277.091171 273.47204 
L 287.100541 276.223035 
L 297.467387 278.838625 
L 308.191712 281.315072 
L 319.630991 283.721917 
L 331.427748 285.973234 
L 343.939459 288.129343 
L 357.166126 290.175208 
L 371.107748 292.09921 
L 385.764324 293.893048 
L 401.493333 295.587643 
L 414.72 296.849188 
L 414.72 296.849188 
" clip-path="url(#p593ba66f39)" style="fill: none; stroke: #1f77b4; stroke-width: 1.5; stroke-linecap: square"/>
   </g>
   <g id="line2d_30">
    <path d="M 57.6 199.776771 
L 69.039279 204.834224 
L 80.836036 209.801354 
L 92.632793 214.528362 
L 104.787027 219.159727 
L 117.298739 223.686655 
L 130.167928 228.101258 
L 143.394595 232.396548 
L 156.621261 236.459718 
L 170.205405 240.404258 
L 184.147027 244.225239 
L 198.803604 248.008071 
L 213.817658 251.649097 
L 229.189189 255.146395 
L 244.918198 258.498782 
L 261.362162 261.774621 
L 278.163604 264.895981 
L 295.68 267.923937 
L 313.911351 270.847598 
L 332.857658 273.657767 
L 352.518919 276.346916 
L 372.895135 278.909151 
L 394.343784 281.379522 
L 414.72 283.528956 
L 414.72 283.528956 
" clip-path="url(#p593ba66f39)" style="fill: none; stroke: #ff7f0e; stroke-width: 1.5; stroke-linecap: square"/>
   </g>
   <g id="line2d_31">
    <path d="M 57.6 235.712514 
L 77.976216 239.698494 
L 98.70991 243.527565 
L 120.158559 247.261544 
L 142.322162 250.891475 
L 165.200721 254.409535 
L 188.794234 257.80903 
L 213.102703 261.084378 
L 238.126126 264.231078 
L 264.221982 267.286033 
L 291.032793 270.20063 
L 318.916036 273.008412 
L 347.871712 275.701196 
L 378.257297 278.301745 
L 409.715315 280.770818 
L 414.72 281.143958 
L 414.72 281.143958 
" clip-path="url(#p593ba66f39)" style="fill: none; stroke: #2ca02c; stroke-width: 1.5; stroke-linecap: square"/>
   </g>
   <g id="line2d_32">
    <path d="M 57.6 307.584 
L 69.396757 265.267228 
L 75.473874 244.278354 
L 80.836036 226.556979 
L 85.483243 211.968041 
L 89.772973 199.245537 
L 93.705225 188.286042 
L 97.28 178.957137 
L 100.854775 170.272207 
L 104.072072 163.033868 
L 107.289369 156.36438 
L 110.149189 150.927012 
L 113.009009 145.961462 
L 115.868829 141.474563 
L 118.371171 137.944764 
L 120.873514 134.786472 
L 123.375856 131.999919 
L 125.878198 129.584032 
L 128.023063 127.806549 
L 130.167928 126.297493 
L 132.312793 125.054026 
L 134.457658 124.072687 
L 136.602523 123.349421 
L 138.747387 122.879604 
L 140.892252 122.658069 
L 143.037117 122.679141 
L 145.181982 122.936662 
L 147.326847 123.424026 
L 149.471712 124.13421 
L 151.616577 125.059811 
L 154.118919 126.401579 
L 156.621261 128.013139 
L 159.123604 129.881139 
L 161.983423 132.312302 
L 164.843243 135.039249 
L 168.060541 138.433707 
L 171.277838 142.143932 
L 174.852613 146.598423 
L 178.784865 151.852089 
L 183.432072 158.462987 
L 188.794234 166.517785 
L 195.228829 176.604233 
L 207.383063 196.181066 
L 217.034955 211.522782 
L 223.827027 221.904714 
L 229.546667 230.264661 
L 234.908829 237.723977 
L 239.913514 244.319871 
L 244.918198 250.538198 
L 249.565405 255.96059 
L 254.212613 261.03704 
L 258.85982 265.765401 
L 263.14955 269.822826 
L 267.439279 273.589836 
L 271.729009 277.073189 
L 276.018739 280.281598 
L 280.308468 283.225392 
L 284.598198 285.916192 
L 289.245405 288.560374 
L 293.892613 290.939413 
L 298.53982 293.070874 
L 303.544505 295.109876 
L 308.549189 296.904669 
L 313.911351 298.581485 
L 319.273514 300.029059 
L 324.993153 301.348384 
L 331.07027 302.526878 
L 337.862342 303.609412 
L 345.011892 304.523131 
L 353.233874 305.339212 
L 362.170811 306.000146 
L 372.537658 306.543071 
L 385.049369 306.970219 
L 401.135856 307.283367 
L 414.72 307.424346 
L 414.72 307.424346 
" clip-path="url(#p593ba66f39)" style="fill: none; stroke: #d62728; stroke-width: 1.5; stroke-linecap: square"/>
   </g>
   <g id="line2d_33">
    <path d="M 57.6 307.584 
L 59.02991 307.490668 
L 60.45982 307.210677 
L 61.88973 306.744051 
L 63.677117 305.898415 
L 65.464505 304.761521 
L 67.251892 303.333826 
L 69.039279 301.616049 
L 70.826667 299.609226 
L 72.971532 296.821517 
L 75.116396 293.622916 
L 77.261261 290.017741 
L 79.406126 286.011486 
L 81.908468 280.839752 
L 84.410811 275.144703 
L 87.270631 268.016196 
L 90.13045 260.254649 
L 93.347748 250.810003 
L 96.565045 240.6676 
L 100.13982 228.664359 
L 104.072072 214.696341 
L 109.076757 196.021844 
L 116.583784 166.964426 
L 124.448288 136.706449 
L 129.095495 119.703778 
L 132.67027 107.400264 
L 135.887568 97.077446 
L 138.747387 88.610955 
L 141.24973 81.823861 
L 143.752072 75.675259 
L 145.896937 70.952565 
L 148.041802 66.766752 
L 149.829189 63.708046 
L 151.616577 61.05448 
L 153.403964 58.818068 
L 154.833874 57.336216 
L 156.263784 56.132285 
L 157.693694 55.209843 
L 159.123604 54.571639 
L 160.553514 54.219585 
L 161.983423 54.15474 
L 163.413333 54.3773 
L 164.843243 54.886588 
L 166.273153 55.681056 
L 167.703063 56.758284 
L 169.132973 58.114985 
L 170.562883 59.747016 
L 172.35027 62.166567 
L 174.137658 64.996937 
L 175.925045 68.224651 
L 178.06991 72.600704 
L 180.214775 77.496995 
L 182.717117 83.822516 
L 185.219459 90.753264 
L 188.079279 99.334923 
L 191.296577 109.712652 
L 195.228829 123.22677 
L 200.233514 141.330432 
L 215.605045 197.641604 
L 219.894775 212.20592 
L 223.46955 223.631419 
L 227.044324 234.311387 
L 230.261622 243.23088 
L 233.478919 251.461747 
L 236.338739 258.186979 
L 239.198559 264.353936 
L 242.058378 269.968981 
L 244.918198 275.045504 
L 247.420541 279.060832 
L 249.922883 282.694796 
L 252.425225 285.965931 
L 254.927568 288.894616 
L 257.42991 291.502569 
L 259.932252 293.812372 
L 262.434595 295.847033 
L 265.294414 297.864992 
L 268.154234 299.587512 
L 271.014054 301.047333 
L 273.873874 302.27563 
L 277.091171 303.417059 
L 280.665946 304.431509 
L 284.598198 305.292985 
L 288.887928 305.990633 
L 293.892613 306.561595 
L 299.612252 306.984595 
L 307.119279 307.299548 
L 317.486126 307.490707 
L 336.432432 307.574693 
L 414.72 307.584 
L 414.72 307.584 
" clip-path="url(#p593ba66f39)" style="fill: none; stroke: #9467bd; stroke-width: 1.5; stroke-linecap: square"/>
   </g>
   <g id="line2d_34">
    <path d="M 57.6 307.584 
L 78.691171 288.632336 
L 89.772973 278.974169 
L 99.067387 271.151699 
L 107.646847 264.218842 
L 115.511351 258.150354 
L 122.660901 252.902216 
L 129.452973 248.176362 
L 136.245045 243.722821 
L 142.67964 239.770003 
L 148.756757 236.286129 
L 154.833874 233.053617 
L 160.910991 230.079945 
L 166.630631 227.523027 
L 172.35027 225.204492 
L 178.06991 223.126954 
L 183.78955 221.291866 
L 189.509189 219.699542 
L 195.228829 218.349182 
L 200.948468 217.238906 
L 206.668108 216.365792 
L 212.387748 215.725924 
L 218.107387 215.31444 
L 223.827027 215.125591 
L 229.546667 215.152802 
L 235.623784 215.410229 
L 241.700901 215.89361 
L 247.778018 216.592491 
L 254.212613 217.554967 
L 261.004685 218.804009 
L 267.796757 220.275573 
L 274.946306 222.045453 
L 282.810811 224.229024 
L 291.032793 226.74679 
L 299.96973 229.718044 
L 309.979099 233.285547 
L 321.775856 237.739827 
L 336.78991 243.665031 
L 383.261982 262.176258 
L 396.846126 267.24979 
L 409.00036 271.555645 
L 414.72 273.495605 
L 414.72 273.495605 
" clip-path="url(#p593ba66f39)" style="fill: none; stroke: #8c564b; stroke-width: 1.5; stroke-linecap: square"/>
   </g>
   <g id="patch_3">
    <path d="M 57.6 307.584 
L 57.6 41.472 
" style="fill: none; stroke: #000000; stroke-width: 0.8; stroke-linejoin: miter; stroke-linecap: square"/>
   </g>
   <g id="patch_4">
    <path d="M 414.72 307.584 
L 414.72 41.472 
" style="fill: none; stroke: #000000; stroke-width: 0.8; stroke-linejoin: miter; stroke-linecap: square"/>
   </g>
   <g id="patch_5">
    <path d="M 57.6 307.584 
L 414.72 307.584 
" style="fill: none; stroke: #000000; stroke-width: 0.8; stroke-linejoin: miter; stroke-linecap: square"/>
   </g>
   <g id="patch_6">
    <path d="M 57.6 41.472 
L 414.72 41.472 
" style="fill: none; stroke: #000000; stroke-width: 0.8; stroke-linejoin: miter; stroke-linecap: square"/>
   </g>
   <g id="text_17">
    <!-- Weibull distribution -->
    <g transform="translate(178.1775 35.472) scale(0.12 -0.12)">
     <defs>
      <path id="DejaVuSans-57" d="M 213 4666 
L 850 4666 
L 1831 722 
L 2809 4666 
L 3519 4666 
L 4500 722 
L 5478 4666 
L 6119 4666 
L 4947 0 
L 4153 0 
L 3169 4050 
L 2175 0 
L 1381 0 
L 213 4666 
z
" transform="scale(0.015625)"/>
      <path id="DejaVuSans-75" d="M 544 1381 
L 544 3500 
L 1119 3500 
L 1119 1403 
Q 1119 906 1312 657 
Q 1506 409 1894 409 
Q 2359 409 2629 706 
Q 2900 1003 2900 1516 
L 2900 3500 
L 3475 3500 
L 3475 0 
L 2900 0 
L 2900 538 
Q 2691 219 2414 64 
Q 2138 -91 1772 -91 
Q 1169 -91 856 284 
Q 544 659 544 1381 
z
M 1991 3584 
L 1991 3584 
z
" transform="scale(0.015625)"/>
     </defs>
     <use xlink:href="#DejaVuSans-57"/>
     <use xlink:href="#DejaVuSans-65" x="93.001953"/>
     <use xlink:href="#DejaVuSans-69" x="154.525391"/>
     <use xlink:href="#DejaVuSans-62" x="182.308594"/>
     <use xlink:href="#DejaVuSans-75" x="245.785156"/>
     <use xlink:href="#DejaVuSans-6c" x="309.164062"/>
     <use xlink:href="#DejaVuSans-6c" x="336.947266"/>
     <use xlink:href="#DejaVuSans-20" x="364.730469"/>
     <use xlink:href="#DejaVuSans-64" x="396.517578"/>
     <use xlink:href="#DejaVuSans-69" x="459.994141"/>
     <use xlink:href="#DejaVuSans-73" x="487.777344"/>
     <use xlink:href="#DejaVuSans-74" x="539.876953"/>
     <use xlink:href="#DejaVuSans-72" x="579.085938"/>
     <use xlink:href="#DejaVuSans-69" x="620.199219"/>
     <use xlink:href="#DejaVuSans-62" x="647.982422"/>
     <use xlink:href="#DejaVuSans-75" x="711.458984"/>
     <use xlink:href="#DejaVuSans-74" x="774.837891"/>
     <use xlink:href="#DejaVuSans-69" x="814.046875"/>
     <use xlink:href="#DejaVuSans-6f" x="841.830078"/>
     <use xlink:href="#DejaVuSans-6e" x="903.011719"/>
    </g>
   </g>
   <g id="legend_1">
    <g id="patch_7">
     <path d="M 315.4575 137.54075 
L 407.72 137.54075 
Q 409.72 137.54075 409.72 135.54075 
L 409.72 48.472 
Q 409.72 46.472 407.72 46.472 
L 315.4575 46.472 
Q 313.4575 46.472 313.4575 48.472 
L 313.4575 135.54075 
Q 313.4575 137.54075 315.4575 137.54075 
z
" style="fill: #ffffff; opacity: 0.8; stroke: #cccccc; stroke-linejoin: miter"/>
    </g>
    <g id="line2d_35">
     <path d="M 317.4575 54.570438 
L 327.4575 54.570438 
L 337.4575 54.570438 
" style="fill: none; stroke: #1f77b4; stroke-width: 1.5; stroke-linecap: square"/>
    </g>
    <g id="text_18">
     <!-- λ = 1, k = 1 -->
     <g transform="translate(345.4575 58.070438) scale(0.1 -0.1)">
      <defs>
       <path id="DejaVuSans-3bb" d="M 1981 4316 
L 3597 0 
L 2988 0 
L 2006 2588 
L 800 0 
L 191 0 
L 1725 3356 
L 1494 3975 
Q 1347 4369 1013 4369 
L 713 4369 
L 713 4863 
L 1078 4856 
Q 1784 4847 1981 4316 
z
" transform="scale(0.015625)"/>
       <path id="DejaVuSans-3d" d="M 678 2906 
L 4684 2906 
L 4684 2381 
L 678 2381 
L 678 2906 
z
M 678 1631 
L 4684 1631 
L 4684 1100 
L 678 1100 
L 678 1631 
z
" transform="scale(0.015625)"/>
       <path id="DejaVuSans-2c" d="M 750 794 
L 1409 794 
L 1409 256 
L 897 -744 
L 494 -744 
L 750 256 
L 750 794 
z
" transform="scale(0.015625)"/>
       <path id="DejaVuSans-6b" d="M 581 4863 
L 1159 4863 
L 1159 1991 
L 2875 3500 
L 3609 3500 
L 1753 1863 
L 3688 0 
L 2938 0 
L 1159 1709 
L 1159 0 
L 581 0 
L 581 4863 
z
" transform="scale(0.015625)"/>
      </defs>
      <use xlink:href="#DejaVuSans-3bb"/>
      <use xlink:href="#DejaVuSans-20" x="59.179688"/>
      <use xlink:href="#DejaVuSans-3d" x="90.966797"/>
      <use xlink:href="#DejaVuSans-20" x="174.755859"/>
      <use xlink:href="#DejaVuSans-31" x="206.542969"/>
      <use xlink:href="#DejaVuSans-2c" x="270.166016"/>
      <use xlink:href="#DejaVuSans-20" x="301.953125"/>
      <use xlink:href="#DejaVuSans-6b" x="333.740234"/>
      <use xlink:href="#DejaVuSans-20" x="391.650391"/>
      <use xlink:href="#DejaVuSans-3d" x="423.4375"/>
      <use xlink:href="#DejaVuSans-20" x="507.226562"/>
      <use xlink:href="#DejaVuSans-31" x="539.013672"/>
     </g>
    </g>
    <g id="line2d_36">
     <path d="M 317.4575 69.248563 
L 327.4575 69.248563 
L 337.4575 69.248563 
" style="fill: none; stroke: #ff7f0e; stroke-width: 1.5; stroke-linecap: square"/>
    </g>
    <g id="text_19">
     <!-- λ = 2, k = 1 -->
     <g transform="translate(345.4575 72.748563) scale(0.1 -0.1)">
      <use xlink:href="#DejaVuSans-3bb"/>
      <use xlink:href="#DejaVuSans-20" x="59.179688"/>
      <use xlink:href="#DejaVuSans-3d" x="90.966797"/>
      <use xlink:href="#DejaVuSans-20" x="174.755859"/>
      <use xlink:href="#DejaVuSans-32" x="206.542969"/>
      <use xlink:href="#DejaVuSans-2c" x="270.166016"/>
      <use xlink:href="#DejaVuSans-20" x="301.953125"/>
      <use xlink:href="#DejaVuSans-6b" x="333.740234"/>
      <use xlink:href="#DejaVuSans-20" x="391.650391"/>
      <use xlink:href="#DejaVuSans-3d" x="423.4375"/>
      <use xlink:href="#DejaVuSans-20" x="507.226562"/>
      <use xlink:href="#DejaVuSans-31" x="539.013672"/>
     </g>
    </g>
    <g id="line2d_37">
     <path d="M 317.4575 83.926688 
L 327.4575 83.926688 
L 337.4575 83.926688 
" style="fill: none; stroke: #2ca02c; stroke-width: 1.5; stroke-linecap: square"/>
    </g>
    <g id="text_20">
     <!-- λ = 3, k = 1 -->
     <g transform="translate(345.4575 87.426688) scale(0.1 -0.1)">
      <use xlink:href="#DejaVuSans-3bb"/>
      <use xlink:href="#DejaVuSans-20" x="59.179688"/>
      <use xlink:href="#DejaVuSans-3d" x="90.966797"/>
      <use xlink:href="#DejaVuSans-20" x="174.755859"/>
      <use xlink:href="#DejaVuSans-33" x="206.542969"/>
      <use xlink:href="#DejaVuSans-2c" x="270.166016"/>
      <use xlink:href="#DejaVuSans-20" x="301.953125"/>
      <use xlink:href="#DejaVuSans-6b" x="333.740234"/>
      <use xlink:href="#DejaVuSans-20" x="391.650391"/>
      <use xlink:href="#DejaVuSans-3d" x="423.4375"/>
      <use xlink:href="#DejaVuSans-20" x="507.226562"/>
      <use xlink:href="#DejaVuSans-31" x="539.013672"/>
     </g>
    </g>
    <g id="line2d_38">
     <path d="M 317.4575 98.604813 
L 327.4575 98.604813 
L 337.4575 98.604813 
" style="fill: none; stroke: #d62728; stroke-width: 1.5; stroke-linecap: square"/>
    </g>
    <g id="text_21">
     <!-- λ = 1, k = 2 -->
     <g transform="translate(345.4575 102.104813) scale(0.1 -0.1)">
      <use xlink:href="#DejaVuSans-3bb"/>
      <use xlink:href="#DejaVuSans-20" x="59.179688"/>
      <use xlink:href="#DejaVuSans-3d" x="90.966797"/>
      <use xlink:href="#DejaVuSans-20" x="174.755859"/>
      <use xlink:href="#DejaVuSans-31" x="206.542969"/>
      <use xlink:href="#DejaVuSans-2c" x="270.166016"/>
      <use xlink:href="#DejaVuSans-20" x="301.953125"/>
      <use xlink:href="#DejaVuSans-6b" x="333.740234"/>
      <use xlink:href="#DejaVuSans-20" x="391.650391"/>
      <use xlink:href="#DejaVuSans-3d" x="423.4375"/>
      <use xlink:href="#DejaVuSans-20" x="507.226562"/>
      <use xlink:href="#DejaVuSans-32" x="539.013672"/>
     </g>
    </g>
    <g id="line2d_39">
     <path d="M 317.4575 113.282938 
L 327.4575 113.282938 
L 337.4575 113.282938 
" style="fill: none; stroke: #9467bd; stroke-width: 1.5; stroke-linecap: square"/>
    </g>
    <g id="text_22">
     <!-- λ = 1, k = 3 -->
     <g transform="translate(345.4575 116.782938) scale(0.1 -0.1)">
      <use xlink:href="#DejaVuSans-3bb"/>
      <use xlink:href="#DejaVuSans-20" x="59.179688"/>
      <use xlink:href="#DejaVuSans-3d" x="90.966797"/>
      <use xlink:href="#DejaVuSans-20" x="174.755859"/>
      <use xlink:href="#DejaVuSans-31" x="206.542969"/>
      <use xlink:href="#DejaVuSans-2c" x="270.166016"/>
      <use xlink:href="#DejaVuSans-20" x="301.953125"/>
      <use xlink:href="#DejaVuSans-6b" x="333.740234"/>
      <use xlink:href="#DejaVuSans-20" x="391.650391"/>
      <use xlink:href="#DejaVuSans-3d" x="423.4375"/>
      <use xlink:href="#DejaVuSans-20" x="507.226562"/>
      <use xlink:href="#DejaVuSans-33" x="539.013672"/>
     </g>
    </g>
    <g id="line2d_40">
     <path d="M 317.4575 127.961063 
L 327.4575 127.961063 
L 337.4575 127.961063 
" style="fill: none; stroke: #8c564b; stroke-width: 1.5; stroke-linecap: square"/>
    </g>
    <g id="text_23">
     <!-- λ = 2, k = 2 -->
     <g transform="translate(345.4575 131.461063) scale(0.1 -0.1)">
      <use xlink:href="#DejaVuSans-3bb"/>
      <use xlink:href="#DejaVuSans-20" x="59.179688"/>
      <use xlink:href="#DejaVuSans-3d" x="90.966797"/>
      <use xlink:href="#DejaVuSans-20" x="174.755859"/>
      <use xlink:href="#DejaVuSans-32" x="206.542969"/>
      <use xlink:href="#DejaVuSans-2c" x="270.166016"/>
      <use xlink:href="#DejaVuSans-20" x="301.953125"/>
      <use xlink:href="#DejaVuSans-6b" x="333.740234"/>
      <use xlink:href="#DejaVuSans-20" x="391.650391"/>
      <use xlink:href="#DejaVuSans-3d" x="423.4375"/>
      <use xlink:href="#DejaVuSans-20" x="507.226562"/>
      <use xlink:href="#DejaVuSans-32" x="539.013672"/>
     </g>
    </g>
   </g>
  </g>
 </g>
 <defs>
  <clipPath id="p593ba66f39">
   <rect x="57.6" y="41.472" width="357.12" height="266.112"/>
  </clipPath>
 </defs>
</svg>
