<?xml version="1.0" encoding="utf-8" standalone="no"?>
<!DOCTYPE svg PUBLIC "-//W3C//DTD SVG 1.1//EN"
  "http://www.w3.org/Graphics/SVG/1.1/DTD/svg11.dtd">
<svg xmlns:xlink="http://www.w3.org/1999/xlink" width="460.8pt" height="345.6pt" viewBox="0 0 460.8 345.6" xmlns="http://www.w3.org/2000/svg" version="1.1">
 <metadata>
  <rdf:RDF xmlns:dc="http://purl.org/dc/elements/1.1/" xmlns:cc="http://creativecommons.org/ns#" xmlns:rdf="http://www.w3.org/1999/02/22-rdf-syntax-ns#">
   <cc:Work>
    <dc:type rdf:resource="http://purl.org/dc/dcmitype/StillImage"/>
    <dc:date>2024-04-11T00:21:19.715996</dc:date>
    <dc:format>image/svg+xml</dc:format>
    <dc:creator>
     <cc:Agent>
      <dc:title>Matplotlib v3.8.4, https://matplotlib.org/</dc:title>
     </cc:Agent>
    </dc:creator>
   </cc:Work>
  </rdf:RDF>
 </metadata>
 <defs>
  <style type="text/css">*{stroke-linejoin: round; stroke-linecap: butt}</style>
 </defs>
 <g id="figure_1">
  <g id="patch_1">
   <path d="M 0 345.6 
L 460.8 345.6 
L 460.8 0 
L 0 0 
z
" style="fill: #ffffff"/>
  </g>
  <g id="axes_1">
   <g id="patch_2">
    <path d="M 57.6 307.584 
L 414.72 307.584 
L 414.72 41.472 
L 57.6 41.472 
z
" style="fill: #ffffff"/>
   </g>
   <g id="matplotlib.axis_1">
    <g id="xtick_1">
     <g id="line2d_1">
      <defs>
       <path id="m789bb932c6" d="M 0 0 
L 0 3.5 
" style="stroke: #000000; stroke-width: 0.8"/>
      </defs>
      <g>
       <use xlink:href="#m789bb932c6" x="106.298182" y="307.584" style="stroke: #000000; stroke-width: 0.8"/>
      </g>
     </g>
     <g id="text_1">
      <!-- −4 -->
      <g transform="translate(98.927088 322.182437) scale(0.1 -0.1)">
       <defs>
        <path id="DejaVuSans-2212" d="M 678 2272 
L 4684 2272 
L 4684 1741 
L 678 1741 
L 678 2272 
z
" transform="scale(0.015625)"/>
        <path id="DejaVuSans-34" d="M 2419 4116 
L 825 1625 
L 2419 1625 
L 2419 4116 
z
M 2253 4666 
L 3047 4666 
L 3047 1625 
L 3713 1625 
L 3713 1100 
L 3047 1100 
L 3047 0 
L 2419 0 
L 2419 1100 
L 313 1100 
L 313 1709 
L 2253 4666 
z
" transform="scale(0.015625)"/>
       </defs>
       <use xlink:href="#DejaVuSans-2212"/>
       <use xlink:href="#DejaVuSans-34" x="83.789062"/>
      </g>
     </g>
    </g>
    <g id="xtick_2">
     <g id="line2d_2">
      <g>
       <use xlink:href="#m789bb932c6" x="171.229091" y="307.584" style="stroke: #000000; stroke-width: 0.8"/>
      </g>
     </g>
     <g id="text_2">
      <!-- −2 -->
      <g transform="translate(163.857997 322.182437) scale(0.1 -0.1)">
       <defs>
        <path id="DejaVuSans-32" d="M 1228 531 
L 3431 531 
L 3431 0 
L 469 0 
L 469 531 
Q 828 903 1448 1529 
Q 2069 2156 2228 2338 
Q 2531 2678 2651 2914 
Q 2772 3150 2772 3378 
Q 2772 3750 2511 3984 
Q 2250 4219 1831 4219 
Q 1534 4219 1204 4116 
Q 875 4013 500 3803 
L 500 4441 
Q 881 4594 1212 4672 
Q 1544 4750 1819 4750 
Q 2544 4750 2975 4387 
Q 3406 4025 3406 3419 
Q 3406 3131 3298 2873 
Q 3191 2616 2906 2266 
Q 2828 2175 2409 1742 
Q 1991 1309 1228 531 
z
" transform="scale(0.015625)"/>
       </defs>
       <use xlink:href="#DejaVuSans-2212"/>
       <use xlink:href="#DejaVuSans-32" x="83.789062"/>
      </g>
     </g>
    </g>
    <g id="xtick_3">
     <g id="line2d_3">
      <g>
       <use xlink:href="#m789bb932c6" x="236.16" y="307.584" style="stroke: #000000; stroke-width: 0.8"/>
      </g>
     </g>
     <g id="text_3">
      <!-- 0 -->
      <g transform="translate(232.97875 322.182437) scale(0.1 -0.1)">
       <defs>
        <path id="DejaVuSans-30" d="M 2034 4250 
Q 1547 4250 1301 3770 
Q 1056 3291 1056 2328 
Q 1056 1369 1301 889 
Q 1547 409 2034 409 
Q 2525 409 2770 889 
Q 3016 1369 3016 2328 
Q 3016 3291 2770 3770 
Q 2525 4250 2034 4250 
z
M 2034 4750 
Q 2819 4750 3233 4129 
Q 3647 3509 3647 2328 
Q 3647 1150 3233 529 
Q 2819 -91 2034 -91 
Q 1250 -91 836 529 
Q 422 1150 422 2328 
Q 422 3509 836 4129 
Q 1250 4750 2034 4750 
z
" transform="scale(0.015625)"/>
       </defs>
       <use xlink:href="#DejaVuSans-30"/>
      </g>
     </g>
    </g>
    <g id="xtick_4">
     <g id="line2d_4">
      <g>
       <use xlink:href="#m789bb932c6" x="301.090909" y="307.584" style="stroke: #000000; stroke-width: 0.8"/>
      </g>
     </g>
     <g id="text_4">
      <!-- 2 -->
      <g transform="translate(297.909659 322.182437) scale(0.1 -0.1)">
       <use xlink:href="#DejaVuSans-32"/>
      </g>
     </g>
    </g>
    <g id="xtick_5">
     <g id="line2d_5">
      <g>
       <use xlink:href="#m789bb932c6" x="366.021818" y="307.584" style="stroke: #000000; stroke-width: 0.8"/>
      </g>
     </g>
     <g id="text_5">
      <!-- 4 -->
      <g transform="translate(362.840568 322.182437) scale(0.1 -0.1)">
       <use xlink:href="#DejaVuSans-34"/>
      </g>
     </g>
    </g>
    <g id="text_6">
     <!-- x -->
     <g transform="translate(233.200625 335.860562) scale(0.1 -0.1)">
      <defs>
       <path id="DejaVuSans-78" d="M 3513 3500 
L 2247 1797 
L 3578 0 
L 2900 0 
L 1881 1375 
L 863 0 
L 184 0 
L 1544 1831 
L 300 3500 
L 978 3500 
L 1906 2253 
L 2834 3500 
L 3513 3500 
z
" transform="scale(0.015625)"/>
      </defs>
      <use xlink:href="#DejaVuSans-78"/>
     </g>
    </g>
   </g>
   <g id="matplotlib.axis_2">
    <g id="ytick_1">
     <g id="line2d_6">
      <defs>
       <path id="me5e636d08b" d="M 0 0 
L -3.5 0 
" style="stroke: #000000; stroke-width: 0.8"/>
      </defs>
      <g>
       <use xlink:href="#me5e636d08b" x="57.6" y="295.488902" style="stroke: #000000; stroke-width: 0.8"/>
      </g>
     </g>
     <g id="text_7">
      <!-- 0.00 -->
      <g transform="translate(28.334375 299.28812) scale(0.1 -0.1)">
       <defs>
        <path id="DejaVuSans-2e" d="M 684 794 
L 1344 794 
L 1344 0 
L 684 0 
L 684 794 
z
" transform="scale(0.015625)"/>
       </defs>
       <use xlink:href="#DejaVuSans-30"/>
       <use xlink:href="#DejaVuSans-2e" x="63.623047"/>
       <use xlink:href="#DejaVuSans-30" x="95.410156"/>
       <use xlink:href="#DejaVuSans-30" x="159.033203"/>
      </g>
     </g>
    </g>
    <g id="ytick_2">
     <g id="line2d_7">
      <g>
       <use xlink:href="#me5e636d08b" x="57.6" y="265.168233" style="stroke: #000000; stroke-width: 0.8"/>
      </g>
     </g>
     <g id="text_8">
      <!-- 0.05 -->
      <g transform="translate(28.334375 268.967452) scale(0.1 -0.1)">
       <defs>
        <path id="DejaVuSans-35" d="M 691 4666 
L 3169 4666 
L 3169 4134 
L 1269 4134 
L 1269 2991 
Q 1406 3038 1543 3061 
Q 1681 3084 1819 3084 
Q 2600 3084 3056 2656 
Q 3513 2228 3513 1497 
Q 3513 744 3044 326 
Q 2575 -91 1722 -91 
Q 1428 -91 1123 -41 
Q 819 9 494 109 
L 494 744 
Q 775 591 1075 516 
Q 1375 441 1709 441 
Q 2250 441 2565 725 
Q 2881 1009 2881 1497 
Q 2881 1984 2565 2268 
Q 2250 2553 1709 2553 
Q 1456 2553 1204 2497 
Q 953 2441 691 2322 
L 691 4666 
z
" transform="scale(0.015625)"/>
       </defs>
       <use xlink:href="#DejaVuSans-30"/>
       <use xlink:href="#DejaVuSans-2e" x="63.623047"/>
       <use xlink:href="#DejaVuSans-30" x="95.410156"/>
       <use xlink:href="#DejaVuSans-35" x="159.033203"/>
      </g>
     </g>
    </g>
    <g id="ytick_3">
     <g id="line2d_8">
      <g>
       <use xlink:href="#me5e636d08b" x="57.6" y="234.847565" style="stroke: #000000; stroke-width: 0.8"/>
      </g>
     </g>
     <g id="text_9">
      <!-- 0.10 -->
      <g transform="translate(28.334375 238.646784) scale(0.1 -0.1)">
       <defs>
        <path id="DejaVuSans-31" d="M 794 531 
L 1825 531 
L 1825 4091 
L 703 3866 
L 703 4441 
L 1819 4666 
L 2450 4666 
L 2450 531 
L 3481 531 
L 3481 0 
L 794 0 
L 794 531 
z
" transform="scale(0.015625)"/>
       </defs>
       <use xlink:href="#DejaVuSans-30"/>
       <use xlink:href="#DejaVuSans-2e" x="63.623047"/>
       <use xlink:href="#DejaVuSans-31" x="95.410156"/>
       <use xlink:href="#DejaVuSans-30" x="159.033203"/>
      </g>
     </g>
    </g>
    <g id="ytick_4">
     <g id="line2d_9">
      <g>
       <use xlink:href="#me5e636d08b" x="57.6" y="204.526896" style="stroke: #000000; stroke-width: 0.8"/>
      </g>
     </g>
     <g id="text_10">
      <!-- 0.15 -->
      <g transform="translate(28.334375 208.326115) scale(0.1 -0.1)">
       <use xlink:href="#DejaVuSans-30"/>
       <use xlink:href="#DejaVuSans-2e" x="63.623047"/>
       <use xlink:href="#DejaVuSans-31" x="95.410156"/>
       <use xlink:href="#DejaVuSans-35" x="159.033203"/>
      </g>
     </g>
    </g>
    <g id="ytick_5">
     <g id="line2d_10">
      <g>
       <use xlink:href="#me5e636d08b" x="57.6" y="174.206228" style="stroke: #000000; stroke-width: 0.8"/>
      </g>
     </g>
     <g id="text_11">
      <!-- 0.20 -->
      <g transform="translate(28.334375 178.005447) scale(0.1 -0.1)">
       <use xlink:href="#DejaVuSans-30"/>
       <use xlink:href="#DejaVuSans-2e" x="63.623047"/>
       <use xlink:href="#DejaVuSans-32" x="95.410156"/>
       <use xlink:href="#DejaVuSans-30" x="159.033203"/>
      </g>
     </g>
    </g>
    <g id="ytick_6">
     <g id="line2d_11">
      <g>
       <use xlink:href="#me5e636d08b" x="57.6" y="143.88556" style="stroke: #000000; stroke-width: 0.8"/>
      </g>
     </g>
     <g id="text_12">
      <!-- 0.25 -->
      <g transform="translate(28.334375 147.684778) scale(0.1 -0.1)">
       <use xlink:href="#DejaVuSans-30"/>
       <use xlink:href="#DejaVuSans-2e" x="63.623047"/>
       <use xlink:href="#DejaVuSans-32" x="95.410156"/>
       <use xlink:href="#DejaVuSans-35" x="159.033203"/>
      </g>
     </g>
    </g>
    <g id="ytick_7">
     <g id="line2d_12">
      <g>
       <use xlink:href="#me5e636d08b" x="57.6" y="113.564891" style="stroke: #000000; stroke-width: 0.8"/>
      </g>
     </g>
     <g id="text_13">
      <!-- 0.30 -->
      <g transform="translate(28.334375 117.36411) scale(0.1 -0.1)">
       <defs>
        <path id="DejaVuSans-33" d="M 2597 2516 
Q 3050 2419 3304 2112 
Q 3559 1806 3559 1356 
Q 3559 666 3084 287 
Q 2609 -91 1734 -91 
Q 1441 -91 1130 -33 
Q 819 25 488 141 
L 488 750 
Q 750 597 1062 519 
Q 1375 441 1716 441 
Q 2309 441 2620 675 
Q 2931 909 2931 1356 
Q 2931 1769 2642 2001 
Q 2353 2234 1838 2234 
L 1294 2234 
L 1294 2753 
L 1863 2753 
Q 2328 2753 2575 2939 
Q 2822 3125 2822 3475 
Q 2822 3834 2567 4026 
Q 2313 4219 1838 4219 
Q 1578 4219 1281 4162 
Q 984 4106 628 3988 
L 628 4550 
Q 988 4650 1302 4700 
Q 1616 4750 1894 4750 
Q 2613 4750 3031 4423 
Q 3450 4097 3450 3541 
Q 3450 3153 3228 2886 
Q 3006 2619 2597 2516 
z
" transform="scale(0.015625)"/>
       </defs>
       <use xlink:href="#DejaVuSans-30"/>
       <use xlink:href="#DejaVuSans-2e" x="63.623047"/>
       <use xlink:href="#DejaVuSans-33" x="95.410156"/>
       <use xlink:href="#DejaVuSans-30" x="159.033203"/>
      </g>
     </g>
    </g>
    <g id="ytick_8">
     <g id="line2d_13">
      <g>
       <use xlink:href="#me5e636d08b" x="57.6" y="83.244223" style="stroke: #000000; stroke-width: 0.8"/>
      </g>
     </g>
     <g id="text_14">
      <!-- 0.35 -->
      <g transform="translate(28.334375 87.043442) scale(0.1 -0.1)">
       <use xlink:href="#DejaVuSans-30"/>
       <use xlink:href="#DejaVuSans-2e" x="63.623047"/>
       <use xlink:href="#DejaVuSans-33" x="95.410156"/>
       <use xlink:href="#DejaVuSans-35" x="159.033203"/>
      </g>
     </g>
    </g>
    <g id="ytick_9">
     <g id="line2d_14">
      <g>
       <use xlink:href="#me5e636d08b" x="57.6" y="52.923555" style="stroke: #000000; stroke-width: 0.8"/>
      </g>
     </g>
     <g id="text_15">
      <!-- 0.40 -->
      <g transform="translate(28.334375 56.722773) scale(0.1 -0.1)">
       <use xlink:href="#DejaVuSans-30"/>
       <use xlink:href="#DejaVuSans-2e" x="63.623047"/>
       <use xlink:href="#DejaVuSans-34" x="95.410156"/>
       <use xlink:href="#DejaVuSans-30" x="159.033203"/>
      </g>
     </g>
    </g>
    <g id="text_16">
     <!-- Probability density -->
     <g transform="translate(22.254687 220.878781) rotate(-90) scale(0.1 -0.1)">
      <defs>
       <path id="DejaVuSans-50" d="M 1259 4147 
L 1259 2394 
L 2053 2394 
Q 2494 2394 2734 2622 
Q 2975 2850 2975 3272 
Q 2975 3691 2734 3919 
Q 2494 4147 2053 4147 
L 1259 4147 
z
M 628 4666 
L 2053 4666 
Q 2838 4666 3239 4311 
Q 3641 3956 3641 3272 
Q 3641 2581 3239 2228 
Q 2838 1875 2053 1875 
L 1259 1875 
L 1259 0 
L 628 0 
L 628 4666 
z
" transform="scale(0.015625)"/>
       <path id="DejaVuSans-72" d="M 2631 2963 
Q 2534 3019 2420 3045 
Q 2306 3072 2169 3072 
Q 1681 3072 1420 2755 
Q 1159 2438 1159 1844 
L 1159 0 
L 581 0 
L 581 3500 
L 1159 3500 
L 1159 2956 
Q 1341 3275 1631 3429 
Q 1922 3584 2338 3584 
Q 2397 3584 2469 3576 
Q 2541 3569 2628 3553 
L 2631 2963 
z
" transform="scale(0.015625)"/>
       <path id="DejaVuSans-6f" d="M 1959 3097 
Q 1497 3097 1228 2736 
Q 959 2375 959 1747 
Q 959 1119 1226 758 
Q 1494 397 1959 397 
Q 2419 397 2687 759 
Q 2956 1122 2956 1747 
Q 2956 2369 2687 2733 
Q 2419 3097 1959 3097 
z
M 1959 3584 
Q 2709 3584 3137 3096 
Q 3566 2609 3566 1747 
Q 3566 888 3137 398 
Q 2709 -91 1959 -91 
Q 1206 -91 779 398 
Q 353 888 353 1747 
Q 353 2609 779 3096 
Q 1206 3584 1959 3584 
z
" transform="scale(0.015625)"/>
       <path id="DejaVuSans-62" d="M 3116 1747 
Q 3116 2381 2855 2742 
Q 2594 3103 2138 3103 
Q 1681 3103 1420 2742 
Q 1159 2381 1159 1747 
Q 1159 1113 1420 752 
Q 1681 391 2138 391 
Q 2594 391 2855 752 
Q 3116 1113 3116 1747 
z
M 1159 2969 
Q 1341 3281 1617 3432 
Q 1894 3584 2278 3584 
Q 2916 3584 3314 3078 
Q 3713 2572 3713 1747 
Q 3713 922 3314 415 
Q 2916 -91 2278 -91 
Q 1894 -91 1617 61 
Q 1341 213 1159 525 
L 1159 0 
L 581 0 
L 581 4863 
L 1159 4863 
L 1159 2969 
z
" transform="scale(0.015625)"/>
       <path id="DejaVuSans-61" d="M 2194 1759 
Q 1497 1759 1228 1600 
Q 959 1441 959 1056 
Q 959 750 1161 570 
Q 1363 391 1709 391 
Q 2188 391 2477 730 
Q 2766 1069 2766 1631 
L 2766 1759 
L 2194 1759 
z
M 3341 1997 
L 3341 0 
L 2766 0 
L 2766 531 
Q 2569 213 2275 61 
Q 1981 -91 1556 -91 
Q 1019 -91 701 211 
Q 384 513 384 1019 
Q 384 1609 779 1909 
Q 1175 2209 1959 2209 
L 2766 2209 
L 2766 2266 
Q 2766 2663 2505 2880 
Q 2244 3097 1772 3097 
Q 1472 3097 1187 3025 
Q 903 2953 641 2809 
L 641 3341 
Q 956 3463 1253 3523 
Q 1550 3584 1831 3584 
Q 2591 3584 2966 3190 
Q 3341 2797 3341 1997 
z
" transform="scale(0.015625)"/>
       <path id="DejaVuSans-69" d="M 603 3500 
L 1178 3500 
L 1178 0 
L 603 0 
L 603 3500 
z
M 603 4863 
L 1178 4863 
L 1178 4134 
L 603 4134 
L 603 4863 
z
" transform="scale(0.015625)"/>
       <path id="DejaVuSans-6c" d="M 603 4863 
L 1178 4863 
L 1178 0 
L 603 0 
L 603 4863 
z
" transform="scale(0.015625)"/>
       <path id="DejaVuSans-74" d="M 1172 4494 
L 1172 3500 
L 2356 3500 
L 2356 3053 
L 1172 3053 
L 1172 1153 
Q 1172 725 1289 603 
Q 1406 481 1766 481 
L 2356 481 
L 2356 0 
L 1766 0 
Q 1100 0 847 248 
Q 594 497 594 1153 
L 594 3053 
L 172 3053 
L 172 3500 
L 594 3500 
L 594 4494 
L 1172 4494 
z
" transform="scale(0.015625)"/>
       <path id="DejaVuSans-79" d="M 2059 -325 
Q 1816 -950 1584 -1140 
Q 1353 -1331 966 -1331 
L 506 -1331 
L 506 -850 
L 844 -850 
Q 1081 -850 1212 -737 
Q 1344 -625 1503 -206 
L 1606 56 
L 191 3500 
L 800 3500 
L 1894 763 
L 2988 3500 
L 3597 3500 
L 2059 -325 
z
" transform="scale(0.015625)"/>
       <path id="DejaVuSans-20" transform="scale(0.015625)"/>
       <path id="DejaVuSans-64" d="M 2906 2969 
L 2906 4863 
L 3481 4863 
L 3481 0 
L 2906 0 
L 2906 525 
Q 2725 213 2448 61 
Q 2172 -91 1784 -91 
Q 1150 -91 751 415 
Q 353 922 353 1747 
Q 353 2572 751 3078 
Q 1150 3584 1784 3584 
Q 2172 3584 2448 3432 
Q 2725 3281 2906 2969 
z
M 947 1747 
Q 947 1113 1208 752 
Q 1469 391 1925 391 
Q 2381 391 2643 752 
Q 2906 1113 2906 1747 
Q 2906 2381 2643 2742 
Q 2381 3103 1925 3103 
Q 1469 3103 1208 2742 
Q 947 2381 947 1747 
z
" transform="scale(0.015625)"/>
       <path id="DejaVuSans-65" d="M 3597 1894 
L 3597 1613 
L 953 1613 
Q 991 1019 1311 708 
Q 1631 397 2203 397 
Q 2534 397 2845 478 
Q 3156 559 3463 722 
L 3463 178 
Q 3153 47 2828 -22 
Q 2503 -91 2169 -91 
Q 1331 -91 842 396 
Q 353 884 353 1716 
Q 353 2575 817 3079 
Q 1281 3584 2069 3584 
Q 2775 3584 3186 3129 
Q 3597 2675 3597 1894 
z
M 3022 2063 
Q 3016 2534 2758 2815 
Q 2500 3097 2075 3097 
Q 1594 3097 1305 2825 
Q 1016 2553 972 2059 
L 3022 2063 
z
" transform="scale(0.015625)"/>
       <path id="DejaVuSans-6e" d="M 3513 2113 
L 3513 0 
L 2938 0 
L 2938 2094 
Q 2938 2591 2744 2837 
Q 2550 3084 2163 3084 
Q 1697 3084 1428 2787 
Q 1159 2491 1159 1978 
L 1159 0 
L 581 0 
L 581 3500 
L 1159 3500 
L 1159 2956 
Q 1366 3272 1645 3428 
Q 1925 3584 2291 3584 
Q 2894 3584 3203 3211 
Q 3513 2838 3513 2113 
z
" transform="scale(0.015625)"/>
       <path id="DejaVuSans-73" d="M 2834 3397 
L 2834 2853 
Q 2591 2978 2328 3040 
Q 2066 3103 1784 3103 
Q 1356 3103 1142 2972 
Q 928 2841 928 2578 
Q 928 2378 1081 2264 
Q 1234 2150 1697 2047 
L 1894 2003 
Q 2506 1872 2764 1633 
Q 3022 1394 3022 966 
Q 3022 478 2636 193 
Q 2250 -91 1575 -91 
Q 1294 -91 989 -36 
Q 684 19 347 128 
L 347 722 
Q 666 556 975 473 
Q 1284 391 1588 391 
Q 1994 391 2212 530 
Q 2431 669 2431 922 
Q 2431 1156 2273 1281 
Q 2116 1406 1581 1522 
L 1381 1569 
Q 847 1681 609 1914 
Q 372 2147 372 2553 
Q 372 3047 722 3315 
Q 1072 3584 1716 3584 
Q 2034 3584 2315 3537 
Q 2597 3491 2834 3397 
z
" transform="scale(0.015625)"/>
      </defs>
      <use xlink:href="#DejaVuSans-50"/>
      <use xlink:href="#DejaVuSans-72" x="58.552734"/>
      <use xlink:href="#DejaVuSans-6f" x="97.416016"/>
      <use xlink:href="#DejaVuSans-62" x="158.597656"/>
      <use xlink:href="#DejaVuSans-61" x="222.074219"/>
      <use xlink:href="#DejaVuSans-62" x="283.353516"/>
      <use xlink:href="#DejaVuSans-69" x="346.830078"/>
      <use xlink:href="#DejaVuSans-6c" x="374.613281"/>
      <use xlink:href="#DejaVuSans-69" x="402.396484"/>
      <use xlink:href="#DejaVuSans-74" x="430.179688"/>
      <use xlink:href="#DejaVuSans-79" x="469.388672"/>
      <use xlink:href="#DejaVuSans-20" x="528.568359"/>
      <use xlink:href="#DejaVuSans-64" x="560.355469"/>
      <use xlink:href="#DejaVuSans-65" x="623.832031"/>
      <use xlink:href="#DejaVuSans-6e" x="685.355469"/>
      <use xlink:href="#DejaVuSans-73" x="748.734375"/>
      <use xlink:href="#DejaVuSans-69" x="800.833984"/>
      <use xlink:href="#DejaVuSans-74" x="828.617188"/>
      <use xlink:href="#DejaVuSans-79" x="867.826172"/>
     </g>
    </g>
   </g>
   <g id="line2d_15">
    <path d="M 73.832727 288.064772 
L 85.207011 286.955133 
L 95.281376 285.754727 
L 104.055823 284.494779 
L 111.855332 283.162706 
L 119.004881 281.72292 
L 125.504472 280.190211 
L 131.354103 278.588487 
L 136.878755 276.842011 
L 141.753448 275.075531 
L 146.303161 273.200753 
L 150.527895 271.230493 
L 154.427649 269.183349 
L 158.327404 266.881719 
L 161.902179 264.513744 
L 165.151974 262.115034 
L 168.401769 259.448983 
L 171.651564 256.478636 
L 174.57638 253.510166 
L 177.501196 250.225666 
L 180.426011 246.585511 
L 183.025848 243.015557 
L 185.625684 239.095447 
L 188.22552 234.788142 
L 190.825356 230.054185 
L 193.425192 224.852472 
L 196.025029 219.141595 
L 198.624865 212.881972 
L 201.224701 206.039058 
L 203.824537 198.588002 
L 206.749353 189.468675 
L 209.674169 179.595209 
L 212.923964 167.846316 
L 217.798657 149.241023 
L 222.67335 130.869838 
L 225.273186 121.973322 
L 227.223063 116.058161 
L 228.847961 111.780403 
L 230.147879 108.861643 
L 231.447797 106.444159 
L 232.422735 104.985979 
L 233.397674 103.848904 
L 234.372613 103.044841 
L 235.347551 102.58234 
L 235.99751 102.466367 
L 236.647469 102.50504 
L 237.297428 102.698173 
L 238.272367 103.275261 
L 239.247305 104.191449 
L 240.222244 105.43704 
L 241.197183 106.99907 
L 242.497101 109.546166 
L 243.797019 112.582756 
L 245.421916 116.98921 
L 247.371794 123.029614 
L 249.64665 130.869838 
L 252.896446 142.989263 
L 261.345913 174.984476 
L 264.595708 186.258539 
L 267.520524 195.634603 
L 270.44534 204.233982 
L 273.045176 211.227106 
L 275.645012 217.6296 
L 278.244848 223.474084 
L 280.844685 228.799234 
L 283.444521 233.646237 
L 286.044357 238.056424 
L 288.644193 242.069757 
L 291.569009 246.157218 
L 294.493825 249.839536 
L 297.41864 253.161514 
L 300.343456 256.163281 
L 303.593251 259.166297 
L 306.843047 261.861028 
L 310.092842 264.284953 
L 313.667617 266.677206 
L 317.567371 269.001782 
L 321.467125 271.068742 
L 325.691859 273.057494 
L 330.241572 274.949295 
L 335.116265 276.731256 
L 340.315938 278.395639 
L 346.165569 280.023422 
L 352.34018 281.507717 
L 359.16475 282.917858 
L 366.639279 284.235311 
L 375.088747 285.493818 
L 384.513153 286.667199 
L 395.237477 287.770591 
L 398.487273 288.064772 
L 398.487273 288.064772 
" clip-path="url(#pe51a7554b5)" style="fill: none; stroke: #1f77b4; stroke-width: 1.5; stroke-linecap: square"/>
   </g>
   <g id="line2d_16">
    <path d="M 73.832727 291.16652 
L 84.882031 290.237143 
L 94.306437 289.228373 
L 102.430925 288.147721 
L 109.905455 286.930718 
L 116.405045 285.653012 
L 122.254676 284.286115 
L 127.779328 282.764056 
L 132.654021 281.195848 
L 137.203735 279.504609 
L 141.428468 277.701946 
L 145.328223 275.805835 
L 149.227977 273.650655 
L 152.802752 271.412211 
L 156.052547 269.127094 
L 159.302342 266.570857 
L 162.552138 263.707302 
L 165.476953 260.833638 
L 168.401769 257.644656 
L 171.326585 254.103573 
L 173.926421 250.627868 
L 176.526257 246.81166 
L 179.126093 242.622549 
L 181.72593 238.026655 
L 184.325766 232.989253 
L 186.925602 227.475735 
L 189.525438 221.452982 
L 192.125274 214.89125 
L 194.725111 207.766674 
L 197.649926 199.060856 
L 200.574742 189.62365 
L 203.824537 178.316688 
L 207.399312 164.99831 
L 211.949025 147.102997 
L 219.098575 118.901507 
L 222.023391 108.325731 
L 224.298247 100.89363 
L 226.248124 95.249679 
L 227.873022 91.155338 
L 229.49792 87.686611 
L 230.797838 85.402321 
L 232.097756 83.582515 
L 233.072695 82.535347 
L 234.047633 81.768342 
L 235.022572 81.286622 
L 235.99751 81.093427 
L 236.972449 81.190061 
L 237.947387 81.575871 
L 238.922326 82.248259 
L 239.897265 83.202721 
L 240.872203 84.432921 
L 242.172121 86.487917 
L 243.472039 88.995023 
L 245.096937 92.721616 
L 246.721835 97.047735 
L 248.671712 102.931999 
L 250.946568 110.589502 
L 253.871384 121.367771 
L 258.096118 137.987785 
L 265.570647 167.479643 
L 269.145422 180.643667 
L 272.395217 191.783076 
L 275.320033 201.059064 
L 278.244848 209.601582 
L 281.169664 217.416737 
L 283.7695 223.773177 
L 286.369337 229.601253 
L 288.969173 234.932231 
L 291.569009 239.799981 
L 294.168845 244.23929 
L 296.768681 248.28466 
L 299.693497 252.406329 
L 302.618313 256.116625 
L 305.543129 259.457346 
L 308.467944 262.466834 
L 311.39276 265.179936 
L 314.642555 267.885023 
L 317.892351 270.301453 
L 321.467125 272.666581 
L 325.0419 274.763066 
L 328.941654 276.783932 
L 333.166388 278.702661 
L 337.391122 280.380119 
L 341.940835 281.956543 
L 347.140508 283.511193 
L 352.66516 284.921862 
L 358.839771 286.256378 
L 365.664341 287.489612 
L 373.13887 288.606953 
L 381.588337 289.638427 
L 391.337723 290.592508 
L 398.487273 291.16652 
L 398.487273 291.16652 
" clip-path="url(#pe51a7554b5)" style="fill: none; stroke: #ff7f0e; stroke-width: 1.5; stroke-linecap: square"/>
   </g>
   <g id="line2d_17">
    <path d="M 73.832727 294.423167 
L 86.506929 293.897796 
L 96.581294 293.267138 
L 105.030762 292.517046 
L 112.180311 291.657569 
L 118.354922 290.689723 
L 123.554595 289.663206 
L 128.429287 288.478579 
L 132.654021 287.23756 
L 136.553776 285.878408 
L 140.12855 284.418829 
L 143.703325 282.719193 
L 146.95312 280.93199 
L 150.202916 278.878525 
L 153.127731 276.770406 
L 156.052547 274.382875 
L 158.977363 271.680592 
L 161.577199 268.983115 
L 164.177035 265.977066 
L 166.776871 262.631217 
L 169.376708 258.912741 
L 171.976544 254.787632 
L 174.57638 250.221319 
L 177.176216 245.179503 
L 179.776052 239.62926 
L 182.375889 233.540431 
L 184.975725 226.887359 
L 187.575561 219.650949 
L 190.500377 210.800553 
L 193.425192 201.202938 
L 196.674988 189.697074 
L 200.249762 176.113544 
L 204.474496 159.059475 
L 217.798657 104.366785 
L 220.398493 95.000464 
L 222.67335 87.570219 
L 224.623227 81.886408 
L 226.573104 76.926036 
L 228.198002 73.401618 
L 229.49792 71.009808 
L 230.797838 69.017413 
L 232.097756 67.439293 
L 233.072695 66.534848 
L 234.047633 65.874064 
L 235.022572 65.459782 
L 235.99751 65.29379 
L 236.972449 65.376806 
L 237.947387 65.708471 
L 238.922326 66.287352 
L 239.897265 67.110956 
L 240.872203 68.175753 
L 242.172121 69.962688 
L 243.472039 72.156824 
L 244.771957 74.741909 
L 246.396855 78.4941 
L 248.021753 82.78571 
L 249.97163 88.581903 
L 252.246486 96.124304 
L 254.846323 105.592651 
L 258.096118 118.371523 
L 262.970811 138.62911 
L 270.44534 169.66329 
L 274.345094 184.862594 
L 277.594889 196.703688 
L 280.844685 207.683557 
L 283.7695 216.784495 
L 286.694316 225.133513 
L 289.294152 231.930936 
L 291.893989 238.158639 
L 294.493825 243.840845 
L 297.093661 249.006763 
L 299.693497 253.688768 
L 302.293333 257.920932 
L 304.89317 261.737845 
L 307.493006 265.173718 
L 310.092842 268.261721 
L 312.692678 271.033513 
L 315.617494 273.810878 
L 318.54231 276.265181 
L 321.467125 278.43251 
L 324.716921 280.543786 
L 327.966716 282.381327 
L 331.541491 284.128762 
L 335.116265 285.629251 
L 339.01602 287.026299 
L 343.240753 288.301665 
L 347.790467 289.445058 
L 352.990139 290.513528 
L 358.839771 291.473327 
L 365.339361 292.306151 
L 372.81389 293.034564 
L 381.588337 293.661764 
L 392.312662 294.196773 
L 398.487273 294.423167 
L 398.487273 294.423167 
" clip-path="url(#pe51a7554b5)" style="fill: none; stroke: #2ca02c; stroke-width: 1.5; stroke-linecap: square"/>
   </g>
   <g id="line2d_18">
    <path d="M 73.832727 295.488 
L 109.255495 295.372553 
L 119.004881 295.129173 
L 125.504472 294.762753 
L 130.704144 294.251436 
L 134.928878 293.616367 
L 138.503653 292.86525 
L 141.753448 291.961156 
L 144.678264 290.923188 
L 147.2781 289.785747 
L 149.877936 288.410478 
L 152.477772 286.759732 
L 154.752629 285.05744 
L 157.027486 283.084235 
L 159.302342 280.810029 
L 161.577199 278.203956 
L 163.852056 275.234892 
L 166.126912 271.872066 
L 168.401769 268.085776 
L 170.676626 263.848194 
L 172.951482 259.134251 
L 175.226339 253.922593 
L 177.501196 248.196581 
L 180.101032 241.00906 
L 182.700868 233.130354 
L 185.300704 224.568514 
L 188.22552 214.149385 
L 191.475315 201.665212 
L 195.05009 186.971753 
L 199.274824 168.611575 
L 213.248943 106.891787 
L 216.173759 95.325898 
L 218.773595 85.884031 
L 221.048452 78.402748 
L 222.998329 72.650562 
L 224.948206 67.569597 
L 226.573104 63.886135 
L 228.198002 60.73195 
L 229.49792 58.605331 
L 230.797838 56.842354 
L 232.097756 55.451393 
L 233.397674 54.439088 
L 234.372613 53.931335 
L 235.347551 53.640711 
L 236.32249 53.568 
L 237.297428 53.7134 
L 238.272367 54.076516 
L 239.247305 54.656369 
L 240.222244 55.451393 
L 241.522162 56.842354 
L 242.82208 58.605331 
L 244.121998 60.73195 
L 245.746896 63.886135 
L 247.371794 67.569597 
L 249.321671 72.650562 
L 251.271548 78.402748 
L 253.546405 85.884031 
L 256.146241 95.325898 
L 259.071057 106.891787 
L 262.645831 122.04649 
L 267.845504 145.230154 
L 275.645012 180.016402 
L 279.544767 196.42888 
L 283.119541 210.500085 
L 286.044357 221.18592 
L 288.969173 231.053303 
L 291.569009 239.104111 
L 294.168845 246.464418 
L 296.768681 253.136404 
L 299.043538 258.420645 
L 301.318395 263.204481 
L 303.593251 267.508656 
L 305.868108 271.357767 
L 308.142965 274.779304 
L 310.417821 277.802753 
L 312.692678 280.458777 
L 314.967535 282.778491 
L 317.242391 284.792831 
L 319.517248 286.532023 
L 322.117084 288.220006 
L 324.716921 289.627586 
L 327.316757 290.792808 
L 330.241572 291.857142 
L 333.491368 292.785185 
L 337.066143 293.557096 
L 340.965897 294.168555 
L 345.51561 294.65724 
L 351.365242 295.042919 
L 358.839771 295.297036 
L 370.539034 295.442832 
L 397.512334 295.487854 
L 398.487273 295.488 
L 398.487273 295.488 
" clip-path="url(#pe51a7554b5)" style="fill: none; stroke: #d62728; stroke-width: 1.5; stroke-linecap: square"/>
   </g>
   <g id="patch_3">
    <path d="M 57.6 307.584 
L 57.6 41.472 
" style="fill: none; stroke: #000000; stroke-width: 0.8; stroke-linejoin: miter; stroke-linecap: square"/>
   </g>
   <g id="patch_4">
    <path d="M 414.72 307.584 
L 414.72 41.472 
" style="fill: none; stroke: #000000; stroke-width: 0.8; stroke-linejoin: miter; stroke-linecap: square"/>
   </g>
   <g id="patch_5">
    <path d="M 57.6 307.584 
L 414.72 307.584 
" style="fill: none; stroke: #000000; stroke-width: 0.8; stroke-linejoin: miter; stroke-linecap: square"/>
   </g>
   <g id="patch_6">
    <path d="M 57.6 41.472 
L 414.72 41.472 
" style="fill: none; stroke: #000000; stroke-width: 0.8; stroke-linejoin: miter; stroke-linecap: square"/>
   </g>
   <g id="text_17">
    <!-- T-distribution -->
    <g transform="translate(196.686563 35.472) scale(0.12 -0.12)">
     <defs>
      <path id="DejaVuSans-54" d="M -19 4666 
L 3928 4666 
L 3928 4134 
L 2272 4134 
L 2272 0 
L 1638 0 
L 1638 4134 
L -19 4134 
L -19 4666 
z
" transform="scale(0.015625)"/>
      <path id="DejaVuSans-2d" d="M 313 2009 
L 1997 2009 
L 1997 1497 
L 313 1497 
L 313 2009 
z
" transform="scale(0.015625)"/>
      <path id="DejaVuSans-75" d="M 544 1381 
L 544 3500 
L 1119 3500 
L 1119 1403 
Q 1119 906 1312 657 
Q 1506 409 1894 409 
Q 2359 409 2629 706 
Q 2900 1003 2900 1516 
L 2900 3500 
L 3475 3500 
L 3475 0 
L 2900 0 
L 2900 538 
Q 2691 219 2414 64 
Q 2138 -91 1772 -91 
Q 1169 -91 856 284 
Q 544 659 544 1381 
z
M 1991 3584 
L 1991 3584 
z
" transform="scale(0.015625)"/>
     </defs>
     <use xlink:href="#DejaVuSans-54"/>
     <use xlink:href="#DejaVuSans-2d" x="51.958984"/>
     <use xlink:href="#DejaVuSans-64" x="88.042969"/>
     <use xlink:href="#DejaVuSans-69" x="151.519531"/>
     <use xlink:href="#DejaVuSans-73" x="179.302734"/>
     <use xlink:href="#DejaVuSans-74" x="231.402344"/>
     <use xlink:href="#DejaVuSans-72" x="270.611328"/>
     <use xlink:href="#DejaVuSans-69" x="311.724609"/>
     <use xlink:href="#DejaVuSans-62" x="339.507812"/>
     <use xlink:href="#DejaVuSans-75" x="402.984375"/>
     <use xlink:href="#DejaVuSans-74" x="466.363281"/>
     <use xlink:href="#DejaVuSans-69" x="505.572266"/>
     <use xlink:href="#DejaVuSans-6f" x="533.355469"/>
     <use xlink:href="#DejaVuSans-6e" x="594.537109"/>
    </g>
   </g>
   <g id="legend_1">
    <g id="patch_7">
     <path d="M 335.673125 108.1845 
L 407.72 108.1845 
Q 409.72 108.1845 409.72 106.1845 
L 409.72 48.472 
Q 409.72 46.472 407.72 46.472 
L 335.673125 46.472 
Q 333.673125 46.472 333.673125 48.472 
L 333.673125 106.1845 
Q 333.673125 108.1845 335.673125 108.1845 
z
" style="fill: #ffffff; opacity: 0.8; stroke: #cccccc; stroke-linejoin: miter"/>
    </g>
    <g id="line2d_19">
     <path d="M 337.673125 54.570438 
L 347.673125 54.570438 
L 357.673125 54.570438 
" style="fill: none; stroke: #1f77b4; stroke-width: 1.5; stroke-linecap: square"/>
    </g>
    <g id="text_18">
     <!-- nu = 1 -->
     <g transform="translate(365.673125 58.070438) scale(0.1 -0.1)">
      <defs>
       <path id="DejaVuSans-3d" d="M 678 2906 
L 4684 2906 
L 4684 2381 
L 678 2381 
L 678 2906 
z
M 678 1631 
L 4684 1631 
L 4684 1100 
L 678 1100 
L 678 1631 
z
" transform="scale(0.015625)"/>
      </defs>
      <use xlink:href="#DejaVuSans-6e"/>
      <use xlink:href="#DejaVuSans-75" x="63.378906"/>
      <use xlink:href="#DejaVuSans-20" x="126.757812"/>
      <use xlink:href="#DejaVuSans-3d" x="158.544922"/>
      <use xlink:href="#DejaVuSans-20" x="242.333984"/>
      <use xlink:href="#DejaVuSans-31" x="274.121094"/>
     </g>
    </g>
    <g id="line2d_20">
     <path d="M 337.673125 69.248563 
L 347.673125 69.248563 
L 357.673125 69.248563 
" style="fill: none; stroke: #ff7f0e; stroke-width: 1.5; stroke-linecap: square"/>
    </g>
    <g id="text_19">
     <!-- nu = 2 -->
     <g transform="translate(365.673125 72.748563) scale(0.1 -0.1)">
      <use xlink:href="#DejaVuSans-6e"/>
      <use xlink:href="#DejaVuSans-75" x="63.378906"/>
      <use xlink:href="#DejaVuSans-20" x="126.757812"/>
      <use xlink:href="#DejaVuSans-3d" x="158.544922"/>
      <use xlink:href="#DejaVuSans-20" x="242.333984"/>
      <use xlink:href="#DejaVuSans-32" x="274.121094"/>
     </g>
    </g>
    <g id="line2d_21">
     <path d="M 337.673125 83.926688 
L 347.673125 83.926688 
L 357.673125 83.926688 
" style="fill: none; stroke: #2ca02c; stroke-width: 1.5; stroke-linecap: square"/>
    </g>
    <g id="text_20">
     <!-- nu = 5 -->
     <g transform="translate(365.673125 87.426688) scale(0.1 -0.1)">
      <use xlink:href="#DejaVuSans-6e"/>
      <use xlink:href="#DejaVuSans-75" x="63.378906"/>
      <use xlink:href="#DejaVuSans-20" x="126.757812"/>
      <use xlink:href="#DejaVuSans-3d" x="158.544922"/>
      <use xlink:href="#DejaVuSans-20" x="242.333984"/>
      <use xlink:href="#DejaVuSans-35" x="274.121094"/>
     </g>
    </g>
    <g id="line2d_22">
     <path d="M 337.673125 98.604813 
L 347.673125 98.604813 
L 357.673125 98.604813 
" style="fill: none; stroke: #d62728; stroke-width: 1.5; stroke-linecap: square"/>
    </g>
    <g id="text_21">
     <!-- nu = inf -->
     <g transform="translate(365.673125 102.104813) scale(0.1 -0.1)">
      <defs>
       <path id="DejaVuSans-66" d="M 2375 4863 
L 2375 4384 
L 1825 4384 
Q 1516 4384 1395 4259 
Q 1275 4134 1275 3809 
L 1275 3500 
L 2222 3500 
L 2222 3053 
L 1275 3053 
L 1275 0 
L 697 0 
L 697 3053 
L 147 3053 
L 147 3500 
L 697 3500 
L 697 3744 
Q 697 4328 969 4595 
Q 1241 4863 1831 4863 
L 2375 4863 
z
" transform="scale(0.015625)"/>
      </defs>
      <use xlink:href="#DejaVuSans-6e"/>
      <use xlink:href="#DejaVuSans-75" x="63.378906"/>
      <use xlink:href="#DejaVuSans-20" x="126.757812"/>
      <use xlink:href="#DejaVuSans-3d" x="158.544922"/>
      <use xlink:href="#DejaVuSans-20" x="242.333984"/>
      <use xlink:href="#DejaVuSans-69" x="274.121094"/>
      <use xlink:href="#DejaVuSans-6e" x="301.904297"/>
      <use xlink:href="#DejaVuSans-66" x="365.283203"/>
     </g>
    </g>
   </g>
  </g>
 </g>
 <defs>
  <clipPath id="pe51a7554b5">
   <rect x="57.6" y="41.472" width="357.12" height="266.112"/>
  </clipPath>
 </defs>
</svg>
